G04 #@! TF.GenerationSoftware,KiCad,Pcbnew,8.0.9*
G04 #@! TF.CreationDate,2025-03-02T14:16:38+01:00*
G04 #@! TF.ProjectId,cjss190,636a7373-3139-4302-9e6b-696361645f70,rev?*
G04 #@! TF.SameCoordinates,Original*
G04 #@! TF.FileFunction,Legend,Top*
G04 #@! TF.FilePolarity,Positive*
%FSLAX46Y46*%
G04 Gerber Fmt 4.6, Leading zero omitted, Abs format (unit mm)*
G04 Created by KiCad (PCBNEW 8.0.9) date 2025-03-02 14:16:38*
%MOMM*%
%LPD*%
G01*
G04 APERTURE LIST*
%ADD10C,0.300000*%
%ADD11C,0.150000*%
%ADD12C,0.304800*%
%ADD13C,0.240000*%
%ADD14C,0.120000*%
%ADD15C,0.100000*%
%ADD16C,0.381000*%
%ADD17O,1.900000X3.200000*%
%ADD18C,1.600000*%
%ADD19O,1.600000X1.600000*%
%ADD20R,1.600000X1.600000*%
%ADD21R,1.050000X1.500000*%
%ADD22O,1.050000X1.500000*%
%ADD23C,5.600000*%
%ADD24R,1.200000X1.200000*%
%ADD25C,1.200000*%
%ADD26C,2.000000*%
%ADD27C,2.200000*%
%ADD28R,1.700000X1.700000*%
%ADD29O,1.700000X1.700000*%
%ADD30C,3.200000*%
G04 APERTURE END LIST*
D10*
X76200000Y-61595000D02*
X77470000Y-62865000D01*
X74295000Y-60325000D02*
G75*
G02*
X78105000Y-60325000I1905000J0D01*
G01*
X76200000Y-61595000D02*
X74930000Y-62865000D01*
X74295000Y-60325000D02*
X78105000Y-60325000D01*
X76835000Y-59690000D02*
G75*
G02*
X75565000Y-59690000I-635000J0D01*
G01*
X75565000Y-59690000D02*
G75*
G02*
X76835000Y-59690000I635000J0D01*
G01*
X76200000Y-60325000D02*
X76200000Y-61595000D01*
D11*
X83058095Y-69638152D02*
X83058095Y-70304819D01*
X82820000Y-69257200D02*
X82581905Y-69971485D01*
X82581905Y-69971485D02*
X83200952Y-69971485D01*
X83486667Y-69304819D02*
X84153333Y-69304819D01*
X84153333Y-69304819D02*
X83724762Y-70304819D01*
X84724762Y-69304819D02*
X84820000Y-69304819D01*
X84820000Y-69304819D02*
X84915238Y-69352438D01*
X84915238Y-69352438D02*
X84962857Y-69400057D01*
X84962857Y-69400057D02*
X85010476Y-69495295D01*
X85010476Y-69495295D02*
X85058095Y-69685771D01*
X85058095Y-69685771D02*
X85058095Y-69923866D01*
X85058095Y-69923866D02*
X85010476Y-70114342D01*
X85010476Y-70114342D02*
X84962857Y-70209580D01*
X84962857Y-70209580D02*
X84915238Y-70257200D01*
X84915238Y-70257200D02*
X84820000Y-70304819D01*
X84820000Y-70304819D02*
X84724762Y-70304819D01*
X84724762Y-70304819D02*
X84629524Y-70257200D01*
X84629524Y-70257200D02*
X84581905Y-70209580D01*
X84581905Y-70209580D02*
X84534286Y-70114342D01*
X84534286Y-70114342D02*
X84486667Y-69923866D01*
X84486667Y-69923866D02*
X84486667Y-69685771D01*
X84486667Y-69685771D02*
X84534286Y-69495295D01*
X84534286Y-69495295D02*
X84581905Y-69400057D01*
X84581905Y-69400057D02*
X84629524Y-69352438D01*
X84629524Y-69352438D02*
X84724762Y-69304819D01*
X80764286Y-99784819D02*
X81383333Y-99784819D01*
X81383333Y-99784819D02*
X81050000Y-100165771D01*
X81050000Y-100165771D02*
X81192857Y-100165771D01*
X81192857Y-100165771D02*
X81288095Y-100213390D01*
X81288095Y-100213390D02*
X81335714Y-100261009D01*
X81335714Y-100261009D02*
X81383333Y-100356247D01*
X81383333Y-100356247D02*
X81383333Y-100594342D01*
X81383333Y-100594342D02*
X81335714Y-100689580D01*
X81335714Y-100689580D02*
X81288095Y-100737200D01*
X81288095Y-100737200D02*
X81192857Y-100784819D01*
X81192857Y-100784819D02*
X80907143Y-100784819D01*
X80907143Y-100784819D02*
X80811905Y-100737200D01*
X80811905Y-100737200D02*
X80764286Y-100689580D01*
X81716667Y-99784819D02*
X82335714Y-99784819D01*
X82335714Y-99784819D02*
X82002381Y-100165771D01*
X82002381Y-100165771D02*
X82145238Y-100165771D01*
X82145238Y-100165771D02*
X82240476Y-100213390D01*
X82240476Y-100213390D02*
X82288095Y-100261009D01*
X82288095Y-100261009D02*
X82335714Y-100356247D01*
X82335714Y-100356247D02*
X82335714Y-100594342D01*
X82335714Y-100594342D02*
X82288095Y-100689580D01*
X82288095Y-100689580D02*
X82240476Y-100737200D01*
X82240476Y-100737200D02*
X82145238Y-100784819D01*
X82145238Y-100784819D02*
X81859524Y-100784819D01*
X81859524Y-100784819D02*
X81764286Y-100737200D01*
X81764286Y-100737200D02*
X81716667Y-100689580D01*
X82954762Y-99784819D02*
X83050000Y-99784819D01*
X83050000Y-99784819D02*
X83145238Y-99832438D01*
X83145238Y-99832438D02*
X83192857Y-99880057D01*
X83192857Y-99880057D02*
X83240476Y-99975295D01*
X83240476Y-99975295D02*
X83288095Y-100165771D01*
X83288095Y-100165771D02*
X83288095Y-100403866D01*
X83288095Y-100403866D02*
X83240476Y-100594342D01*
X83240476Y-100594342D02*
X83192857Y-100689580D01*
X83192857Y-100689580D02*
X83145238Y-100737200D01*
X83145238Y-100737200D02*
X83050000Y-100784819D01*
X83050000Y-100784819D02*
X82954762Y-100784819D01*
X82954762Y-100784819D02*
X82859524Y-100737200D01*
X82859524Y-100737200D02*
X82811905Y-100689580D01*
X82811905Y-100689580D02*
X82764286Y-100594342D01*
X82764286Y-100594342D02*
X82716667Y-100403866D01*
X82716667Y-100403866D02*
X82716667Y-100165771D01*
X82716667Y-100165771D02*
X82764286Y-99975295D01*
X82764286Y-99975295D02*
X82811905Y-99880057D01*
X82811905Y-99880057D02*
X82859524Y-99832438D01*
X82859524Y-99832438D02*
X82954762Y-99784819D01*
X83716667Y-100784819D02*
X83716667Y-99784819D01*
X84288095Y-100784819D02*
X83859524Y-100213390D01*
X84288095Y-99784819D02*
X83716667Y-100356247D01*
X67818095Y-79798152D02*
X67818095Y-80464819D01*
X67580000Y-79417200D02*
X67341905Y-80131485D01*
X67341905Y-80131485D02*
X67960952Y-80131485D01*
X68246667Y-79464819D02*
X68913333Y-79464819D01*
X68913333Y-79464819D02*
X68484762Y-80464819D01*
X69484762Y-79464819D02*
X69580000Y-79464819D01*
X69580000Y-79464819D02*
X69675238Y-79512438D01*
X69675238Y-79512438D02*
X69722857Y-79560057D01*
X69722857Y-79560057D02*
X69770476Y-79655295D01*
X69770476Y-79655295D02*
X69818095Y-79845771D01*
X69818095Y-79845771D02*
X69818095Y-80083866D01*
X69818095Y-80083866D02*
X69770476Y-80274342D01*
X69770476Y-80274342D02*
X69722857Y-80369580D01*
X69722857Y-80369580D02*
X69675238Y-80417200D01*
X69675238Y-80417200D02*
X69580000Y-80464819D01*
X69580000Y-80464819D02*
X69484762Y-80464819D01*
X69484762Y-80464819D02*
X69389524Y-80417200D01*
X69389524Y-80417200D02*
X69341905Y-80369580D01*
X69341905Y-80369580D02*
X69294286Y-80274342D01*
X69294286Y-80274342D02*
X69246667Y-80083866D01*
X69246667Y-80083866D02*
X69246667Y-79845771D01*
X69246667Y-79845771D02*
X69294286Y-79655295D01*
X69294286Y-79655295D02*
X69341905Y-79560057D01*
X69341905Y-79560057D02*
X69389524Y-79512438D01*
X69389524Y-79512438D02*
X69484762Y-79464819D01*
X98568095Y-59875057D02*
X98615714Y-59827438D01*
X98615714Y-59827438D02*
X98710952Y-59779819D01*
X98710952Y-59779819D02*
X98949047Y-59779819D01*
X98949047Y-59779819D02*
X99044285Y-59827438D01*
X99044285Y-59827438D02*
X99091904Y-59875057D01*
X99091904Y-59875057D02*
X99139523Y-59970295D01*
X99139523Y-59970295D02*
X99139523Y-60065533D01*
X99139523Y-60065533D02*
X99091904Y-60208390D01*
X99091904Y-60208390D02*
X98520476Y-60779819D01*
X98520476Y-60779819D02*
X99139523Y-60779819D01*
X99520476Y-59875057D02*
X99568095Y-59827438D01*
X99568095Y-59827438D02*
X99663333Y-59779819D01*
X99663333Y-59779819D02*
X99901428Y-59779819D01*
X99901428Y-59779819D02*
X99996666Y-59827438D01*
X99996666Y-59827438D02*
X100044285Y-59875057D01*
X100044285Y-59875057D02*
X100091904Y-59970295D01*
X100091904Y-59970295D02*
X100091904Y-60065533D01*
X100091904Y-60065533D02*
X100044285Y-60208390D01*
X100044285Y-60208390D02*
X99472857Y-60779819D01*
X99472857Y-60779819D02*
X100091904Y-60779819D01*
X100710952Y-59779819D02*
X100806190Y-59779819D01*
X100806190Y-59779819D02*
X100901428Y-59827438D01*
X100901428Y-59827438D02*
X100949047Y-59875057D01*
X100949047Y-59875057D02*
X100996666Y-59970295D01*
X100996666Y-59970295D02*
X101044285Y-60160771D01*
X101044285Y-60160771D02*
X101044285Y-60398866D01*
X101044285Y-60398866D02*
X100996666Y-60589342D01*
X100996666Y-60589342D02*
X100949047Y-60684580D01*
X100949047Y-60684580D02*
X100901428Y-60732200D01*
X100901428Y-60732200D02*
X100806190Y-60779819D01*
X100806190Y-60779819D02*
X100710952Y-60779819D01*
X100710952Y-60779819D02*
X100615714Y-60732200D01*
X100615714Y-60732200D02*
X100568095Y-60684580D01*
X100568095Y-60684580D02*
X100520476Y-60589342D01*
X100520476Y-60589342D02*
X100472857Y-60398866D01*
X100472857Y-60398866D02*
X100472857Y-60160771D01*
X100472857Y-60160771D02*
X100520476Y-59970295D01*
X100520476Y-59970295D02*
X100568095Y-59875057D01*
X100568095Y-59875057D02*
X100615714Y-59827438D01*
X100615714Y-59827438D02*
X100710952Y-59779819D01*
X101472857Y-60113152D02*
X101472857Y-61113152D01*
X101949047Y-60636961D02*
X101996666Y-60732200D01*
X101996666Y-60732200D02*
X102091904Y-60779819D01*
X101472857Y-60636961D02*
X101520476Y-60732200D01*
X101520476Y-60732200D02*
X101615714Y-60779819D01*
X101615714Y-60779819D02*
X101806190Y-60779819D01*
X101806190Y-60779819D02*
X101901428Y-60732200D01*
X101901428Y-60732200D02*
X101949047Y-60636961D01*
X101949047Y-60636961D02*
X101949047Y-60113152D01*
X49538095Y-84640057D02*
X49585714Y-84592438D01*
X49585714Y-84592438D02*
X49680952Y-84544819D01*
X49680952Y-84544819D02*
X49919047Y-84544819D01*
X49919047Y-84544819D02*
X50014285Y-84592438D01*
X50014285Y-84592438D02*
X50061904Y-84640057D01*
X50061904Y-84640057D02*
X50109523Y-84735295D01*
X50109523Y-84735295D02*
X50109523Y-84830533D01*
X50109523Y-84830533D02*
X50061904Y-84973390D01*
X50061904Y-84973390D02*
X49490476Y-85544819D01*
X49490476Y-85544819D02*
X50109523Y-85544819D01*
X50490476Y-84640057D02*
X50538095Y-84592438D01*
X50538095Y-84592438D02*
X50633333Y-84544819D01*
X50633333Y-84544819D02*
X50871428Y-84544819D01*
X50871428Y-84544819D02*
X50966666Y-84592438D01*
X50966666Y-84592438D02*
X51014285Y-84640057D01*
X51014285Y-84640057D02*
X51061904Y-84735295D01*
X51061904Y-84735295D02*
X51061904Y-84830533D01*
X51061904Y-84830533D02*
X51014285Y-84973390D01*
X51014285Y-84973390D02*
X50442857Y-85544819D01*
X50442857Y-85544819D02*
X51061904Y-85544819D01*
X51490476Y-85544819D02*
X51490476Y-84544819D01*
X52061904Y-85544819D02*
X51633333Y-84973390D01*
X52061904Y-84544819D02*
X51490476Y-85116247D01*
X49538095Y-74480057D02*
X49585714Y-74432438D01*
X49585714Y-74432438D02*
X49680952Y-74384819D01*
X49680952Y-74384819D02*
X49919047Y-74384819D01*
X49919047Y-74384819D02*
X50014285Y-74432438D01*
X50014285Y-74432438D02*
X50061904Y-74480057D01*
X50061904Y-74480057D02*
X50109523Y-74575295D01*
X50109523Y-74575295D02*
X50109523Y-74670533D01*
X50109523Y-74670533D02*
X50061904Y-74813390D01*
X50061904Y-74813390D02*
X49490476Y-75384819D01*
X49490476Y-75384819D02*
X50109523Y-75384819D01*
X50490476Y-74480057D02*
X50538095Y-74432438D01*
X50538095Y-74432438D02*
X50633333Y-74384819D01*
X50633333Y-74384819D02*
X50871428Y-74384819D01*
X50871428Y-74384819D02*
X50966666Y-74432438D01*
X50966666Y-74432438D02*
X51014285Y-74480057D01*
X51014285Y-74480057D02*
X51061904Y-74575295D01*
X51061904Y-74575295D02*
X51061904Y-74670533D01*
X51061904Y-74670533D02*
X51014285Y-74813390D01*
X51014285Y-74813390D02*
X50442857Y-75384819D01*
X50442857Y-75384819D02*
X51061904Y-75384819D01*
X51490476Y-75384819D02*
X51490476Y-74384819D01*
X52061904Y-75384819D02*
X51633333Y-74813390D01*
X52061904Y-74384819D02*
X51490476Y-74956247D01*
X83034285Y-89624819D02*
X82843809Y-89624819D01*
X82843809Y-89624819D02*
X82748571Y-89672438D01*
X82748571Y-89672438D02*
X82700952Y-89720057D01*
X82700952Y-89720057D02*
X82605714Y-89862914D01*
X82605714Y-89862914D02*
X82558095Y-90053390D01*
X82558095Y-90053390D02*
X82558095Y-90434342D01*
X82558095Y-90434342D02*
X82605714Y-90529580D01*
X82605714Y-90529580D02*
X82653333Y-90577200D01*
X82653333Y-90577200D02*
X82748571Y-90624819D01*
X82748571Y-90624819D02*
X82939047Y-90624819D01*
X82939047Y-90624819D02*
X83034285Y-90577200D01*
X83034285Y-90577200D02*
X83081904Y-90529580D01*
X83081904Y-90529580D02*
X83129523Y-90434342D01*
X83129523Y-90434342D02*
X83129523Y-90196247D01*
X83129523Y-90196247D02*
X83081904Y-90101009D01*
X83081904Y-90101009D02*
X83034285Y-90053390D01*
X83034285Y-90053390D02*
X82939047Y-90005771D01*
X82939047Y-90005771D02*
X82748571Y-90005771D01*
X82748571Y-90005771D02*
X82653333Y-90053390D01*
X82653333Y-90053390D02*
X82605714Y-90101009D01*
X82605714Y-90101009D02*
X82558095Y-90196247D01*
X83700952Y-90053390D02*
X83605714Y-90005771D01*
X83605714Y-90005771D02*
X83558095Y-89958152D01*
X83558095Y-89958152D02*
X83510476Y-89862914D01*
X83510476Y-89862914D02*
X83510476Y-89815295D01*
X83510476Y-89815295D02*
X83558095Y-89720057D01*
X83558095Y-89720057D02*
X83605714Y-89672438D01*
X83605714Y-89672438D02*
X83700952Y-89624819D01*
X83700952Y-89624819D02*
X83891428Y-89624819D01*
X83891428Y-89624819D02*
X83986666Y-89672438D01*
X83986666Y-89672438D02*
X84034285Y-89720057D01*
X84034285Y-89720057D02*
X84081904Y-89815295D01*
X84081904Y-89815295D02*
X84081904Y-89862914D01*
X84081904Y-89862914D02*
X84034285Y-89958152D01*
X84034285Y-89958152D02*
X83986666Y-90005771D01*
X83986666Y-90005771D02*
X83891428Y-90053390D01*
X83891428Y-90053390D02*
X83700952Y-90053390D01*
X83700952Y-90053390D02*
X83605714Y-90101009D01*
X83605714Y-90101009D02*
X83558095Y-90148628D01*
X83558095Y-90148628D02*
X83510476Y-90243866D01*
X83510476Y-90243866D02*
X83510476Y-90434342D01*
X83510476Y-90434342D02*
X83558095Y-90529580D01*
X83558095Y-90529580D02*
X83605714Y-90577200D01*
X83605714Y-90577200D02*
X83700952Y-90624819D01*
X83700952Y-90624819D02*
X83891428Y-90624819D01*
X83891428Y-90624819D02*
X83986666Y-90577200D01*
X83986666Y-90577200D02*
X84034285Y-90529580D01*
X84034285Y-90529580D02*
X84081904Y-90434342D01*
X84081904Y-90434342D02*
X84081904Y-90243866D01*
X84081904Y-90243866D02*
X84034285Y-90148628D01*
X84034285Y-90148628D02*
X83986666Y-90101009D01*
X83986666Y-90101009D02*
X83891428Y-90053390D01*
X84510476Y-90624819D02*
X84510476Y-89624819D01*
X85081904Y-90624819D02*
X84653333Y-90053390D01*
X85081904Y-89624819D02*
X84510476Y-90196247D01*
X67794285Y-89624819D02*
X67603809Y-89624819D01*
X67603809Y-89624819D02*
X67508571Y-89672438D01*
X67508571Y-89672438D02*
X67460952Y-89720057D01*
X67460952Y-89720057D02*
X67365714Y-89862914D01*
X67365714Y-89862914D02*
X67318095Y-90053390D01*
X67318095Y-90053390D02*
X67318095Y-90434342D01*
X67318095Y-90434342D02*
X67365714Y-90529580D01*
X67365714Y-90529580D02*
X67413333Y-90577200D01*
X67413333Y-90577200D02*
X67508571Y-90624819D01*
X67508571Y-90624819D02*
X67699047Y-90624819D01*
X67699047Y-90624819D02*
X67794285Y-90577200D01*
X67794285Y-90577200D02*
X67841904Y-90529580D01*
X67841904Y-90529580D02*
X67889523Y-90434342D01*
X67889523Y-90434342D02*
X67889523Y-90196247D01*
X67889523Y-90196247D02*
X67841904Y-90101009D01*
X67841904Y-90101009D02*
X67794285Y-90053390D01*
X67794285Y-90053390D02*
X67699047Y-90005771D01*
X67699047Y-90005771D02*
X67508571Y-90005771D01*
X67508571Y-90005771D02*
X67413333Y-90053390D01*
X67413333Y-90053390D02*
X67365714Y-90101009D01*
X67365714Y-90101009D02*
X67318095Y-90196247D01*
X68460952Y-90053390D02*
X68365714Y-90005771D01*
X68365714Y-90005771D02*
X68318095Y-89958152D01*
X68318095Y-89958152D02*
X68270476Y-89862914D01*
X68270476Y-89862914D02*
X68270476Y-89815295D01*
X68270476Y-89815295D02*
X68318095Y-89720057D01*
X68318095Y-89720057D02*
X68365714Y-89672438D01*
X68365714Y-89672438D02*
X68460952Y-89624819D01*
X68460952Y-89624819D02*
X68651428Y-89624819D01*
X68651428Y-89624819D02*
X68746666Y-89672438D01*
X68746666Y-89672438D02*
X68794285Y-89720057D01*
X68794285Y-89720057D02*
X68841904Y-89815295D01*
X68841904Y-89815295D02*
X68841904Y-89862914D01*
X68841904Y-89862914D02*
X68794285Y-89958152D01*
X68794285Y-89958152D02*
X68746666Y-90005771D01*
X68746666Y-90005771D02*
X68651428Y-90053390D01*
X68651428Y-90053390D02*
X68460952Y-90053390D01*
X68460952Y-90053390D02*
X68365714Y-90101009D01*
X68365714Y-90101009D02*
X68318095Y-90148628D01*
X68318095Y-90148628D02*
X68270476Y-90243866D01*
X68270476Y-90243866D02*
X68270476Y-90434342D01*
X68270476Y-90434342D02*
X68318095Y-90529580D01*
X68318095Y-90529580D02*
X68365714Y-90577200D01*
X68365714Y-90577200D02*
X68460952Y-90624819D01*
X68460952Y-90624819D02*
X68651428Y-90624819D01*
X68651428Y-90624819D02*
X68746666Y-90577200D01*
X68746666Y-90577200D02*
X68794285Y-90529580D01*
X68794285Y-90529580D02*
X68841904Y-90434342D01*
X68841904Y-90434342D02*
X68841904Y-90243866D01*
X68841904Y-90243866D02*
X68794285Y-90148628D01*
X68794285Y-90148628D02*
X68746666Y-90101009D01*
X68746666Y-90101009D02*
X68651428Y-90053390D01*
X69270476Y-90624819D02*
X69270476Y-89624819D01*
X69841904Y-90624819D02*
X69413333Y-90053390D01*
X69841904Y-89624819D02*
X69270476Y-90196247D01*
X90852857Y-88831009D02*
X90995714Y-88878628D01*
X90995714Y-88878628D02*
X91043333Y-88926247D01*
X91043333Y-88926247D02*
X91090952Y-89021485D01*
X91090952Y-89021485D02*
X91090952Y-89164342D01*
X91090952Y-89164342D02*
X91043333Y-89259580D01*
X91043333Y-89259580D02*
X90995714Y-89307200D01*
X90995714Y-89307200D02*
X90900476Y-89354819D01*
X90900476Y-89354819D02*
X90519524Y-89354819D01*
X90519524Y-89354819D02*
X90519524Y-88354819D01*
X90519524Y-88354819D02*
X90852857Y-88354819D01*
X90852857Y-88354819D02*
X90948095Y-88402438D01*
X90948095Y-88402438D02*
X90995714Y-88450057D01*
X90995714Y-88450057D02*
X91043333Y-88545295D01*
X91043333Y-88545295D02*
X91043333Y-88640533D01*
X91043333Y-88640533D02*
X90995714Y-88735771D01*
X90995714Y-88735771D02*
X90948095Y-88783390D01*
X90948095Y-88783390D02*
X90852857Y-88831009D01*
X90852857Y-88831009D02*
X90519524Y-88831009D01*
X92090952Y-89259580D02*
X92043333Y-89307200D01*
X92043333Y-89307200D02*
X91900476Y-89354819D01*
X91900476Y-89354819D02*
X91805238Y-89354819D01*
X91805238Y-89354819D02*
X91662381Y-89307200D01*
X91662381Y-89307200D02*
X91567143Y-89211961D01*
X91567143Y-89211961D02*
X91519524Y-89116723D01*
X91519524Y-89116723D02*
X91471905Y-88926247D01*
X91471905Y-88926247D02*
X91471905Y-88783390D01*
X91471905Y-88783390D02*
X91519524Y-88592914D01*
X91519524Y-88592914D02*
X91567143Y-88497676D01*
X91567143Y-88497676D02*
X91662381Y-88402438D01*
X91662381Y-88402438D02*
X91805238Y-88354819D01*
X91805238Y-88354819D02*
X91900476Y-88354819D01*
X91900476Y-88354819D02*
X92043333Y-88402438D01*
X92043333Y-88402438D02*
X92090952Y-88450057D01*
X92995714Y-88354819D02*
X92519524Y-88354819D01*
X92519524Y-88354819D02*
X92471905Y-88831009D01*
X92471905Y-88831009D02*
X92519524Y-88783390D01*
X92519524Y-88783390D02*
X92614762Y-88735771D01*
X92614762Y-88735771D02*
X92852857Y-88735771D01*
X92852857Y-88735771D02*
X92948095Y-88783390D01*
X92948095Y-88783390D02*
X92995714Y-88831009D01*
X92995714Y-88831009D02*
X93043333Y-88926247D01*
X93043333Y-88926247D02*
X93043333Y-89164342D01*
X93043333Y-89164342D02*
X92995714Y-89259580D01*
X92995714Y-89259580D02*
X92948095Y-89307200D01*
X92948095Y-89307200D02*
X92852857Y-89354819D01*
X92852857Y-89354819D02*
X92614762Y-89354819D01*
X92614762Y-89354819D02*
X92519524Y-89307200D01*
X92519524Y-89307200D02*
X92471905Y-89259580D01*
X93948095Y-88354819D02*
X93471905Y-88354819D01*
X93471905Y-88354819D02*
X93424286Y-88831009D01*
X93424286Y-88831009D02*
X93471905Y-88783390D01*
X93471905Y-88783390D02*
X93567143Y-88735771D01*
X93567143Y-88735771D02*
X93805238Y-88735771D01*
X93805238Y-88735771D02*
X93900476Y-88783390D01*
X93900476Y-88783390D02*
X93948095Y-88831009D01*
X93948095Y-88831009D02*
X93995714Y-88926247D01*
X93995714Y-88926247D02*
X93995714Y-89164342D01*
X93995714Y-89164342D02*
X93948095Y-89259580D01*
X93948095Y-89259580D02*
X93900476Y-89307200D01*
X93900476Y-89307200D02*
X93805238Y-89354819D01*
X93805238Y-89354819D02*
X93567143Y-89354819D01*
X93567143Y-89354819D02*
X93471905Y-89307200D01*
X93471905Y-89307200D02*
X93424286Y-89259580D01*
X94471905Y-89354819D02*
X94662381Y-89354819D01*
X94662381Y-89354819D02*
X94757619Y-89307200D01*
X94757619Y-89307200D02*
X94805238Y-89259580D01*
X94805238Y-89259580D02*
X94900476Y-89116723D01*
X94900476Y-89116723D02*
X94948095Y-88926247D01*
X94948095Y-88926247D02*
X94948095Y-88545295D01*
X94948095Y-88545295D02*
X94900476Y-88450057D01*
X94900476Y-88450057D02*
X94852857Y-88402438D01*
X94852857Y-88402438D02*
X94757619Y-88354819D01*
X94757619Y-88354819D02*
X94567143Y-88354819D01*
X94567143Y-88354819D02*
X94471905Y-88402438D01*
X94471905Y-88402438D02*
X94424286Y-88450057D01*
X94424286Y-88450057D02*
X94376667Y-88545295D01*
X94376667Y-88545295D02*
X94376667Y-88783390D01*
X94376667Y-88783390D02*
X94424286Y-88878628D01*
X94424286Y-88878628D02*
X94471905Y-88926247D01*
X94471905Y-88926247D02*
X94567143Y-88973866D01*
X94567143Y-88973866D02*
X94757619Y-88973866D01*
X94757619Y-88973866D02*
X94852857Y-88926247D01*
X94852857Y-88926247D02*
X94900476Y-88878628D01*
X94900476Y-88878628D02*
X94948095Y-88783390D01*
X83058095Y-64224819D02*
X82867619Y-64224819D01*
X82867619Y-64224819D02*
X82772381Y-64272438D01*
X82772381Y-64272438D02*
X82724762Y-64320057D01*
X82724762Y-64320057D02*
X82629524Y-64462914D01*
X82629524Y-64462914D02*
X82581905Y-64653390D01*
X82581905Y-64653390D02*
X82581905Y-65034342D01*
X82581905Y-65034342D02*
X82629524Y-65129580D01*
X82629524Y-65129580D02*
X82677143Y-65177200D01*
X82677143Y-65177200D02*
X82772381Y-65224819D01*
X82772381Y-65224819D02*
X82962857Y-65224819D01*
X82962857Y-65224819D02*
X83058095Y-65177200D01*
X83058095Y-65177200D02*
X83105714Y-65129580D01*
X83105714Y-65129580D02*
X83153333Y-65034342D01*
X83153333Y-65034342D02*
X83153333Y-64796247D01*
X83153333Y-64796247D02*
X83105714Y-64701009D01*
X83105714Y-64701009D02*
X83058095Y-64653390D01*
X83058095Y-64653390D02*
X82962857Y-64605771D01*
X82962857Y-64605771D02*
X82772381Y-64605771D01*
X82772381Y-64605771D02*
X82677143Y-64653390D01*
X82677143Y-64653390D02*
X82629524Y-64701009D01*
X82629524Y-64701009D02*
X82581905Y-64796247D01*
X83724762Y-64653390D02*
X83629524Y-64605771D01*
X83629524Y-64605771D02*
X83581905Y-64558152D01*
X83581905Y-64558152D02*
X83534286Y-64462914D01*
X83534286Y-64462914D02*
X83534286Y-64415295D01*
X83534286Y-64415295D02*
X83581905Y-64320057D01*
X83581905Y-64320057D02*
X83629524Y-64272438D01*
X83629524Y-64272438D02*
X83724762Y-64224819D01*
X83724762Y-64224819D02*
X83915238Y-64224819D01*
X83915238Y-64224819D02*
X84010476Y-64272438D01*
X84010476Y-64272438D02*
X84058095Y-64320057D01*
X84058095Y-64320057D02*
X84105714Y-64415295D01*
X84105714Y-64415295D02*
X84105714Y-64462914D01*
X84105714Y-64462914D02*
X84058095Y-64558152D01*
X84058095Y-64558152D02*
X84010476Y-64605771D01*
X84010476Y-64605771D02*
X83915238Y-64653390D01*
X83915238Y-64653390D02*
X83724762Y-64653390D01*
X83724762Y-64653390D02*
X83629524Y-64701009D01*
X83629524Y-64701009D02*
X83581905Y-64748628D01*
X83581905Y-64748628D02*
X83534286Y-64843866D01*
X83534286Y-64843866D02*
X83534286Y-65034342D01*
X83534286Y-65034342D02*
X83581905Y-65129580D01*
X83581905Y-65129580D02*
X83629524Y-65177200D01*
X83629524Y-65177200D02*
X83724762Y-65224819D01*
X83724762Y-65224819D02*
X83915238Y-65224819D01*
X83915238Y-65224819D02*
X84010476Y-65177200D01*
X84010476Y-65177200D02*
X84058095Y-65129580D01*
X84058095Y-65129580D02*
X84105714Y-65034342D01*
X84105714Y-65034342D02*
X84105714Y-64843866D01*
X84105714Y-64843866D02*
X84058095Y-64748628D01*
X84058095Y-64748628D02*
X84010476Y-64701009D01*
X84010476Y-64701009D02*
X83915238Y-64653390D01*
X84724762Y-64224819D02*
X84820000Y-64224819D01*
X84820000Y-64224819D02*
X84915238Y-64272438D01*
X84915238Y-64272438D02*
X84962857Y-64320057D01*
X84962857Y-64320057D02*
X85010476Y-64415295D01*
X85010476Y-64415295D02*
X85058095Y-64605771D01*
X85058095Y-64605771D02*
X85058095Y-64843866D01*
X85058095Y-64843866D02*
X85010476Y-65034342D01*
X85010476Y-65034342D02*
X84962857Y-65129580D01*
X84962857Y-65129580D02*
X84915238Y-65177200D01*
X84915238Y-65177200D02*
X84820000Y-65224819D01*
X84820000Y-65224819D02*
X84724762Y-65224819D01*
X84724762Y-65224819D02*
X84629524Y-65177200D01*
X84629524Y-65177200D02*
X84581905Y-65129580D01*
X84581905Y-65129580D02*
X84534286Y-65034342D01*
X84534286Y-65034342D02*
X84486667Y-64843866D01*
X84486667Y-64843866D02*
X84486667Y-64605771D01*
X84486667Y-64605771D02*
X84534286Y-64415295D01*
X84534286Y-64415295D02*
X84581905Y-64320057D01*
X84581905Y-64320057D02*
X84629524Y-64272438D01*
X84629524Y-64272438D02*
X84724762Y-64224819D01*
X62277857Y-77401009D02*
X62420714Y-77448628D01*
X62420714Y-77448628D02*
X62468333Y-77496247D01*
X62468333Y-77496247D02*
X62515952Y-77591485D01*
X62515952Y-77591485D02*
X62515952Y-77734342D01*
X62515952Y-77734342D02*
X62468333Y-77829580D01*
X62468333Y-77829580D02*
X62420714Y-77877200D01*
X62420714Y-77877200D02*
X62325476Y-77924819D01*
X62325476Y-77924819D02*
X61944524Y-77924819D01*
X61944524Y-77924819D02*
X61944524Y-76924819D01*
X61944524Y-76924819D02*
X62277857Y-76924819D01*
X62277857Y-76924819D02*
X62373095Y-76972438D01*
X62373095Y-76972438D02*
X62420714Y-77020057D01*
X62420714Y-77020057D02*
X62468333Y-77115295D01*
X62468333Y-77115295D02*
X62468333Y-77210533D01*
X62468333Y-77210533D02*
X62420714Y-77305771D01*
X62420714Y-77305771D02*
X62373095Y-77353390D01*
X62373095Y-77353390D02*
X62277857Y-77401009D01*
X62277857Y-77401009D02*
X61944524Y-77401009D01*
X63515952Y-77829580D02*
X63468333Y-77877200D01*
X63468333Y-77877200D02*
X63325476Y-77924819D01*
X63325476Y-77924819D02*
X63230238Y-77924819D01*
X63230238Y-77924819D02*
X63087381Y-77877200D01*
X63087381Y-77877200D02*
X62992143Y-77781961D01*
X62992143Y-77781961D02*
X62944524Y-77686723D01*
X62944524Y-77686723D02*
X62896905Y-77496247D01*
X62896905Y-77496247D02*
X62896905Y-77353390D01*
X62896905Y-77353390D02*
X62944524Y-77162914D01*
X62944524Y-77162914D02*
X62992143Y-77067676D01*
X62992143Y-77067676D02*
X63087381Y-76972438D01*
X63087381Y-76972438D02*
X63230238Y-76924819D01*
X63230238Y-76924819D02*
X63325476Y-76924819D01*
X63325476Y-76924819D02*
X63468333Y-76972438D01*
X63468333Y-76972438D02*
X63515952Y-77020057D01*
X64420714Y-76924819D02*
X63944524Y-76924819D01*
X63944524Y-76924819D02*
X63896905Y-77401009D01*
X63896905Y-77401009D02*
X63944524Y-77353390D01*
X63944524Y-77353390D02*
X64039762Y-77305771D01*
X64039762Y-77305771D02*
X64277857Y-77305771D01*
X64277857Y-77305771D02*
X64373095Y-77353390D01*
X64373095Y-77353390D02*
X64420714Y-77401009D01*
X64420714Y-77401009D02*
X64468333Y-77496247D01*
X64468333Y-77496247D02*
X64468333Y-77734342D01*
X64468333Y-77734342D02*
X64420714Y-77829580D01*
X64420714Y-77829580D02*
X64373095Y-77877200D01*
X64373095Y-77877200D02*
X64277857Y-77924819D01*
X64277857Y-77924819D02*
X64039762Y-77924819D01*
X64039762Y-77924819D02*
X63944524Y-77877200D01*
X63944524Y-77877200D02*
X63896905Y-77829580D01*
X65373095Y-76924819D02*
X64896905Y-76924819D01*
X64896905Y-76924819D02*
X64849286Y-77401009D01*
X64849286Y-77401009D02*
X64896905Y-77353390D01*
X64896905Y-77353390D02*
X64992143Y-77305771D01*
X64992143Y-77305771D02*
X65230238Y-77305771D01*
X65230238Y-77305771D02*
X65325476Y-77353390D01*
X65325476Y-77353390D02*
X65373095Y-77401009D01*
X65373095Y-77401009D02*
X65420714Y-77496247D01*
X65420714Y-77496247D02*
X65420714Y-77734342D01*
X65420714Y-77734342D02*
X65373095Y-77829580D01*
X65373095Y-77829580D02*
X65325476Y-77877200D01*
X65325476Y-77877200D02*
X65230238Y-77924819D01*
X65230238Y-77924819D02*
X64992143Y-77924819D01*
X64992143Y-77924819D02*
X64896905Y-77877200D01*
X64896905Y-77877200D02*
X64849286Y-77829580D01*
X65896905Y-77924819D02*
X66087381Y-77924819D01*
X66087381Y-77924819D02*
X66182619Y-77877200D01*
X66182619Y-77877200D02*
X66230238Y-77829580D01*
X66230238Y-77829580D02*
X66325476Y-77686723D01*
X66325476Y-77686723D02*
X66373095Y-77496247D01*
X66373095Y-77496247D02*
X66373095Y-77115295D01*
X66373095Y-77115295D02*
X66325476Y-77020057D01*
X66325476Y-77020057D02*
X66277857Y-76972438D01*
X66277857Y-76972438D02*
X66182619Y-76924819D01*
X66182619Y-76924819D02*
X65992143Y-76924819D01*
X65992143Y-76924819D02*
X65896905Y-76972438D01*
X65896905Y-76972438D02*
X65849286Y-77020057D01*
X65849286Y-77020057D02*
X65801667Y-77115295D01*
X65801667Y-77115295D02*
X65801667Y-77353390D01*
X65801667Y-77353390D02*
X65849286Y-77448628D01*
X65849286Y-77448628D02*
X65896905Y-77496247D01*
X65896905Y-77496247D02*
X65992143Y-77543866D01*
X65992143Y-77543866D02*
X66182619Y-77543866D01*
X66182619Y-77543866D02*
X66277857Y-77496247D01*
X66277857Y-77496247D02*
X66325476Y-77448628D01*
X66325476Y-77448628D02*
X66373095Y-77353390D01*
X100338095Y-79560057D02*
X100385714Y-79512438D01*
X100385714Y-79512438D02*
X100480952Y-79464819D01*
X100480952Y-79464819D02*
X100719047Y-79464819D01*
X100719047Y-79464819D02*
X100814285Y-79512438D01*
X100814285Y-79512438D02*
X100861904Y-79560057D01*
X100861904Y-79560057D02*
X100909523Y-79655295D01*
X100909523Y-79655295D02*
X100909523Y-79750533D01*
X100909523Y-79750533D02*
X100861904Y-79893390D01*
X100861904Y-79893390D02*
X100290476Y-80464819D01*
X100290476Y-80464819D02*
X100909523Y-80464819D01*
X101290476Y-79560057D02*
X101338095Y-79512438D01*
X101338095Y-79512438D02*
X101433333Y-79464819D01*
X101433333Y-79464819D02*
X101671428Y-79464819D01*
X101671428Y-79464819D02*
X101766666Y-79512438D01*
X101766666Y-79512438D02*
X101814285Y-79560057D01*
X101814285Y-79560057D02*
X101861904Y-79655295D01*
X101861904Y-79655295D02*
X101861904Y-79750533D01*
X101861904Y-79750533D02*
X101814285Y-79893390D01*
X101814285Y-79893390D02*
X101242857Y-80464819D01*
X101242857Y-80464819D02*
X101861904Y-80464819D01*
X102290476Y-80464819D02*
X102290476Y-79464819D01*
X102861904Y-80464819D02*
X102433333Y-79893390D01*
X102861904Y-79464819D02*
X102290476Y-80036247D01*
X50014285Y-89624819D02*
X49823809Y-89624819D01*
X49823809Y-89624819D02*
X49728571Y-89672438D01*
X49728571Y-89672438D02*
X49680952Y-89720057D01*
X49680952Y-89720057D02*
X49585714Y-89862914D01*
X49585714Y-89862914D02*
X49538095Y-90053390D01*
X49538095Y-90053390D02*
X49538095Y-90434342D01*
X49538095Y-90434342D02*
X49585714Y-90529580D01*
X49585714Y-90529580D02*
X49633333Y-90577200D01*
X49633333Y-90577200D02*
X49728571Y-90624819D01*
X49728571Y-90624819D02*
X49919047Y-90624819D01*
X49919047Y-90624819D02*
X50014285Y-90577200D01*
X50014285Y-90577200D02*
X50061904Y-90529580D01*
X50061904Y-90529580D02*
X50109523Y-90434342D01*
X50109523Y-90434342D02*
X50109523Y-90196247D01*
X50109523Y-90196247D02*
X50061904Y-90101009D01*
X50061904Y-90101009D02*
X50014285Y-90053390D01*
X50014285Y-90053390D02*
X49919047Y-90005771D01*
X49919047Y-90005771D02*
X49728571Y-90005771D01*
X49728571Y-90005771D02*
X49633333Y-90053390D01*
X49633333Y-90053390D02*
X49585714Y-90101009D01*
X49585714Y-90101009D02*
X49538095Y-90196247D01*
X50680952Y-90053390D02*
X50585714Y-90005771D01*
X50585714Y-90005771D02*
X50538095Y-89958152D01*
X50538095Y-89958152D02*
X50490476Y-89862914D01*
X50490476Y-89862914D02*
X50490476Y-89815295D01*
X50490476Y-89815295D02*
X50538095Y-89720057D01*
X50538095Y-89720057D02*
X50585714Y-89672438D01*
X50585714Y-89672438D02*
X50680952Y-89624819D01*
X50680952Y-89624819D02*
X50871428Y-89624819D01*
X50871428Y-89624819D02*
X50966666Y-89672438D01*
X50966666Y-89672438D02*
X51014285Y-89720057D01*
X51014285Y-89720057D02*
X51061904Y-89815295D01*
X51061904Y-89815295D02*
X51061904Y-89862914D01*
X51061904Y-89862914D02*
X51014285Y-89958152D01*
X51014285Y-89958152D02*
X50966666Y-90005771D01*
X50966666Y-90005771D02*
X50871428Y-90053390D01*
X50871428Y-90053390D02*
X50680952Y-90053390D01*
X50680952Y-90053390D02*
X50585714Y-90101009D01*
X50585714Y-90101009D02*
X50538095Y-90148628D01*
X50538095Y-90148628D02*
X50490476Y-90243866D01*
X50490476Y-90243866D02*
X50490476Y-90434342D01*
X50490476Y-90434342D02*
X50538095Y-90529580D01*
X50538095Y-90529580D02*
X50585714Y-90577200D01*
X50585714Y-90577200D02*
X50680952Y-90624819D01*
X50680952Y-90624819D02*
X50871428Y-90624819D01*
X50871428Y-90624819D02*
X50966666Y-90577200D01*
X50966666Y-90577200D02*
X51014285Y-90529580D01*
X51014285Y-90529580D02*
X51061904Y-90434342D01*
X51061904Y-90434342D02*
X51061904Y-90243866D01*
X51061904Y-90243866D02*
X51014285Y-90148628D01*
X51014285Y-90148628D02*
X50966666Y-90101009D01*
X50966666Y-90101009D02*
X50871428Y-90053390D01*
X51490476Y-90624819D02*
X51490476Y-89624819D01*
X52061904Y-90624819D02*
X51633333Y-90053390D01*
X52061904Y-89624819D02*
X51490476Y-90196247D01*
X79189942Y-94035714D02*
X79237561Y-94083333D01*
X79237561Y-94083333D02*
X79285180Y-94178571D01*
X79285180Y-94178571D02*
X79285180Y-94416666D01*
X79285180Y-94416666D02*
X79237561Y-94511904D01*
X79237561Y-94511904D02*
X79189942Y-94559523D01*
X79189942Y-94559523D02*
X79094704Y-94607142D01*
X79094704Y-94607142D02*
X78999466Y-94607142D01*
X78999466Y-94607142D02*
X78856609Y-94559523D01*
X78856609Y-94559523D02*
X78285180Y-93988095D01*
X78285180Y-93988095D02*
X78285180Y-94607142D01*
X79189942Y-94988095D02*
X79237561Y-95035714D01*
X79237561Y-95035714D02*
X79285180Y-95130952D01*
X79285180Y-95130952D02*
X79285180Y-95369047D01*
X79285180Y-95369047D02*
X79237561Y-95464285D01*
X79237561Y-95464285D02*
X79189942Y-95511904D01*
X79189942Y-95511904D02*
X79094704Y-95559523D01*
X79094704Y-95559523D02*
X78999466Y-95559523D01*
X78999466Y-95559523D02*
X78856609Y-95511904D01*
X78856609Y-95511904D02*
X78285180Y-94940476D01*
X78285180Y-94940476D02*
X78285180Y-95559523D01*
X78951847Y-95988095D02*
X78285180Y-95988095D01*
X78856609Y-95988095D02*
X78904228Y-96035714D01*
X78904228Y-96035714D02*
X78951847Y-96130952D01*
X78951847Y-96130952D02*
X78951847Y-96273809D01*
X78951847Y-96273809D02*
X78904228Y-96369047D01*
X78904228Y-96369047D02*
X78808990Y-96416666D01*
X78808990Y-96416666D02*
X78285180Y-96416666D01*
X74109942Y-94035714D02*
X74157561Y-94083333D01*
X74157561Y-94083333D02*
X74205180Y-94178571D01*
X74205180Y-94178571D02*
X74205180Y-94416666D01*
X74205180Y-94416666D02*
X74157561Y-94511904D01*
X74157561Y-94511904D02*
X74109942Y-94559523D01*
X74109942Y-94559523D02*
X74014704Y-94607142D01*
X74014704Y-94607142D02*
X73919466Y-94607142D01*
X73919466Y-94607142D02*
X73776609Y-94559523D01*
X73776609Y-94559523D02*
X73205180Y-93988095D01*
X73205180Y-93988095D02*
X73205180Y-94607142D01*
X74109942Y-94988095D02*
X74157561Y-95035714D01*
X74157561Y-95035714D02*
X74205180Y-95130952D01*
X74205180Y-95130952D02*
X74205180Y-95369047D01*
X74205180Y-95369047D02*
X74157561Y-95464285D01*
X74157561Y-95464285D02*
X74109942Y-95511904D01*
X74109942Y-95511904D02*
X74014704Y-95559523D01*
X74014704Y-95559523D02*
X73919466Y-95559523D01*
X73919466Y-95559523D02*
X73776609Y-95511904D01*
X73776609Y-95511904D02*
X73205180Y-94940476D01*
X73205180Y-94940476D02*
X73205180Y-95559523D01*
X73871847Y-95988095D02*
X73205180Y-95988095D01*
X73776609Y-95988095D02*
X73824228Y-96035714D01*
X73824228Y-96035714D02*
X73871847Y-96130952D01*
X73871847Y-96130952D02*
X73871847Y-96273809D01*
X73871847Y-96273809D02*
X73824228Y-96369047D01*
X73824228Y-96369047D02*
X73728990Y-96416666D01*
X73728990Y-96416666D02*
X73205180Y-96416666D01*
X49538095Y-69400057D02*
X49585714Y-69352438D01*
X49585714Y-69352438D02*
X49680952Y-69304819D01*
X49680952Y-69304819D02*
X49919047Y-69304819D01*
X49919047Y-69304819D02*
X50014285Y-69352438D01*
X50014285Y-69352438D02*
X50061904Y-69400057D01*
X50061904Y-69400057D02*
X50109523Y-69495295D01*
X50109523Y-69495295D02*
X50109523Y-69590533D01*
X50109523Y-69590533D02*
X50061904Y-69733390D01*
X50061904Y-69733390D02*
X49490476Y-70304819D01*
X49490476Y-70304819D02*
X50109523Y-70304819D01*
X50490476Y-69400057D02*
X50538095Y-69352438D01*
X50538095Y-69352438D02*
X50633333Y-69304819D01*
X50633333Y-69304819D02*
X50871428Y-69304819D01*
X50871428Y-69304819D02*
X50966666Y-69352438D01*
X50966666Y-69352438D02*
X51014285Y-69400057D01*
X51014285Y-69400057D02*
X51061904Y-69495295D01*
X51061904Y-69495295D02*
X51061904Y-69590533D01*
X51061904Y-69590533D02*
X51014285Y-69733390D01*
X51014285Y-69733390D02*
X50442857Y-70304819D01*
X50442857Y-70304819D02*
X51061904Y-70304819D01*
X51490476Y-70304819D02*
X51490476Y-69304819D01*
X52061904Y-70304819D02*
X51633333Y-69733390D01*
X52061904Y-69304819D02*
X51490476Y-69876247D01*
X61097143Y-95038152D02*
X61097143Y-95704819D01*
X60882857Y-94657200D02*
X60668571Y-95371485D01*
X60668571Y-95371485D02*
X61225714Y-95371485D01*
X61482857Y-94704819D02*
X62082857Y-94704819D01*
X62082857Y-94704819D02*
X61697143Y-95704819D01*
X62597143Y-94704819D02*
X62682857Y-94704819D01*
X62682857Y-94704819D02*
X62768571Y-94752438D01*
X62768571Y-94752438D02*
X62811429Y-94800057D01*
X62811429Y-94800057D02*
X62854286Y-94895295D01*
X62854286Y-94895295D02*
X62897143Y-95085771D01*
X62897143Y-95085771D02*
X62897143Y-95323866D01*
X62897143Y-95323866D02*
X62854286Y-95514342D01*
X62854286Y-95514342D02*
X62811429Y-95609580D01*
X62811429Y-95609580D02*
X62768571Y-95657200D01*
X62768571Y-95657200D02*
X62682857Y-95704819D01*
X62682857Y-95704819D02*
X62597143Y-95704819D01*
X62597143Y-95704819D02*
X62511429Y-95657200D01*
X62511429Y-95657200D02*
X62468571Y-95609580D01*
X62468571Y-95609580D02*
X62425714Y-95514342D01*
X62425714Y-95514342D02*
X62382857Y-95323866D01*
X62382857Y-95323866D02*
X62382857Y-95085771D01*
X62382857Y-95085771D02*
X62425714Y-94895295D01*
X62425714Y-94895295D02*
X62468571Y-94800057D01*
X62468571Y-94800057D02*
X62511429Y-94752438D01*
X62511429Y-94752438D02*
X62597143Y-94704819D01*
X63282857Y-95038152D02*
X63282857Y-95704819D01*
X63282857Y-95133390D02*
X63325714Y-95085771D01*
X63325714Y-95085771D02*
X63411429Y-95038152D01*
X63411429Y-95038152D02*
X63540000Y-95038152D01*
X63540000Y-95038152D02*
X63625714Y-95085771D01*
X63625714Y-95085771D02*
X63668572Y-95181009D01*
X63668572Y-95181009D02*
X63668572Y-95704819D01*
X65960714Y-93164819D02*
X65389286Y-93164819D01*
X65675000Y-93164819D02*
X65675000Y-92164819D01*
X65675000Y-92164819D02*
X65579762Y-92307676D01*
X65579762Y-92307676D02*
X65484524Y-92402914D01*
X65484524Y-92402914D02*
X65389286Y-92450533D01*
X66579762Y-92164819D02*
X66675000Y-92164819D01*
X66675000Y-92164819D02*
X66770238Y-92212438D01*
X66770238Y-92212438D02*
X66817857Y-92260057D01*
X66817857Y-92260057D02*
X66865476Y-92355295D01*
X66865476Y-92355295D02*
X66913095Y-92545771D01*
X66913095Y-92545771D02*
X66913095Y-92783866D01*
X66913095Y-92783866D02*
X66865476Y-92974342D01*
X66865476Y-92974342D02*
X66817857Y-93069580D01*
X66817857Y-93069580D02*
X66770238Y-93117200D01*
X66770238Y-93117200D02*
X66675000Y-93164819D01*
X66675000Y-93164819D02*
X66579762Y-93164819D01*
X66579762Y-93164819D02*
X66484524Y-93117200D01*
X66484524Y-93117200D02*
X66436905Y-93069580D01*
X66436905Y-93069580D02*
X66389286Y-92974342D01*
X66389286Y-92974342D02*
X66341667Y-92783866D01*
X66341667Y-92783866D02*
X66341667Y-92545771D01*
X66341667Y-92545771D02*
X66389286Y-92355295D01*
X66389286Y-92355295D02*
X66436905Y-92260057D01*
X66436905Y-92260057D02*
X66484524Y-92212438D01*
X66484524Y-92212438D02*
X66579762Y-92164819D01*
X67341667Y-92498152D02*
X67341667Y-93498152D01*
X67817857Y-93021961D02*
X67865476Y-93117200D01*
X67865476Y-93117200D02*
X67960714Y-93164819D01*
X67341667Y-93021961D02*
X67389286Y-93117200D01*
X67389286Y-93117200D02*
X67484524Y-93164819D01*
X67484524Y-93164819D02*
X67675000Y-93164819D01*
X67675000Y-93164819D02*
X67770238Y-93117200D01*
X67770238Y-93117200D02*
X67817857Y-93021961D01*
X67817857Y-93021961D02*
X67817857Y-92498152D01*
X86407857Y-72321009D02*
X86550714Y-72368628D01*
X86550714Y-72368628D02*
X86598333Y-72416247D01*
X86598333Y-72416247D02*
X86645952Y-72511485D01*
X86645952Y-72511485D02*
X86645952Y-72654342D01*
X86645952Y-72654342D02*
X86598333Y-72749580D01*
X86598333Y-72749580D02*
X86550714Y-72797200D01*
X86550714Y-72797200D02*
X86455476Y-72844819D01*
X86455476Y-72844819D02*
X86074524Y-72844819D01*
X86074524Y-72844819D02*
X86074524Y-71844819D01*
X86074524Y-71844819D02*
X86407857Y-71844819D01*
X86407857Y-71844819D02*
X86503095Y-71892438D01*
X86503095Y-71892438D02*
X86550714Y-71940057D01*
X86550714Y-71940057D02*
X86598333Y-72035295D01*
X86598333Y-72035295D02*
X86598333Y-72130533D01*
X86598333Y-72130533D02*
X86550714Y-72225771D01*
X86550714Y-72225771D02*
X86503095Y-72273390D01*
X86503095Y-72273390D02*
X86407857Y-72321009D01*
X86407857Y-72321009D02*
X86074524Y-72321009D01*
X87645952Y-72749580D02*
X87598333Y-72797200D01*
X87598333Y-72797200D02*
X87455476Y-72844819D01*
X87455476Y-72844819D02*
X87360238Y-72844819D01*
X87360238Y-72844819D02*
X87217381Y-72797200D01*
X87217381Y-72797200D02*
X87122143Y-72701961D01*
X87122143Y-72701961D02*
X87074524Y-72606723D01*
X87074524Y-72606723D02*
X87026905Y-72416247D01*
X87026905Y-72416247D02*
X87026905Y-72273390D01*
X87026905Y-72273390D02*
X87074524Y-72082914D01*
X87074524Y-72082914D02*
X87122143Y-71987676D01*
X87122143Y-71987676D02*
X87217381Y-71892438D01*
X87217381Y-71892438D02*
X87360238Y-71844819D01*
X87360238Y-71844819D02*
X87455476Y-71844819D01*
X87455476Y-71844819D02*
X87598333Y-71892438D01*
X87598333Y-71892438D02*
X87645952Y-71940057D01*
X88550714Y-71844819D02*
X88074524Y-71844819D01*
X88074524Y-71844819D02*
X88026905Y-72321009D01*
X88026905Y-72321009D02*
X88074524Y-72273390D01*
X88074524Y-72273390D02*
X88169762Y-72225771D01*
X88169762Y-72225771D02*
X88407857Y-72225771D01*
X88407857Y-72225771D02*
X88503095Y-72273390D01*
X88503095Y-72273390D02*
X88550714Y-72321009D01*
X88550714Y-72321009D02*
X88598333Y-72416247D01*
X88598333Y-72416247D02*
X88598333Y-72654342D01*
X88598333Y-72654342D02*
X88550714Y-72749580D01*
X88550714Y-72749580D02*
X88503095Y-72797200D01*
X88503095Y-72797200D02*
X88407857Y-72844819D01*
X88407857Y-72844819D02*
X88169762Y-72844819D01*
X88169762Y-72844819D02*
X88074524Y-72797200D01*
X88074524Y-72797200D02*
X88026905Y-72749580D01*
X89503095Y-71844819D02*
X89026905Y-71844819D01*
X89026905Y-71844819D02*
X88979286Y-72321009D01*
X88979286Y-72321009D02*
X89026905Y-72273390D01*
X89026905Y-72273390D02*
X89122143Y-72225771D01*
X89122143Y-72225771D02*
X89360238Y-72225771D01*
X89360238Y-72225771D02*
X89455476Y-72273390D01*
X89455476Y-72273390D02*
X89503095Y-72321009D01*
X89503095Y-72321009D02*
X89550714Y-72416247D01*
X89550714Y-72416247D02*
X89550714Y-72654342D01*
X89550714Y-72654342D02*
X89503095Y-72749580D01*
X89503095Y-72749580D02*
X89455476Y-72797200D01*
X89455476Y-72797200D02*
X89360238Y-72844819D01*
X89360238Y-72844819D02*
X89122143Y-72844819D01*
X89122143Y-72844819D02*
X89026905Y-72797200D01*
X89026905Y-72797200D02*
X88979286Y-72749580D01*
X90026905Y-72844819D02*
X90217381Y-72844819D01*
X90217381Y-72844819D02*
X90312619Y-72797200D01*
X90312619Y-72797200D02*
X90360238Y-72749580D01*
X90360238Y-72749580D02*
X90455476Y-72606723D01*
X90455476Y-72606723D02*
X90503095Y-72416247D01*
X90503095Y-72416247D02*
X90503095Y-72035295D01*
X90503095Y-72035295D02*
X90455476Y-71940057D01*
X90455476Y-71940057D02*
X90407857Y-71892438D01*
X90407857Y-71892438D02*
X90312619Y-71844819D01*
X90312619Y-71844819D02*
X90122143Y-71844819D01*
X90122143Y-71844819D02*
X90026905Y-71892438D01*
X90026905Y-71892438D02*
X89979286Y-71940057D01*
X89979286Y-71940057D02*
X89931667Y-72035295D01*
X89931667Y-72035295D02*
X89931667Y-72273390D01*
X89931667Y-72273390D02*
X89979286Y-72368628D01*
X89979286Y-72368628D02*
X90026905Y-72416247D01*
X90026905Y-72416247D02*
X90122143Y-72463866D01*
X90122143Y-72463866D02*
X90312619Y-72463866D01*
X90312619Y-72463866D02*
X90407857Y-72416247D01*
X90407857Y-72416247D02*
X90455476Y-72368628D01*
X90455476Y-72368628D02*
X90503095Y-72273390D01*
X68064286Y-99784819D02*
X68683333Y-99784819D01*
X68683333Y-99784819D02*
X68350000Y-100165771D01*
X68350000Y-100165771D02*
X68492857Y-100165771D01*
X68492857Y-100165771D02*
X68588095Y-100213390D01*
X68588095Y-100213390D02*
X68635714Y-100261009D01*
X68635714Y-100261009D02*
X68683333Y-100356247D01*
X68683333Y-100356247D02*
X68683333Y-100594342D01*
X68683333Y-100594342D02*
X68635714Y-100689580D01*
X68635714Y-100689580D02*
X68588095Y-100737200D01*
X68588095Y-100737200D02*
X68492857Y-100784819D01*
X68492857Y-100784819D02*
X68207143Y-100784819D01*
X68207143Y-100784819D02*
X68111905Y-100737200D01*
X68111905Y-100737200D02*
X68064286Y-100689580D01*
X69016667Y-99784819D02*
X69635714Y-99784819D01*
X69635714Y-99784819D02*
X69302381Y-100165771D01*
X69302381Y-100165771D02*
X69445238Y-100165771D01*
X69445238Y-100165771D02*
X69540476Y-100213390D01*
X69540476Y-100213390D02*
X69588095Y-100261009D01*
X69588095Y-100261009D02*
X69635714Y-100356247D01*
X69635714Y-100356247D02*
X69635714Y-100594342D01*
X69635714Y-100594342D02*
X69588095Y-100689580D01*
X69588095Y-100689580D02*
X69540476Y-100737200D01*
X69540476Y-100737200D02*
X69445238Y-100784819D01*
X69445238Y-100784819D02*
X69159524Y-100784819D01*
X69159524Y-100784819D02*
X69064286Y-100737200D01*
X69064286Y-100737200D02*
X69016667Y-100689580D01*
X70254762Y-99784819D02*
X70350000Y-99784819D01*
X70350000Y-99784819D02*
X70445238Y-99832438D01*
X70445238Y-99832438D02*
X70492857Y-99880057D01*
X70492857Y-99880057D02*
X70540476Y-99975295D01*
X70540476Y-99975295D02*
X70588095Y-100165771D01*
X70588095Y-100165771D02*
X70588095Y-100403866D01*
X70588095Y-100403866D02*
X70540476Y-100594342D01*
X70540476Y-100594342D02*
X70492857Y-100689580D01*
X70492857Y-100689580D02*
X70445238Y-100737200D01*
X70445238Y-100737200D02*
X70350000Y-100784819D01*
X70350000Y-100784819D02*
X70254762Y-100784819D01*
X70254762Y-100784819D02*
X70159524Y-100737200D01*
X70159524Y-100737200D02*
X70111905Y-100689580D01*
X70111905Y-100689580D02*
X70064286Y-100594342D01*
X70064286Y-100594342D02*
X70016667Y-100403866D01*
X70016667Y-100403866D02*
X70016667Y-100165771D01*
X70016667Y-100165771D02*
X70064286Y-99975295D01*
X70064286Y-99975295D02*
X70111905Y-99880057D01*
X70111905Y-99880057D02*
X70159524Y-99832438D01*
X70159524Y-99832438D02*
X70254762Y-99784819D01*
X71016667Y-100784819D02*
X71016667Y-99784819D01*
X71588095Y-100784819D02*
X71159524Y-100213390D01*
X71588095Y-99784819D02*
X71016667Y-100356247D01*
X55694942Y-62880714D02*
X55742561Y-62928333D01*
X55742561Y-62928333D02*
X55790180Y-63023571D01*
X55790180Y-63023571D02*
X55790180Y-63261666D01*
X55790180Y-63261666D02*
X55742561Y-63356904D01*
X55742561Y-63356904D02*
X55694942Y-63404523D01*
X55694942Y-63404523D02*
X55599704Y-63452142D01*
X55599704Y-63452142D02*
X55504466Y-63452142D01*
X55504466Y-63452142D02*
X55361609Y-63404523D01*
X55361609Y-63404523D02*
X54790180Y-62833095D01*
X54790180Y-62833095D02*
X54790180Y-63452142D01*
X55694942Y-63833095D02*
X55742561Y-63880714D01*
X55742561Y-63880714D02*
X55790180Y-63975952D01*
X55790180Y-63975952D02*
X55790180Y-64214047D01*
X55790180Y-64214047D02*
X55742561Y-64309285D01*
X55742561Y-64309285D02*
X55694942Y-64356904D01*
X55694942Y-64356904D02*
X55599704Y-64404523D01*
X55599704Y-64404523D02*
X55504466Y-64404523D01*
X55504466Y-64404523D02*
X55361609Y-64356904D01*
X55361609Y-64356904D02*
X54790180Y-63785476D01*
X54790180Y-63785476D02*
X54790180Y-64404523D01*
X55456847Y-64833095D02*
X54790180Y-64833095D01*
X55361609Y-64833095D02*
X55409228Y-64880714D01*
X55409228Y-64880714D02*
X55456847Y-64975952D01*
X55456847Y-64975952D02*
X55456847Y-65118809D01*
X55456847Y-65118809D02*
X55409228Y-65214047D01*
X55409228Y-65214047D02*
X55313990Y-65261666D01*
X55313990Y-65261666D02*
X54790180Y-65261666D01*
X87939523Y-62684819D02*
X87368095Y-62684819D01*
X87653809Y-62684819D02*
X87653809Y-61684819D01*
X87653809Y-61684819D02*
X87558571Y-61827676D01*
X87558571Y-61827676D02*
X87463333Y-61922914D01*
X87463333Y-61922914D02*
X87368095Y-61970533D01*
X88558571Y-61684819D02*
X88653809Y-61684819D01*
X88653809Y-61684819D02*
X88749047Y-61732438D01*
X88749047Y-61732438D02*
X88796666Y-61780057D01*
X88796666Y-61780057D02*
X88844285Y-61875295D01*
X88844285Y-61875295D02*
X88891904Y-62065771D01*
X88891904Y-62065771D02*
X88891904Y-62303866D01*
X88891904Y-62303866D02*
X88844285Y-62494342D01*
X88844285Y-62494342D02*
X88796666Y-62589580D01*
X88796666Y-62589580D02*
X88749047Y-62637200D01*
X88749047Y-62637200D02*
X88653809Y-62684819D01*
X88653809Y-62684819D02*
X88558571Y-62684819D01*
X88558571Y-62684819D02*
X88463333Y-62637200D01*
X88463333Y-62637200D02*
X88415714Y-62589580D01*
X88415714Y-62589580D02*
X88368095Y-62494342D01*
X88368095Y-62494342D02*
X88320476Y-62303866D01*
X88320476Y-62303866D02*
X88320476Y-62065771D01*
X88320476Y-62065771D02*
X88368095Y-61875295D01*
X88368095Y-61875295D02*
X88415714Y-61780057D01*
X88415714Y-61780057D02*
X88463333Y-61732438D01*
X88463333Y-61732438D02*
X88558571Y-61684819D01*
X89510952Y-61684819D02*
X89606190Y-61684819D01*
X89606190Y-61684819D02*
X89701428Y-61732438D01*
X89701428Y-61732438D02*
X89749047Y-61780057D01*
X89749047Y-61780057D02*
X89796666Y-61875295D01*
X89796666Y-61875295D02*
X89844285Y-62065771D01*
X89844285Y-62065771D02*
X89844285Y-62303866D01*
X89844285Y-62303866D02*
X89796666Y-62494342D01*
X89796666Y-62494342D02*
X89749047Y-62589580D01*
X89749047Y-62589580D02*
X89701428Y-62637200D01*
X89701428Y-62637200D02*
X89606190Y-62684819D01*
X89606190Y-62684819D02*
X89510952Y-62684819D01*
X89510952Y-62684819D02*
X89415714Y-62637200D01*
X89415714Y-62637200D02*
X89368095Y-62589580D01*
X89368095Y-62589580D02*
X89320476Y-62494342D01*
X89320476Y-62494342D02*
X89272857Y-62303866D01*
X89272857Y-62303866D02*
X89272857Y-62065771D01*
X89272857Y-62065771D02*
X89320476Y-61875295D01*
X89320476Y-61875295D02*
X89368095Y-61780057D01*
X89368095Y-61780057D02*
X89415714Y-61732438D01*
X89415714Y-61732438D02*
X89510952Y-61684819D01*
X90272857Y-62018152D02*
X90272857Y-63018152D01*
X90749047Y-62541961D02*
X90796666Y-62637200D01*
X90796666Y-62637200D02*
X90891904Y-62684819D01*
X90272857Y-62541961D02*
X90320476Y-62637200D01*
X90320476Y-62637200D02*
X90415714Y-62684819D01*
X90415714Y-62684819D02*
X90606190Y-62684819D01*
X90606190Y-62684819D02*
X90701428Y-62637200D01*
X90701428Y-62637200D02*
X90749047Y-62541961D01*
X90749047Y-62541961D02*
X90749047Y-62018152D01*
X85010714Y-93164819D02*
X84439286Y-93164819D01*
X84725000Y-93164819D02*
X84725000Y-92164819D01*
X84725000Y-92164819D02*
X84629762Y-92307676D01*
X84629762Y-92307676D02*
X84534524Y-92402914D01*
X84534524Y-92402914D02*
X84439286Y-92450533D01*
X85629762Y-92164819D02*
X85725000Y-92164819D01*
X85725000Y-92164819D02*
X85820238Y-92212438D01*
X85820238Y-92212438D02*
X85867857Y-92260057D01*
X85867857Y-92260057D02*
X85915476Y-92355295D01*
X85915476Y-92355295D02*
X85963095Y-92545771D01*
X85963095Y-92545771D02*
X85963095Y-92783866D01*
X85963095Y-92783866D02*
X85915476Y-92974342D01*
X85915476Y-92974342D02*
X85867857Y-93069580D01*
X85867857Y-93069580D02*
X85820238Y-93117200D01*
X85820238Y-93117200D02*
X85725000Y-93164819D01*
X85725000Y-93164819D02*
X85629762Y-93164819D01*
X85629762Y-93164819D02*
X85534524Y-93117200D01*
X85534524Y-93117200D02*
X85486905Y-93069580D01*
X85486905Y-93069580D02*
X85439286Y-92974342D01*
X85439286Y-92974342D02*
X85391667Y-92783866D01*
X85391667Y-92783866D02*
X85391667Y-92545771D01*
X85391667Y-92545771D02*
X85439286Y-92355295D01*
X85439286Y-92355295D02*
X85486905Y-92260057D01*
X85486905Y-92260057D02*
X85534524Y-92212438D01*
X85534524Y-92212438D02*
X85629762Y-92164819D01*
X86391667Y-92498152D02*
X86391667Y-93498152D01*
X86867857Y-93021961D02*
X86915476Y-93117200D01*
X86915476Y-93117200D02*
X87010714Y-93164819D01*
X86391667Y-93021961D02*
X86439286Y-93117200D01*
X86439286Y-93117200D02*
X86534524Y-93164819D01*
X86534524Y-93164819D02*
X86725000Y-93164819D01*
X86725000Y-93164819D02*
X86820238Y-93117200D01*
X86820238Y-93117200D02*
X86867857Y-93021961D01*
X86867857Y-93021961D02*
X86867857Y-92498152D01*
X56388095Y-98514819D02*
X56197619Y-98514819D01*
X56197619Y-98514819D02*
X56102381Y-98562438D01*
X56102381Y-98562438D02*
X56054762Y-98610057D01*
X56054762Y-98610057D02*
X55959524Y-98752914D01*
X55959524Y-98752914D02*
X55911905Y-98943390D01*
X55911905Y-98943390D02*
X55911905Y-99324342D01*
X55911905Y-99324342D02*
X55959524Y-99419580D01*
X55959524Y-99419580D02*
X56007143Y-99467200D01*
X56007143Y-99467200D02*
X56102381Y-99514819D01*
X56102381Y-99514819D02*
X56292857Y-99514819D01*
X56292857Y-99514819D02*
X56388095Y-99467200D01*
X56388095Y-99467200D02*
X56435714Y-99419580D01*
X56435714Y-99419580D02*
X56483333Y-99324342D01*
X56483333Y-99324342D02*
X56483333Y-99086247D01*
X56483333Y-99086247D02*
X56435714Y-98991009D01*
X56435714Y-98991009D02*
X56388095Y-98943390D01*
X56388095Y-98943390D02*
X56292857Y-98895771D01*
X56292857Y-98895771D02*
X56102381Y-98895771D01*
X56102381Y-98895771D02*
X56007143Y-98943390D01*
X56007143Y-98943390D02*
X55959524Y-98991009D01*
X55959524Y-98991009D02*
X55911905Y-99086247D01*
X57054762Y-98943390D02*
X56959524Y-98895771D01*
X56959524Y-98895771D02*
X56911905Y-98848152D01*
X56911905Y-98848152D02*
X56864286Y-98752914D01*
X56864286Y-98752914D02*
X56864286Y-98705295D01*
X56864286Y-98705295D02*
X56911905Y-98610057D01*
X56911905Y-98610057D02*
X56959524Y-98562438D01*
X56959524Y-98562438D02*
X57054762Y-98514819D01*
X57054762Y-98514819D02*
X57245238Y-98514819D01*
X57245238Y-98514819D02*
X57340476Y-98562438D01*
X57340476Y-98562438D02*
X57388095Y-98610057D01*
X57388095Y-98610057D02*
X57435714Y-98705295D01*
X57435714Y-98705295D02*
X57435714Y-98752914D01*
X57435714Y-98752914D02*
X57388095Y-98848152D01*
X57388095Y-98848152D02*
X57340476Y-98895771D01*
X57340476Y-98895771D02*
X57245238Y-98943390D01*
X57245238Y-98943390D02*
X57054762Y-98943390D01*
X57054762Y-98943390D02*
X56959524Y-98991009D01*
X56959524Y-98991009D02*
X56911905Y-99038628D01*
X56911905Y-99038628D02*
X56864286Y-99133866D01*
X56864286Y-99133866D02*
X56864286Y-99324342D01*
X56864286Y-99324342D02*
X56911905Y-99419580D01*
X56911905Y-99419580D02*
X56959524Y-99467200D01*
X56959524Y-99467200D02*
X57054762Y-99514819D01*
X57054762Y-99514819D02*
X57245238Y-99514819D01*
X57245238Y-99514819D02*
X57340476Y-99467200D01*
X57340476Y-99467200D02*
X57388095Y-99419580D01*
X57388095Y-99419580D02*
X57435714Y-99324342D01*
X57435714Y-99324342D02*
X57435714Y-99133866D01*
X57435714Y-99133866D02*
X57388095Y-99038628D01*
X57388095Y-99038628D02*
X57340476Y-98991009D01*
X57340476Y-98991009D02*
X57245238Y-98943390D01*
X58054762Y-98514819D02*
X58150000Y-98514819D01*
X58150000Y-98514819D02*
X58245238Y-98562438D01*
X58245238Y-98562438D02*
X58292857Y-98610057D01*
X58292857Y-98610057D02*
X58340476Y-98705295D01*
X58340476Y-98705295D02*
X58388095Y-98895771D01*
X58388095Y-98895771D02*
X58388095Y-99133866D01*
X58388095Y-99133866D02*
X58340476Y-99324342D01*
X58340476Y-99324342D02*
X58292857Y-99419580D01*
X58292857Y-99419580D02*
X58245238Y-99467200D01*
X58245238Y-99467200D02*
X58150000Y-99514819D01*
X58150000Y-99514819D02*
X58054762Y-99514819D01*
X58054762Y-99514819D02*
X57959524Y-99467200D01*
X57959524Y-99467200D02*
X57911905Y-99419580D01*
X57911905Y-99419580D02*
X57864286Y-99324342D01*
X57864286Y-99324342D02*
X57816667Y-99133866D01*
X57816667Y-99133866D02*
X57816667Y-98895771D01*
X57816667Y-98895771D02*
X57864286Y-98705295D01*
X57864286Y-98705295D02*
X57911905Y-98610057D01*
X57911905Y-98610057D02*
X57959524Y-98562438D01*
X57959524Y-98562438D02*
X58054762Y-98514819D01*
X100338095Y-74480057D02*
X100385714Y-74432438D01*
X100385714Y-74432438D02*
X100480952Y-74384819D01*
X100480952Y-74384819D02*
X100719047Y-74384819D01*
X100719047Y-74384819D02*
X100814285Y-74432438D01*
X100814285Y-74432438D02*
X100861904Y-74480057D01*
X100861904Y-74480057D02*
X100909523Y-74575295D01*
X100909523Y-74575295D02*
X100909523Y-74670533D01*
X100909523Y-74670533D02*
X100861904Y-74813390D01*
X100861904Y-74813390D02*
X100290476Y-75384819D01*
X100290476Y-75384819D02*
X100909523Y-75384819D01*
X101290476Y-74480057D02*
X101338095Y-74432438D01*
X101338095Y-74432438D02*
X101433333Y-74384819D01*
X101433333Y-74384819D02*
X101671428Y-74384819D01*
X101671428Y-74384819D02*
X101766666Y-74432438D01*
X101766666Y-74432438D02*
X101814285Y-74480057D01*
X101814285Y-74480057D02*
X101861904Y-74575295D01*
X101861904Y-74575295D02*
X101861904Y-74670533D01*
X101861904Y-74670533D02*
X101814285Y-74813390D01*
X101814285Y-74813390D02*
X101242857Y-75384819D01*
X101242857Y-75384819D02*
X101861904Y-75384819D01*
X102290476Y-75384819D02*
X102290476Y-74384819D01*
X102861904Y-75384819D02*
X102433333Y-74813390D01*
X102861904Y-74384819D02*
X102290476Y-74956247D01*
X49538095Y-79560057D02*
X49585714Y-79512438D01*
X49585714Y-79512438D02*
X49680952Y-79464819D01*
X49680952Y-79464819D02*
X49919047Y-79464819D01*
X49919047Y-79464819D02*
X50014285Y-79512438D01*
X50014285Y-79512438D02*
X50061904Y-79560057D01*
X50061904Y-79560057D02*
X50109523Y-79655295D01*
X50109523Y-79655295D02*
X50109523Y-79750533D01*
X50109523Y-79750533D02*
X50061904Y-79893390D01*
X50061904Y-79893390D02*
X49490476Y-80464819D01*
X49490476Y-80464819D02*
X50109523Y-80464819D01*
X50490476Y-79560057D02*
X50538095Y-79512438D01*
X50538095Y-79512438D02*
X50633333Y-79464819D01*
X50633333Y-79464819D02*
X50871428Y-79464819D01*
X50871428Y-79464819D02*
X50966666Y-79512438D01*
X50966666Y-79512438D02*
X51014285Y-79560057D01*
X51014285Y-79560057D02*
X51061904Y-79655295D01*
X51061904Y-79655295D02*
X51061904Y-79750533D01*
X51061904Y-79750533D02*
X51014285Y-79893390D01*
X51014285Y-79893390D02*
X50442857Y-80464819D01*
X50442857Y-80464819D02*
X51061904Y-80464819D01*
X51490476Y-80464819D02*
X51490476Y-79464819D01*
X52061904Y-80464819D02*
X51633333Y-79893390D01*
X52061904Y-79464819D02*
X51490476Y-80036247D01*
D12*
X73605818Y-47933429D02*
X75129818Y-47933429D01*
X75129818Y-47933429D02*
X74041247Y-48441429D01*
X74041247Y-48441429D02*
X75129818Y-48949429D01*
X75129818Y-48949429D02*
X73605818Y-48949429D01*
X73605818Y-49675143D02*
X75129818Y-49675143D01*
X75129818Y-49675143D02*
X74041247Y-50183143D01*
X74041247Y-50183143D02*
X75129818Y-50691143D01*
X75129818Y-50691143D02*
X73605818Y-50691143D01*
X75129818Y-52868285D02*
X75129818Y-53158571D01*
X75129818Y-53158571D02*
X75057247Y-53303714D01*
X75057247Y-53303714D02*
X74912104Y-53448857D01*
X74912104Y-53448857D02*
X74621818Y-53521428D01*
X74621818Y-53521428D02*
X74113818Y-53521428D01*
X74113818Y-53521428D02*
X73823532Y-53448857D01*
X73823532Y-53448857D02*
X73678390Y-53303714D01*
X73678390Y-53303714D02*
X73605818Y-53158571D01*
X73605818Y-53158571D02*
X73605818Y-52868285D01*
X73605818Y-52868285D02*
X73678390Y-52723143D01*
X73678390Y-52723143D02*
X73823532Y-52578000D01*
X73823532Y-52578000D02*
X74113818Y-52505428D01*
X74113818Y-52505428D02*
X74621818Y-52505428D01*
X74621818Y-52505428D02*
X74912104Y-52578000D01*
X74912104Y-52578000D02*
X75057247Y-52723143D01*
X75057247Y-52723143D02*
X75129818Y-52868285D01*
X75129818Y-54174571D02*
X73896104Y-54174571D01*
X73896104Y-54174571D02*
X73750961Y-54247142D01*
X73750961Y-54247142D02*
X73678390Y-54319714D01*
X73678390Y-54319714D02*
X73605818Y-54464856D01*
X73605818Y-54464856D02*
X73605818Y-54755142D01*
X73605818Y-54755142D02*
X73678390Y-54900285D01*
X73678390Y-54900285D02*
X73750961Y-54972856D01*
X73750961Y-54972856D02*
X73896104Y-55045428D01*
X73896104Y-55045428D02*
X75129818Y-55045428D01*
X75129818Y-55553427D02*
X75129818Y-56424285D01*
X73605818Y-55988856D02*
X75129818Y-55988856D01*
D11*
X99020476Y-94704819D02*
X99639523Y-94704819D01*
X99639523Y-94704819D02*
X99306190Y-95085771D01*
X99306190Y-95085771D02*
X99449047Y-95085771D01*
X99449047Y-95085771D02*
X99544285Y-95133390D01*
X99544285Y-95133390D02*
X99591904Y-95181009D01*
X99591904Y-95181009D02*
X99639523Y-95276247D01*
X99639523Y-95276247D02*
X99639523Y-95514342D01*
X99639523Y-95514342D02*
X99591904Y-95609580D01*
X99591904Y-95609580D02*
X99544285Y-95657200D01*
X99544285Y-95657200D02*
X99449047Y-95704819D01*
X99449047Y-95704819D02*
X99163333Y-95704819D01*
X99163333Y-95704819D02*
X99068095Y-95657200D01*
X99068095Y-95657200D02*
X99020476Y-95609580D01*
X100068095Y-95704819D02*
X100068095Y-94704819D01*
X100639523Y-95704819D02*
X100210952Y-95133390D01*
X100639523Y-94704819D02*
X100068095Y-95276247D01*
X100972857Y-94704819D02*
X101591904Y-94704819D01*
X101591904Y-94704819D02*
X101258571Y-95085771D01*
X101258571Y-95085771D02*
X101401428Y-95085771D01*
X101401428Y-95085771D02*
X101496666Y-95133390D01*
X101496666Y-95133390D02*
X101544285Y-95181009D01*
X101544285Y-95181009D02*
X101591904Y-95276247D01*
X101591904Y-95276247D02*
X101591904Y-95514342D01*
X101591904Y-95514342D02*
X101544285Y-95609580D01*
X101544285Y-95609580D02*
X101496666Y-95657200D01*
X101496666Y-95657200D02*
X101401428Y-95704819D01*
X101401428Y-95704819D02*
X101115714Y-95704819D01*
X101115714Y-95704819D02*
X101020476Y-95657200D01*
X101020476Y-95657200D02*
X100972857Y-95609580D01*
X86407857Y-82481009D02*
X86550714Y-82528628D01*
X86550714Y-82528628D02*
X86598333Y-82576247D01*
X86598333Y-82576247D02*
X86645952Y-82671485D01*
X86645952Y-82671485D02*
X86645952Y-82814342D01*
X86645952Y-82814342D02*
X86598333Y-82909580D01*
X86598333Y-82909580D02*
X86550714Y-82957200D01*
X86550714Y-82957200D02*
X86455476Y-83004819D01*
X86455476Y-83004819D02*
X86074524Y-83004819D01*
X86074524Y-83004819D02*
X86074524Y-82004819D01*
X86074524Y-82004819D02*
X86407857Y-82004819D01*
X86407857Y-82004819D02*
X86503095Y-82052438D01*
X86503095Y-82052438D02*
X86550714Y-82100057D01*
X86550714Y-82100057D02*
X86598333Y-82195295D01*
X86598333Y-82195295D02*
X86598333Y-82290533D01*
X86598333Y-82290533D02*
X86550714Y-82385771D01*
X86550714Y-82385771D02*
X86503095Y-82433390D01*
X86503095Y-82433390D02*
X86407857Y-82481009D01*
X86407857Y-82481009D02*
X86074524Y-82481009D01*
X87645952Y-82909580D02*
X87598333Y-82957200D01*
X87598333Y-82957200D02*
X87455476Y-83004819D01*
X87455476Y-83004819D02*
X87360238Y-83004819D01*
X87360238Y-83004819D02*
X87217381Y-82957200D01*
X87217381Y-82957200D02*
X87122143Y-82861961D01*
X87122143Y-82861961D02*
X87074524Y-82766723D01*
X87074524Y-82766723D02*
X87026905Y-82576247D01*
X87026905Y-82576247D02*
X87026905Y-82433390D01*
X87026905Y-82433390D02*
X87074524Y-82242914D01*
X87074524Y-82242914D02*
X87122143Y-82147676D01*
X87122143Y-82147676D02*
X87217381Y-82052438D01*
X87217381Y-82052438D02*
X87360238Y-82004819D01*
X87360238Y-82004819D02*
X87455476Y-82004819D01*
X87455476Y-82004819D02*
X87598333Y-82052438D01*
X87598333Y-82052438D02*
X87645952Y-82100057D01*
X88550714Y-82004819D02*
X88074524Y-82004819D01*
X88074524Y-82004819D02*
X88026905Y-82481009D01*
X88026905Y-82481009D02*
X88074524Y-82433390D01*
X88074524Y-82433390D02*
X88169762Y-82385771D01*
X88169762Y-82385771D02*
X88407857Y-82385771D01*
X88407857Y-82385771D02*
X88503095Y-82433390D01*
X88503095Y-82433390D02*
X88550714Y-82481009D01*
X88550714Y-82481009D02*
X88598333Y-82576247D01*
X88598333Y-82576247D02*
X88598333Y-82814342D01*
X88598333Y-82814342D02*
X88550714Y-82909580D01*
X88550714Y-82909580D02*
X88503095Y-82957200D01*
X88503095Y-82957200D02*
X88407857Y-83004819D01*
X88407857Y-83004819D02*
X88169762Y-83004819D01*
X88169762Y-83004819D02*
X88074524Y-82957200D01*
X88074524Y-82957200D02*
X88026905Y-82909580D01*
X89503095Y-82004819D02*
X89026905Y-82004819D01*
X89026905Y-82004819D02*
X88979286Y-82481009D01*
X88979286Y-82481009D02*
X89026905Y-82433390D01*
X89026905Y-82433390D02*
X89122143Y-82385771D01*
X89122143Y-82385771D02*
X89360238Y-82385771D01*
X89360238Y-82385771D02*
X89455476Y-82433390D01*
X89455476Y-82433390D02*
X89503095Y-82481009D01*
X89503095Y-82481009D02*
X89550714Y-82576247D01*
X89550714Y-82576247D02*
X89550714Y-82814342D01*
X89550714Y-82814342D02*
X89503095Y-82909580D01*
X89503095Y-82909580D02*
X89455476Y-82957200D01*
X89455476Y-82957200D02*
X89360238Y-83004819D01*
X89360238Y-83004819D02*
X89122143Y-83004819D01*
X89122143Y-83004819D02*
X89026905Y-82957200D01*
X89026905Y-82957200D02*
X88979286Y-82909580D01*
X90026905Y-83004819D02*
X90217381Y-83004819D01*
X90217381Y-83004819D02*
X90312619Y-82957200D01*
X90312619Y-82957200D02*
X90360238Y-82909580D01*
X90360238Y-82909580D02*
X90455476Y-82766723D01*
X90455476Y-82766723D02*
X90503095Y-82576247D01*
X90503095Y-82576247D02*
X90503095Y-82195295D01*
X90503095Y-82195295D02*
X90455476Y-82100057D01*
X90455476Y-82100057D02*
X90407857Y-82052438D01*
X90407857Y-82052438D02*
X90312619Y-82004819D01*
X90312619Y-82004819D02*
X90122143Y-82004819D01*
X90122143Y-82004819D02*
X90026905Y-82052438D01*
X90026905Y-82052438D02*
X89979286Y-82100057D01*
X89979286Y-82100057D02*
X89931667Y-82195295D01*
X89931667Y-82195295D02*
X89931667Y-82433390D01*
X89931667Y-82433390D02*
X89979286Y-82528628D01*
X89979286Y-82528628D02*
X90026905Y-82576247D01*
X90026905Y-82576247D02*
X90122143Y-82623866D01*
X90122143Y-82623866D02*
X90312619Y-82623866D01*
X90312619Y-82623866D02*
X90407857Y-82576247D01*
X90407857Y-82576247D02*
X90455476Y-82528628D01*
X90455476Y-82528628D02*
X90503095Y-82433390D01*
X50760476Y-94704819D02*
X51379523Y-94704819D01*
X51379523Y-94704819D02*
X51046190Y-95085771D01*
X51046190Y-95085771D02*
X51189047Y-95085771D01*
X51189047Y-95085771D02*
X51284285Y-95133390D01*
X51284285Y-95133390D02*
X51331904Y-95181009D01*
X51331904Y-95181009D02*
X51379523Y-95276247D01*
X51379523Y-95276247D02*
X51379523Y-95514342D01*
X51379523Y-95514342D02*
X51331904Y-95609580D01*
X51331904Y-95609580D02*
X51284285Y-95657200D01*
X51284285Y-95657200D02*
X51189047Y-95704819D01*
X51189047Y-95704819D02*
X50903333Y-95704819D01*
X50903333Y-95704819D02*
X50808095Y-95657200D01*
X50808095Y-95657200D02*
X50760476Y-95609580D01*
X51808095Y-95704819D02*
X51808095Y-94704819D01*
X52379523Y-95704819D02*
X51950952Y-95133390D01*
X52379523Y-94704819D02*
X51808095Y-95276247D01*
X52712857Y-94704819D02*
X53331904Y-94704819D01*
X53331904Y-94704819D02*
X52998571Y-95085771D01*
X52998571Y-95085771D02*
X53141428Y-95085771D01*
X53141428Y-95085771D02*
X53236666Y-95133390D01*
X53236666Y-95133390D02*
X53284285Y-95181009D01*
X53284285Y-95181009D02*
X53331904Y-95276247D01*
X53331904Y-95276247D02*
X53331904Y-95514342D01*
X53331904Y-95514342D02*
X53284285Y-95609580D01*
X53284285Y-95609580D02*
X53236666Y-95657200D01*
X53236666Y-95657200D02*
X53141428Y-95704819D01*
X53141428Y-95704819D02*
X52855714Y-95704819D01*
X52855714Y-95704819D02*
X52760476Y-95657200D01*
X52760476Y-95657200D02*
X52712857Y-95609580D01*
X94488095Y-98514819D02*
X94297619Y-98514819D01*
X94297619Y-98514819D02*
X94202381Y-98562438D01*
X94202381Y-98562438D02*
X94154762Y-98610057D01*
X94154762Y-98610057D02*
X94059524Y-98752914D01*
X94059524Y-98752914D02*
X94011905Y-98943390D01*
X94011905Y-98943390D02*
X94011905Y-99324342D01*
X94011905Y-99324342D02*
X94059524Y-99419580D01*
X94059524Y-99419580D02*
X94107143Y-99467200D01*
X94107143Y-99467200D02*
X94202381Y-99514819D01*
X94202381Y-99514819D02*
X94392857Y-99514819D01*
X94392857Y-99514819D02*
X94488095Y-99467200D01*
X94488095Y-99467200D02*
X94535714Y-99419580D01*
X94535714Y-99419580D02*
X94583333Y-99324342D01*
X94583333Y-99324342D02*
X94583333Y-99086247D01*
X94583333Y-99086247D02*
X94535714Y-98991009D01*
X94535714Y-98991009D02*
X94488095Y-98943390D01*
X94488095Y-98943390D02*
X94392857Y-98895771D01*
X94392857Y-98895771D02*
X94202381Y-98895771D01*
X94202381Y-98895771D02*
X94107143Y-98943390D01*
X94107143Y-98943390D02*
X94059524Y-98991009D01*
X94059524Y-98991009D02*
X94011905Y-99086247D01*
X95154762Y-98943390D02*
X95059524Y-98895771D01*
X95059524Y-98895771D02*
X95011905Y-98848152D01*
X95011905Y-98848152D02*
X94964286Y-98752914D01*
X94964286Y-98752914D02*
X94964286Y-98705295D01*
X94964286Y-98705295D02*
X95011905Y-98610057D01*
X95011905Y-98610057D02*
X95059524Y-98562438D01*
X95059524Y-98562438D02*
X95154762Y-98514819D01*
X95154762Y-98514819D02*
X95345238Y-98514819D01*
X95345238Y-98514819D02*
X95440476Y-98562438D01*
X95440476Y-98562438D02*
X95488095Y-98610057D01*
X95488095Y-98610057D02*
X95535714Y-98705295D01*
X95535714Y-98705295D02*
X95535714Y-98752914D01*
X95535714Y-98752914D02*
X95488095Y-98848152D01*
X95488095Y-98848152D02*
X95440476Y-98895771D01*
X95440476Y-98895771D02*
X95345238Y-98943390D01*
X95345238Y-98943390D02*
X95154762Y-98943390D01*
X95154762Y-98943390D02*
X95059524Y-98991009D01*
X95059524Y-98991009D02*
X95011905Y-99038628D01*
X95011905Y-99038628D02*
X94964286Y-99133866D01*
X94964286Y-99133866D02*
X94964286Y-99324342D01*
X94964286Y-99324342D02*
X95011905Y-99419580D01*
X95011905Y-99419580D02*
X95059524Y-99467200D01*
X95059524Y-99467200D02*
X95154762Y-99514819D01*
X95154762Y-99514819D02*
X95345238Y-99514819D01*
X95345238Y-99514819D02*
X95440476Y-99467200D01*
X95440476Y-99467200D02*
X95488095Y-99419580D01*
X95488095Y-99419580D02*
X95535714Y-99324342D01*
X95535714Y-99324342D02*
X95535714Y-99133866D01*
X95535714Y-99133866D02*
X95488095Y-99038628D01*
X95488095Y-99038628D02*
X95440476Y-98991009D01*
X95440476Y-98991009D02*
X95345238Y-98943390D01*
X96154762Y-98514819D02*
X96250000Y-98514819D01*
X96250000Y-98514819D02*
X96345238Y-98562438D01*
X96345238Y-98562438D02*
X96392857Y-98610057D01*
X96392857Y-98610057D02*
X96440476Y-98705295D01*
X96440476Y-98705295D02*
X96488095Y-98895771D01*
X96488095Y-98895771D02*
X96488095Y-99133866D01*
X96488095Y-99133866D02*
X96440476Y-99324342D01*
X96440476Y-99324342D02*
X96392857Y-99419580D01*
X96392857Y-99419580D02*
X96345238Y-99467200D01*
X96345238Y-99467200D02*
X96250000Y-99514819D01*
X96250000Y-99514819D02*
X96154762Y-99514819D01*
X96154762Y-99514819D02*
X96059524Y-99467200D01*
X96059524Y-99467200D02*
X96011905Y-99419580D01*
X96011905Y-99419580D02*
X95964286Y-99324342D01*
X95964286Y-99324342D02*
X95916667Y-99133866D01*
X95916667Y-99133866D02*
X95916667Y-98895771D01*
X95916667Y-98895771D02*
X95964286Y-98705295D01*
X95964286Y-98705295D02*
X96011905Y-98610057D01*
X96011905Y-98610057D02*
X96059524Y-98562438D01*
X96059524Y-98562438D02*
X96154762Y-98514819D01*
X57832857Y-87811009D02*
X57975714Y-87858628D01*
X57975714Y-87858628D02*
X58023333Y-87906247D01*
X58023333Y-87906247D02*
X58070952Y-88001485D01*
X58070952Y-88001485D02*
X58070952Y-88144342D01*
X58070952Y-88144342D02*
X58023333Y-88239580D01*
X58023333Y-88239580D02*
X57975714Y-88287200D01*
X57975714Y-88287200D02*
X57880476Y-88334819D01*
X57880476Y-88334819D02*
X57499524Y-88334819D01*
X57499524Y-88334819D02*
X57499524Y-87334819D01*
X57499524Y-87334819D02*
X57832857Y-87334819D01*
X57832857Y-87334819D02*
X57928095Y-87382438D01*
X57928095Y-87382438D02*
X57975714Y-87430057D01*
X57975714Y-87430057D02*
X58023333Y-87525295D01*
X58023333Y-87525295D02*
X58023333Y-87620533D01*
X58023333Y-87620533D02*
X57975714Y-87715771D01*
X57975714Y-87715771D02*
X57928095Y-87763390D01*
X57928095Y-87763390D02*
X57832857Y-87811009D01*
X57832857Y-87811009D02*
X57499524Y-87811009D01*
X59070952Y-88239580D02*
X59023333Y-88287200D01*
X59023333Y-88287200D02*
X58880476Y-88334819D01*
X58880476Y-88334819D02*
X58785238Y-88334819D01*
X58785238Y-88334819D02*
X58642381Y-88287200D01*
X58642381Y-88287200D02*
X58547143Y-88191961D01*
X58547143Y-88191961D02*
X58499524Y-88096723D01*
X58499524Y-88096723D02*
X58451905Y-87906247D01*
X58451905Y-87906247D02*
X58451905Y-87763390D01*
X58451905Y-87763390D02*
X58499524Y-87572914D01*
X58499524Y-87572914D02*
X58547143Y-87477676D01*
X58547143Y-87477676D02*
X58642381Y-87382438D01*
X58642381Y-87382438D02*
X58785238Y-87334819D01*
X58785238Y-87334819D02*
X58880476Y-87334819D01*
X58880476Y-87334819D02*
X59023333Y-87382438D01*
X59023333Y-87382438D02*
X59070952Y-87430057D01*
X59975714Y-87334819D02*
X59499524Y-87334819D01*
X59499524Y-87334819D02*
X59451905Y-87811009D01*
X59451905Y-87811009D02*
X59499524Y-87763390D01*
X59499524Y-87763390D02*
X59594762Y-87715771D01*
X59594762Y-87715771D02*
X59832857Y-87715771D01*
X59832857Y-87715771D02*
X59928095Y-87763390D01*
X59928095Y-87763390D02*
X59975714Y-87811009D01*
X59975714Y-87811009D02*
X60023333Y-87906247D01*
X60023333Y-87906247D02*
X60023333Y-88144342D01*
X60023333Y-88144342D02*
X59975714Y-88239580D01*
X59975714Y-88239580D02*
X59928095Y-88287200D01*
X59928095Y-88287200D02*
X59832857Y-88334819D01*
X59832857Y-88334819D02*
X59594762Y-88334819D01*
X59594762Y-88334819D02*
X59499524Y-88287200D01*
X59499524Y-88287200D02*
X59451905Y-88239580D01*
X60928095Y-87334819D02*
X60451905Y-87334819D01*
X60451905Y-87334819D02*
X60404286Y-87811009D01*
X60404286Y-87811009D02*
X60451905Y-87763390D01*
X60451905Y-87763390D02*
X60547143Y-87715771D01*
X60547143Y-87715771D02*
X60785238Y-87715771D01*
X60785238Y-87715771D02*
X60880476Y-87763390D01*
X60880476Y-87763390D02*
X60928095Y-87811009D01*
X60928095Y-87811009D02*
X60975714Y-87906247D01*
X60975714Y-87906247D02*
X60975714Y-88144342D01*
X60975714Y-88144342D02*
X60928095Y-88239580D01*
X60928095Y-88239580D02*
X60880476Y-88287200D01*
X60880476Y-88287200D02*
X60785238Y-88334819D01*
X60785238Y-88334819D02*
X60547143Y-88334819D01*
X60547143Y-88334819D02*
X60451905Y-88287200D01*
X60451905Y-88287200D02*
X60404286Y-88239580D01*
X61451905Y-88334819D02*
X61642381Y-88334819D01*
X61642381Y-88334819D02*
X61737619Y-88287200D01*
X61737619Y-88287200D02*
X61785238Y-88239580D01*
X61785238Y-88239580D02*
X61880476Y-88096723D01*
X61880476Y-88096723D02*
X61928095Y-87906247D01*
X61928095Y-87906247D02*
X61928095Y-87525295D01*
X61928095Y-87525295D02*
X61880476Y-87430057D01*
X61880476Y-87430057D02*
X61832857Y-87382438D01*
X61832857Y-87382438D02*
X61737619Y-87334819D01*
X61737619Y-87334819D02*
X61547143Y-87334819D01*
X61547143Y-87334819D02*
X61451905Y-87382438D01*
X61451905Y-87382438D02*
X61404286Y-87430057D01*
X61404286Y-87430057D02*
X61356667Y-87525295D01*
X61356667Y-87525295D02*
X61356667Y-87763390D01*
X61356667Y-87763390D02*
X61404286Y-87858628D01*
X61404286Y-87858628D02*
X61451905Y-87906247D01*
X61451905Y-87906247D02*
X61547143Y-87953866D01*
X61547143Y-87953866D02*
X61737619Y-87953866D01*
X61737619Y-87953866D02*
X61832857Y-87906247D01*
X61832857Y-87906247D02*
X61880476Y-87858628D01*
X61880476Y-87858628D02*
X61928095Y-87763390D01*
X86407857Y-77401009D02*
X86550714Y-77448628D01*
X86550714Y-77448628D02*
X86598333Y-77496247D01*
X86598333Y-77496247D02*
X86645952Y-77591485D01*
X86645952Y-77591485D02*
X86645952Y-77734342D01*
X86645952Y-77734342D02*
X86598333Y-77829580D01*
X86598333Y-77829580D02*
X86550714Y-77877200D01*
X86550714Y-77877200D02*
X86455476Y-77924819D01*
X86455476Y-77924819D02*
X86074524Y-77924819D01*
X86074524Y-77924819D02*
X86074524Y-76924819D01*
X86074524Y-76924819D02*
X86407857Y-76924819D01*
X86407857Y-76924819D02*
X86503095Y-76972438D01*
X86503095Y-76972438D02*
X86550714Y-77020057D01*
X86550714Y-77020057D02*
X86598333Y-77115295D01*
X86598333Y-77115295D02*
X86598333Y-77210533D01*
X86598333Y-77210533D02*
X86550714Y-77305771D01*
X86550714Y-77305771D02*
X86503095Y-77353390D01*
X86503095Y-77353390D02*
X86407857Y-77401009D01*
X86407857Y-77401009D02*
X86074524Y-77401009D01*
X87645952Y-77829580D02*
X87598333Y-77877200D01*
X87598333Y-77877200D02*
X87455476Y-77924819D01*
X87455476Y-77924819D02*
X87360238Y-77924819D01*
X87360238Y-77924819D02*
X87217381Y-77877200D01*
X87217381Y-77877200D02*
X87122143Y-77781961D01*
X87122143Y-77781961D02*
X87074524Y-77686723D01*
X87074524Y-77686723D02*
X87026905Y-77496247D01*
X87026905Y-77496247D02*
X87026905Y-77353390D01*
X87026905Y-77353390D02*
X87074524Y-77162914D01*
X87074524Y-77162914D02*
X87122143Y-77067676D01*
X87122143Y-77067676D02*
X87217381Y-76972438D01*
X87217381Y-76972438D02*
X87360238Y-76924819D01*
X87360238Y-76924819D02*
X87455476Y-76924819D01*
X87455476Y-76924819D02*
X87598333Y-76972438D01*
X87598333Y-76972438D02*
X87645952Y-77020057D01*
X88550714Y-76924819D02*
X88074524Y-76924819D01*
X88074524Y-76924819D02*
X88026905Y-77401009D01*
X88026905Y-77401009D02*
X88074524Y-77353390D01*
X88074524Y-77353390D02*
X88169762Y-77305771D01*
X88169762Y-77305771D02*
X88407857Y-77305771D01*
X88407857Y-77305771D02*
X88503095Y-77353390D01*
X88503095Y-77353390D02*
X88550714Y-77401009D01*
X88550714Y-77401009D02*
X88598333Y-77496247D01*
X88598333Y-77496247D02*
X88598333Y-77734342D01*
X88598333Y-77734342D02*
X88550714Y-77829580D01*
X88550714Y-77829580D02*
X88503095Y-77877200D01*
X88503095Y-77877200D02*
X88407857Y-77924819D01*
X88407857Y-77924819D02*
X88169762Y-77924819D01*
X88169762Y-77924819D02*
X88074524Y-77877200D01*
X88074524Y-77877200D02*
X88026905Y-77829580D01*
X89503095Y-76924819D02*
X89026905Y-76924819D01*
X89026905Y-76924819D02*
X88979286Y-77401009D01*
X88979286Y-77401009D02*
X89026905Y-77353390D01*
X89026905Y-77353390D02*
X89122143Y-77305771D01*
X89122143Y-77305771D02*
X89360238Y-77305771D01*
X89360238Y-77305771D02*
X89455476Y-77353390D01*
X89455476Y-77353390D02*
X89503095Y-77401009D01*
X89503095Y-77401009D02*
X89550714Y-77496247D01*
X89550714Y-77496247D02*
X89550714Y-77734342D01*
X89550714Y-77734342D02*
X89503095Y-77829580D01*
X89503095Y-77829580D02*
X89455476Y-77877200D01*
X89455476Y-77877200D02*
X89360238Y-77924819D01*
X89360238Y-77924819D02*
X89122143Y-77924819D01*
X89122143Y-77924819D02*
X89026905Y-77877200D01*
X89026905Y-77877200D02*
X88979286Y-77829580D01*
X90026905Y-77924819D02*
X90217381Y-77924819D01*
X90217381Y-77924819D02*
X90312619Y-77877200D01*
X90312619Y-77877200D02*
X90360238Y-77829580D01*
X90360238Y-77829580D02*
X90455476Y-77686723D01*
X90455476Y-77686723D02*
X90503095Y-77496247D01*
X90503095Y-77496247D02*
X90503095Y-77115295D01*
X90503095Y-77115295D02*
X90455476Y-77020057D01*
X90455476Y-77020057D02*
X90407857Y-76972438D01*
X90407857Y-76972438D02*
X90312619Y-76924819D01*
X90312619Y-76924819D02*
X90122143Y-76924819D01*
X90122143Y-76924819D02*
X90026905Y-76972438D01*
X90026905Y-76972438D02*
X89979286Y-77020057D01*
X89979286Y-77020057D02*
X89931667Y-77115295D01*
X89931667Y-77115295D02*
X89931667Y-77353390D01*
X89931667Y-77353390D02*
X89979286Y-77448628D01*
X89979286Y-77448628D02*
X90026905Y-77496247D01*
X90026905Y-77496247D02*
X90122143Y-77543866D01*
X90122143Y-77543866D02*
X90312619Y-77543866D01*
X90312619Y-77543866D02*
X90407857Y-77496247D01*
X90407857Y-77496247D02*
X90455476Y-77448628D01*
X90455476Y-77448628D02*
X90503095Y-77353390D01*
X67818095Y-84878152D02*
X67818095Y-85544819D01*
X67580000Y-84497200D02*
X67341905Y-85211485D01*
X67341905Y-85211485D02*
X67960952Y-85211485D01*
X68246667Y-84544819D02*
X68913333Y-84544819D01*
X68913333Y-84544819D02*
X68484762Y-85544819D01*
X69484762Y-84544819D02*
X69580000Y-84544819D01*
X69580000Y-84544819D02*
X69675238Y-84592438D01*
X69675238Y-84592438D02*
X69722857Y-84640057D01*
X69722857Y-84640057D02*
X69770476Y-84735295D01*
X69770476Y-84735295D02*
X69818095Y-84925771D01*
X69818095Y-84925771D02*
X69818095Y-85163866D01*
X69818095Y-85163866D02*
X69770476Y-85354342D01*
X69770476Y-85354342D02*
X69722857Y-85449580D01*
X69722857Y-85449580D02*
X69675238Y-85497200D01*
X69675238Y-85497200D02*
X69580000Y-85544819D01*
X69580000Y-85544819D02*
X69484762Y-85544819D01*
X69484762Y-85544819D02*
X69389524Y-85497200D01*
X69389524Y-85497200D02*
X69341905Y-85449580D01*
X69341905Y-85449580D02*
X69294286Y-85354342D01*
X69294286Y-85354342D02*
X69246667Y-85163866D01*
X69246667Y-85163866D02*
X69246667Y-84925771D01*
X69246667Y-84925771D02*
X69294286Y-84735295D01*
X69294286Y-84735295D02*
X69341905Y-84640057D01*
X69341905Y-84640057D02*
X69389524Y-84592438D01*
X69389524Y-84592438D02*
X69484762Y-84544819D01*
X83058095Y-74718152D02*
X83058095Y-75384819D01*
X82820000Y-74337200D02*
X82581905Y-75051485D01*
X82581905Y-75051485D02*
X83200952Y-75051485D01*
X83486667Y-74384819D02*
X84153333Y-74384819D01*
X84153333Y-74384819D02*
X83724762Y-75384819D01*
X84724762Y-74384819D02*
X84820000Y-74384819D01*
X84820000Y-74384819D02*
X84915238Y-74432438D01*
X84915238Y-74432438D02*
X84962857Y-74480057D01*
X84962857Y-74480057D02*
X85010476Y-74575295D01*
X85010476Y-74575295D02*
X85058095Y-74765771D01*
X85058095Y-74765771D02*
X85058095Y-75003866D01*
X85058095Y-75003866D02*
X85010476Y-75194342D01*
X85010476Y-75194342D02*
X84962857Y-75289580D01*
X84962857Y-75289580D02*
X84915238Y-75337200D01*
X84915238Y-75337200D02*
X84820000Y-75384819D01*
X84820000Y-75384819D02*
X84724762Y-75384819D01*
X84724762Y-75384819D02*
X84629524Y-75337200D01*
X84629524Y-75337200D02*
X84581905Y-75289580D01*
X84581905Y-75289580D02*
X84534286Y-75194342D01*
X84534286Y-75194342D02*
X84486667Y-75003866D01*
X84486667Y-75003866D02*
X84486667Y-74765771D01*
X84486667Y-74765771D02*
X84534286Y-74575295D01*
X84534286Y-74575295D02*
X84581905Y-74480057D01*
X84581905Y-74480057D02*
X84629524Y-74432438D01*
X84629524Y-74432438D02*
X84724762Y-74384819D01*
X62277857Y-72321009D02*
X62420714Y-72368628D01*
X62420714Y-72368628D02*
X62468333Y-72416247D01*
X62468333Y-72416247D02*
X62515952Y-72511485D01*
X62515952Y-72511485D02*
X62515952Y-72654342D01*
X62515952Y-72654342D02*
X62468333Y-72749580D01*
X62468333Y-72749580D02*
X62420714Y-72797200D01*
X62420714Y-72797200D02*
X62325476Y-72844819D01*
X62325476Y-72844819D02*
X61944524Y-72844819D01*
X61944524Y-72844819D02*
X61944524Y-71844819D01*
X61944524Y-71844819D02*
X62277857Y-71844819D01*
X62277857Y-71844819D02*
X62373095Y-71892438D01*
X62373095Y-71892438D02*
X62420714Y-71940057D01*
X62420714Y-71940057D02*
X62468333Y-72035295D01*
X62468333Y-72035295D02*
X62468333Y-72130533D01*
X62468333Y-72130533D02*
X62420714Y-72225771D01*
X62420714Y-72225771D02*
X62373095Y-72273390D01*
X62373095Y-72273390D02*
X62277857Y-72321009D01*
X62277857Y-72321009D02*
X61944524Y-72321009D01*
X63515952Y-72749580D02*
X63468333Y-72797200D01*
X63468333Y-72797200D02*
X63325476Y-72844819D01*
X63325476Y-72844819D02*
X63230238Y-72844819D01*
X63230238Y-72844819D02*
X63087381Y-72797200D01*
X63087381Y-72797200D02*
X62992143Y-72701961D01*
X62992143Y-72701961D02*
X62944524Y-72606723D01*
X62944524Y-72606723D02*
X62896905Y-72416247D01*
X62896905Y-72416247D02*
X62896905Y-72273390D01*
X62896905Y-72273390D02*
X62944524Y-72082914D01*
X62944524Y-72082914D02*
X62992143Y-71987676D01*
X62992143Y-71987676D02*
X63087381Y-71892438D01*
X63087381Y-71892438D02*
X63230238Y-71844819D01*
X63230238Y-71844819D02*
X63325476Y-71844819D01*
X63325476Y-71844819D02*
X63468333Y-71892438D01*
X63468333Y-71892438D02*
X63515952Y-71940057D01*
X64420714Y-71844819D02*
X63944524Y-71844819D01*
X63944524Y-71844819D02*
X63896905Y-72321009D01*
X63896905Y-72321009D02*
X63944524Y-72273390D01*
X63944524Y-72273390D02*
X64039762Y-72225771D01*
X64039762Y-72225771D02*
X64277857Y-72225771D01*
X64277857Y-72225771D02*
X64373095Y-72273390D01*
X64373095Y-72273390D02*
X64420714Y-72321009D01*
X64420714Y-72321009D02*
X64468333Y-72416247D01*
X64468333Y-72416247D02*
X64468333Y-72654342D01*
X64468333Y-72654342D02*
X64420714Y-72749580D01*
X64420714Y-72749580D02*
X64373095Y-72797200D01*
X64373095Y-72797200D02*
X64277857Y-72844819D01*
X64277857Y-72844819D02*
X64039762Y-72844819D01*
X64039762Y-72844819D02*
X63944524Y-72797200D01*
X63944524Y-72797200D02*
X63896905Y-72749580D01*
X65373095Y-71844819D02*
X64896905Y-71844819D01*
X64896905Y-71844819D02*
X64849286Y-72321009D01*
X64849286Y-72321009D02*
X64896905Y-72273390D01*
X64896905Y-72273390D02*
X64992143Y-72225771D01*
X64992143Y-72225771D02*
X65230238Y-72225771D01*
X65230238Y-72225771D02*
X65325476Y-72273390D01*
X65325476Y-72273390D02*
X65373095Y-72321009D01*
X65373095Y-72321009D02*
X65420714Y-72416247D01*
X65420714Y-72416247D02*
X65420714Y-72654342D01*
X65420714Y-72654342D02*
X65373095Y-72749580D01*
X65373095Y-72749580D02*
X65325476Y-72797200D01*
X65325476Y-72797200D02*
X65230238Y-72844819D01*
X65230238Y-72844819D02*
X64992143Y-72844819D01*
X64992143Y-72844819D02*
X64896905Y-72797200D01*
X64896905Y-72797200D02*
X64849286Y-72749580D01*
X65896905Y-72844819D02*
X66087381Y-72844819D01*
X66087381Y-72844819D02*
X66182619Y-72797200D01*
X66182619Y-72797200D02*
X66230238Y-72749580D01*
X66230238Y-72749580D02*
X66325476Y-72606723D01*
X66325476Y-72606723D02*
X66373095Y-72416247D01*
X66373095Y-72416247D02*
X66373095Y-72035295D01*
X66373095Y-72035295D02*
X66325476Y-71940057D01*
X66325476Y-71940057D02*
X66277857Y-71892438D01*
X66277857Y-71892438D02*
X66182619Y-71844819D01*
X66182619Y-71844819D02*
X65992143Y-71844819D01*
X65992143Y-71844819D02*
X65896905Y-71892438D01*
X65896905Y-71892438D02*
X65849286Y-71940057D01*
X65849286Y-71940057D02*
X65801667Y-72035295D01*
X65801667Y-72035295D02*
X65801667Y-72273390D01*
X65801667Y-72273390D02*
X65849286Y-72368628D01*
X65849286Y-72368628D02*
X65896905Y-72416247D01*
X65896905Y-72416247D02*
X65992143Y-72463866D01*
X65992143Y-72463866D02*
X66182619Y-72463866D01*
X66182619Y-72463866D02*
X66277857Y-72416247D01*
X66277857Y-72416247D02*
X66325476Y-72368628D01*
X66325476Y-72368628D02*
X66373095Y-72273390D01*
D13*
X68370715Y-104225520D02*
X69285001Y-104225520D01*
X68827858Y-104682662D02*
X68827858Y-103768377D01*
X70485000Y-104682662D02*
X69799286Y-104682662D01*
X70142143Y-104682662D02*
X70142143Y-103482662D01*
X70142143Y-103482662D02*
X70027857Y-103654091D01*
X70027857Y-103654091D02*
X69913572Y-103768377D01*
X69913572Y-103768377D02*
X69799286Y-103825520D01*
X70942143Y-103596948D02*
X70999286Y-103539805D01*
X70999286Y-103539805D02*
X71113572Y-103482662D01*
X71113572Y-103482662D02*
X71399286Y-103482662D01*
X71399286Y-103482662D02*
X71513572Y-103539805D01*
X71513572Y-103539805D02*
X71570714Y-103596948D01*
X71570714Y-103596948D02*
X71627857Y-103711234D01*
X71627857Y-103711234D02*
X71627857Y-103825520D01*
X71627857Y-103825520D02*
X71570714Y-103996948D01*
X71570714Y-103996948D02*
X70885000Y-104682662D01*
X70885000Y-104682662D02*
X71627857Y-104682662D01*
X71970714Y-103482662D02*
X72370714Y-104682662D01*
X72370714Y-104682662D02*
X72770714Y-103482662D01*
D11*
X97604942Y-62920714D02*
X97652561Y-62968333D01*
X97652561Y-62968333D02*
X97700180Y-63063571D01*
X97700180Y-63063571D02*
X97700180Y-63301666D01*
X97700180Y-63301666D02*
X97652561Y-63396904D01*
X97652561Y-63396904D02*
X97604942Y-63444523D01*
X97604942Y-63444523D02*
X97509704Y-63492142D01*
X97509704Y-63492142D02*
X97414466Y-63492142D01*
X97414466Y-63492142D02*
X97271609Y-63444523D01*
X97271609Y-63444523D02*
X96700180Y-62873095D01*
X96700180Y-62873095D02*
X96700180Y-63492142D01*
X97604942Y-63873095D02*
X97652561Y-63920714D01*
X97652561Y-63920714D02*
X97700180Y-64015952D01*
X97700180Y-64015952D02*
X97700180Y-64254047D01*
X97700180Y-64254047D02*
X97652561Y-64349285D01*
X97652561Y-64349285D02*
X97604942Y-64396904D01*
X97604942Y-64396904D02*
X97509704Y-64444523D01*
X97509704Y-64444523D02*
X97414466Y-64444523D01*
X97414466Y-64444523D02*
X97271609Y-64396904D01*
X97271609Y-64396904D02*
X96700180Y-63825476D01*
X96700180Y-63825476D02*
X96700180Y-64444523D01*
X97366847Y-64873095D02*
X96700180Y-64873095D01*
X97271609Y-64873095D02*
X97319228Y-64920714D01*
X97319228Y-64920714D02*
X97366847Y-65015952D01*
X97366847Y-65015952D02*
X97366847Y-65158809D01*
X97366847Y-65158809D02*
X97319228Y-65254047D01*
X97319228Y-65254047D02*
X97223990Y-65301666D01*
X97223990Y-65301666D02*
X96700180Y-65301666D01*
X100814285Y-89624819D02*
X100623809Y-89624819D01*
X100623809Y-89624819D02*
X100528571Y-89672438D01*
X100528571Y-89672438D02*
X100480952Y-89720057D01*
X100480952Y-89720057D02*
X100385714Y-89862914D01*
X100385714Y-89862914D02*
X100338095Y-90053390D01*
X100338095Y-90053390D02*
X100338095Y-90434342D01*
X100338095Y-90434342D02*
X100385714Y-90529580D01*
X100385714Y-90529580D02*
X100433333Y-90577200D01*
X100433333Y-90577200D02*
X100528571Y-90624819D01*
X100528571Y-90624819D02*
X100719047Y-90624819D01*
X100719047Y-90624819D02*
X100814285Y-90577200D01*
X100814285Y-90577200D02*
X100861904Y-90529580D01*
X100861904Y-90529580D02*
X100909523Y-90434342D01*
X100909523Y-90434342D02*
X100909523Y-90196247D01*
X100909523Y-90196247D02*
X100861904Y-90101009D01*
X100861904Y-90101009D02*
X100814285Y-90053390D01*
X100814285Y-90053390D02*
X100719047Y-90005771D01*
X100719047Y-90005771D02*
X100528571Y-90005771D01*
X100528571Y-90005771D02*
X100433333Y-90053390D01*
X100433333Y-90053390D02*
X100385714Y-90101009D01*
X100385714Y-90101009D02*
X100338095Y-90196247D01*
X101480952Y-90053390D02*
X101385714Y-90005771D01*
X101385714Y-90005771D02*
X101338095Y-89958152D01*
X101338095Y-89958152D02*
X101290476Y-89862914D01*
X101290476Y-89862914D02*
X101290476Y-89815295D01*
X101290476Y-89815295D02*
X101338095Y-89720057D01*
X101338095Y-89720057D02*
X101385714Y-89672438D01*
X101385714Y-89672438D02*
X101480952Y-89624819D01*
X101480952Y-89624819D02*
X101671428Y-89624819D01*
X101671428Y-89624819D02*
X101766666Y-89672438D01*
X101766666Y-89672438D02*
X101814285Y-89720057D01*
X101814285Y-89720057D02*
X101861904Y-89815295D01*
X101861904Y-89815295D02*
X101861904Y-89862914D01*
X101861904Y-89862914D02*
X101814285Y-89958152D01*
X101814285Y-89958152D02*
X101766666Y-90005771D01*
X101766666Y-90005771D02*
X101671428Y-90053390D01*
X101671428Y-90053390D02*
X101480952Y-90053390D01*
X101480952Y-90053390D02*
X101385714Y-90101009D01*
X101385714Y-90101009D02*
X101338095Y-90148628D01*
X101338095Y-90148628D02*
X101290476Y-90243866D01*
X101290476Y-90243866D02*
X101290476Y-90434342D01*
X101290476Y-90434342D02*
X101338095Y-90529580D01*
X101338095Y-90529580D02*
X101385714Y-90577200D01*
X101385714Y-90577200D02*
X101480952Y-90624819D01*
X101480952Y-90624819D02*
X101671428Y-90624819D01*
X101671428Y-90624819D02*
X101766666Y-90577200D01*
X101766666Y-90577200D02*
X101814285Y-90529580D01*
X101814285Y-90529580D02*
X101861904Y-90434342D01*
X101861904Y-90434342D02*
X101861904Y-90243866D01*
X101861904Y-90243866D02*
X101814285Y-90148628D01*
X101814285Y-90148628D02*
X101766666Y-90101009D01*
X101766666Y-90101009D02*
X101671428Y-90053390D01*
X102290476Y-90624819D02*
X102290476Y-89624819D01*
X102861904Y-90624819D02*
X102433333Y-90053390D01*
X102861904Y-89624819D02*
X102290476Y-90196247D01*
X62277857Y-82481009D02*
X62420714Y-82528628D01*
X62420714Y-82528628D02*
X62468333Y-82576247D01*
X62468333Y-82576247D02*
X62515952Y-82671485D01*
X62515952Y-82671485D02*
X62515952Y-82814342D01*
X62515952Y-82814342D02*
X62468333Y-82909580D01*
X62468333Y-82909580D02*
X62420714Y-82957200D01*
X62420714Y-82957200D02*
X62325476Y-83004819D01*
X62325476Y-83004819D02*
X61944524Y-83004819D01*
X61944524Y-83004819D02*
X61944524Y-82004819D01*
X61944524Y-82004819D02*
X62277857Y-82004819D01*
X62277857Y-82004819D02*
X62373095Y-82052438D01*
X62373095Y-82052438D02*
X62420714Y-82100057D01*
X62420714Y-82100057D02*
X62468333Y-82195295D01*
X62468333Y-82195295D02*
X62468333Y-82290533D01*
X62468333Y-82290533D02*
X62420714Y-82385771D01*
X62420714Y-82385771D02*
X62373095Y-82433390D01*
X62373095Y-82433390D02*
X62277857Y-82481009D01*
X62277857Y-82481009D02*
X61944524Y-82481009D01*
X63515952Y-82909580D02*
X63468333Y-82957200D01*
X63468333Y-82957200D02*
X63325476Y-83004819D01*
X63325476Y-83004819D02*
X63230238Y-83004819D01*
X63230238Y-83004819D02*
X63087381Y-82957200D01*
X63087381Y-82957200D02*
X62992143Y-82861961D01*
X62992143Y-82861961D02*
X62944524Y-82766723D01*
X62944524Y-82766723D02*
X62896905Y-82576247D01*
X62896905Y-82576247D02*
X62896905Y-82433390D01*
X62896905Y-82433390D02*
X62944524Y-82242914D01*
X62944524Y-82242914D02*
X62992143Y-82147676D01*
X62992143Y-82147676D02*
X63087381Y-82052438D01*
X63087381Y-82052438D02*
X63230238Y-82004819D01*
X63230238Y-82004819D02*
X63325476Y-82004819D01*
X63325476Y-82004819D02*
X63468333Y-82052438D01*
X63468333Y-82052438D02*
X63515952Y-82100057D01*
X64420714Y-82004819D02*
X63944524Y-82004819D01*
X63944524Y-82004819D02*
X63896905Y-82481009D01*
X63896905Y-82481009D02*
X63944524Y-82433390D01*
X63944524Y-82433390D02*
X64039762Y-82385771D01*
X64039762Y-82385771D02*
X64277857Y-82385771D01*
X64277857Y-82385771D02*
X64373095Y-82433390D01*
X64373095Y-82433390D02*
X64420714Y-82481009D01*
X64420714Y-82481009D02*
X64468333Y-82576247D01*
X64468333Y-82576247D02*
X64468333Y-82814342D01*
X64468333Y-82814342D02*
X64420714Y-82909580D01*
X64420714Y-82909580D02*
X64373095Y-82957200D01*
X64373095Y-82957200D02*
X64277857Y-83004819D01*
X64277857Y-83004819D02*
X64039762Y-83004819D01*
X64039762Y-83004819D02*
X63944524Y-82957200D01*
X63944524Y-82957200D02*
X63896905Y-82909580D01*
X65373095Y-82004819D02*
X64896905Y-82004819D01*
X64896905Y-82004819D02*
X64849286Y-82481009D01*
X64849286Y-82481009D02*
X64896905Y-82433390D01*
X64896905Y-82433390D02*
X64992143Y-82385771D01*
X64992143Y-82385771D02*
X65230238Y-82385771D01*
X65230238Y-82385771D02*
X65325476Y-82433390D01*
X65325476Y-82433390D02*
X65373095Y-82481009D01*
X65373095Y-82481009D02*
X65420714Y-82576247D01*
X65420714Y-82576247D02*
X65420714Y-82814342D01*
X65420714Y-82814342D02*
X65373095Y-82909580D01*
X65373095Y-82909580D02*
X65325476Y-82957200D01*
X65325476Y-82957200D02*
X65230238Y-83004819D01*
X65230238Y-83004819D02*
X64992143Y-83004819D01*
X64992143Y-83004819D02*
X64896905Y-82957200D01*
X64896905Y-82957200D02*
X64849286Y-82909580D01*
X65896905Y-83004819D02*
X66087381Y-83004819D01*
X66087381Y-83004819D02*
X66182619Y-82957200D01*
X66182619Y-82957200D02*
X66230238Y-82909580D01*
X66230238Y-82909580D02*
X66325476Y-82766723D01*
X66325476Y-82766723D02*
X66373095Y-82576247D01*
X66373095Y-82576247D02*
X66373095Y-82195295D01*
X66373095Y-82195295D02*
X66325476Y-82100057D01*
X66325476Y-82100057D02*
X66277857Y-82052438D01*
X66277857Y-82052438D02*
X66182619Y-82004819D01*
X66182619Y-82004819D02*
X65992143Y-82004819D01*
X65992143Y-82004819D02*
X65896905Y-82052438D01*
X65896905Y-82052438D02*
X65849286Y-82100057D01*
X65849286Y-82100057D02*
X65801667Y-82195295D01*
X65801667Y-82195295D02*
X65801667Y-82433390D01*
X65801667Y-82433390D02*
X65849286Y-82528628D01*
X65849286Y-82528628D02*
X65896905Y-82576247D01*
X65896905Y-82576247D02*
X65992143Y-82623866D01*
X65992143Y-82623866D02*
X66182619Y-82623866D01*
X66182619Y-82623866D02*
X66277857Y-82576247D01*
X66277857Y-82576247D02*
X66325476Y-82528628D01*
X66325476Y-82528628D02*
X66373095Y-82433390D01*
X50308095Y-59875057D02*
X50355714Y-59827438D01*
X50355714Y-59827438D02*
X50450952Y-59779819D01*
X50450952Y-59779819D02*
X50689047Y-59779819D01*
X50689047Y-59779819D02*
X50784285Y-59827438D01*
X50784285Y-59827438D02*
X50831904Y-59875057D01*
X50831904Y-59875057D02*
X50879523Y-59970295D01*
X50879523Y-59970295D02*
X50879523Y-60065533D01*
X50879523Y-60065533D02*
X50831904Y-60208390D01*
X50831904Y-60208390D02*
X50260476Y-60779819D01*
X50260476Y-60779819D02*
X50879523Y-60779819D01*
X51260476Y-59875057D02*
X51308095Y-59827438D01*
X51308095Y-59827438D02*
X51403333Y-59779819D01*
X51403333Y-59779819D02*
X51641428Y-59779819D01*
X51641428Y-59779819D02*
X51736666Y-59827438D01*
X51736666Y-59827438D02*
X51784285Y-59875057D01*
X51784285Y-59875057D02*
X51831904Y-59970295D01*
X51831904Y-59970295D02*
X51831904Y-60065533D01*
X51831904Y-60065533D02*
X51784285Y-60208390D01*
X51784285Y-60208390D02*
X51212857Y-60779819D01*
X51212857Y-60779819D02*
X51831904Y-60779819D01*
X52450952Y-59779819D02*
X52546190Y-59779819D01*
X52546190Y-59779819D02*
X52641428Y-59827438D01*
X52641428Y-59827438D02*
X52689047Y-59875057D01*
X52689047Y-59875057D02*
X52736666Y-59970295D01*
X52736666Y-59970295D02*
X52784285Y-60160771D01*
X52784285Y-60160771D02*
X52784285Y-60398866D01*
X52784285Y-60398866D02*
X52736666Y-60589342D01*
X52736666Y-60589342D02*
X52689047Y-60684580D01*
X52689047Y-60684580D02*
X52641428Y-60732200D01*
X52641428Y-60732200D02*
X52546190Y-60779819D01*
X52546190Y-60779819D02*
X52450952Y-60779819D01*
X52450952Y-60779819D02*
X52355714Y-60732200D01*
X52355714Y-60732200D02*
X52308095Y-60684580D01*
X52308095Y-60684580D02*
X52260476Y-60589342D01*
X52260476Y-60589342D02*
X52212857Y-60398866D01*
X52212857Y-60398866D02*
X52212857Y-60160771D01*
X52212857Y-60160771D02*
X52260476Y-59970295D01*
X52260476Y-59970295D02*
X52308095Y-59875057D01*
X52308095Y-59875057D02*
X52355714Y-59827438D01*
X52355714Y-59827438D02*
X52450952Y-59779819D01*
X53212857Y-60113152D02*
X53212857Y-61113152D01*
X53689047Y-60636961D02*
X53736666Y-60732200D01*
X53736666Y-60732200D02*
X53831904Y-60779819D01*
X53212857Y-60636961D02*
X53260476Y-60732200D01*
X53260476Y-60732200D02*
X53355714Y-60779819D01*
X53355714Y-60779819D02*
X53546190Y-60779819D01*
X53546190Y-60779819D02*
X53641428Y-60732200D01*
X53641428Y-60732200D02*
X53689047Y-60636961D01*
X53689047Y-60636961D02*
X53689047Y-60113152D01*
X100338095Y-84640057D02*
X100385714Y-84592438D01*
X100385714Y-84592438D02*
X100480952Y-84544819D01*
X100480952Y-84544819D02*
X100719047Y-84544819D01*
X100719047Y-84544819D02*
X100814285Y-84592438D01*
X100814285Y-84592438D02*
X100861904Y-84640057D01*
X100861904Y-84640057D02*
X100909523Y-84735295D01*
X100909523Y-84735295D02*
X100909523Y-84830533D01*
X100909523Y-84830533D02*
X100861904Y-84973390D01*
X100861904Y-84973390D02*
X100290476Y-85544819D01*
X100290476Y-85544819D02*
X100909523Y-85544819D01*
X101290476Y-84640057D02*
X101338095Y-84592438D01*
X101338095Y-84592438D02*
X101433333Y-84544819D01*
X101433333Y-84544819D02*
X101671428Y-84544819D01*
X101671428Y-84544819D02*
X101766666Y-84592438D01*
X101766666Y-84592438D02*
X101814285Y-84640057D01*
X101814285Y-84640057D02*
X101861904Y-84735295D01*
X101861904Y-84735295D02*
X101861904Y-84830533D01*
X101861904Y-84830533D02*
X101814285Y-84973390D01*
X101814285Y-84973390D02*
X101242857Y-85544819D01*
X101242857Y-85544819D02*
X101861904Y-85544819D01*
X102290476Y-85544819D02*
X102290476Y-84544819D01*
X102861904Y-85544819D02*
X102433333Y-84973390D01*
X102861904Y-84544819D02*
X102290476Y-85116247D01*
X83058095Y-79798152D02*
X83058095Y-80464819D01*
X82820000Y-79417200D02*
X82581905Y-80131485D01*
X82581905Y-80131485D02*
X83200952Y-80131485D01*
X83486667Y-79464819D02*
X84153333Y-79464819D01*
X84153333Y-79464819D02*
X83724762Y-80464819D01*
X84724762Y-79464819D02*
X84820000Y-79464819D01*
X84820000Y-79464819D02*
X84915238Y-79512438D01*
X84915238Y-79512438D02*
X84962857Y-79560057D01*
X84962857Y-79560057D02*
X85010476Y-79655295D01*
X85010476Y-79655295D02*
X85058095Y-79845771D01*
X85058095Y-79845771D02*
X85058095Y-80083866D01*
X85058095Y-80083866D02*
X85010476Y-80274342D01*
X85010476Y-80274342D02*
X84962857Y-80369580D01*
X84962857Y-80369580D02*
X84915238Y-80417200D01*
X84915238Y-80417200D02*
X84820000Y-80464819D01*
X84820000Y-80464819D02*
X84724762Y-80464819D01*
X84724762Y-80464819D02*
X84629524Y-80417200D01*
X84629524Y-80417200D02*
X84581905Y-80369580D01*
X84581905Y-80369580D02*
X84534286Y-80274342D01*
X84534286Y-80274342D02*
X84486667Y-80083866D01*
X84486667Y-80083866D02*
X84486667Y-79845771D01*
X84486667Y-79845771D02*
X84534286Y-79655295D01*
X84534286Y-79655295D02*
X84581905Y-79560057D01*
X84581905Y-79560057D02*
X84629524Y-79512438D01*
X84629524Y-79512438D02*
X84724762Y-79464819D01*
X67818095Y-69638152D02*
X67818095Y-70304819D01*
X67580000Y-69257200D02*
X67341905Y-69971485D01*
X67341905Y-69971485D02*
X67960952Y-69971485D01*
X68246667Y-69304819D02*
X68913333Y-69304819D01*
X68913333Y-69304819D02*
X68484762Y-70304819D01*
X69484762Y-69304819D02*
X69580000Y-69304819D01*
X69580000Y-69304819D02*
X69675238Y-69352438D01*
X69675238Y-69352438D02*
X69722857Y-69400057D01*
X69722857Y-69400057D02*
X69770476Y-69495295D01*
X69770476Y-69495295D02*
X69818095Y-69685771D01*
X69818095Y-69685771D02*
X69818095Y-69923866D01*
X69818095Y-69923866D02*
X69770476Y-70114342D01*
X69770476Y-70114342D02*
X69722857Y-70209580D01*
X69722857Y-70209580D02*
X69675238Y-70257200D01*
X69675238Y-70257200D02*
X69580000Y-70304819D01*
X69580000Y-70304819D02*
X69484762Y-70304819D01*
X69484762Y-70304819D02*
X69389524Y-70257200D01*
X69389524Y-70257200D02*
X69341905Y-70209580D01*
X69341905Y-70209580D02*
X69294286Y-70114342D01*
X69294286Y-70114342D02*
X69246667Y-69923866D01*
X69246667Y-69923866D02*
X69246667Y-69685771D01*
X69246667Y-69685771D02*
X69294286Y-69495295D01*
X69294286Y-69495295D02*
X69341905Y-69400057D01*
X69341905Y-69400057D02*
X69389524Y-69352438D01*
X69389524Y-69352438D02*
X69484762Y-69304819D01*
X100338095Y-69400057D02*
X100385714Y-69352438D01*
X100385714Y-69352438D02*
X100480952Y-69304819D01*
X100480952Y-69304819D02*
X100719047Y-69304819D01*
X100719047Y-69304819D02*
X100814285Y-69352438D01*
X100814285Y-69352438D02*
X100861904Y-69400057D01*
X100861904Y-69400057D02*
X100909523Y-69495295D01*
X100909523Y-69495295D02*
X100909523Y-69590533D01*
X100909523Y-69590533D02*
X100861904Y-69733390D01*
X100861904Y-69733390D02*
X100290476Y-70304819D01*
X100290476Y-70304819D02*
X100909523Y-70304819D01*
X101290476Y-69400057D02*
X101338095Y-69352438D01*
X101338095Y-69352438D02*
X101433333Y-69304819D01*
X101433333Y-69304819D02*
X101671428Y-69304819D01*
X101671428Y-69304819D02*
X101766666Y-69352438D01*
X101766666Y-69352438D02*
X101814285Y-69400057D01*
X101814285Y-69400057D02*
X101861904Y-69495295D01*
X101861904Y-69495295D02*
X101861904Y-69590533D01*
X101861904Y-69590533D02*
X101814285Y-69733390D01*
X101814285Y-69733390D02*
X101242857Y-70304819D01*
X101242857Y-70304819D02*
X101861904Y-70304819D01*
X102290476Y-70304819D02*
X102290476Y-69304819D01*
X102861904Y-70304819D02*
X102433333Y-69733390D01*
X102861904Y-69304819D02*
X102290476Y-69876247D01*
X67818095Y-74718152D02*
X67818095Y-75384819D01*
X67580000Y-74337200D02*
X67341905Y-75051485D01*
X67341905Y-75051485D02*
X67960952Y-75051485D01*
X68246667Y-74384819D02*
X68913333Y-74384819D01*
X68913333Y-74384819D02*
X68484762Y-75384819D01*
X69484762Y-74384819D02*
X69580000Y-74384819D01*
X69580000Y-74384819D02*
X69675238Y-74432438D01*
X69675238Y-74432438D02*
X69722857Y-74480057D01*
X69722857Y-74480057D02*
X69770476Y-74575295D01*
X69770476Y-74575295D02*
X69818095Y-74765771D01*
X69818095Y-74765771D02*
X69818095Y-75003866D01*
X69818095Y-75003866D02*
X69770476Y-75194342D01*
X69770476Y-75194342D02*
X69722857Y-75289580D01*
X69722857Y-75289580D02*
X69675238Y-75337200D01*
X69675238Y-75337200D02*
X69580000Y-75384819D01*
X69580000Y-75384819D02*
X69484762Y-75384819D01*
X69484762Y-75384819D02*
X69389524Y-75337200D01*
X69389524Y-75337200D02*
X69341905Y-75289580D01*
X69341905Y-75289580D02*
X69294286Y-75194342D01*
X69294286Y-75194342D02*
X69246667Y-75003866D01*
X69246667Y-75003866D02*
X69246667Y-74765771D01*
X69246667Y-74765771D02*
X69294286Y-74575295D01*
X69294286Y-74575295D02*
X69341905Y-74480057D01*
X69341905Y-74480057D02*
X69389524Y-74432438D01*
X69389524Y-74432438D02*
X69484762Y-74384819D01*
X67818095Y-64224819D02*
X67627619Y-64224819D01*
X67627619Y-64224819D02*
X67532381Y-64272438D01*
X67532381Y-64272438D02*
X67484762Y-64320057D01*
X67484762Y-64320057D02*
X67389524Y-64462914D01*
X67389524Y-64462914D02*
X67341905Y-64653390D01*
X67341905Y-64653390D02*
X67341905Y-65034342D01*
X67341905Y-65034342D02*
X67389524Y-65129580D01*
X67389524Y-65129580D02*
X67437143Y-65177200D01*
X67437143Y-65177200D02*
X67532381Y-65224819D01*
X67532381Y-65224819D02*
X67722857Y-65224819D01*
X67722857Y-65224819D02*
X67818095Y-65177200D01*
X67818095Y-65177200D02*
X67865714Y-65129580D01*
X67865714Y-65129580D02*
X67913333Y-65034342D01*
X67913333Y-65034342D02*
X67913333Y-64796247D01*
X67913333Y-64796247D02*
X67865714Y-64701009D01*
X67865714Y-64701009D02*
X67818095Y-64653390D01*
X67818095Y-64653390D02*
X67722857Y-64605771D01*
X67722857Y-64605771D02*
X67532381Y-64605771D01*
X67532381Y-64605771D02*
X67437143Y-64653390D01*
X67437143Y-64653390D02*
X67389524Y-64701009D01*
X67389524Y-64701009D02*
X67341905Y-64796247D01*
X68484762Y-64653390D02*
X68389524Y-64605771D01*
X68389524Y-64605771D02*
X68341905Y-64558152D01*
X68341905Y-64558152D02*
X68294286Y-64462914D01*
X68294286Y-64462914D02*
X68294286Y-64415295D01*
X68294286Y-64415295D02*
X68341905Y-64320057D01*
X68341905Y-64320057D02*
X68389524Y-64272438D01*
X68389524Y-64272438D02*
X68484762Y-64224819D01*
X68484762Y-64224819D02*
X68675238Y-64224819D01*
X68675238Y-64224819D02*
X68770476Y-64272438D01*
X68770476Y-64272438D02*
X68818095Y-64320057D01*
X68818095Y-64320057D02*
X68865714Y-64415295D01*
X68865714Y-64415295D02*
X68865714Y-64462914D01*
X68865714Y-64462914D02*
X68818095Y-64558152D01*
X68818095Y-64558152D02*
X68770476Y-64605771D01*
X68770476Y-64605771D02*
X68675238Y-64653390D01*
X68675238Y-64653390D02*
X68484762Y-64653390D01*
X68484762Y-64653390D02*
X68389524Y-64701009D01*
X68389524Y-64701009D02*
X68341905Y-64748628D01*
X68341905Y-64748628D02*
X68294286Y-64843866D01*
X68294286Y-64843866D02*
X68294286Y-65034342D01*
X68294286Y-65034342D02*
X68341905Y-65129580D01*
X68341905Y-65129580D02*
X68389524Y-65177200D01*
X68389524Y-65177200D02*
X68484762Y-65224819D01*
X68484762Y-65224819D02*
X68675238Y-65224819D01*
X68675238Y-65224819D02*
X68770476Y-65177200D01*
X68770476Y-65177200D02*
X68818095Y-65129580D01*
X68818095Y-65129580D02*
X68865714Y-65034342D01*
X68865714Y-65034342D02*
X68865714Y-64843866D01*
X68865714Y-64843866D02*
X68818095Y-64748628D01*
X68818095Y-64748628D02*
X68770476Y-64701009D01*
X68770476Y-64701009D02*
X68675238Y-64653390D01*
X69484762Y-64224819D02*
X69580000Y-64224819D01*
X69580000Y-64224819D02*
X69675238Y-64272438D01*
X69675238Y-64272438D02*
X69722857Y-64320057D01*
X69722857Y-64320057D02*
X69770476Y-64415295D01*
X69770476Y-64415295D02*
X69818095Y-64605771D01*
X69818095Y-64605771D02*
X69818095Y-64843866D01*
X69818095Y-64843866D02*
X69770476Y-65034342D01*
X69770476Y-65034342D02*
X69722857Y-65129580D01*
X69722857Y-65129580D02*
X69675238Y-65177200D01*
X69675238Y-65177200D02*
X69580000Y-65224819D01*
X69580000Y-65224819D02*
X69484762Y-65224819D01*
X69484762Y-65224819D02*
X69389524Y-65177200D01*
X69389524Y-65177200D02*
X69341905Y-65129580D01*
X69341905Y-65129580D02*
X69294286Y-65034342D01*
X69294286Y-65034342D02*
X69246667Y-64843866D01*
X69246667Y-64843866D02*
X69246667Y-64605771D01*
X69246667Y-64605771D02*
X69294286Y-64415295D01*
X69294286Y-64415295D02*
X69341905Y-64320057D01*
X69341905Y-64320057D02*
X69389524Y-64272438D01*
X69389524Y-64272438D02*
X69484762Y-64224819D01*
X62309523Y-62684819D02*
X61738095Y-62684819D01*
X62023809Y-62684819D02*
X62023809Y-61684819D01*
X62023809Y-61684819D02*
X61928571Y-61827676D01*
X61928571Y-61827676D02*
X61833333Y-61922914D01*
X61833333Y-61922914D02*
X61738095Y-61970533D01*
X62928571Y-61684819D02*
X63023809Y-61684819D01*
X63023809Y-61684819D02*
X63119047Y-61732438D01*
X63119047Y-61732438D02*
X63166666Y-61780057D01*
X63166666Y-61780057D02*
X63214285Y-61875295D01*
X63214285Y-61875295D02*
X63261904Y-62065771D01*
X63261904Y-62065771D02*
X63261904Y-62303866D01*
X63261904Y-62303866D02*
X63214285Y-62494342D01*
X63214285Y-62494342D02*
X63166666Y-62589580D01*
X63166666Y-62589580D02*
X63119047Y-62637200D01*
X63119047Y-62637200D02*
X63023809Y-62684819D01*
X63023809Y-62684819D02*
X62928571Y-62684819D01*
X62928571Y-62684819D02*
X62833333Y-62637200D01*
X62833333Y-62637200D02*
X62785714Y-62589580D01*
X62785714Y-62589580D02*
X62738095Y-62494342D01*
X62738095Y-62494342D02*
X62690476Y-62303866D01*
X62690476Y-62303866D02*
X62690476Y-62065771D01*
X62690476Y-62065771D02*
X62738095Y-61875295D01*
X62738095Y-61875295D02*
X62785714Y-61780057D01*
X62785714Y-61780057D02*
X62833333Y-61732438D01*
X62833333Y-61732438D02*
X62928571Y-61684819D01*
X63880952Y-61684819D02*
X63976190Y-61684819D01*
X63976190Y-61684819D02*
X64071428Y-61732438D01*
X64071428Y-61732438D02*
X64119047Y-61780057D01*
X64119047Y-61780057D02*
X64166666Y-61875295D01*
X64166666Y-61875295D02*
X64214285Y-62065771D01*
X64214285Y-62065771D02*
X64214285Y-62303866D01*
X64214285Y-62303866D02*
X64166666Y-62494342D01*
X64166666Y-62494342D02*
X64119047Y-62589580D01*
X64119047Y-62589580D02*
X64071428Y-62637200D01*
X64071428Y-62637200D02*
X63976190Y-62684819D01*
X63976190Y-62684819D02*
X63880952Y-62684819D01*
X63880952Y-62684819D02*
X63785714Y-62637200D01*
X63785714Y-62637200D02*
X63738095Y-62589580D01*
X63738095Y-62589580D02*
X63690476Y-62494342D01*
X63690476Y-62494342D02*
X63642857Y-62303866D01*
X63642857Y-62303866D02*
X63642857Y-62065771D01*
X63642857Y-62065771D02*
X63690476Y-61875295D01*
X63690476Y-61875295D02*
X63738095Y-61780057D01*
X63738095Y-61780057D02*
X63785714Y-61732438D01*
X63785714Y-61732438D02*
X63880952Y-61684819D01*
X64642857Y-62018152D02*
X64642857Y-63018152D01*
X65119047Y-62541961D02*
X65166666Y-62637200D01*
X65166666Y-62637200D02*
X65261904Y-62684819D01*
X64642857Y-62541961D02*
X64690476Y-62637200D01*
X64690476Y-62637200D02*
X64785714Y-62684819D01*
X64785714Y-62684819D02*
X64976190Y-62684819D01*
X64976190Y-62684819D02*
X65071428Y-62637200D01*
X65071428Y-62637200D02*
X65119047Y-62541961D01*
X65119047Y-62541961D02*
X65119047Y-62018152D01*
D12*
X96465818Y-49058286D02*
X97989818Y-49058286D01*
X97989818Y-49058286D02*
X96901247Y-49566286D01*
X96901247Y-49566286D02*
X97989818Y-50074286D01*
X97989818Y-50074286D02*
X96465818Y-50074286D01*
X96610961Y-51670857D02*
X96538390Y-51598285D01*
X96538390Y-51598285D02*
X96465818Y-51380571D01*
X96465818Y-51380571D02*
X96465818Y-51235428D01*
X96465818Y-51235428D02*
X96538390Y-51017714D01*
X96538390Y-51017714D02*
X96683532Y-50872571D01*
X96683532Y-50872571D02*
X96828675Y-50800000D01*
X96828675Y-50800000D02*
X97118961Y-50727428D01*
X97118961Y-50727428D02*
X97336675Y-50727428D01*
X97336675Y-50727428D02*
X97626961Y-50800000D01*
X97626961Y-50800000D02*
X97772104Y-50872571D01*
X97772104Y-50872571D02*
X97917247Y-51017714D01*
X97917247Y-51017714D02*
X97989818Y-51235428D01*
X97989818Y-51235428D02*
X97989818Y-51380571D01*
X97989818Y-51380571D02*
X97917247Y-51598285D01*
X97917247Y-51598285D02*
X97844675Y-51670857D01*
X96465818Y-53485143D02*
X97989818Y-53485143D01*
X96465818Y-54210857D02*
X97989818Y-54210857D01*
X97989818Y-54210857D02*
X96465818Y-55081714D01*
X96465818Y-55081714D02*
X97989818Y-55081714D01*
D11*
X83058095Y-84878152D02*
X83058095Y-85544819D01*
X82820000Y-84497200D02*
X82581905Y-85211485D01*
X82581905Y-85211485D02*
X83200952Y-85211485D01*
X83486667Y-84544819D02*
X84153333Y-84544819D01*
X84153333Y-84544819D02*
X83724762Y-85544819D01*
X84724762Y-84544819D02*
X84820000Y-84544819D01*
X84820000Y-84544819D02*
X84915238Y-84592438D01*
X84915238Y-84592438D02*
X84962857Y-84640057D01*
X84962857Y-84640057D02*
X85010476Y-84735295D01*
X85010476Y-84735295D02*
X85058095Y-84925771D01*
X85058095Y-84925771D02*
X85058095Y-85163866D01*
X85058095Y-85163866D02*
X85010476Y-85354342D01*
X85010476Y-85354342D02*
X84962857Y-85449580D01*
X84962857Y-85449580D02*
X84915238Y-85497200D01*
X84915238Y-85497200D02*
X84820000Y-85544819D01*
X84820000Y-85544819D02*
X84724762Y-85544819D01*
X84724762Y-85544819D02*
X84629524Y-85497200D01*
X84629524Y-85497200D02*
X84581905Y-85449580D01*
X84581905Y-85449580D02*
X84534286Y-85354342D01*
X84534286Y-85354342D02*
X84486667Y-85163866D01*
X84486667Y-85163866D02*
X84486667Y-84925771D01*
X84486667Y-84925771D02*
X84534286Y-84735295D01*
X84534286Y-84735295D02*
X84581905Y-84640057D01*
X84581905Y-84640057D02*
X84629524Y-84592438D01*
X84629524Y-84592438D02*
X84724762Y-84544819D01*
X89117143Y-95038152D02*
X89117143Y-95704819D01*
X88902857Y-94657200D02*
X88688571Y-95371485D01*
X88688571Y-95371485D02*
X89245714Y-95371485D01*
X89502857Y-94704819D02*
X90102857Y-94704819D01*
X90102857Y-94704819D02*
X89717143Y-95704819D01*
X90617143Y-94704819D02*
X90702857Y-94704819D01*
X90702857Y-94704819D02*
X90788571Y-94752438D01*
X90788571Y-94752438D02*
X90831429Y-94800057D01*
X90831429Y-94800057D02*
X90874286Y-94895295D01*
X90874286Y-94895295D02*
X90917143Y-95085771D01*
X90917143Y-95085771D02*
X90917143Y-95323866D01*
X90917143Y-95323866D02*
X90874286Y-95514342D01*
X90874286Y-95514342D02*
X90831429Y-95609580D01*
X90831429Y-95609580D02*
X90788571Y-95657200D01*
X90788571Y-95657200D02*
X90702857Y-95704819D01*
X90702857Y-95704819D02*
X90617143Y-95704819D01*
X90617143Y-95704819D02*
X90531429Y-95657200D01*
X90531429Y-95657200D02*
X90488571Y-95609580D01*
X90488571Y-95609580D02*
X90445714Y-95514342D01*
X90445714Y-95514342D02*
X90402857Y-95323866D01*
X90402857Y-95323866D02*
X90402857Y-95085771D01*
X90402857Y-95085771D02*
X90445714Y-94895295D01*
X90445714Y-94895295D02*
X90488571Y-94800057D01*
X90488571Y-94800057D02*
X90531429Y-94752438D01*
X90531429Y-94752438D02*
X90617143Y-94704819D01*
X91302857Y-95038152D02*
X91302857Y-95704819D01*
X91302857Y-95133390D02*
X91345714Y-95085771D01*
X91345714Y-95085771D02*
X91431429Y-95038152D01*
X91431429Y-95038152D02*
X91560000Y-95038152D01*
X91560000Y-95038152D02*
X91645714Y-95085771D01*
X91645714Y-95085771D02*
X91688572Y-95181009D01*
X91688572Y-95181009D02*
X91688572Y-95704819D01*
D14*
X79780000Y-69850000D02*
X80550000Y-69850000D01*
X80550000Y-68480000D02*
X80550000Y-71220000D01*
X80550000Y-71220000D02*
X87090000Y-71220000D01*
X87090000Y-68480000D02*
X80550000Y-68480000D01*
X87090000Y-71220000D02*
X87090000Y-68480000D01*
X87860000Y-69850000D02*
X87090000Y-69850000D01*
X78510000Y-100330000D02*
X79280000Y-100330000D01*
X79280000Y-98960000D02*
X79280000Y-101700000D01*
X79280000Y-101700000D02*
X85820000Y-101700000D01*
X85820000Y-98960000D02*
X79280000Y-98960000D01*
X85820000Y-101700000D02*
X85820000Y-98960000D01*
X86590000Y-100330000D02*
X85820000Y-100330000D01*
X64540000Y-80010000D02*
X65310000Y-80010000D01*
X65310000Y-78640000D02*
X65310000Y-81380000D01*
X65310000Y-81380000D02*
X71850000Y-81380000D01*
X71850000Y-78640000D02*
X65310000Y-78640000D01*
X71850000Y-81380000D02*
X71850000Y-78640000D01*
X72620000Y-80010000D02*
X71850000Y-80010000D01*
X99561380Y-64537000D02*
X99561380Y-63733000D01*
X99601380Y-64768000D02*
X99601380Y-63502000D01*
X99641380Y-64937000D02*
X99641380Y-63333000D01*
X99681380Y-65075000D02*
X99681380Y-63195000D01*
X99721380Y-65194000D02*
X99721380Y-63076000D01*
X99761380Y-65300000D02*
X99761380Y-62970000D01*
X99801380Y-65397000D02*
X99801380Y-62873000D01*
X99841380Y-65485000D02*
X99841380Y-62785000D01*
X99881380Y-65567000D02*
X99881380Y-62703000D01*
X99921380Y-65644000D02*
X99921380Y-62626000D01*
X99961380Y-65716000D02*
X99961380Y-62554000D01*
X100001380Y-65785000D02*
X100001380Y-62485000D01*
X100041380Y-65849000D02*
X100041380Y-62421000D01*
X100081380Y-65911000D02*
X100081380Y-62359000D01*
X100121380Y-65969000D02*
X100121380Y-62301000D01*
X100161380Y-66025000D02*
X100161380Y-62245000D01*
X100201380Y-66079000D02*
X100201380Y-62191000D01*
X100241380Y-66130000D02*
X100241380Y-62140000D01*
X100281380Y-66179000D02*
X100281380Y-62091000D01*
X100321380Y-66227000D02*
X100321380Y-62043000D01*
X100361380Y-66272000D02*
X100361380Y-61998000D01*
X100401380Y-66317000D02*
X100401380Y-61953000D01*
X100441380Y-66359000D02*
X100441380Y-61911000D01*
X100481380Y-66400000D02*
X100481380Y-61870000D01*
X100521380Y-63095000D02*
X100521380Y-61830000D01*
X100521380Y-66440000D02*
X100521380Y-65175000D01*
X100561380Y-63095000D02*
X100561380Y-61792000D01*
X100561380Y-66478000D02*
X100561380Y-65175000D01*
X100601380Y-63095000D02*
X100601380Y-61755000D01*
X100601380Y-66515000D02*
X100601380Y-65175000D01*
X100641380Y-63095000D02*
X100641380Y-61719000D01*
X100641380Y-66551000D02*
X100641380Y-65175000D01*
X100681380Y-63095000D02*
X100681380Y-61685000D01*
X100681380Y-66585000D02*
X100681380Y-65175000D01*
X100721380Y-63095000D02*
X100721380Y-61651000D01*
X100721380Y-66619000D02*
X100721380Y-65175000D01*
X100761380Y-63095000D02*
X100761380Y-61619000D01*
X100761380Y-66651000D02*
X100761380Y-65175000D01*
X100801380Y-63095000D02*
X100801380Y-61587000D01*
X100801380Y-66683000D02*
X100801380Y-65175000D01*
X100841380Y-63095000D02*
X100841380Y-61557000D01*
X100841380Y-66713000D02*
X100841380Y-65175000D01*
X100881380Y-63095000D02*
X100881380Y-61528000D01*
X100881380Y-66742000D02*
X100881380Y-65175000D01*
X100921380Y-63095000D02*
X100921380Y-61499000D01*
X100921380Y-66771000D02*
X100921380Y-65175000D01*
X100961380Y-63095000D02*
X100961380Y-61471000D01*
X100961380Y-66799000D02*
X100961380Y-65175000D01*
X101001380Y-63095000D02*
X101001380Y-61445000D01*
X101001380Y-66825000D02*
X101001380Y-65175000D01*
X101041380Y-63095000D02*
X101041380Y-61419000D01*
X101041380Y-66851000D02*
X101041380Y-65175000D01*
X101081380Y-63095000D02*
X101081380Y-61393000D01*
X101081380Y-66877000D02*
X101081380Y-65175000D01*
X101121380Y-63095000D02*
X101121380Y-61369000D01*
X101121380Y-66901000D02*
X101121380Y-65175000D01*
X101161380Y-63095000D02*
X101161380Y-61345000D01*
X101161380Y-66925000D02*
X101161380Y-65175000D01*
X101201380Y-63095000D02*
X101201380Y-61323000D01*
X101201380Y-66947000D02*
X101201380Y-65175000D01*
X101241380Y-63095000D02*
X101241380Y-61301000D01*
X101241380Y-66969000D02*
X101241380Y-65175000D01*
X101281380Y-63095000D02*
X101281380Y-61279000D01*
X101281380Y-66991000D02*
X101281380Y-65175000D01*
X101321380Y-63095000D02*
X101321380Y-61259000D01*
X101321380Y-67011000D02*
X101321380Y-65175000D01*
X101361380Y-63095000D02*
X101361380Y-61239000D01*
X101361380Y-67031000D02*
X101361380Y-65175000D01*
X101401380Y-63095000D02*
X101401380Y-61219000D01*
X101401380Y-67051000D02*
X101401380Y-65175000D01*
X101441380Y-63095000D02*
X101441380Y-61201000D01*
X101441380Y-67069000D02*
X101441380Y-65175000D01*
X101481380Y-63095000D02*
X101481380Y-61183000D01*
X101481380Y-67087000D02*
X101481380Y-65175000D01*
X101521380Y-63095000D02*
X101521380Y-61165000D01*
X101521380Y-67105000D02*
X101521380Y-65175000D01*
X101561380Y-63095000D02*
X101561380Y-61149000D01*
X101561380Y-67121000D02*
X101561380Y-65175000D01*
X101601380Y-63095000D02*
X101601380Y-61133000D01*
X101601380Y-67137000D02*
X101601380Y-65175000D01*
X101641380Y-63095000D02*
X101641380Y-61117000D01*
X101641380Y-67153000D02*
X101641380Y-65175000D01*
X101681380Y-63095000D02*
X101681380Y-61102000D01*
X101681380Y-67168000D02*
X101681380Y-65175000D01*
X101721380Y-63095000D02*
X101721380Y-61088000D01*
X101721380Y-67182000D02*
X101721380Y-65175000D01*
X101761380Y-63095000D02*
X101761380Y-61074000D01*
X101761380Y-67196000D02*
X101761380Y-65175000D01*
X101801380Y-63095000D02*
X101801380Y-61061000D01*
X101801380Y-67209000D02*
X101801380Y-65175000D01*
X101841380Y-63095000D02*
X101841380Y-61049000D01*
X101841380Y-67221000D02*
X101841380Y-65175000D01*
X101881380Y-63095000D02*
X101881380Y-61037000D01*
X101881380Y-67233000D02*
X101881380Y-65175000D01*
X101921380Y-63095000D02*
X101921380Y-61025000D01*
X101921380Y-67245000D02*
X101921380Y-65175000D01*
X101961380Y-63095000D02*
X101961380Y-61014000D01*
X101961380Y-67256000D02*
X101961380Y-65175000D01*
X102001380Y-63095000D02*
X102001380Y-61004000D01*
X102001380Y-67266000D02*
X102001380Y-65175000D01*
X102041380Y-63095000D02*
X102041380Y-60994000D01*
X102041380Y-67276000D02*
X102041380Y-65175000D01*
X102081380Y-63095000D02*
X102081380Y-60985000D01*
X102081380Y-67285000D02*
X102081380Y-65175000D01*
X102122380Y-63095000D02*
X102122380Y-60976000D01*
X102122380Y-67294000D02*
X102122380Y-65175000D01*
X102162380Y-63095000D02*
X102162380Y-60968000D01*
X102162380Y-67302000D02*
X102162380Y-65175000D01*
X102202380Y-63095000D02*
X102202380Y-60960000D01*
X102202380Y-67310000D02*
X102202380Y-65175000D01*
X102242380Y-63095000D02*
X102242380Y-60953000D01*
X102242380Y-67317000D02*
X102242380Y-65175000D01*
X102282380Y-63095000D02*
X102282380Y-60946000D01*
X102282380Y-67324000D02*
X102282380Y-65175000D01*
X102322380Y-63095000D02*
X102322380Y-60940000D01*
X102322380Y-67330000D02*
X102322380Y-65175000D01*
X102362380Y-63095000D02*
X102362380Y-60934000D01*
X102362380Y-67336000D02*
X102362380Y-65175000D01*
X102402380Y-63095000D02*
X102402380Y-60929000D01*
X102402380Y-67341000D02*
X102402380Y-65175000D01*
X102442380Y-63095000D02*
X102442380Y-60924000D01*
X102442380Y-67346000D02*
X102442380Y-65175000D01*
X102482380Y-63095000D02*
X102482380Y-60920000D01*
X102482380Y-67350000D02*
X102482380Y-65175000D01*
X102522380Y-63095000D02*
X102522380Y-60917000D01*
X102522380Y-67353000D02*
X102522380Y-65175000D01*
X102562380Y-63095000D02*
X102562380Y-60913000D01*
X102562380Y-67357000D02*
X102562380Y-65175000D01*
X102602380Y-67359000D02*
X102602380Y-60911000D01*
X102642380Y-67362000D02*
X102642380Y-60908000D01*
X102682380Y-67363000D02*
X102682380Y-60907000D01*
X102722380Y-67365000D02*
X102722380Y-60905000D01*
X102762380Y-67365000D02*
X102762380Y-60905000D01*
X102802380Y-67365000D02*
X102802380Y-60905000D01*
X105987621Y-66289000D02*
X105987621Y-65659000D01*
X106302621Y-65974000D02*
X105672621Y-65974000D01*
X106072380Y-64135000D02*
G75*
G02*
X99532380Y-64135000I-3270000J0D01*
G01*
X99532380Y-64135000D02*
G75*
G02*
X106072380Y-64135000I3270000J0D01*
G01*
X46760000Y-85090000D02*
X47530000Y-85090000D01*
X47530000Y-83720000D02*
X47530000Y-86460000D01*
X47530000Y-86460000D02*
X54070000Y-86460000D01*
X54070000Y-83720000D02*
X47530000Y-83720000D01*
X54070000Y-86460000D02*
X54070000Y-83720000D01*
X54840000Y-85090000D02*
X54070000Y-85090000D01*
X46760000Y-74930000D02*
X47530000Y-74930000D01*
X47530000Y-73560000D02*
X47530000Y-76300000D01*
X47530000Y-76300000D02*
X54070000Y-76300000D01*
X54070000Y-73560000D02*
X47530000Y-73560000D01*
X54070000Y-76300000D02*
X54070000Y-73560000D01*
X54840000Y-74930000D02*
X54070000Y-74930000D01*
X79780000Y-90170000D02*
X80550000Y-90170000D01*
X80550000Y-88800000D02*
X80550000Y-91540000D01*
X80550000Y-91540000D02*
X87090000Y-91540000D01*
X87090000Y-88800000D02*
X80550000Y-88800000D01*
X87090000Y-91540000D02*
X87090000Y-88800000D01*
X87860000Y-90170000D02*
X87090000Y-90170000D01*
X64540000Y-90170000D02*
X65310000Y-90170000D01*
X65310000Y-88800000D02*
X65310000Y-91540000D01*
X65310000Y-91540000D02*
X71850000Y-91540000D01*
X71850000Y-88800000D02*
X65310000Y-88800000D01*
X71850000Y-91540000D02*
X71850000Y-88800000D01*
X72620000Y-90170000D02*
X71850000Y-90170000D01*
X94510000Y-83240000D02*
X90910000Y-83240000D01*
X92710000Y-87690000D02*
G75*
G02*
X90871522Y-83251522I0J2600000D01*
G01*
X94548478Y-83251522D02*
G75*
G02*
X92710000Y-87690001I-1838478J-1838478D01*
G01*
X79780000Y-64770000D02*
X80550000Y-64770000D01*
X80550000Y-63400000D02*
X80550000Y-66140000D01*
X80550000Y-66140000D02*
X87090000Y-66140000D01*
X87090000Y-63400000D02*
X80550000Y-63400000D01*
X87090000Y-66140000D02*
X87090000Y-63400000D01*
X87860000Y-64770000D02*
X87090000Y-64770000D01*
X57890000Y-76780000D02*
X61490000Y-76780000D01*
X57851522Y-76768478D02*
G75*
G02*
X59690000Y-72329999I1838478J1838478D01*
G01*
X59690000Y-72330000D02*
G75*
G02*
X61528478Y-76768478I0J-2600000D01*
G01*
X97560000Y-80010000D02*
X98330000Y-80010000D01*
X98330000Y-78640000D02*
X98330000Y-81380000D01*
X98330000Y-81380000D02*
X104870000Y-81380000D01*
X104870000Y-78640000D02*
X98330000Y-78640000D01*
X104870000Y-81380000D02*
X104870000Y-78640000D01*
X105640000Y-80010000D02*
X104870000Y-80010000D01*
X46760000Y-90170000D02*
X47530000Y-90170000D01*
X47530000Y-88800000D02*
X47530000Y-91540000D01*
X47530000Y-91540000D02*
X54070000Y-91540000D01*
X54070000Y-88800000D02*
X47530000Y-88800000D01*
X54070000Y-91540000D02*
X54070000Y-88800000D01*
X54840000Y-90170000D02*
X54070000Y-90170000D01*
X77370000Y-92130000D02*
X77370000Y-98370000D01*
X77815000Y-92130000D02*
X77370000Y-92130000D01*
X77815000Y-98370000D02*
X77370000Y-98370000D01*
X80110000Y-92130000D02*
X79665000Y-92130000D01*
X80110000Y-92130000D02*
X80110000Y-98370000D01*
X80110000Y-98370000D02*
X79665000Y-98370000D01*
X72290000Y-92130000D02*
X72290000Y-98370000D01*
X72735000Y-92130000D02*
X72290000Y-92130000D01*
X72735000Y-98370000D02*
X72290000Y-98370000D01*
X75030000Y-92130000D02*
X74585000Y-92130000D01*
X75030000Y-92130000D02*
X75030000Y-98370000D01*
X75030000Y-98370000D02*
X74585000Y-98370000D01*
X46760000Y-69850000D02*
X47530000Y-69850000D01*
X47530000Y-68480000D02*
X47530000Y-71220000D01*
X47530000Y-71220000D02*
X54070000Y-71220000D01*
X54070000Y-68480000D02*
X47530000Y-68480000D01*
X54070000Y-71220000D02*
X54070000Y-68480000D01*
X54840000Y-69850000D02*
X54070000Y-69850000D01*
X58470000Y-96870000D02*
X58470000Y-93630000D01*
X65910000Y-93630000D02*
X58470000Y-93630000D01*
X65910000Y-96870000D02*
X58470000Y-96870000D01*
X65910000Y-96870000D02*
X65910000Y-93630000D01*
X67060199Y-94055000D02*
X67460199Y-94055000D01*
X67260199Y-93855000D02*
X67260199Y-94255000D01*
X69330000Y-93170000D02*
X69330000Y-94410000D01*
X69330000Y-96090000D02*
X69330000Y-97330000D01*
X69370000Y-93170000D02*
X69370000Y-94410000D01*
X69370000Y-96090000D02*
X69370000Y-97330000D01*
X69410000Y-93171000D02*
X69410000Y-94410000D01*
X69410000Y-96090000D02*
X69410000Y-97329000D01*
X69450000Y-93173000D02*
X69450000Y-94410000D01*
X69450000Y-96090000D02*
X69450000Y-97327000D01*
X69490000Y-93176000D02*
X69490000Y-94410000D01*
X69490000Y-96090000D02*
X69490000Y-97324000D01*
X69530000Y-93179000D02*
X69530000Y-94410000D01*
X69530000Y-96090000D02*
X69530000Y-97321000D01*
X69570000Y-93183000D02*
X69570000Y-94410000D01*
X69570000Y-96090000D02*
X69570000Y-97317000D01*
X69610000Y-93188000D02*
X69610000Y-94410000D01*
X69610000Y-96090000D02*
X69610000Y-97312000D01*
X69650000Y-93194000D02*
X69650000Y-94410000D01*
X69650000Y-96090000D02*
X69650000Y-97306000D01*
X69690000Y-93200000D02*
X69690000Y-94410000D01*
X69690000Y-96090000D02*
X69690000Y-97300000D01*
X69730000Y-93208000D02*
X69730000Y-94410000D01*
X69730000Y-96090000D02*
X69730000Y-97292000D01*
X69770000Y-93216000D02*
X69770000Y-94410000D01*
X69770000Y-96090000D02*
X69770000Y-97284000D01*
X69810000Y-93225000D02*
X69810000Y-94410000D01*
X69810000Y-96090000D02*
X69810000Y-97275000D01*
X69850000Y-93234000D02*
X69850000Y-94410000D01*
X69850000Y-96090000D02*
X69850000Y-97266000D01*
X69890000Y-93245000D02*
X69890000Y-94410000D01*
X69890000Y-96090000D02*
X69890000Y-97255000D01*
X69930000Y-93256000D02*
X69930000Y-94410000D01*
X69930000Y-96090000D02*
X69930000Y-97244000D01*
X69970000Y-93268000D02*
X69970000Y-94410000D01*
X69970000Y-96090000D02*
X69970000Y-97232000D01*
X70010000Y-93282000D02*
X70010000Y-94410000D01*
X70010000Y-96090000D02*
X70010000Y-97218000D01*
X70051000Y-93296000D02*
X70051000Y-94410000D01*
X70051000Y-96090000D02*
X70051000Y-97204000D01*
X70091000Y-93310000D02*
X70091000Y-94410000D01*
X70091000Y-96090000D02*
X70091000Y-97190000D01*
X70131000Y-93326000D02*
X70131000Y-94410000D01*
X70131000Y-96090000D02*
X70131000Y-97174000D01*
X70171000Y-93343000D02*
X70171000Y-94410000D01*
X70171000Y-96090000D02*
X70171000Y-97157000D01*
X70211000Y-93361000D02*
X70211000Y-94410000D01*
X70211000Y-96090000D02*
X70211000Y-97139000D01*
X70251000Y-93380000D02*
X70251000Y-94410000D01*
X70251000Y-96090000D02*
X70251000Y-97120000D01*
X70291000Y-93399000D02*
X70291000Y-94410000D01*
X70291000Y-96090000D02*
X70291000Y-97101000D01*
X70331000Y-93420000D02*
X70331000Y-94410000D01*
X70331000Y-96090000D02*
X70331000Y-97080000D01*
X70371000Y-93442000D02*
X70371000Y-94410000D01*
X70371000Y-96090000D02*
X70371000Y-97058000D01*
X70411000Y-93465000D02*
X70411000Y-94410000D01*
X70411000Y-96090000D02*
X70411000Y-97035000D01*
X70451000Y-93490000D02*
X70451000Y-94410000D01*
X70451000Y-96090000D02*
X70451000Y-97010000D01*
X70491000Y-93515000D02*
X70491000Y-94410000D01*
X70491000Y-96090000D02*
X70491000Y-96985000D01*
X70531000Y-93542000D02*
X70531000Y-94410000D01*
X70531000Y-96090000D02*
X70531000Y-96958000D01*
X70571000Y-93570000D02*
X70571000Y-94410000D01*
X70571000Y-96090000D02*
X70571000Y-96930000D01*
X70611000Y-93600000D02*
X70611000Y-94410000D01*
X70611000Y-96090000D02*
X70611000Y-96900000D01*
X70651000Y-93631000D02*
X70651000Y-94410000D01*
X70651000Y-96090000D02*
X70651000Y-96869000D01*
X70691000Y-93663000D02*
X70691000Y-94410000D01*
X70691000Y-96090000D02*
X70691000Y-96837000D01*
X70731000Y-93698000D02*
X70731000Y-94410000D01*
X70731000Y-96090000D02*
X70731000Y-96802000D01*
X70771000Y-93734000D02*
X70771000Y-94410000D01*
X70771000Y-96090000D02*
X70771000Y-96766000D01*
X70811000Y-93772000D02*
X70811000Y-94410000D01*
X70811000Y-96090000D02*
X70811000Y-96728000D01*
X70851000Y-93812000D02*
X70851000Y-94410000D01*
X70851000Y-96090000D02*
X70851000Y-96688000D01*
X70891000Y-93854000D02*
X70891000Y-94410000D01*
X70891000Y-96090000D02*
X70891000Y-96646000D01*
X70931000Y-93899000D02*
X70931000Y-96601000D01*
X70971000Y-93946000D02*
X70971000Y-96554000D01*
X71011000Y-93996000D02*
X71011000Y-96504000D01*
X71051000Y-94050000D02*
X71051000Y-96450000D01*
X71091000Y-94108000D02*
X71091000Y-96392000D01*
X71131000Y-94170000D02*
X71131000Y-96330000D01*
X71171000Y-94237000D02*
X71171000Y-96263000D01*
X71211000Y-94310000D02*
X71211000Y-96190000D01*
X71251000Y-94391000D02*
X71251000Y-96109000D01*
X71291000Y-94482000D02*
X71291000Y-96018000D01*
X71331000Y-94586000D02*
X71331000Y-95914000D01*
X71371000Y-94713000D02*
X71371000Y-95787000D01*
X71411000Y-94880000D02*
X71411000Y-95620000D01*
X71450000Y-95250000D02*
G75*
G02*
X67210000Y-95250000I-2120000J0D01*
G01*
X67210000Y-95250000D02*
G75*
G02*
X71450000Y-95250000I2120000J0D01*
G01*
X94510000Y-68000000D02*
X90910000Y-68000000D01*
X92710000Y-72450000D02*
G75*
G02*
X90871522Y-68011522I0J2600000D01*
G01*
X94548478Y-68011522D02*
G75*
G02*
X92710000Y-72450001I-1838478J-1838478D01*
G01*
X65810000Y-100330000D02*
X66580000Y-100330000D01*
X66580000Y-98960000D02*
X66580000Y-101700000D01*
X66580000Y-101700000D02*
X73120000Y-101700000D01*
X73120000Y-98960000D02*
X66580000Y-98960000D01*
X73120000Y-101700000D02*
X73120000Y-98960000D01*
X73890000Y-100330000D02*
X73120000Y-100330000D01*
X53875000Y-60975000D02*
X53875000Y-67215000D01*
X54320000Y-60975000D02*
X53875000Y-60975000D01*
X54320000Y-67215000D02*
X53875000Y-67215000D01*
X56615000Y-60975000D02*
X56170000Y-60975000D01*
X56615000Y-60975000D02*
X56615000Y-67215000D01*
X56615000Y-67215000D02*
X56170000Y-67215000D01*
X90744000Y-64505000D02*
X90744000Y-63765000D01*
X90784000Y-64672000D02*
X90784000Y-63598000D01*
X90824000Y-64799000D02*
X90824000Y-63471000D01*
X90864000Y-64903000D02*
X90864000Y-63367000D01*
X90904000Y-64994000D02*
X90904000Y-63276000D01*
X90944000Y-65075000D02*
X90944000Y-63195000D01*
X90984000Y-65148000D02*
X90984000Y-63122000D01*
X91024000Y-65215000D02*
X91024000Y-63055000D01*
X91064000Y-65277000D02*
X91064000Y-62993000D01*
X91104000Y-65335000D02*
X91104000Y-62935000D01*
X91144000Y-65389000D02*
X91144000Y-62881000D01*
X91184000Y-65439000D02*
X91184000Y-62831000D01*
X91224000Y-65486000D02*
X91224000Y-62784000D01*
X91264000Y-63295000D02*
X91264000Y-62739000D01*
X91264000Y-65531000D02*
X91264000Y-64975000D01*
X91304000Y-63295000D02*
X91304000Y-62697000D01*
X91304000Y-65573000D02*
X91304000Y-64975000D01*
X91344000Y-63295000D02*
X91344000Y-62657000D01*
X91344000Y-65613000D02*
X91344000Y-64975000D01*
X91384000Y-63295000D02*
X91384000Y-62619000D01*
X91384000Y-65651000D02*
X91384000Y-64975000D01*
X91424000Y-63295000D02*
X91424000Y-62583000D01*
X91424000Y-65687000D02*
X91424000Y-64975000D01*
X91464000Y-63295000D02*
X91464000Y-62548000D01*
X91464000Y-65722000D02*
X91464000Y-64975000D01*
X91504000Y-63295000D02*
X91504000Y-62516000D01*
X91504000Y-65754000D02*
X91504000Y-64975000D01*
X91544000Y-63295000D02*
X91544000Y-62485000D01*
X91544000Y-65785000D02*
X91544000Y-64975000D01*
X91584000Y-63295000D02*
X91584000Y-62455000D01*
X91584000Y-65815000D02*
X91584000Y-64975000D01*
X91624000Y-63295000D02*
X91624000Y-62427000D01*
X91624000Y-65843000D02*
X91624000Y-64975000D01*
X91664000Y-63295000D02*
X91664000Y-62400000D01*
X91664000Y-65870000D02*
X91664000Y-64975000D01*
X91704000Y-63295000D02*
X91704000Y-62375000D01*
X91704000Y-65895000D02*
X91704000Y-64975000D01*
X91744000Y-63295000D02*
X91744000Y-62350000D01*
X91744000Y-65920000D02*
X91744000Y-64975000D01*
X91784000Y-63295000D02*
X91784000Y-62327000D01*
X91784000Y-65943000D02*
X91784000Y-64975000D01*
X91824000Y-63295000D02*
X91824000Y-62305000D01*
X91824000Y-65965000D02*
X91824000Y-64975000D01*
X91864000Y-63295000D02*
X91864000Y-62284000D01*
X91864000Y-65986000D02*
X91864000Y-64975000D01*
X91904000Y-63295000D02*
X91904000Y-62265000D01*
X91904000Y-66005000D02*
X91904000Y-64975000D01*
X91944000Y-63295000D02*
X91944000Y-62246000D01*
X91944000Y-66024000D02*
X91944000Y-64975000D01*
X91984000Y-63295000D02*
X91984000Y-62228000D01*
X91984000Y-66042000D02*
X91984000Y-64975000D01*
X92024000Y-63295000D02*
X92024000Y-62211000D01*
X92024000Y-66059000D02*
X92024000Y-64975000D01*
X92064000Y-63295000D02*
X92064000Y-62195000D01*
X92064000Y-66075000D02*
X92064000Y-64975000D01*
X92104000Y-63295000D02*
X92104000Y-62181000D01*
X92104000Y-66089000D02*
X92104000Y-64975000D01*
X92145000Y-63295000D02*
X92145000Y-62167000D01*
X92145000Y-66103000D02*
X92145000Y-64975000D01*
X92185000Y-63295000D02*
X92185000Y-62153000D01*
X92185000Y-66117000D02*
X92185000Y-64975000D01*
X92225000Y-63295000D02*
X92225000Y-62141000D01*
X92225000Y-66129000D02*
X92225000Y-64975000D01*
X92265000Y-63295000D02*
X92265000Y-62130000D01*
X92265000Y-66140000D02*
X92265000Y-64975000D01*
X92305000Y-63295000D02*
X92305000Y-62119000D01*
X92305000Y-66151000D02*
X92305000Y-64975000D01*
X92345000Y-63295000D02*
X92345000Y-62110000D01*
X92345000Y-66160000D02*
X92345000Y-64975000D01*
X92385000Y-63295000D02*
X92385000Y-62101000D01*
X92385000Y-66169000D02*
X92385000Y-64975000D01*
X92425000Y-63295000D02*
X92425000Y-62093000D01*
X92425000Y-66177000D02*
X92425000Y-64975000D01*
X92465000Y-63295000D02*
X92465000Y-62085000D01*
X92465000Y-66185000D02*
X92465000Y-64975000D01*
X92505000Y-63295000D02*
X92505000Y-62079000D01*
X92505000Y-66191000D02*
X92505000Y-64975000D01*
X92545000Y-63295000D02*
X92545000Y-62073000D01*
X92545000Y-66197000D02*
X92545000Y-64975000D01*
X92585000Y-63295000D02*
X92585000Y-62068000D01*
X92585000Y-66202000D02*
X92585000Y-64975000D01*
X92625000Y-63295000D02*
X92625000Y-62064000D01*
X92625000Y-66206000D02*
X92625000Y-64975000D01*
X92665000Y-63295000D02*
X92665000Y-62061000D01*
X92665000Y-66209000D02*
X92665000Y-64975000D01*
X92705000Y-63295000D02*
X92705000Y-62058000D01*
X92705000Y-66212000D02*
X92705000Y-64975000D01*
X92745000Y-63295000D02*
X92745000Y-62056000D01*
X92745000Y-66214000D02*
X92745000Y-64975000D01*
X92785000Y-63295000D02*
X92785000Y-62055000D01*
X92785000Y-66215000D02*
X92785000Y-64975000D01*
X92825000Y-63295000D02*
X92825000Y-62055000D01*
X92825000Y-66215000D02*
X92825000Y-64975000D01*
X94894801Y-65530000D02*
X94894801Y-65130000D01*
X95094801Y-65330000D02*
X94694801Y-65330000D01*
X94945000Y-64135000D02*
G75*
G02*
X90705000Y-64135000I-2120000J0D01*
G01*
X90705000Y-64135000D02*
G75*
G02*
X94945000Y-64135000I2120000J0D01*
G01*
X80989000Y-95620000D02*
X80989000Y-94880000D01*
X81029000Y-95787000D02*
X81029000Y-94713000D01*
X81069000Y-95914000D02*
X81069000Y-94586000D01*
X81109000Y-96018000D02*
X81109000Y-94482000D01*
X81149000Y-96109000D02*
X81149000Y-94391000D01*
X81189000Y-96190000D02*
X81189000Y-94310000D01*
X81229000Y-96263000D02*
X81229000Y-94237000D01*
X81269000Y-96330000D02*
X81269000Y-94170000D01*
X81309000Y-96392000D02*
X81309000Y-94108000D01*
X81349000Y-96450000D02*
X81349000Y-94050000D01*
X81389000Y-96504000D02*
X81389000Y-93996000D01*
X81429000Y-96554000D02*
X81429000Y-93946000D01*
X81469000Y-96601000D02*
X81469000Y-93899000D01*
X81509000Y-94410000D02*
X81509000Y-93854000D01*
X81509000Y-96646000D02*
X81509000Y-96090000D01*
X81549000Y-94410000D02*
X81549000Y-93812000D01*
X81549000Y-96688000D02*
X81549000Y-96090000D01*
X81589000Y-94410000D02*
X81589000Y-93772000D01*
X81589000Y-96728000D02*
X81589000Y-96090000D01*
X81629000Y-94410000D02*
X81629000Y-93734000D01*
X81629000Y-96766000D02*
X81629000Y-96090000D01*
X81669000Y-94410000D02*
X81669000Y-93698000D01*
X81669000Y-96802000D02*
X81669000Y-96090000D01*
X81709000Y-94410000D02*
X81709000Y-93663000D01*
X81709000Y-96837000D02*
X81709000Y-96090000D01*
X81749000Y-94410000D02*
X81749000Y-93631000D01*
X81749000Y-96869000D02*
X81749000Y-96090000D01*
X81789000Y-94410000D02*
X81789000Y-93600000D01*
X81789000Y-96900000D02*
X81789000Y-96090000D01*
X81829000Y-94410000D02*
X81829000Y-93570000D01*
X81829000Y-96930000D02*
X81829000Y-96090000D01*
X81869000Y-94410000D02*
X81869000Y-93542000D01*
X81869000Y-96958000D02*
X81869000Y-96090000D01*
X81909000Y-94410000D02*
X81909000Y-93515000D01*
X81909000Y-96985000D02*
X81909000Y-96090000D01*
X81949000Y-94410000D02*
X81949000Y-93490000D01*
X81949000Y-97010000D02*
X81949000Y-96090000D01*
X81989000Y-94410000D02*
X81989000Y-93465000D01*
X81989000Y-97035000D02*
X81989000Y-96090000D01*
X82029000Y-94410000D02*
X82029000Y-93442000D01*
X82029000Y-97058000D02*
X82029000Y-96090000D01*
X82069000Y-94410000D02*
X82069000Y-93420000D01*
X82069000Y-97080000D02*
X82069000Y-96090000D01*
X82109000Y-94410000D02*
X82109000Y-93399000D01*
X82109000Y-97101000D02*
X82109000Y-96090000D01*
X82149000Y-94410000D02*
X82149000Y-93380000D01*
X82149000Y-97120000D02*
X82149000Y-96090000D01*
X82189000Y-94410000D02*
X82189000Y-93361000D01*
X82189000Y-97139000D02*
X82189000Y-96090000D01*
X82229000Y-94410000D02*
X82229000Y-93343000D01*
X82229000Y-97157000D02*
X82229000Y-96090000D01*
X82269000Y-94410000D02*
X82269000Y-93326000D01*
X82269000Y-97174000D02*
X82269000Y-96090000D01*
X82309000Y-94410000D02*
X82309000Y-93310000D01*
X82309000Y-97190000D02*
X82309000Y-96090000D01*
X82349000Y-94410000D02*
X82349000Y-93296000D01*
X82349000Y-97204000D02*
X82349000Y-96090000D01*
X82390000Y-94410000D02*
X82390000Y-93282000D01*
X82390000Y-97218000D02*
X82390000Y-96090000D01*
X82430000Y-94410000D02*
X82430000Y-93268000D01*
X82430000Y-97232000D02*
X82430000Y-96090000D01*
X82470000Y-94410000D02*
X82470000Y-93256000D01*
X82470000Y-97244000D02*
X82470000Y-96090000D01*
X82510000Y-94410000D02*
X82510000Y-93245000D01*
X82510000Y-97255000D02*
X82510000Y-96090000D01*
X82550000Y-94410000D02*
X82550000Y-93234000D01*
X82550000Y-97266000D02*
X82550000Y-96090000D01*
X82590000Y-94410000D02*
X82590000Y-93225000D01*
X82590000Y-97275000D02*
X82590000Y-96090000D01*
X82630000Y-94410000D02*
X82630000Y-93216000D01*
X82630000Y-97284000D02*
X82630000Y-96090000D01*
X82670000Y-94410000D02*
X82670000Y-93208000D01*
X82670000Y-97292000D02*
X82670000Y-96090000D01*
X82710000Y-94410000D02*
X82710000Y-93200000D01*
X82710000Y-97300000D02*
X82710000Y-96090000D01*
X82750000Y-94410000D02*
X82750000Y-93194000D01*
X82750000Y-97306000D02*
X82750000Y-96090000D01*
X82790000Y-94410000D02*
X82790000Y-93188000D01*
X82790000Y-97312000D02*
X82790000Y-96090000D01*
X82830000Y-94410000D02*
X82830000Y-93183000D01*
X82830000Y-97317000D02*
X82830000Y-96090000D01*
X82870000Y-94410000D02*
X82870000Y-93179000D01*
X82870000Y-97321000D02*
X82870000Y-96090000D01*
X82910000Y-94410000D02*
X82910000Y-93176000D01*
X82910000Y-97324000D02*
X82910000Y-96090000D01*
X82950000Y-94410000D02*
X82950000Y-93173000D01*
X82950000Y-97327000D02*
X82950000Y-96090000D01*
X82990000Y-94410000D02*
X82990000Y-93171000D01*
X82990000Y-97329000D02*
X82990000Y-96090000D01*
X83030000Y-94410000D02*
X83030000Y-93170000D01*
X83030000Y-97330000D02*
X83030000Y-96090000D01*
X83070000Y-94410000D02*
X83070000Y-93170000D01*
X83070000Y-97330000D02*
X83070000Y-96090000D01*
X85139801Y-96645000D02*
X85139801Y-96245000D01*
X85339801Y-96445000D02*
X84939801Y-96445000D01*
X85190000Y-95250000D02*
G75*
G02*
X80950000Y-95250000I-2120000J0D01*
G01*
X80950000Y-95250000D02*
G75*
G02*
X85190000Y-95250000I2120000J0D01*
G01*
X53110000Y-99060000D02*
X53880000Y-99060000D01*
X53880000Y-97690000D02*
X53880000Y-100430000D01*
X53880000Y-100430000D02*
X60420000Y-100430000D01*
X60420000Y-97690000D02*
X53880000Y-97690000D01*
X60420000Y-100430000D02*
X60420000Y-97690000D01*
X61190000Y-99060000D02*
X60420000Y-99060000D01*
X97560000Y-74930000D02*
X98330000Y-74930000D01*
X98330000Y-73560000D02*
X98330000Y-76300000D01*
X98330000Y-76300000D02*
X104870000Y-76300000D01*
X104870000Y-73560000D02*
X98330000Y-73560000D01*
X104870000Y-76300000D02*
X104870000Y-73560000D01*
X105640000Y-74930000D02*
X104870000Y-74930000D01*
X46760000Y-80010000D02*
X47530000Y-80010000D01*
X47530000Y-78640000D02*
X47530000Y-81380000D01*
X47530000Y-81380000D02*
X54070000Y-81380000D01*
X54070000Y-78640000D02*
X47530000Y-78640000D01*
X54070000Y-81380000D02*
X54070000Y-78640000D01*
X54840000Y-80010000D02*
X54070000Y-80010000D01*
D15*
X53590000Y-44450000D02*
X53590000Y-54450000D01*
X53590000Y-54450000D02*
X57090000Y-54450000D01*
X57090000Y-44450000D02*
X53590000Y-44450000D01*
D16*
X57090000Y-58420000D02*
X57090000Y-44450000D01*
X60900000Y-36830000D02*
X68520000Y-36830000D01*
X60900000Y-44450000D02*
X60900000Y-36830000D01*
X68520000Y-44450000D02*
X68520000Y-36830000D01*
X72330000Y-44450000D02*
X57090000Y-44450000D01*
X72330000Y-44450000D02*
X72330000Y-58420000D01*
X72330000Y-58420000D02*
X57090000Y-58420000D01*
D14*
X96290000Y-95250000D02*
X97060000Y-95250000D01*
X97060000Y-93880000D02*
X97060000Y-96620000D01*
X97060000Y-96620000D02*
X103600000Y-96620000D01*
X103600000Y-93880000D02*
X97060000Y-93880000D01*
X103600000Y-96620000D02*
X103600000Y-93880000D01*
X104370000Y-95250000D02*
X103600000Y-95250000D01*
X94510000Y-78160000D02*
X90910000Y-78160000D01*
X92710000Y-82610000D02*
G75*
G02*
X90871522Y-78171522I0J2600000D01*
G01*
X94548478Y-78171522D02*
G75*
G02*
X92710000Y-82610001I-1838478J-1838478D01*
G01*
X48030000Y-95250000D02*
X48800000Y-95250000D01*
X48800000Y-93880000D02*
X48800000Y-96620000D01*
X48800000Y-96620000D02*
X55340000Y-96620000D01*
X55340000Y-93880000D02*
X48800000Y-93880000D01*
X55340000Y-96620000D02*
X55340000Y-93880000D01*
X56110000Y-95250000D02*
X55340000Y-95250000D01*
X91210000Y-99060000D02*
X91980000Y-99060000D01*
X91980000Y-97690000D02*
X91980000Y-100430000D01*
X91980000Y-100430000D02*
X98520000Y-100430000D01*
X98520000Y-97690000D02*
X91980000Y-97690000D01*
X98520000Y-100430000D02*
X98520000Y-97690000D01*
X99290000Y-99060000D02*
X98520000Y-99060000D01*
X57890000Y-86940000D02*
X61490000Y-86940000D01*
X57851522Y-86928478D02*
G75*
G02*
X59690000Y-82489999I1838478J1838478D01*
G01*
X59690000Y-82490000D02*
G75*
G02*
X61528478Y-86928478I0J-2600000D01*
G01*
X94510000Y-73080000D02*
X90910000Y-73080000D01*
X92710000Y-77530000D02*
G75*
G02*
X90871522Y-73091522I0J2600000D01*
G01*
X94548478Y-73091522D02*
G75*
G02*
X92710000Y-77530001I-1838478J-1838478D01*
G01*
X64540000Y-85090000D02*
X65310000Y-85090000D01*
X65310000Y-83720000D02*
X65310000Y-86460000D01*
X65310000Y-86460000D02*
X71850000Y-86460000D01*
X71850000Y-83720000D02*
X65310000Y-83720000D01*
X71850000Y-86460000D02*
X71850000Y-83720000D01*
X72620000Y-85090000D02*
X71850000Y-85090000D01*
X79780000Y-74930000D02*
X80550000Y-74930000D01*
X80550000Y-73560000D02*
X80550000Y-76300000D01*
X80550000Y-76300000D02*
X87090000Y-76300000D01*
X87090000Y-73560000D02*
X80550000Y-73560000D01*
X87090000Y-76300000D02*
X87090000Y-73560000D01*
X87860000Y-74930000D02*
X87090000Y-74930000D01*
X57890000Y-71700000D02*
X61490000Y-71700000D01*
X57851522Y-71688478D02*
G75*
G02*
X59690000Y-67249999I1838478J1838478D01*
G01*
X59690000Y-67250000D02*
G75*
G02*
X61528478Y-71688478I0J-2600000D01*
G01*
X73600000Y-102810000D02*
X74930000Y-102810000D01*
X73600000Y-104140000D02*
X73600000Y-102810000D01*
X76200000Y-102810000D02*
X78800000Y-102810000D01*
X76200000Y-105470000D02*
X76200000Y-102810000D01*
X76200000Y-105470000D02*
X78800000Y-105470000D01*
X78800000Y-105470000D02*
X78800000Y-102810000D01*
X95785000Y-61055000D02*
X95785000Y-67295000D01*
X96230000Y-61055000D02*
X95785000Y-61055000D01*
X96230000Y-67295000D02*
X95785000Y-67295000D01*
X98525000Y-61055000D02*
X98080000Y-61055000D01*
X98525000Y-61055000D02*
X98525000Y-67295000D01*
X98525000Y-67295000D02*
X98080000Y-67295000D01*
X97560000Y-90170000D02*
X98330000Y-90170000D01*
X98330000Y-88800000D02*
X98330000Y-91540000D01*
X98330000Y-91540000D02*
X104870000Y-91540000D01*
X104870000Y-88800000D02*
X98330000Y-88800000D01*
X104870000Y-91540000D02*
X104870000Y-88800000D01*
X105640000Y-90170000D02*
X104870000Y-90170000D01*
X57890000Y-81860000D02*
X61490000Y-81860000D01*
X57851522Y-81848478D02*
G75*
G02*
X59690000Y-77409999I1838478J1838478D01*
G01*
X59690000Y-77410000D02*
G75*
G02*
X61528478Y-81848478I0J-2600000D01*
G01*
X46009759Y-62296000D02*
X46639759Y-62296000D01*
X46324759Y-61981000D02*
X46324759Y-62611000D01*
X49510000Y-60905000D02*
X49510000Y-67365000D01*
X49550000Y-60905000D02*
X49550000Y-67365000D01*
X49590000Y-60905000D02*
X49590000Y-67365000D01*
X49630000Y-60907000D02*
X49630000Y-67363000D01*
X49670000Y-60908000D02*
X49670000Y-67362000D01*
X49710000Y-60911000D02*
X49710000Y-67359000D01*
X49750000Y-60913000D02*
X49750000Y-63095000D01*
X49750000Y-65175000D02*
X49750000Y-67357000D01*
X49790000Y-60917000D02*
X49790000Y-63095000D01*
X49790000Y-65175000D02*
X49790000Y-67353000D01*
X49830000Y-60920000D02*
X49830000Y-63095000D01*
X49830000Y-65175000D02*
X49830000Y-67350000D01*
X49870000Y-60924000D02*
X49870000Y-63095000D01*
X49870000Y-65175000D02*
X49870000Y-67346000D01*
X49910000Y-60929000D02*
X49910000Y-63095000D01*
X49910000Y-65175000D02*
X49910000Y-67341000D01*
X49950000Y-60934000D02*
X49950000Y-63095000D01*
X49950000Y-65175000D02*
X49950000Y-67336000D01*
X49990000Y-60940000D02*
X49990000Y-63095000D01*
X49990000Y-65175000D02*
X49990000Y-67330000D01*
X50030000Y-60946000D02*
X50030000Y-63095000D01*
X50030000Y-65175000D02*
X50030000Y-67324000D01*
X50070000Y-60953000D02*
X50070000Y-63095000D01*
X50070000Y-65175000D02*
X50070000Y-67317000D01*
X50110000Y-60960000D02*
X50110000Y-63095000D01*
X50110000Y-65175000D02*
X50110000Y-67310000D01*
X50150000Y-60968000D02*
X50150000Y-63095000D01*
X50150000Y-65175000D02*
X50150000Y-67302000D01*
X50190000Y-60976000D02*
X50190000Y-63095000D01*
X50190000Y-65175000D02*
X50190000Y-67294000D01*
X50231000Y-60985000D02*
X50231000Y-63095000D01*
X50231000Y-65175000D02*
X50231000Y-67285000D01*
X50271000Y-60994000D02*
X50271000Y-63095000D01*
X50271000Y-65175000D02*
X50271000Y-67276000D01*
X50311000Y-61004000D02*
X50311000Y-63095000D01*
X50311000Y-65175000D02*
X50311000Y-67266000D01*
X50351000Y-61014000D02*
X50351000Y-63095000D01*
X50351000Y-65175000D02*
X50351000Y-67256000D01*
X50391000Y-61025000D02*
X50391000Y-63095000D01*
X50391000Y-65175000D02*
X50391000Y-67245000D01*
X50431000Y-61037000D02*
X50431000Y-63095000D01*
X50431000Y-65175000D02*
X50431000Y-67233000D01*
X50471000Y-61049000D02*
X50471000Y-63095000D01*
X50471000Y-65175000D02*
X50471000Y-67221000D01*
X50511000Y-61061000D02*
X50511000Y-63095000D01*
X50511000Y-65175000D02*
X50511000Y-67209000D01*
X50551000Y-61074000D02*
X50551000Y-63095000D01*
X50551000Y-65175000D02*
X50551000Y-67196000D01*
X50591000Y-61088000D02*
X50591000Y-63095000D01*
X50591000Y-65175000D02*
X50591000Y-67182000D01*
X50631000Y-61102000D02*
X50631000Y-63095000D01*
X50631000Y-65175000D02*
X50631000Y-67168000D01*
X50671000Y-61117000D02*
X50671000Y-63095000D01*
X50671000Y-65175000D02*
X50671000Y-67153000D01*
X50711000Y-61133000D02*
X50711000Y-63095000D01*
X50711000Y-65175000D02*
X50711000Y-67137000D01*
X50751000Y-61149000D02*
X50751000Y-63095000D01*
X50751000Y-65175000D02*
X50751000Y-67121000D01*
X50791000Y-61165000D02*
X50791000Y-63095000D01*
X50791000Y-65175000D02*
X50791000Y-67105000D01*
X50831000Y-61183000D02*
X50831000Y-63095000D01*
X50831000Y-65175000D02*
X50831000Y-67087000D01*
X50871000Y-61201000D02*
X50871000Y-63095000D01*
X50871000Y-65175000D02*
X50871000Y-67069000D01*
X50911000Y-61219000D02*
X50911000Y-63095000D01*
X50911000Y-65175000D02*
X50911000Y-67051000D01*
X50951000Y-61239000D02*
X50951000Y-63095000D01*
X50951000Y-65175000D02*
X50951000Y-67031000D01*
X50991000Y-61259000D02*
X50991000Y-63095000D01*
X50991000Y-65175000D02*
X50991000Y-67011000D01*
X51031000Y-61279000D02*
X51031000Y-63095000D01*
X51031000Y-65175000D02*
X51031000Y-66991000D01*
X51071000Y-61301000D02*
X51071000Y-63095000D01*
X51071000Y-65175000D02*
X51071000Y-66969000D01*
X51111000Y-61323000D02*
X51111000Y-63095000D01*
X51111000Y-65175000D02*
X51111000Y-66947000D01*
X51151000Y-61345000D02*
X51151000Y-63095000D01*
X51151000Y-65175000D02*
X51151000Y-66925000D01*
X51191000Y-61369000D02*
X51191000Y-63095000D01*
X51191000Y-65175000D02*
X51191000Y-66901000D01*
X51231000Y-61393000D02*
X51231000Y-63095000D01*
X51231000Y-65175000D02*
X51231000Y-66877000D01*
X51271000Y-61419000D02*
X51271000Y-63095000D01*
X51271000Y-65175000D02*
X51271000Y-66851000D01*
X51311000Y-61445000D02*
X51311000Y-63095000D01*
X51311000Y-65175000D02*
X51311000Y-66825000D01*
X51351000Y-61471000D02*
X51351000Y-63095000D01*
X51351000Y-65175000D02*
X51351000Y-66799000D01*
X51391000Y-61499000D02*
X51391000Y-63095000D01*
X51391000Y-65175000D02*
X51391000Y-66771000D01*
X51431000Y-61528000D02*
X51431000Y-63095000D01*
X51431000Y-65175000D02*
X51431000Y-66742000D01*
X51471000Y-61557000D02*
X51471000Y-63095000D01*
X51471000Y-65175000D02*
X51471000Y-66713000D01*
X51511000Y-61587000D02*
X51511000Y-63095000D01*
X51511000Y-65175000D02*
X51511000Y-66683000D01*
X51551000Y-61619000D02*
X51551000Y-63095000D01*
X51551000Y-65175000D02*
X51551000Y-66651000D01*
X51591000Y-61651000D02*
X51591000Y-63095000D01*
X51591000Y-65175000D02*
X51591000Y-66619000D01*
X51631000Y-61685000D02*
X51631000Y-63095000D01*
X51631000Y-65175000D02*
X51631000Y-66585000D01*
X51671000Y-61719000D02*
X51671000Y-63095000D01*
X51671000Y-65175000D02*
X51671000Y-66551000D01*
X51711000Y-61755000D02*
X51711000Y-63095000D01*
X51711000Y-65175000D02*
X51711000Y-66515000D01*
X51751000Y-61792000D02*
X51751000Y-63095000D01*
X51751000Y-65175000D02*
X51751000Y-66478000D01*
X51791000Y-61830000D02*
X51791000Y-63095000D01*
X51791000Y-65175000D02*
X51791000Y-66440000D01*
X51831000Y-61870000D02*
X51831000Y-66400000D01*
X51871000Y-61911000D02*
X51871000Y-66359000D01*
X51911000Y-61953000D02*
X51911000Y-66317000D01*
X51951000Y-61998000D02*
X51951000Y-66272000D01*
X51991000Y-62043000D02*
X51991000Y-66227000D01*
X52031000Y-62091000D02*
X52031000Y-66179000D01*
X52071000Y-62140000D02*
X52071000Y-66130000D01*
X52111000Y-62191000D02*
X52111000Y-66079000D01*
X52151000Y-62245000D02*
X52151000Y-66025000D01*
X52191000Y-62301000D02*
X52191000Y-65969000D01*
X52231000Y-62359000D02*
X52231000Y-65911000D01*
X52271000Y-62421000D02*
X52271000Y-65849000D01*
X52311000Y-62485000D02*
X52311000Y-65785000D01*
X52351000Y-62554000D02*
X52351000Y-65716000D01*
X52391000Y-62626000D02*
X52391000Y-65644000D01*
X52431000Y-62703000D02*
X52431000Y-65567000D01*
X52471000Y-62785000D02*
X52471000Y-65485000D01*
X52511000Y-62873000D02*
X52511000Y-65397000D01*
X52551000Y-62970000D02*
X52551000Y-65300000D01*
X52591000Y-63076000D02*
X52591000Y-65194000D01*
X52631000Y-63195000D02*
X52631000Y-65075000D01*
X52671000Y-63333000D02*
X52671000Y-64937000D01*
X52711000Y-63502000D02*
X52711000Y-64768000D01*
X52751000Y-63733000D02*
X52751000Y-64537000D01*
X52780000Y-64135000D02*
G75*
G02*
X46240000Y-64135000I-3270000J0D01*
G01*
X46240000Y-64135000D02*
G75*
G02*
X52780000Y-64135000I3270000J0D01*
G01*
X97560000Y-85090000D02*
X98330000Y-85090000D01*
X98330000Y-83720000D02*
X98330000Y-86460000D01*
X98330000Y-86460000D02*
X104870000Y-86460000D01*
X104870000Y-83720000D02*
X98330000Y-83720000D01*
X104870000Y-86460000D02*
X104870000Y-83720000D01*
X105640000Y-85090000D02*
X104870000Y-85090000D01*
X79780000Y-80010000D02*
X80550000Y-80010000D01*
X80550000Y-78640000D02*
X80550000Y-81380000D01*
X80550000Y-81380000D02*
X87090000Y-81380000D01*
X87090000Y-78640000D02*
X80550000Y-78640000D01*
X87090000Y-81380000D02*
X87090000Y-78640000D01*
X87860000Y-80010000D02*
X87090000Y-80010000D01*
X64540000Y-69850000D02*
X65310000Y-69850000D01*
X65310000Y-68480000D02*
X65310000Y-71220000D01*
X65310000Y-71220000D02*
X71850000Y-71220000D01*
X71850000Y-68480000D02*
X65310000Y-68480000D01*
X71850000Y-71220000D02*
X71850000Y-68480000D01*
X72620000Y-69850000D02*
X71850000Y-69850000D01*
X97560000Y-69850000D02*
X98330000Y-69850000D01*
X98330000Y-68480000D02*
X98330000Y-71220000D01*
X98330000Y-71220000D02*
X104870000Y-71220000D01*
X104870000Y-68480000D02*
X98330000Y-68480000D01*
X104870000Y-71220000D02*
X104870000Y-68480000D01*
X105640000Y-69850000D02*
X104870000Y-69850000D01*
X64540000Y-74930000D02*
X65310000Y-74930000D01*
X65310000Y-73560000D02*
X65310000Y-76300000D01*
X65310000Y-76300000D02*
X71850000Y-76300000D01*
X71850000Y-73560000D02*
X65310000Y-73560000D01*
X71850000Y-76300000D02*
X71850000Y-73560000D01*
X72620000Y-74930000D02*
X71850000Y-74930000D01*
X64540000Y-64770000D02*
X65310000Y-64770000D01*
X65310000Y-63400000D02*
X65310000Y-66140000D01*
X65310000Y-66140000D02*
X71850000Y-66140000D01*
X71850000Y-63400000D02*
X65310000Y-63400000D01*
X71850000Y-66140000D02*
X71850000Y-63400000D01*
X72620000Y-64770000D02*
X71850000Y-64770000D01*
X57305199Y-62940000D02*
X57705199Y-62940000D01*
X57505199Y-62740000D02*
X57505199Y-63140000D01*
X59575000Y-62055000D02*
X59575000Y-63295000D01*
X59575000Y-64975000D02*
X59575000Y-66215000D01*
X59615000Y-62055000D02*
X59615000Y-63295000D01*
X59615000Y-64975000D02*
X59615000Y-66215000D01*
X59655000Y-62056000D02*
X59655000Y-63295000D01*
X59655000Y-64975000D02*
X59655000Y-66214000D01*
X59695000Y-62058000D02*
X59695000Y-63295000D01*
X59695000Y-64975000D02*
X59695000Y-66212000D01*
X59735000Y-62061000D02*
X59735000Y-63295000D01*
X59735000Y-64975000D02*
X59735000Y-66209000D01*
X59775000Y-62064000D02*
X59775000Y-63295000D01*
X59775000Y-64975000D02*
X59775000Y-66206000D01*
X59815000Y-62068000D02*
X59815000Y-63295000D01*
X59815000Y-64975000D02*
X59815000Y-66202000D01*
X59855000Y-62073000D02*
X59855000Y-63295000D01*
X59855000Y-64975000D02*
X59855000Y-66197000D01*
X59895000Y-62079000D02*
X59895000Y-63295000D01*
X59895000Y-64975000D02*
X59895000Y-66191000D01*
X59935000Y-62085000D02*
X59935000Y-63295000D01*
X59935000Y-64975000D02*
X59935000Y-66185000D01*
X59975000Y-62093000D02*
X59975000Y-63295000D01*
X59975000Y-64975000D02*
X59975000Y-66177000D01*
X60015000Y-62101000D02*
X60015000Y-63295000D01*
X60015000Y-64975000D02*
X60015000Y-66169000D01*
X60055000Y-62110000D02*
X60055000Y-63295000D01*
X60055000Y-64975000D02*
X60055000Y-66160000D01*
X60095000Y-62119000D02*
X60095000Y-63295000D01*
X60095000Y-64975000D02*
X60095000Y-66151000D01*
X60135000Y-62130000D02*
X60135000Y-63295000D01*
X60135000Y-64975000D02*
X60135000Y-66140000D01*
X60175000Y-62141000D02*
X60175000Y-63295000D01*
X60175000Y-64975000D02*
X60175000Y-66129000D01*
X60215000Y-62153000D02*
X60215000Y-63295000D01*
X60215000Y-64975000D02*
X60215000Y-66117000D01*
X60255000Y-62167000D02*
X60255000Y-63295000D01*
X60255000Y-64975000D02*
X60255000Y-66103000D01*
X60296000Y-62181000D02*
X60296000Y-63295000D01*
X60296000Y-64975000D02*
X60296000Y-66089000D01*
X60336000Y-62195000D02*
X60336000Y-63295000D01*
X60336000Y-64975000D02*
X60336000Y-66075000D01*
X60376000Y-62211000D02*
X60376000Y-63295000D01*
X60376000Y-64975000D02*
X60376000Y-66059000D01*
X60416000Y-62228000D02*
X60416000Y-63295000D01*
X60416000Y-64975000D02*
X60416000Y-66042000D01*
X60456000Y-62246000D02*
X60456000Y-63295000D01*
X60456000Y-64975000D02*
X60456000Y-66024000D01*
X60496000Y-62265000D02*
X60496000Y-63295000D01*
X60496000Y-64975000D02*
X60496000Y-66005000D01*
X60536000Y-62284000D02*
X60536000Y-63295000D01*
X60536000Y-64975000D02*
X60536000Y-65986000D01*
X60576000Y-62305000D02*
X60576000Y-63295000D01*
X60576000Y-64975000D02*
X60576000Y-65965000D01*
X60616000Y-62327000D02*
X60616000Y-63295000D01*
X60616000Y-64975000D02*
X60616000Y-65943000D01*
X60656000Y-62350000D02*
X60656000Y-63295000D01*
X60656000Y-64975000D02*
X60656000Y-65920000D01*
X60696000Y-62375000D02*
X60696000Y-63295000D01*
X60696000Y-64975000D02*
X60696000Y-65895000D01*
X60736000Y-62400000D02*
X60736000Y-63295000D01*
X60736000Y-64975000D02*
X60736000Y-65870000D01*
X60776000Y-62427000D02*
X60776000Y-63295000D01*
X60776000Y-64975000D02*
X60776000Y-65843000D01*
X60816000Y-62455000D02*
X60816000Y-63295000D01*
X60816000Y-64975000D02*
X60816000Y-65815000D01*
X60856000Y-62485000D02*
X60856000Y-63295000D01*
X60856000Y-64975000D02*
X60856000Y-65785000D01*
X60896000Y-62516000D02*
X60896000Y-63295000D01*
X60896000Y-64975000D02*
X60896000Y-65754000D01*
X60936000Y-62548000D02*
X60936000Y-63295000D01*
X60936000Y-64975000D02*
X60936000Y-65722000D01*
X60976000Y-62583000D02*
X60976000Y-63295000D01*
X60976000Y-64975000D02*
X60976000Y-65687000D01*
X61016000Y-62619000D02*
X61016000Y-63295000D01*
X61016000Y-64975000D02*
X61016000Y-65651000D01*
X61056000Y-62657000D02*
X61056000Y-63295000D01*
X61056000Y-64975000D02*
X61056000Y-65613000D01*
X61096000Y-62697000D02*
X61096000Y-63295000D01*
X61096000Y-64975000D02*
X61096000Y-65573000D01*
X61136000Y-62739000D02*
X61136000Y-63295000D01*
X61136000Y-64975000D02*
X61136000Y-65531000D01*
X61176000Y-62784000D02*
X61176000Y-65486000D01*
X61216000Y-62831000D02*
X61216000Y-65439000D01*
X61256000Y-62881000D02*
X61256000Y-65389000D01*
X61296000Y-62935000D02*
X61296000Y-65335000D01*
X61336000Y-62993000D02*
X61336000Y-65277000D01*
X61376000Y-63055000D02*
X61376000Y-65215000D01*
X61416000Y-63122000D02*
X61416000Y-65148000D01*
X61456000Y-63195000D02*
X61456000Y-65075000D01*
X61496000Y-63276000D02*
X61496000Y-64994000D01*
X61536000Y-63367000D02*
X61536000Y-64903000D01*
X61576000Y-63471000D02*
X61576000Y-64799000D01*
X61616000Y-63598000D02*
X61616000Y-64672000D01*
X61656000Y-63765000D02*
X61656000Y-64505000D01*
X61695000Y-64135000D02*
G75*
G02*
X57455000Y-64135000I-2120000J0D01*
G01*
X57455000Y-64135000D02*
G75*
G02*
X61695000Y-64135000I2120000J0D01*
G01*
D15*
X76919750Y-44450000D02*
X76919750Y-54450000D01*
X76919750Y-54450000D02*
X80419750Y-54450000D01*
X80419750Y-44450000D02*
X76919750Y-44450000D01*
D16*
X80419750Y-58420000D02*
X80419750Y-44450000D01*
X84229750Y-36830000D02*
X91849750Y-36830000D01*
X84229750Y-44450000D02*
X84229750Y-36830000D01*
X91849750Y-44450000D02*
X91849750Y-36830000D01*
X95659750Y-44450000D02*
X80419750Y-44450000D01*
X95659750Y-44450000D02*
X95659750Y-58420000D01*
X95659750Y-58420000D02*
X80419750Y-58420000D01*
D14*
X79780000Y-85090000D02*
X80550000Y-85090000D01*
X80550000Y-83720000D02*
X80550000Y-86460000D01*
X80550000Y-86460000D02*
X87090000Y-86460000D01*
X87090000Y-83720000D02*
X80550000Y-83720000D01*
X87090000Y-86460000D02*
X87090000Y-83720000D01*
X87860000Y-85090000D02*
X87090000Y-85090000D01*
X86490000Y-93630000D02*
X86490000Y-96870000D01*
X86490000Y-93630000D02*
X93930000Y-93630000D01*
X86490000Y-96870000D02*
X93930000Y-96870000D01*
X93930000Y-93630000D02*
X93930000Y-96870000D01*
D17*
X70860000Y-53200000D03*
X58560000Y-53200000D03*
X94189750Y-53200000D03*
X81889750Y-53200000D03*
%LPC*%
D18*
X78740000Y-69850000D03*
D19*
X88900000Y-69850000D03*
D18*
X87630000Y-100330000D03*
D19*
X77470000Y-100330000D03*
D18*
X73660000Y-80010000D03*
D19*
X63500000Y-80010000D03*
D20*
X104052380Y-64135000D03*
D18*
X101552380Y-64135000D03*
X45720000Y-85090000D03*
D19*
X55880000Y-85090000D03*
D18*
X45720000Y-74930000D03*
D19*
X55880000Y-74930000D03*
D18*
X88900000Y-90170000D03*
D19*
X78740000Y-90170000D03*
D18*
X63500000Y-90170000D03*
D19*
X73660000Y-90170000D03*
D21*
X93980000Y-85090000D03*
D22*
X92710000Y-85090000D03*
X91440000Y-85090000D03*
D18*
X88900000Y-64770000D03*
D19*
X78740000Y-64770000D03*
D21*
X58420000Y-74930000D03*
D22*
X59690000Y-74930000D03*
X60960000Y-74930000D03*
D18*
X106680000Y-80010000D03*
D19*
X96520000Y-80010000D03*
D18*
X45720000Y-90170000D03*
D19*
X55880000Y-90170000D03*
D18*
X78740000Y-92750000D03*
X78740000Y-97750000D03*
X73660000Y-92750000D03*
X73660000Y-97750000D03*
D23*
X104140000Y-57150000D03*
D18*
X45720000Y-69850000D03*
D19*
X55880000Y-69850000D03*
D18*
X64690000Y-95250000D03*
X59690000Y-95250000D03*
D24*
X68580000Y-95250000D03*
D25*
X70080000Y-95250000D03*
D21*
X93980000Y-69850000D03*
D22*
X92710000Y-69850000D03*
X91440000Y-69850000D03*
D18*
X64770000Y-100330000D03*
D19*
X74930000Y-100330000D03*
D18*
X55245000Y-61595000D03*
X55245000Y-66595000D03*
D24*
X93575000Y-64135000D03*
D25*
X92075000Y-64135000D03*
D24*
X83820000Y-95250000D03*
D25*
X82320000Y-95250000D03*
D18*
X52070000Y-99060000D03*
D19*
X62230000Y-99060000D03*
D18*
X106680000Y-74930000D03*
D19*
X96520000Y-74930000D03*
D18*
X45720000Y-80010000D03*
D19*
X55880000Y-80010000D03*
D17*
X70860000Y-53200000D03*
X58560000Y-53200000D03*
D26*
X60960000Y-56950000D03*
X68460000Y-56950000D03*
D27*
X60960000Y-49700000D03*
D18*
X95250000Y-95250000D03*
D19*
X105410000Y-95250000D03*
D21*
X93980000Y-80010000D03*
D22*
X92710000Y-80010000D03*
X91440000Y-80010000D03*
D18*
X57150000Y-95250000D03*
D19*
X46990000Y-95250000D03*
D18*
X100330000Y-99060000D03*
D19*
X90170000Y-99060000D03*
D21*
X58420000Y-85090000D03*
D22*
X59690000Y-85090000D03*
X60960000Y-85090000D03*
D21*
X93980000Y-74930000D03*
D22*
X92710000Y-74930000D03*
X91440000Y-74930000D03*
D18*
X73660000Y-85090000D03*
D19*
X63500000Y-85090000D03*
D18*
X78740000Y-74930000D03*
D19*
X88900000Y-74930000D03*
D21*
X58420000Y-69850000D03*
D22*
X59690000Y-69850000D03*
X60960000Y-69850000D03*
D28*
X74930000Y-104140000D03*
D29*
X77470000Y-104140000D03*
D18*
X97155000Y-61675000D03*
X97155000Y-66675000D03*
X106680000Y-90170000D03*
D19*
X96520000Y-90170000D03*
D21*
X58420000Y-80010000D03*
D22*
X59690000Y-80010000D03*
X60960000Y-80010000D03*
D20*
X48260000Y-64135000D03*
D18*
X50760000Y-64135000D03*
X106680000Y-85090000D03*
D19*
X96520000Y-85090000D03*
D18*
X78740000Y-80010000D03*
D19*
X88900000Y-80010000D03*
D18*
X73660000Y-69850000D03*
D19*
X63500000Y-69850000D03*
D30*
X104140000Y-102870000D03*
D18*
X106680000Y-69850000D03*
D19*
X96520000Y-69850000D03*
D18*
X73660000Y-74930000D03*
D19*
X63500000Y-74930000D03*
D18*
X63500000Y-64770000D03*
D19*
X73660000Y-64770000D03*
D24*
X58825000Y-64135000D03*
D25*
X60325000Y-64135000D03*
D17*
X94189750Y-53200000D03*
X81889750Y-53200000D03*
D26*
X84289750Y-56950000D03*
X91789750Y-56950000D03*
D27*
X84289750Y-49700000D03*
D18*
X78740000Y-85090000D03*
D19*
X88900000Y-85090000D03*
D30*
X48260000Y-102870000D03*
D23*
X48260000Y-57150000D03*
D18*
X87710000Y-95250000D03*
X92710000Y-95250000D03*
%LPD*%
M02*
