M48
; DRILL file {KiCad 8.0.9} date 2025-03-02T14:16:49+0100
; FORMAT={-:-/ absolute / metric / decimal}
; #@! TF.CreationDate,2025-03-02T14:16:49+01:00
; #@! TF.GenerationSoftware,Kicad,Pcbnew,8.0.9
; #@! TF.FileFunction,Plated,1,2,PTH
FMAT,2
METRIC
; #@! TA.AperFunction,Plated,PTH,ViaDrill
T1C0.300
; #@! TA.AperFunction,Plated,PTH,ComponentDrill
T2C0.600
; #@! TA.AperFunction,Plated,PTH,ComponentDrill
T3C0.750
; #@! TA.AperFunction,Plated,PTH,ComponentDrill
T4C0.800
; #@! TA.AperFunction,Plated,PTH,ComponentDrill
T5C1.000
; #@! TA.AperFunction,Plated,PTH,ComponentDrill
T6C1.300
; #@! TA.AperFunction,Plated,PTH,ComponentDrill
T7C1.500
; #@! TA.AperFunction,Plated,PTH,ComponentDrill
T8C3.200
%
G90
G05
T1
X78.74Y-58.42
T2
X58.825Y-64.135
X60.325Y-64.135
X68.58Y-95.25
X70.08Y-95.25
X82.32Y-95.25
X83.82Y-95.25
X92.075Y-64.135
X93.575Y-64.135
T3
X58.42Y-69.85
X58.42Y-74.93
X58.42Y-80.01
X58.42Y-85.09
X59.69Y-69.85
X59.69Y-74.93
X59.69Y-80.01
X59.69Y-85.09
X60.96Y-69.85
X60.96Y-74.93
X60.96Y-80.01
X60.96Y-85.09
X91.44Y-69.85
X91.44Y-74.93
X91.44Y-80.01
X91.44Y-85.09
X92.71Y-69.85
X92.71Y-74.93
X92.71Y-80.01
X92.71Y-85.09
X93.98Y-69.85
X93.98Y-74.93
X93.98Y-80.01
X93.98Y-85.09
T4
X45.72Y-69.85
X45.72Y-74.93
X45.72Y-80.01
X45.72Y-85.09
X45.72Y-90.17
X46.99Y-95.25
X48.26Y-64.135
X50.76Y-64.135
X52.07Y-99.06
X55.245Y-61.595
X55.245Y-66.595
X55.88Y-69.85
X55.88Y-74.93
X55.88Y-80.01
X55.88Y-85.09
X55.88Y-90.17
X57.15Y-95.25
X59.69Y-95.25
X62.23Y-99.06
X63.5Y-64.77
X63.5Y-69.85
X63.5Y-74.93
X63.5Y-80.01
X63.5Y-85.09
X63.5Y-90.17
X64.69Y-95.25
X64.77Y-100.33
X73.66Y-64.77
X73.66Y-69.85
X73.66Y-74.93
X73.66Y-80.01
X73.66Y-85.09
X73.66Y-90.17
X73.66Y-92.75
X73.66Y-97.75
X74.93Y-100.33
X77.47Y-100.33
X78.74Y-64.77
X78.74Y-69.85
X78.74Y-74.93
X78.74Y-80.01
X78.74Y-85.09
X78.74Y-90.17
X78.74Y-92.75
X78.74Y-97.75
X87.63Y-100.33
X87.71Y-95.25
X88.9Y-64.77
X88.9Y-69.85
X88.9Y-74.93
X88.9Y-80.01
X88.9Y-85.09
X88.9Y-90.17
X90.17Y-99.06
X92.71Y-95.25
X95.25Y-95.25
X96.52Y-69.85
X96.52Y-74.93
X96.52Y-80.01
X96.52Y-85.09
X96.52Y-90.17
X97.155Y-61.675
X97.155Y-66.675
X100.33Y-99.06
X101.552Y-64.135
X104.052Y-64.135
X105.41Y-95.25
X106.68Y-69.85
X106.68Y-74.93
X106.68Y-80.01
X106.68Y-85.09
X106.68Y-90.17
T5
X74.93Y-104.14
X77.47Y-104.14
T6
X60.96Y-56.95
X68.46Y-56.95
X84.29Y-56.95
X91.79Y-56.95
T7
X60.96Y-49.7
X84.29Y-49.7
T8
X48.26Y-57.15
X104.14Y-57.15
M30
