G04 #@! TF.GenerationSoftware,KiCad,Pcbnew,8.0.9*
G04 #@! TF.CreationDate,2025-03-02T14:16:38+01:00*
G04 #@! TF.ProjectId,cjss190,636a7373-3139-4302-9e6b-696361645f70,rev?*
G04 #@! TF.SameCoordinates,Original*
G04 #@! TF.FileFunction,Copper,L1,Top*
G04 #@! TF.FilePolarity,Positive*
%FSLAX46Y46*%
G04 Gerber Fmt 4.6, Leading zero omitted, Abs format (unit mm)*
G04 Created by KiCad (PCBNEW 8.0.9) date 2025-03-02 14:16:38*
%MOMM*%
%LPD*%
G01*
G04 APERTURE LIST*
G04 #@! TA.AperFunction,ComponentPad*
%ADD10C,1.600000*%
G04 #@! TD*
G04 #@! TA.AperFunction,ComponentPad*
%ADD11O,1.600000X1.600000*%
G04 #@! TD*
G04 #@! TA.AperFunction,ComponentPad*
%ADD12R,1.600000X1.600000*%
G04 #@! TD*
G04 #@! TA.AperFunction,ComponentPad*
%ADD13R,1.050000X1.500000*%
G04 #@! TD*
G04 #@! TA.AperFunction,ComponentPad*
%ADD14O,1.050000X1.500000*%
G04 #@! TD*
G04 #@! TA.AperFunction,ComponentPad*
%ADD15C,5.600000*%
G04 #@! TD*
G04 #@! TA.AperFunction,ComponentPad*
%ADD16R,1.200000X1.200000*%
G04 #@! TD*
G04 #@! TA.AperFunction,ComponentPad*
%ADD17C,1.200000*%
G04 #@! TD*
G04 #@! TA.AperFunction,WasherPad*
%ADD18O,1.900000X3.200000*%
G04 #@! TD*
G04 #@! TA.AperFunction,ComponentPad*
%ADD19C,2.000000*%
G04 #@! TD*
G04 #@! TA.AperFunction,ComponentPad*
%ADD20C,2.200000*%
G04 #@! TD*
G04 #@! TA.AperFunction,ComponentPad*
%ADD21R,1.700000X1.700000*%
G04 #@! TD*
G04 #@! TA.AperFunction,ComponentPad*
%ADD22O,1.700000X1.700000*%
G04 #@! TD*
G04 #@! TA.AperFunction,ViaPad*
%ADD23C,0.600000*%
G04 #@! TD*
G04 #@! TA.AperFunction,Conductor*
%ADD24C,0.635000*%
G04 #@! TD*
G04 #@! TA.AperFunction,Conductor*
%ADD25C,1.270000*%
G04 #@! TD*
G04 APERTURE END LIST*
D10*
X78740000Y-69850000D03*
D11*
X88900000Y-69850000D03*
D10*
X87630000Y-100330000D03*
D11*
X77470000Y-100330000D03*
D10*
X73660000Y-80010000D03*
D11*
X63500000Y-80010000D03*
D12*
X104052380Y-64135000D03*
D10*
X101552380Y-64135000D03*
X45720000Y-85090000D03*
D11*
X55880000Y-85090000D03*
D10*
X45720000Y-74930000D03*
D11*
X55880000Y-74930000D03*
D10*
X88900000Y-90170000D03*
D11*
X78740000Y-90170000D03*
D10*
X63500000Y-90170000D03*
D11*
X73660000Y-90170000D03*
D13*
X93980000Y-85090000D03*
D14*
X92710000Y-85090000D03*
X91440000Y-85090000D03*
D10*
X88900000Y-64770000D03*
D11*
X78740000Y-64770000D03*
D13*
X58420000Y-74930000D03*
D14*
X59690000Y-74930000D03*
X60960000Y-74930000D03*
D10*
X106680000Y-80010000D03*
D11*
X96520000Y-80010000D03*
D10*
X45720000Y-90170000D03*
D11*
X55880000Y-90170000D03*
D10*
X78740000Y-92750000D03*
X78740000Y-97750000D03*
X73660000Y-92750000D03*
X73660000Y-97750000D03*
D15*
X104140000Y-57150000D03*
D10*
X45720000Y-69850000D03*
D11*
X55880000Y-69850000D03*
D10*
X64690000Y-95250000D03*
X59690000Y-95250000D03*
D16*
X68580000Y-95250000D03*
D17*
X70080000Y-95250000D03*
D13*
X93980000Y-69850000D03*
D14*
X92710000Y-69850000D03*
X91440000Y-69850000D03*
D10*
X64770000Y-100330000D03*
D11*
X74930000Y-100330000D03*
D10*
X55245000Y-61595000D03*
X55245000Y-66595000D03*
D16*
X93575000Y-64135000D03*
D17*
X92075000Y-64135000D03*
D16*
X83820000Y-95250000D03*
D17*
X82320000Y-95250000D03*
D10*
X52070000Y-99060000D03*
D11*
X62230000Y-99060000D03*
D10*
X106680000Y-74930000D03*
D11*
X96520000Y-74930000D03*
D10*
X45720000Y-80010000D03*
D11*
X55880000Y-80010000D03*
D18*
X70860000Y-53200000D03*
X58560000Y-53200000D03*
D19*
X60960000Y-56950000D03*
X68460000Y-56950000D03*
D20*
X60960000Y-49700000D03*
D10*
X95250000Y-95250000D03*
D11*
X105410000Y-95250000D03*
D13*
X93980000Y-80010000D03*
D14*
X92710000Y-80010000D03*
X91440000Y-80010000D03*
D10*
X57150000Y-95250000D03*
D11*
X46990000Y-95250000D03*
D10*
X100330000Y-99060000D03*
D11*
X90170000Y-99060000D03*
D13*
X58420000Y-85090000D03*
D14*
X59690000Y-85090000D03*
X60960000Y-85090000D03*
D13*
X93980000Y-74930000D03*
D14*
X92710000Y-74930000D03*
X91440000Y-74930000D03*
D10*
X73660000Y-85090000D03*
D11*
X63500000Y-85090000D03*
D10*
X78740000Y-74930000D03*
D11*
X88900000Y-74930000D03*
D13*
X58420000Y-69850000D03*
D14*
X59690000Y-69850000D03*
X60960000Y-69850000D03*
D21*
X74930000Y-104140000D03*
D22*
X77470000Y-104140000D03*
D10*
X97155000Y-61675000D03*
X97155000Y-66675000D03*
X106680000Y-90170000D03*
D11*
X96520000Y-90170000D03*
D13*
X58420000Y-80010000D03*
D14*
X59690000Y-80010000D03*
X60960000Y-80010000D03*
D12*
X48260000Y-64135000D03*
D10*
X50760000Y-64135000D03*
X106680000Y-85090000D03*
D11*
X96520000Y-85090000D03*
D10*
X78740000Y-80010000D03*
D11*
X88900000Y-80010000D03*
D10*
X73660000Y-69850000D03*
D11*
X63500000Y-69850000D03*
D10*
X106680000Y-69850000D03*
D11*
X96520000Y-69850000D03*
D10*
X73660000Y-74930000D03*
D11*
X63500000Y-74930000D03*
D10*
X63500000Y-64770000D03*
D11*
X73660000Y-64770000D03*
D16*
X58825000Y-64135000D03*
D17*
X60325000Y-64135000D03*
D18*
X94189750Y-53200000D03*
X81889750Y-53200000D03*
D19*
X84289750Y-56950000D03*
X91789750Y-56950000D03*
D20*
X84289750Y-49700000D03*
D10*
X78740000Y-85090000D03*
D11*
X88900000Y-85090000D03*
D15*
X48260000Y-57150000D03*
D10*
X87710000Y-95250000D03*
X92710000Y-95250000D03*
D23*
X78740000Y-58420000D03*
D24*
X68580000Y-91360000D02*
X64690000Y-95250000D01*
X68580000Y-64570000D02*
X68580000Y-91360000D01*
X60960000Y-56950000D02*
X68580000Y-64570000D01*
X58420000Y-80010000D02*
X58420000Y-69850000D01*
X58420000Y-80010000D02*
X58420000Y-85090000D01*
D25*
X77470000Y-100330000D02*
X77470000Y-99020000D01*
X55710000Y-49700000D02*
X60960000Y-49700000D01*
X84289750Y-49700000D02*
X96690000Y-49700000D01*
X76200000Y-49700000D02*
X84289750Y-49700000D01*
X77470000Y-100330000D02*
X77470000Y-104140000D01*
X50760000Y-60960000D02*
X50760000Y-64135000D01*
X50760000Y-59650000D02*
X50760000Y-60960000D01*
X96690000Y-49700000D02*
X104140000Y-57150000D01*
X85090000Y-96885000D02*
X103775000Y-96885000D01*
X73660000Y-64770000D02*
X76200000Y-64770000D01*
X101552380Y-62230000D02*
X101552380Y-64135000D01*
X60960000Y-49700000D02*
X76200000Y-49700000D01*
X81645000Y-100330000D02*
X85090000Y-96885000D01*
X50800000Y-60960000D02*
X51435000Y-61595000D01*
X104140000Y-57150000D02*
X101552380Y-59737620D01*
X82320000Y-93750000D02*
X82320000Y-95250000D01*
X46990000Y-95250000D02*
X48625000Y-96885000D01*
X103775000Y-96885000D02*
X105410000Y-95250000D01*
X97155000Y-61675000D02*
X100997380Y-61675000D01*
X73660000Y-90170000D02*
X76200000Y-90170000D01*
X70080000Y-95250000D02*
X71160000Y-95250000D01*
X48260000Y-57150000D02*
X55710000Y-49700000D01*
X50760000Y-60960000D02*
X50800000Y-60960000D01*
X81240000Y-95250000D02*
X78740000Y-97750000D01*
X51435000Y-61595000D02*
X54610000Y-61595000D01*
X74930000Y-100330000D02*
X74930000Y-99020000D01*
X71120000Y-100330000D02*
X74930000Y-100330000D01*
X67675000Y-96885000D02*
X71120000Y-100330000D01*
X78740000Y-90170000D02*
X82320000Y-93750000D01*
X77470000Y-99020000D02*
X78740000Y-97750000D01*
X48260000Y-57150000D02*
X50760000Y-59650000D01*
X71160000Y-95250000D02*
X73660000Y-97750000D01*
X70080000Y-93750000D02*
X70080000Y-95250000D01*
X76200000Y-64770000D02*
X76200000Y-49700000D01*
X82320000Y-95250000D02*
X81240000Y-95250000D01*
X76200000Y-64770000D02*
X78740000Y-64770000D01*
X73660000Y-90170000D02*
X70080000Y-93750000D01*
X76200000Y-90170000D02*
X78740000Y-90170000D01*
X74930000Y-100330000D02*
X77470000Y-100330000D01*
X101552380Y-59737620D02*
X101552380Y-62230000D01*
X74930000Y-99020000D02*
X73660000Y-97750000D01*
X77470000Y-100330000D02*
X81645000Y-100330000D01*
X48625000Y-96885000D02*
X67675000Y-96885000D01*
X100997380Y-61675000D02*
X101552380Y-62230000D01*
X76200000Y-90170000D02*
X76200000Y-64770000D01*
D24*
X59690000Y-86360000D02*
X55880000Y-90170000D01*
X59690000Y-85090000D02*
X59690000Y-86360000D01*
X59690000Y-69850000D02*
X59690000Y-85090000D01*
X83820000Y-91440000D02*
X83820000Y-63500000D01*
X86955000Y-94575000D02*
X83820000Y-91440000D01*
X87035000Y-94575000D02*
X86955000Y-94575000D01*
X87710000Y-95250000D02*
X87035000Y-94575000D01*
X83820000Y-63500000D02*
X78740000Y-58420000D01*
X93980000Y-69850000D02*
X93980000Y-85090000D01*
X92710000Y-86360000D02*
X96520000Y-90170000D01*
X92710000Y-85090000D02*
X92710000Y-86360000D01*
X92710000Y-85090000D02*
X92710000Y-69850000D01*
G04 #@! TA.AperFunction,Conductor*
G36*
X77149920Y-100084394D02*
G01*
X77097259Y-100175606D01*
X77070000Y-100277339D01*
X77070000Y-100382661D01*
X77097259Y-100484394D01*
X77149920Y-100575606D01*
X77154314Y-100580000D01*
X75245686Y-100580000D01*
X75250080Y-100575606D01*
X75302741Y-100484394D01*
X75330000Y-100382661D01*
X75330000Y-100277339D01*
X75302741Y-100175606D01*
X75250080Y-100084394D01*
X75245686Y-100080000D01*
X77154314Y-100080000D01*
X77149920Y-100084394D01*
G37*
G04 #@! TD.AperFunction*
G04 #@! TA.AperFunction,Conductor*
G36*
X105413736Y-44650726D02*
G01*
X105684510Y-44667105D01*
X105699374Y-44668910D01*
X105962507Y-44717131D01*
X105977044Y-44720714D01*
X106232435Y-44800298D01*
X106246427Y-44805603D01*
X106490381Y-44915398D01*
X106503639Y-44922356D01*
X106732574Y-45060752D01*
X106744885Y-45069250D01*
X106955473Y-45234235D01*
X106966681Y-45244165D01*
X107155834Y-45433318D01*
X107165764Y-45444526D01*
X107330745Y-45655108D01*
X107339251Y-45667431D01*
X107477642Y-45896359D01*
X107484601Y-45909618D01*
X107594394Y-46153568D01*
X107599703Y-46167569D01*
X107679284Y-46422954D01*
X107682868Y-46437492D01*
X107731089Y-46700625D01*
X107732894Y-46715489D01*
X107749274Y-46986262D01*
X107749500Y-46993750D01*
X107749500Y-68780951D01*
X107729815Y-68847990D01*
X107677011Y-68893745D01*
X107607853Y-68903689D01*
X107544297Y-68874664D01*
X107537819Y-68868632D01*
X107519141Y-68849954D01*
X107332734Y-68719432D01*
X107332732Y-68719431D01*
X107126497Y-68623261D01*
X107126488Y-68623258D01*
X106906697Y-68564366D01*
X106906693Y-68564365D01*
X106906692Y-68564365D01*
X106906691Y-68564364D01*
X106906686Y-68564364D01*
X106680002Y-68544532D01*
X106679998Y-68544532D01*
X106453313Y-68564364D01*
X106453302Y-68564366D01*
X106233511Y-68623258D01*
X106233502Y-68623261D01*
X106027267Y-68719431D01*
X106027265Y-68719432D01*
X105840858Y-68849954D01*
X105679954Y-69010858D01*
X105549432Y-69197265D01*
X105549431Y-69197267D01*
X105453261Y-69403502D01*
X105453258Y-69403511D01*
X105394366Y-69623302D01*
X105394364Y-69623313D01*
X105374532Y-69849998D01*
X105374532Y-69850001D01*
X105394364Y-70076686D01*
X105394366Y-70076697D01*
X105453258Y-70296488D01*
X105453261Y-70296497D01*
X105549431Y-70502732D01*
X105549432Y-70502734D01*
X105679954Y-70689141D01*
X105840858Y-70850045D01*
X105840861Y-70850047D01*
X106027266Y-70980568D01*
X106233504Y-71076739D01*
X106453308Y-71135635D01*
X106615230Y-71149801D01*
X106679998Y-71155468D01*
X106680000Y-71155468D01*
X106680002Y-71155468D01*
X106736673Y-71150509D01*
X106906692Y-71135635D01*
X107126496Y-71076739D01*
X107332734Y-70980568D01*
X107519139Y-70850047D01*
X107526858Y-70842328D01*
X107537819Y-70831368D01*
X107599142Y-70797883D01*
X107668834Y-70802867D01*
X107724767Y-70844739D01*
X107749184Y-70910203D01*
X107749500Y-70919049D01*
X107749500Y-73860951D01*
X107729815Y-73927990D01*
X107677011Y-73973745D01*
X107607853Y-73983689D01*
X107544297Y-73954664D01*
X107537819Y-73948632D01*
X107519141Y-73929954D01*
X107332734Y-73799432D01*
X107332732Y-73799431D01*
X107126497Y-73703261D01*
X107126488Y-73703258D01*
X106906697Y-73644366D01*
X106906693Y-73644365D01*
X106906692Y-73644365D01*
X106906691Y-73644364D01*
X106906686Y-73644364D01*
X106680002Y-73624532D01*
X106679998Y-73624532D01*
X106453313Y-73644364D01*
X106453302Y-73644366D01*
X106233511Y-73703258D01*
X106233502Y-73703261D01*
X106027267Y-73799431D01*
X106027265Y-73799432D01*
X105840858Y-73929954D01*
X105679954Y-74090858D01*
X105549432Y-74277265D01*
X105549431Y-74277267D01*
X105453261Y-74483502D01*
X105453258Y-74483511D01*
X105394366Y-74703302D01*
X105394364Y-74703313D01*
X105374532Y-74929998D01*
X105374532Y-74930001D01*
X105394364Y-75156686D01*
X105394366Y-75156697D01*
X105453258Y-75376488D01*
X105453261Y-75376497D01*
X105549431Y-75582732D01*
X105549432Y-75582734D01*
X105679954Y-75769141D01*
X105840858Y-75930045D01*
X105840861Y-75930047D01*
X106027266Y-76060568D01*
X106233504Y-76156739D01*
X106453308Y-76215635D01*
X106615230Y-76229801D01*
X106679998Y-76235468D01*
X106680000Y-76235468D01*
X106680002Y-76235468D01*
X106736673Y-76230509D01*
X106906692Y-76215635D01*
X107126496Y-76156739D01*
X107332734Y-76060568D01*
X107519139Y-75930047D01*
X107526858Y-75922328D01*
X107537819Y-75911368D01*
X107599142Y-75877883D01*
X107668834Y-75882867D01*
X107724767Y-75924739D01*
X107749184Y-75990203D01*
X107749500Y-75999049D01*
X107749500Y-78940951D01*
X107729815Y-79007990D01*
X107677011Y-79053745D01*
X107607853Y-79063689D01*
X107544297Y-79034664D01*
X107537819Y-79028632D01*
X107519141Y-79009954D01*
X107332734Y-78879432D01*
X107332732Y-78879431D01*
X107126497Y-78783261D01*
X107126488Y-78783258D01*
X106906697Y-78724366D01*
X106906693Y-78724365D01*
X106906692Y-78724365D01*
X106906691Y-78724364D01*
X106906686Y-78724364D01*
X106680002Y-78704532D01*
X106679998Y-78704532D01*
X106453313Y-78724364D01*
X106453302Y-78724366D01*
X106233511Y-78783258D01*
X106233502Y-78783261D01*
X106027267Y-78879431D01*
X106027265Y-78879432D01*
X105840858Y-79009954D01*
X105679954Y-79170858D01*
X105549432Y-79357265D01*
X105549431Y-79357267D01*
X105453261Y-79563502D01*
X105453258Y-79563511D01*
X105394366Y-79783302D01*
X105394364Y-79783313D01*
X105374532Y-80009998D01*
X105374532Y-80010001D01*
X105394364Y-80236686D01*
X105394366Y-80236697D01*
X105453258Y-80456488D01*
X105453261Y-80456497D01*
X105549431Y-80662732D01*
X105549432Y-80662734D01*
X105679954Y-80849141D01*
X105840858Y-81010045D01*
X105840861Y-81010047D01*
X106027266Y-81140568D01*
X106233504Y-81236739D01*
X106453308Y-81295635D01*
X106615230Y-81309801D01*
X106679998Y-81315468D01*
X106680000Y-81315468D01*
X106680002Y-81315468D01*
X106736673Y-81310509D01*
X106906692Y-81295635D01*
X107126496Y-81236739D01*
X107332734Y-81140568D01*
X107519139Y-81010047D01*
X107526858Y-81002328D01*
X107537819Y-80991368D01*
X107599142Y-80957883D01*
X107668834Y-80962867D01*
X107724767Y-81004739D01*
X107749184Y-81070203D01*
X107749500Y-81079049D01*
X107749500Y-84020951D01*
X107729815Y-84087990D01*
X107677011Y-84133745D01*
X107607853Y-84143689D01*
X107544297Y-84114664D01*
X107537819Y-84108632D01*
X107519141Y-84089954D01*
X107332734Y-83959432D01*
X107332732Y-83959431D01*
X107126497Y-83863261D01*
X107126488Y-83863258D01*
X106906697Y-83804366D01*
X106906693Y-83804365D01*
X106906692Y-83804365D01*
X106906691Y-83804364D01*
X106906686Y-83804364D01*
X106680002Y-83784532D01*
X106679998Y-83784532D01*
X106453313Y-83804364D01*
X106453302Y-83804366D01*
X106233511Y-83863258D01*
X106233502Y-83863261D01*
X106027267Y-83959431D01*
X106027265Y-83959432D01*
X105840858Y-84089954D01*
X105679954Y-84250858D01*
X105549432Y-84437265D01*
X105549431Y-84437267D01*
X105453261Y-84643502D01*
X105453258Y-84643511D01*
X105394366Y-84863302D01*
X105394364Y-84863313D01*
X105374532Y-85089998D01*
X105374532Y-85090001D01*
X105394364Y-85316686D01*
X105394366Y-85316697D01*
X105453258Y-85536488D01*
X105453261Y-85536497D01*
X105549431Y-85742732D01*
X105549432Y-85742734D01*
X105679954Y-85929141D01*
X105840858Y-86090045D01*
X105840861Y-86090047D01*
X106027266Y-86220568D01*
X106233504Y-86316739D01*
X106453308Y-86375635D01*
X106615230Y-86389801D01*
X106679998Y-86395468D01*
X106680000Y-86395468D01*
X106680002Y-86395468D01*
X106736673Y-86390509D01*
X106906692Y-86375635D01*
X107126496Y-86316739D01*
X107332734Y-86220568D01*
X107519139Y-86090047D01*
X107526858Y-86082328D01*
X107537819Y-86071368D01*
X107599142Y-86037883D01*
X107668834Y-86042867D01*
X107724767Y-86084739D01*
X107749184Y-86150203D01*
X107749500Y-86159049D01*
X107749500Y-89100951D01*
X107729815Y-89167990D01*
X107677011Y-89213745D01*
X107607853Y-89223689D01*
X107544297Y-89194664D01*
X107537819Y-89188632D01*
X107519141Y-89169954D01*
X107332734Y-89039432D01*
X107332732Y-89039431D01*
X107126497Y-88943261D01*
X107126488Y-88943258D01*
X106906697Y-88884366D01*
X106906693Y-88884365D01*
X106906692Y-88884365D01*
X106906691Y-88884364D01*
X106906686Y-88884364D01*
X106680002Y-88864532D01*
X106679998Y-88864532D01*
X106453313Y-88884364D01*
X106453302Y-88884366D01*
X106233511Y-88943258D01*
X106233502Y-88943261D01*
X106027267Y-89039431D01*
X106027265Y-89039432D01*
X105840858Y-89169954D01*
X105679954Y-89330858D01*
X105549432Y-89517265D01*
X105549431Y-89517267D01*
X105453261Y-89723502D01*
X105453258Y-89723511D01*
X105394366Y-89943302D01*
X105394364Y-89943313D01*
X105374532Y-90169998D01*
X105374532Y-90170001D01*
X105394364Y-90396686D01*
X105394366Y-90396697D01*
X105453258Y-90616488D01*
X105453261Y-90616497D01*
X105549431Y-90822732D01*
X105549432Y-90822734D01*
X105679954Y-91009141D01*
X105840858Y-91170045D01*
X105840861Y-91170047D01*
X106027266Y-91300568D01*
X106233504Y-91396739D01*
X106453308Y-91455635D01*
X106615230Y-91469801D01*
X106679998Y-91475468D01*
X106680000Y-91475468D01*
X106680002Y-91475468D01*
X106736673Y-91470509D01*
X106906692Y-91455635D01*
X107126496Y-91396739D01*
X107332734Y-91300568D01*
X107519139Y-91170047D01*
X107524447Y-91164739D01*
X107537819Y-91151368D01*
X107599142Y-91117883D01*
X107668834Y-91122867D01*
X107724767Y-91164739D01*
X107749184Y-91230203D01*
X107749500Y-91239049D01*
X107749500Y-102866249D01*
X107749274Y-102873737D01*
X107732894Y-103144510D01*
X107731089Y-103159374D01*
X107682868Y-103422507D01*
X107679284Y-103437045D01*
X107599703Y-103692430D01*
X107594394Y-103706431D01*
X107484601Y-103950381D01*
X107477642Y-103963640D01*
X107339251Y-104192568D01*
X107330745Y-104204891D01*
X107165764Y-104415473D01*
X107155834Y-104426681D01*
X106966681Y-104615834D01*
X106955473Y-104625764D01*
X106744891Y-104790745D01*
X106732568Y-104799251D01*
X106503640Y-104937642D01*
X106490381Y-104944601D01*
X106246431Y-105054394D01*
X106232430Y-105059703D01*
X105977045Y-105139284D01*
X105962507Y-105142868D01*
X105699374Y-105191089D01*
X105684510Y-105192894D01*
X105429690Y-105208308D01*
X105413735Y-105209274D01*
X105406249Y-105209500D01*
X78607374Y-105209500D01*
X78540335Y-105189815D01*
X78494580Y-105137011D01*
X78484636Y-105067853D01*
X78505800Y-105014376D01*
X78643595Y-104817585D01*
X78643599Y-104817579D01*
X78743429Y-104603492D01*
X78743432Y-104603486D01*
X78800636Y-104390000D01*
X77903012Y-104390000D01*
X77935925Y-104332993D01*
X77970000Y-104205826D01*
X77970000Y-104074174D01*
X77935925Y-103947007D01*
X77903012Y-103890000D01*
X78800636Y-103890000D01*
X78800635Y-103889999D01*
X78743432Y-103676513D01*
X78743429Y-103676507D01*
X78643600Y-103462422D01*
X78643599Y-103462420D01*
X78508113Y-103268926D01*
X78508108Y-103268920D01*
X78341082Y-103101894D01*
X78147578Y-102966399D01*
X77933492Y-102866570D01*
X77933486Y-102866567D01*
X77720000Y-102809364D01*
X77720000Y-103706988D01*
X77662993Y-103674075D01*
X77535826Y-103640000D01*
X77404174Y-103640000D01*
X77277007Y-103674075D01*
X77220000Y-103706988D01*
X77220000Y-102809364D01*
X77219999Y-102809364D01*
X77006513Y-102866567D01*
X77006507Y-102866570D01*
X76792422Y-102966399D01*
X76792420Y-102966400D01*
X76598926Y-103101886D01*
X76476865Y-103223947D01*
X76415542Y-103257431D01*
X76345850Y-103252447D01*
X76289917Y-103210575D01*
X76273002Y-103179598D01*
X76223797Y-103047671D01*
X76223793Y-103047664D01*
X76137547Y-102932455D01*
X76137544Y-102932452D01*
X76022335Y-102846206D01*
X76022328Y-102846202D01*
X75887482Y-102795908D01*
X75887483Y-102795908D01*
X75827883Y-102789501D01*
X75827881Y-102789500D01*
X75827873Y-102789500D01*
X75827864Y-102789500D01*
X74032129Y-102789500D01*
X74032123Y-102789501D01*
X73972516Y-102795908D01*
X73837671Y-102846202D01*
X73837664Y-102846206D01*
X73722455Y-102932452D01*
X73722452Y-102932455D01*
X73636206Y-103047664D01*
X73636202Y-103047671D01*
X73585908Y-103182517D01*
X73579501Y-103242116D01*
X73579500Y-103242135D01*
X73579500Y-105037870D01*
X73579501Y-105037876D01*
X73583196Y-105072247D01*
X73570789Y-105141006D01*
X73523178Y-105192143D01*
X73459906Y-105209500D01*
X46993751Y-105209500D01*
X46986264Y-105209274D01*
X46715490Y-105192894D01*
X46700625Y-105191089D01*
X46437492Y-105142868D01*
X46422954Y-105139284D01*
X46167569Y-105059703D01*
X46153568Y-105054394D01*
X45909618Y-104944601D01*
X45896359Y-104937642D01*
X45744258Y-104845694D01*
X45667428Y-104799249D01*
X45655108Y-104790745D01*
X45444526Y-104625764D01*
X45433318Y-104615834D01*
X45244165Y-104426681D01*
X45234235Y-104415473D01*
X45169616Y-104332993D01*
X45069250Y-104204885D01*
X45060752Y-104192574D01*
X44922356Y-103963639D01*
X44915398Y-103950381D01*
X44805603Y-103706427D01*
X44800296Y-103692430D01*
X44795334Y-103676507D01*
X44720714Y-103437044D01*
X44717131Y-103422507D01*
X44683254Y-103237644D01*
X44668909Y-103159372D01*
X44667105Y-103144509D01*
X44650726Y-102873736D01*
X44650500Y-102866249D01*
X44650500Y-102746752D01*
X46379500Y-102746752D01*
X46379500Y-102993247D01*
X46379501Y-102993263D01*
X46411674Y-103237644D01*
X46411675Y-103237649D01*
X46411676Y-103237655D01*
X46420055Y-103268926D01*
X46475477Y-103475766D01*
X46569809Y-103703502D01*
X46569813Y-103703511D01*
X46693069Y-103916997D01*
X46843132Y-104112560D01*
X46843140Y-104112569D01*
X47017431Y-104286860D01*
X47017439Y-104286867D01*
X47213002Y-104436930D01*
X47213005Y-104436931D01*
X47213008Y-104436934D01*
X47426491Y-104560188D01*
X47573645Y-104621141D01*
X47654233Y-104654522D01*
X47654234Y-104654522D01*
X47654236Y-104654523D01*
X47892345Y-104718324D01*
X48136746Y-104750500D01*
X48136753Y-104750500D01*
X48383247Y-104750500D01*
X48383254Y-104750500D01*
X48627655Y-104718324D01*
X48865764Y-104654523D01*
X49093509Y-104560188D01*
X49306992Y-104436934D01*
X49502560Y-104286868D01*
X49502564Y-104286863D01*
X49502569Y-104286860D01*
X49676860Y-104112569D01*
X49676863Y-104112564D01*
X49676868Y-104112560D01*
X49826934Y-103916992D01*
X49950188Y-103703509D01*
X50044523Y-103475764D01*
X50108324Y-103237655D01*
X50140500Y-102993254D01*
X50140500Y-102746752D01*
X102259500Y-102746752D01*
X102259500Y-102993247D01*
X102259501Y-102993263D01*
X102291674Y-103237644D01*
X102291675Y-103237649D01*
X102291676Y-103237655D01*
X102300055Y-103268926D01*
X102355477Y-103475766D01*
X102449809Y-103703502D01*
X102449813Y-103703511D01*
X102573069Y-103916997D01*
X102723132Y-104112560D01*
X102723140Y-104112569D01*
X102897431Y-104286860D01*
X102897439Y-104286867D01*
X103093002Y-104436930D01*
X103093005Y-104436931D01*
X103093008Y-104436934D01*
X103306491Y-104560188D01*
X103453645Y-104621141D01*
X103534233Y-104654522D01*
X103534234Y-104654522D01*
X103534236Y-104654523D01*
X103772345Y-104718324D01*
X104016746Y-104750500D01*
X104016753Y-104750500D01*
X104263247Y-104750500D01*
X104263254Y-104750500D01*
X104507655Y-104718324D01*
X104745764Y-104654523D01*
X104973509Y-104560188D01*
X105186992Y-104436934D01*
X105382560Y-104286868D01*
X105382564Y-104286863D01*
X105382569Y-104286860D01*
X105556860Y-104112569D01*
X105556863Y-104112564D01*
X105556868Y-104112560D01*
X105706934Y-103916992D01*
X105830188Y-103703509D01*
X105924523Y-103475764D01*
X105988324Y-103237655D01*
X106020500Y-102993254D01*
X106020500Y-102746746D01*
X105988324Y-102502345D01*
X105924523Y-102264236D01*
X105830188Y-102036491D01*
X105706934Y-101823008D01*
X105706931Y-101823005D01*
X105706930Y-101823002D01*
X105556867Y-101627439D01*
X105556860Y-101627431D01*
X105382569Y-101453140D01*
X105382560Y-101453132D01*
X105186997Y-101303069D01*
X104973511Y-101179813D01*
X104973502Y-101179809D01*
X104745766Y-101085477D01*
X104618164Y-101051286D01*
X104507655Y-101021676D01*
X104507649Y-101021675D01*
X104507644Y-101021674D01*
X104263263Y-100989501D01*
X104263260Y-100989500D01*
X104263254Y-100989500D01*
X104016746Y-100989500D01*
X104016740Y-100989500D01*
X104016736Y-100989501D01*
X103772355Y-101021674D01*
X103772348Y-101021675D01*
X103772345Y-101021676D01*
X103725636Y-101034191D01*
X103534233Y-101085477D01*
X103306497Y-101179809D01*
X103306488Y-101179813D01*
X103093002Y-101303069D01*
X102897439Y-101453132D01*
X102723132Y-101627439D01*
X102573069Y-101823002D01*
X102449813Y-102036488D01*
X102449809Y-102036497D01*
X102355477Y-102264233D01*
X102291677Y-102502342D01*
X102291674Y-102502355D01*
X102259501Y-102746736D01*
X102259500Y-102746752D01*
X50140500Y-102746752D01*
X50140500Y-102746746D01*
X50108324Y-102502345D01*
X50044523Y-102264236D01*
X49950188Y-102036491D01*
X49826934Y-101823008D01*
X49826931Y-101823005D01*
X49826930Y-101823002D01*
X49676867Y-101627439D01*
X49676860Y-101627431D01*
X49502569Y-101453140D01*
X49502560Y-101453132D01*
X49306997Y-101303069D01*
X49093511Y-101179813D01*
X49093502Y-101179809D01*
X48865766Y-101085477D01*
X48738164Y-101051286D01*
X48627655Y-101021676D01*
X48627649Y-101021675D01*
X48627644Y-101021674D01*
X48383263Y-100989501D01*
X48383260Y-100989500D01*
X48383254Y-100989500D01*
X48136746Y-100989500D01*
X48136740Y-100989500D01*
X48136736Y-100989501D01*
X47892355Y-101021674D01*
X47892348Y-101021675D01*
X47892345Y-101021676D01*
X47845636Y-101034191D01*
X47654233Y-101085477D01*
X47426497Y-101179809D01*
X47426488Y-101179813D01*
X47213002Y-101303069D01*
X47017439Y-101453132D01*
X46843132Y-101627439D01*
X46693069Y-101823002D01*
X46569813Y-102036488D01*
X46569809Y-102036497D01*
X46475477Y-102264233D01*
X46411677Y-102502342D01*
X46411674Y-102502355D01*
X46379501Y-102746736D01*
X46379500Y-102746752D01*
X44650500Y-102746752D01*
X44650500Y-99059998D01*
X50764532Y-99059998D01*
X50764532Y-99060001D01*
X50784364Y-99286686D01*
X50784366Y-99286697D01*
X50843258Y-99506488D01*
X50843261Y-99506497D01*
X50939431Y-99712732D01*
X50939432Y-99712734D01*
X51069954Y-99899141D01*
X51230858Y-100060045D01*
X51230861Y-100060047D01*
X51417266Y-100190568D01*
X51623504Y-100286739D01*
X51843308Y-100345635D01*
X52005230Y-100359801D01*
X52069998Y-100365468D01*
X52070000Y-100365468D01*
X52070002Y-100365468D01*
X52126673Y-100360509D01*
X52296692Y-100345635D01*
X52516496Y-100286739D01*
X52722734Y-100190568D01*
X52909139Y-100060047D01*
X53070047Y-99899139D01*
X53200568Y-99712734D01*
X53296739Y-99506496D01*
X53355635Y-99286692D01*
X53375468Y-99060000D01*
X53375468Y-99059998D01*
X60924532Y-99059998D01*
X60924532Y-99060001D01*
X60944364Y-99286686D01*
X60944366Y-99286697D01*
X61003258Y-99506488D01*
X61003261Y-99506497D01*
X61099431Y-99712732D01*
X61099432Y-99712734D01*
X61229954Y-99899141D01*
X61390858Y-100060045D01*
X61390861Y-100060047D01*
X61577266Y-100190568D01*
X61783504Y-100286739D01*
X62003308Y-100345635D01*
X62165230Y-100359801D01*
X62229998Y-100365468D01*
X62230000Y-100365468D01*
X62230002Y-100365468D01*
X62286673Y-100360509D01*
X62456692Y-100345635D01*
X62676496Y-100286739D01*
X62882734Y-100190568D01*
X63069139Y-100060047D01*
X63230047Y-99899139D01*
X63332925Y-99752212D01*
X63387499Y-99708589D01*
X63456997Y-99701395D01*
X63519352Y-99732917D01*
X63554767Y-99793147D01*
X63551997Y-99862961D01*
X63546882Y-99875737D01*
X63543264Y-99883496D01*
X63543258Y-99883511D01*
X63484366Y-100103302D01*
X63484364Y-100103313D01*
X63464532Y-100329998D01*
X63464532Y-100330001D01*
X63484364Y-100556686D01*
X63484366Y-100556697D01*
X63543258Y-100776488D01*
X63543261Y-100776497D01*
X63639431Y-100982732D01*
X63639432Y-100982734D01*
X63769954Y-101169141D01*
X63930858Y-101330045D01*
X63930861Y-101330047D01*
X64117266Y-101460568D01*
X64323504Y-101556739D01*
X64543308Y-101615635D01*
X64678240Y-101627440D01*
X64769998Y-101635468D01*
X64770000Y-101635468D01*
X64770002Y-101635468D01*
X64826673Y-101630509D01*
X64996692Y-101615635D01*
X65216496Y-101556739D01*
X65422734Y-101460568D01*
X65609139Y-101330047D01*
X65770047Y-101169139D01*
X65900568Y-100982734D01*
X65996739Y-100776496D01*
X66055635Y-100556692D01*
X66075468Y-100330000D01*
X66055635Y-100103308D01*
X66049389Y-100079999D01*
X73651127Y-100079999D01*
X73651128Y-100080000D01*
X74614314Y-100080000D01*
X74609920Y-100084394D01*
X74557259Y-100175606D01*
X74530000Y-100277339D01*
X74530000Y-100382661D01*
X74557259Y-100484394D01*
X74609920Y-100575606D01*
X74614314Y-100580000D01*
X73651128Y-100580000D01*
X73703730Y-100776317D01*
X73703734Y-100776326D01*
X73799865Y-100982482D01*
X73930342Y-101168820D01*
X74091179Y-101329657D01*
X74277517Y-101460134D01*
X74483673Y-101556265D01*
X74483682Y-101556269D01*
X74679999Y-101608872D01*
X74680000Y-101608871D01*
X74680000Y-100645686D01*
X74684394Y-100650080D01*
X74775606Y-100702741D01*
X74877339Y-100730000D01*
X74982661Y-100730000D01*
X75084394Y-100702741D01*
X75175606Y-100650080D01*
X75180000Y-100645686D01*
X75180000Y-101608872D01*
X75376317Y-101556269D01*
X75376326Y-101556265D01*
X75582482Y-101460134D01*
X75768820Y-101329657D01*
X75929657Y-101168820D01*
X76060134Y-100982481D01*
X76060135Y-100982479D01*
X76087618Y-100923543D01*
X76133790Y-100871103D01*
X76200983Y-100851951D01*
X76267864Y-100872166D01*
X76312382Y-100923543D01*
X76339864Y-100982479D01*
X76339865Y-100982481D01*
X76470342Y-101168820D01*
X76631179Y-101329657D01*
X76817517Y-101460134D01*
X77023673Y-101556265D01*
X77023682Y-101556269D01*
X77219999Y-101608872D01*
X77220000Y-101608871D01*
X77220000Y-100645686D01*
X77224394Y-100650080D01*
X77315606Y-100702741D01*
X77417339Y-100730000D01*
X77522661Y-100730000D01*
X77624394Y-100702741D01*
X77715606Y-100650080D01*
X77720000Y-100645686D01*
X77720000Y-101608872D01*
X77916317Y-101556269D01*
X77916326Y-101556265D01*
X78122482Y-101460134D01*
X78308820Y-101329657D01*
X78469657Y-101168820D01*
X78600134Y-100982482D01*
X78696265Y-100776326D01*
X78696269Y-100776317D01*
X78748872Y-100580000D01*
X77785686Y-100580000D01*
X77790080Y-100575606D01*
X77842741Y-100484394D01*
X77870000Y-100382661D01*
X77870000Y-100329998D01*
X86324532Y-100329998D01*
X86324532Y-100330001D01*
X86344364Y-100556686D01*
X86344366Y-100556697D01*
X86403258Y-100776488D01*
X86403261Y-100776497D01*
X86499431Y-100982732D01*
X86499432Y-100982734D01*
X86629954Y-101169141D01*
X86790858Y-101330045D01*
X86790861Y-101330047D01*
X86977266Y-101460568D01*
X87183504Y-101556739D01*
X87403308Y-101615635D01*
X87538240Y-101627440D01*
X87629998Y-101635468D01*
X87630000Y-101635468D01*
X87630002Y-101635468D01*
X87686673Y-101630509D01*
X87856692Y-101615635D01*
X88076496Y-101556739D01*
X88282734Y-101460568D01*
X88469139Y-101330047D01*
X88630047Y-101169139D01*
X88760568Y-100982734D01*
X88856739Y-100776496D01*
X88915635Y-100556692D01*
X88935468Y-100330000D01*
X88915635Y-100103308D01*
X88856739Y-99883504D01*
X88853119Y-99875742D01*
X88842627Y-99806667D01*
X88871145Y-99742882D01*
X88929621Y-99704642D01*
X88999488Y-99704086D01*
X89058565Y-99741391D01*
X89067076Y-99752214D01*
X89169954Y-99899141D01*
X89330858Y-100060045D01*
X89330861Y-100060047D01*
X89517266Y-100190568D01*
X89723504Y-100286739D01*
X89943308Y-100345635D01*
X90105230Y-100359801D01*
X90169998Y-100365468D01*
X90170000Y-100365468D01*
X90170002Y-100365468D01*
X90226673Y-100360509D01*
X90396692Y-100345635D01*
X90616496Y-100286739D01*
X90822734Y-100190568D01*
X91009139Y-100060047D01*
X91170047Y-99899139D01*
X91300568Y-99712734D01*
X91396739Y-99506496D01*
X91455635Y-99286692D01*
X91475468Y-99060000D01*
X91475468Y-99059998D01*
X99024532Y-99059998D01*
X99024532Y-99060001D01*
X99044364Y-99286686D01*
X99044366Y-99286697D01*
X99103258Y-99506488D01*
X99103261Y-99506497D01*
X99199431Y-99712732D01*
X99199432Y-99712734D01*
X99329954Y-99899141D01*
X99490858Y-100060045D01*
X99490861Y-100060047D01*
X99677266Y-100190568D01*
X99883504Y-100286739D01*
X100103308Y-100345635D01*
X100265230Y-100359801D01*
X100329998Y-100365468D01*
X100330000Y-100365468D01*
X100330002Y-100365468D01*
X100386673Y-100360509D01*
X100556692Y-100345635D01*
X100776496Y-100286739D01*
X100982734Y-100190568D01*
X101169139Y-100060047D01*
X101330047Y-99899139D01*
X101460568Y-99712734D01*
X101556739Y-99506496D01*
X101615635Y-99286692D01*
X101635468Y-99060000D01*
X101615635Y-98833308D01*
X101556739Y-98613504D01*
X101460568Y-98407266D01*
X101330047Y-98220861D01*
X101330045Y-98220858D01*
X101169141Y-98059954D01*
X100982734Y-97929432D01*
X100982732Y-97929431D01*
X100776497Y-97833261D01*
X100776488Y-97833258D01*
X100556697Y-97774366D01*
X100556693Y-97774365D01*
X100556692Y-97774365D01*
X100556691Y-97774364D01*
X100556686Y-97774364D01*
X100330002Y-97754532D01*
X100329998Y-97754532D01*
X100103313Y-97774364D01*
X100103302Y-97774366D01*
X99883511Y-97833258D01*
X99883502Y-97833261D01*
X99677267Y-97929431D01*
X99677265Y-97929432D01*
X99490858Y-98059954D01*
X99329954Y-98220858D01*
X99199432Y-98407265D01*
X99199431Y-98407267D01*
X99103261Y-98613502D01*
X99103258Y-98613511D01*
X99044366Y-98833302D01*
X99044364Y-98833313D01*
X99024532Y-99059998D01*
X91475468Y-99059998D01*
X91455635Y-98833308D01*
X91396739Y-98613504D01*
X91300568Y-98407266D01*
X91170047Y-98220861D01*
X91170045Y-98220858D01*
X91009141Y-98059954D01*
X90822734Y-97929432D01*
X90822732Y-97929431D01*
X90616497Y-97833261D01*
X90616488Y-97833258D01*
X90396697Y-97774366D01*
X90396693Y-97774365D01*
X90396692Y-97774365D01*
X90396691Y-97774364D01*
X90396686Y-97774364D01*
X90170002Y-97754532D01*
X90169998Y-97754532D01*
X89943313Y-97774364D01*
X89943302Y-97774366D01*
X89723511Y-97833258D01*
X89723502Y-97833261D01*
X89517267Y-97929431D01*
X89517265Y-97929432D01*
X89330858Y-98059954D01*
X89169954Y-98220858D01*
X89039432Y-98407265D01*
X89039431Y-98407267D01*
X88943261Y-98613502D01*
X88943258Y-98613511D01*
X88884366Y-98833302D01*
X88884364Y-98833313D01*
X88864532Y-99059998D01*
X88864532Y-99060001D01*
X88884364Y-99286686D01*
X88884366Y-99286697D01*
X88943258Y-99506488D01*
X88943260Y-99506492D01*
X88943261Y-99506496D01*
X88946877Y-99514251D01*
X88946881Y-99514259D01*
X88957372Y-99583336D01*
X88928851Y-99647120D01*
X88870374Y-99685359D01*
X88800507Y-99685912D01*
X88741431Y-99648605D01*
X88732923Y-99637785D01*
X88630045Y-99490858D01*
X88469141Y-99329954D01*
X88282734Y-99199432D01*
X88282732Y-99199431D01*
X88076497Y-99103261D01*
X88076488Y-99103258D01*
X87856697Y-99044366D01*
X87856693Y-99044365D01*
X87856692Y-99044365D01*
X87856691Y-99044364D01*
X87856686Y-99044364D01*
X87630002Y-99024532D01*
X87629998Y-99024532D01*
X87403313Y-99044364D01*
X87403302Y-99044366D01*
X87183511Y-99103258D01*
X87183502Y-99103261D01*
X86977267Y-99199431D01*
X86977265Y-99199432D01*
X86790858Y-99329954D01*
X86629954Y-99490858D01*
X86499432Y-99677265D01*
X86499431Y-99677267D01*
X86403261Y-99883502D01*
X86403258Y-99883511D01*
X86344366Y-100103302D01*
X86344364Y-100103313D01*
X86324532Y-100329998D01*
X77870000Y-100329998D01*
X77870000Y-100277339D01*
X77842741Y-100175606D01*
X77790080Y-100084394D01*
X77785686Y-100080000D01*
X78748872Y-100080000D01*
X78748872Y-100079999D01*
X78696269Y-99883682D01*
X78696265Y-99883673D01*
X78600134Y-99677517D01*
X78469657Y-99491179D01*
X78308820Y-99330342D01*
X78122482Y-99199865D01*
X77916328Y-99103734D01*
X77720000Y-99051127D01*
X77720000Y-100014314D01*
X77715606Y-100009920D01*
X77624394Y-99957259D01*
X77522661Y-99930000D01*
X77417339Y-99930000D01*
X77315606Y-99957259D01*
X77224394Y-100009920D01*
X77220000Y-100014314D01*
X77220000Y-99051127D01*
X77023671Y-99103734D01*
X76817517Y-99199865D01*
X76631179Y-99330342D01*
X76470342Y-99491179D01*
X76339865Y-99677517D01*
X76312382Y-99736457D01*
X76266210Y-99788896D01*
X76199016Y-99808048D01*
X76132135Y-99787832D01*
X76087618Y-99736457D01*
X76060134Y-99677517D01*
X75929657Y-99491179D01*
X75768820Y-99330342D01*
X75582482Y-99199865D01*
X75376328Y-99103734D01*
X75180000Y-99051127D01*
X75180000Y-100014314D01*
X75175606Y-100009920D01*
X75084394Y-99957259D01*
X74982661Y-99930000D01*
X74877339Y-99930000D01*
X74775606Y-99957259D01*
X74684394Y-100009920D01*
X74680000Y-100014314D01*
X74680000Y-99051127D01*
X74483671Y-99103734D01*
X74277517Y-99199865D01*
X74091179Y-99330342D01*
X73930342Y-99491179D01*
X73799865Y-99677517D01*
X73703734Y-99883673D01*
X73703730Y-99883682D01*
X73651127Y-100079999D01*
X66049389Y-100079999D01*
X65996739Y-99883504D01*
X65900568Y-99677266D01*
X65802839Y-99537693D01*
X65770045Y-99490858D01*
X65609141Y-99329954D01*
X65422734Y-99199432D01*
X65422732Y-99199431D01*
X65216497Y-99103261D01*
X65216488Y-99103258D01*
X64996697Y-99044366D01*
X64996693Y-99044365D01*
X64996692Y-99044365D01*
X64996691Y-99044364D01*
X64996686Y-99044364D01*
X64770002Y-99024532D01*
X64769998Y-99024532D01*
X64543313Y-99044364D01*
X64543302Y-99044366D01*
X64323511Y-99103258D01*
X64323502Y-99103261D01*
X64117267Y-99199431D01*
X64117265Y-99199432D01*
X63930858Y-99329954D01*
X63769954Y-99490858D01*
X63667076Y-99637785D01*
X63612499Y-99681410D01*
X63543001Y-99688604D01*
X63480646Y-99657081D01*
X63445232Y-99596852D01*
X63448003Y-99527037D01*
X63453119Y-99514259D01*
X63456739Y-99506496D01*
X63515635Y-99286692D01*
X63535468Y-99060000D01*
X63515635Y-98833308D01*
X63456739Y-98613504D01*
X63360568Y-98407266D01*
X63230047Y-98220861D01*
X63230045Y-98220858D01*
X63069141Y-98059954D01*
X62882734Y-97929432D01*
X62882732Y-97929431D01*
X62676497Y-97833261D01*
X62676488Y-97833258D01*
X62456697Y-97774366D01*
X62456693Y-97774365D01*
X62456692Y-97774365D01*
X62456691Y-97774364D01*
X62456686Y-97774364D01*
X62230002Y-97754532D01*
X62229998Y-97754532D01*
X62003313Y-97774364D01*
X62003302Y-97774366D01*
X61783511Y-97833258D01*
X61783502Y-97833261D01*
X61577267Y-97929431D01*
X61577265Y-97929432D01*
X61390858Y-98059954D01*
X61229954Y-98220858D01*
X61099432Y-98407265D01*
X61099431Y-98407267D01*
X61003261Y-98613502D01*
X61003258Y-98613511D01*
X60944366Y-98833302D01*
X60944364Y-98833313D01*
X60924532Y-99059998D01*
X53375468Y-99059998D01*
X53355635Y-98833308D01*
X53296739Y-98613504D01*
X53200568Y-98407266D01*
X53070047Y-98220861D01*
X53070045Y-98220858D01*
X52909141Y-98059954D01*
X52722734Y-97929432D01*
X52722732Y-97929431D01*
X52516497Y-97833261D01*
X52516488Y-97833258D01*
X52296697Y-97774366D01*
X52296693Y-97774365D01*
X52296692Y-97774365D01*
X52296691Y-97774364D01*
X52296686Y-97774364D01*
X52070002Y-97754532D01*
X52069998Y-97754532D01*
X51843313Y-97774364D01*
X51843302Y-97774366D01*
X51623511Y-97833258D01*
X51623502Y-97833261D01*
X51417267Y-97929431D01*
X51417265Y-97929432D01*
X51230858Y-98059954D01*
X51069954Y-98220858D01*
X50939432Y-98407265D01*
X50939431Y-98407267D01*
X50843261Y-98613502D01*
X50843258Y-98613511D01*
X50784366Y-98833302D01*
X50784364Y-98833313D01*
X50764532Y-99059998D01*
X44650500Y-99059998D01*
X44650500Y-97749997D01*
X72355034Y-97749997D01*
X72355034Y-97750002D01*
X72374858Y-97976599D01*
X72374860Y-97976610D01*
X72433730Y-98196317D01*
X72433735Y-98196331D01*
X72529863Y-98402478D01*
X72580974Y-98475472D01*
X73260000Y-97796446D01*
X73260000Y-97802661D01*
X73287259Y-97904394D01*
X73339920Y-97995606D01*
X73414394Y-98070080D01*
X73505606Y-98122741D01*
X73607339Y-98150000D01*
X73613553Y-98150000D01*
X72934526Y-98829025D01*
X73007513Y-98880132D01*
X73007521Y-98880136D01*
X73213668Y-98976264D01*
X73213682Y-98976269D01*
X73433389Y-99035139D01*
X73433400Y-99035141D01*
X73659998Y-99054966D01*
X73660002Y-99054966D01*
X73886599Y-99035141D01*
X73886610Y-99035139D01*
X74106317Y-98976269D01*
X74106331Y-98976264D01*
X74312478Y-98880136D01*
X74385471Y-98829024D01*
X73706447Y-98150000D01*
X73712661Y-98150000D01*
X73814394Y-98122741D01*
X73905606Y-98070080D01*
X73980080Y-97995606D01*
X74032741Y-97904394D01*
X74060000Y-97802661D01*
X74060000Y-97796447D01*
X74739024Y-98475471D01*
X74790136Y-98402478D01*
X74886264Y-98196331D01*
X74886269Y-98196317D01*
X74945139Y-97976610D01*
X74945141Y-97976599D01*
X74964966Y-97750002D01*
X74964966Y-97749997D01*
X77435034Y-97749997D01*
X77435034Y-97750002D01*
X77454858Y-97976599D01*
X77454860Y-97976610D01*
X77513730Y-98196317D01*
X77513735Y-98196331D01*
X77609863Y-98402478D01*
X77660974Y-98475472D01*
X78340000Y-97796446D01*
X78340000Y-97802661D01*
X78367259Y-97904394D01*
X78419920Y-97995606D01*
X78494394Y-98070080D01*
X78585606Y-98122741D01*
X78687339Y-98150000D01*
X78693553Y-98150000D01*
X78014526Y-98829025D01*
X78087513Y-98880132D01*
X78087521Y-98880136D01*
X78293668Y-98976264D01*
X78293682Y-98976269D01*
X78513389Y-99035139D01*
X78513400Y-99035141D01*
X78739998Y-99054966D01*
X78740002Y-99054966D01*
X78966599Y-99035141D01*
X78966610Y-99035139D01*
X79186317Y-98976269D01*
X79186331Y-98976264D01*
X79392478Y-98880136D01*
X79465471Y-98829024D01*
X78786447Y-98150000D01*
X78792661Y-98150000D01*
X78894394Y-98122741D01*
X78985606Y-98070080D01*
X79060080Y-97995606D01*
X79112741Y-97904394D01*
X79140000Y-97802661D01*
X79140000Y-97796447D01*
X79819024Y-98475471D01*
X79870136Y-98402478D01*
X79966264Y-98196331D01*
X79966269Y-98196317D01*
X80025139Y-97976610D01*
X80025141Y-97976599D01*
X80044966Y-97750002D01*
X80044966Y-97749997D01*
X80025141Y-97523400D01*
X80025139Y-97523389D01*
X79966269Y-97303682D01*
X79966264Y-97303668D01*
X79870136Y-97097521D01*
X79870132Y-97097513D01*
X79819025Y-97024526D01*
X79140000Y-97703551D01*
X79140000Y-97697339D01*
X79112741Y-97595606D01*
X79060080Y-97504394D01*
X78985606Y-97429920D01*
X78894394Y-97377259D01*
X78792661Y-97350000D01*
X78786445Y-97350000D01*
X79465472Y-96670974D01*
X79392478Y-96619863D01*
X79186331Y-96523735D01*
X79186317Y-96523730D01*
X78966610Y-96464860D01*
X78966599Y-96464858D01*
X78740002Y-96445034D01*
X78739998Y-96445034D01*
X78513400Y-96464858D01*
X78513389Y-96464860D01*
X78293682Y-96523730D01*
X78293673Y-96523734D01*
X78087516Y-96619866D01*
X78087512Y-96619868D01*
X78014526Y-96670973D01*
X78014526Y-96670974D01*
X78693553Y-97350000D01*
X78687339Y-97350000D01*
X78585606Y-97377259D01*
X78494394Y-97429920D01*
X78419920Y-97504394D01*
X78367259Y-97595606D01*
X78340000Y-97697339D01*
X78340000Y-97703552D01*
X77660974Y-97024526D01*
X77660973Y-97024526D01*
X77609868Y-97097512D01*
X77609866Y-97097516D01*
X77513734Y-97303673D01*
X77513730Y-97303682D01*
X77454860Y-97523389D01*
X77454858Y-97523400D01*
X77435034Y-97749997D01*
X74964966Y-97749997D01*
X74945141Y-97523400D01*
X74945139Y-97523389D01*
X74886269Y-97303682D01*
X74886264Y-97303668D01*
X74790136Y-97097521D01*
X74790132Y-97097513D01*
X74739025Y-97024526D01*
X74060000Y-97703551D01*
X74060000Y-97697339D01*
X74032741Y-97595606D01*
X73980080Y-97504394D01*
X73905606Y-97429920D01*
X73814394Y-97377259D01*
X73712661Y-97350000D01*
X73706445Y-97350000D01*
X74385472Y-96670974D01*
X74312478Y-96619863D01*
X74106331Y-96523735D01*
X74106317Y-96523730D01*
X73886610Y-96464860D01*
X73886599Y-96464858D01*
X73660002Y-96445034D01*
X73659998Y-96445034D01*
X73433400Y-96464858D01*
X73433389Y-96464860D01*
X73213682Y-96523730D01*
X73213673Y-96523734D01*
X73007516Y-96619866D01*
X73007512Y-96619868D01*
X72934526Y-96670973D01*
X72934526Y-96670974D01*
X73613553Y-97350000D01*
X73607339Y-97350000D01*
X73505606Y-97377259D01*
X73414394Y-97429920D01*
X73339920Y-97504394D01*
X73287259Y-97595606D01*
X73260000Y-97697339D01*
X73260000Y-97703552D01*
X72580974Y-97024526D01*
X72580973Y-97024526D01*
X72529868Y-97097512D01*
X72529866Y-97097516D01*
X72433734Y-97303673D01*
X72433730Y-97303682D01*
X72374860Y-97523389D01*
X72374858Y-97523400D01*
X72355034Y-97749997D01*
X44650500Y-97749997D01*
X44650500Y-94999999D01*
X45711127Y-94999999D01*
X45711128Y-95000000D01*
X46674314Y-95000000D01*
X46669920Y-95004394D01*
X46617259Y-95095606D01*
X46590000Y-95197339D01*
X46590000Y-95302661D01*
X46617259Y-95404394D01*
X46669920Y-95495606D01*
X46674314Y-95500000D01*
X45711128Y-95500000D01*
X45763730Y-95696317D01*
X45763734Y-95696326D01*
X45859865Y-95902482D01*
X45990342Y-96088820D01*
X46151179Y-96249657D01*
X46337517Y-96380134D01*
X46543673Y-96476265D01*
X46543682Y-96476269D01*
X46739999Y-96528872D01*
X46740000Y-96528871D01*
X46740000Y-95565686D01*
X46744394Y-95570080D01*
X46835606Y-95622741D01*
X46937339Y-95650000D01*
X47042661Y-95650000D01*
X47144394Y-95622741D01*
X47235606Y-95570080D01*
X47240000Y-95565686D01*
X47240000Y-96528872D01*
X47436317Y-96476269D01*
X47436326Y-96476265D01*
X47642482Y-96380134D01*
X47828820Y-96249657D01*
X47989657Y-96088820D01*
X48120134Y-95902482D01*
X48216265Y-95696326D01*
X48216269Y-95696317D01*
X48268872Y-95500000D01*
X47305686Y-95500000D01*
X47310080Y-95495606D01*
X47362741Y-95404394D01*
X47390000Y-95302661D01*
X47390000Y-95249998D01*
X55844532Y-95249998D01*
X55844532Y-95250001D01*
X55864364Y-95476686D01*
X55864366Y-95476697D01*
X55923258Y-95696488D01*
X55923261Y-95696497D01*
X56019431Y-95902732D01*
X56019432Y-95902734D01*
X56149954Y-96089141D01*
X56310858Y-96250045D01*
X56310861Y-96250047D01*
X56497266Y-96380568D01*
X56703504Y-96476739D01*
X56923308Y-96535635D01*
X57085230Y-96549801D01*
X57149998Y-96555468D01*
X57150000Y-96555468D01*
X57150002Y-96555468D01*
X57206673Y-96550509D01*
X57376692Y-96535635D01*
X57596496Y-96476739D01*
X57802734Y-96380568D01*
X57989139Y-96250047D01*
X58150047Y-96089139D01*
X58280568Y-95902734D01*
X58307618Y-95844724D01*
X58353790Y-95792285D01*
X58420983Y-95773133D01*
X58487865Y-95793348D01*
X58532382Y-95844725D01*
X58559429Y-95902728D01*
X58559432Y-95902734D01*
X58689954Y-96089141D01*
X58850858Y-96250045D01*
X58850861Y-96250047D01*
X59037266Y-96380568D01*
X59243504Y-96476739D01*
X59463308Y-96535635D01*
X59625230Y-96549801D01*
X59689998Y-96555468D01*
X59690000Y-96555468D01*
X59690002Y-96555468D01*
X59746673Y-96550509D01*
X59916692Y-96535635D01*
X60136496Y-96476739D01*
X60342734Y-96380568D01*
X60529139Y-96250047D01*
X60690047Y-96089139D01*
X60820568Y-95902734D01*
X60916739Y-95696496D01*
X60975635Y-95476692D01*
X60995468Y-95250000D01*
X60975635Y-95023308D01*
X60916739Y-94803504D01*
X60820568Y-94597266D01*
X60690047Y-94410861D01*
X60690045Y-94410858D01*
X60529141Y-94249954D01*
X60342734Y-94119432D01*
X60342732Y-94119431D01*
X60136497Y-94023261D01*
X60136488Y-94023258D01*
X59916697Y-93964366D01*
X59916693Y-93964365D01*
X59916692Y-93964365D01*
X59916691Y-93964364D01*
X59916686Y-93964364D01*
X59690002Y-93944532D01*
X59689998Y-93944532D01*
X59463313Y-93964364D01*
X59463302Y-93964366D01*
X59243511Y-94023258D01*
X59243502Y-94023261D01*
X59037267Y-94119431D01*
X59037265Y-94119432D01*
X58850858Y-94249954D01*
X58689954Y-94410858D01*
X58559432Y-94597265D01*
X58559431Y-94597267D01*
X58532382Y-94655275D01*
X58486209Y-94707714D01*
X58419016Y-94726866D01*
X58352135Y-94706650D01*
X58307618Y-94655275D01*
X58282838Y-94602135D01*
X58280568Y-94597266D01*
X58150047Y-94410861D01*
X58150045Y-94410858D01*
X57989141Y-94249954D01*
X57802734Y-94119432D01*
X57802732Y-94119431D01*
X57596497Y-94023261D01*
X57596488Y-94023258D01*
X57376697Y-93964366D01*
X57376693Y-93964365D01*
X57376692Y-93964365D01*
X57376691Y-93964364D01*
X57376686Y-93964364D01*
X57150002Y-93944532D01*
X57149998Y-93944532D01*
X56923313Y-93964364D01*
X56923302Y-93964366D01*
X56703511Y-94023258D01*
X56703502Y-94023261D01*
X56497267Y-94119431D01*
X56497265Y-94119432D01*
X56310858Y-94249954D01*
X56149954Y-94410858D01*
X56019432Y-94597265D01*
X56019431Y-94597267D01*
X55923261Y-94803502D01*
X55923258Y-94803511D01*
X55864366Y-95023302D01*
X55864364Y-95023313D01*
X55844532Y-95249998D01*
X47390000Y-95249998D01*
X47390000Y-95197339D01*
X47362741Y-95095606D01*
X47310080Y-95004394D01*
X47305686Y-95000000D01*
X48268872Y-95000000D01*
X48268872Y-94999999D01*
X48216269Y-94803682D01*
X48216265Y-94803673D01*
X48120134Y-94597517D01*
X47989657Y-94411179D01*
X47828820Y-94250342D01*
X47642482Y-94119865D01*
X47436328Y-94023734D01*
X47240000Y-93971127D01*
X47240000Y-94934314D01*
X47235606Y-94929920D01*
X47144394Y-94877259D01*
X47042661Y-94850000D01*
X46937339Y-94850000D01*
X46835606Y-94877259D01*
X46744394Y-94929920D01*
X46740000Y-94934314D01*
X46740000Y-93971127D01*
X46543671Y-94023734D01*
X46337517Y-94119865D01*
X46151179Y-94250342D01*
X45990342Y-94411179D01*
X45859865Y-94597517D01*
X45763734Y-94803673D01*
X45763730Y-94803682D01*
X45711127Y-94999999D01*
X44650500Y-94999999D01*
X44650500Y-91239049D01*
X44670185Y-91172010D01*
X44722989Y-91126255D01*
X44792147Y-91116311D01*
X44855703Y-91145336D01*
X44862181Y-91151368D01*
X44880858Y-91170045D01*
X44880861Y-91170047D01*
X45067266Y-91300568D01*
X45273504Y-91396739D01*
X45493308Y-91455635D01*
X45655230Y-91469801D01*
X45719998Y-91475468D01*
X45720000Y-91475468D01*
X45720002Y-91475468D01*
X45776673Y-91470509D01*
X45946692Y-91455635D01*
X46166496Y-91396739D01*
X46372734Y-91300568D01*
X46559139Y-91170047D01*
X46720047Y-91009139D01*
X46850568Y-90822734D01*
X46946739Y-90616496D01*
X47005635Y-90396692D01*
X47025468Y-90170000D01*
X47005635Y-89943308D01*
X46946739Y-89723504D01*
X46850568Y-89517266D01*
X46720047Y-89330861D01*
X46720045Y-89330858D01*
X46559141Y-89169954D01*
X46372734Y-89039432D01*
X46372732Y-89039431D01*
X46166497Y-88943261D01*
X46166488Y-88943258D01*
X45946697Y-88884366D01*
X45946693Y-88884365D01*
X45946692Y-88884365D01*
X45946691Y-88884364D01*
X45946686Y-88884364D01*
X45720002Y-88864532D01*
X45719998Y-88864532D01*
X45493313Y-88884364D01*
X45493302Y-88884366D01*
X45273511Y-88943258D01*
X45273502Y-88943261D01*
X45067267Y-89039431D01*
X45067265Y-89039432D01*
X44880858Y-89169954D01*
X44862181Y-89188632D01*
X44800858Y-89222117D01*
X44731166Y-89217133D01*
X44675233Y-89175261D01*
X44650816Y-89109797D01*
X44650500Y-89100951D01*
X44650500Y-86159049D01*
X44670185Y-86092010D01*
X44722989Y-86046255D01*
X44792147Y-86036311D01*
X44855703Y-86065336D01*
X44862181Y-86071368D01*
X44880858Y-86090045D01*
X44880861Y-86090047D01*
X45067266Y-86220568D01*
X45273504Y-86316739D01*
X45493308Y-86375635D01*
X45655230Y-86389801D01*
X45719998Y-86395468D01*
X45720000Y-86395468D01*
X45720002Y-86395468D01*
X45776673Y-86390509D01*
X45946692Y-86375635D01*
X46166496Y-86316739D01*
X46372734Y-86220568D01*
X46559139Y-86090047D01*
X46720047Y-85929139D01*
X46850568Y-85742734D01*
X46946739Y-85536496D01*
X47005635Y-85316692D01*
X47025468Y-85090000D01*
X47005635Y-84863308D01*
X46946739Y-84643504D01*
X46850568Y-84437266D01*
X46720047Y-84250861D01*
X46720045Y-84250858D01*
X46559141Y-84089954D01*
X46372734Y-83959432D01*
X46372732Y-83959431D01*
X46166497Y-83863261D01*
X46166488Y-83863258D01*
X45946697Y-83804366D01*
X45946693Y-83804365D01*
X45946692Y-83804365D01*
X45946691Y-83804364D01*
X45946686Y-83804364D01*
X45720002Y-83784532D01*
X45719998Y-83784532D01*
X45493313Y-83804364D01*
X45493302Y-83804366D01*
X45273511Y-83863258D01*
X45273502Y-83863261D01*
X45067267Y-83959431D01*
X45067265Y-83959432D01*
X44880858Y-84089954D01*
X44862181Y-84108632D01*
X44800858Y-84142117D01*
X44731166Y-84137133D01*
X44675233Y-84095261D01*
X44650816Y-84029797D01*
X44650500Y-84020951D01*
X44650500Y-81079049D01*
X44670185Y-81012010D01*
X44722989Y-80966255D01*
X44792147Y-80956311D01*
X44855703Y-80985336D01*
X44862181Y-80991368D01*
X44880858Y-81010045D01*
X44880861Y-81010047D01*
X45067266Y-81140568D01*
X45273504Y-81236739D01*
X45493308Y-81295635D01*
X45655230Y-81309801D01*
X45719998Y-81315468D01*
X45720000Y-81315468D01*
X45720002Y-81315468D01*
X45776673Y-81310509D01*
X45946692Y-81295635D01*
X46166496Y-81236739D01*
X46372734Y-81140568D01*
X46559139Y-81010047D01*
X46720047Y-80849139D01*
X46850568Y-80662734D01*
X46946739Y-80456496D01*
X47005635Y-80236692D01*
X47025468Y-80010000D01*
X47005635Y-79783308D01*
X46946739Y-79563504D01*
X46850568Y-79357266D01*
X46720047Y-79170861D01*
X46720045Y-79170858D01*
X46559141Y-79009954D01*
X46372734Y-78879432D01*
X46372732Y-78879431D01*
X46166497Y-78783261D01*
X46166488Y-78783258D01*
X45946697Y-78724366D01*
X45946693Y-78724365D01*
X45946692Y-78724365D01*
X45946691Y-78724364D01*
X45946686Y-78724364D01*
X45720002Y-78704532D01*
X45719998Y-78704532D01*
X45493313Y-78724364D01*
X45493302Y-78724366D01*
X45273511Y-78783258D01*
X45273502Y-78783261D01*
X45067267Y-78879431D01*
X45067265Y-78879432D01*
X44880858Y-79009954D01*
X44862181Y-79028632D01*
X44800858Y-79062117D01*
X44731166Y-79057133D01*
X44675233Y-79015261D01*
X44650816Y-78949797D01*
X44650500Y-78940951D01*
X44650500Y-75999049D01*
X44670185Y-75932010D01*
X44722989Y-75886255D01*
X44792147Y-75876311D01*
X44855703Y-75905336D01*
X44862181Y-75911368D01*
X44880858Y-75930045D01*
X44880861Y-75930047D01*
X45067266Y-76060568D01*
X45273504Y-76156739D01*
X45493308Y-76215635D01*
X45655230Y-76229801D01*
X45719998Y-76235468D01*
X45720000Y-76235468D01*
X45720002Y-76235468D01*
X45776673Y-76230509D01*
X45946692Y-76215635D01*
X46166496Y-76156739D01*
X46372734Y-76060568D01*
X46559139Y-75930047D01*
X46720047Y-75769139D01*
X46850568Y-75582734D01*
X46946739Y-75376496D01*
X47005635Y-75156692D01*
X47025468Y-74930000D01*
X47005635Y-74703308D01*
X46946739Y-74483504D01*
X46850568Y-74277266D01*
X46720047Y-74090861D01*
X46720045Y-74090858D01*
X46559141Y-73929954D01*
X46372734Y-73799432D01*
X46372732Y-73799431D01*
X46166497Y-73703261D01*
X46166488Y-73703258D01*
X45946697Y-73644366D01*
X45946693Y-73644365D01*
X45946692Y-73644365D01*
X45946691Y-73644364D01*
X45946686Y-73644364D01*
X45720002Y-73624532D01*
X45719998Y-73624532D01*
X45493313Y-73644364D01*
X45493302Y-73644366D01*
X45273511Y-73703258D01*
X45273502Y-73703261D01*
X45067267Y-73799431D01*
X45067265Y-73799432D01*
X44880858Y-73929954D01*
X44862181Y-73948632D01*
X44800858Y-73982117D01*
X44731166Y-73977133D01*
X44675233Y-73935261D01*
X44650816Y-73869797D01*
X44650500Y-73860951D01*
X44650500Y-70919049D01*
X44670185Y-70852010D01*
X44722989Y-70806255D01*
X44792147Y-70796311D01*
X44855703Y-70825336D01*
X44862181Y-70831368D01*
X44880858Y-70850045D01*
X44880861Y-70850047D01*
X45067266Y-70980568D01*
X45273504Y-71076739D01*
X45493308Y-71135635D01*
X45655230Y-71149801D01*
X45719998Y-71155468D01*
X45720000Y-71155468D01*
X45720002Y-71155468D01*
X45776673Y-71150509D01*
X45946692Y-71135635D01*
X46166496Y-71076739D01*
X46372734Y-70980568D01*
X46559139Y-70850047D01*
X46720047Y-70689139D01*
X46850568Y-70502734D01*
X46946739Y-70296496D01*
X47005635Y-70076692D01*
X47025468Y-69850000D01*
X47025468Y-69849998D01*
X54574532Y-69849998D01*
X54574532Y-69850001D01*
X54594364Y-70076686D01*
X54594366Y-70076697D01*
X54653258Y-70296488D01*
X54653261Y-70296497D01*
X54749431Y-70502732D01*
X54749432Y-70502734D01*
X54879954Y-70689141D01*
X55040858Y-70850045D01*
X55040861Y-70850047D01*
X55227266Y-70980568D01*
X55433504Y-71076739D01*
X55653308Y-71135635D01*
X55815230Y-71149801D01*
X55879998Y-71155468D01*
X55880000Y-71155468D01*
X55880002Y-71155468D01*
X55936673Y-71150509D01*
X56106692Y-71135635D01*
X56326496Y-71076739D01*
X56532734Y-70980568D01*
X56719139Y-70850047D01*
X56880047Y-70689139D01*
X57010568Y-70502734D01*
X57106739Y-70296496D01*
X57150726Y-70132331D01*
X57187089Y-70072674D01*
X57249936Y-70042144D01*
X57319312Y-70050438D01*
X57373190Y-70094923D01*
X57394465Y-70161475D01*
X57394500Y-70164427D01*
X57394500Y-70647870D01*
X57394501Y-70647876D01*
X57400908Y-70707483D01*
X57451202Y-70842328D01*
X57451206Y-70842335D01*
X57537452Y-70957544D01*
X57537453Y-70957545D01*
X57552310Y-70968667D01*
X57594182Y-71024600D01*
X57602000Y-71067934D01*
X57602000Y-73712064D01*
X57582315Y-73779103D01*
X57552314Y-73811329D01*
X57537456Y-73822451D01*
X57537451Y-73822457D01*
X57451206Y-73937664D01*
X57451202Y-73937671D01*
X57400908Y-74072517D01*
X57394501Y-74132116D01*
X57394501Y-74132123D01*
X57394500Y-74132135D01*
X57394500Y-74615570D01*
X57374815Y-74682609D01*
X57322011Y-74728364D01*
X57252853Y-74738308D01*
X57189297Y-74709283D01*
X57151523Y-74650505D01*
X57150725Y-74647663D01*
X57106741Y-74483511D01*
X57106738Y-74483502D01*
X57010568Y-74277267D01*
X57010567Y-74277265D01*
X56880045Y-74090858D01*
X56719141Y-73929954D01*
X56532734Y-73799432D01*
X56532732Y-73799431D01*
X56326497Y-73703261D01*
X56326488Y-73703258D01*
X56106697Y-73644366D01*
X56106693Y-73644365D01*
X56106692Y-73644365D01*
X56106691Y-73644364D01*
X56106686Y-73644364D01*
X55880002Y-73624532D01*
X55879998Y-73624532D01*
X55653313Y-73644364D01*
X55653302Y-73644366D01*
X55433511Y-73703258D01*
X55433502Y-73703261D01*
X55227267Y-73799431D01*
X55227265Y-73799432D01*
X55040858Y-73929954D01*
X54879954Y-74090858D01*
X54749432Y-74277265D01*
X54749431Y-74277267D01*
X54653261Y-74483502D01*
X54653258Y-74483511D01*
X54594366Y-74703302D01*
X54594364Y-74703313D01*
X54574532Y-74929998D01*
X54574532Y-74930001D01*
X54594364Y-75156686D01*
X54594366Y-75156697D01*
X54653258Y-75376488D01*
X54653261Y-75376497D01*
X54749431Y-75582732D01*
X54749432Y-75582734D01*
X54879954Y-75769141D01*
X55040858Y-75930045D01*
X55040861Y-75930047D01*
X55227266Y-76060568D01*
X55433504Y-76156739D01*
X55653308Y-76215635D01*
X55815230Y-76229801D01*
X55879998Y-76235468D01*
X55880000Y-76235468D01*
X55880002Y-76235468D01*
X55936673Y-76230509D01*
X56106692Y-76215635D01*
X56326496Y-76156739D01*
X56532734Y-76060568D01*
X56719139Y-75930047D01*
X56880047Y-75769139D01*
X57010568Y-75582734D01*
X57106739Y-75376496D01*
X57150726Y-75212331D01*
X57187089Y-75152674D01*
X57249936Y-75122144D01*
X57319312Y-75130438D01*
X57373190Y-75174923D01*
X57394465Y-75241475D01*
X57394500Y-75244427D01*
X57394500Y-75727870D01*
X57394501Y-75727876D01*
X57400908Y-75787483D01*
X57451202Y-75922328D01*
X57451206Y-75922335D01*
X57537452Y-76037544D01*
X57537453Y-76037545D01*
X57552310Y-76048667D01*
X57594182Y-76104600D01*
X57602000Y-76147934D01*
X57602000Y-78792064D01*
X57582315Y-78859103D01*
X57552314Y-78891329D01*
X57537456Y-78902451D01*
X57537451Y-78902457D01*
X57451206Y-79017664D01*
X57451202Y-79017671D01*
X57400908Y-79152517D01*
X57394501Y-79212116D01*
X57394501Y-79212123D01*
X57394500Y-79212135D01*
X57394500Y-79695570D01*
X57374815Y-79762609D01*
X57322011Y-79808364D01*
X57252853Y-79818308D01*
X57189297Y-79789283D01*
X57151523Y-79730505D01*
X57150725Y-79727663D01*
X57106741Y-79563511D01*
X57106738Y-79563502D01*
X57010568Y-79357267D01*
X57010567Y-79357265D01*
X56880045Y-79170858D01*
X56719141Y-79009954D01*
X56532734Y-78879432D01*
X56532732Y-78879431D01*
X56326497Y-78783261D01*
X56326488Y-78783258D01*
X56106697Y-78724366D01*
X56106693Y-78724365D01*
X56106692Y-78724365D01*
X56106691Y-78724364D01*
X56106686Y-78724364D01*
X55880002Y-78704532D01*
X55879998Y-78704532D01*
X55653313Y-78724364D01*
X55653302Y-78724366D01*
X55433511Y-78783258D01*
X55433502Y-78783261D01*
X55227267Y-78879431D01*
X55227265Y-78879432D01*
X55040858Y-79009954D01*
X54879954Y-79170858D01*
X54749432Y-79357265D01*
X54749431Y-79357267D01*
X54653261Y-79563502D01*
X54653258Y-79563511D01*
X54594366Y-79783302D01*
X54594364Y-79783313D01*
X54574532Y-80009998D01*
X54574532Y-80010001D01*
X54594364Y-80236686D01*
X54594366Y-80236697D01*
X54653258Y-80456488D01*
X54653261Y-80456497D01*
X54749431Y-80662732D01*
X54749432Y-80662734D01*
X54879954Y-80849141D01*
X55040858Y-81010045D01*
X55040861Y-81010047D01*
X55227266Y-81140568D01*
X55433504Y-81236739D01*
X55653308Y-81295635D01*
X55815230Y-81309801D01*
X55879998Y-81315468D01*
X55880000Y-81315468D01*
X55880002Y-81315468D01*
X55936673Y-81310509D01*
X56106692Y-81295635D01*
X56326496Y-81236739D01*
X56532734Y-81140568D01*
X56719139Y-81010047D01*
X56880047Y-80849139D01*
X57010568Y-80662734D01*
X57106739Y-80456496D01*
X57150726Y-80292331D01*
X57187089Y-80232674D01*
X57249936Y-80202144D01*
X57319312Y-80210438D01*
X57373190Y-80254923D01*
X57394465Y-80321475D01*
X57394500Y-80324427D01*
X57394500Y-80807870D01*
X57394501Y-80807876D01*
X57400908Y-80867483D01*
X57451202Y-81002328D01*
X57451206Y-81002335D01*
X57537452Y-81117544D01*
X57537453Y-81117545D01*
X57552310Y-81128667D01*
X57594182Y-81184600D01*
X57602000Y-81227934D01*
X57602000Y-83872064D01*
X57582315Y-83939103D01*
X57552314Y-83971329D01*
X57537456Y-83982451D01*
X57537451Y-83982457D01*
X57451206Y-84097664D01*
X57451202Y-84097671D01*
X57400908Y-84232517D01*
X57394501Y-84292116D01*
X57394501Y-84292123D01*
X57394500Y-84292135D01*
X57394500Y-84775570D01*
X57374815Y-84842609D01*
X57322011Y-84888364D01*
X57252853Y-84898308D01*
X57189297Y-84869283D01*
X57151523Y-84810505D01*
X57150725Y-84807663D01*
X57106741Y-84643511D01*
X57106738Y-84643502D01*
X57010568Y-84437267D01*
X57010567Y-84437265D01*
X56880045Y-84250858D01*
X56719141Y-84089954D01*
X56532734Y-83959432D01*
X56532732Y-83959431D01*
X56326497Y-83863261D01*
X56326488Y-83863258D01*
X56106697Y-83804366D01*
X56106693Y-83804365D01*
X56106692Y-83804365D01*
X56106691Y-83804364D01*
X56106686Y-83804364D01*
X55880002Y-83784532D01*
X55879998Y-83784532D01*
X55653313Y-83804364D01*
X55653302Y-83804366D01*
X55433511Y-83863258D01*
X55433502Y-83863261D01*
X55227267Y-83959431D01*
X55227265Y-83959432D01*
X55040858Y-84089954D01*
X54879954Y-84250858D01*
X54749432Y-84437265D01*
X54749431Y-84437267D01*
X54653261Y-84643502D01*
X54653258Y-84643511D01*
X54594366Y-84863302D01*
X54594364Y-84863313D01*
X54574532Y-85089998D01*
X54574532Y-85090001D01*
X54594364Y-85316686D01*
X54594366Y-85316697D01*
X54653258Y-85536488D01*
X54653261Y-85536497D01*
X54749431Y-85742732D01*
X54749432Y-85742734D01*
X54879954Y-85929141D01*
X55040858Y-86090045D01*
X55040861Y-86090047D01*
X55227266Y-86220568D01*
X55433504Y-86316739D01*
X55653308Y-86375635D01*
X55815230Y-86389801D01*
X55879998Y-86395468D01*
X55880000Y-86395468D01*
X55880002Y-86395468D01*
X55936673Y-86390509D01*
X56106692Y-86375635D01*
X56326496Y-86316739D01*
X56532734Y-86220568D01*
X56719139Y-86090047D01*
X56880047Y-85929139D01*
X57010568Y-85742734D01*
X57106739Y-85536496D01*
X57150726Y-85372331D01*
X57187089Y-85312674D01*
X57249936Y-85282144D01*
X57319312Y-85290438D01*
X57373190Y-85334923D01*
X57394465Y-85401475D01*
X57394500Y-85404427D01*
X57394500Y-85887870D01*
X57394501Y-85887876D01*
X57400908Y-85947483D01*
X57451202Y-86082328D01*
X57451206Y-86082335D01*
X57537452Y-86197544D01*
X57537455Y-86197547D01*
X57652664Y-86283793D01*
X57652671Y-86283797D01*
X57693538Y-86299039D01*
X57787517Y-86334091D01*
X57847127Y-86340500D01*
X58253312Y-86340499D01*
X58320350Y-86360183D01*
X58366105Y-86412987D01*
X58376049Y-86482146D01*
X58347024Y-86545702D01*
X58340992Y-86552180D01*
X56057568Y-88835603D01*
X55996245Y-88869088D01*
X55959080Y-88871450D01*
X55880002Y-88864532D01*
X55879998Y-88864532D01*
X55653313Y-88884364D01*
X55653302Y-88884366D01*
X55433511Y-88943258D01*
X55433502Y-88943261D01*
X55227267Y-89039431D01*
X55227265Y-89039432D01*
X55040858Y-89169954D01*
X54879954Y-89330858D01*
X54749432Y-89517265D01*
X54749431Y-89517267D01*
X54653261Y-89723502D01*
X54653258Y-89723511D01*
X54594366Y-89943302D01*
X54594364Y-89943313D01*
X54574532Y-90169998D01*
X54574532Y-90170001D01*
X54594364Y-90396686D01*
X54594366Y-90396697D01*
X54653258Y-90616488D01*
X54653261Y-90616497D01*
X54749431Y-90822732D01*
X54749432Y-90822734D01*
X54879954Y-91009141D01*
X55040858Y-91170045D01*
X55040861Y-91170047D01*
X55227266Y-91300568D01*
X55433504Y-91396739D01*
X55653308Y-91455635D01*
X55815230Y-91469801D01*
X55879998Y-91475468D01*
X55880000Y-91475468D01*
X55880002Y-91475468D01*
X55936673Y-91470509D01*
X56106692Y-91455635D01*
X56326496Y-91396739D01*
X56532734Y-91300568D01*
X56719139Y-91170047D01*
X56880047Y-91009139D01*
X57010568Y-90822734D01*
X57106739Y-90616496D01*
X57165635Y-90396692D01*
X57185468Y-90170000D01*
X57185468Y-90169998D01*
X62194532Y-90169998D01*
X62194532Y-90170001D01*
X62214364Y-90396686D01*
X62214366Y-90396697D01*
X62273258Y-90616488D01*
X62273261Y-90616497D01*
X62369431Y-90822732D01*
X62369432Y-90822734D01*
X62499954Y-91009141D01*
X62660858Y-91170045D01*
X62660861Y-91170047D01*
X62847266Y-91300568D01*
X63053504Y-91396739D01*
X63273308Y-91455635D01*
X63435230Y-91469801D01*
X63499998Y-91475468D01*
X63500000Y-91475468D01*
X63500002Y-91475468D01*
X63556673Y-91470509D01*
X63726692Y-91455635D01*
X63946496Y-91396739D01*
X64152734Y-91300568D01*
X64339139Y-91170047D01*
X64500047Y-91009139D01*
X64630568Y-90822734D01*
X64726739Y-90616496D01*
X64785635Y-90396692D01*
X64805468Y-90170000D01*
X64785635Y-89943308D01*
X64726739Y-89723504D01*
X64630568Y-89517266D01*
X64500047Y-89330861D01*
X64500045Y-89330858D01*
X64339141Y-89169954D01*
X64152734Y-89039432D01*
X64152732Y-89039431D01*
X63946497Y-88943261D01*
X63946488Y-88943258D01*
X63726697Y-88884366D01*
X63726693Y-88884365D01*
X63726692Y-88884365D01*
X63726691Y-88884364D01*
X63726686Y-88884364D01*
X63500002Y-88864532D01*
X63499998Y-88864532D01*
X63273313Y-88884364D01*
X63273302Y-88884366D01*
X63053511Y-88943258D01*
X63053502Y-88943261D01*
X62847267Y-89039431D01*
X62847265Y-89039432D01*
X62660858Y-89169954D01*
X62499954Y-89330858D01*
X62369432Y-89517265D01*
X62369431Y-89517267D01*
X62273261Y-89723502D01*
X62273258Y-89723511D01*
X62214366Y-89943302D01*
X62214364Y-89943313D01*
X62194532Y-90169998D01*
X57185468Y-90169998D01*
X57178548Y-90090916D01*
X57192314Y-90022420D01*
X57214392Y-89992433D01*
X60201235Y-87005589D01*
X60201240Y-87005586D01*
X60211443Y-86995382D01*
X60211445Y-86995382D01*
X60325382Y-86881445D01*
X60325618Y-86881090D01*
X60361236Y-86827784D01*
X60361238Y-86827780D01*
X60414903Y-86747468D01*
X60476565Y-86598602D01*
X60508000Y-86440565D01*
X60508000Y-86421777D01*
X60527685Y-86354738D01*
X60580489Y-86308983D01*
X60649647Y-86299039D01*
X60656191Y-86300160D01*
X60858992Y-86340499D01*
X60858996Y-86340500D01*
X60858997Y-86340500D01*
X61061004Y-86340500D01*
X61061005Y-86340499D01*
X61259127Y-86301091D01*
X61445756Y-86223786D01*
X61613718Y-86111558D01*
X61756558Y-85968718D01*
X61868786Y-85800756D01*
X61946091Y-85614127D01*
X61985500Y-85416003D01*
X61985500Y-85404429D01*
X62005185Y-85337391D01*
X62057989Y-85291636D01*
X62127147Y-85281692D01*
X62190703Y-85310717D01*
X62228477Y-85369495D01*
X62229275Y-85372337D01*
X62273258Y-85536488D01*
X62273261Y-85536497D01*
X62369431Y-85742732D01*
X62369432Y-85742734D01*
X62499954Y-85929141D01*
X62660858Y-86090045D01*
X62660861Y-86090047D01*
X62847266Y-86220568D01*
X63053504Y-86316739D01*
X63273308Y-86375635D01*
X63435230Y-86389801D01*
X63499998Y-86395468D01*
X63500000Y-86395468D01*
X63500002Y-86395468D01*
X63556673Y-86390509D01*
X63726692Y-86375635D01*
X63946496Y-86316739D01*
X64152734Y-86220568D01*
X64339139Y-86090047D01*
X64500047Y-85929139D01*
X64630568Y-85742734D01*
X64726739Y-85536496D01*
X64785635Y-85316692D01*
X64805468Y-85090000D01*
X64785635Y-84863308D01*
X64726739Y-84643504D01*
X64630568Y-84437266D01*
X64500047Y-84250861D01*
X64500045Y-84250858D01*
X64339141Y-84089954D01*
X64152734Y-83959432D01*
X64152732Y-83959431D01*
X63946497Y-83863261D01*
X63946488Y-83863258D01*
X63726697Y-83804366D01*
X63726693Y-83804365D01*
X63726692Y-83804365D01*
X63726691Y-83804364D01*
X63726686Y-83804364D01*
X63500002Y-83784532D01*
X63499998Y-83784532D01*
X63273313Y-83804364D01*
X63273302Y-83804366D01*
X63053511Y-83863258D01*
X63053502Y-83863261D01*
X62847267Y-83959431D01*
X62847265Y-83959432D01*
X62660858Y-84089954D01*
X62499954Y-84250858D01*
X62369432Y-84437265D01*
X62369431Y-84437267D01*
X62273261Y-84643502D01*
X62273258Y-84643511D01*
X62229275Y-84807662D01*
X62192910Y-84867323D01*
X62130063Y-84897852D01*
X62060688Y-84889557D01*
X62006810Y-84845072D01*
X61985535Y-84778520D01*
X61985500Y-84775569D01*
X61985500Y-84763996D01*
X61985499Y-84763992D01*
X61961534Y-84643511D01*
X61946091Y-84565873D01*
X61868786Y-84379244D01*
X61868784Y-84379241D01*
X61868782Y-84379237D01*
X61756558Y-84211281D01*
X61613718Y-84068441D01*
X61445762Y-83956217D01*
X61445752Y-83956212D01*
X61259127Y-83878909D01*
X61259119Y-83878907D01*
X61061007Y-83839500D01*
X61061003Y-83839500D01*
X60858997Y-83839500D01*
X60858992Y-83839500D01*
X60656191Y-83879839D01*
X60586599Y-83873612D01*
X60531422Y-83830748D01*
X60508178Y-83764858D01*
X60508000Y-83758222D01*
X60508000Y-81341777D01*
X60527685Y-81274738D01*
X60580489Y-81228983D01*
X60649647Y-81219039D01*
X60656191Y-81220160D01*
X60858992Y-81260499D01*
X60858996Y-81260500D01*
X60858997Y-81260500D01*
X61061004Y-81260500D01*
X61061005Y-81260499D01*
X61259127Y-81221091D01*
X61445756Y-81143786D01*
X61613718Y-81031558D01*
X61756558Y-80888718D01*
X61868786Y-80720756D01*
X61946091Y-80534127D01*
X61985500Y-80336003D01*
X61985500Y-80324429D01*
X62005185Y-80257391D01*
X62057989Y-80211636D01*
X62127147Y-80201692D01*
X62190703Y-80230717D01*
X62228477Y-80289495D01*
X62229275Y-80292337D01*
X62273258Y-80456488D01*
X62273261Y-80456497D01*
X62369431Y-80662732D01*
X62369432Y-80662734D01*
X62499954Y-80849141D01*
X62660858Y-81010045D01*
X62660861Y-81010047D01*
X62847266Y-81140568D01*
X63053504Y-81236739D01*
X63273308Y-81295635D01*
X63435230Y-81309801D01*
X63499998Y-81315468D01*
X63500000Y-81315468D01*
X63500002Y-81315468D01*
X63556673Y-81310509D01*
X63726692Y-81295635D01*
X63946496Y-81236739D01*
X64152734Y-81140568D01*
X64339139Y-81010047D01*
X64500047Y-80849139D01*
X64630568Y-80662734D01*
X64726739Y-80456496D01*
X64785635Y-80236692D01*
X64805468Y-80010000D01*
X64785635Y-79783308D01*
X64726739Y-79563504D01*
X64630568Y-79357266D01*
X64500047Y-79170861D01*
X64500045Y-79170858D01*
X64339141Y-79009954D01*
X64152734Y-78879432D01*
X64152732Y-78879431D01*
X63946497Y-78783261D01*
X63946488Y-78783258D01*
X63726697Y-78724366D01*
X63726693Y-78724365D01*
X63726692Y-78724365D01*
X63726691Y-78724364D01*
X63726686Y-78724364D01*
X63500002Y-78704532D01*
X63499998Y-78704532D01*
X63273313Y-78724364D01*
X63273302Y-78724366D01*
X63053511Y-78783258D01*
X63053502Y-78783261D01*
X62847267Y-78879431D01*
X62847265Y-78879432D01*
X62660858Y-79009954D01*
X62499954Y-79170858D01*
X62369432Y-79357265D01*
X62369431Y-79357267D01*
X62273261Y-79563502D01*
X62273258Y-79563511D01*
X62229275Y-79727662D01*
X62192910Y-79787323D01*
X62130063Y-79817852D01*
X62060688Y-79809557D01*
X62006810Y-79765072D01*
X61985535Y-79698520D01*
X61985500Y-79695569D01*
X61985500Y-79683996D01*
X61985499Y-79683992D01*
X61961534Y-79563511D01*
X61946091Y-79485873D01*
X61868786Y-79299244D01*
X61868784Y-79299241D01*
X61868782Y-79299237D01*
X61756558Y-79131281D01*
X61613718Y-78988441D01*
X61445762Y-78876217D01*
X61445752Y-78876212D01*
X61259127Y-78798909D01*
X61259119Y-78798907D01*
X61061007Y-78759500D01*
X61061003Y-78759500D01*
X60858997Y-78759500D01*
X60858992Y-78759500D01*
X60656191Y-78799839D01*
X60586599Y-78793612D01*
X60531422Y-78750748D01*
X60508178Y-78684858D01*
X60508000Y-78678222D01*
X60508000Y-76261777D01*
X60527685Y-76194738D01*
X60580489Y-76148983D01*
X60649647Y-76139039D01*
X60656191Y-76140160D01*
X60858992Y-76180499D01*
X60858996Y-76180500D01*
X60858997Y-76180500D01*
X61061004Y-76180500D01*
X61061005Y-76180499D01*
X61259127Y-76141091D01*
X61445756Y-76063786D01*
X61613718Y-75951558D01*
X61756558Y-75808718D01*
X61868786Y-75640756D01*
X61946091Y-75454127D01*
X61985500Y-75256003D01*
X61985500Y-75244429D01*
X62005185Y-75177391D01*
X62057989Y-75131636D01*
X62127147Y-75121692D01*
X62190703Y-75150717D01*
X62228477Y-75209495D01*
X62229275Y-75212337D01*
X62273258Y-75376488D01*
X62273261Y-75376497D01*
X62369431Y-75582732D01*
X62369432Y-75582734D01*
X62499954Y-75769141D01*
X62660858Y-75930045D01*
X62660861Y-75930047D01*
X62847266Y-76060568D01*
X63053504Y-76156739D01*
X63273308Y-76215635D01*
X63435230Y-76229801D01*
X63499998Y-76235468D01*
X63500000Y-76235468D01*
X63500002Y-76235468D01*
X63556673Y-76230509D01*
X63726692Y-76215635D01*
X63946496Y-76156739D01*
X64152734Y-76060568D01*
X64339139Y-75930047D01*
X64500047Y-75769139D01*
X64630568Y-75582734D01*
X64726739Y-75376496D01*
X64785635Y-75156692D01*
X64805468Y-74930000D01*
X64785635Y-74703308D01*
X64726739Y-74483504D01*
X64630568Y-74277266D01*
X64500047Y-74090861D01*
X64500045Y-74090858D01*
X64339141Y-73929954D01*
X64152734Y-73799432D01*
X64152732Y-73799431D01*
X63946497Y-73703261D01*
X63946488Y-73703258D01*
X63726697Y-73644366D01*
X63726693Y-73644365D01*
X63726692Y-73644365D01*
X63726691Y-73644364D01*
X63726686Y-73644364D01*
X63500002Y-73624532D01*
X63499998Y-73624532D01*
X63273313Y-73644364D01*
X63273302Y-73644366D01*
X63053511Y-73703258D01*
X63053502Y-73703261D01*
X62847267Y-73799431D01*
X62847265Y-73799432D01*
X62660858Y-73929954D01*
X62499954Y-74090858D01*
X62369432Y-74277265D01*
X62369431Y-74277267D01*
X62273261Y-74483502D01*
X62273258Y-74483511D01*
X62229275Y-74647662D01*
X62192910Y-74707323D01*
X62130063Y-74737852D01*
X62060688Y-74729557D01*
X62006810Y-74685072D01*
X61985535Y-74618520D01*
X61985500Y-74615569D01*
X61985500Y-74603996D01*
X61985499Y-74603992D01*
X61961534Y-74483511D01*
X61946091Y-74405873D01*
X61868786Y-74219244D01*
X61868784Y-74219241D01*
X61868782Y-74219237D01*
X61756558Y-74051281D01*
X61613718Y-73908441D01*
X61445762Y-73796217D01*
X61445752Y-73796212D01*
X61259127Y-73718909D01*
X61259119Y-73718907D01*
X61061007Y-73679500D01*
X61061003Y-73679500D01*
X60858997Y-73679500D01*
X60858992Y-73679500D01*
X60656191Y-73719839D01*
X60586599Y-73713612D01*
X60531422Y-73670748D01*
X60508178Y-73604858D01*
X60508000Y-73598222D01*
X60508000Y-71181777D01*
X60527685Y-71114738D01*
X60580489Y-71068983D01*
X60649647Y-71059039D01*
X60656191Y-71060160D01*
X60858992Y-71100499D01*
X60858996Y-71100500D01*
X60858997Y-71100500D01*
X61061004Y-71100500D01*
X61061005Y-71100499D01*
X61259127Y-71061091D01*
X61445756Y-70983786D01*
X61613718Y-70871558D01*
X61756558Y-70728718D01*
X61868786Y-70560756D01*
X61946091Y-70374127D01*
X61985500Y-70176003D01*
X61985500Y-70164429D01*
X62005185Y-70097391D01*
X62057989Y-70051636D01*
X62127147Y-70041692D01*
X62190703Y-70070717D01*
X62228477Y-70129495D01*
X62229275Y-70132337D01*
X62273258Y-70296488D01*
X62273261Y-70296497D01*
X62369431Y-70502732D01*
X62369432Y-70502734D01*
X62499954Y-70689141D01*
X62660858Y-70850045D01*
X62660861Y-70850047D01*
X62847266Y-70980568D01*
X63053504Y-71076739D01*
X63273308Y-71135635D01*
X63435230Y-71149801D01*
X63499998Y-71155468D01*
X63500000Y-71155468D01*
X63500002Y-71155468D01*
X63556673Y-71150509D01*
X63726692Y-71135635D01*
X63946496Y-71076739D01*
X64152734Y-70980568D01*
X64339139Y-70850047D01*
X64500047Y-70689139D01*
X64630568Y-70502734D01*
X64726739Y-70296496D01*
X64785635Y-70076692D01*
X64805468Y-69850000D01*
X64785635Y-69623308D01*
X64726739Y-69403504D01*
X64630568Y-69197266D01*
X64500047Y-69010861D01*
X64500045Y-69010858D01*
X64339141Y-68849954D01*
X64152734Y-68719432D01*
X64152732Y-68719431D01*
X63946497Y-68623261D01*
X63946488Y-68623258D01*
X63726697Y-68564366D01*
X63726693Y-68564365D01*
X63726692Y-68564365D01*
X63726691Y-68564364D01*
X63726686Y-68564364D01*
X63500002Y-68544532D01*
X63499998Y-68544532D01*
X63273313Y-68564364D01*
X63273302Y-68564366D01*
X63053511Y-68623258D01*
X63053502Y-68623261D01*
X62847267Y-68719431D01*
X62847265Y-68719432D01*
X62660858Y-68849954D01*
X62499954Y-69010858D01*
X62369432Y-69197265D01*
X62369431Y-69197267D01*
X62273261Y-69403502D01*
X62273258Y-69403511D01*
X62229275Y-69567662D01*
X62192910Y-69627323D01*
X62130063Y-69657852D01*
X62060688Y-69649557D01*
X62006810Y-69605072D01*
X61985535Y-69538520D01*
X61985500Y-69535569D01*
X61985500Y-69523996D01*
X61985499Y-69523992D01*
X61961534Y-69403511D01*
X61946091Y-69325873D01*
X61868786Y-69139244D01*
X61868784Y-69139241D01*
X61868782Y-69139237D01*
X61756558Y-68971281D01*
X61613718Y-68828441D01*
X61445762Y-68716217D01*
X61445752Y-68716212D01*
X61259127Y-68638909D01*
X61259119Y-68638907D01*
X61061007Y-68599500D01*
X61061003Y-68599500D01*
X60858997Y-68599500D01*
X60858992Y-68599500D01*
X60660880Y-68638907D01*
X60660872Y-68638909D01*
X60474244Y-68716213D01*
X60393891Y-68769904D01*
X60327213Y-68790782D01*
X60259833Y-68772297D01*
X60256109Y-68769904D01*
X60175755Y-68716213D01*
X59989127Y-68638909D01*
X59989119Y-68638907D01*
X59791007Y-68599500D01*
X59791003Y-68599500D01*
X59588997Y-68599500D01*
X59588992Y-68599500D01*
X59390880Y-68638907D01*
X59390868Y-68638910D01*
X59310198Y-68672325D01*
X59240729Y-68679794D01*
X59195342Y-68660036D01*
X59195114Y-68660454D01*
X59190447Y-68657905D01*
X59188432Y-68657028D01*
X59187331Y-68656204D01*
X59187330Y-68656203D01*
X59187328Y-68656202D01*
X59052482Y-68605908D01*
X59052483Y-68605908D01*
X58992883Y-68599501D01*
X58992881Y-68599500D01*
X58992873Y-68599500D01*
X58992864Y-68599500D01*
X57847129Y-68599500D01*
X57847123Y-68599501D01*
X57787516Y-68605908D01*
X57652671Y-68656202D01*
X57652664Y-68656206D01*
X57537455Y-68742452D01*
X57537452Y-68742455D01*
X57451206Y-68857664D01*
X57451202Y-68857671D01*
X57400908Y-68992517D01*
X57394501Y-69052116D01*
X57394501Y-69052123D01*
X57394500Y-69052135D01*
X57394500Y-69535570D01*
X57374815Y-69602609D01*
X57322011Y-69648364D01*
X57252853Y-69658308D01*
X57189297Y-69629283D01*
X57151523Y-69570505D01*
X57150725Y-69567663D01*
X57106741Y-69403511D01*
X57106738Y-69403502D01*
X57010568Y-69197267D01*
X57010567Y-69197265D01*
X56880045Y-69010858D01*
X56719141Y-68849954D01*
X56532734Y-68719432D01*
X56532732Y-68719431D01*
X56326497Y-68623261D01*
X56326488Y-68623258D01*
X56106697Y-68564366D01*
X56106693Y-68564365D01*
X56106692Y-68564365D01*
X56106691Y-68564364D01*
X56106686Y-68564364D01*
X55880002Y-68544532D01*
X55879998Y-68544532D01*
X55653313Y-68564364D01*
X55653302Y-68564366D01*
X55433511Y-68623258D01*
X55433502Y-68623261D01*
X55227267Y-68719431D01*
X55227265Y-68719432D01*
X55040858Y-68849954D01*
X54879954Y-69010858D01*
X54749432Y-69197265D01*
X54749431Y-69197267D01*
X54653261Y-69403502D01*
X54653258Y-69403511D01*
X54594366Y-69623302D01*
X54594364Y-69623313D01*
X54574532Y-69849998D01*
X47025468Y-69849998D01*
X47005635Y-69623308D01*
X46946739Y-69403504D01*
X46850568Y-69197266D01*
X46720047Y-69010861D01*
X46720045Y-69010858D01*
X46559141Y-68849954D01*
X46372734Y-68719432D01*
X46372732Y-68719431D01*
X46166497Y-68623261D01*
X46166488Y-68623258D01*
X45946697Y-68564366D01*
X45946693Y-68564365D01*
X45946692Y-68564365D01*
X45946691Y-68564364D01*
X45946686Y-68564364D01*
X45720002Y-68544532D01*
X45719998Y-68544532D01*
X45493313Y-68564364D01*
X45493302Y-68564366D01*
X45273511Y-68623258D01*
X45273502Y-68623261D01*
X45067267Y-68719431D01*
X45067265Y-68719432D01*
X44880858Y-68849954D01*
X44862181Y-68868632D01*
X44800858Y-68902117D01*
X44731166Y-68897133D01*
X44675233Y-68855261D01*
X44650816Y-68789797D01*
X44650500Y-68780951D01*
X44650500Y-66594998D01*
X53939532Y-66594998D01*
X53939532Y-66595001D01*
X53959364Y-66821686D01*
X53959366Y-66821697D01*
X54018258Y-67041488D01*
X54018261Y-67041497D01*
X54114431Y-67247732D01*
X54114432Y-67247734D01*
X54244954Y-67434141D01*
X54405858Y-67595045D01*
X54405861Y-67595047D01*
X54592266Y-67725568D01*
X54798504Y-67821739D01*
X55018308Y-67880635D01*
X55180230Y-67894801D01*
X55244998Y-67900468D01*
X55245000Y-67900468D01*
X55245002Y-67900468D01*
X55301673Y-67895509D01*
X55471692Y-67880635D01*
X55691496Y-67821739D01*
X55897734Y-67725568D01*
X56084139Y-67595047D01*
X56245047Y-67434139D01*
X56375568Y-67247734D01*
X56471739Y-67041496D01*
X56530635Y-66821692D01*
X56550468Y-66595000D01*
X56530635Y-66368308D01*
X56471739Y-66148504D01*
X56375568Y-65942266D01*
X56245047Y-65755861D01*
X56245045Y-65755858D01*
X56084141Y-65594954D01*
X55897734Y-65464432D01*
X55897732Y-65464431D01*
X55691497Y-65368261D01*
X55691488Y-65368258D01*
X55471697Y-65309366D01*
X55471693Y-65309365D01*
X55471692Y-65309365D01*
X55471691Y-65309364D01*
X55471686Y-65309364D01*
X55245002Y-65289532D01*
X55244998Y-65289532D01*
X55018313Y-65309364D01*
X55018302Y-65309366D01*
X54798511Y-65368258D01*
X54798502Y-65368261D01*
X54592267Y-65464431D01*
X54592265Y-65464432D01*
X54405858Y-65594954D01*
X54244954Y-65755858D01*
X54114432Y-65942265D01*
X54114431Y-65942267D01*
X54018261Y-66148502D01*
X54018258Y-66148511D01*
X53959366Y-66368302D01*
X53959364Y-66368313D01*
X53939532Y-66594998D01*
X44650500Y-66594998D01*
X44650500Y-63287135D01*
X46959500Y-63287135D01*
X46959500Y-64982870D01*
X46959501Y-64982876D01*
X46965908Y-65042483D01*
X47016202Y-65177328D01*
X47016206Y-65177335D01*
X47102452Y-65292544D01*
X47102455Y-65292547D01*
X47217664Y-65378793D01*
X47217671Y-65378797D01*
X47352517Y-65429091D01*
X47352516Y-65429091D01*
X47359444Y-65429835D01*
X47412127Y-65435500D01*
X49107872Y-65435499D01*
X49167483Y-65429091D01*
X49302331Y-65378796D01*
X49417546Y-65292546D01*
X49503796Y-65177331D01*
X49554091Y-65042483D01*
X49560500Y-64982873D01*
X49560499Y-64982845D01*
X49560678Y-64979547D01*
X49562183Y-64979627D01*
X49580112Y-64918326D01*
X49632868Y-64872514D01*
X49676465Y-64864981D01*
X50360000Y-64181446D01*
X50360000Y-64187661D01*
X50387259Y-64289394D01*
X50439920Y-64380606D01*
X50514394Y-64455080D01*
X50605606Y-64507741D01*
X50707339Y-64535000D01*
X50713553Y-64535000D01*
X50034526Y-65214025D01*
X50107513Y-65265132D01*
X50107521Y-65265136D01*
X50313668Y-65361264D01*
X50313682Y-65361269D01*
X50533389Y-65420139D01*
X50533400Y-65420141D01*
X50759998Y-65439966D01*
X50760002Y-65439966D01*
X50986599Y-65420141D01*
X50986610Y-65420139D01*
X51206317Y-65361269D01*
X51206331Y-65361264D01*
X51412478Y-65265136D01*
X51485471Y-65214024D01*
X50806447Y-64535000D01*
X50812661Y-64535000D01*
X50914394Y-64507741D01*
X51005606Y-64455080D01*
X51080080Y-64380606D01*
X51132741Y-64289394D01*
X51160000Y-64187661D01*
X51160000Y-64181447D01*
X51839024Y-64860471D01*
X51890136Y-64787478D01*
X51986264Y-64581331D01*
X51986269Y-64581317D01*
X52045139Y-64361610D01*
X52045141Y-64361599D01*
X52064966Y-64135002D01*
X52064966Y-64134997D01*
X52045141Y-63908400D01*
X52045139Y-63908389D01*
X51986269Y-63688682D01*
X51986264Y-63688668D01*
X51892288Y-63487135D01*
X57724500Y-63487135D01*
X57724500Y-64782870D01*
X57724501Y-64782876D01*
X57730908Y-64842483D01*
X57781202Y-64977328D01*
X57781206Y-64977335D01*
X57867452Y-65092544D01*
X57867455Y-65092547D01*
X57982664Y-65178793D01*
X57982671Y-65178797D01*
X58117517Y-65229091D01*
X58117516Y-65229091D01*
X58124444Y-65229835D01*
X58177127Y-65235500D01*
X59472872Y-65235499D01*
X59532483Y-65229091D01*
X59566252Y-65216496D01*
X59667329Y-65178797D01*
X59667329Y-65178796D01*
X59667331Y-65178796D01*
X59716521Y-65141971D01*
X59781982Y-65117554D01*
X59835622Y-65125610D01*
X60022544Y-65198024D01*
X60223024Y-65235500D01*
X60223026Y-65235500D01*
X60426974Y-65235500D01*
X60426976Y-65235500D01*
X60627456Y-65198024D01*
X60817637Y-65124348D01*
X60991041Y-65016981D01*
X61141764Y-64879579D01*
X61224516Y-64769998D01*
X62194532Y-64769998D01*
X62194532Y-64770001D01*
X62214364Y-64996686D01*
X62214366Y-64996697D01*
X62273258Y-65216488D01*
X62273261Y-65216497D01*
X62369431Y-65422732D01*
X62369432Y-65422734D01*
X62499954Y-65609141D01*
X62660858Y-65770045D01*
X62660861Y-65770047D01*
X62847266Y-65900568D01*
X63053504Y-65996739D01*
X63273308Y-66055635D01*
X63435230Y-66069801D01*
X63499998Y-66075468D01*
X63500000Y-66075468D01*
X63500002Y-66075468D01*
X63556673Y-66070509D01*
X63726692Y-66055635D01*
X63946496Y-65996739D01*
X64152734Y-65900568D01*
X64339139Y-65770047D01*
X64500047Y-65609139D01*
X64630568Y-65422734D01*
X64726739Y-65216496D01*
X64785635Y-64996692D01*
X64804341Y-64782883D01*
X64805468Y-64770001D01*
X64805468Y-64769998D01*
X64791960Y-64615606D01*
X64785635Y-64543308D01*
X64736949Y-64361610D01*
X64726741Y-64323511D01*
X64726738Y-64323502D01*
X64661002Y-64182532D01*
X64630568Y-64117266D01*
X64532839Y-63977693D01*
X64500045Y-63930858D01*
X64339141Y-63769954D01*
X64152734Y-63639432D01*
X64152732Y-63639431D01*
X63946497Y-63543261D01*
X63946488Y-63543258D01*
X63726697Y-63484366D01*
X63726693Y-63484365D01*
X63726692Y-63484365D01*
X63726691Y-63484364D01*
X63726686Y-63484364D01*
X63500002Y-63464532D01*
X63499998Y-63464532D01*
X63273313Y-63484364D01*
X63273302Y-63484366D01*
X63053511Y-63543258D01*
X63053502Y-63543261D01*
X62847267Y-63639431D01*
X62847265Y-63639432D01*
X62660858Y-63769954D01*
X62499954Y-63930858D01*
X62369432Y-64117265D01*
X62369431Y-64117267D01*
X62273261Y-64323502D01*
X62273258Y-64323511D01*
X62214366Y-64543302D01*
X62214364Y-64543313D01*
X62194532Y-64769998D01*
X61224516Y-64769998D01*
X61264673Y-64716821D01*
X61355582Y-64534250D01*
X61411397Y-64338083D01*
X61430215Y-64135000D01*
X61422204Y-64048551D01*
X61411397Y-63931917D01*
X61399298Y-63889394D01*
X61355582Y-63735750D01*
X61264673Y-63553179D01*
X61163670Y-63419429D01*
X61141762Y-63390418D01*
X60991041Y-63253019D01*
X60991039Y-63253017D01*
X60817642Y-63145655D01*
X60817635Y-63145651D01*
X60680858Y-63092664D01*
X60627456Y-63071976D01*
X60426976Y-63034500D01*
X60223024Y-63034500D01*
X60022544Y-63071976D01*
X60022541Y-63071976D01*
X60022541Y-63071977D01*
X59917859Y-63112531D01*
X59835629Y-63144387D01*
X59835626Y-63144388D01*
X59766002Y-63150250D01*
X59716521Y-63128027D01*
X59667335Y-63091206D01*
X59667328Y-63091202D01*
X59532482Y-63040908D01*
X59532483Y-63040908D01*
X59472883Y-63034501D01*
X59472881Y-63034500D01*
X59472873Y-63034500D01*
X59472864Y-63034500D01*
X58177129Y-63034500D01*
X58177123Y-63034501D01*
X58117516Y-63040908D01*
X57982671Y-63091202D01*
X57982664Y-63091206D01*
X57867455Y-63177452D01*
X57867452Y-63177455D01*
X57781206Y-63292664D01*
X57781202Y-63292671D01*
X57730908Y-63427517D01*
X57726929Y-63464532D01*
X57724501Y-63487123D01*
X57724500Y-63487135D01*
X51892288Y-63487135D01*
X51890136Y-63482521D01*
X51890132Y-63482513D01*
X51839025Y-63409526D01*
X51160000Y-64088551D01*
X51160000Y-64082339D01*
X51132741Y-63980606D01*
X51080080Y-63889394D01*
X51005606Y-63814920D01*
X50914394Y-63762259D01*
X50812661Y-63735000D01*
X50806445Y-63735000D01*
X51485472Y-63055974D01*
X51412478Y-63004863D01*
X51206331Y-62908735D01*
X51206317Y-62908730D01*
X50986610Y-62849860D01*
X50986599Y-62849858D01*
X50760002Y-62830034D01*
X50759998Y-62830034D01*
X50533400Y-62849858D01*
X50533389Y-62849860D01*
X50313682Y-62908730D01*
X50313673Y-62908734D01*
X50107516Y-63004866D01*
X50107512Y-63004868D01*
X50034526Y-63055973D01*
X50034526Y-63055974D01*
X50713553Y-63735000D01*
X50707339Y-63735000D01*
X50605606Y-63762259D01*
X50514394Y-63814920D01*
X50439920Y-63889394D01*
X50387259Y-63980606D01*
X50360000Y-64082339D01*
X50360000Y-64088552D01*
X49675799Y-63404351D01*
X49626805Y-63394505D01*
X49576622Y-63345889D01*
X49561981Y-63290366D01*
X49560900Y-63290423D01*
X49560854Y-63290429D01*
X49560853Y-63290426D01*
X49560676Y-63290436D01*
X49560499Y-63287135D01*
X49560499Y-63287128D01*
X49554091Y-63227517D01*
X49535223Y-63176930D01*
X49503797Y-63092671D01*
X49503793Y-63092664D01*
X49417547Y-62977455D01*
X49417544Y-62977452D01*
X49302335Y-62891206D01*
X49302328Y-62891202D01*
X49167482Y-62840908D01*
X49167483Y-62840908D01*
X49107883Y-62834501D01*
X49107881Y-62834500D01*
X49107873Y-62834500D01*
X49107864Y-62834500D01*
X47412129Y-62834500D01*
X47412123Y-62834501D01*
X47352516Y-62840908D01*
X47217671Y-62891202D01*
X47217664Y-62891206D01*
X47102455Y-62977452D01*
X47102452Y-62977455D01*
X47016206Y-63092664D01*
X47016202Y-63092671D01*
X46965908Y-63227517D01*
X46959501Y-63287116D01*
X46959501Y-63287123D01*
X46959500Y-63287135D01*
X44650500Y-63287135D01*
X44650500Y-61594997D01*
X53940034Y-61594997D01*
X53940034Y-61595002D01*
X53959858Y-61821599D01*
X53959860Y-61821610D01*
X54018730Y-62041317D01*
X54018735Y-62041331D01*
X54114863Y-62247478D01*
X54165974Y-62320472D01*
X54845000Y-61641446D01*
X54845000Y-61647661D01*
X54872259Y-61749394D01*
X54924920Y-61840606D01*
X54999394Y-61915080D01*
X55090606Y-61967741D01*
X55192339Y-61995000D01*
X55198553Y-61995000D01*
X54519526Y-62674025D01*
X54592513Y-62725132D01*
X54592521Y-62725136D01*
X54798668Y-62821264D01*
X54798682Y-62821269D01*
X55018389Y-62880139D01*
X55018400Y-62880141D01*
X55244998Y-62899966D01*
X55245002Y-62899966D01*
X55471599Y-62880141D01*
X55471610Y-62880139D01*
X55691317Y-62821269D01*
X55691331Y-62821264D01*
X55897478Y-62725136D01*
X55970471Y-62674024D01*
X55291447Y-61995000D01*
X55297661Y-61995000D01*
X55399394Y-61967741D01*
X55490606Y-61915080D01*
X55565080Y-61840606D01*
X55617741Y-61749394D01*
X55645000Y-61647661D01*
X55645000Y-61641447D01*
X56324024Y-62320471D01*
X56375136Y-62247478D01*
X56471264Y-62041331D01*
X56471269Y-62041317D01*
X56530139Y-61821610D01*
X56530141Y-61821599D01*
X56549966Y-61595002D01*
X56549966Y-61594997D01*
X56530141Y-61368400D01*
X56530139Y-61368389D01*
X56471269Y-61148682D01*
X56471264Y-61148668D01*
X56375136Y-60942521D01*
X56375132Y-60942513D01*
X56324025Y-60869526D01*
X55645000Y-61548551D01*
X55645000Y-61542339D01*
X55617741Y-61440606D01*
X55565080Y-61349394D01*
X55490606Y-61274920D01*
X55399394Y-61222259D01*
X55297661Y-61195000D01*
X55291445Y-61195000D01*
X55970472Y-60515974D01*
X55897478Y-60464863D01*
X55691331Y-60368735D01*
X55691317Y-60368730D01*
X55471610Y-60309860D01*
X55471599Y-60309858D01*
X55245002Y-60290034D01*
X55244998Y-60290034D01*
X55018400Y-60309858D01*
X55018389Y-60309860D01*
X54798682Y-60368730D01*
X54798673Y-60368734D01*
X54592516Y-60464866D01*
X54592512Y-60464868D01*
X54519526Y-60515973D01*
X54519526Y-60515974D01*
X55198553Y-61195000D01*
X55192339Y-61195000D01*
X55090606Y-61222259D01*
X54999394Y-61274920D01*
X54924920Y-61349394D01*
X54872259Y-61440606D01*
X54845000Y-61542339D01*
X54845000Y-61548552D01*
X54165974Y-60869526D01*
X54165973Y-60869526D01*
X54114868Y-60942512D01*
X54114866Y-60942516D01*
X54018734Y-61148673D01*
X54018730Y-61148682D01*
X53959860Y-61368389D01*
X53959858Y-61368400D01*
X53940034Y-61594997D01*
X44650500Y-61594997D01*
X44650500Y-57149997D01*
X44955153Y-57149997D01*
X44955153Y-57150002D01*
X44974526Y-57507314D01*
X44974527Y-57507331D01*
X45032415Y-57860431D01*
X45032421Y-57860457D01*
X45128147Y-58205232D01*
X45128149Y-58205239D01*
X45260597Y-58537659D01*
X45260606Y-58537677D01*
X45428218Y-58853827D01*
X45629033Y-59150007D01*
X45756441Y-59300003D01*
X45756442Y-59300004D01*
X46965748Y-58090698D01*
X47039588Y-58192330D01*
X47217670Y-58370412D01*
X47319300Y-58444251D01*
X46107255Y-59656295D01*
X46107256Y-59656296D01*
X46120485Y-59668828D01*
X46120486Y-59668829D01*
X46405367Y-59885388D01*
X46405370Y-59885390D01*
X46711990Y-60069876D01*
X47036739Y-60220122D01*
X47036744Y-60220123D01*
X47375855Y-60334383D01*
X47725339Y-60411311D01*
X48081075Y-60449999D01*
X48081085Y-60450000D01*
X48438915Y-60450000D01*
X48438924Y-60449999D01*
X48794660Y-60411311D01*
X49144144Y-60334383D01*
X49483255Y-60220123D01*
X49483260Y-60220122D01*
X49808009Y-60069876D01*
X50114629Y-59885390D01*
X50114632Y-59885388D01*
X50399504Y-59668836D01*
X50412742Y-59656294D01*
X49200698Y-58444251D01*
X49302330Y-58370412D01*
X49480412Y-58192330D01*
X49554251Y-58090698D01*
X50763556Y-59300003D01*
X50890964Y-59150008D01*
X50890975Y-59149994D01*
X51091781Y-58853827D01*
X51259393Y-58537677D01*
X51259402Y-58537659D01*
X51391850Y-58205239D01*
X51391852Y-58205232D01*
X51487578Y-57860457D01*
X51487584Y-57860431D01*
X51545472Y-57507331D01*
X51545473Y-57507314D01*
X51564847Y-57150002D01*
X51564847Y-57149997D01*
X51554003Y-56949994D01*
X59454357Y-56949994D01*
X59454357Y-56950005D01*
X59474890Y-57197812D01*
X59474892Y-57197824D01*
X59535936Y-57438881D01*
X59635826Y-57666606D01*
X59771833Y-57874782D01*
X59771836Y-57874785D01*
X59940256Y-58057738D01*
X60136491Y-58210474D01*
X60355190Y-58328828D01*
X60590386Y-58409571D01*
X60835665Y-58450500D01*
X61084334Y-58450500D01*
X61084335Y-58450500D01*
X61209351Y-58429638D01*
X61278713Y-58438020D01*
X61317439Y-58464266D01*
X67725681Y-64872508D01*
X67759166Y-64933831D01*
X67762000Y-64960189D01*
X67762000Y-90969810D01*
X67742315Y-91036849D01*
X67725681Y-91057491D01*
X64867568Y-93915603D01*
X64806245Y-93949088D01*
X64769080Y-93951450D01*
X64690002Y-93944532D01*
X64689998Y-93944532D01*
X64463313Y-93964364D01*
X64463302Y-93964366D01*
X64243511Y-94023258D01*
X64243502Y-94023261D01*
X64037267Y-94119431D01*
X64037265Y-94119432D01*
X63850858Y-94249954D01*
X63689954Y-94410858D01*
X63559432Y-94597265D01*
X63559431Y-94597267D01*
X63463261Y-94803502D01*
X63463258Y-94803511D01*
X63404366Y-95023302D01*
X63404364Y-95023313D01*
X63384532Y-95249998D01*
X63384532Y-95250001D01*
X63404364Y-95476686D01*
X63404366Y-95476697D01*
X63463258Y-95696488D01*
X63463261Y-95696497D01*
X63559431Y-95902732D01*
X63559432Y-95902734D01*
X63689954Y-96089141D01*
X63850858Y-96250045D01*
X63850861Y-96250047D01*
X64037266Y-96380568D01*
X64243504Y-96476739D01*
X64463308Y-96535635D01*
X64625230Y-96549801D01*
X64689998Y-96555468D01*
X64690000Y-96555468D01*
X64690002Y-96555468D01*
X64746673Y-96550509D01*
X64916692Y-96535635D01*
X65136496Y-96476739D01*
X65342734Y-96380568D01*
X65529139Y-96250047D01*
X65690047Y-96089139D01*
X65820568Y-95902734D01*
X65916739Y-95696496D01*
X65975635Y-95476692D01*
X65995468Y-95250000D01*
X65988548Y-95170916D01*
X66002314Y-95102420D01*
X66024392Y-95072433D01*
X66494690Y-94602135D01*
X67479500Y-94602135D01*
X67479500Y-95897870D01*
X67479501Y-95897876D01*
X67485908Y-95957483D01*
X67536202Y-96092328D01*
X67536206Y-96092335D01*
X67622452Y-96207544D01*
X67622455Y-96207547D01*
X67737664Y-96293793D01*
X67737671Y-96293797D01*
X67872517Y-96344091D01*
X67872516Y-96344091D01*
X67879444Y-96344835D01*
X67932127Y-96350500D01*
X69227872Y-96350499D01*
X69287483Y-96344091D01*
X69422329Y-96293797D01*
X69422329Y-96293796D01*
X69422331Y-96293796D01*
X69471993Y-96256618D01*
X69537454Y-96232201D01*
X69591097Y-96240258D01*
X69777678Y-96312539D01*
X69978072Y-96350000D01*
X70181928Y-96350000D01*
X70382322Y-96312539D01*
X70572412Y-96238899D01*
X70572416Y-96238897D01*
X70660686Y-96184241D01*
X70660686Y-96184240D01*
X70021300Y-95544854D01*
X70040504Y-95550000D01*
X70119496Y-95550000D01*
X70195796Y-95529556D01*
X70264205Y-95490060D01*
X70320060Y-95434205D01*
X70359556Y-95365796D01*
X70380000Y-95289496D01*
X70380000Y-95250000D01*
X70433553Y-95250000D01*
X71017465Y-95833912D01*
X71019247Y-95831553D01*
X71019248Y-95831551D01*
X71110113Y-95649069D01*
X71110116Y-95649063D01*
X71165902Y-95452992D01*
X71165903Y-95452989D01*
X71184713Y-95250000D01*
X71184713Y-95249999D01*
X81215287Y-95249999D01*
X81215287Y-95250000D01*
X81234096Y-95452989D01*
X81234097Y-95452992D01*
X81289883Y-95649063D01*
X81289886Y-95649069D01*
X81380751Y-95831551D01*
X81382533Y-95833911D01*
X81966446Y-95250000D01*
X81382533Y-94666087D01*
X81380755Y-94668442D01*
X81380754Y-94668443D01*
X81289886Y-94850930D01*
X81289883Y-94850936D01*
X81234097Y-95047007D01*
X81234096Y-95047010D01*
X81215287Y-95249999D01*
X71184713Y-95249999D01*
X71165903Y-95047010D01*
X71165902Y-95047007D01*
X71110116Y-94850936D01*
X71110113Y-94850930D01*
X71019249Y-94668449D01*
X71019247Y-94668447D01*
X71017465Y-94666087D01*
X70433553Y-95250000D01*
X70380000Y-95250000D01*
X70380000Y-95210504D01*
X70359556Y-95134204D01*
X70320060Y-95065795D01*
X70264205Y-95009940D01*
X70195796Y-94970444D01*
X70119496Y-94950000D01*
X70040504Y-94950000D01*
X70021300Y-94955145D01*
X70660687Y-94315758D01*
X81739311Y-94315758D01*
X82378698Y-94955145D01*
X82359496Y-94950000D01*
X82280504Y-94950000D01*
X82204204Y-94970444D01*
X82135795Y-95009940D01*
X82079940Y-95065795D01*
X82040444Y-95134204D01*
X82020000Y-95210504D01*
X82020000Y-95289496D01*
X82040444Y-95365796D01*
X82079940Y-95434205D01*
X82135795Y-95490060D01*
X82204204Y-95529556D01*
X82280504Y-95550000D01*
X82359496Y-95550000D01*
X82378696Y-95544855D01*
X81739311Y-96184240D01*
X81827585Y-96238897D01*
X82017678Y-96312539D01*
X82218072Y-96350000D01*
X82421928Y-96350000D01*
X82622326Y-96312538D01*
X82808902Y-96240259D01*
X82878525Y-96234396D01*
X82928005Y-96256617D01*
X82977665Y-96293793D01*
X82977668Y-96293795D01*
X82977671Y-96293797D01*
X83112517Y-96344091D01*
X83112516Y-96344091D01*
X83119444Y-96344835D01*
X83172127Y-96350500D01*
X84467872Y-96350499D01*
X84527483Y-96344091D01*
X84662331Y-96293796D01*
X84777546Y-96207546D01*
X84863796Y-96092331D01*
X84914091Y-95957483D01*
X84920500Y-95897873D01*
X84920499Y-94602128D01*
X84914091Y-94542517D01*
X84864985Y-94410858D01*
X84863797Y-94407671D01*
X84863793Y-94407664D01*
X84777547Y-94292455D01*
X84777544Y-94292452D01*
X84662335Y-94206206D01*
X84662328Y-94206202D01*
X84527482Y-94155908D01*
X84527483Y-94155908D01*
X84467883Y-94149501D01*
X84467881Y-94149500D01*
X84467873Y-94149500D01*
X84467864Y-94149500D01*
X83172129Y-94149500D01*
X83172123Y-94149501D01*
X83112516Y-94155908D01*
X82977671Y-94206202D01*
X82977665Y-94206205D01*
X82928004Y-94243381D01*
X82862539Y-94267797D01*
X82808902Y-94259740D01*
X82622324Y-94187460D01*
X82421928Y-94150000D01*
X82218072Y-94150000D01*
X82017678Y-94187460D01*
X81827588Y-94261100D01*
X81827581Y-94261104D01*
X81739312Y-94315757D01*
X81739311Y-94315758D01*
X70660687Y-94315758D01*
X70572413Y-94261101D01*
X70572411Y-94261100D01*
X70382321Y-94187460D01*
X70181928Y-94150000D01*
X69978072Y-94150000D01*
X69777677Y-94187460D01*
X69591098Y-94259741D01*
X69521474Y-94265603D01*
X69471993Y-94243381D01*
X69422331Y-94206204D01*
X69422329Y-94206203D01*
X69422328Y-94206202D01*
X69287482Y-94155908D01*
X69287483Y-94155908D01*
X69227883Y-94149501D01*
X69227881Y-94149500D01*
X69227873Y-94149500D01*
X69227864Y-94149500D01*
X67932129Y-94149500D01*
X67932123Y-94149501D01*
X67872516Y-94155908D01*
X67737671Y-94206202D01*
X67737664Y-94206206D01*
X67622455Y-94292452D01*
X67622452Y-94292455D01*
X67536206Y-94407664D01*
X67536202Y-94407671D01*
X67485908Y-94542517D01*
X67479501Y-94602116D01*
X67479501Y-94602123D01*
X67479500Y-94602135D01*
X66494690Y-94602135D01*
X68346827Y-92749998D01*
X72354532Y-92749998D01*
X72354532Y-92750001D01*
X72374364Y-92976686D01*
X72374366Y-92976697D01*
X72433258Y-93196488D01*
X72433261Y-93196497D01*
X72529431Y-93402732D01*
X72529432Y-93402734D01*
X72659954Y-93589141D01*
X72820858Y-93750045D01*
X72820861Y-93750047D01*
X73007266Y-93880568D01*
X73213504Y-93976739D01*
X73433308Y-94035635D01*
X73595230Y-94049801D01*
X73659998Y-94055468D01*
X73660000Y-94055468D01*
X73660002Y-94055468D01*
X73716673Y-94050509D01*
X73886692Y-94035635D01*
X74106496Y-93976739D01*
X74312734Y-93880568D01*
X74499139Y-93750047D01*
X74660047Y-93589139D01*
X74790568Y-93402734D01*
X74886739Y-93196496D01*
X74945635Y-92976692D01*
X74965468Y-92750000D01*
X74965468Y-92749998D01*
X77434532Y-92749998D01*
X77434532Y-92750001D01*
X77454364Y-92976686D01*
X77454366Y-92976697D01*
X77513258Y-93196488D01*
X77513261Y-93196497D01*
X77609431Y-93402732D01*
X77609432Y-93402734D01*
X77739954Y-93589141D01*
X77900858Y-93750045D01*
X77900861Y-93750047D01*
X78087266Y-93880568D01*
X78293504Y-93976739D01*
X78513308Y-94035635D01*
X78675230Y-94049801D01*
X78739998Y-94055468D01*
X78740000Y-94055468D01*
X78740002Y-94055468D01*
X78796673Y-94050509D01*
X78966692Y-94035635D01*
X79186496Y-93976739D01*
X79392734Y-93880568D01*
X79579139Y-93750047D01*
X79740047Y-93589139D01*
X79870568Y-93402734D01*
X79966739Y-93196496D01*
X80025635Y-92976692D01*
X80045468Y-92750000D01*
X80025635Y-92523308D01*
X79966739Y-92303504D01*
X79870568Y-92097266D01*
X79740047Y-91910861D01*
X79740045Y-91910858D01*
X79579141Y-91749954D01*
X79392734Y-91619432D01*
X79392732Y-91619431D01*
X79376192Y-91611718D01*
X79291242Y-91572105D01*
X79238804Y-91525934D01*
X79219652Y-91458740D01*
X79239868Y-91391859D01*
X79291244Y-91347342D01*
X79392479Y-91300135D01*
X79392481Y-91300134D01*
X79578820Y-91169657D01*
X79739657Y-91008820D01*
X79870134Y-90822482D01*
X79966265Y-90616326D01*
X79966269Y-90616317D01*
X80018872Y-90420000D01*
X79055686Y-90420000D01*
X79060080Y-90415606D01*
X79112741Y-90324394D01*
X79140000Y-90222661D01*
X79140000Y-90117339D01*
X79112741Y-90015606D01*
X79060080Y-89924394D01*
X79055686Y-89920000D01*
X80018872Y-89920000D01*
X80018872Y-89919999D01*
X79966269Y-89723682D01*
X79966265Y-89723673D01*
X79870134Y-89517517D01*
X79739657Y-89331179D01*
X79578820Y-89170342D01*
X79392482Y-89039865D01*
X79186328Y-88943734D01*
X78990000Y-88891127D01*
X78990000Y-89854314D01*
X78985606Y-89849920D01*
X78894394Y-89797259D01*
X78792661Y-89770000D01*
X78687339Y-89770000D01*
X78585606Y-89797259D01*
X78494394Y-89849920D01*
X78490000Y-89854314D01*
X78490000Y-88891127D01*
X78293671Y-88943734D01*
X78087517Y-89039865D01*
X77901179Y-89170342D01*
X77740342Y-89331179D01*
X77609865Y-89517517D01*
X77513734Y-89723673D01*
X77513730Y-89723682D01*
X77461127Y-89919999D01*
X77461128Y-89920000D01*
X78424314Y-89920000D01*
X78419920Y-89924394D01*
X78367259Y-90015606D01*
X78340000Y-90117339D01*
X78340000Y-90222661D01*
X78367259Y-90324394D01*
X78419920Y-90415606D01*
X78424314Y-90420000D01*
X77461128Y-90420000D01*
X77513730Y-90616317D01*
X77513734Y-90616326D01*
X77609865Y-90822482D01*
X77740342Y-91008820D01*
X77901179Y-91169657D01*
X78087518Y-91300134D01*
X78087520Y-91300135D01*
X78188755Y-91347342D01*
X78241195Y-91393514D01*
X78260347Y-91460708D01*
X78240131Y-91527589D01*
X78188756Y-91572106D01*
X78087267Y-91619431D01*
X78087265Y-91619432D01*
X77900858Y-91749954D01*
X77739954Y-91910858D01*
X77609432Y-92097265D01*
X77609431Y-92097267D01*
X77513261Y-92303502D01*
X77513258Y-92303511D01*
X77454366Y-92523302D01*
X77454364Y-92523313D01*
X77434532Y-92749998D01*
X74965468Y-92749998D01*
X74945635Y-92523308D01*
X74886739Y-92303504D01*
X74790568Y-92097266D01*
X74660047Y-91910861D01*
X74660045Y-91910858D01*
X74499141Y-91749954D01*
X74312734Y-91619432D01*
X74312732Y-91619431D01*
X74296192Y-91611718D01*
X74211242Y-91572105D01*
X74158804Y-91525934D01*
X74139652Y-91458740D01*
X74159868Y-91391859D01*
X74211244Y-91347342D01*
X74312479Y-91300135D01*
X74312481Y-91300134D01*
X74498820Y-91169657D01*
X74659657Y-91008820D01*
X74790134Y-90822482D01*
X74886265Y-90616326D01*
X74886269Y-90616317D01*
X74938872Y-90420000D01*
X73975686Y-90420000D01*
X73980080Y-90415606D01*
X74032741Y-90324394D01*
X74060000Y-90222661D01*
X74060000Y-90117339D01*
X74032741Y-90015606D01*
X73980080Y-89924394D01*
X73975686Y-89920000D01*
X74938872Y-89920000D01*
X74938872Y-89919999D01*
X74886269Y-89723682D01*
X74886265Y-89723673D01*
X74790134Y-89517517D01*
X74659657Y-89331179D01*
X74498820Y-89170342D01*
X74312482Y-89039865D01*
X74106328Y-88943734D01*
X73910000Y-88891127D01*
X73910000Y-89854314D01*
X73905606Y-89849920D01*
X73814394Y-89797259D01*
X73712661Y-89770000D01*
X73607339Y-89770000D01*
X73505606Y-89797259D01*
X73414394Y-89849920D01*
X73410000Y-89854314D01*
X73410000Y-88891127D01*
X73213671Y-88943734D01*
X73007517Y-89039865D01*
X72821179Y-89170342D01*
X72660342Y-89331179D01*
X72529865Y-89517517D01*
X72433734Y-89723673D01*
X72433730Y-89723682D01*
X72381127Y-89919999D01*
X72381128Y-89920000D01*
X73344314Y-89920000D01*
X73339920Y-89924394D01*
X73287259Y-90015606D01*
X73260000Y-90117339D01*
X73260000Y-90222661D01*
X73287259Y-90324394D01*
X73339920Y-90415606D01*
X73344314Y-90420000D01*
X72381128Y-90420000D01*
X72433730Y-90616317D01*
X72433734Y-90616326D01*
X72529865Y-90822482D01*
X72660342Y-91008820D01*
X72821179Y-91169657D01*
X73007518Y-91300134D01*
X73007520Y-91300135D01*
X73108755Y-91347342D01*
X73161195Y-91393514D01*
X73180347Y-91460708D01*
X73160131Y-91527589D01*
X73108756Y-91572106D01*
X73007267Y-91619431D01*
X73007265Y-91619432D01*
X72820858Y-91749954D01*
X72659954Y-91910858D01*
X72529432Y-92097265D01*
X72529431Y-92097267D01*
X72433261Y-92303502D01*
X72433258Y-92303511D01*
X72374366Y-92523302D01*
X72374364Y-92523313D01*
X72354532Y-92749998D01*
X68346827Y-92749998D01*
X69101442Y-91995383D01*
X69101445Y-91995382D01*
X69215382Y-91881445D01*
X69251448Y-91827468D01*
X69304903Y-91747468D01*
X69366565Y-91598602D01*
X69382087Y-91520566D01*
X69398000Y-91440566D01*
X69398000Y-85089998D01*
X72354532Y-85089998D01*
X72354532Y-85090001D01*
X72374364Y-85316686D01*
X72374366Y-85316697D01*
X72433258Y-85536488D01*
X72433261Y-85536497D01*
X72529431Y-85742732D01*
X72529432Y-85742734D01*
X72659954Y-85929141D01*
X72820858Y-86090045D01*
X72820861Y-86090047D01*
X73007266Y-86220568D01*
X73213504Y-86316739D01*
X73433308Y-86375635D01*
X73595230Y-86389801D01*
X73659998Y-86395468D01*
X73660000Y-86395468D01*
X73660002Y-86395468D01*
X73716673Y-86390509D01*
X73886692Y-86375635D01*
X74106496Y-86316739D01*
X74312734Y-86220568D01*
X74499139Y-86090047D01*
X74660047Y-85929139D01*
X74790568Y-85742734D01*
X74886739Y-85536496D01*
X74945635Y-85316692D01*
X74965468Y-85090000D01*
X74965468Y-85089998D01*
X77434532Y-85089998D01*
X77434532Y-85090001D01*
X77454364Y-85316686D01*
X77454366Y-85316697D01*
X77513258Y-85536488D01*
X77513261Y-85536497D01*
X77609431Y-85742732D01*
X77609432Y-85742734D01*
X77739954Y-85929141D01*
X77900858Y-86090045D01*
X77900861Y-86090047D01*
X78087266Y-86220568D01*
X78293504Y-86316739D01*
X78513308Y-86375635D01*
X78675230Y-86389801D01*
X78739998Y-86395468D01*
X78740000Y-86395468D01*
X78740002Y-86395468D01*
X78796673Y-86390509D01*
X78966692Y-86375635D01*
X79186496Y-86316739D01*
X79392734Y-86220568D01*
X79579139Y-86090047D01*
X79740047Y-85929139D01*
X79870568Y-85742734D01*
X79966739Y-85536496D01*
X80025635Y-85316692D01*
X80045468Y-85090000D01*
X80025635Y-84863308D01*
X79966739Y-84643504D01*
X79870568Y-84437266D01*
X79740047Y-84250861D01*
X79740045Y-84250858D01*
X79579141Y-84089954D01*
X79392734Y-83959432D01*
X79392732Y-83959431D01*
X79186497Y-83863261D01*
X79186488Y-83863258D01*
X78966697Y-83804366D01*
X78966693Y-83804365D01*
X78966692Y-83804365D01*
X78966691Y-83804364D01*
X78966686Y-83804364D01*
X78740002Y-83784532D01*
X78739998Y-83784532D01*
X78513313Y-83804364D01*
X78513302Y-83804366D01*
X78293511Y-83863258D01*
X78293502Y-83863261D01*
X78087267Y-83959431D01*
X78087265Y-83959432D01*
X77900858Y-84089954D01*
X77739954Y-84250858D01*
X77609432Y-84437265D01*
X77609431Y-84437267D01*
X77513261Y-84643502D01*
X77513258Y-84643511D01*
X77454366Y-84863302D01*
X77454364Y-84863313D01*
X77434532Y-85089998D01*
X74965468Y-85089998D01*
X74945635Y-84863308D01*
X74886739Y-84643504D01*
X74790568Y-84437266D01*
X74660047Y-84250861D01*
X74660045Y-84250858D01*
X74499141Y-84089954D01*
X74312734Y-83959432D01*
X74312732Y-83959431D01*
X74106497Y-83863261D01*
X74106488Y-83863258D01*
X73886697Y-83804366D01*
X73886693Y-83804365D01*
X73886692Y-83804365D01*
X73886691Y-83804364D01*
X73886686Y-83804364D01*
X73660002Y-83784532D01*
X73659998Y-83784532D01*
X73433313Y-83804364D01*
X73433302Y-83804366D01*
X73213511Y-83863258D01*
X73213502Y-83863261D01*
X73007267Y-83959431D01*
X73007265Y-83959432D01*
X72820858Y-84089954D01*
X72659954Y-84250858D01*
X72529432Y-84437265D01*
X72529431Y-84437267D01*
X72433261Y-84643502D01*
X72433258Y-84643511D01*
X72374366Y-84863302D01*
X72374364Y-84863313D01*
X72354532Y-85089998D01*
X69398000Y-85089998D01*
X69398000Y-80009998D01*
X72354532Y-80009998D01*
X72354532Y-80010001D01*
X72374364Y-80236686D01*
X72374366Y-80236697D01*
X72433258Y-80456488D01*
X72433261Y-80456497D01*
X72529431Y-80662732D01*
X72529432Y-80662734D01*
X72659954Y-80849141D01*
X72820858Y-81010045D01*
X72820861Y-81010047D01*
X73007266Y-81140568D01*
X73213504Y-81236739D01*
X73433308Y-81295635D01*
X73595230Y-81309801D01*
X73659998Y-81315468D01*
X73660000Y-81315468D01*
X73660002Y-81315468D01*
X73716673Y-81310509D01*
X73886692Y-81295635D01*
X74106496Y-81236739D01*
X74312734Y-81140568D01*
X74499139Y-81010047D01*
X74660047Y-80849139D01*
X74790568Y-80662734D01*
X74886739Y-80456496D01*
X74945635Y-80236692D01*
X74965468Y-80010000D01*
X74965468Y-80009998D01*
X77434532Y-80009998D01*
X77434532Y-80010001D01*
X77454364Y-80236686D01*
X77454366Y-80236697D01*
X77513258Y-80456488D01*
X77513261Y-80456497D01*
X77609431Y-80662732D01*
X77609432Y-80662734D01*
X77739954Y-80849141D01*
X77900858Y-81010045D01*
X77900861Y-81010047D01*
X78087266Y-81140568D01*
X78293504Y-81236739D01*
X78513308Y-81295635D01*
X78675230Y-81309801D01*
X78739998Y-81315468D01*
X78740000Y-81315468D01*
X78740002Y-81315468D01*
X78796673Y-81310509D01*
X78966692Y-81295635D01*
X79186496Y-81236739D01*
X79392734Y-81140568D01*
X79579139Y-81010047D01*
X79740047Y-80849139D01*
X79870568Y-80662734D01*
X79966739Y-80456496D01*
X80025635Y-80236692D01*
X80045468Y-80010000D01*
X80025635Y-79783308D01*
X79966739Y-79563504D01*
X79870568Y-79357266D01*
X79740047Y-79170861D01*
X79740045Y-79170858D01*
X79579141Y-79009954D01*
X79392734Y-78879432D01*
X79392732Y-78879431D01*
X79186497Y-78783261D01*
X79186488Y-78783258D01*
X78966697Y-78724366D01*
X78966693Y-78724365D01*
X78966692Y-78724365D01*
X78966691Y-78724364D01*
X78966686Y-78724364D01*
X78740002Y-78704532D01*
X78739998Y-78704532D01*
X78513313Y-78724364D01*
X78513302Y-78724366D01*
X78293511Y-78783258D01*
X78293502Y-78783261D01*
X78087267Y-78879431D01*
X78087265Y-78879432D01*
X77900858Y-79009954D01*
X77739954Y-79170858D01*
X77609432Y-79357265D01*
X77609431Y-79357267D01*
X77513261Y-79563502D01*
X77513258Y-79563511D01*
X77454366Y-79783302D01*
X77454364Y-79783313D01*
X77434532Y-80009998D01*
X74965468Y-80009998D01*
X74945635Y-79783308D01*
X74886739Y-79563504D01*
X74790568Y-79357266D01*
X74660047Y-79170861D01*
X74660045Y-79170858D01*
X74499141Y-79009954D01*
X74312734Y-78879432D01*
X74312732Y-78879431D01*
X74106497Y-78783261D01*
X74106488Y-78783258D01*
X73886697Y-78724366D01*
X73886693Y-78724365D01*
X73886692Y-78724365D01*
X73886691Y-78724364D01*
X73886686Y-78724364D01*
X73660002Y-78704532D01*
X73659998Y-78704532D01*
X73433313Y-78724364D01*
X73433302Y-78724366D01*
X73213511Y-78783258D01*
X73213502Y-78783261D01*
X73007267Y-78879431D01*
X73007265Y-78879432D01*
X72820858Y-79009954D01*
X72659954Y-79170858D01*
X72529432Y-79357265D01*
X72529431Y-79357267D01*
X72433261Y-79563502D01*
X72433258Y-79563511D01*
X72374366Y-79783302D01*
X72374364Y-79783313D01*
X72354532Y-80009998D01*
X69398000Y-80009998D01*
X69398000Y-74929998D01*
X72354532Y-74929998D01*
X72354532Y-74930001D01*
X72374364Y-75156686D01*
X72374366Y-75156697D01*
X72433258Y-75376488D01*
X72433261Y-75376497D01*
X72529431Y-75582732D01*
X72529432Y-75582734D01*
X72659954Y-75769141D01*
X72820858Y-75930045D01*
X72820861Y-75930047D01*
X73007266Y-76060568D01*
X73213504Y-76156739D01*
X73433308Y-76215635D01*
X73595230Y-76229801D01*
X73659998Y-76235468D01*
X73660000Y-76235468D01*
X73660002Y-76235468D01*
X73716673Y-76230509D01*
X73886692Y-76215635D01*
X74106496Y-76156739D01*
X74312734Y-76060568D01*
X74499139Y-75930047D01*
X74660047Y-75769139D01*
X74790568Y-75582734D01*
X74886739Y-75376496D01*
X74945635Y-75156692D01*
X74965468Y-74930000D01*
X74965468Y-74929998D01*
X77434532Y-74929998D01*
X77434532Y-74930001D01*
X77454364Y-75156686D01*
X77454366Y-75156697D01*
X77513258Y-75376488D01*
X77513261Y-75376497D01*
X77609431Y-75582732D01*
X77609432Y-75582734D01*
X77739954Y-75769141D01*
X77900858Y-75930045D01*
X77900861Y-75930047D01*
X78087266Y-76060568D01*
X78293504Y-76156739D01*
X78513308Y-76215635D01*
X78675230Y-76229801D01*
X78739998Y-76235468D01*
X78740000Y-76235468D01*
X78740002Y-76235468D01*
X78796673Y-76230509D01*
X78966692Y-76215635D01*
X79186496Y-76156739D01*
X79392734Y-76060568D01*
X79579139Y-75930047D01*
X79740047Y-75769139D01*
X79870568Y-75582734D01*
X79966739Y-75376496D01*
X80025635Y-75156692D01*
X80045468Y-74930000D01*
X80025635Y-74703308D01*
X79966739Y-74483504D01*
X79870568Y-74277266D01*
X79740047Y-74090861D01*
X79740045Y-74090858D01*
X79579141Y-73929954D01*
X79392734Y-73799432D01*
X79392732Y-73799431D01*
X79186497Y-73703261D01*
X79186488Y-73703258D01*
X78966697Y-73644366D01*
X78966693Y-73644365D01*
X78966692Y-73644365D01*
X78966691Y-73644364D01*
X78966686Y-73644364D01*
X78740002Y-73624532D01*
X78739998Y-73624532D01*
X78513313Y-73644364D01*
X78513302Y-73644366D01*
X78293511Y-73703258D01*
X78293502Y-73703261D01*
X78087267Y-73799431D01*
X78087265Y-73799432D01*
X77900858Y-73929954D01*
X77739954Y-74090858D01*
X77609432Y-74277265D01*
X77609431Y-74277267D01*
X77513261Y-74483502D01*
X77513258Y-74483511D01*
X77454366Y-74703302D01*
X77454364Y-74703313D01*
X77434532Y-74929998D01*
X74965468Y-74929998D01*
X74945635Y-74703308D01*
X74886739Y-74483504D01*
X74790568Y-74277266D01*
X74660047Y-74090861D01*
X74660045Y-74090858D01*
X74499141Y-73929954D01*
X74312734Y-73799432D01*
X74312732Y-73799431D01*
X74106497Y-73703261D01*
X74106488Y-73703258D01*
X73886697Y-73644366D01*
X73886693Y-73644365D01*
X73886692Y-73644365D01*
X73886691Y-73644364D01*
X73886686Y-73644364D01*
X73660002Y-73624532D01*
X73659998Y-73624532D01*
X73433313Y-73644364D01*
X73433302Y-73644366D01*
X73213511Y-73703258D01*
X73213502Y-73703261D01*
X73007267Y-73799431D01*
X73007265Y-73799432D01*
X72820858Y-73929954D01*
X72659954Y-74090858D01*
X72529432Y-74277265D01*
X72529431Y-74277267D01*
X72433261Y-74483502D01*
X72433258Y-74483511D01*
X72374366Y-74703302D01*
X72374364Y-74703313D01*
X72354532Y-74929998D01*
X69398000Y-74929998D01*
X69398000Y-69849998D01*
X72354532Y-69849998D01*
X72354532Y-69850001D01*
X72374364Y-70076686D01*
X72374366Y-70076697D01*
X72433258Y-70296488D01*
X72433261Y-70296497D01*
X72529431Y-70502732D01*
X72529432Y-70502734D01*
X72659954Y-70689141D01*
X72820858Y-70850045D01*
X72820861Y-70850047D01*
X73007266Y-70980568D01*
X73213504Y-71076739D01*
X73433308Y-71135635D01*
X73595230Y-71149801D01*
X73659998Y-71155468D01*
X73660000Y-71155468D01*
X73660002Y-71155468D01*
X73716673Y-71150509D01*
X73886692Y-71135635D01*
X74106496Y-71076739D01*
X74312734Y-70980568D01*
X74499139Y-70850047D01*
X74660047Y-70689139D01*
X74790568Y-70502734D01*
X74886739Y-70296496D01*
X74945635Y-70076692D01*
X74965468Y-69850000D01*
X74965468Y-69849998D01*
X77434532Y-69849998D01*
X77434532Y-69850001D01*
X77454364Y-70076686D01*
X77454366Y-70076697D01*
X77513258Y-70296488D01*
X77513261Y-70296497D01*
X77609431Y-70502732D01*
X77609432Y-70502734D01*
X77739954Y-70689141D01*
X77900858Y-70850045D01*
X77900861Y-70850047D01*
X78087266Y-70980568D01*
X78293504Y-71076739D01*
X78513308Y-71135635D01*
X78675230Y-71149801D01*
X78739998Y-71155468D01*
X78740000Y-71155468D01*
X78740002Y-71155468D01*
X78796673Y-71150509D01*
X78966692Y-71135635D01*
X79186496Y-71076739D01*
X79392734Y-70980568D01*
X79579139Y-70850047D01*
X79740047Y-70689139D01*
X79870568Y-70502734D01*
X79966739Y-70296496D01*
X80025635Y-70076692D01*
X80045468Y-69850000D01*
X80025635Y-69623308D01*
X79966739Y-69403504D01*
X79870568Y-69197266D01*
X79740047Y-69010861D01*
X79740045Y-69010858D01*
X79579141Y-68849954D01*
X79392734Y-68719432D01*
X79392732Y-68719431D01*
X79186497Y-68623261D01*
X79186488Y-68623258D01*
X78966697Y-68564366D01*
X78966693Y-68564365D01*
X78966692Y-68564365D01*
X78966691Y-68564364D01*
X78966686Y-68564364D01*
X78740002Y-68544532D01*
X78739998Y-68544532D01*
X78513313Y-68564364D01*
X78513302Y-68564366D01*
X78293511Y-68623258D01*
X78293502Y-68623261D01*
X78087267Y-68719431D01*
X78087265Y-68719432D01*
X77900858Y-68849954D01*
X77739954Y-69010858D01*
X77609432Y-69197265D01*
X77609431Y-69197267D01*
X77513261Y-69403502D01*
X77513258Y-69403511D01*
X77454366Y-69623302D01*
X77454364Y-69623313D01*
X77434532Y-69849998D01*
X74965468Y-69849998D01*
X74945635Y-69623308D01*
X74886739Y-69403504D01*
X74790568Y-69197266D01*
X74660047Y-69010861D01*
X74660045Y-69010858D01*
X74499141Y-68849954D01*
X74312734Y-68719432D01*
X74312732Y-68719431D01*
X74106497Y-68623261D01*
X74106488Y-68623258D01*
X73886697Y-68564366D01*
X73886693Y-68564365D01*
X73886692Y-68564365D01*
X73886691Y-68564364D01*
X73886686Y-68564364D01*
X73660002Y-68544532D01*
X73659998Y-68544532D01*
X73433313Y-68564364D01*
X73433302Y-68564366D01*
X73213511Y-68623258D01*
X73213502Y-68623261D01*
X73007267Y-68719431D01*
X73007265Y-68719432D01*
X72820858Y-68849954D01*
X72659954Y-69010858D01*
X72529432Y-69197265D01*
X72529431Y-69197267D01*
X72433261Y-69403502D01*
X72433258Y-69403511D01*
X72374366Y-69623302D01*
X72374364Y-69623313D01*
X72354532Y-69849998D01*
X69398000Y-69849998D01*
X69398000Y-64519999D01*
X72381127Y-64519999D01*
X72381128Y-64520000D01*
X73344314Y-64520000D01*
X73339920Y-64524394D01*
X73287259Y-64615606D01*
X73260000Y-64717339D01*
X73260000Y-64822661D01*
X73287259Y-64924394D01*
X73339920Y-65015606D01*
X73344314Y-65020000D01*
X72381128Y-65020000D01*
X72433730Y-65216317D01*
X72433734Y-65216326D01*
X72529865Y-65422482D01*
X72660342Y-65608820D01*
X72821179Y-65769657D01*
X73007517Y-65900134D01*
X73213673Y-65996265D01*
X73213682Y-65996269D01*
X73409999Y-66048872D01*
X73410000Y-66048871D01*
X73410000Y-65085686D01*
X73414394Y-65090080D01*
X73505606Y-65142741D01*
X73607339Y-65170000D01*
X73712661Y-65170000D01*
X73814394Y-65142741D01*
X73905606Y-65090080D01*
X73910000Y-65085686D01*
X73910000Y-66048872D01*
X74106317Y-65996269D01*
X74106326Y-65996265D01*
X74312482Y-65900134D01*
X74498820Y-65769657D01*
X74659657Y-65608820D01*
X74790134Y-65422482D01*
X74886265Y-65216326D01*
X74886269Y-65216317D01*
X74938872Y-65020000D01*
X73975686Y-65020000D01*
X73980080Y-65015606D01*
X74032741Y-64924394D01*
X74060000Y-64822661D01*
X74060000Y-64717339D01*
X74032741Y-64615606D01*
X73980080Y-64524394D01*
X73975686Y-64520000D01*
X74938872Y-64520000D01*
X74938872Y-64519999D01*
X77461127Y-64519999D01*
X77461128Y-64520000D01*
X78424314Y-64520000D01*
X78419920Y-64524394D01*
X78367259Y-64615606D01*
X78340000Y-64717339D01*
X78340000Y-64822661D01*
X78367259Y-64924394D01*
X78419920Y-65015606D01*
X78424314Y-65020000D01*
X77461128Y-65020000D01*
X77513730Y-65216317D01*
X77513734Y-65216326D01*
X77609865Y-65422482D01*
X77740342Y-65608820D01*
X77901179Y-65769657D01*
X78087517Y-65900134D01*
X78293673Y-65996265D01*
X78293682Y-65996269D01*
X78489999Y-66048872D01*
X78490000Y-66048871D01*
X78490000Y-65085686D01*
X78494394Y-65090080D01*
X78585606Y-65142741D01*
X78687339Y-65170000D01*
X78792661Y-65170000D01*
X78894394Y-65142741D01*
X78985606Y-65090080D01*
X78990000Y-65085686D01*
X78990000Y-66048872D01*
X79186317Y-65996269D01*
X79186326Y-65996265D01*
X79392482Y-65900134D01*
X79578820Y-65769657D01*
X79739657Y-65608820D01*
X79870134Y-65422482D01*
X79966265Y-65216326D01*
X79966269Y-65216317D01*
X80018872Y-65020000D01*
X79055686Y-65020000D01*
X79060080Y-65015606D01*
X79112741Y-64924394D01*
X79140000Y-64822661D01*
X79140000Y-64717339D01*
X79112741Y-64615606D01*
X79060080Y-64524394D01*
X79055686Y-64520000D01*
X80018872Y-64520000D01*
X80018872Y-64519999D01*
X79966269Y-64323682D01*
X79966265Y-64323673D01*
X79870134Y-64117517D01*
X79739657Y-63931179D01*
X79578820Y-63770342D01*
X79392482Y-63639865D01*
X79186328Y-63543734D01*
X78990000Y-63491127D01*
X78990000Y-64454314D01*
X78985606Y-64449920D01*
X78894394Y-64397259D01*
X78792661Y-64370000D01*
X78687339Y-64370000D01*
X78585606Y-64397259D01*
X78494394Y-64449920D01*
X78490000Y-64454314D01*
X78490000Y-63491127D01*
X78293671Y-63543734D01*
X78087517Y-63639865D01*
X77901179Y-63770342D01*
X77740342Y-63931179D01*
X77609865Y-64117517D01*
X77513734Y-64323673D01*
X77513730Y-64323682D01*
X77461127Y-64519999D01*
X74938872Y-64519999D01*
X74886269Y-64323682D01*
X74886265Y-64323673D01*
X74790134Y-64117517D01*
X74659657Y-63931179D01*
X74498820Y-63770342D01*
X74312482Y-63639865D01*
X74106328Y-63543734D01*
X73910000Y-63491127D01*
X73910000Y-64454314D01*
X73905606Y-64449920D01*
X73814394Y-64397259D01*
X73712661Y-64370000D01*
X73607339Y-64370000D01*
X73505606Y-64397259D01*
X73414394Y-64449920D01*
X73410000Y-64454314D01*
X73410000Y-63491127D01*
X73213671Y-63543734D01*
X73007517Y-63639865D01*
X72821179Y-63770342D01*
X72660342Y-63931179D01*
X72529865Y-64117517D01*
X72433734Y-64323673D01*
X72433730Y-64323682D01*
X72381127Y-64519999D01*
X69398000Y-64519999D01*
X69398000Y-64489434D01*
X69366565Y-64331398D01*
X69307228Y-64188149D01*
X69305584Y-64183551D01*
X69215382Y-64048554D01*
X69215379Y-64048551D01*
X63667395Y-58500568D01*
X77921999Y-58500568D01*
X77953434Y-58658595D01*
X77953436Y-58658603D01*
X78015097Y-58807468D01*
X78015098Y-58807471D01*
X78104617Y-58941444D01*
X78104620Y-58941448D01*
X82965681Y-63802508D01*
X82999166Y-63863831D01*
X83002000Y-63890189D01*
X83002000Y-91520567D01*
X83033433Y-91678595D01*
X83033435Y-91678601D01*
X83061961Y-91747468D01*
X83061961Y-91747470D01*
X83095097Y-91827468D01*
X83095098Y-91827470D01*
X83184617Y-91961444D01*
X83184620Y-91961448D01*
X86315277Y-95092103D01*
X86315298Y-95092126D01*
X86369166Y-95145993D01*
X86402652Y-95207316D01*
X86405015Y-95244476D01*
X86404532Y-95250000D01*
X86404532Y-95250001D01*
X86424364Y-95476686D01*
X86424366Y-95476697D01*
X86483258Y-95696488D01*
X86483261Y-95696497D01*
X86579431Y-95902732D01*
X86579432Y-95902734D01*
X86709954Y-96089141D01*
X86870858Y-96250045D01*
X86870861Y-96250047D01*
X87057266Y-96380568D01*
X87263504Y-96476739D01*
X87483308Y-96535635D01*
X87645230Y-96549801D01*
X87709998Y-96555468D01*
X87710000Y-96555468D01*
X87710002Y-96555468D01*
X87766673Y-96550509D01*
X87936692Y-96535635D01*
X88156496Y-96476739D01*
X88362734Y-96380568D01*
X88549139Y-96250047D01*
X88710047Y-96089139D01*
X88840568Y-95902734D01*
X88936739Y-95696496D01*
X88995635Y-95476692D01*
X89015468Y-95250000D01*
X89015468Y-95249998D01*
X91404532Y-95249998D01*
X91404532Y-95250001D01*
X91424364Y-95476686D01*
X91424366Y-95476697D01*
X91483258Y-95696488D01*
X91483261Y-95696497D01*
X91579431Y-95902732D01*
X91579432Y-95902734D01*
X91709954Y-96089141D01*
X91870858Y-96250045D01*
X91870861Y-96250047D01*
X92057266Y-96380568D01*
X92263504Y-96476739D01*
X92483308Y-96535635D01*
X92645230Y-96549801D01*
X92709998Y-96555468D01*
X92710000Y-96555468D01*
X92710002Y-96555468D01*
X92766673Y-96550509D01*
X92936692Y-96535635D01*
X93156496Y-96476739D01*
X93362734Y-96380568D01*
X93549139Y-96250047D01*
X93710047Y-96089139D01*
X93840568Y-95902734D01*
X93867618Y-95844724D01*
X93913790Y-95792285D01*
X93980983Y-95773133D01*
X94047865Y-95793348D01*
X94092382Y-95844725D01*
X94119429Y-95902728D01*
X94119432Y-95902734D01*
X94249954Y-96089141D01*
X94410858Y-96250045D01*
X94410861Y-96250047D01*
X94597266Y-96380568D01*
X94803504Y-96476739D01*
X95023308Y-96535635D01*
X95185230Y-96549801D01*
X95249998Y-96555468D01*
X95250000Y-96555468D01*
X95250002Y-96555468D01*
X95306673Y-96550509D01*
X95476692Y-96535635D01*
X95696496Y-96476739D01*
X95902734Y-96380568D01*
X96089139Y-96250047D01*
X96250047Y-96089139D01*
X96380568Y-95902734D01*
X96476739Y-95696496D01*
X96535635Y-95476692D01*
X96555468Y-95250000D01*
X96535635Y-95023308D01*
X96529389Y-94999999D01*
X104131127Y-94999999D01*
X104131128Y-95000000D01*
X105094314Y-95000000D01*
X105089920Y-95004394D01*
X105037259Y-95095606D01*
X105010000Y-95197339D01*
X105010000Y-95302661D01*
X105037259Y-95404394D01*
X105089920Y-95495606D01*
X105094314Y-95500000D01*
X104131128Y-95500000D01*
X104183730Y-95696317D01*
X104183734Y-95696326D01*
X104279865Y-95902482D01*
X104410342Y-96088820D01*
X104571179Y-96249657D01*
X104757517Y-96380134D01*
X104963673Y-96476265D01*
X104963682Y-96476269D01*
X105159999Y-96528872D01*
X105160000Y-96528871D01*
X105160000Y-95565686D01*
X105164394Y-95570080D01*
X105255606Y-95622741D01*
X105357339Y-95650000D01*
X105462661Y-95650000D01*
X105564394Y-95622741D01*
X105655606Y-95570080D01*
X105660000Y-95565686D01*
X105660000Y-96528872D01*
X105856317Y-96476269D01*
X105856326Y-96476265D01*
X106062482Y-96380134D01*
X106248820Y-96249657D01*
X106409657Y-96088820D01*
X106540134Y-95902482D01*
X106636265Y-95696326D01*
X106636269Y-95696317D01*
X106688872Y-95500000D01*
X105725686Y-95500000D01*
X105730080Y-95495606D01*
X105782741Y-95404394D01*
X105810000Y-95302661D01*
X105810000Y-95197339D01*
X105782741Y-95095606D01*
X105730080Y-95004394D01*
X105725686Y-95000000D01*
X106688872Y-95000000D01*
X106688872Y-94999999D01*
X106636269Y-94803682D01*
X106636265Y-94803673D01*
X106540134Y-94597517D01*
X106409657Y-94411179D01*
X106248820Y-94250342D01*
X106062482Y-94119865D01*
X105856328Y-94023734D01*
X105660000Y-93971127D01*
X105660000Y-94934314D01*
X105655606Y-94929920D01*
X105564394Y-94877259D01*
X105462661Y-94850000D01*
X105357339Y-94850000D01*
X105255606Y-94877259D01*
X105164394Y-94929920D01*
X105160000Y-94934314D01*
X105160000Y-93971127D01*
X104963671Y-94023734D01*
X104757517Y-94119865D01*
X104571179Y-94250342D01*
X104410342Y-94411179D01*
X104279865Y-94597517D01*
X104183734Y-94803673D01*
X104183730Y-94803682D01*
X104131127Y-94999999D01*
X96529389Y-94999999D01*
X96476739Y-94803504D01*
X96380568Y-94597266D01*
X96250047Y-94410861D01*
X96250045Y-94410858D01*
X96089141Y-94249954D01*
X95902734Y-94119432D01*
X95902732Y-94119431D01*
X95696497Y-94023261D01*
X95696488Y-94023258D01*
X95476697Y-93964366D01*
X95476693Y-93964365D01*
X95476692Y-93964365D01*
X95476691Y-93964364D01*
X95476686Y-93964364D01*
X95250002Y-93944532D01*
X95249998Y-93944532D01*
X95023313Y-93964364D01*
X95023302Y-93964366D01*
X94803511Y-94023258D01*
X94803502Y-94023261D01*
X94597267Y-94119431D01*
X94597265Y-94119432D01*
X94410858Y-94249954D01*
X94249954Y-94410858D01*
X94119432Y-94597265D01*
X94119431Y-94597267D01*
X94092382Y-94655275D01*
X94046209Y-94707714D01*
X93979016Y-94726866D01*
X93912135Y-94706650D01*
X93867618Y-94655275D01*
X93842838Y-94602135D01*
X93840568Y-94597266D01*
X93710047Y-94410861D01*
X93710045Y-94410858D01*
X93549141Y-94249954D01*
X93362734Y-94119432D01*
X93362732Y-94119431D01*
X93156497Y-94023261D01*
X93156488Y-94023258D01*
X92936697Y-93964366D01*
X92936693Y-93964365D01*
X92936692Y-93964365D01*
X92936691Y-93964364D01*
X92936686Y-93964364D01*
X92710002Y-93944532D01*
X92709998Y-93944532D01*
X92483313Y-93964364D01*
X92483302Y-93964366D01*
X92263511Y-94023258D01*
X92263502Y-94023261D01*
X92057267Y-94119431D01*
X92057265Y-94119432D01*
X91870858Y-94249954D01*
X91709954Y-94410858D01*
X91579432Y-94597265D01*
X91579431Y-94597267D01*
X91483261Y-94803502D01*
X91483258Y-94803511D01*
X91424366Y-95023302D01*
X91424364Y-95023313D01*
X91404532Y-95249998D01*
X89015468Y-95249998D01*
X88995635Y-95023308D01*
X88936739Y-94803504D01*
X88840568Y-94597266D01*
X88710047Y-94410861D01*
X88710045Y-94410858D01*
X88549141Y-94249954D01*
X88362734Y-94119432D01*
X88362732Y-94119431D01*
X88156497Y-94023261D01*
X88156488Y-94023258D01*
X87936697Y-93964366D01*
X87936693Y-93964365D01*
X87936692Y-93964365D01*
X87936691Y-93964364D01*
X87936686Y-93964364D01*
X87710002Y-93944532D01*
X87709998Y-93944532D01*
X87624166Y-93952041D01*
X87555666Y-93938274D01*
X87544468Y-93931615D01*
X87422474Y-93850100D01*
X87422465Y-93850095D01*
X87384575Y-93834401D01*
X87344347Y-93807521D01*
X84674319Y-91137492D01*
X84640834Y-91076169D01*
X84638000Y-91049811D01*
X84638000Y-90169998D01*
X87594532Y-90169998D01*
X87594532Y-90170001D01*
X87614364Y-90396686D01*
X87614366Y-90396697D01*
X87673258Y-90616488D01*
X87673261Y-90616497D01*
X87769431Y-90822732D01*
X87769432Y-90822734D01*
X87899954Y-91009141D01*
X88060858Y-91170045D01*
X88060861Y-91170047D01*
X88247266Y-91300568D01*
X88453504Y-91396739D01*
X88673308Y-91455635D01*
X88835230Y-91469801D01*
X88899998Y-91475468D01*
X88900000Y-91475468D01*
X88900002Y-91475468D01*
X88956673Y-91470509D01*
X89126692Y-91455635D01*
X89346496Y-91396739D01*
X89552734Y-91300568D01*
X89739139Y-91170047D01*
X89900047Y-91009139D01*
X90030568Y-90822734D01*
X90126739Y-90616496D01*
X90185635Y-90396692D01*
X90205468Y-90170000D01*
X90185635Y-89943308D01*
X90126739Y-89723504D01*
X90030568Y-89517266D01*
X89900047Y-89330861D01*
X89900045Y-89330858D01*
X89739141Y-89169954D01*
X89552734Y-89039432D01*
X89552732Y-89039431D01*
X89346497Y-88943261D01*
X89346488Y-88943258D01*
X89126697Y-88884366D01*
X89126693Y-88884365D01*
X89126692Y-88884365D01*
X89126691Y-88884364D01*
X89126686Y-88884364D01*
X88900002Y-88864532D01*
X88899998Y-88864532D01*
X88673313Y-88884364D01*
X88673302Y-88884366D01*
X88453511Y-88943258D01*
X88453502Y-88943261D01*
X88247267Y-89039431D01*
X88247265Y-89039432D01*
X88060858Y-89169954D01*
X87899954Y-89330858D01*
X87769432Y-89517265D01*
X87769431Y-89517267D01*
X87673261Y-89723502D01*
X87673258Y-89723511D01*
X87614366Y-89943302D01*
X87614364Y-89943313D01*
X87594532Y-90169998D01*
X84638000Y-90169998D01*
X84638000Y-69849998D01*
X87594532Y-69849998D01*
X87594532Y-69850001D01*
X87614364Y-70076686D01*
X87614366Y-70076697D01*
X87673258Y-70296488D01*
X87673261Y-70296497D01*
X87769431Y-70502732D01*
X87769432Y-70502734D01*
X87899954Y-70689141D01*
X88060858Y-70850045D01*
X88060861Y-70850047D01*
X88247266Y-70980568D01*
X88453504Y-71076739D01*
X88673308Y-71135635D01*
X88835230Y-71149801D01*
X88899998Y-71155468D01*
X88900000Y-71155468D01*
X88900002Y-71155468D01*
X88956673Y-71150509D01*
X89126692Y-71135635D01*
X89346496Y-71076739D01*
X89552734Y-70980568D01*
X89739139Y-70850047D01*
X89900047Y-70689139D01*
X90030568Y-70502734D01*
X90126739Y-70296496D01*
X90170726Y-70132335D01*
X90207090Y-70072676D01*
X90269937Y-70042147D01*
X90339312Y-70050442D01*
X90393190Y-70094927D01*
X90414465Y-70161479D01*
X90414500Y-70164430D01*
X90414500Y-70176007D01*
X90453907Y-70374119D01*
X90453909Y-70374127D01*
X90531212Y-70560752D01*
X90531217Y-70560762D01*
X90643441Y-70728718D01*
X90786281Y-70871558D01*
X90954237Y-70983782D01*
X90954241Y-70983784D01*
X90954244Y-70983786D01*
X91140873Y-71061091D01*
X91338992Y-71100499D01*
X91338996Y-71100500D01*
X91338997Y-71100500D01*
X91541004Y-71100500D01*
X91541005Y-71100499D01*
X91660464Y-71076738D01*
X91743809Y-71060160D01*
X91813400Y-71066387D01*
X91868578Y-71109250D01*
X91891822Y-71175140D01*
X91892000Y-71181777D01*
X91892000Y-73598222D01*
X91872315Y-73665261D01*
X91819511Y-73711016D01*
X91750353Y-73720960D01*
X91743809Y-73719839D01*
X91541007Y-73679500D01*
X91541003Y-73679500D01*
X91338997Y-73679500D01*
X91338992Y-73679500D01*
X91140880Y-73718907D01*
X91140872Y-73718909D01*
X90954247Y-73796212D01*
X90954237Y-73796217D01*
X90786281Y-73908441D01*
X90643441Y-74051281D01*
X90531217Y-74219237D01*
X90531212Y-74219247D01*
X90453909Y-74405872D01*
X90453907Y-74405880D01*
X90414500Y-74603992D01*
X90414500Y-74615569D01*
X90394815Y-74682608D01*
X90342011Y-74728363D01*
X90272853Y-74738307D01*
X90209297Y-74709282D01*
X90171523Y-74650504D01*
X90170725Y-74647662D01*
X90126741Y-74483511D01*
X90126738Y-74483502D01*
X90030568Y-74277267D01*
X90030567Y-74277265D01*
X89900045Y-74090858D01*
X89739141Y-73929954D01*
X89552734Y-73799432D01*
X89552732Y-73799431D01*
X89346497Y-73703261D01*
X89346488Y-73703258D01*
X89126697Y-73644366D01*
X89126693Y-73644365D01*
X89126692Y-73644365D01*
X89126691Y-73644364D01*
X89126686Y-73644364D01*
X88900002Y-73624532D01*
X88899998Y-73624532D01*
X88673313Y-73644364D01*
X88673302Y-73644366D01*
X88453511Y-73703258D01*
X88453502Y-73703261D01*
X88247267Y-73799431D01*
X88247265Y-73799432D01*
X88060858Y-73929954D01*
X87899954Y-74090858D01*
X87769432Y-74277265D01*
X87769431Y-74277267D01*
X87673261Y-74483502D01*
X87673258Y-74483511D01*
X87614366Y-74703302D01*
X87614364Y-74703313D01*
X87594532Y-74929998D01*
X87594532Y-74930001D01*
X87614364Y-75156686D01*
X87614366Y-75156697D01*
X87673258Y-75376488D01*
X87673261Y-75376497D01*
X87769431Y-75582732D01*
X87769432Y-75582734D01*
X87899954Y-75769141D01*
X88060858Y-75930045D01*
X88060861Y-75930047D01*
X88247266Y-76060568D01*
X88453504Y-76156739D01*
X88673308Y-76215635D01*
X88835230Y-76229801D01*
X88899998Y-76235468D01*
X88900000Y-76235468D01*
X88900002Y-76235468D01*
X88956673Y-76230509D01*
X89126692Y-76215635D01*
X89346496Y-76156739D01*
X89552734Y-76060568D01*
X89739139Y-75930047D01*
X89900047Y-75769139D01*
X90030568Y-75582734D01*
X90126739Y-75376496D01*
X90170726Y-75212335D01*
X90207090Y-75152676D01*
X90269937Y-75122147D01*
X90339312Y-75130442D01*
X90393190Y-75174927D01*
X90414465Y-75241479D01*
X90414500Y-75244430D01*
X90414500Y-75256007D01*
X90453907Y-75454119D01*
X90453909Y-75454127D01*
X90531212Y-75640752D01*
X90531217Y-75640762D01*
X90643441Y-75808718D01*
X90786281Y-75951558D01*
X90954237Y-76063782D01*
X90954241Y-76063784D01*
X90954244Y-76063786D01*
X91140873Y-76141091D01*
X91338992Y-76180499D01*
X91338996Y-76180500D01*
X91338997Y-76180500D01*
X91541004Y-76180500D01*
X91541005Y-76180499D01*
X91660464Y-76156738D01*
X91743809Y-76140160D01*
X91813400Y-76146387D01*
X91868578Y-76189250D01*
X91891822Y-76255140D01*
X91892000Y-76261777D01*
X91892000Y-78678222D01*
X91872315Y-78745261D01*
X91819511Y-78791016D01*
X91750353Y-78800960D01*
X91743809Y-78799839D01*
X91541007Y-78759500D01*
X91541003Y-78759500D01*
X91338997Y-78759500D01*
X91338992Y-78759500D01*
X91140880Y-78798907D01*
X91140872Y-78798909D01*
X90954247Y-78876212D01*
X90954237Y-78876217D01*
X90786281Y-78988441D01*
X90643441Y-79131281D01*
X90531217Y-79299237D01*
X90531212Y-79299247D01*
X90453909Y-79485872D01*
X90453907Y-79485880D01*
X90414500Y-79683992D01*
X90414500Y-79695569D01*
X90394815Y-79762608D01*
X90342011Y-79808363D01*
X90272853Y-79818307D01*
X90209297Y-79789282D01*
X90171523Y-79730504D01*
X90170725Y-79727662D01*
X90126741Y-79563511D01*
X90126738Y-79563502D01*
X90030568Y-79357267D01*
X90030567Y-79357265D01*
X89900045Y-79170858D01*
X89739141Y-79009954D01*
X89552734Y-78879432D01*
X89552732Y-78879431D01*
X89346497Y-78783261D01*
X89346488Y-78783258D01*
X89126697Y-78724366D01*
X89126693Y-78724365D01*
X89126692Y-78724365D01*
X89126691Y-78724364D01*
X89126686Y-78724364D01*
X88900002Y-78704532D01*
X88899998Y-78704532D01*
X88673313Y-78724364D01*
X88673302Y-78724366D01*
X88453511Y-78783258D01*
X88453502Y-78783261D01*
X88247267Y-78879431D01*
X88247265Y-78879432D01*
X88060858Y-79009954D01*
X87899954Y-79170858D01*
X87769432Y-79357265D01*
X87769431Y-79357267D01*
X87673261Y-79563502D01*
X87673258Y-79563511D01*
X87614366Y-79783302D01*
X87614364Y-79783313D01*
X87594532Y-80009998D01*
X87594532Y-80010001D01*
X87614364Y-80236686D01*
X87614366Y-80236697D01*
X87673258Y-80456488D01*
X87673261Y-80456497D01*
X87769431Y-80662732D01*
X87769432Y-80662734D01*
X87899954Y-80849141D01*
X88060858Y-81010045D01*
X88060861Y-81010047D01*
X88247266Y-81140568D01*
X88453504Y-81236739D01*
X88673308Y-81295635D01*
X88835230Y-81309801D01*
X88899998Y-81315468D01*
X88900000Y-81315468D01*
X88900002Y-81315468D01*
X88956673Y-81310509D01*
X89126692Y-81295635D01*
X89346496Y-81236739D01*
X89552734Y-81140568D01*
X89739139Y-81010047D01*
X89900047Y-80849139D01*
X90030568Y-80662734D01*
X90126739Y-80456496D01*
X90170726Y-80292335D01*
X90207090Y-80232676D01*
X90269937Y-80202147D01*
X90339312Y-80210442D01*
X90393190Y-80254927D01*
X90414465Y-80321479D01*
X90414500Y-80324430D01*
X90414500Y-80336007D01*
X90453907Y-80534119D01*
X90453909Y-80534127D01*
X90531212Y-80720752D01*
X90531217Y-80720762D01*
X90643441Y-80888718D01*
X90786281Y-81031558D01*
X90954237Y-81143782D01*
X90954241Y-81143784D01*
X90954244Y-81143786D01*
X91140873Y-81221091D01*
X91338992Y-81260499D01*
X91338996Y-81260500D01*
X91338997Y-81260500D01*
X91541004Y-81260500D01*
X91541005Y-81260499D01*
X91660464Y-81236738D01*
X91743809Y-81220160D01*
X91813400Y-81226387D01*
X91868578Y-81269250D01*
X91891822Y-81335140D01*
X91892000Y-81341777D01*
X91892000Y-83758222D01*
X91872315Y-83825261D01*
X91819511Y-83871016D01*
X91750353Y-83880960D01*
X91743809Y-83879839D01*
X91541007Y-83839500D01*
X91541003Y-83839500D01*
X91338997Y-83839500D01*
X91338992Y-83839500D01*
X91140880Y-83878907D01*
X91140872Y-83878909D01*
X90954247Y-83956212D01*
X90954237Y-83956217D01*
X90786281Y-84068441D01*
X90643441Y-84211281D01*
X90531217Y-84379237D01*
X90531212Y-84379247D01*
X90453909Y-84565872D01*
X90453907Y-84565880D01*
X90414500Y-84763992D01*
X90414500Y-84775569D01*
X90394815Y-84842608D01*
X90342011Y-84888363D01*
X90272853Y-84898307D01*
X90209297Y-84869282D01*
X90171523Y-84810504D01*
X90170725Y-84807662D01*
X90126741Y-84643511D01*
X90126738Y-84643502D01*
X90030568Y-84437267D01*
X90030567Y-84437265D01*
X89900045Y-84250858D01*
X89739141Y-84089954D01*
X89552734Y-83959432D01*
X89552732Y-83959431D01*
X89346497Y-83863261D01*
X89346488Y-83863258D01*
X89126697Y-83804366D01*
X89126693Y-83804365D01*
X89126692Y-83804365D01*
X89126691Y-83804364D01*
X89126686Y-83804364D01*
X88900002Y-83784532D01*
X88899998Y-83784532D01*
X88673313Y-83804364D01*
X88673302Y-83804366D01*
X88453511Y-83863258D01*
X88453502Y-83863261D01*
X88247267Y-83959431D01*
X88247265Y-83959432D01*
X88060858Y-84089954D01*
X87899954Y-84250858D01*
X87769432Y-84437265D01*
X87769431Y-84437267D01*
X87673261Y-84643502D01*
X87673258Y-84643511D01*
X87614366Y-84863302D01*
X87614364Y-84863313D01*
X87594532Y-85089998D01*
X87594532Y-85090001D01*
X87614364Y-85316686D01*
X87614366Y-85316697D01*
X87673258Y-85536488D01*
X87673261Y-85536497D01*
X87769431Y-85742732D01*
X87769432Y-85742734D01*
X87899954Y-85929141D01*
X88060858Y-86090045D01*
X88060861Y-86090047D01*
X88247266Y-86220568D01*
X88453504Y-86316739D01*
X88673308Y-86375635D01*
X88835230Y-86389801D01*
X88899998Y-86395468D01*
X88900000Y-86395468D01*
X88900002Y-86395468D01*
X88956673Y-86390509D01*
X89126692Y-86375635D01*
X89346496Y-86316739D01*
X89552734Y-86220568D01*
X89739139Y-86090047D01*
X89900047Y-85929139D01*
X90030568Y-85742734D01*
X90126739Y-85536496D01*
X90170726Y-85372335D01*
X90207090Y-85312676D01*
X90269937Y-85282147D01*
X90339312Y-85290442D01*
X90393190Y-85334927D01*
X90414465Y-85401479D01*
X90414500Y-85404430D01*
X90414500Y-85416007D01*
X90453907Y-85614119D01*
X90453909Y-85614127D01*
X90531212Y-85800752D01*
X90531217Y-85800762D01*
X90643441Y-85968718D01*
X90786281Y-86111558D01*
X90954237Y-86223782D01*
X90954241Y-86223784D01*
X90954244Y-86223786D01*
X91140873Y-86301091D01*
X91306777Y-86334091D01*
X91338992Y-86340499D01*
X91338996Y-86340500D01*
X91338997Y-86340500D01*
X91541004Y-86340500D01*
X91541005Y-86340499D01*
X91660464Y-86316738D01*
X91743809Y-86300160D01*
X91813400Y-86306387D01*
X91868578Y-86349250D01*
X91891822Y-86415140D01*
X91892000Y-86421777D01*
X91892000Y-86440570D01*
X91923433Y-86598594D01*
X91923436Y-86598606D01*
X91985093Y-86747461D01*
X91985100Y-86747474D01*
X92074617Y-86881444D01*
X92074620Y-86881448D01*
X95185603Y-89992429D01*
X95219088Y-90053752D01*
X95221450Y-90090916D01*
X95214532Y-90169996D01*
X95214532Y-90170001D01*
X95234364Y-90396686D01*
X95234366Y-90396697D01*
X95293258Y-90616488D01*
X95293261Y-90616497D01*
X95389431Y-90822732D01*
X95389432Y-90822734D01*
X95519954Y-91009141D01*
X95680858Y-91170045D01*
X95680861Y-91170047D01*
X95867266Y-91300568D01*
X96073504Y-91396739D01*
X96293308Y-91455635D01*
X96455230Y-91469801D01*
X96519998Y-91475468D01*
X96520000Y-91475468D01*
X96520002Y-91475468D01*
X96576673Y-91470509D01*
X96746692Y-91455635D01*
X96966496Y-91396739D01*
X97172734Y-91300568D01*
X97359139Y-91170047D01*
X97520047Y-91009139D01*
X97650568Y-90822734D01*
X97746739Y-90616496D01*
X97805635Y-90396692D01*
X97825468Y-90170000D01*
X97805635Y-89943308D01*
X97746739Y-89723504D01*
X97650568Y-89517266D01*
X97520047Y-89330861D01*
X97520045Y-89330858D01*
X97359141Y-89169954D01*
X97172734Y-89039432D01*
X97172732Y-89039431D01*
X96966497Y-88943261D01*
X96966488Y-88943258D01*
X96746697Y-88884366D01*
X96746693Y-88884365D01*
X96746692Y-88884365D01*
X96746691Y-88884364D01*
X96746686Y-88884364D01*
X96520002Y-88864532D01*
X96519997Y-88864532D01*
X96440916Y-88871450D01*
X96372416Y-88857683D01*
X96342429Y-88835603D01*
X94059007Y-86552180D01*
X94025522Y-86490857D01*
X94030506Y-86421165D01*
X94072378Y-86365232D01*
X94137842Y-86340815D01*
X94146688Y-86340499D01*
X94552871Y-86340499D01*
X94552872Y-86340499D01*
X94612483Y-86334091D01*
X94747331Y-86283796D01*
X94862546Y-86197546D01*
X94948796Y-86082331D01*
X94999091Y-85947483D01*
X95005500Y-85887873D01*
X95005499Y-85404426D01*
X95025183Y-85337390D01*
X95077987Y-85291635D01*
X95147146Y-85281691D01*
X95210702Y-85310716D01*
X95248476Y-85369494D01*
X95249274Y-85372335D01*
X95293259Y-85536491D01*
X95293261Y-85536497D01*
X95389431Y-85742732D01*
X95389432Y-85742734D01*
X95519954Y-85929141D01*
X95680858Y-86090045D01*
X95680861Y-86090047D01*
X95867266Y-86220568D01*
X96073504Y-86316739D01*
X96293308Y-86375635D01*
X96455230Y-86389801D01*
X96519998Y-86395468D01*
X96520000Y-86395468D01*
X96520002Y-86395468D01*
X96576673Y-86390509D01*
X96746692Y-86375635D01*
X96966496Y-86316739D01*
X97172734Y-86220568D01*
X97359139Y-86090047D01*
X97520047Y-85929139D01*
X97650568Y-85742734D01*
X97746739Y-85536496D01*
X97805635Y-85316692D01*
X97825468Y-85090000D01*
X97805635Y-84863308D01*
X97746739Y-84643504D01*
X97650568Y-84437266D01*
X97520047Y-84250861D01*
X97520045Y-84250858D01*
X97359141Y-84089954D01*
X97172734Y-83959432D01*
X97172732Y-83959431D01*
X96966497Y-83863261D01*
X96966488Y-83863258D01*
X96746697Y-83804366D01*
X96746693Y-83804365D01*
X96746692Y-83804365D01*
X96746691Y-83804364D01*
X96746686Y-83804364D01*
X96520002Y-83784532D01*
X96519998Y-83784532D01*
X96293313Y-83804364D01*
X96293302Y-83804366D01*
X96073511Y-83863258D01*
X96073502Y-83863261D01*
X95867267Y-83959431D01*
X95867265Y-83959432D01*
X95680858Y-84089954D01*
X95519954Y-84250858D01*
X95389432Y-84437265D01*
X95389431Y-84437267D01*
X95293261Y-84643502D01*
X95293258Y-84643511D01*
X95249274Y-84807665D01*
X95212909Y-84867326D01*
X95150062Y-84897855D01*
X95080686Y-84889560D01*
X95026809Y-84845075D01*
X95005534Y-84778523D01*
X95005499Y-84775572D01*
X95005499Y-84292129D01*
X95005498Y-84292123D01*
X95005497Y-84292116D01*
X94999091Y-84232517D01*
X94991170Y-84211281D01*
X94948797Y-84097671D01*
X94948793Y-84097664D01*
X94862548Y-83982457D01*
X94862543Y-83982451D01*
X94847686Y-83971329D01*
X94805817Y-83915394D01*
X94798000Y-83872064D01*
X94798000Y-81227934D01*
X94817685Y-81160895D01*
X94847690Y-81128667D01*
X94862546Y-81117546D01*
X94948796Y-81002331D01*
X94999091Y-80867483D01*
X95005500Y-80807873D01*
X95005499Y-80324426D01*
X95025183Y-80257390D01*
X95077987Y-80211635D01*
X95147146Y-80201691D01*
X95210702Y-80230716D01*
X95248476Y-80289494D01*
X95249274Y-80292335D01*
X95293259Y-80456491D01*
X95293261Y-80456497D01*
X95389431Y-80662732D01*
X95389432Y-80662734D01*
X95519954Y-80849141D01*
X95680858Y-81010045D01*
X95680861Y-81010047D01*
X95867266Y-81140568D01*
X96073504Y-81236739D01*
X96293308Y-81295635D01*
X96455230Y-81309801D01*
X96519998Y-81315468D01*
X96520000Y-81315468D01*
X96520002Y-81315468D01*
X96576673Y-81310509D01*
X96746692Y-81295635D01*
X96966496Y-81236739D01*
X97172734Y-81140568D01*
X97359139Y-81010047D01*
X97520047Y-80849139D01*
X97650568Y-80662734D01*
X97746739Y-80456496D01*
X97805635Y-80236692D01*
X97825468Y-80010000D01*
X97805635Y-79783308D01*
X97746739Y-79563504D01*
X97650568Y-79357266D01*
X97520047Y-79170861D01*
X97520045Y-79170858D01*
X97359141Y-79009954D01*
X97172734Y-78879432D01*
X97172732Y-78879431D01*
X96966497Y-78783261D01*
X96966488Y-78783258D01*
X96746697Y-78724366D01*
X96746693Y-78724365D01*
X96746692Y-78724365D01*
X96746691Y-78724364D01*
X96746686Y-78724364D01*
X96520002Y-78704532D01*
X96519998Y-78704532D01*
X96293313Y-78724364D01*
X96293302Y-78724366D01*
X96073511Y-78783258D01*
X96073502Y-78783261D01*
X95867267Y-78879431D01*
X95867265Y-78879432D01*
X95680858Y-79009954D01*
X95519954Y-79170858D01*
X95389432Y-79357265D01*
X95389431Y-79357267D01*
X95293261Y-79563502D01*
X95293258Y-79563511D01*
X95249274Y-79727665D01*
X95212909Y-79787326D01*
X95150062Y-79817855D01*
X95080686Y-79809560D01*
X95026809Y-79765075D01*
X95005534Y-79698523D01*
X95005499Y-79695572D01*
X95005499Y-79212129D01*
X95005498Y-79212123D01*
X95005497Y-79212116D01*
X94999091Y-79152517D01*
X94991170Y-79131281D01*
X94948797Y-79017671D01*
X94948793Y-79017664D01*
X94862548Y-78902457D01*
X94862543Y-78902451D01*
X94847686Y-78891329D01*
X94805817Y-78835394D01*
X94798000Y-78792064D01*
X94798000Y-76147934D01*
X94817685Y-76080895D01*
X94847690Y-76048667D01*
X94862546Y-76037546D01*
X94948796Y-75922331D01*
X94999091Y-75787483D01*
X95005500Y-75727873D01*
X95005499Y-75244426D01*
X95025183Y-75177390D01*
X95077987Y-75131635D01*
X95147146Y-75121691D01*
X95210702Y-75150716D01*
X95248476Y-75209494D01*
X95249274Y-75212335D01*
X95293259Y-75376491D01*
X95293261Y-75376497D01*
X95389431Y-75582732D01*
X95389432Y-75582734D01*
X95519954Y-75769141D01*
X95680858Y-75930045D01*
X95680861Y-75930047D01*
X95867266Y-76060568D01*
X96073504Y-76156739D01*
X96293308Y-76215635D01*
X96455230Y-76229801D01*
X96519998Y-76235468D01*
X96520000Y-76235468D01*
X96520002Y-76235468D01*
X96576673Y-76230509D01*
X96746692Y-76215635D01*
X96966496Y-76156739D01*
X97172734Y-76060568D01*
X97359139Y-75930047D01*
X97520047Y-75769139D01*
X97650568Y-75582734D01*
X97746739Y-75376496D01*
X97805635Y-75156692D01*
X97825468Y-74930000D01*
X97805635Y-74703308D01*
X97746739Y-74483504D01*
X97650568Y-74277266D01*
X97520047Y-74090861D01*
X97520045Y-74090858D01*
X97359141Y-73929954D01*
X97172734Y-73799432D01*
X97172732Y-73799431D01*
X96966497Y-73703261D01*
X96966488Y-73703258D01*
X96746697Y-73644366D01*
X96746693Y-73644365D01*
X96746692Y-73644365D01*
X96746691Y-73644364D01*
X96746686Y-73644364D01*
X96520002Y-73624532D01*
X96519998Y-73624532D01*
X96293313Y-73644364D01*
X96293302Y-73644366D01*
X96073511Y-73703258D01*
X96073502Y-73703261D01*
X95867267Y-73799431D01*
X95867265Y-73799432D01*
X95680858Y-73929954D01*
X95519954Y-74090858D01*
X95389432Y-74277265D01*
X95389431Y-74277267D01*
X95293261Y-74483502D01*
X95293258Y-74483511D01*
X95249274Y-74647665D01*
X95212909Y-74707326D01*
X95150062Y-74737855D01*
X95080686Y-74729560D01*
X95026809Y-74685075D01*
X95005534Y-74618523D01*
X95005499Y-74615572D01*
X95005499Y-74132129D01*
X95005498Y-74132123D01*
X95005497Y-74132116D01*
X94999091Y-74072517D01*
X94991170Y-74051281D01*
X94948797Y-73937671D01*
X94948793Y-73937664D01*
X94862548Y-73822457D01*
X94862543Y-73822451D01*
X94847686Y-73811329D01*
X94805817Y-73755394D01*
X94798000Y-73712064D01*
X94798000Y-71067934D01*
X94817685Y-71000895D01*
X94847690Y-70968667D01*
X94862546Y-70957546D01*
X94948796Y-70842331D01*
X94999091Y-70707483D01*
X95005500Y-70647873D01*
X95005499Y-70164426D01*
X95025183Y-70097390D01*
X95077987Y-70051635D01*
X95147146Y-70041691D01*
X95210702Y-70070716D01*
X95248476Y-70129494D01*
X95249274Y-70132335D01*
X95293259Y-70296491D01*
X95293261Y-70296497D01*
X95389431Y-70502732D01*
X95389432Y-70502734D01*
X95519954Y-70689141D01*
X95680858Y-70850045D01*
X95680861Y-70850047D01*
X95867266Y-70980568D01*
X96073504Y-71076739D01*
X96293308Y-71135635D01*
X96455230Y-71149801D01*
X96519998Y-71155468D01*
X96520000Y-71155468D01*
X96520002Y-71155468D01*
X96576673Y-71150509D01*
X96746692Y-71135635D01*
X96966496Y-71076739D01*
X97172734Y-70980568D01*
X97359139Y-70850047D01*
X97520047Y-70689139D01*
X97650568Y-70502734D01*
X97746739Y-70296496D01*
X97805635Y-70076692D01*
X97825468Y-69850000D01*
X97805635Y-69623308D01*
X97746739Y-69403504D01*
X97650568Y-69197266D01*
X97520047Y-69010861D01*
X97520045Y-69010858D01*
X97359141Y-68849954D01*
X97172734Y-68719432D01*
X97172732Y-68719431D01*
X96966497Y-68623261D01*
X96966488Y-68623258D01*
X96746697Y-68564366D01*
X96746693Y-68564365D01*
X96746692Y-68564365D01*
X96746691Y-68564364D01*
X96746686Y-68564364D01*
X96520002Y-68544532D01*
X96519998Y-68544532D01*
X96293313Y-68564364D01*
X96293302Y-68564366D01*
X96073511Y-68623258D01*
X96073502Y-68623261D01*
X95867267Y-68719431D01*
X95867265Y-68719432D01*
X95680858Y-68849954D01*
X95519954Y-69010858D01*
X95389432Y-69197265D01*
X95389431Y-69197267D01*
X95293261Y-69403502D01*
X95293258Y-69403511D01*
X95249274Y-69567665D01*
X95212909Y-69627326D01*
X95150062Y-69657855D01*
X95080686Y-69649560D01*
X95026809Y-69605075D01*
X95005534Y-69538523D01*
X95005499Y-69535572D01*
X95005499Y-69052129D01*
X95005498Y-69052123D01*
X95005497Y-69052116D01*
X94999091Y-68992517D01*
X94991170Y-68971281D01*
X94948797Y-68857671D01*
X94948793Y-68857664D01*
X94862547Y-68742455D01*
X94862544Y-68742452D01*
X94747335Y-68656206D01*
X94747328Y-68656202D01*
X94612482Y-68605908D01*
X94612483Y-68605908D01*
X94552883Y-68599501D01*
X94552881Y-68599500D01*
X94552873Y-68599500D01*
X94552864Y-68599500D01*
X93407129Y-68599500D01*
X93407123Y-68599501D01*
X93347516Y-68605908D01*
X93212672Y-68656202D01*
X93212665Y-68656206D01*
X93211556Y-68657037D01*
X93210258Y-68657520D01*
X93204887Y-68660454D01*
X93204465Y-68659681D01*
X93146090Y-68681449D01*
X93089800Y-68672325D01*
X93009127Y-68638909D01*
X93009119Y-68638907D01*
X92811007Y-68599500D01*
X92811003Y-68599500D01*
X92608997Y-68599500D01*
X92608992Y-68599500D01*
X92410880Y-68638907D01*
X92410872Y-68638909D01*
X92224244Y-68716213D01*
X92143891Y-68769904D01*
X92077213Y-68790782D01*
X92009833Y-68772297D01*
X92006109Y-68769904D01*
X91925755Y-68716213D01*
X91739127Y-68638909D01*
X91739119Y-68638907D01*
X91541007Y-68599500D01*
X91541003Y-68599500D01*
X91338997Y-68599500D01*
X91338992Y-68599500D01*
X91140880Y-68638907D01*
X91140872Y-68638909D01*
X90954247Y-68716212D01*
X90954237Y-68716217D01*
X90786281Y-68828441D01*
X90643441Y-68971281D01*
X90531217Y-69139237D01*
X90531212Y-69139247D01*
X90453909Y-69325872D01*
X90453907Y-69325880D01*
X90414500Y-69523992D01*
X90414500Y-69535569D01*
X90394815Y-69602608D01*
X90342011Y-69648363D01*
X90272853Y-69658307D01*
X90209297Y-69629282D01*
X90171523Y-69570504D01*
X90170725Y-69567662D01*
X90126741Y-69403511D01*
X90126738Y-69403502D01*
X90030568Y-69197267D01*
X90030567Y-69197265D01*
X89900045Y-69010858D01*
X89739141Y-68849954D01*
X89552734Y-68719432D01*
X89552732Y-68719431D01*
X89346497Y-68623261D01*
X89346488Y-68623258D01*
X89126697Y-68564366D01*
X89126693Y-68564365D01*
X89126692Y-68564365D01*
X89126691Y-68564364D01*
X89126686Y-68564364D01*
X88900002Y-68544532D01*
X88899998Y-68544532D01*
X88673313Y-68564364D01*
X88673302Y-68564366D01*
X88453511Y-68623258D01*
X88453502Y-68623261D01*
X88247267Y-68719431D01*
X88247265Y-68719432D01*
X88060858Y-68849954D01*
X87899954Y-69010858D01*
X87769432Y-69197265D01*
X87769431Y-69197267D01*
X87673261Y-69403502D01*
X87673258Y-69403511D01*
X87614366Y-69623302D01*
X87614364Y-69623313D01*
X87594532Y-69849998D01*
X84638000Y-69849998D01*
X84638000Y-66674998D01*
X95849532Y-66674998D01*
X95849532Y-66675001D01*
X95869364Y-66901686D01*
X95869366Y-66901697D01*
X95928258Y-67121488D01*
X95928261Y-67121497D01*
X96024431Y-67327732D01*
X96024432Y-67327734D01*
X96154954Y-67514141D01*
X96315858Y-67675045D01*
X96315861Y-67675047D01*
X96502266Y-67805568D01*
X96708504Y-67901739D01*
X96928308Y-67960635D01*
X97090230Y-67974801D01*
X97154998Y-67980468D01*
X97155000Y-67980468D01*
X97155002Y-67980468D01*
X97211673Y-67975509D01*
X97381692Y-67960635D01*
X97601496Y-67901739D01*
X97807734Y-67805568D01*
X97994139Y-67675047D01*
X98155047Y-67514139D01*
X98285568Y-67327734D01*
X98381739Y-67121496D01*
X98440635Y-66901692D01*
X98460468Y-66675000D01*
X98440635Y-66448308D01*
X98381739Y-66228504D01*
X98285568Y-66022266D01*
X98155047Y-65835861D01*
X98155045Y-65835858D01*
X97994141Y-65674954D01*
X97807734Y-65544432D01*
X97807732Y-65544431D01*
X97601497Y-65448261D01*
X97601488Y-65448258D01*
X97381697Y-65389366D01*
X97381693Y-65389365D01*
X97381692Y-65389365D01*
X97381691Y-65389364D01*
X97381686Y-65389364D01*
X97155002Y-65369532D01*
X97154998Y-65369532D01*
X96928313Y-65389364D01*
X96928302Y-65389366D01*
X96708511Y-65448258D01*
X96708502Y-65448261D01*
X96502267Y-65544431D01*
X96502265Y-65544432D01*
X96315858Y-65674954D01*
X96154954Y-65835858D01*
X96024432Y-66022265D01*
X96024431Y-66022267D01*
X95928261Y-66228502D01*
X95928258Y-66228511D01*
X95869366Y-66448302D01*
X95869364Y-66448313D01*
X95849532Y-66674998D01*
X84638000Y-66674998D01*
X84638000Y-64769998D01*
X87594532Y-64769998D01*
X87594532Y-64770001D01*
X87614364Y-64996686D01*
X87614366Y-64996697D01*
X87673258Y-65216488D01*
X87673261Y-65216497D01*
X87769431Y-65422732D01*
X87769432Y-65422734D01*
X87899954Y-65609141D01*
X88060858Y-65770045D01*
X88060861Y-65770047D01*
X88247266Y-65900568D01*
X88453504Y-65996739D01*
X88673308Y-66055635D01*
X88835230Y-66069801D01*
X88899998Y-66075468D01*
X88900000Y-66075468D01*
X88900002Y-66075468D01*
X88956673Y-66070509D01*
X89126692Y-66055635D01*
X89346496Y-65996739D01*
X89552734Y-65900568D01*
X89739139Y-65770047D01*
X89900047Y-65609139D01*
X90030568Y-65422734D01*
X90126739Y-65216496D01*
X90185635Y-64996692D01*
X90204341Y-64782883D01*
X90205468Y-64770001D01*
X90205468Y-64769998D01*
X90191960Y-64615606D01*
X90185635Y-64543308D01*
X90136949Y-64361610D01*
X90126741Y-64323511D01*
X90126738Y-64323502D01*
X90061002Y-64182532D01*
X90038837Y-64134999D01*
X90969785Y-64134999D01*
X90969785Y-64135000D01*
X90988602Y-64338082D01*
X91044417Y-64534247D01*
X91044422Y-64534260D01*
X91135327Y-64716821D01*
X91258237Y-64879581D01*
X91408958Y-65016980D01*
X91408960Y-65016982D01*
X91450146Y-65042483D01*
X91582363Y-65124348D01*
X91772544Y-65198024D01*
X91973024Y-65235500D01*
X91973026Y-65235500D01*
X92176974Y-65235500D01*
X92176976Y-65235500D01*
X92377456Y-65198024D01*
X92564374Y-65125611D01*
X92633996Y-65119750D01*
X92683478Y-65141972D01*
X92716659Y-65166811D01*
X92730717Y-65177335D01*
X92732668Y-65178795D01*
X92732671Y-65178797D01*
X92867517Y-65229091D01*
X92867516Y-65229091D01*
X92874444Y-65229835D01*
X92927127Y-65235500D01*
X94222872Y-65235499D01*
X94282483Y-65229091D01*
X94417331Y-65178796D01*
X94532546Y-65092546D01*
X94618796Y-64977331D01*
X94669091Y-64842483D01*
X94675500Y-64782873D01*
X94675499Y-64134997D01*
X100247414Y-64134997D01*
X100247414Y-64135002D01*
X100267238Y-64361599D01*
X100267240Y-64361610D01*
X100326110Y-64581317D01*
X100326115Y-64581331D01*
X100422243Y-64787478D01*
X100473354Y-64860472D01*
X101152380Y-64181446D01*
X101152380Y-64187661D01*
X101179639Y-64289394D01*
X101232300Y-64380606D01*
X101306774Y-64455080D01*
X101397986Y-64507741D01*
X101499719Y-64535000D01*
X101505933Y-64535000D01*
X100826906Y-65214025D01*
X100899893Y-65265132D01*
X100899901Y-65265136D01*
X101106048Y-65361264D01*
X101106062Y-65361269D01*
X101325769Y-65420139D01*
X101325780Y-65420141D01*
X101552378Y-65439966D01*
X101552382Y-65439966D01*
X101778979Y-65420141D01*
X101778990Y-65420139D01*
X101998697Y-65361269D01*
X101998711Y-65361264D01*
X102204858Y-65265136D01*
X102277851Y-65214024D01*
X101598827Y-64535000D01*
X101605041Y-64535000D01*
X101706774Y-64507741D01*
X101797986Y-64455080D01*
X101872460Y-64380606D01*
X101925121Y-64289394D01*
X101952380Y-64187661D01*
X101952380Y-64181447D01*
X102636577Y-64865644D01*
X102685572Y-64875491D01*
X102735755Y-64924106D01*
X102750429Y-64979632D01*
X102751479Y-64979576D01*
X102751526Y-64979571D01*
X102751526Y-64979573D01*
X102751704Y-64979564D01*
X102751881Y-64982876D01*
X102758288Y-65042483D01*
X102808582Y-65177328D01*
X102808586Y-65177335D01*
X102894832Y-65292544D01*
X102894835Y-65292547D01*
X103010044Y-65378793D01*
X103010051Y-65378797D01*
X103144897Y-65429091D01*
X103144896Y-65429091D01*
X103151824Y-65429835D01*
X103204507Y-65435500D01*
X104900252Y-65435499D01*
X104959863Y-65429091D01*
X105094711Y-65378796D01*
X105209926Y-65292546D01*
X105296176Y-65177331D01*
X105346471Y-65042483D01*
X105352880Y-64982873D01*
X105352879Y-63287128D01*
X105346471Y-63227517D01*
X105327603Y-63176930D01*
X105296177Y-63092671D01*
X105296173Y-63092664D01*
X105209927Y-62977455D01*
X105209924Y-62977452D01*
X105094715Y-62891206D01*
X105094708Y-62891202D01*
X104959862Y-62840908D01*
X104959863Y-62840908D01*
X104900263Y-62834501D01*
X104900261Y-62834500D01*
X104900253Y-62834500D01*
X104900244Y-62834500D01*
X103204509Y-62834500D01*
X103204503Y-62834501D01*
X103144896Y-62840908D01*
X103010051Y-62891202D01*
X103010044Y-62891206D01*
X102894835Y-62977452D01*
X102894832Y-62977455D01*
X102808586Y-63092664D01*
X102808582Y-63092671D01*
X102758288Y-63227517D01*
X102751881Y-63287116D01*
X102751881Y-63287123D01*
X102751702Y-63290452D01*
X102750227Y-63290372D01*
X102732195Y-63351784D01*
X102679391Y-63397539D01*
X102635902Y-63405029D01*
X101952380Y-64088551D01*
X101952380Y-64082339D01*
X101925121Y-63980606D01*
X101872460Y-63889394D01*
X101797986Y-63814920D01*
X101706774Y-63762259D01*
X101605041Y-63735000D01*
X101598825Y-63735000D01*
X102277852Y-63055974D01*
X102204858Y-63004863D01*
X101998711Y-62908735D01*
X101998697Y-62908730D01*
X101778990Y-62849860D01*
X101778979Y-62849858D01*
X101552382Y-62830034D01*
X101552378Y-62830034D01*
X101325780Y-62849858D01*
X101325769Y-62849860D01*
X101106062Y-62908730D01*
X101106053Y-62908734D01*
X100899896Y-63004866D01*
X100899892Y-63004868D01*
X100826906Y-63055973D01*
X100826906Y-63055974D01*
X101505933Y-63735000D01*
X101499719Y-63735000D01*
X101397986Y-63762259D01*
X101306774Y-63814920D01*
X101232300Y-63889394D01*
X101179639Y-63980606D01*
X101152380Y-64082339D01*
X101152380Y-64088552D01*
X100473354Y-63409526D01*
X100473353Y-63409526D01*
X100422248Y-63482512D01*
X100422246Y-63482516D01*
X100326114Y-63688673D01*
X100326110Y-63688682D01*
X100267240Y-63908389D01*
X100267238Y-63908400D01*
X100247414Y-64134997D01*
X94675499Y-64134997D01*
X94675499Y-63487128D01*
X94669091Y-63427517D01*
X94666076Y-63419434D01*
X94618797Y-63292671D01*
X94618793Y-63292664D01*
X94532547Y-63177455D01*
X94532544Y-63177452D01*
X94417335Y-63091206D01*
X94417328Y-63091202D01*
X94282482Y-63040908D01*
X94282483Y-63040908D01*
X94222883Y-63034501D01*
X94222881Y-63034500D01*
X94222873Y-63034500D01*
X94222864Y-63034500D01*
X92927129Y-63034500D01*
X92927123Y-63034501D01*
X92867516Y-63040908D01*
X92732671Y-63091202D01*
X92732665Y-63091205D01*
X92683476Y-63128028D01*
X92618012Y-63152444D01*
X92564374Y-63144387D01*
X92377460Y-63071977D01*
X92377457Y-63071976D01*
X92377456Y-63071976D01*
X92176976Y-63034500D01*
X91973024Y-63034500D01*
X91772544Y-63071976D01*
X91772541Y-63071976D01*
X91772541Y-63071977D01*
X91582364Y-63145651D01*
X91582357Y-63145655D01*
X91408960Y-63253017D01*
X91408958Y-63253019D01*
X91258237Y-63390418D01*
X91135327Y-63553178D01*
X91044422Y-63735739D01*
X91044417Y-63735752D01*
X90988602Y-63931917D01*
X90969785Y-64134999D01*
X90038837Y-64134999D01*
X90030568Y-64117266D01*
X89932839Y-63977693D01*
X89900045Y-63930858D01*
X89739141Y-63769954D01*
X89552734Y-63639432D01*
X89552732Y-63639431D01*
X89346497Y-63543261D01*
X89346488Y-63543258D01*
X89126697Y-63484366D01*
X89126693Y-63484365D01*
X89126692Y-63484365D01*
X89126691Y-63484364D01*
X89126686Y-63484364D01*
X88900002Y-63464532D01*
X88899998Y-63464532D01*
X88673313Y-63484364D01*
X88673302Y-63484366D01*
X88453511Y-63543258D01*
X88453502Y-63543261D01*
X88247267Y-63639431D01*
X88247265Y-63639432D01*
X88060858Y-63769954D01*
X87899954Y-63930858D01*
X87769432Y-64117265D01*
X87769431Y-64117267D01*
X87673261Y-64323502D01*
X87673258Y-64323511D01*
X87614366Y-64543302D01*
X87614364Y-64543313D01*
X87594532Y-64769998D01*
X84638000Y-64769998D01*
X84638000Y-63419433D01*
X84637999Y-63419429D01*
X84623371Y-63345889D01*
X84606565Y-63261398D01*
X84558621Y-63145652D01*
X84558620Y-63145649D01*
X84544905Y-63112536D01*
X84544902Y-63112531D01*
X84531627Y-63092664D01*
X84455382Y-62978555D01*
X84455379Y-62978551D01*
X83151825Y-61674997D01*
X95850034Y-61674997D01*
X95850034Y-61675002D01*
X95869858Y-61901599D01*
X95869860Y-61901610D01*
X95928730Y-62121317D01*
X95928735Y-62121331D01*
X96024863Y-62327478D01*
X96075974Y-62400472D01*
X96755000Y-61721446D01*
X96755000Y-61727661D01*
X96782259Y-61829394D01*
X96834920Y-61920606D01*
X96909394Y-61995080D01*
X97000606Y-62047741D01*
X97102339Y-62075000D01*
X97108553Y-62075000D01*
X96429526Y-62754025D01*
X96502513Y-62805132D01*
X96502521Y-62805136D01*
X96708668Y-62901264D01*
X96708682Y-62901269D01*
X96928389Y-62960139D01*
X96928400Y-62960141D01*
X97154998Y-62979966D01*
X97155002Y-62979966D01*
X97381599Y-62960141D01*
X97381610Y-62960139D01*
X97601317Y-62901269D01*
X97601331Y-62901264D01*
X97807478Y-62805136D01*
X97880471Y-62754024D01*
X97201447Y-62075000D01*
X97207661Y-62075000D01*
X97309394Y-62047741D01*
X97400606Y-61995080D01*
X97475080Y-61920606D01*
X97527741Y-61829394D01*
X97555000Y-61727661D01*
X97555000Y-61721447D01*
X98234024Y-62400471D01*
X98285136Y-62327478D01*
X98381264Y-62121331D01*
X98381269Y-62121317D01*
X98440139Y-61901610D01*
X98440141Y-61901599D01*
X98459966Y-61675002D01*
X98459966Y-61674997D01*
X98440141Y-61448400D01*
X98440139Y-61448389D01*
X98381269Y-61228682D01*
X98381264Y-61228668D01*
X98285136Y-61022521D01*
X98285132Y-61022513D01*
X98234025Y-60949526D01*
X97555000Y-61628551D01*
X97555000Y-61622339D01*
X97527741Y-61520606D01*
X97475080Y-61429394D01*
X97400606Y-61354920D01*
X97309394Y-61302259D01*
X97207661Y-61275000D01*
X97201445Y-61275000D01*
X97880472Y-60595974D01*
X97807478Y-60544863D01*
X97601331Y-60448735D01*
X97601317Y-60448730D01*
X97381610Y-60389860D01*
X97381599Y-60389858D01*
X97155002Y-60370034D01*
X97154998Y-60370034D01*
X96928400Y-60389858D01*
X96928389Y-60389860D01*
X96708682Y-60448730D01*
X96708673Y-60448734D01*
X96502516Y-60544866D01*
X96502512Y-60544868D01*
X96429526Y-60595973D01*
X96429526Y-60595974D01*
X97108553Y-61275000D01*
X97102339Y-61275000D01*
X97000606Y-61302259D01*
X96909394Y-61354920D01*
X96834920Y-61429394D01*
X96782259Y-61520606D01*
X96755000Y-61622339D01*
X96755000Y-61628552D01*
X96075974Y-60949526D01*
X96075973Y-60949526D01*
X96024868Y-61022512D01*
X96024866Y-61022516D01*
X95928734Y-61228673D01*
X95928730Y-61228682D01*
X95869860Y-61448389D01*
X95869858Y-61448400D01*
X95850034Y-61674997D01*
X83151825Y-61674997D01*
X79261448Y-57784620D01*
X79261444Y-57784617D01*
X79127471Y-57695098D01*
X79127468Y-57695097D01*
X78978603Y-57633436D01*
X78978595Y-57633434D01*
X78820568Y-57602000D01*
X78820566Y-57602000D01*
X78659434Y-57602000D01*
X78659432Y-57602000D01*
X78501404Y-57633434D01*
X78501396Y-57633436D01*
X78352531Y-57695097D01*
X78352528Y-57695098D01*
X78218555Y-57784617D01*
X78218551Y-57784620D01*
X78104620Y-57898551D01*
X78104617Y-57898555D01*
X78015098Y-58032528D01*
X78015097Y-58032531D01*
X77953436Y-58181396D01*
X77953434Y-58181404D01*
X77922000Y-58339431D01*
X77922000Y-58339434D01*
X77922000Y-58500566D01*
X77922000Y-58500568D01*
X77921999Y-58500568D01*
X63667395Y-58500568D01*
X62478670Y-57311843D01*
X62445185Y-57250520D01*
X62445997Y-57203165D01*
X62444264Y-57202876D01*
X62445107Y-57197824D01*
X62445108Y-57197821D01*
X62445109Y-57197811D01*
X62465643Y-56950005D01*
X62465643Y-56949994D01*
X66954357Y-56949994D01*
X66954357Y-56950005D01*
X66974890Y-57197812D01*
X66974892Y-57197824D01*
X67035936Y-57438881D01*
X67135826Y-57666606D01*
X67271833Y-57874782D01*
X67271836Y-57874785D01*
X67440256Y-58057738D01*
X67636491Y-58210474D01*
X67855190Y-58328828D01*
X68090386Y-58409571D01*
X68335665Y-58450500D01*
X68584335Y-58450500D01*
X68829614Y-58409571D01*
X69064810Y-58328828D01*
X69283509Y-58210474D01*
X69479744Y-58057738D01*
X69648164Y-57874785D01*
X69784173Y-57666607D01*
X69884063Y-57438881D01*
X69945108Y-57197821D01*
X69945109Y-57197811D01*
X69965643Y-56950005D01*
X69965643Y-56949994D01*
X82784107Y-56949994D01*
X82784107Y-56950005D01*
X82804640Y-57197812D01*
X82804642Y-57197824D01*
X82865686Y-57438881D01*
X82965576Y-57666606D01*
X83101583Y-57874782D01*
X83101586Y-57874785D01*
X83270006Y-58057738D01*
X83466241Y-58210474D01*
X83684940Y-58328828D01*
X83920136Y-58409571D01*
X84165415Y-58450500D01*
X84414085Y-58450500D01*
X84659364Y-58409571D01*
X84894560Y-58328828D01*
X85113259Y-58210474D01*
X85309494Y-58057738D01*
X85477914Y-57874785D01*
X85613923Y-57666607D01*
X85713813Y-57438881D01*
X85774858Y-57197821D01*
X85774859Y-57197811D01*
X85795393Y-56950005D01*
X85795393Y-56949994D01*
X90284107Y-56949994D01*
X90284107Y-56950005D01*
X90304640Y-57197812D01*
X90304642Y-57197824D01*
X90365686Y-57438881D01*
X90465576Y-57666606D01*
X90601583Y-57874782D01*
X90601586Y-57874785D01*
X90770006Y-58057738D01*
X90966241Y-58210474D01*
X91184940Y-58328828D01*
X91420136Y-58409571D01*
X91665415Y-58450500D01*
X91914085Y-58450500D01*
X92159364Y-58409571D01*
X92394560Y-58328828D01*
X92613259Y-58210474D01*
X92809494Y-58057738D01*
X92977914Y-57874785D01*
X93113923Y-57666607D01*
X93213813Y-57438881D01*
X93274858Y-57197821D01*
X93274859Y-57197811D01*
X93278821Y-57149997D01*
X100835153Y-57149997D01*
X100835153Y-57150002D01*
X100854526Y-57507314D01*
X100854527Y-57507331D01*
X100912415Y-57860431D01*
X100912421Y-57860457D01*
X101008147Y-58205232D01*
X101008149Y-58205239D01*
X101140597Y-58537659D01*
X101140606Y-58537677D01*
X101308218Y-58853827D01*
X101509033Y-59150007D01*
X101636441Y-59300003D01*
X101636442Y-59300004D01*
X102845748Y-58090698D01*
X102919588Y-58192330D01*
X103097670Y-58370412D01*
X103199300Y-58444251D01*
X101987255Y-59656295D01*
X101987256Y-59656296D01*
X102000485Y-59668828D01*
X102000486Y-59668829D01*
X102285367Y-59885388D01*
X102285370Y-59885390D01*
X102591990Y-60069876D01*
X102916739Y-60220122D01*
X102916744Y-60220123D01*
X103255855Y-60334383D01*
X103605339Y-60411311D01*
X103961075Y-60449999D01*
X103961085Y-60450000D01*
X104318915Y-60450000D01*
X104318924Y-60449999D01*
X104674660Y-60411311D01*
X105024144Y-60334383D01*
X105363255Y-60220123D01*
X105363260Y-60220122D01*
X105688009Y-60069876D01*
X105994629Y-59885390D01*
X105994632Y-59885388D01*
X106279504Y-59668836D01*
X106292742Y-59656294D01*
X105080698Y-58444251D01*
X105182330Y-58370412D01*
X105360412Y-58192330D01*
X105434251Y-58090698D01*
X106643556Y-59300003D01*
X106770964Y-59150008D01*
X106770975Y-59149994D01*
X106971781Y-58853827D01*
X107139393Y-58537677D01*
X107139402Y-58537659D01*
X107271850Y-58205239D01*
X107271852Y-58205232D01*
X107367578Y-57860457D01*
X107367584Y-57860431D01*
X107425472Y-57507331D01*
X107425473Y-57507314D01*
X107444847Y-57150002D01*
X107444847Y-57149997D01*
X107425473Y-56792685D01*
X107425472Y-56792668D01*
X107367584Y-56439568D01*
X107367578Y-56439542D01*
X107271852Y-56094767D01*
X107271850Y-56094760D01*
X107139402Y-55762340D01*
X107139393Y-55762322D01*
X106971781Y-55446172D01*
X106770966Y-55149992D01*
X106643557Y-54999995D01*
X106643556Y-54999994D01*
X105434250Y-56209299D01*
X105360412Y-56107670D01*
X105182330Y-55929588D01*
X105080697Y-55855747D01*
X106292743Y-54643703D01*
X106292742Y-54643702D01*
X106279514Y-54631171D01*
X106279513Y-54631170D01*
X105994632Y-54414611D01*
X105994629Y-54414609D01*
X105688009Y-54230123D01*
X105363260Y-54079877D01*
X105363255Y-54079876D01*
X105024144Y-53965616D01*
X104674660Y-53888688D01*
X104318924Y-53850000D01*
X103961075Y-53850000D01*
X103605339Y-53888688D01*
X103255855Y-53965616D01*
X102916744Y-54079876D01*
X102916739Y-54079877D01*
X102591990Y-54230123D01*
X102285370Y-54414609D01*
X102285367Y-54414611D01*
X102000491Y-54631166D01*
X101987256Y-54643703D01*
X101987255Y-54643703D01*
X103199301Y-55855748D01*
X103097670Y-55929588D01*
X102919588Y-56107670D01*
X102845748Y-56209301D01*
X101636442Y-54999994D01*
X101636441Y-54999995D01*
X101509040Y-55149983D01*
X101509033Y-55149993D01*
X101308218Y-55446172D01*
X101140606Y-55762322D01*
X101140597Y-55762340D01*
X101008149Y-56094760D01*
X101008147Y-56094767D01*
X100912421Y-56439542D01*
X100912415Y-56439568D01*
X100854527Y-56792668D01*
X100854526Y-56792685D01*
X100835153Y-57149997D01*
X93278821Y-57149997D01*
X93295393Y-56950005D01*
X93295393Y-56949994D01*
X93274859Y-56702187D01*
X93274857Y-56702175D01*
X93213813Y-56461118D01*
X93113923Y-56233393D01*
X92977916Y-56025217D01*
X92889883Y-55929588D01*
X92809494Y-55842262D01*
X92613259Y-55689526D01*
X92613257Y-55689525D01*
X92613256Y-55689524D01*
X92394561Y-55571172D01*
X92394552Y-55571169D01*
X92159366Y-55490429D01*
X91914085Y-55449500D01*
X91665415Y-55449500D01*
X91420133Y-55490429D01*
X91184947Y-55571169D01*
X91184938Y-55571172D01*
X90966243Y-55689524D01*
X90770007Y-55842261D01*
X90601583Y-56025217D01*
X90465576Y-56233393D01*
X90365686Y-56461118D01*
X90304642Y-56702175D01*
X90304640Y-56702187D01*
X90284107Y-56949994D01*
X85795393Y-56949994D01*
X85774859Y-56702187D01*
X85774857Y-56702175D01*
X85713813Y-56461118D01*
X85613923Y-56233393D01*
X85477916Y-56025217D01*
X85389883Y-55929588D01*
X85309494Y-55842262D01*
X85113259Y-55689526D01*
X85113257Y-55689525D01*
X85113256Y-55689524D01*
X84894561Y-55571172D01*
X84894552Y-55571169D01*
X84659366Y-55490429D01*
X84414085Y-55449500D01*
X84165415Y-55449500D01*
X83920133Y-55490429D01*
X83684947Y-55571169D01*
X83684938Y-55571172D01*
X83466243Y-55689524D01*
X83270007Y-55842261D01*
X83101583Y-56025217D01*
X82965576Y-56233393D01*
X82865686Y-56461118D01*
X82804642Y-56702175D01*
X82804640Y-56702187D01*
X82784107Y-56949994D01*
X69965643Y-56949994D01*
X69945109Y-56702187D01*
X69945107Y-56702175D01*
X69884063Y-56461118D01*
X69784173Y-56233393D01*
X69648166Y-56025217D01*
X69560133Y-55929588D01*
X69479744Y-55842262D01*
X69283509Y-55689526D01*
X69283507Y-55689525D01*
X69283506Y-55689524D01*
X69064811Y-55571172D01*
X69064802Y-55571169D01*
X68829616Y-55490429D01*
X68584335Y-55449500D01*
X68335665Y-55449500D01*
X68090383Y-55490429D01*
X67855197Y-55571169D01*
X67855188Y-55571172D01*
X67636493Y-55689524D01*
X67440257Y-55842261D01*
X67271833Y-56025217D01*
X67135826Y-56233393D01*
X67035936Y-56461118D01*
X66974892Y-56702175D01*
X66974890Y-56702187D01*
X66954357Y-56949994D01*
X62465643Y-56949994D01*
X62445109Y-56702187D01*
X62445107Y-56702175D01*
X62384063Y-56461118D01*
X62284173Y-56233393D01*
X62148166Y-56025217D01*
X62060133Y-55929588D01*
X61979744Y-55842262D01*
X61783509Y-55689526D01*
X61783507Y-55689525D01*
X61783506Y-55689524D01*
X61564811Y-55571172D01*
X61564802Y-55571169D01*
X61329616Y-55490429D01*
X61084335Y-55449500D01*
X60835665Y-55449500D01*
X60590383Y-55490429D01*
X60355197Y-55571169D01*
X60355188Y-55571172D01*
X60136493Y-55689524D01*
X59940257Y-55842261D01*
X59771833Y-56025217D01*
X59635826Y-56233393D01*
X59535936Y-56461118D01*
X59474892Y-56702175D01*
X59474890Y-56702187D01*
X59454357Y-56949994D01*
X51554003Y-56949994D01*
X51545473Y-56792685D01*
X51545472Y-56792668D01*
X51487584Y-56439568D01*
X51487578Y-56439542D01*
X51391852Y-56094767D01*
X51391850Y-56094760D01*
X51259402Y-55762340D01*
X51259393Y-55762322D01*
X51091781Y-55446172D01*
X50890966Y-55149992D01*
X50763557Y-54999995D01*
X50763556Y-54999994D01*
X49554250Y-56209300D01*
X49480412Y-56107670D01*
X49302330Y-55929588D01*
X49200697Y-55855747D01*
X50412743Y-54643703D01*
X50412742Y-54643702D01*
X50399514Y-54631171D01*
X50399513Y-54631170D01*
X50114632Y-54414611D01*
X50114629Y-54414609D01*
X49808009Y-54230123D01*
X49483260Y-54079877D01*
X49483255Y-54079876D01*
X49144144Y-53965616D01*
X48794660Y-53888688D01*
X48438924Y-53850000D01*
X48081075Y-53850000D01*
X47725339Y-53888688D01*
X47375855Y-53965616D01*
X47036744Y-54079876D01*
X47036739Y-54079877D01*
X46711990Y-54230123D01*
X46405370Y-54414609D01*
X46405367Y-54414611D01*
X46120491Y-54631166D01*
X46107256Y-54643703D01*
X46107255Y-54643703D01*
X47319301Y-55855748D01*
X47217670Y-55929588D01*
X47039588Y-56107670D01*
X46965748Y-56209301D01*
X45756442Y-54999994D01*
X45756441Y-54999995D01*
X45629040Y-55149983D01*
X45629033Y-55149993D01*
X45428218Y-55446172D01*
X45260606Y-55762322D01*
X45260597Y-55762340D01*
X45128149Y-56094760D01*
X45128147Y-56094767D01*
X45032421Y-56439542D01*
X45032415Y-56439568D01*
X44974527Y-56792668D01*
X44974526Y-56792685D01*
X44955153Y-57149997D01*
X44650500Y-57149997D01*
X44650500Y-52435837D01*
X57109500Y-52435837D01*
X57109500Y-53964162D01*
X57145215Y-54189660D01*
X57215770Y-54406803D01*
X57319421Y-54610228D01*
X57453621Y-54794937D01*
X57615063Y-54956379D01*
X57799772Y-55090579D01*
X57895884Y-55139550D01*
X58003196Y-55194229D01*
X58003198Y-55194229D01*
X58003201Y-55194231D01*
X58119592Y-55232049D01*
X58220339Y-55264784D01*
X58445838Y-55300500D01*
X58445843Y-55300500D01*
X58674162Y-55300500D01*
X58899660Y-55264784D01*
X59116799Y-55194231D01*
X59320228Y-55090579D01*
X59504937Y-54956379D01*
X59666379Y-54794937D01*
X59800579Y-54610228D01*
X59904231Y-54406799D01*
X59974784Y-54189660D01*
X59992172Y-54079876D01*
X60010500Y-53964162D01*
X60010500Y-52435837D01*
X69409500Y-52435837D01*
X69409500Y-53964162D01*
X69445215Y-54189660D01*
X69515770Y-54406803D01*
X69619421Y-54610228D01*
X69753621Y-54794937D01*
X69915063Y-54956379D01*
X70099772Y-55090579D01*
X70195884Y-55139550D01*
X70303196Y-55194229D01*
X70303198Y-55194229D01*
X70303201Y-55194231D01*
X70419592Y-55232049D01*
X70520339Y-55264784D01*
X70745838Y-55300500D01*
X70745843Y-55300500D01*
X70974162Y-55300500D01*
X71199660Y-55264784D01*
X71416799Y-55194231D01*
X71620228Y-55090579D01*
X71804937Y-54956379D01*
X71966379Y-54794937D01*
X72100579Y-54610228D01*
X72204231Y-54406799D01*
X72274784Y-54189660D01*
X72292172Y-54079876D01*
X72310500Y-53964162D01*
X72310500Y-52435837D01*
X80439250Y-52435837D01*
X80439250Y-53964162D01*
X80474965Y-54189660D01*
X80545520Y-54406803D01*
X80649171Y-54610228D01*
X80783371Y-54794937D01*
X80944813Y-54956379D01*
X81129522Y-55090579D01*
X81225634Y-55139550D01*
X81332946Y-55194229D01*
X81332948Y-55194229D01*
X81332951Y-55194231D01*
X81449342Y-55232049D01*
X81550089Y-55264784D01*
X81775588Y-55300500D01*
X81775593Y-55300500D01*
X82003912Y-55300500D01*
X82229410Y-55264784D01*
X82446549Y-55194231D01*
X82649978Y-55090579D01*
X82834687Y-54956379D01*
X82996129Y-54794937D01*
X83130329Y-54610228D01*
X83233981Y-54406799D01*
X83304534Y-54189660D01*
X83321922Y-54079876D01*
X83340250Y-53964162D01*
X83340250Y-52435837D01*
X92739250Y-52435837D01*
X92739250Y-53964162D01*
X92774965Y-54189660D01*
X92845520Y-54406803D01*
X92949171Y-54610228D01*
X93083371Y-54794937D01*
X93244813Y-54956379D01*
X93429522Y-55090579D01*
X93525634Y-55139550D01*
X93632946Y-55194229D01*
X93632948Y-55194229D01*
X93632951Y-55194231D01*
X93749342Y-55232049D01*
X93850089Y-55264784D01*
X94075588Y-55300500D01*
X94075593Y-55300500D01*
X94303912Y-55300500D01*
X94529410Y-55264784D01*
X94746549Y-55194231D01*
X94949978Y-55090579D01*
X95134687Y-54956379D01*
X95296129Y-54794937D01*
X95430329Y-54610228D01*
X95533981Y-54406799D01*
X95604534Y-54189660D01*
X95621922Y-54079876D01*
X95640250Y-53964162D01*
X95640250Y-52435837D01*
X95604534Y-52210339D01*
X95533979Y-51993196D01*
X95430328Y-51789771D01*
X95296129Y-51605063D01*
X95134687Y-51443621D01*
X94949978Y-51309421D01*
X94902416Y-51285187D01*
X94746553Y-51205770D01*
X94529410Y-51135215D01*
X94303912Y-51099500D01*
X94303907Y-51099500D01*
X94075593Y-51099500D01*
X94075588Y-51099500D01*
X93850089Y-51135215D01*
X93632946Y-51205770D01*
X93429521Y-51309421D01*
X93244811Y-51443622D01*
X93083372Y-51605061D01*
X92949171Y-51789771D01*
X92845520Y-51993196D01*
X92774965Y-52210339D01*
X92739250Y-52435837D01*
X83340250Y-52435837D01*
X83304534Y-52210339D01*
X83233979Y-51993196D01*
X83130328Y-51789771D01*
X82996129Y-51605063D01*
X82834687Y-51443621D01*
X82649978Y-51309421D01*
X82602416Y-51285187D01*
X82446553Y-51205770D01*
X82229410Y-51135215D01*
X82003912Y-51099500D01*
X82003907Y-51099500D01*
X81775593Y-51099500D01*
X81775588Y-51099500D01*
X81550089Y-51135215D01*
X81332946Y-51205770D01*
X81129521Y-51309421D01*
X80944811Y-51443622D01*
X80783372Y-51605061D01*
X80649171Y-51789771D01*
X80545520Y-51993196D01*
X80474965Y-52210339D01*
X80439250Y-52435837D01*
X72310500Y-52435837D01*
X72274784Y-52210339D01*
X72204229Y-51993196D01*
X72100578Y-51789771D01*
X71966379Y-51605063D01*
X71804937Y-51443621D01*
X71620228Y-51309421D01*
X71572666Y-51285187D01*
X71416803Y-51205770D01*
X71199660Y-51135215D01*
X70974162Y-51099500D01*
X70974157Y-51099500D01*
X70745843Y-51099500D01*
X70745838Y-51099500D01*
X70520339Y-51135215D01*
X70303196Y-51205770D01*
X70099771Y-51309421D01*
X69915061Y-51443622D01*
X69753622Y-51605061D01*
X69619421Y-51789771D01*
X69515770Y-51993196D01*
X69445215Y-52210339D01*
X69409500Y-52435837D01*
X60010500Y-52435837D01*
X59974784Y-52210339D01*
X59904229Y-51993196D01*
X59800578Y-51789771D01*
X59666379Y-51605063D01*
X59504937Y-51443621D01*
X59320228Y-51309421D01*
X59272666Y-51285187D01*
X59116803Y-51205770D01*
X58899660Y-51135215D01*
X58674162Y-51099500D01*
X58674157Y-51099500D01*
X58445843Y-51099500D01*
X58445838Y-51099500D01*
X58220339Y-51135215D01*
X58003196Y-51205770D01*
X57799771Y-51309421D01*
X57615061Y-51443622D01*
X57453622Y-51605061D01*
X57319421Y-51789771D01*
X57215770Y-51993196D01*
X57145215Y-52210339D01*
X57109500Y-52435837D01*
X44650500Y-52435837D01*
X44650500Y-49700000D01*
X59355052Y-49700000D01*
X59374812Y-49951072D01*
X59433603Y-50195956D01*
X59529980Y-50428631D01*
X59661568Y-50643362D01*
X59662266Y-50644179D01*
X60282421Y-50024024D01*
X60295359Y-50055258D01*
X60377437Y-50178097D01*
X60481903Y-50282563D01*
X60604742Y-50364641D01*
X60635974Y-50377577D01*
X60015819Y-50997732D01*
X60015819Y-50997733D01*
X60016634Y-50998429D01*
X60231368Y-51130019D01*
X60464043Y-51226396D01*
X60708927Y-51285187D01*
X60960000Y-51304947D01*
X61211072Y-51285187D01*
X61455956Y-51226396D01*
X61688631Y-51130019D01*
X61903361Y-50998432D01*
X61903363Y-50998430D01*
X61904180Y-50997732D01*
X61284025Y-50377578D01*
X61315258Y-50364641D01*
X61438097Y-50282563D01*
X61542563Y-50178097D01*
X61624641Y-50055258D01*
X61637578Y-50024025D01*
X62257732Y-50644180D01*
X62258430Y-50643363D01*
X62258432Y-50643361D01*
X62390019Y-50428631D01*
X62486396Y-50195956D01*
X62545187Y-49951072D01*
X62564947Y-49700000D01*
X82684802Y-49700000D01*
X82704562Y-49951072D01*
X82763353Y-50195956D01*
X82859730Y-50428631D01*
X82991318Y-50643362D01*
X82992016Y-50644179D01*
X83612171Y-50024024D01*
X83625109Y-50055258D01*
X83707187Y-50178097D01*
X83811653Y-50282563D01*
X83934492Y-50364641D01*
X83965724Y-50377577D01*
X83345569Y-50997732D01*
X83345569Y-50997733D01*
X83346384Y-50998429D01*
X83561118Y-51130019D01*
X83793793Y-51226396D01*
X84038677Y-51285187D01*
X84289750Y-51304947D01*
X84540822Y-51285187D01*
X84785706Y-51226396D01*
X85018381Y-51130019D01*
X85233111Y-50998432D01*
X85233113Y-50998430D01*
X85233930Y-50997732D01*
X84613775Y-50377578D01*
X84645008Y-50364641D01*
X84767847Y-50282563D01*
X84872313Y-50178097D01*
X84954391Y-50055258D01*
X84967328Y-50024025D01*
X85587482Y-50644180D01*
X85588180Y-50643363D01*
X85588182Y-50643361D01*
X85719769Y-50428631D01*
X85816146Y-50195956D01*
X85874937Y-49951072D01*
X85894697Y-49700000D01*
X85874937Y-49448927D01*
X85816146Y-49204043D01*
X85719769Y-48971368D01*
X85588179Y-48756634D01*
X85587483Y-48755819D01*
X85587482Y-48755819D01*
X84967327Y-49375973D01*
X84954391Y-49344742D01*
X84872313Y-49221903D01*
X84767847Y-49117437D01*
X84645008Y-49035359D01*
X84613773Y-49022421D01*
X85233929Y-48402266D01*
X85233112Y-48401568D01*
X85018381Y-48269980D01*
X84785706Y-48173603D01*
X84540822Y-48114812D01*
X84289750Y-48095052D01*
X84038677Y-48114812D01*
X83793793Y-48173603D01*
X83561118Y-48269980D01*
X83346387Y-48401567D01*
X83345568Y-48402266D01*
X83965724Y-49022421D01*
X83934492Y-49035359D01*
X83811653Y-49117437D01*
X83707187Y-49221903D01*
X83625109Y-49344742D01*
X83612171Y-49375974D01*
X82992016Y-48755818D01*
X82991317Y-48756637D01*
X82859730Y-48971368D01*
X82763353Y-49204043D01*
X82704562Y-49448927D01*
X82684802Y-49700000D01*
X62564947Y-49700000D01*
X62545187Y-49448927D01*
X62486396Y-49204043D01*
X62390019Y-48971368D01*
X62258429Y-48756634D01*
X62257733Y-48755819D01*
X62257732Y-48755819D01*
X61637577Y-49375973D01*
X61624641Y-49344742D01*
X61542563Y-49221903D01*
X61438097Y-49117437D01*
X61315258Y-49035359D01*
X61284023Y-49022421D01*
X61904179Y-48402266D01*
X61903362Y-48401568D01*
X61688631Y-48269980D01*
X61455956Y-48173603D01*
X61211072Y-48114812D01*
X60960000Y-48095052D01*
X60708927Y-48114812D01*
X60464043Y-48173603D01*
X60231368Y-48269980D01*
X60016637Y-48401567D01*
X60015818Y-48402266D01*
X60635974Y-49022421D01*
X60604742Y-49035359D01*
X60481903Y-49117437D01*
X60377437Y-49221903D01*
X60295359Y-49344742D01*
X60282421Y-49375974D01*
X59662266Y-48755818D01*
X59661567Y-48756637D01*
X59529980Y-48971368D01*
X59433603Y-49204043D01*
X59374812Y-49448927D01*
X59355052Y-49700000D01*
X44650500Y-49700000D01*
X44650500Y-46993750D01*
X44650726Y-46986263D01*
X44667105Y-46715490D01*
X44668910Y-46700625D01*
X44717131Y-46437492D01*
X44720715Y-46422954D01*
X44800299Y-46167559D01*
X44805601Y-46153578D01*
X44915401Y-45909611D01*
X44922352Y-45896366D01*
X45060757Y-45667417D01*
X45069244Y-45655121D01*
X45234242Y-45444517D01*
X45244157Y-45433326D01*
X45433326Y-45244157D01*
X45444517Y-45234242D01*
X45655121Y-45069244D01*
X45667417Y-45060757D01*
X45896366Y-44922352D01*
X45909611Y-44915401D01*
X46153578Y-44805601D01*
X46167559Y-44800299D01*
X46422959Y-44720713D01*
X46437488Y-44717131D01*
X46700629Y-44668909D01*
X46715487Y-44667105D01*
X46986264Y-44650726D01*
X46993751Y-44650500D01*
X47029882Y-44650500D01*
X105370118Y-44650500D01*
X105406249Y-44650500D01*
X105413736Y-44650726D01*
G37*
G04 #@! TD.AperFunction*
M02*
