G04 #@! TF.GenerationSoftware,KiCad,Pcbnew,8.0.9*
G04 #@! TF.CreationDate,2025-03-02T14:16:38+01:00*
G04 #@! TF.ProjectId,cjss190,636a7373-3139-4302-9e6b-696361645f70,rev?*
G04 #@! TF.SameCoordinates,Original*
G04 #@! TF.FileFunction,Soldermask,Top*
G04 #@! TF.FilePolarity,Negative*
%FSLAX46Y46*%
G04 Gerber Fmt 4.6, Leading zero omitted, Abs format (unit mm)*
G04 Created by KiCad (PCBNEW 8.0.9) date 2025-03-02 14:16:38*
%MOMM*%
%LPD*%
G01*
G04 APERTURE LIST*
%ADD10C,1.600000*%
%ADD11O,1.600000X1.600000*%
%ADD12R,1.600000X1.600000*%
%ADD13R,1.050000X1.500000*%
%ADD14O,1.050000X1.500000*%
%ADD15C,5.600000*%
%ADD16R,1.200000X1.200000*%
%ADD17C,1.200000*%
%ADD18O,1.900000X3.200000*%
%ADD19C,2.000000*%
%ADD20C,2.200000*%
%ADD21R,1.700000X1.700000*%
%ADD22O,1.700000X1.700000*%
%ADD23C,3.200000*%
G04 APERTURE END LIST*
D10*
X78740000Y-69850000D03*
D11*
X88900000Y-69850000D03*
D10*
X87630000Y-100330000D03*
D11*
X77470000Y-100330000D03*
D10*
X73660000Y-80010000D03*
D11*
X63500000Y-80010000D03*
D12*
X104052380Y-64135000D03*
D10*
X101552380Y-64135000D03*
X45720000Y-85090000D03*
D11*
X55880000Y-85090000D03*
D10*
X45720000Y-74930000D03*
D11*
X55880000Y-74930000D03*
D10*
X88900000Y-90170000D03*
D11*
X78740000Y-90170000D03*
D10*
X63500000Y-90170000D03*
D11*
X73660000Y-90170000D03*
D13*
X93980000Y-85090000D03*
D14*
X92710000Y-85090000D03*
X91440000Y-85090000D03*
D10*
X88900000Y-64770000D03*
D11*
X78740000Y-64770000D03*
D13*
X58420000Y-74930000D03*
D14*
X59690000Y-74930000D03*
X60960000Y-74930000D03*
D10*
X106680000Y-80010000D03*
D11*
X96520000Y-80010000D03*
D10*
X45720000Y-90170000D03*
D11*
X55880000Y-90170000D03*
D10*
X78740000Y-92750000D03*
X78740000Y-97750000D03*
X73660000Y-92750000D03*
X73660000Y-97750000D03*
D15*
X104140000Y-57150000D03*
D10*
X45720000Y-69850000D03*
D11*
X55880000Y-69850000D03*
D10*
X64690000Y-95250000D03*
X59690000Y-95250000D03*
D16*
X68580000Y-95250000D03*
D17*
X70080000Y-95250000D03*
D13*
X93980000Y-69850000D03*
D14*
X92710000Y-69850000D03*
X91440000Y-69850000D03*
D10*
X64770000Y-100330000D03*
D11*
X74930000Y-100330000D03*
D10*
X55245000Y-61595000D03*
X55245000Y-66595000D03*
D16*
X93575000Y-64135000D03*
D17*
X92075000Y-64135000D03*
D16*
X83820000Y-95250000D03*
D17*
X82320000Y-95250000D03*
D10*
X52070000Y-99060000D03*
D11*
X62230000Y-99060000D03*
D10*
X106680000Y-74930000D03*
D11*
X96520000Y-74930000D03*
D10*
X45720000Y-80010000D03*
D11*
X55880000Y-80010000D03*
D18*
X70860000Y-53200000D03*
X58560000Y-53200000D03*
D19*
X60960000Y-56950000D03*
X68460000Y-56950000D03*
D20*
X60960000Y-49700000D03*
D10*
X95250000Y-95250000D03*
D11*
X105410000Y-95250000D03*
D13*
X93980000Y-80010000D03*
D14*
X92710000Y-80010000D03*
X91440000Y-80010000D03*
D10*
X57150000Y-95250000D03*
D11*
X46990000Y-95250000D03*
D10*
X100330000Y-99060000D03*
D11*
X90170000Y-99060000D03*
D13*
X58420000Y-85090000D03*
D14*
X59690000Y-85090000D03*
X60960000Y-85090000D03*
D13*
X93980000Y-74930000D03*
D14*
X92710000Y-74930000D03*
X91440000Y-74930000D03*
D10*
X73660000Y-85090000D03*
D11*
X63500000Y-85090000D03*
D10*
X78740000Y-74930000D03*
D11*
X88900000Y-74930000D03*
D13*
X58420000Y-69850000D03*
D14*
X59690000Y-69850000D03*
X60960000Y-69850000D03*
D21*
X74930000Y-104140000D03*
D22*
X77470000Y-104140000D03*
D10*
X97155000Y-61675000D03*
X97155000Y-66675000D03*
X106680000Y-90170000D03*
D11*
X96520000Y-90170000D03*
D13*
X58420000Y-80010000D03*
D14*
X59690000Y-80010000D03*
X60960000Y-80010000D03*
D12*
X48260000Y-64135000D03*
D10*
X50760000Y-64135000D03*
X106680000Y-85090000D03*
D11*
X96520000Y-85090000D03*
D10*
X78740000Y-80010000D03*
D11*
X88900000Y-80010000D03*
D10*
X73660000Y-69850000D03*
D11*
X63500000Y-69850000D03*
D23*
X104140000Y-102870000D03*
D10*
X106680000Y-69850000D03*
D11*
X96520000Y-69850000D03*
D10*
X73660000Y-74930000D03*
D11*
X63500000Y-74930000D03*
D10*
X63500000Y-64770000D03*
D11*
X73660000Y-64770000D03*
D16*
X58825000Y-64135000D03*
D17*
X60325000Y-64135000D03*
D18*
X94189750Y-53200000D03*
X81889750Y-53200000D03*
D19*
X84289750Y-56950000D03*
X91789750Y-56950000D03*
D20*
X84289750Y-49700000D03*
D10*
X78740000Y-85090000D03*
D11*
X88900000Y-85090000D03*
D23*
X48260000Y-102870000D03*
D15*
X48260000Y-57150000D03*
D10*
X87710000Y-95250000D03*
X92710000Y-95250000D03*
M02*
