G04 #@! TF.GenerationSoftware,KiCad,Pcbnew,8.0.9*
G04 #@! TF.CreationDate,2025-03-02T14:16:38+01:00*
G04 #@! TF.ProjectId,cjss190,636a7373-3139-4302-9e6b-696361645f70,rev?*
G04 #@! TF.SameCoordinates,Original*
G04 #@! TF.FileFunction,Legend,Bot*
G04 #@! TF.FilePolarity,Positive*
%FSLAX46Y46*%
G04 Gerber Fmt 4.6, Leading zero omitted, Abs format (unit mm)*
G04 Created by KiCad (PCBNEW 8.0.9) date 2025-03-02 14:16:38*
%MOMM*%
%LPD*%
G01*
G04 APERTURE LIST*
%ADD10C,0.300000*%
%ADD11C,0.100000*%
%ADD12C,0.700000*%
%ADD13C,0.240000*%
%ADD14C,0.360000*%
%ADD15C,0.150000*%
%ADD16C,0.304800*%
%ADD17C,1.600000*%
%ADD18O,1.600000X1.600000*%
%ADD19R,1.600000X1.600000*%
%ADD20R,1.050000X1.500000*%
%ADD21O,1.050000X1.500000*%
%ADD22C,5.600000*%
%ADD23R,1.200000X1.200000*%
%ADD24C,1.200000*%
%ADD25O,1.900000X3.200000*%
%ADD26C,2.000000*%
%ADD27C,2.200000*%
%ADD28R,1.700000X1.700000*%
%ADD29O,1.700000X1.700000*%
%ADD30C,3.200000*%
G04 APERTURE END LIST*
D10*
X74930000Y-52705000D02*
X74930000Y-53340000D01*
X77470000Y-52070000D02*
X78105000Y-52705000D01*
X71755000Y-59581051D02*
G75*
G02*
X74295000Y-59581051I1270000J-1270001D01*
G01*
X76200000Y-52070000D02*
X75565000Y-52070000D01*
X78105000Y-53975000D02*
G75*
G02*
X75565000Y-53975000I-1270000J0D01*
G01*
X75565000Y-53975000D02*
G75*
G02*
X78105000Y-53975000I1270000J0D01*
G01*
X74930000Y-53340000D02*
X76200000Y-52070000D01*
X75565000Y-52070000D02*
X74930000Y-52705000D01*
X79375000Y-57785000D02*
G75*
G02*
X74295000Y-57785000I-2540000J0D01*
G01*
X74295000Y-57785000D02*
G75*
G02*
X79375000Y-57785000I2540000J0D01*
G01*
X78105000Y-52705000D02*
X78740000Y-53340000D01*
D11*
X77470000Y-59055000D02*
X78105000Y-59690000D01*
D10*
X74930000Y-51435000D02*
X75565000Y-52070000D01*
X78740000Y-51435000D02*
X78105000Y-52070000D01*
X76781746Y-59525356D02*
G75*
G02*
X74294954Y-59581097I-1270046J1161056D01*
G01*
X78740000Y-52705000D02*
X79375000Y-52070000D01*
X74295000Y-52070000D02*
X74930000Y-51435000D01*
X78740000Y-53340000D02*
X78740000Y-52705000D01*
X78105000Y-52070000D02*
X78740000Y-52705000D01*
D12*
X76835000Y-59690000D02*
X77470000Y-59055000D01*
D10*
X79375000Y-52070000D02*
X78740000Y-51435000D01*
X74930000Y-52705000D02*
X74295000Y-52070000D01*
X78105000Y-52070000D02*
X77470000Y-52070000D01*
D13*
X63352856Y-47465662D02*
X63352856Y-46265662D01*
X63352856Y-46265662D02*
X62952856Y-47122805D01*
X62952856Y-47122805D02*
X62552856Y-46265662D01*
X62552856Y-46265662D02*
X62552856Y-47465662D01*
X61809999Y-47465662D02*
X61924284Y-47408520D01*
X61924284Y-47408520D02*
X61981427Y-47351377D01*
X61981427Y-47351377D02*
X62038570Y-47237091D01*
X62038570Y-47237091D02*
X62038570Y-46894234D01*
X62038570Y-46894234D02*
X61981427Y-46779948D01*
X61981427Y-46779948D02*
X61924284Y-46722805D01*
X61924284Y-46722805D02*
X61809999Y-46665662D01*
X61809999Y-46665662D02*
X61638570Y-46665662D01*
X61638570Y-46665662D02*
X61524284Y-46722805D01*
X61524284Y-46722805D02*
X61467142Y-46779948D01*
X61467142Y-46779948D02*
X61409999Y-46894234D01*
X61409999Y-46894234D02*
X61409999Y-47237091D01*
X61409999Y-47237091D02*
X61467142Y-47351377D01*
X61467142Y-47351377D02*
X61524284Y-47408520D01*
X61524284Y-47408520D02*
X61638570Y-47465662D01*
X61638570Y-47465662D02*
X61809999Y-47465662D01*
X61009999Y-46665662D02*
X60724285Y-47465662D01*
X60724285Y-47465662D02*
X60438570Y-46665662D01*
X59981427Y-47465662D02*
X59981427Y-46665662D01*
X59981427Y-46265662D02*
X60038570Y-46322805D01*
X60038570Y-46322805D02*
X59981427Y-46379948D01*
X59981427Y-46379948D02*
X59924284Y-46322805D01*
X59924284Y-46322805D02*
X59981427Y-46265662D01*
X59981427Y-46265662D02*
X59981427Y-46379948D01*
X59409998Y-46665662D02*
X59409998Y-47465662D01*
X59409998Y-46779948D02*
X59352855Y-46722805D01*
X59352855Y-46722805D02*
X59238570Y-46665662D01*
X59238570Y-46665662D02*
X59067141Y-46665662D01*
X59067141Y-46665662D02*
X58952855Y-46722805D01*
X58952855Y-46722805D02*
X58895713Y-46837091D01*
X58895713Y-46837091D02*
X58895713Y-47465662D01*
X57809999Y-46665662D02*
X57809999Y-47637091D01*
X57809999Y-47637091D02*
X57867141Y-47751377D01*
X57867141Y-47751377D02*
X57924284Y-47808520D01*
X57924284Y-47808520D02*
X58038570Y-47865662D01*
X58038570Y-47865662D02*
X58209999Y-47865662D01*
X58209999Y-47865662D02*
X58324284Y-47808520D01*
X57809999Y-47408520D02*
X57924284Y-47465662D01*
X57924284Y-47465662D02*
X58152856Y-47465662D01*
X58152856Y-47465662D02*
X58267141Y-47408520D01*
X58267141Y-47408520D02*
X58324284Y-47351377D01*
X58324284Y-47351377D02*
X58381427Y-47237091D01*
X58381427Y-47237091D02*
X58381427Y-46894234D01*
X58381427Y-46894234D02*
X58324284Y-46779948D01*
X58324284Y-46779948D02*
X58267141Y-46722805D01*
X58267141Y-46722805D02*
X58152856Y-46665662D01*
X58152856Y-46665662D02*
X57924284Y-46665662D01*
X57924284Y-46665662D02*
X57809999Y-46722805D01*
X55638570Y-47351377D02*
X55695713Y-47408520D01*
X55695713Y-47408520D02*
X55867141Y-47465662D01*
X55867141Y-47465662D02*
X55981427Y-47465662D01*
X55981427Y-47465662D02*
X56152856Y-47408520D01*
X56152856Y-47408520D02*
X56267141Y-47294234D01*
X56267141Y-47294234D02*
X56324284Y-47179948D01*
X56324284Y-47179948D02*
X56381427Y-46951377D01*
X56381427Y-46951377D02*
X56381427Y-46779948D01*
X56381427Y-46779948D02*
X56324284Y-46551377D01*
X56324284Y-46551377D02*
X56267141Y-46437091D01*
X56267141Y-46437091D02*
X56152856Y-46322805D01*
X56152856Y-46322805D02*
X55981427Y-46265662D01*
X55981427Y-46265662D02*
X55867141Y-46265662D01*
X55867141Y-46265662D02*
X55695713Y-46322805D01*
X55695713Y-46322805D02*
X55638570Y-46379948D01*
X54952856Y-47465662D02*
X55067141Y-47408520D01*
X55067141Y-47408520D02*
X55124284Y-47351377D01*
X55124284Y-47351377D02*
X55181427Y-47237091D01*
X55181427Y-47237091D02*
X55181427Y-46894234D01*
X55181427Y-46894234D02*
X55124284Y-46779948D01*
X55124284Y-46779948D02*
X55067141Y-46722805D01*
X55067141Y-46722805D02*
X54952856Y-46665662D01*
X54952856Y-46665662D02*
X54781427Y-46665662D01*
X54781427Y-46665662D02*
X54667141Y-46722805D01*
X54667141Y-46722805D02*
X54609999Y-46779948D01*
X54609999Y-46779948D02*
X54552856Y-46894234D01*
X54552856Y-46894234D02*
X54552856Y-47237091D01*
X54552856Y-47237091D02*
X54609999Y-47351377D01*
X54609999Y-47351377D02*
X54667141Y-47408520D01*
X54667141Y-47408520D02*
X54781427Y-47465662D01*
X54781427Y-47465662D02*
X54952856Y-47465662D01*
X54038570Y-47465662D02*
X54038570Y-46665662D01*
X54038570Y-46265662D02*
X54095713Y-46322805D01*
X54095713Y-46322805D02*
X54038570Y-46379948D01*
X54038570Y-46379948D02*
X53981427Y-46322805D01*
X53981427Y-46322805D02*
X54038570Y-46265662D01*
X54038570Y-46265662D02*
X54038570Y-46379948D01*
X53295713Y-47465662D02*
X53409998Y-47408520D01*
X53409998Y-47408520D02*
X53467141Y-47294234D01*
X53467141Y-47294234D02*
X53467141Y-46265662D01*
X51924284Y-46665662D02*
X51924284Y-47865662D01*
X51924284Y-46722805D02*
X51809999Y-46665662D01*
X51809999Y-46665662D02*
X51581427Y-46665662D01*
X51581427Y-46665662D02*
X51467141Y-46722805D01*
X51467141Y-46722805D02*
X51409999Y-46779948D01*
X51409999Y-46779948D02*
X51352856Y-46894234D01*
X51352856Y-46894234D02*
X51352856Y-47237091D01*
X51352856Y-47237091D02*
X51409999Y-47351377D01*
X51409999Y-47351377D02*
X51467141Y-47408520D01*
X51467141Y-47408520D02*
X51581427Y-47465662D01*
X51581427Y-47465662D02*
X51809999Y-47465662D01*
X51809999Y-47465662D02*
X51924284Y-47408520D01*
X50838570Y-47465662D02*
X50838570Y-46665662D01*
X50838570Y-46894234D02*
X50781427Y-46779948D01*
X50781427Y-46779948D02*
X50724285Y-46722805D01*
X50724285Y-46722805D02*
X50609999Y-46665662D01*
X50609999Y-46665662D02*
X50495713Y-46665662D01*
X49638570Y-47408520D02*
X49752856Y-47465662D01*
X49752856Y-47465662D02*
X49981428Y-47465662D01*
X49981428Y-47465662D02*
X50095713Y-47408520D01*
X50095713Y-47408520D02*
X50152856Y-47294234D01*
X50152856Y-47294234D02*
X50152856Y-46837091D01*
X50152856Y-46837091D02*
X50095713Y-46722805D01*
X50095713Y-46722805D02*
X49981428Y-46665662D01*
X49981428Y-46665662D02*
X49752856Y-46665662D01*
X49752856Y-46665662D02*
X49638570Y-46722805D01*
X49638570Y-46722805D02*
X49581428Y-46837091D01*
X49581428Y-46837091D02*
X49581428Y-46951377D01*
X49581428Y-46951377D02*
X50152856Y-47065662D01*
X48552857Y-47465662D02*
X48552857Y-46837091D01*
X48552857Y-46837091D02*
X48609999Y-46722805D01*
X48609999Y-46722805D02*
X48724285Y-46665662D01*
X48724285Y-46665662D02*
X48952857Y-46665662D01*
X48952857Y-46665662D02*
X49067142Y-46722805D01*
X48552857Y-47408520D02*
X48667142Y-47465662D01*
X48667142Y-47465662D02*
X48952857Y-47465662D01*
X48952857Y-47465662D02*
X49067142Y-47408520D01*
X49067142Y-47408520D02*
X49124285Y-47294234D01*
X49124285Y-47294234D02*
X49124285Y-47179948D01*
X49124285Y-47179948D02*
X49067142Y-47065662D01*
X49067142Y-47065662D02*
X48952857Y-47008520D01*
X48952857Y-47008520D02*
X48667142Y-47008520D01*
X48667142Y-47008520D02*
X48552857Y-46951377D01*
X47981428Y-47465662D02*
X47981428Y-46665662D01*
X47981428Y-46779948D02*
X47924285Y-46722805D01*
X47924285Y-46722805D02*
X47810000Y-46665662D01*
X47810000Y-46665662D02*
X47638571Y-46665662D01*
X47638571Y-46665662D02*
X47524285Y-46722805D01*
X47524285Y-46722805D02*
X47467143Y-46837091D01*
X47467143Y-46837091D02*
X47467143Y-47465662D01*
X47467143Y-46837091D02*
X47410000Y-46722805D01*
X47410000Y-46722805D02*
X47295714Y-46665662D01*
X47295714Y-46665662D02*
X47124285Y-46665662D01*
X47124285Y-46665662D02*
X47010000Y-46722805D01*
X47010000Y-46722805D02*
X46952857Y-46837091D01*
X46952857Y-46837091D02*
X46952857Y-47465662D01*
X46381428Y-46665662D02*
X46381428Y-47865662D01*
X46381428Y-46722805D02*
X46267143Y-46665662D01*
X46267143Y-46665662D02*
X46038571Y-46665662D01*
X46038571Y-46665662D02*
X45924285Y-46722805D01*
X45924285Y-46722805D02*
X45867143Y-46779948D01*
X45867143Y-46779948D02*
X45810000Y-46894234D01*
X45810000Y-46894234D02*
X45810000Y-47237091D01*
X45810000Y-47237091D02*
X45867143Y-47351377D01*
X45867143Y-47351377D02*
X45924285Y-47408520D01*
X45924285Y-47408520D02*
X46038571Y-47465662D01*
X46038571Y-47465662D02*
X46267143Y-47465662D01*
X46267143Y-47465662D02*
X46381428Y-47408520D01*
D11*
X95168401Y-103393419D02*
X95168401Y-104107704D01*
X95168401Y-104107704D02*
X95216020Y-104250561D01*
X95216020Y-104250561D02*
X95311258Y-104345800D01*
X95311258Y-104345800D02*
X95454115Y-104393419D01*
X95454115Y-104393419D02*
X95549353Y-104393419D01*
X94216020Y-104393419D02*
X94692210Y-104393419D01*
X94692210Y-104393419D02*
X94692210Y-103393419D01*
X93311258Y-104298180D02*
X93358877Y-104345800D01*
X93358877Y-104345800D02*
X93501734Y-104393419D01*
X93501734Y-104393419D02*
X93596972Y-104393419D01*
X93596972Y-104393419D02*
X93739829Y-104345800D01*
X93739829Y-104345800D02*
X93835067Y-104250561D01*
X93835067Y-104250561D02*
X93882686Y-104155323D01*
X93882686Y-104155323D02*
X93930305Y-103964847D01*
X93930305Y-103964847D02*
X93930305Y-103821990D01*
X93930305Y-103821990D02*
X93882686Y-103631514D01*
X93882686Y-103631514D02*
X93835067Y-103536276D01*
X93835067Y-103536276D02*
X93739829Y-103441038D01*
X93739829Y-103441038D02*
X93596972Y-103393419D01*
X93596972Y-103393419D02*
X93501734Y-103393419D01*
X93501734Y-103393419D02*
X93358877Y-103441038D01*
X93358877Y-103441038D02*
X93311258Y-103488657D01*
X92596972Y-103393419D02*
X92596972Y-104107704D01*
X92596972Y-104107704D02*
X92644591Y-104250561D01*
X92644591Y-104250561D02*
X92739829Y-104345800D01*
X92739829Y-104345800D02*
X92882686Y-104393419D01*
X92882686Y-104393419D02*
X92977924Y-104393419D01*
X91644591Y-104393419D02*
X92120781Y-104393419D01*
X92120781Y-104393419D02*
X92120781Y-103393419D01*
X90739829Y-104298180D02*
X90787448Y-104345800D01*
X90787448Y-104345800D02*
X90930305Y-104393419D01*
X90930305Y-104393419D02*
X91025543Y-104393419D01*
X91025543Y-104393419D02*
X91168400Y-104345800D01*
X91168400Y-104345800D02*
X91263638Y-104250561D01*
X91263638Y-104250561D02*
X91311257Y-104155323D01*
X91311257Y-104155323D02*
X91358876Y-103964847D01*
X91358876Y-103964847D02*
X91358876Y-103821990D01*
X91358876Y-103821990D02*
X91311257Y-103631514D01*
X91311257Y-103631514D02*
X91263638Y-103536276D01*
X91263638Y-103536276D02*
X91168400Y-103441038D01*
X91168400Y-103441038D02*
X91025543Y-103393419D01*
X91025543Y-103393419D02*
X90930305Y-103393419D01*
X90930305Y-103393419D02*
X90787448Y-103441038D01*
X90787448Y-103441038D02*
X90739829Y-103488657D01*
X90025543Y-103393419D02*
X90025543Y-104107704D01*
X90025543Y-104107704D02*
X90073162Y-104250561D01*
X90073162Y-104250561D02*
X90168400Y-104345800D01*
X90168400Y-104345800D02*
X90311257Y-104393419D01*
X90311257Y-104393419D02*
X90406495Y-104393419D01*
X89073162Y-104393419D02*
X89549352Y-104393419D01*
X89549352Y-104393419D02*
X89549352Y-103393419D01*
X88168400Y-104298180D02*
X88216019Y-104345800D01*
X88216019Y-104345800D02*
X88358876Y-104393419D01*
X88358876Y-104393419D02*
X88454114Y-104393419D01*
X88454114Y-104393419D02*
X88596971Y-104345800D01*
X88596971Y-104345800D02*
X88692209Y-104250561D01*
X88692209Y-104250561D02*
X88739828Y-104155323D01*
X88739828Y-104155323D02*
X88787447Y-103964847D01*
X88787447Y-103964847D02*
X88787447Y-103821990D01*
X88787447Y-103821990D02*
X88739828Y-103631514D01*
X88739828Y-103631514D02*
X88692209Y-103536276D01*
X88692209Y-103536276D02*
X88596971Y-103441038D01*
X88596971Y-103441038D02*
X88454114Y-103393419D01*
X88454114Y-103393419D02*
X88358876Y-103393419D01*
X88358876Y-103393419D02*
X88216019Y-103441038D01*
X88216019Y-103441038D02*
X88168400Y-103488657D01*
X87454114Y-103393419D02*
X87454114Y-104107704D01*
X87454114Y-104107704D02*
X87501733Y-104250561D01*
X87501733Y-104250561D02*
X87596971Y-104345800D01*
X87596971Y-104345800D02*
X87739828Y-104393419D01*
X87739828Y-104393419D02*
X87835066Y-104393419D01*
X86501733Y-104393419D02*
X86977923Y-104393419D01*
X86977923Y-104393419D02*
X86977923Y-103393419D01*
X85596971Y-104298180D02*
X85644590Y-104345800D01*
X85644590Y-104345800D02*
X85787447Y-104393419D01*
X85787447Y-104393419D02*
X85882685Y-104393419D01*
X85882685Y-104393419D02*
X86025542Y-104345800D01*
X86025542Y-104345800D02*
X86120780Y-104250561D01*
X86120780Y-104250561D02*
X86168399Y-104155323D01*
X86168399Y-104155323D02*
X86216018Y-103964847D01*
X86216018Y-103964847D02*
X86216018Y-103821990D01*
X86216018Y-103821990D02*
X86168399Y-103631514D01*
X86168399Y-103631514D02*
X86120780Y-103536276D01*
X86120780Y-103536276D02*
X86025542Y-103441038D01*
X86025542Y-103441038D02*
X85882685Y-103393419D01*
X85882685Y-103393419D02*
X85787447Y-103393419D01*
X85787447Y-103393419D02*
X85644590Y-103441038D01*
X85644590Y-103441038D02*
X85596971Y-103488657D01*
D14*
X86014285Y-45585994D02*
X84985714Y-45585994D01*
X85499999Y-47385994D02*
X85499999Y-45585994D01*
X83614285Y-46185994D02*
X83614285Y-47385994D01*
X84385713Y-46185994D02*
X84385713Y-47128851D01*
X84385713Y-47128851D02*
X84299999Y-47300280D01*
X84299999Y-47300280D02*
X84128570Y-47385994D01*
X84128570Y-47385994D02*
X83871427Y-47385994D01*
X83871427Y-47385994D02*
X83699999Y-47300280D01*
X83699999Y-47300280D02*
X83614285Y-47214565D01*
X81985714Y-47300280D02*
X82157142Y-47385994D01*
X82157142Y-47385994D02*
X82499999Y-47385994D01*
X82499999Y-47385994D02*
X82671428Y-47300280D01*
X82671428Y-47300280D02*
X82757142Y-47214565D01*
X82757142Y-47214565D02*
X82842856Y-47043137D01*
X82842856Y-47043137D02*
X82842856Y-46528851D01*
X82842856Y-46528851D02*
X82757142Y-46357422D01*
X82757142Y-46357422D02*
X82671428Y-46271708D01*
X82671428Y-46271708D02*
X82499999Y-46185994D01*
X82499999Y-46185994D02*
X82157142Y-46185994D01*
X82157142Y-46185994D02*
X81985714Y-46271708D01*
X81214285Y-47385994D02*
X81214285Y-45585994D01*
X80442857Y-47385994D02*
X80442857Y-46443137D01*
X80442857Y-46443137D02*
X80528571Y-46271708D01*
X80528571Y-46271708D02*
X80699999Y-46185994D01*
X80699999Y-46185994D02*
X80957142Y-46185994D01*
X80957142Y-46185994D02*
X81128571Y-46271708D01*
X81128571Y-46271708D02*
X81214285Y-46357422D01*
X79671428Y-46871708D02*
X78814286Y-46871708D01*
X79842857Y-47385994D02*
X79242857Y-45585994D01*
X79242857Y-45585994D02*
X78642857Y-47385994D01*
X77271429Y-46185994D02*
X77271429Y-47385994D01*
X78042857Y-46185994D02*
X78042857Y-47128851D01*
X78042857Y-47128851D02*
X77957143Y-47300280D01*
X77957143Y-47300280D02*
X77785714Y-47385994D01*
X77785714Y-47385994D02*
X77528571Y-47385994D01*
X77528571Y-47385994D02*
X77357143Y-47300280D01*
X77357143Y-47300280D02*
X77271429Y-47214565D01*
X75642858Y-47385994D02*
X75642858Y-45585994D01*
X75642858Y-47300280D02*
X75814286Y-47385994D01*
X75814286Y-47385994D02*
X76157143Y-47385994D01*
X76157143Y-47385994D02*
X76328572Y-47300280D01*
X76328572Y-47300280D02*
X76414286Y-47214565D01*
X76414286Y-47214565D02*
X76500000Y-47043137D01*
X76500000Y-47043137D02*
X76500000Y-46528851D01*
X76500000Y-46528851D02*
X76414286Y-46357422D01*
X76414286Y-46357422D02*
X76328572Y-46271708D01*
X76328572Y-46271708D02*
X76157143Y-46185994D01*
X76157143Y-46185994D02*
X75814286Y-46185994D01*
X75814286Y-46185994D02*
X75642858Y-46271708D01*
X74785715Y-47385994D02*
X74785715Y-46185994D01*
X74785715Y-45585994D02*
X74871429Y-45671708D01*
X74871429Y-45671708D02*
X74785715Y-45757422D01*
X74785715Y-45757422D02*
X74700001Y-45671708D01*
X74700001Y-45671708D02*
X74785715Y-45585994D01*
X74785715Y-45585994D02*
X74785715Y-45757422D01*
X73671429Y-47385994D02*
X73842858Y-47300280D01*
X73842858Y-47300280D02*
X73928572Y-47214565D01*
X73928572Y-47214565D02*
X74014286Y-47043137D01*
X74014286Y-47043137D02*
X74014286Y-46528851D01*
X74014286Y-46528851D02*
X73928572Y-46357422D01*
X73928572Y-46357422D02*
X73842858Y-46271708D01*
X73842858Y-46271708D02*
X73671429Y-46185994D01*
X73671429Y-46185994D02*
X73414286Y-46185994D01*
X73414286Y-46185994D02*
X73242858Y-46271708D01*
X73242858Y-46271708D02*
X73157144Y-46357422D01*
X73157144Y-46357422D02*
X73071429Y-46528851D01*
X73071429Y-46528851D02*
X73071429Y-47043137D01*
X73071429Y-47043137D02*
X73157144Y-47214565D01*
X73157144Y-47214565D02*
X73242858Y-47300280D01*
X73242858Y-47300280D02*
X73414286Y-47385994D01*
X73414286Y-47385994D02*
X73671429Y-47385994D01*
X69985715Y-47385994D02*
X71014286Y-47385994D01*
X70500001Y-47385994D02*
X70500001Y-45585994D01*
X70500001Y-45585994D02*
X70671429Y-45843137D01*
X70671429Y-45843137D02*
X70842858Y-46014565D01*
X70842858Y-46014565D02*
X71014286Y-46100280D01*
X69128572Y-47385994D02*
X68785715Y-47385994D01*
X68785715Y-47385994D02*
X68614286Y-47300280D01*
X68614286Y-47300280D02*
X68528572Y-47214565D01*
X68528572Y-47214565D02*
X68357143Y-46957422D01*
X68357143Y-46957422D02*
X68271429Y-46614565D01*
X68271429Y-46614565D02*
X68271429Y-45928851D01*
X68271429Y-45928851D02*
X68357143Y-45757422D01*
X68357143Y-45757422D02*
X68442858Y-45671708D01*
X68442858Y-45671708D02*
X68614286Y-45585994D01*
X68614286Y-45585994D02*
X68957143Y-45585994D01*
X68957143Y-45585994D02*
X69128572Y-45671708D01*
X69128572Y-45671708D02*
X69214286Y-45757422D01*
X69214286Y-45757422D02*
X69300000Y-45928851D01*
X69300000Y-45928851D02*
X69300000Y-46357422D01*
X69300000Y-46357422D02*
X69214286Y-46528851D01*
X69214286Y-46528851D02*
X69128572Y-46614565D01*
X69128572Y-46614565D02*
X68957143Y-46700280D01*
X68957143Y-46700280D02*
X68614286Y-46700280D01*
X68614286Y-46700280D02*
X68442858Y-46614565D01*
X68442858Y-46614565D02*
X68357143Y-46528851D01*
X68357143Y-46528851D02*
X68271429Y-46357422D01*
X67157143Y-45585994D02*
X66985714Y-45585994D01*
X66985714Y-45585994D02*
X66814286Y-45671708D01*
X66814286Y-45671708D02*
X66728572Y-45757422D01*
X66728572Y-45757422D02*
X66642857Y-45928851D01*
X66642857Y-45928851D02*
X66557143Y-46271708D01*
X66557143Y-46271708D02*
X66557143Y-46700280D01*
X66557143Y-46700280D02*
X66642857Y-47043137D01*
X66642857Y-47043137D02*
X66728572Y-47214565D01*
X66728572Y-47214565D02*
X66814286Y-47300280D01*
X66814286Y-47300280D02*
X66985714Y-47385994D01*
X66985714Y-47385994D02*
X67157143Y-47385994D01*
X67157143Y-47385994D02*
X67328572Y-47300280D01*
X67328572Y-47300280D02*
X67414286Y-47214565D01*
X67414286Y-47214565D02*
X67500000Y-47043137D01*
X67500000Y-47043137D02*
X67585714Y-46700280D01*
X67585714Y-46700280D02*
X67585714Y-46271708D01*
X67585714Y-46271708D02*
X67500000Y-45928851D01*
X67500000Y-45928851D02*
X67414286Y-45757422D01*
X67414286Y-45757422D02*
X67328572Y-45671708D01*
X67328572Y-45671708D02*
X67157143Y-45585994D01*
D11*
X55671353Y-49370752D02*
X55433258Y-50037419D01*
X55433258Y-50037419D02*
X55195163Y-49370752D01*
X54290401Y-50037419D02*
X54861829Y-50037419D01*
X54576115Y-50037419D02*
X54576115Y-49037419D01*
X54576115Y-49037419D02*
X54671353Y-49180276D01*
X54671353Y-49180276D02*
X54766591Y-49275514D01*
X54766591Y-49275514D02*
X54861829Y-49323133D01*
X52385638Y-49132657D02*
X52338019Y-49085038D01*
X52338019Y-49085038D02*
X52242781Y-49037419D01*
X52242781Y-49037419D02*
X52004686Y-49037419D01*
X52004686Y-49037419D02*
X51909448Y-49085038D01*
X51909448Y-49085038D02*
X51861829Y-49132657D01*
X51861829Y-49132657D02*
X51814210Y-49227895D01*
X51814210Y-49227895D02*
X51814210Y-49323133D01*
X51814210Y-49323133D02*
X51861829Y-49465990D01*
X51861829Y-49465990D02*
X52433257Y-50037419D01*
X52433257Y-50037419D02*
X51814210Y-50037419D01*
X51195162Y-49037419D02*
X51099924Y-49037419D01*
X51099924Y-49037419D02*
X51004686Y-49085038D01*
X51004686Y-49085038D02*
X50957067Y-49132657D01*
X50957067Y-49132657D02*
X50909448Y-49227895D01*
X50909448Y-49227895D02*
X50861829Y-49418371D01*
X50861829Y-49418371D02*
X50861829Y-49656466D01*
X50861829Y-49656466D02*
X50909448Y-49846942D01*
X50909448Y-49846942D02*
X50957067Y-49942180D01*
X50957067Y-49942180D02*
X51004686Y-49989800D01*
X51004686Y-49989800D02*
X51099924Y-50037419D01*
X51099924Y-50037419D02*
X51195162Y-50037419D01*
X51195162Y-50037419D02*
X51290400Y-49989800D01*
X51290400Y-49989800D02*
X51338019Y-49942180D01*
X51338019Y-49942180D02*
X51385638Y-49846942D01*
X51385638Y-49846942D02*
X51433257Y-49656466D01*
X51433257Y-49656466D02*
X51433257Y-49418371D01*
X51433257Y-49418371D02*
X51385638Y-49227895D01*
X51385638Y-49227895D02*
X51338019Y-49132657D01*
X51338019Y-49132657D02*
X51290400Y-49085038D01*
X51290400Y-49085038D02*
X51195162Y-49037419D01*
X50480876Y-49132657D02*
X50433257Y-49085038D01*
X50433257Y-49085038D02*
X50338019Y-49037419D01*
X50338019Y-49037419D02*
X50099924Y-49037419D01*
X50099924Y-49037419D02*
X50004686Y-49085038D01*
X50004686Y-49085038D02*
X49957067Y-49132657D01*
X49957067Y-49132657D02*
X49909448Y-49227895D01*
X49909448Y-49227895D02*
X49909448Y-49323133D01*
X49909448Y-49323133D02*
X49957067Y-49465990D01*
X49957067Y-49465990D02*
X50528495Y-50037419D01*
X50528495Y-50037419D02*
X49909448Y-50037419D01*
X49004686Y-49037419D02*
X49480876Y-49037419D01*
X49480876Y-49037419D02*
X49528495Y-49513609D01*
X49528495Y-49513609D02*
X49480876Y-49465990D01*
X49480876Y-49465990D02*
X49385638Y-49418371D01*
X49385638Y-49418371D02*
X49147543Y-49418371D01*
X49147543Y-49418371D02*
X49052305Y-49465990D01*
X49052305Y-49465990D02*
X49004686Y-49513609D01*
X49004686Y-49513609D02*
X48957067Y-49608847D01*
X48957067Y-49608847D02*
X48957067Y-49846942D01*
X48957067Y-49846942D02*
X49004686Y-49942180D01*
X49004686Y-49942180D02*
X49052305Y-49989800D01*
X49052305Y-49989800D02*
X49147543Y-50037419D01*
X49147543Y-50037419D02*
X49385638Y-50037419D01*
X49385638Y-50037419D02*
X49480876Y-49989800D01*
X49480876Y-49989800D02*
X49528495Y-49942180D01*
X48385638Y-49608847D02*
X48433257Y-49656466D01*
X48433257Y-49656466D02*
X48385638Y-49704085D01*
X48385638Y-49704085D02*
X48338019Y-49656466D01*
X48338019Y-49656466D02*
X48385638Y-49608847D01*
X48385638Y-49608847D02*
X48385638Y-49704085D01*
X47576114Y-49037419D02*
X47480876Y-49037419D01*
X47480876Y-49037419D02*
X47385638Y-49085038D01*
X47385638Y-49085038D02*
X47338019Y-49132657D01*
X47338019Y-49132657D02*
X47290400Y-49227895D01*
X47290400Y-49227895D02*
X47242781Y-49418371D01*
X47242781Y-49418371D02*
X47242781Y-49656466D01*
X47242781Y-49656466D02*
X47290400Y-49846942D01*
X47290400Y-49846942D02*
X47338019Y-49942180D01*
X47338019Y-49942180D02*
X47385638Y-49989800D01*
X47385638Y-49989800D02*
X47480876Y-50037419D01*
X47480876Y-50037419D02*
X47576114Y-50037419D01*
X47576114Y-50037419D02*
X47671352Y-49989800D01*
X47671352Y-49989800D02*
X47718971Y-49942180D01*
X47718971Y-49942180D02*
X47766590Y-49846942D01*
X47766590Y-49846942D02*
X47814209Y-49656466D01*
X47814209Y-49656466D02*
X47814209Y-49418371D01*
X47814209Y-49418371D02*
X47766590Y-49227895D01*
X47766590Y-49227895D02*
X47718971Y-49132657D01*
X47718971Y-49132657D02*
X47671352Y-49085038D01*
X47671352Y-49085038D02*
X47576114Y-49037419D01*
X46909447Y-49037419D02*
X46290400Y-49037419D01*
X46290400Y-49037419D02*
X46623733Y-49418371D01*
X46623733Y-49418371D02*
X46480876Y-49418371D01*
X46480876Y-49418371D02*
X46385638Y-49465990D01*
X46385638Y-49465990D02*
X46338019Y-49513609D01*
X46338019Y-49513609D02*
X46290400Y-49608847D01*
X46290400Y-49608847D02*
X46290400Y-49846942D01*
X46290400Y-49846942D02*
X46338019Y-49942180D01*
X46338019Y-49942180D02*
X46385638Y-49989800D01*
X46385638Y-49989800D02*
X46480876Y-50037419D01*
X46480876Y-50037419D02*
X46766590Y-50037419D01*
X46766590Y-50037419D02*
X46861828Y-49989800D01*
X46861828Y-49989800D02*
X46909447Y-49942180D01*
D15*
X84939047Y-70304819D02*
X85272380Y-69828628D01*
X85510475Y-70304819D02*
X85510475Y-69304819D01*
X85510475Y-69304819D02*
X85129523Y-69304819D01*
X85129523Y-69304819D02*
X85034285Y-69352438D01*
X85034285Y-69352438D02*
X84986666Y-69400057D01*
X84986666Y-69400057D02*
X84939047Y-69495295D01*
X84939047Y-69495295D02*
X84939047Y-69638152D01*
X84939047Y-69638152D02*
X84986666Y-69733390D01*
X84986666Y-69733390D02*
X85034285Y-69781009D01*
X85034285Y-69781009D02*
X85129523Y-69828628D01*
X85129523Y-69828628D02*
X85510475Y-69828628D01*
X84558094Y-69400057D02*
X84510475Y-69352438D01*
X84510475Y-69352438D02*
X84415237Y-69304819D01*
X84415237Y-69304819D02*
X84177142Y-69304819D01*
X84177142Y-69304819D02*
X84081904Y-69352438D01*
X84081904Y-69352438D02*
X84034285Y-69400057D01*
X84034285Y-69400057D02*
X83986666Y-69495295D01*
X83986666Y-69495295D02*
X83986666Y-69590533D01*
X83986666Y-69590533D02*
X84034285Y-69733390D01*
X84034285Y-69733390D02*
X84605713Y-70304819D01*
X84605713Y-70304819D02*
X83986666Y-70304819D01*
X83367618Y-69304819D02*
X83272380Y-69304819D01*
X83272380Y-69304819D02*
X83177142Y-69352438D01*
X83177142Y-69352438D02*
X83129523Y-69400057D01*
X83129523Y-69400057D02*
X83081904Y-69495295D01*
X83081904Y-69495295D02*
X83034285Y-69685771D01*
X83034285Y-69685771D02*
X83034285Y-69923866D01*
X83034285Y-69923866D02*
X83081904Y-70114342D01*
X83081904Y-70114342D02*
X83129523Y-70209580D01*
X83129523Y-70209580D02*
X83177142Y-70257200D01*
X83177142Y-70257200D02*
X83272380Y-70304819D01*
X83272380Y-70304819D02*
X83367618Y-70304819D01*
X83367618Y-70304819D02*
X83462856Y-70257200D01*
X83462856Y-70257200D02*
X83510475Y-70209580D01*
X83510475Y-70209580D02*
X83558094Y-70114342D01*
X83558094Y-70114342D02*
X83605713Y-69923866D01*
X83605713Y-69923866D02*
X83605713Y-69685771D01*
X83605713Y-69685771D02*
X83558094Y-69495295D01*
X83558094Y-69495295D02*
X83510475Y-69400057D01*
X83510475Y-69400057D02*
X83462856Y-69352438D01*
X83462856Y-69352438D02*
X83367618Y-69304819D01*
X82653332Y-69400057D02*
X82605713Y-69352438D01*
X82605713Y-69352438D02*
X82510475Y-69304819D01*
X82510475Y-69304819D02*
X82272380Y-69304819D01*
X82272380Y-69304819D02*
X82177142Y-69352438D01*
X82177142Y-69352438D02*
X82129523Y-69400057D01*
X82129523Y-69400057D02*
X82081904Y-69495295D01*
X82081904Y-69495295D02*
X82081904Y-69590533D01*
X82081904Y-69590533D02*
X82129523Y-69733390D01*
X82129523Y-69733390D02*
X82700951Y-70304819D01*
X82700951Y-70304819D02*
X82081904Y-70304819D01*
X83669047Y-100784819D02*
X84002380Y-100308628D01*
X84240475Y-100784819D02*
X84240475Y-99784819D01*
X84240475Y-99784819D02*
X83859523Y-99784819D01*
X83859523Y-99784819D02*
X83764285Y-99832438D01*
X83764285Y-99832438D02*
X83716666Y-99880057D01*
X83716666Y-99880057D02*
X83669047Y-99975295D01*
X83669047Y-99975295D02*
X83669047Y-100118152D01*
X83669047Y-100118152D02*
X83716666Y-100213390D01*
X83716666Y-100213390D02*
X83764285Y-100261009D01*
X83764285Y-100261009D02*
X83859523Y-100308628D01*
X83859523Y-100308628D02*
X84240475Y-100308628D01*
X83288094Y-99880057D02*
X83240475Y-99832438D01*
X83240475Y-99832438D02*
X83145237Y-99784819D01*
X83145237Y-99784819D02*
X82907142Y-99784819D01*
X82907142Y-99784819D02*
X82811904Y-99832438D01*
X82811904Y-99832438D02*
X82764285Y-99880057D01*
X82764285Y-99880057D02*
X82716666Y-99975295D01*
X82716666Y-99975295D02*
X82716666Y-100070533D01*
X82716666Y-100070533D02*
X82764285Y-100213390D01*
X82764285Y-100213390D02*
X83335713Y-100784819D01*
X83335713Y-100784819D02*
X82716666Y-100784819D01*
X81764285Y-100784819D02*
X82335713Y-100784819D01*
X82049999Y-100784819D02*
X82049999Y-99784819D01*
X82049999Y-99784819D02*
X82145237Y-99927676D01*
X82145237Y-99927676D02*
X82240475Y-100022914D01*
X82240475Y-100022914D02*
X82335713Y-100070533D01*
X81430951Y-99784819D02*
X80811904Y-99784819D01*
X80811904Y-99784819D02*
X81145237Y-100165771D01*
X81145237Y-100165771D02*
X81002380Y-100165771D01*
X81002380Y-100165771D02*
X80907142Y-100213390D01*
X80907142Y-100213390D02*
X80859523Y-100261009D01*
X80859523Y-100261009D02*
X80811904Y-100356247D01*
X80811904Y-100356247D02*
X80811904Y-100594342D01*
X80811904Y-100594342D02*
X80859523Y-100689580D01*
X80859523Y-100689580D02*
X80907142Y-100737200D01*
X80907142Y-100737200D02*
X81002380Y-100784819D01*
X81002380Y-100784819D02*
X81288094Y-100784819D01*
X81288094Y-100784819D02*
X81383332Y-100737200D01*
X81383332Y-100737200D02*
X81430951Y-100689580D01*
X69699047Y-80464819D02*
X70032380Y-79988628D01*
X70270475Y-80464819D02*
X70270475Y-79464819D01*
X70270475Y-79464819D02*
X69889523Y-79464819D01*
X69889523Y-79464819D02*
X69794285Y-79512438D01*
X69794285Y-79512438D02*
X69746666Y-79560057D01*
X69746666Y-79560057D02*
X69699047Y-79655295D01*
X69699047Y-79655295D02*
X69699047Y-79798152D01*
X69699047Y-79798152D02*
X69746666Y-79893390D01*
X69746666Y-79893390D02*
X69794285Y-79941009D01*
X69794285Y-79941009D02*
X69889523Y-79988628D01*
X69889523Y-79988628D02*
X70270475Y-79988628D01*
X68746666Y-80464819D02*
X69318094Y-80464819D01*
X69032380Y-80464819D02*
X69032380Y-79464819D01*
X69032380Y-79464819D02*
X69127618Y-79607676D01*
X69127618Y-79607676D02*
X69222856Y-79702914D01*
X69222856Y-79702914D02*
X69318094Y-79750533D01*
X68127618Y-79464819D02*
X68032380Y-79464819D01*
X68032380Y-79464819D02*
X67937142Y-79512438D01*
X67937142Y-79512438D02*
X67889523Y-79560057D01*
X67889523Y-79560057D02*
X67841904Y-79655295D01*
X67841904Y-79655295D02*
X67794285Y-79845771D01*
X67794285Y-79845771D02*
X67794285Y-80083866D01*
X67794285Y-80083866D02*
X67841904Y-80274342D01*
X67841904Y-80274342D02*
X67889523Y-80369580D01*
X67889523Y-80369580D02*
X67937142Y-80417200D01*
X67937142Y-80417200D02*
X68032380Y-80464819D01*
X68032380Y-80464819D02*
X68127618Y-80464819D01*
X68127618Y-80464819D02*
X68222856Y-80417200D01*
X68222856Y-80417200D02*
X68270475Y-80369580D01*
X68270475Y-80369580D02*
X68318094Y-80274342D01*
X68318094Y-80274342D02*
X68365713Y-80083866D01*
X68365713Y-80083866D02*
X68365713Y-79845771D01*
X68365713Y-79845771D02*
X68318094Y-79655295D01*
X68318094Y-79655295D02*
X68270475Y-79560057D01*
X68270475Y-79560057D02*
X68222856Y-79512438D01*
X68222856Y-79512438D02*
X68127618Y-79464819D01*
X66937142Y-79798152D02*
X66937142Y-80464819D01*
X67175237Y-79417200D02*
X67413332Y-80131485D01*
X67413332Y-80131485D02*
X66794285Y-80131485D01*
X103989047Y-62589580D02*
X104036666Y-62637200D01*
X104036666Y-62637200D02*
X104179523Y-62684819D01*
X104179523Y-62684819D02*
X104274761Y-62684819D01*
X104274761Y-62684819D02*
X104417618Y-62637200D01*
X104417618Y-62637200D02*
X104512856Y-62541961D01*
X104512856Y-62541961D02*
X104560475Y-62446723D01*
X104560475Y-62446723D02*
X104608094Y-62256247D01*
X104608094Y-62256247D02*
X104608094Y-62113390D01*
X104608094Y-62113390D02*
X104560475Y-61922914D01*
X104560475Y-61922914D02*
X104512856Y-61827676D01*
X104512856Y-61827676D02*
X104417618Y-61732438D01*
X104417618Y-61732438D02*
X104274761Y-61684819D01*
X104274761Y-61684819D02*
X104179523Y-61684819D01*
X104179523Y-61684819D02*
X104036666Y-61732438D01*
X104036666Y-61732438D02*
X103989047Y-61780057D01*
X103608094Y-61780057D02*
X103560475Y-61732438D01*
X103560475Y-61732438D02*
X103465237Y-61684819D01*
X103465237Y-61684819D02*
X103227142Y-61684819D01*
X103227142Y-61684819D02*
X103131904Y-61732438D01*
X103131904Y-61732438D02*
X103084285Y-61780057D01*
X103084285Y-61780057D02*
X103036666Y-61875295D01*
X103036666Y-61875295D02*
X103036666Y-61970533D01*
X103036666Y-61970533D02*
X103084285Y-62113390D01*
X103084285Y-62113390D02*
X103655713Y-62684819D01*
X103655713Y-62684819D02*
X103036666Y-62684819D01*
X102417618Y-61684819D02*
X102322380Y-61684819D01*
X102322380Y-61684819D02*
X102227142Y-61732438D01*
X102227142Y-61732438D02*
X102179523Y-61780057D01*
X102179523Y-61780057D02*
X102131904Y-61875295D01*
X102131904Y-61875295D02*
X102084285Y-62065771D01*
X102084285Y-62065771D02*
X102084285Y-62303866D01*
X102084285Y-62303866D02*
X102131904Y-62494342D01*
X102131904Y-62494342D02*
X102179523Y-62589580D01*
X102179523Y-62589580D02*
X102227142Y-62637200D01*
X102227142Y-62637200D02*
X102322380Y-62684819D01*
X102322380Y-62684819D02*
X102417618Y-62684819D01*
X102417618Y-62684819D02*
X102512856Y-62637200D01*
X102512856Y-62637200D02*
X102560475Y-62589580D01*
X102560475Y-62589580D02*
X102608094Y-62494342D01*
X102608094Y-62494342D02*
X102655713Y-62303866D01*
X102655713Y-62303866D02*
X102655713Y-62065771D01*
X102655713Y-62065771D02*
X102608094Y-61875295D01*
X102608094Y-61875295D02*
X102560475Y-61780057D01*
X102560475Y-61780057D02*
X102512856Y-61732438D01*
X102512856Y-61732438D02*
X102417618Y-61684819D01*
X101179523Y-61684819D02*
X101655713Y-61684819D01*
X101655713Y-61684819D02*
X101703332Y-62161009D01*
X101703332Y-62161009D02*
X101655713Y-62113390D01*
X101655713Y-62113390D02*
X101560475Y-62065771D01*
X101560475Y-62065771D02*
X101322380Y-62065771D01*
X101322380Y-62065771D02*
X101227142Y-62113390D01*
X101227142Y-62113390D02*
X101179523Y-62161009D01*
X101179523Y-62161009D02*
X101131904Y-62256247D01*
X101131904Y-62256247D02*
X101131904Y-62494342D01*
X101131904Y-62494342D02*
X101179523Y-62589580D01*
X101179523Y-62589580D02*
X101227142Y-62637200D01*
X101227142Y-62637200D02*
X101322380Y-62684819D01*
X101322380Y-62684819D02*
X101560475Y-62684819D01*
X101560475Y-62684819D02*
X101655713Y-62637200D01*
X101655713Y-62637200D02*
X101703332Y-62589580D01*
X51919047Y-85544819D02*
X52252380Y-85068628D01*
X52490475Y-85544819D02*
X52490475Y-84544819D01*
X52490475Y-84544819D02*
X52109523Y-84544819D01*
X52109523Y-84544819D02*
X52014285Y-84592438D01*
X52014285Y-84592438D02*
X51966666Y-84640057D01*
X51966666Y-84640057D02*
X51919047Y-84735295D01*
X51919047Y-84735295D02*
X51919047Y-84878152D01*
X51919047Y-84878152D02*
X51966666Y-84973390D01*
X51966666Y-84973390D02*
X52014285Y-85021009D01*
X52014285Y-85021009D02*
X52109523Y-85068628D01*
X52109523Y-85068628D02*
X52490475Y-85068628D01*
X50966666Y-85544819D02*
X51538094Y-85544819D01*
X51252380Y-85544819D02*
X51252380Y-84544819D01*
X51252380Y-84544819D02*
X51347618Y-84687676D01*
X51347618Y-84687676D02*
X51442856Y-84782914D01*
X51442856Y-84782914D02*
X51538094Y-84830533D01*
X50347618Y-84544819D02*
X50252380Y-84544819D01*
X50252380Y-84544819D02*
X50157142Y-84592438D01*
X50157142Y-84592438D02*
X50109523Y-84640057D01*
X50109523Y-84640057D02*
X50061904Y-84735295D01*
X50061904Y-84735295D02*
X50014285Y-84925771D01*
X50014285Y-84925771D02*
X50014285Y-85163866D01*
X50014285Y-85163866D02*
X50061904Y-85354342D01*
X50061904Y-85354342D02*
X50109523Y-85449580D01*
X50109523Y-85449580D02*
X50157142Y-85497200D01*
X50157142Y-85497200D02*
X50252380Y-85544819D01*
X50252380Y-85544819D02*
X50347618Y-85544819D01*
X50347618Y-85544819D02*
X50442856Y-85497200D01*
X50442856Y-85497200D02*
X50490475Y-85449580D01*
X50490475Y-85449580D02*
X50538094Y-85354342D01*
X50538094Y-85354342D02*
X50585713Y-85163866D01*
X50585713Y-85163866D02*
X50585713Y-84925771D01*
X50585713Y-84925771D02*
X50538094Y-84735295D01*
X50538094Y-84735295D02*
X50490475Y-84640057D01*
X50490475Y-84640057D02*
X50442856Y-84592438D01*
X50442856Y-84592438D02*
X50347618Y-84544819D01*
X49538094Y-85544819D02*
X49347618Y-85544819D01*
X49347618Y-85544819D02*
X49252380Y-85497200D01*
X49252380Y-85497200D02*
X49204761Y-85449580D01*
X49204761Y-85449580D02*
X49109523Y-85306723D01*
X49109523Y-85306723D02*
X49061904Y-85116247D01*
X49061904Y-85116247D02*
X49061904Y-84735295D01*
X49061904Y-84735295D02*
X49109523Y-84640057D01*
X49109523Y-84640057D02*
X49157142Y-84592438D01*
X49157142Y-84592438D02*
X49252380Y-84544819D01*
X49252380Y-84544819D02*
X49442856Y-84544819D01*
X49442856Y-84544819D02*
X49538094Y-84592438D01*
X49538094Y-84592438D02*
X49585713Y-84640057D01*
X49585713Y-84640057D02*
X49633332Y-84735295D01*
X49633332Y-84735295D02*
X49633332Y-84973390D01*
X49633332Y-84973390D02*
X49585713Y-85068628D01*
X49585713Y-85068628D02*
X49538094Y-85116247D01*
X49538094Y-85116247D02*
X49442856Y-85163866D01*
X49442856Y-85163866D02*
X49252380Y-85163866D01*
X49252380Y-85163866D02*
X49157142Y-85116247D01*
X49157142Y-85116247D02*
X49109523Y-85068628D01*
X49109523Y-85068628D02*
X49061904Y-84973390D01*
X51919047Y-75384819D02*
X52252380Y-74908628D01*
X52490475Y-75384819D02*
X52490475Y-74384819D01*
X52490475Y-74384819D02*
X52109523Y-74384819D01*
X52109523Y-74384819D02*
X52014285Y-74432438D01*
X52014285Y-74432438D02*
X51966666Y-74480057D01*
X51966666Y-74480057D02*
X51919047Y-74575295D01*
X51919047Y-74575295D02*
X51919047Y-74718152D01*
X51919047Y-74718152D02*
X51966666Y-74813390D01*
X51966666Y-74813390D02*
X52014285Y-74861009D01*
X52014285Y-74861009D02*
X52109523Y-74908628D01*
X52109523Y-74908628D02*
X52490475Y-74908628D01*
X50966666Y-75384819D02*
X51538094Y-75384819D01*
X51252380Y-75384819D02*
X51252380Y-74384819D01*
X51252380Y-74384819D02*
X51347618Y-74527676D01*
X51347618Y-74527676D02*
X51442856Y-74622914D01*
X51442856Y-74622914D02*
X51538094Y-74670533D01*
X50347618Y-74384819D02*
X50252380Y-74384819D01*
X50252380Y-74384819D02*
X50157142Y-74432438D01*
X50157142Y-74432438D02*
X50109523Y-74480057D01*
X50109523Y-74480057D02*
X50061904Y-74575295D01*
X50061904Y-74575295D02*
X50014285Y-74765771D01*
X50014285Y-74765771D02*
X50014285Y-75003866D01*
X50014285Y-75003866D02*
X50061904Y-75194342D01*
X50061904Y-75194342D02*
X50109523Y-75289580D01*
X50109523Y-75289580D02*
X50157142Y-75337200D01*
X50157142Y-75337200D02*
X50252380Y-75384819D01*
X50252380Y-75384819D02*
X50347618Y-75384819D01*
X50347618Y-75384819D02*
X50442856Y-75337200D01*
X50442856Y-75337200D02*
X50490475Y-75289580D01*
X50490475Y-75289580D02*
X50538094Y-75194342D01*
X50538094Y-75194342D02*
X50585713Y-75003866D01*
X50585713Y-75003866D02*
X50585713Y-74765771D01*
X50585713Y-74765771D02*
X50538094Y-74575295D01*
X50538094Y-74575295D02*
X50490475Y-74480057D01*
X50490475Y-74480057D02*
X50442856Y-74432438D01*
X50442856Y-74432438D02*
X50347618Y-74384819D01*
X49680951Y-74384819D02*
X49014285Y-74384819D01*
X49014285Y-74384819D02*
X49442856Y-75384819D01*
X84939047Y-90624819D02*
X85272380Y-90148628D01*
X85510475Y-90624819D02*
X85510475Y-89624819D01*
X85510475Y-89624819D02*
X85129523Y-89624819D01*
X85129523Y-89624819D02*
X85034285Y-89672438D01*
X85034285Y-89672438D02*
X84986666Y-89720057D01*
X84986666Y-89720057D02*
X84939047Y-89815295D01*
X84939047Y-89815295D02*
X84939047Y-89958152D01*
X84939047Y-89958152D02*
X84986666Y-90053390D01*
X84986666Y-90053390D02*
X85034285Y-90101009D01*
X85034285Y-90101009D02*
X85129523Y-90148628D01*
X85129523Y-90148628D02*
X85510475Y-90148628D01*
X84558094Y-89720057D02*
X84510475Y-89672438D01*
X84510475Y-89672438D02*
X84415237Y-89624819D01*
X84415237Y-89624819D02*
X84177142Y-89624819D01*
X84177142Y-89624819D02*
X84081904Y-89672438D01*
X84081904Y-89672438D02*
X84034285Y-89720057D01*
X84034285Y-89720057D02*
X83986666Y-89815295D01*
X83986666Y-89815295D02*
X83986666Y-89910533D01*
X83986666Y-89910533D02*
X84034285Y-90053390D01*
X84034285Y-90053390D02*
X84605713Y-90624819D01*
X84605713Y-90624819D02*
X83986666Y-90624819D01*
X83034285Y-90624819D02*
X83605713Y-90624819D01*
X83319999Y-90624819D02*
X83319999Y-89624819D01*
X83319999Y-89624819D02*
X83415237Y-89767676D01*
X83415237Y-89767676D02*
X83510475Y-89862914D01*
X83510475Y-89862914D02*
X83605713Y-89910533D01*
X82081904Y-90624819D02*
X82653332Y-90624819D01*
X82367618Y-90624819D02*
X82367618Y-89624819D01*
X82367618Y-89624819D02*
X82462856Y-89767676D01*
X82462856Y-89767676D02*
X82558094Y-89862914D01*
X82558094Y-89862914D02*
X82653332Y-89910533D01*
X69699047Y-90624819D02*
X70032380Y-90148628D01*
X70270475Y-90624819D02*
X70270475Y-89624819D01*
X70270475Y-89624819D02*
X69889523Y-89624819D01*
X69889523Y-89624819D02*
X69794285Y-89672438D01*
X69794285Y-89672438D02*
X69746666Y-89720057D01*
X69746666Y-89720057D02*
X69699047Y-89815295D01*
X69699047Y-89815295D02*
X69699047Y-89958152D01*
X69699047Y-89958152D02*
X69746666Y-90053390D01*
X69746666Y-90053390D02*
X69794285Y-90101009D01*
X69794285Y-90101009D02*
X69889523Y-90148628D01*
X69889523Y-90148628D02*
X70270475Y-90148628D01*
X68746666Y-90624819D02*
X69318094Y-90624819D01*
X69032380Y-90624819D02*
X69032380Y-89624819D01*
X69032380Y-89624819D02*
X69127618Y-89767676D01*
X69127618Y-89767676D02*
X69222856Y-89862914D01*
X69222856Y-89862914D02*
X69318094Y-89910533D01*
X67794285Y-90624819D02*
X68365713Y-90624819D01*
X68079999Y-90624819D02*
X68079999Y-89624819D01*
X68079999Y-89624819D02*
X68175237Y-89767676D01*
X68175237Y-89767676D02*
X68270475Y-89862914D01*
X68270475Y-89862914D02*
X68365713Y-89910533D01*
X66841904Y-90624819D02*
X67413332Y-90624819D01*
X67127618Y-90624819D02*
X67127618Y-89624819D01*
X67127618Y-89624819D02*
X67222856Y-89767676D01*
X67222856Y-89767676D02*
X67318094Y-89862914D01*
X67318094Y-89862914D02*
X67413332Y-89910533D01*
X93757619Y-84370057D02*
X93852857Y-84322438D01*
X93852857Y-84322438D02*
X93948095Y-84227200D01*
X93948095Y-84227200D02*
X94090952Y-84084342D01*
X94090952Y-84084342D02*
X94186190Y-84036723D01*
X94186190Y-84036723D02*
X94281428Y-84036723D01*
X94233809Y-84274819D02*
X94329047Y-84227200D01*
X94329047Y-84227200D02*
X94424285Y-84131961D01*
X94424285Y-84131961D02*
X94471904Y-83941485D01*
X94471904Y-83941485D02*
X94471904Y-83608152D01*
X94471904Y-83608152D02*
X94424285Y-83417676D01*
X94424285Y-83417676D02*
X94329047Y-83322438D01*
X94329047Y-83322438D02*
X94233809Y-83274819D01*
X94233809Y-83274819D02*
X94043333Y-83274819D01*
X94043333Y-83274819D02*
X93948095Y-83322438D01*
X93948095Y-83322438D02*
X93852857Y-83417676D01*
X93852857Y-83417676D02*
X93805238Y-83608152D01*
X93805238Y-83608152D02*
X93805238Y-83941485D01*
X93805238Y-83941485D02*
X93852857Y-84131961D01*
X93852857Y-84131961D02*
X93948095Y-84227200D01*
X93948095Y-84227200D02*
X94043333Y-84274819D01*
X94043333Y-84274819D02*
X94233809Y-84274819D01*
X93424285Y-83370057D02*
X93376666Y-83322438D01*
X93376666Y-83322438D02*
X93281428Y-83274819D01*
X93281428Y-83274819D02*
X93043333Y-83274819D01*
X93043333Y-83274819D02*
X92948095Y-83322438D01*
X92948095Y-83322438D02*
X92900476Y-83370057D01*
X92900476Y-83370057D02*
X92852857Y-83465295D01*
X92852857Y-83465295D02*
X92852857Y-83560533D01*
X92852857Y-83560533D02*
X92900476Y-83703390D01*
X92900476Y-83703390D02*
X93471904Y-84274819D01*
X93471904Y-84274819D02*
X92852857Y-84274819D01*
X92233809Y-83274819D02*
X92138571Y-83274819D01*
X92138571Y-83274819D02*
X92043333Y-83322438D01*
X92043333Y-83322438D02*
X91995714Y-83370057D01*
X91995714Y-83370057D02*
X91948095Y-83465295D01*
X91948095Y-83465295D02*
X91900476Y-83655771D01*
X91900476Y-83655771D02*
X91900476Y-83893866D01*
X91900476Y-83893866D02*
X91948095Y-84084342D01*
X91948095Y-84084342D02*
X91995714Y-84179580D01*
X91995714Y-84179580D02*
X92043333Y-84227200D01*
X92043333Y-84227200D02*
X92138571Y-84274819D01*
X92138571Y-84274819D02*
X92233809Y-84274819D01*
X92233809Y-84274819D02*
X92329047Y-84227200D01*
X92329047Y-84227200D02*
X92376666Y-84179580D01*
X92376666Y-84179580D02*
X92424285Y-84084342D01*
X92424285Y-84084342D02*
X92471904Y-83893866D01*
X92471904Y-83893866D02*
X92471904Y-83655771D01*
X92471904Y-83655771D02*
X92424285Y-83465295D01*
X92424285Y-83465295D02*
X92376666Y-83370057D01*
X92376666Y-83370057D02*
X92329047Y-83322438D01*
X92329047Y-83322438D02*
X92233809Y-83274819D01*
X91043333Y-83608152D02*
X91043333Y-84274819D01*
X91281428Y-83227200D02*
X91519523Y-83941485D01*
X91519523Y-83941485D02*
X90900476Y-83941485D01*
X84939047Y-65224819D02*
X85272380Y-64748628D01*
X85510475Y-65224819D02*
X85510475Y-64224819D01*
X85510475Y-64224819D02*
X85129523Y-64224819D01*
X85129523Y-64224819D02*
X85034285Y-64272438D01*
X85034285Y-64272438D02*
X84986666Y-64320057D01*
X84986666Y-64320057D02*
X84939047Y-64415295D01*
X84939047Y-64415295D02*
X84939047Y-64558152D01*
X84939047Y-64558152D02*
X84986666Y-64653390D01*
X84986666Y-64653390D02*
X85034285Y-64701009D01*
X85034285Y-64701009D02*
X85129523Y-64748628D01*
X85129523Y-64748628D02*
X85510475Y-64748628D01*
X84558094Y-64320057D02*
X84510475Y-64272438D01*
X84510475Y-64272438D02*
X84415237Y-64224819D01*
X84415237Y-64224819D02*
X84177142Y-64224819D01*
X84177142Y-64224819D02*
X84081904Y-64272438D01*
X84081904Y-64272438D02*
X84034285Y-64320057D01*
X84034285Y-64320057D02*
X83986666Y-64415295D01*
X83986666Y-64415295D02*
X83986666Y-64510533D01*
X83986666Y-64510533D02*
X84034285Y-64653390D01*
X84034285Y-64653390D02*
X84605713Y-65224819D01*
X84605713Y-65224819D02*
X83986666Y-65224819D01*
X83367618Y-64224819D02*
X83272380Y-64224819D01*
X83272380Y-64224819D02*
X83177142Y-64272438D01*
X83177142Y-64272438D02*
X83129523Y-64320057D01*
X83129523Y-64320057D02*
X83081904Y-64415295D01*
X83081904Y-64415295D02*
X83034285Y-64605771D01*
X83034285Y-64605771D02*
X83034285Y-64843866D01*
X83034285Y-64843866D02*
X83081904Y-65034342D01*
X83081904Y-65034342D02*
X83129523Y-65129580D01*
X83129523Y-65129580D02*
X83177142Y-65177200D01*
X83177142Y-65177200D02*
X83272380Y-65224819D01*
X83272380Y-65224819D02*
X83367618Y-65224819D01*
X83367618Y-65224819D02*
X83462856Y-65177200D01*
X83462856Y-65177200D02*
X83510475Y-65129580D01*
X83510475Y-65129580D02*
X83558094Y-65034342D01*
X83558094Y-65034342D02*
X83605713Y-64843866D01*
X83605713Y-64843866D02*
X83605713Y-64605771D01*
X83605713Y-64605771D02*
X83558094Y-64415295D01*
X83558094Y-64415295D02*
X83510475Y-64320057D01*
X83510475Y-64320057D02*
X83462856Y-64272438D01*
X83462856Y-64272438D02*
X83367618Y-64224819D01*
X82081904Y-65224819D02*
X82653332Y-65224819D01*
X82367618Y-65224819D02*
X82367618Y-64224819D01*
X82367618Y-64224819D02*
X82462856Y-64367676D01*
X82462856Y-64367676D02*
X82558094Y-64462914D01*
X82558094Y-64462914D02*
X82653332Y-64510533D01*
X60737619Y-74210057D02*
X60832857Y-74162438D01*
X60832857Y-74162438D02*
X60928095Y-74067200D01*
X60928095Y-74067200D02*
X61070952Y-73924342D01*
X61070952Y-73924342D02*
X61166190Y-73876723D01*
X61166190Y-73876723D02*
X61261428Y-73876723D01*
X61213809Y-74114819D02*
X61309047Y-74067200D01*
X61309047Y-74067200D02*
X61404285Y-73971961D01*
X61404285Y-73971961D02*
X61451904Y-73781485D01*
X61451904Y-73781485D02*
X61451904Y-73448152D01*
X61451904Y-73448152D02*
X61404285Y-73257676D01*
X61404285Y-73257676D02*
X61309047Y-73162438D01*
X61309047Y-73162438D02*
X61213809Y-73114819D01*
X61213809Y-73114819D02*
X61023333Y-73114819D01*
X61023333Y-73114819D02*
X60928095Y-73162438D01*
X60928095Y-73162438D02*
X60832857Y-73257676D01*
X60832857Y-73257676D02*
X60785238Y-73448152D01*
X60785238Y-73448152D02*
X60785238Y-73781485D01*
X60785238Y-73781485D02*
X60832857Y-73971961D01*
X60832857Y-73971961D02*
X60928095Y-74067200D01*
X60928095Y-74067200D02*
X61023333Y-74114819D01*
X61023333Y-74114819D02*
X61213809Y-74114819D01*
X59832857Y-74114819D02*
X60404285Y-74114819D01*
X60118571Y-74114819D02*
X60118571Y-73114819D01*
X60118571Y-73114819D02*
X60213809Y-73257676D01*
X60213809Y-73257676D02*
X60309047Y-73352914D01*
X60309047Y-73352914D02*
X60404285Y-73400533D01*
X59213809Y-73114819D02*
X59118571Y-73114819D01*
X59118571Y-73114819D02*
X59023333Y-73162438D01*
X59023333Y-73162438D02*
X58975714Y-73210057D01*
X58975714Y-73210057D02*
X58928095Y-73305295D01*
X58928095Y-73305295D02*
X58880476Y-73495771D01*
X58880476Y-73495771D02*
X58880476Y-73733866D01*
X58880476Y-73733866D02*
X58928095Y-73924342D01*
X58928095Y-73924342D02*
X58975714Y-74019580D01*
X58975714Y-74019580D02*
X59023333Y-74067200D01*
X59023333Y-74067200D02*
X59118571Y-74114819D01*
X59118571Y-74114819D02*
X59213809Y-74114819D01*
X59213809Y-74114819D02*
X59309047Y-74067200D01*
X59309047Y-74067200D02*
X59356666Y-74019580D01*
X59356666Y-74019580D02*
X59404285Y-73924342D01*
X59404285Y-73924342D02*
X59451904Y-73733866D01*
X59451904Y-73733866D02*
X59451904Y-73495771D01*
X59451904Y-73495771D02*
X59404285Y-73305295D01*
X59404285Y-73305295D02*
X59356666Y-73210057D01*
X59356666Y-73210057D02*
X59309047Y-73162438D01*
X59309047Y-73162438D02*
X59213809Y-73114819D01*
X58499523Y-73210057D02*
X58451904Y-73162438D01*
X58451904Y-73162438D02*
X58356666Y-73114819D01*
X58356666Y-73114819D02*
X58118571Y-73114819D01*
X58118571Y-73114819D02*
X58023333Y-73162438D01*
X58023333Y-73162438D02*
X57975714Y-73210057D01*
X57975714Y-73210057D02*
X57928095Y-73305295D01*
X57928095Y-73305295D02*
X57928095Y-73400533D01*
X57928095Y-73400533D02*
X57975714Y-73543390D01*
X57975714Y-73543390D02*
X58547142Y-74114819D01*
X58547142Y-74114819D02*
X57928095Y-74114819D01*
X102719047Y-80464819D02*
X103052380Y-79988628D01*
X103290475Y-80464819D02*
X103290475Y-79464819D01*
X103290475Y-79464819D02*
X102909523Y-79464819D01*
X102909523Y-79464819D02*
X102814285Y-79512438D01*
X102814285Y-79512438D02*
X102766666Y-79560057D01*
X102766666Y-79560057D02*
X102719047Y-79655295D01*
X102719047Y-79655295D02*
X102719047Y-79798152D01*
X102719047Y-79798152D02*
X102766666Y-79893390D01*
X102766666Y-79893390D02*
X102814285Y-79941009D01*
X102814285Y-79941009D02*
X102909523Y-79988628D01*
X102909523Y-79988628D02*
X103290475Y-79988628D01*
X102338094Y-79560057D02*
X102290475Y-79512438D01*
X102290475Y-79512438D02*
X102195237Y-79464819D01*
X102195237Y-79464819D02*
X101957142Y-79464819D01*
X101957142Y-79464819D02*
X101861904Y-79512438D01*
X101861904Y-79512438D02*
X101814285Y-79560057D01*
X101814285Y-79560057D02*
X101766666Y-79655295D01*
X101766666Y-79655295D02*
X101766666Y-79750533D01*
X101766666Y-79750533D02*
X101814285Y-79893390D01*
X101814285Y-79893390D02*
X102385713Y-80464819D01*
X102385713Y-80464819D02*
X101766666Y-80464819D01*
X101147618Y-79464819D02*
X101052380Y-79464819D01*
X101052380Y-79464819D02*
X100957142Y-79512438D01*
X100957142Y-79512438D02*
X100909523Y-79560057D01*
X100909523Y-79560057D02*
X100861904Y-79655295D01*
X100861904Y-79655295D02*
X100814285Y-79845771D01*
X100814285Y-79845771D02*
X100814285Y-80083866D01*
X100814285Y-80083866D02*
X100861904Y-80274342D01*
X100861904Y-80274342D02*
X100909523Y-80369580D01*
X100909523Y-80369580D02*
X100957142Y-80417200D01*
X100957142Y-80417200D02*
X101052380Y-80464819D01*
X101052380Y-80464819D02*
X101147618Y-80464819D01*
X101147618Y-80464819D02*
X101242856Y-80417200D01*
X101242856Y-80417200D02*
X101290475Y-80369580D01*
X101290475Y-80369580D02*
X101338094Y-80274342D01*
X101338094Y-80274342D02*
X101385713Y-80083866D01*
X101385713Y-80083866D02*
X101385713Y-79845771D01*
X101385713Y-79845771D02*
X101338094Y-79655295D01*
X101338094Y-79655295D02*
X101290475Y-79560057D01*
X101290475Y-79560057D02*
X101242856Y-79512438D01*
X101242856Y-79512438D02*
X101147618Y-79464819D01*
X100242856Y-79893390D02*
X100338094Y-79845771D01*
X100338094Y-79845771D02*
X100385713Y-79798152D01*
X100385713Y-79798152D02*
X100433332Y-79702914D01*
X100433332Y-79702914D02*
X100433332Y-79655295D01*
X100433332Y-79655295D02*
X100385713Y-79560057D01*
X100385713Y-79560057D02*
X100338094Y-79512438D01*
X100338094Y-79512438D02*
X100242856Y-79464819D01*
X100242856Y-79464819D02*
X100052380Y-79464819D01*
X100052380Y-79464819D02*
X99957142Y-79512438D01*
X99957142Y-79512438D02*
X99909523Y-79560057D01*
X99909523Y-79560057D02*
X99861904Y-79655295D01*
X99861904Y-79655295D02*
X99861904Y-79702914D01*
X99861904Y-79702914D02*
X99909523Y-79798152D01*
X99909523Y-79798152D02*
X99957142Y-79845771D01*
X99957142Y-79845771D02*
X100052380Y-79893390D01*
X100052380Y-79893390D02*
X100242856Y-79893390D01*
X100242856Y-79893390D02*
X100338094Y-79941009D01*
X100338094Y-79941009D02*
X100385713Y-79988628D01*
X100385713Y-79988628D02*
X100433332Y-80083866D01*
X100433332Y-80083866D02*
X100433332Y-80274342D01*
X100433332Y-80274342D02*
X100385713Y-80369580D01*
X100385713Y-80369580D02*
X100338094Y-80417200D01*
X100338094Y-80417200D02*
X100242856Y-80464819D01*
X100242856Y-80464819D02*
X100052380Y-80464819D01*
X100052380Y-80464819D02*
X99957142Y-80417200D01*
X99957142Y-80417200D02*
X99909523Y-80369580D01*
X99909523Y-80369580D02*
X99861904Y-80274342D01*
X99861904Y-80274342D02*
X99861904Y-80083866D01*
X99861904Y-80083866D02*
X99909523Y-79988628D01*
X99909523Y-79988628D02*
X99957142Y-79941009D01*
X99957142Y-79941009D02*
X100052380Y-79893390D01*
X51919047Y-90624819D02*
X52252380Y-90148628D01*
X52490475Y-90624819D02*
X52490475Y-89624819D01*
X52490475Y-89624819D02*
X52109523Y-89624819D01*
X52109523Y-89624819D02*
X52014285Y-89672438D01*
X52014285Y-89672438D02*
X51966666Y-89720057D01*
X51966666Y-89720057D02*
X51919047Y-89815295D01*
X51919047Y-89815295D02*
X51919047Y-89958152D01*
X51919047Y-89958152D02*
X51966666Y-90053390D01*
X51966666Y-90053390D02*
X52014285Y-90101009D01*
X52014285Y-90101009D02*
X52109523Y-90148628D01*
X52109523Y-90148628D02*
X52490475Y-90148628D01*
X50966666Y-90624819D02*
X51538094Y-90624819D01*
X51252380Y-90624819D02*
X51252380Y-89624819D01*
X51252380Y-89624819D02*
X51347618Y-89767676D01*
X51347618Y-89767676D02*
X51442856Y-89862914D01*
X51442856Y-89862914D02*
X51538094Y-89910533D01*
X50014285Y-90624819D02*
X50585713Y-90624819D01*
X50299999Y-90624819D02*
X50299999Y-89624819D01*
X50299999Y-89624819D02*
X50395237Y-89767676D01*
X50395237Y-89767676D02*
X50490475Y-89862914D01*
X50490475Y-89862914D02*
X50585713Y-89910533D01*
X49395237Y-89624819D02*
X49299999Y-89624819D01*
X49299999Y-89624819D02*
X49204761Y-89672438D01*
X49204761Y-89672438D02*
X49157142Y-89720057D01*
X49157142Y-89720057D02*
X49109523Y-89815295D01*
X49109523Y-89815295D02*
X49061904Y-90005771D01*
X49061904Y-90005771D02*
X49061904Y-90243866D01*
X49061904Y-90243866D02*
X49109523Y-90434342D01*
X49109523Y-90434342D02*
X49157142Y-90529580D01*
X49157142Y-90529580D02*
X49204761Y-90577200D01*
X49204761Y-90577200D02*
X49299999Y-90624819D01*
X49299999Y-90624819D02*
X49395237Y-90624819D01*
X49395237Y-90624819D02*
X49490475Y-90577200D01*
X49490475Y-90577200D02*
X49538094Y-90529580D01*
X49538094Y-90529580D02*
X49585713Y-90434342D01*
X49585713Y-90434342D02*
X49633332Y-90243866D01*
X49633332Y-90243866D02*
X49633332Y-90005771D01*
X49633332Y-90005771D02*
X49585713Y-89815295D01*
X49585713Y-89815295D02*
X49538094Y-89720057D01*
X49538094Y-89720057D02*
X49490475Y-89672438D01*
X49490475Y-89672438D02*
X49395237Y-89624819D01*
X78380419Y-96369047D02*
X78332800Y-96416666D01*
X78332800Y-96416666D02*
X78285180Y-96559523D01*
X78285180Y-96559523D02*
X78285180Y-96654761D01*
X78285180Y-96654761D02*
X78332800Y-96797618D01*
X78332800Y-96797618D02*
X78428038Y-96892856D01*
X78428038Y-96892856D02*
X78523276Y-96940475D01*
X78523276Y-96940475D02*
X78713752Y-96988094D01*
X78713752Y-96988094D02*
X78856609Y-96988094D01*
X78856609Y-96988094D02*
X79047085Y-96940475D01*
X79047085Y-96940475D02*
X79142323Y-96892856D01*
X79142323Y-96892856D02*
X79237561Y-96797618D01*
X79237561Y-96797618D02*
X79285180Y-96654761D01*
X79285180Y-96654761D02*
X79285180Y-96559523D01*
X79285180Y-96559523D02*
X79237561Y-96416666D01*
X79237561Y-96416666D02*
X79189942Y-96369047D01*
X79189942Y-95988094D02*
X79237561Y-95940475D01*
X79237561Y-95940475D02*
X79285180Y-95845237D01*
X79285180Y-95845237D02*
X79285180Y-95607142D01*
X79285180Y-95607142D02*
X79237561Y-95511904D01*
X79237561Y-95511904D02*
X79189942Y-95464285D01*
X79189942Y-95464285D02*
X79094704Y-95416666D01*
X79094704Y-95416666D02*
X78999466Y-95416666D01*
X78999466Y-95416666D02*
X78856609Y-95464285D01*
X78856609Y-95464285D02*
X78285180Y-96035713D01*
X78285180Y-96035713D02*
X78285180Y-95416666D01*
X79285180Y-94797618D02*
X79285180Y-94702380D01*
X79285180Y-94702380D02*
X79237561Y-94607142D01*
X79237561Y-94607142D02*
X79189942Y-94559523D01*
X79189942Y-94559523D02*
X79094704Y-94511904D01*
X79094704Y-94511904D02*
X78904228Y-94464285D01*
X78904228Y-94464285D02*
X78666133Y-94464285D01*
X78666133Y-94464285D02*
X78475657Y-94511904D01*
X78475657Y-94511904D02*
X78380419Y-94559523D01*
X78380419Y-94559523D02*
X78332800Y-94607142D01*
X78332800Y-94607142D02*
X78285180Y-94702380D01*
X78285180Y-94702380D02*
X78285180Y-94797618D01*
X78285180Y-94797618D02*
X78332800Y-94892856D01*
X78332800Y-94892856D02*
X78380419Y-94940475D01*
X78380419Y-94940475D02*
X78475657Y-94988094D01*
X78475657Y-94988094D02*
X78666133Y-95035713D01*
X78666133Y-95035713D02*
X78904228Y-95035713D01*
X78904228Y-95035713D02*
X79094704Y-94988094D01*
X79094704Y-94988094D02*
X79189942Y-94940475D01*
X79189942Y-94940475D02*
X79237561Y-94892856D01*
X79237561Y-94892856D02*
X79285180Y-94797618D01*
X78951847Y-93607142D02*
X78285180Y-93607142D01*
X79332800Y-93845237D02*
X78618514Y-94083332D01*
X78618514Y-94083332D02*
X78618514Y-93464285D01*
X73300419Y-96369047D02*
X73252800Y-96416666D01*
X73252800Y-96416666D02*
X73205180Y-96559523D01*
X73205180Y-96559523D02*
X73205180Y-96654761D01*
X73205180Y-96654761D02*
X73252800Y-96797618D01*
X73252800Y-96797618D02*
X73348038Y-96892856D01*
X73348038Y-96892856D02*
X73443276Y-96940475D01*
X73443276Y-96940475D02*
X73633752Y-96988094D01*
X73633752Y-96988094D02*
X73776609Y-96988094D01*
X73776609Y-96988094D02*
X73967085Y-96940475D01*
X73967085Y-96940475D02*
X74062323Y-96892856D01*
X74062323Y-96892856D02*
X74157561Y-96797618D01*
X74157561Y-96797618D02*
X74205180Y-96654761D01*
X74205180Y-96654761D02*
X74205180Y-96559523D01*
X74205180Y-96559523D02*
X74157561Y-96416666D01*
X74157561Y-96416666D02*
X74109942Y-96369047D01*
X73205180Y-95416666D02*
X73205180Y-95988094D01*
X73205180Y-95702380D02*
X74205180Y-95702380D01*
X74205180Y-95702380D02*
X74062323Y-95797618D01*
X74062323Y-95797618D02*
X73967085Y-95892856D01*
X73967085Y-95892856D02*
X73919466Y-95988094D01*
X74205180Y-94797618D02*
X74205180Y-94702380D01*
X74205180Y-94702380D02*
X74157561Y-94607142D01*
X74157561Y-94607142D02*
X74109942Y-94559523D01*
X74109942Y-94559523D02*
X74014704Y-94511904D01*
X74014704Y-94511904D02*
X73824228Y-94464285D01*
X73824228Y-94464285D02*
X73586133Y-94464285D01*
X73586133Y-94464285D02*
X73395657Y-94511904D01*
X73395657Y-94511904D02*
X73300419Y-94559523D01*
X73300419Y-94559523D02*
X73252800Y-94607142D01*
X73252800Y-94607142D02*
X73205180Y-94702380D01*
X73205180Y-94702380D02*
X73205180Y-94797618D01*
X73205180Y-94797618D02*
X73252800Y-94892856D01*
X73252800Y-94892856D02*
X73300419Y-94940475D01*
X73300419Y-94940475D02*
X73395657Y-94988094D01*
X73395657Y-94988094D02*
X73586133Y-95035713D01*
X73586133Y-95035713D02*
X73824228Y-95035713D01*
X73824228Y-95035713D02*
X74014704Y-94988094D01*
X74014704Y-94988094D02*
X74109942Y-94940475D01*
X74109942Y-94940475D02*
X74157561Y-94892856D01*
X74157561Y-94892856D02*
X74205180Y-94797618D01*
X73871847Y-93607142D02*
X73205180Y-93607142D01*
X74252800Y-93845237D02*
X73538514Y-94083332D01*
X73538514Y-94083332D02*
X73538514Y-93464285D01*
X51919047Y-70304819D02*
X52252380Y-69828628D01*
X52490475Y-70304819D02*
X52490475Y-69304819D01*
X52490475Y-69304819D02*
X52109523Y-69304819D01*
X52109523Y-69304819D02*
X52014285Y-69352438D01*
X52014285Y-69352438D02*
X51966666Y-69400057D01*
X51966666Y-69400057D02*
X51919047Y-69495295D01*
X51919047Y-69495295D02*
X51919047Y-69638152D01*
X51919047Y-69638152D02*
X51966666Y-69733390D01*
X51966666Y-69733390D02*
X52014285Y-69781009D01*
X52014285Y-69781009D02*
X52109523Y-69828628D01*
X52109523Y-69828628D02*
X52490475Y-69828628D01*
X50966666Y-70304819D02*
X51538094Y-70304819D01*
X51252380Y-70304819D02*
X51252380Y-69304819D01*
X51252380Y-69304819D02*
X51347618Y-69447676D01*
X51347618Y-69447676D02*
X51442856Y-69542914D01*
X51442856Y-69542914D02*
X51538094Y-69590533D01*
X50347618Y-69304819D02*
X50252380Y-69304819D01*
X50252380Y-69304819D02*
X50157142Y-69352438D01*
X50157142Y-69352438D02*
X50109523Y-69400057D01*
X50109523Y-69400057D02*
X50061904Y-69495295D01*
X50061904Y-69495295D02*
X50014285Y-69685771D01*
X50014285Y-69685771D02*
X50014285Y-69923866D01*
X50014285Y-69923866D02*
X50061904Y-70114342D01*
X50061904Y-70114342D02*
X50109523Y-70209580D01*
X50109523Y-70209580D02*
X50157142Y-70257200D01*
X50157142Y-70257200D02*
X50252380Y-70304819D01*
X50252380Y-70304819D02*
X50347618Y-70304819D01*
X50347618Y-70304819D02*
X50442856Y-70257200D01*
X50442856Y-70257200D02*
X50490475Y-70209580D01*
X50490475Y-70209580D02*
X50538094Y-70114342D01*
X50538094Y-70114342D02*
X50585713Y-69923866D01*
X50585713Y-69923866D02*
X50585713Y-69685771D01*
X50585713Y-69685771D02*
X50538094Y-69495295D01*
X50538094Y-69495295D02*
X50490475Y-69400057D01*
X50490475Y-69400057D02*
X50442856Y-69352438D01*
X50442856Y-69352438D02*
X50347618Y-69304819D01*
X49157142Y-69304819D02*
X49347618Y-69304819D01*
X49347618Y-69304819D02*
X49442856Y-69352438D01*
X49442856Y-69352438D02*
X49490475Y-69400057D01*
X49490475Y-69400057D02*
X49585713Y-69542914D01*
X49585713Y-69542914D02*
X49633332Y-69733390D01*
X49633332Y-69733390D02*
X49633332Y-70114342D01*
X49633332Y-70114342D02*
X49585713Y-70209580D01*
X49585713Y-70209580D02*
X49538094Y-70257200D01*
X49538094Y-70257200D02*
X49442856Y-70304819D01*
X49442856Y-70304819D02*
X49252380Y-70304819D01*
X49252380Y-70304819D02*
X49157142Y-70257200D01*
X49157142Y-70257200D02*
X49109523Y-70209580D01*
X49109523Y-70209580D02*
X49061904Y-70114342D01*
X49061904Y-70114342D02*
X49061904Y-69876247D01*
X49061904Y-69876247D02*
X49109523Y-69781009D01*
X49109523Y-69781009D02*
X49157142Y-69733390D01*
X49157142Y-69733390D02*
X49252380Y-69685771D01*
X49252380Y-69685771D02*
X49442856Y-69685771D01*
X49442856Y-69685771D02*
X49538094Y-69733390D01*
X49538094Y-69733390D02*
X49585713Y-69781009D01*
X49585713Y-69781009D02*
X49633332Y-69876247D01*
X63349047Y-95609580D02*
X63396666Y-95657200D01*
X63396666Y-95657200D02*
X63539523Y-95704819D01*
X63539523Y-95704819D02*
X63634761Y-95704819D01*
X63634761Y-95704819D02*
X63777618Y-95657200D01*
X63777618Y-95657200D02*
X63872856Y-95561961D01*
X63872856Y-95561961D02*
X63920475Y-95466723D01*
X63920475Y-95466723D02*
X63968094Y-95276247D01*
X63968094Y-95276247D02*
X63968094Y-95133390D01*
X63968094Y-95133390D02*
X63920475Y-94942914D01*
X63920475Y-94942914D02*
X63872856Y-94847676D01*
X63872856Y-94847676D02*
X63777618Y-94752438D01*
X63777618Y-94752438D02*
X63634761Y-94704819D01*
X63634761Y-94704819D02*
X63539523Y-94704819D01*
X63539523Y-94704819D02*
X63396666Y-94752438D01*
X63396666Y-94752438D02*
X63349047Y-94800057D01*
X62396666Y-95704819D02*
X62968094Y-95704819D01*
X62682380Y-95704819D02*
X62682380Y-94704819D01*
X62682380Y-94704819D02*
X62777618Y-94847676D01*
X62777618Y-94847676D02*
X62872856Y-94942914D01*
X62872856Y-94942914D02*
X62968094Y-94990533D01*
X61777618Y-94704819D02*
X61682380Y-94704819D01*
X61682380Y-94704819D02*
X61587142Y-94752438D01*
X61587142Y-94752438D02*
X61539523Y-94800057D01*
X61539523Y-94800057D02*
X61491904Y-94895295D01*
X61491904Y-94895295D02*
X61444285Y-95085771D01*
X61444285Y-95085771D02*
X61444285Y-95323866D01*
X61444285Y-95323866D02*
X61491904Y-95514342D01*
X61491904Y-95514342D02*
X61539523Y-95609580D01*
X61539523Y-95609580D02*
X61587142Y-95657200D01*
X61587142Y-95657200D02*
X61682380Y-95704819D01*
X61682380Y-95704819D02*
X61777618Y-95704819D01*
X61777618Y-95704819D02*
X61872856Y-95657200D01*
X61872856Y-95657200D02*
X61920475Y-95609580D01*
X61920475Y-95609580D02*
X61968094Y-95514342D01*
X61968094Y-95514342D02*
X62015713Y-95323866D01*
X62015713Y-95323866D02*
X62015713Y-95085771D01*
X62015713Y-95085771D02*
X61968094Y-94895295D01*
X61968094Y-94895295D02*
X61920475Y-94800057D01*
X61920475Y-94800057D02*
X61872856Y-94752438D01*
X61872856Y-94752438D02*
X61777618Y-94704819D01*
X61063332Y-94800057D02*
X61015713Y-94752438D01*
X61015713Y-94752438D02*
X60920475Y-94704819D01*
X60920475Y-94704819D02*
X60682380Y-94704819D01*
X60682380Y-94704819D02*
X60587142Y-94752438D01*
X60587142Y-94752438D02*
X60539523Y-94800057D01*
X60539523Y-94800057D02*
X60491904Y-94895295D01*
X60491904Y-94895295D02*
X60491904Y-94990533D01*
X60491904Y-94990533D02*
X60539523Y-95133390D01*
X60539523Y-95133390D02*
X61110951Y-95704819D01*
X61110951Y-95704819D02*
X60491904Y-95704819D01*
X70449047Y-93704580D02*
X70496666Y-93752200D01*
X70496666Y-93752200D02*
X70639523Y-93799819D01*
X70639523Y-93799819D02*
X70734761Y-93799819D01*
X70734761Y-93799819D02*
X70877618Y-93752200D01*
X70877618Y-93752200D02*
X70972856Y-93656961D01*
X70972856Y-93656961D02*
X71020475Y-93561723D01*
X71020475Y-93561723D02*
X71068094Y-93371247D01*
X71068094Y-93371247D02*
X71068094Y-93228390D01*
X71068094Y-93228390D02*
X71020475Y-93037914D01*
X71020475Y-93037914D02*
X70972856Y-92942676D01*
X70972856Y-92942676D02*
X70877618Y-92847438D01*
X70877618Y-92847438D02*
X70734761Y-92799819D01*
X70734761Y-92799819D02*
X70639523Y-92799819D01*
X70639523Y-92799819D02*
X70496666Y-92847438D01*
X70496666Y-92847438D02*
X70449047Y-92895057D01*
X69496666Y-93799819D02*
X70068094Y-93799819D01*
X69782380Y-93799819D02*
X69782380Y-92799819D01*
X69782380Y-92799819D02*
X69877618Y-92942676D01*
X69877618Y-92942676D02*
X69972856Y-93037914D01*
X69972856Y-93037914D02*
X70068094Y-93085533D01*
X68877618Y-92799819D02*
X68782380Y-92799819D01*
X68782380Y-92799819D02*
X68687142Y-92847438D01*
X68687142Y-92847438D02*
X68639523Y-92895057D01*
X68639523Y-92895057D02*
X68591904Y-92990295D01*
X68591904Y-92990295D02*
X68544285Y-93180771D01*
X68544285Y-93180771D02*
X68544285Y-93418866D01*
X68544285Y-93418866D02*
X68591904Y-93609342D01*
X68591904Y-93609342D02*
X68639523Y-93704580D01*
X68639523Y-93704580D02*
X68687142Y-93752200D01*
X68687142Y-93752200D02*
X68782380Y-93799819D01*
X68782380Y-93799819D02*
X68877618Y-93799819D01*
X68877618Y-93799819D02*
X68972856Y-93752200D01*
X68972856Y-93752200D02*
X69020475Y-93704580D01*
X69020475Y-93704580D02*
X69068094Y-93609342D01*
X69068094Y-93609342D02*
X69115713Y-93418866D01*
X69115713Y-93418866D02*
X69115713Y-93180771D01*
X69115713Y-93180771D02*
X69068094Y-92990295D01*
X69068094Y-92990295D02*
X69020475Y-92895057D01*
X69020475Y-92895057D02*
X68972856Y-92847438D01*
X68972856Y-92847438D02*
X68877618Y-92799819D01*
X68210951Y-92799819D02*
X67591904Y-92799819D01*
X67591904Y-92799819D02*
X67925237Y-93180771D01*
X67925237Y-93180771D02*
X67782380Y-93180771D01*
X67782380Y-93180771D02*
X67687142Y-93228390D01*
X67687142Y-93228390D02*
X67639523Y-93276009D01*
X67639523Y-93276009D02*
X67591904Y-93371247D01*
X67591904Y-93371247D02*
X67591904Y-93609342D01*
X67591904Y-93609342D02*
X67639523Y-93704580D01*
X67639523Y-93704580D02*
X67687142Y-93752200D01*
X67687142Y-93752200D02*
X67782380Y-93799819D01*
X67782380Y-93799819D02*
X68068094Y-93799819D01*
X68068094Y-93799819D02*
X68163332Y-93752200D01*
X68163332Y-93752200D02*
X68210951Y-93704580D01*
X93757619Y-69130057D02*
X93852857Y-69082438D01*
X93852857Y-69082438D02*
X93948095Y-68987200D01*
X93948095Y-68987200D02*
X94090952Y-68844342D01*
X94090952Y-68844342D02*
X94186190Y-68796723D01*
X94186190Y-68796723D02*
X94281428Y-68796723D01*
X94233809Y-69034819D02*
X94329047Y-68987200D01*
X94329047Y-68987200D02*
X94424285Y-68891961D01*
X94424285Y-68891961D02*
X94471904Y-68701485D01*
X94471904Y-68701485D02*
X94471904Y-68368152D01*
X94471904Y-68368152D02*
X94424285Y-68177676D01*
X94424285Y-68177676D02*
X94329047Y-68082438D01*
X94329047Y-68082438D02*
X94233809Y-68034819D01*
X94233809Y-68034819D02*
X94043333Y-68034819D01*
X94043333Y-68034819D02*
X93948095Y-68082438D01*
X93948095Y-68082438D02*
X93852857Y-68177676D01*
X93852857Y-68177676D02*
X93805238Y-68368152D01*
X93805238Y-68368152D02*
X93805238Y-68701485D01*
X93805238Y-68701485D02*
X93852857Y-68891961D01*
X93852857Y-68891961D02*
X93948095Y-68987200D01*
X93948095Y-68987200D02*
X94043333Y-69034819D01*
X94043333Y-69034819D02*
X94233809Y-69034819D01*
X93424285Y-68130057D02*
X93376666Y-68082438D01*
X93376666Y-68082438D02*
X93281428Y-68034819D01*
X93281428Y-68034819D02*
X93043333Y-68034819D01*
X93043333Y-68034819D02*
X92948095Y-68082438D01*
X92948095Y-68082438D02*
X92900476Y-68130057D01*
X92900476Y-68130057D02*
X92852857Y-68225295D01*
X92852857Y-68225295D02*
X92852857Y-68320533D01*
X92852857Y-68320533D02*
X92900476Y-68463390D01*
X92900476Y-68463390D02*
X93471904Y-69034819D01*
X93471904Y-69034819D02*
X92852857Y-69034819D01*
X92233809Y-68034819D02*
X92138571Y-68034819D01*
X92138571Y-68034819D02*
X92043333Y-68082438D01*
X92043333Y-68082438D02*
X91995714Y-68130057D01*
X91995714Y-68130057D02*
X91948095Y-68225295D01*
X91948095Y-68225295D02*
X91900476Y-68415771D01*
X91900476Y-68415771D02*
X91900476Y-68653866D01*
X91900476Y-68653866D02*
X91948095Y-68844342D01*
X91948095Y-68844342D02*
X91995714Y-68939580D01*
X91995714Y-68939580D02*
X92043333Y-68987200D01*
X92043333Y-68987200D02*
X92138571Y-69034819D01*
X92138571Y-69034819D02*
X92233809Y-69034819D01*
X92233809Y-69034819D02*
X92329047Y-68987200D01*
X92329047Y-68987200D02*
X92376666Y-68939580D01*
X92376666Y-68939580D02*
X92424285Y-68844342D01*
X92424285Y-68844342D02*
X92471904Y-68653866D01*
X92471904Y-68653866D02*
X92471904Y-68415771D01*
X92471904Y-68415771D02*
X92424285Y-68225295D01*
X92424285Y-68225295D02*
X92376666Y-68130057D01*
X92376666Y-68130057D02*
X92329047Y-68082438D01*
X92329047Y-68082438D02*
X92233809Y-68034819D01*
X90948095Y-69034819D02*
X91519523Y-69034819D01*
X91233809Y-69034819D02*
X91233809Y-68034819D01*
X91233809Y-68034819D02*
X91329047Y-68177676D01*
X91329047Y-68177676D02*
X91424285Y-68272914D01*
X91424285Y-68272914D02*
X91519523Y-68320533D01*
X70969047Y-100784819D02*
X71302380Y-100308628D01*
X71540475Y-100784819D02*
X71540475Y-99784819D01*
X71540475Y-99784819D02*
X71159523Y-99784819D01*
X71159523Y-99784819D02*
X71064285Y-99832438D01*
X71064285Y-99832438D02*
X71016666Y-99880057D01*
X71016666Y-99880057D02*
X70969047Y-99975295D01*
X70969047Y-99975295D02*
X70969047Y-100118152D01*
X70969047Y-100118152D02*
X71016666Y-100213390D01*
X71016666Y-100213390D02*
X71064285Y-100261009D01*
X71064285Y-100261009D02*
X71159523Y-100308628D01*
X71159523Y-100308628D02*
X71540475Y-100308628D01*
X70016666Y-100784819D02*
X70588094Y-100784819D01*
X70302380Y-100784819D02*
X70302380Y-99784819D01*
X70302380Y-99784819D02*
X70397618Y-99927676D01*
X70397618Y-99927676D02*
X70492856Y-100022914D01*
X70492856Y-100022914D02*
X70588094Y-100070533D01*
X69064285Y-100784819D02*
X69635713Y-100784819D01*
X69349999Y-100784819D02*
X69349999Y-99784819D01*
X69349999Y-99784819D02*
X69445237Y-99927676D01*
X69445237Y-99927676D02*
X69540475Y-100022914D01*
X69540475Y-100022914D02*
X69635713Y-100070533D01*
X68730951Y-99784819D02*
X68111904Y-99784819D01*
X68111904Y-99784819D02*
X68445237Y-100165771D01*
X68445237Y-100165771D02*
X68302380Y-100165771D01*
X68302380Y-100165771D02*
X68207142Y-100213390D01*
X68207142Y-100213390D02*
X68159523Y-100261009D01*
X68159523Y-100261009D02*
X68111904Y-100356247D01*
X68111904Y-100356247D02*
X68111904Y-100594342D01*
X68111904Y-100594342D02*
X68159523Y-100689580D01*
X68159523Y-100689580D02*
X68207142Y-100737200D01*
X68207142Y-100737200D02*
X68302380Y-100784819D01*
X68302380Y-100784819D02*
X68588094Y-100784819D01*
X68588094Y-100784819D02*
X68683332Y-100737200D01*
X68683332Y-100737200D02*
X68730951Y-100689580D01*
X60809047Y-62589580D02*
X60856666Y-62637200D01*
X60856666Y-62637200D02*
X60999523Y-62684819D01*
X60999523Y-62684819D02*
X61094761Y-62684819D01*
X61094761Y-62684819D02*
X61237618Y-62637200D01*
X61237618Y-62637200D02*
X61332856Y-62541961D01*
X61332856Y-62541961D02*
X61380475Y-62446723D01*
X61380475Y-62446723D02*
X61428094Y-62256247D01*
X61428094Y-62256247D02*
X61428094Y-62113390D01*
X61428094Y-62113390D02*
X61380475Y-61922914D01*
X61380475Y-61922914D02*
X61332856Y-61827676D01*
X61332856Y-61827676D02*
X61237618Y-61732438D01*
X61237618Y-61732438D02*
X61094761Y-61684819D01*
X61094761Y-61684819D02*
X60999523Y-61684819D01*
X60999523Y-61684819D02*
X60856666Y-61732438D01*
X60856666Y-61732438D02*
X60809047Y-61780057D01*
X59856666Y-62684819D02*
X60428094Y-62684819D01*
X60142380Y-62684819D02*
X60142380Y-61684819D01*
X60142380Y-61684819D02*
X60237618Y-61827676D01*
X60237618Y-61827676D02*
X60332856Y-61922914D01*
X60332856Y-61922914D02*
X60428094Y-61970533D01*
X59237618Y-61684819D02*
X59142380Y-61684819D01*
X59142380Y-61684819D02*
X59047142Y-61732438D01*
X59047142Y-61732438D02*
X58999523Y-61780057D01*
X58999523Y-61780057D02*
X58951904Y-61875295D01*
X58951904Y-61875295D02*
X58904285Y-62065771D01*
X58904285Y-62065771D02*
X58904285Y-62303866D01*
X58904285Y-62303866D02*
X58951904Y-62494342D01*
X58951904Y-62494342D02*
X58999523Y-62589580D01*
X58999523Y-62589580D02*
X59047142Y-62637200D01*
X59047142Y-62637200D02*
X59142380Y-62684819D01*
X59142380Y-62684819D02*
X59237618Y-62684819D01*
X59237618Y-62684819D02*
X59332856Y-62637200D01*
X59332856Y-62637200D02*
X59380475Y-62589580D01*
X59380475Y-62589580D02*
X59428094Y-62494342D01*
X59428094Y-62494342D02*
X59475713Y-62303866D01*
X59475713Y-62303866D02*
X59475713Y-62065771D01*
X59475713Y-62065771D02*
X59428094Y-61875295D01*
X59428094Y-61875295D02*
X59380475Y-61780057D01*
X59380475Y-61780057D02*
X59332856Y-61732438D01*
X59332856Y-61732438D02*
X59237618Y-61684819D01*
X58047142Y-61684819D02*
X58237618Y-61684819D01*
X58237618Y-61684819D02*
X58332856Y-61732438D01*
X58332856Y-61732438D02*
X58380475Y-61780057D01*
X58380475Y-61780057D02*
X58475713Y-61922914D01*
X58475713Y-61922914D02*
X58523332Y-62113390D01*
X58523332Y-62113390D02*
X58523332Y-62494342D01*
X58523332Y-62494342D02*
X58475713Y-62589580D01*
X58475713Y-62589580D02*
X58428094Y-62637200D01*
X58428094Y-62637200D02*
X58332856Y-62684819D01*
X58332856Y-62684819D02*
X58142380Y-62684819D01*
X58142380Y-62684819D02*
X58047142Y-62637200D01*
X58047142Y-62637200D02*
X57999523Y-62589580D01*
X57999523Y-62589580D02*
X57951904Y-62494342D01*
X57951904Y-62494342D02*
X57951904Y-62256247D01*
X57951904Y-62256247D02*
X57999523Y-62161009D01*
X57999523Y-62161009D02*
X58047142Y-62113390D01*
X58047142Y-62113390D02*
X58142380Y-62065771D01*
X58142380Y-62065771D02*
X58332856Y-62065771D01*
X58332856Y-62065771D02*
X58428094Y-62113390D01*
X58428094Y-62113390D02*
X58475713Y-62161009D01*
X58475713Y-62161009D02*
X58523332Y-62256247D01*
X93944047Y-62589580D02*
X93991666Y-62637200D01*
X93991666Y-62637200D02*
X94134523Y-62684819D01*
X94134523Y-62684819D02*
X94229761Y-62684819D01*
X94229761Y-62684819D02*
X94372618Y-62637200D01*
X94372618Y-62637200D02*
X94467856Y-62541961D01*
X94467856Y-62541961D02*
X94515475Y-62446723D01*
X94515475Y-62446723D02*
X94563094Y-62256247D01*
X94563094Y-62256247D02*
X94563094Y-62113390D01*
X94563094Y-62113390D02*
X94515475Y-61922914D01*
X94515475Y-61922914D02*
X94467856Y-61827676D01*
X94467856Y-61827676D02*
X94372618Y-61732438D01*
X94372618Y-61732438D02*
X94229761Y-61684819D01*
X94229761Y-61684819D02*
X94134523Y-61684819D01*
X94134523Y-61684819D02*
X93991666Y-61732438D01*
X93991666Y-61732438D02*
X93944047Y-61780057D01*
X93563094Y-61780057D02*
X93515475Y-61732438D01*
X93515475Y-61732438D02*
X93420237Y-61684819D01*
X93420237Y-61684819D02*
X93182142Y-61684819D01*
X93182142Y-61684819D02*
X93086904Y-61732438D01*
X93086904Y-61732438D02*
X93039285Y-61780057D01*
X93039285Y-61780057D02*
X92991666Y-61875295D01*
X92991666Y-61875295D02*
X92991666Y-61970533D01*
X92991666Y-61970533D02*
X93039285Y-62113390D01*
X93039285Y-62113390D02*
X93610713Y-62684819D01*
X93610713Y-62684819D02*
X92991666Y-62684819D01*
X92372618Y-61684819D02*
X92277380Y-61684819D01*
X92277380Y-61684819D02*
X92182142Y-61732438D01*
X92182142Y-61732438D02*
X92134523Y-61780057D01*
X92134523Y-61780057D02*
X92086904Y-61875295D01*
X92086904Y-61875295D02*
X92039285Y-62065771D01*
X92039285Y-62065771D02*
X92039285Y-62303866D01*
X92039285Y-62303866D02*
X92086904Y-62494342D01*
X92086904Y-62494342D02*
X92134523Y-62589580D01*
X92134523Y-62589580D02*
X92182142Y-62637200D01*
X92182142Y-62637200D02*
X92277380Y-62684819D01*
X92277380Y-62684819D02*
X92372618Y-62684819D01*
X92372618Y-62684819D02*
X92467856Y-62637200D01*
X92467856Y-62637200D02*
X92515475Y-62589580D01*
X92515475Y-62589580D02*
X92563094Y-62494342D01*
X92563094Y-62494342D02*
X92610713Y-62303866D01*
X92610713Y-62303866D02*
X92610713Y-62065771D01*
X92610713Y-62065771D02*
X92563094Y-61875295D01*
X92563094Y-61875295D02*
X92515475Y-61780057D01*
X92515475Y-61780057D02*
X92467856Y-61732438D01*
X92467856Y-61732438D02*
X92372618Y-61684819D01*
X91086904Y-62684819D02*
X91658332Y-62684819D01*
X91372618Y-62684819D02*
X91372618Y-61684819D01*
X91372618Y-61684819D02*
X91467856Y-61827676D01*
X91467856Y-61827676D02*
X91563094Y-61922914D01*
X91563094Y-61922914D02*
X91658332Y-61970533D01*
X84189047Y-93704580D02*
X84236666Y-93752200D01*
X84236666Y-93752200D02*
X84379523Y-93799819D01*
X84379523Y-93799819D02*
X84474761Y-93799819D01*
X84474761Y-93799819D02*
X84617618Y-93752200D01*
X84617618Y-93752200D02*
X84712856Y-93656961D01*
X84712856Y-93656961D02*
X84760475Y-93561723D01*
X84760475Y-93561723D02*
X84808094Y-93371247D01*
X84808094Y-93371247D02*
X84808094Y-93228390D01*
X84808094Y-93228390D02*
X84760475Y-93037914D01*
X84760475Y-93037914D02*
X84712856Y-92942676D01*
X84712856Y-92942676D02*
X84617618Y-92847438D01*
X84617618Y-92847438D02*
X84474761Y-92799819D01*
X84474761Y-92799819D02*
X84379523Y-92799819D01*
X84379523Y-92799819D02*
X84236666Y-92847438D01*
X84236666Y-92847438D02*
X84189047Y-92895057D01*
X83808094Y-92895057D02*
X83760475Y-92847438D01*
X83760475Y-92847438D02*
X83665237Y-92799819D01*
X83665237Y-92799819D02*
X83427142Y-92799819D01*
X83427142Y-92799819D02*
X83331904Y-92847438D01*
X83331904Y-92847438D02*
X83284285Y-92895057D01*
X83284285Y-92895057D02*
X83236666Y-92990295D01*
X83236666Y-92990295D02*
X83236666Y-93085533D01*
X83236666Y-93085533D02*
X83284285Y-93228390D01*
X83284285Y-93228390D02*
X83855713Y-93799819D01*
X83855713Y-93799819D02*
X83236666Y-93799819D01*
X82617618Y-92799819D02*
X82522380Y-92799819D01*
X82522380Y-92799819D02*
X82427142Y-92847438D01*
X82427142Y-92847438D02*
X82379523Y-92895057D01*
X82379523Y-92895057D02*
X82331904Y-92990295D01*
X82331904Y-92990295D02*
X82284285Y-93180771D01*
X82284285Y-93180771D02*
X82284285Y-93418866D01*
X82284285Y-93418866D02*
X82331904Y-93609342D01*
X82331904Y-93609342D02*
X82379523Y-93704580D01*
X82379523Y-93704580D02*
X82427142Y-93752200D01*
X82427142Y-93752200D02*
X82522380Y-93799819D01*
X82522380Y-93799819D02*
X82617618Y-93799819D01*
X82617618Y-93799819D02*
X82712856Y-93752200D01*
X82712856Y-93752200D02*
X82760475Y-93704580D01*
X82760475Y-93704580D02*
X82808094Y-93609342D01*
X82808094Y-93609342D02*
X82855713Y-93418866D01*
X82855713Y-93418866D02*
X82855713Y-93180771D01*
X82855713Y-93180771D02*
X82808094Y-92990295D01*
X82808094Y-92990295D02*
X82760475Y-92895057D01*
X82760475Y-92895057D02*
X82712856Y-92847438D01*
X82712856Y-92847438D02*
X82617618Y-92799819D01*
X81950951Y-92799819D02*
X81331904Y-92799819D01*
X81331904Y-92799819D02*
X81665237Y-93180771D01*
X81665237Y-93180771D02*
X81522380Y-93180771D01*
X81522380Y-93180771D02*
X81427142Y-93228390D01*
X81427142Y-93228390D02*
X81379523Y-93276009D01*
X81379523Y-93276009D02*
X81331904Y-93371247D01*
X81331904Y-93371247D02*
X81331904Y-93609342D01*
X81331904Y-93609342D02*
X81379523Y-93704580D01*
X81379523Y-93704580D02*
X81427142Y-93752200D01*
X81427142Y-93752200D02*
X81522380Y-93799819D01*
X81522380Y-93799819D02*
X81808094Y-93799819D01*
X81808094Y-93799819D02*
X81903332Y-93752200D01*
X81903332Y-93752200D02*
X81950951Y-93704580D01*
X58269047Y-99514819D02*
X58602380Y-99038628D01*
X58840475Y-99514819D02*
X58840475Y-98514819D01*
X58840475Y-98514819D02*
X58459523Y-98514819D01*
X58459523Y-98514819D02*
X58364285Y-98562438D01*
X58364285Y-98562438D02*
X58316666Y-98610057D01*
X58316666Y-98610057D02*
X58269047Y-98705295D01*
X58269047Y-98705295D02*
X58269047Y-98848152D01*
X58269047Y-98848152D02*
X58316666Y-98943390D01*
X58316666Y-98943390D02*
X58364285Y-98991009D01*
X58364285Y-98991009D02*
X58459523Y-99038628D01*
X58459523Y-99038628D02*
X58840475Y-99038628D01*
X57316666Y-99514819D02*
X57888094Y-99514819D01*
X57602380Y-99514819D02*
X57602380Y-98514819D01*
X57602380Y-98514819D02*
X57697618Y-98657676D01*
X57697618Y-98657676D02*
X57792856Y-98752914D01*
X57792856Y-98752914D02*
X57888094Y-98800533D01*
X56364285Y-99514819D02*
X56935713Y-99514819D01*
X56649999Y-99514819D02*
X56649999Y-98514819D01*
X56649999Y-98514819D02*
X56745237Y-98657676D01*
X56745237Y-98657676D02*
X56840475Y-98752914D01*
X56840475Y-98752914D02*
X56935713Y-98800533D01*
X55507142Y-98848152D02*
X55507142Y-99514819D01*
X55745237Y-98467200D02*
X55983332Y-99181485D01*
X55983332Y-99181485D02*
X55364285Y-99181485D01*
X102719047Y-75384819D02*
X103052380Y-74908628D01*
X103290475Y-75384819D02*
X103290475Y-74384819D01*
X103290475Y-74384819D02*
X102909523Y-74384819D01*
X102909523Y-74384819D02*
X102814285Y-74432438D01*
X102814285Y-74432438D02*
X102766666Y-74480057D01*
X102766666Y-74480057D02*
X102719047Y-74575295D01*
X102719047Y-74575295D02*
X102719047Y-74718152D01*
X102719047Y-74718152D02*
X102766666Y-74813390D01*
X102766666Y-74813390D02*
X102814285Y-74861009D01*
X102814285Y-74861009D02*
X102909523Y-74908628D01*
X102909523Y-74908628D02*
X103290475Y-74908628D01*
X102338094Y-74480057D02*
X102290475Y-74432438D01*
X102290475Y-74432438D02*
X102195237Y-74384819D01*
X102195237Y-74384819D02*
X101957142Y-74384819D01*
X101957142Y-74384819D02*
X101861904Y-74432438D01*
X101861904Y-74432438D02*
X101814285Y-74480057D01*
X101814285Y-74480057D02*
X101766666Y-74575295D01*
X101766666Y-74575295D02*
X101766666Y-74670533D01*
X101766666Y-74670533D02*
X101814285Y-74813390D01*
X101814285Y-74813390D02*
X102385713Y-75384819D01*
X102385713Y-75384819D02*
X101766666Y-75384819D01*
X101147618Y-74384819D02*
X101052380Y-74384819D01*
X101052380Y-74384819D02*
X100957142Y-74432438D01*
X100957142Y-74432438D02*
X100909523Y-74480057D01*
X100909523Y-74480057D02*
X100861904Y-74575295D01*
X100861904Y-74575295D02*
X100814285Y-74765771D01*
X100814285Y-74765771D02*
X100814285Y-75003866D01*
X100814285Y-75003866D02*
X100861904Y-75194342D01*
X100861904Y-75194342D02*
X100909523Y-75289580D01*
X100909523Y-75289580D02*
X100957142Y-75337200D01*
X100957142Y-75337200D02*
X101052380Y-75384819D01*
X101052380Y-75384819D02*
X101147618Y-75384819D01*
X101147618Y-75384819D02*
X101242856Y-75337200D01*
X101242856Y-75337200D02*
X101290475Y-75289580D01*
X101290475Y-75289580D02*
X101338094Y-75194342D01*
X101338094Y-75194342D02*
X101385713Y-75003866D01*
X101385713Y-75003866D02*
X101385713Y-74765771D01*
X101385713Y-74765771D02*
X101338094Y-74575295D01*
X101338094Y-74575295D02*
X101290475Y-74480057D01*
X101290475Y-74480057D02*
X101242856Y-74432438D01*
X101242856Y-74432438D02*
X101147618Y-74384819D01*
X100480951Y-74384819D02*
X99814285Y-74384819D01*
X99814285Y-74384819D02*
X100242856Y-75384819D01*
X51919047Y-80464819D02*
X52252380Y-79988628D01*
X52490475Y-80464819D02*
X52490475Y-79464819D01*
X52490475Y-79464819D02*
X52109523Y-79464819D01*
X52109523Y-79464819D02*
X52014285Y-79512438D01*
X52014285Y-79512438D02*
X51966666Y-79560057D01*
X51966666Y-79560057D02*
X51919047Y-79655295D01*
X51919047Y-79655295D02*
X51919047Y-79798152D01*
X51919047Y-79798152D02*
X51966666Y-79893390D01*
X51966666Y-79893390D02*
X52014285Y-79941009D01*
X52014285Y-79941009D02*
X52109523Y-79988628D01*
X52109523Y-79988628D02*
X52490475Y-79988628D01*
X50966666Y-80464819D02*
X51538094Y-80464819D01*
X51252380Y-80464819D02*
X51252380Y-79464819D01*
X51252380Y-79464819D02*
X51347618Y-79607676D01*
X51347618Y-79607676D02*
X51442856Y-79702914D01*
X51442856Y-79702914D02*
X51538094Y-79750533D01*
X50347618Y-79464819D02*
X50252380Y-79464819D01*
X50252380Y-79464819D02*
X50157142Y-79512438D01*
X50157142Y-79512438D02*
X50109523Y-79560057D01*
X50109523Y-79560057D02*
X50061904Y-79655295D01*
X50061904Y-79655295D02*
X50014285Y-79845771D01*
X50014285Y-79845771D02*
X50014285Y-80083866D01*
X50014285Y-80083866D02*
X50061904Y-80274342D01*
X50061904Y-80274342D02*
X50109523Y-80369580D01*
X50109523Y-80369580D02*
X50157142Y-80417200D01*
X50157142Y-80417200D02*
X50252380Y-80464819D01*
X50252380Y-80464819D02*
X50347618Y-80464819D01*
X50347618Y-80464819D02*
X50442856Y-80417200D01*
X50442856Y-80417200D02*
X50490475Y-80369580D01*
X50490475Y-80369580D02*
X50538094Y-80274342D01*
X50538094Y-80274342D02*
X50585713Y-80083866D01*
X50585713Y-80083866D02*
X50585713Y-79845771D01*
X50585713Y-79845771D02*
X50538094Y-79655295D01*
X50538094Y-79655295D02*
X50490475Y-79560057D01*
X50490475Y-79560057D02*
X50442856Y-79512438D01*
X50442856Y-79512438D02*
X50347618Y-79464819D01*
X49442856Y-79893390D02*
X49538094Y-79845771D01*
X49538094Y-79845771D02*
X49585713Y-79798152D01*
X49585713Y-79798152D02*
X49633332Y-79702914D01*
X49633332Y-79702914D02*
X49633332Y-79655295D01*
X49633332Y-79655295D02*
X49585713Y-79560057D01*
X49585713Y-79560057D02*
X49538094Y-79512438D01*
X49538094Y-79512438D02*
X49442856Y-79464819D01*
X49442856Y-79464819D02*
X49252380Y-79464819D01*
X49252380Y-79464819D02*
X49157142Y-79512438D01*
X49157142Y-79512438D02*
X49109523Y-79560057D01*
X49109523Y-79560057D02*
X49061904Y-79655295D01*
X49061904Y-79655295D02*
X49061904Y-79702914D01*
X49061904Y-79702914D02*
X49109523Y-79798152D01*
X49109523Y-79798152D02*
X49157142Y-79845771D01*
X49157142Y-79845771D02*
X49252380Y-79893390D01*
X49252380Y-79893390D02*
X49442856Y-79893390D01*
X49442856Y-79893390D02*
X49538094Y-79941009D01*
X49538094Y-79941009D02*
X49585713Y-79988628D01*
X49585713Y-79988628D02*
X49633332Y-80083866D01*
X49633332Y-80083866D02*
X49633332Y-80274342D01*
X49633332Y-80274342D02*
X49585713Y-80369580D01*
X49585713Y-80369580D02*
X49538094Y-80417200D01*
X49538094Y-80417200D02*
X49442856Y-80464819D01*
X49442856Y-80464819D02*
X49252380Y-80464819D01*
X49252380Y-80464819D02*
X49157142Y-80417200D01*
X49157142Y-80417200D02*
X49109523Y-80369580D01*
X49109523Y-80369580D02*
X49061904Y-80274342D01*
X49061904Y-80274342D02*
X49061904Y-80083866D01*
X49061904Y-80083866D02*
X49109523Y-79988628D01*
X49109523Y-79988628D02*
X49157142Y-79941009D01*
X49157142Y-79941009D02*
X49252380Y-79893390D01*
D16*
X65278000Y-56315181D02*
X65278000Y-57403752D01*
X65278000Y-57403752D02*
X65350571Y-57621467D01*
X65350571Y-57621467D02*
X65495714Y-57766610D01*
X65495714Y-57766610D02*
X65713428Y-57839181D01*
X65713428Y-57839181D02*
X65858571Y-57839181D01*
X64624857Y-56460324D02*
X64552285Y-56387752D01*
X64552285Y-56387752D02*
X64407143Y-56315181D01*
X64407143Y-56315181D02*
X64044285Y-56315181D01*
X64044285Y-56315181D02*
X63899143Y-56387752D01*
X63899143Y-56387752D02*
X63826571Y-56460324D01*
X63826571Y-56460324D02*
X63754000Y-56605467D01*
X63754000Y-56605467D02*
X63754000Y-56750610D01*
X63754000Y-56750610D02*
X63826571Y-56968324D01*
X63826571Y-56968324D02*
X64697428Y-57839181D01*
X64697428Y-57839181D02*
X63754000Y-57839181D01*
D15*
X101449047Y-95704819D02*
X101782380Y-95228628D01*
X102020475Y-95704819D02*
X102020475Y-94704819D01*
X102020475Y-94704819D02*
X101639523Y-94704819D01*
X101639523Y-94704819D02*
X101544285Y-94752438D01*
X101544285Y-94752438D02*
X101496666Y-94800057D01*
X101496666Y-94800057D02*
X101449047Y-94895295D01*
X101449047Y-94895295D02*
X101449047Y-95038152D01*
X101449047Y-95038152D02*
X101496666Y-95133390D01*
X101496666Y-95133390D02*
X101544285Y-95181009D01*
X101544285Y-95181009D02*
X101639523Y-95228628D01*
X101639523Y-95228628D02*
X102020475Y-95228628D01*
X101068094Y-94800057D02*
X101020475Y-94752438D01*
X101020475Y-94752438D02*
X100925237Y-94704819D01*
X100925237Y-94704819D02*
X100687142Y-94704819D01*
X100687142Y-94704819D02*
X100591904Y-94752438D01*
X100591904Y-94752438D02*
X100544285Y-94800057D01*
X100544285Y-94800057D02*
X100496666Y-94895295D01*
X100496666Y-94895295D02*
X100496666Y-94990533D01*
X100496666Y-94990533D02*
X100544285Y-95133390D01*
X100544285Y-95133390D02*
X101115713Y-95704819D01*
X101115713Y-95704819D02*
X100496666Y-95704819D01*
X99544285Y-95704819D02*
X100115713Y-95704819D01*
X99829999Y-95704819D02*
X99829999Y-94704819D01*
X99829999Y-94704819D02*
X99925237Y-94847676D01*
X99925237Y-94847676D02*
X100020475Y-94942914D01*
X100020475Y-94942914D02*
X100115713Y-94990533D01*
X99163332Y-94800057D02*
X99115713Y-94752438D01*
X99115713Y-94752438D02*
X99020475Y-94704819D01*
X99020475Y-94704819D02*
X98782380Y-94704819D01*
X98782380Y-94704819D02*
X98687142Y-94752438D01*
X98687142Y-94752438D02*
X98639523Y-94800057D01*
X98639523Y-94800057D02*
X98591904Y-94895295D01*
X98591904Y-94895295D02*
X98591904Y-94990533D01*
X98591904Y-94990533D02*
X98639523Y-95133390D01*
X98639523Y-95133390D02*
X99210951Y-95704819D01*
X99210951Y-95704819D02*
X98591904Y-95704819D01*
X93757619Y-79290057D02*
X93852857Y-79242438D01*
X93852857Y-79242438D02*
X93948095Y-79147200D01*
X93948095Y-79147200D02*
X94090952Y-79004342D01*
X94090952Y-79004342D02*
X94186190Y-78956723D01*
X94186190Y-78956723D02*
X94281428Y-78956723D01*
X94233809Y-79194819D02*
X94329047Y-79147200D01*
X94329047Y-79147200D02*
X94424285Y-79051961D01*
X94424285Y-79051961D02*
X94471904Y-78861485D01*
X94471904Y-78861485D02*
X94471904Y-78528152D01*
X94471904Y-78528152D02*
X94424285Y-78337676D01*
X94424285Y-78337676D02*
X94329047Y-78242438D01*
X94329047Y-78242438D02*
X94233809Y-78194819D01*
X94233809Y-78194819D02*
X94043333Y-78194819D01*
X94043333Y-78194819D02*
X93948095Y-78242438D01*
X93948095Y-78242438D02*
X93852857Y-78337676D01*
X93852857Y-78337676D02*
X93805238Y-78528152D01*
X93805238Y-78528152D02*
X93805238Y-78861485D01*
X93805238Y-78861485D02*
X93852857Y-79051961D01*
X93852857Y-79051961D02*
X93948095Y-79147200D01*
X93948095Y-79147200D02*
X94043333Y-79194819D01*
X94043333Y-79194819D02*
X94233809Y-79194819D01*
X93424285Y-78290057D02*
X93376666Y-78242438D01*
X93376666Y-78242438D02*
X93281428Y-78194819D01*
X93281428Y-78194819D02*
X93043333Y-78194819D01*
X93043333Y-78194819D02*
X92948095Y-78242438D01*
X92948095Y-78242438D02*
X92900476Y-78290057D01*
X92900476Y-78290057D02*
X92852857Y-78385295D01*
X92852857Y-78385295D02*
X92852857Y-78480533D01*
X92852857Y-78480533D02*
X92900476Y-78623390D01*
X92900476Y-78623390D02*
X93471904Y-79194819D01*
X93471904Y-79194819D02*
X92852857Y-79194819D01*
X92233809Y-78194819D02*
X92138571Y-78194819D01*
X92138571Y-78194819D02*
X92043333Y-78242438D01*
X92043333Y-78242438D02*
X91995714Y-78290057D01*
X91995714Y-78290057D02*
X91948095Y-78385295D01*
X91948095Y-78385295D02*
X91900476Y-78575771D01*
X91900476Y-78575771D02*
X91900476Y-78813866D01*
X91900476Y-78813866D02*
X91948095Y-79004342D01*
X91948095Y-79004342D02*
X91995714Y-79099580D01*
X91995714Y-79099580D02*
X92043333Y-79147200D01*
X92043333Y-79147200D02*
X92138571Y-79194819D01*
X92138571Y-79194819D02*
X92233809Y-79194819D01*
X92233809Y-79194819D02*
X92329047Y-79147200D01*
X92329047Y-79147200D02*
X92376666Y-79099580D01*
X92376666Y-79099580D02*
X92424285Y-79004342D01*
X92424285Y-79004342D02*
X92471904Y-78813866D01*
X92471904Y-78813866D02*
X92471904Y-78575771D01*
X92471904Y-78575771D02*
X92424285Y-78385295D01*
X92424285Y-78385295D02*
X92376666Y-78290057D01*
X92376666Y-78290057D02*
X92329047Y-78242438D01*
X92329047Y-78242438D02*
X92233809Y-78194819D01*
X91567142Y-78194819D02*
X90948095Y-78194819D01*
X90948095Y-78194819D02*
X91281428Y-78575771D01*
X91281428Y-78575771D02*
X91138571Y-78575771D01*
X91138571Y-78575771D02*
X91043333Y-78623390D01*
X91043333Y-78623390D02*
X90995714Y-78671009D01*
X90995714Y-78671009D02*
X90948095Y-78766247D01*
X90948095Y-78766247D02*
X90948095Y-79004342D01*
X90948095Y-79004342D02*
X90995714Y-79099580D01*
X90995714Y-79099580D02*
X91043333Y-79147200D01*
X91043333Y-79147200D02*
X91138571Y-79194819D01*
X91138571Y-79194819D02*
X91424285Y-79194819D01*
X91424285Y-79194819D02*
X91519523Y-79147200D01*
X91519523Y-79147200D02*
X91567142Y-79099580D01*
X53189047Y-95704819D02*
X53522380Y-95228628D01*
X53760475Y-95704819D02*
X53760475Y-94704819D01*
X53760475Y-94704819D02*
X53379523Y-94704819D01*
X53379523Y-94704819D02*
X53284285Y-94752438D01*
X53284285Y-94752438D02*
X53236666Y-94800057D01*
X53236666Y-94800057D02*
X53189047Y-94895295D01*
X53189047Y-94895295D02*
X53189047Y-95038152D01*
X53189047Y-95038152D02*
X53236666Y-95133390D01*
X53236666Y-95133390D02*
X53284285Y-95181009D01*
X53284285Y-95181009D02*
X53379523Y-95228628D01*
X53379523Y-95228628D02*
X53760475Y-95228628D01*
X52236666Y-95704819D02*
X52808094Y-95704819D01*
X52522380Y-95704819D02*
X52522380Y-94704819D01*
X52522380Y-94704819D02*
X52617618Y-94847676D01*
X52617618Y-94847676D02*
X52712856Y-94942914D01*
X52712856Y-94942914D02*
X52808094Y-94990533D01*
X51284285Y-95704819D02*
X51855713Y-95704819D01*
X51569999Y-95704819D02*
X51569999Y-94704819D01*
X51569999Y-94704819D02*
X51665237Y-94847676D01*
X51665237Y-94847676D02*
X51760475Y-94942914D01*
X51760475Y-94942914D02*
X51855713Y-94990533D01*
X50903332Y-94800057D02*
X50855713Y-94752438D01*
X50855713Y-94752438D02*
X50760475Y-94704819D01*
X50760475Y-94704819D02*
X50522380Y-94704819D01*
X50522380Y-94704819D02*
X50427142Y-94752438D01*
X50427142Y-94752438D02*
X50379523Y-94800057D01*
X50379523Y-94800057D02*
X50331904Y-94895295D01*
X50331904Y-94895295D02*
X50331904Y-94990533D01*
X50331904Y-94990533D02*
X50379523Y-95133390D01*
X50379523Y-95133390D02*
X50950951Y-95704819D01*
X50950951Y-95704819D02*
X50331904Y-95704819D01*
X96369047Y-99514819D02*
X96702380Y-99038628D01*
X96940475Y-99514819D02*
X96940475Y-98514819D01*
X96940475Y-98514819D02*
X96559523Y-98514819D01*
X96559523Y-98514819D02*
X96464285Y-98562438D01*
X96464285Y-98562438D02*
X96416666Y-98610057D01*
X96416666Y-98610057D02*
X96369047Y-98705295D01*
X96369047Y-98705295D02*
X96369047Y-98848152D01*
X96369047Y-98848152D02*
X96416666Y-98943390D01*
X96416666Y-98943390D02*
X96464285Y-98991009D01*
X96464285Y-98991009D02*
X96559523Y-99038628D01*
X96559523Y-99038628D02*
X96940475Y-99038628D01*
X95988094Y-98610057D02*
X95940475Y-98562438D01*
X95940475Y-98562438D02*
X95845237Y-98514819D01*
X95845237Y-98514819D02*
X95607142Y-98514819D01*
X95607142Y-98514819D02*
X95511904Y-98562438D01*
X95511904Y-98562438D02*
X95464285Y-98610057D01*
X95464285Y-98610057D02*
X95416666Y-98705295D01*
X95416666Y-98705295D02*
X95416666Y-98800533D01*
X95416666Y-98800533D02*
X95464285Y-98943390D01*
X95464285Y-98943390D02*
X96035713Y-99514819D01*
X96035713Y-99514819D02*
X95416666Y-99514819D01*
X94464285Y-99514819D02*
X95035713Y-99514819D01*
X94749999Y-99514819D02*
X94749999Y-98514819D01*
X94749999Y-98514819D02*
X94845237Y-98657676D01*
X94845237Y-98657676D02*
X94940475Y-98752914D01*
X94940475Y-98752914D02*
X95035713Y-98800533D01*
X93607142Y-98848152D02*
X93607142Y-99514819D01*
X93845237Y-98467200D02*
X94083332Y-99181485D01*
X94083332Y-99181485D02*
X93464285Y-99181485D01*
X60737619Y-84370057D02*
X60832857Y-84322438D01*
X60832857Y-84322438D02*
X60928095Y-84227200D01*
X60928095Y-84227200D02*
X61070952Y-84084342D01*
X61070952Y-84084342D02*
X61166190Y-84036723D01*
X61166190Y-84036723D02*
X61261428Y-84036723D01*
X61213809Y-84274819D02*
X61309047Y-84227200D01*
X61309047Y-84227200D02*
X61404285Y-84131961D01*
X61404285Y-84131961D02*
X61451904Y-83941485D01*
X61451904Y-83941485D02*
X61451904Y-83608152D01*
X61451904Y-83608152D02*
X61404285Y-83417676D01*
X61404285Y-83417676D02*
X61309047Y-83322438D01*
X61309047Y-83322438D02*
X61213809Y-83274819D01*
X61213809Y-83274819D02*
X61023333Y-83274819D01*
X61023333Y-83274819D02*
X60928095Y-83322438D01*
X60928095Y-83322438D02*
X60832857Y-83417676D01*
X60832857Y-83417676D02*
X60785238Y-83608152D01*
X60785238Y-83608152D02*
X60785238Y-83941485D01*
X60785238Y-83941485D02*
X60832857Y-84131961D01*
X60832857Y-84131961D02*
X60928095Y-84227200D01*
X60928095Y-84227200D02*
X61023333Y-84274819D01*
X61023333Y-84274819D02*
X61213809Y-84274819D01*
X59832857Y-84274819D02*
X60404285Y-84274819D01*
X60118571Y-84274819D02*
X60118571Y-83274819D01*
X60118571Y-83274819D02*
X60213809Y-83417676D01*
X60213809Y-83417676D02*
X60309047Y-83512914D01*
X60309047Y-83512914D02*
X60404285Y-83560533D01*
X59213809Y-83274819D02*
X59118571Y-83274819D01*
X59118571Y-83274819D02*
X59023333Y-83322438D01*
X59023333Y-83322438D02*
X58975714Y-83370057D01*
X58975714Y-83370057D02*
X58928095Y-83465295D01*
X58928095Y-83465295D02*
X58880476Y-83655771D01*
X58880476Y-83655771D02*
X58880476Y-83893866D01*
X58880476Y-83893866D02*
X58928095Y-84084342D01*
X58928095Y-84084342D02*
X58975714Y-84179580D01*
X58975714Y-84179580D02*
X59023333Y-84227200D01*
X59023333Y-84227200D02*
X59118571Y-84274819D01*
X59118571Y-84274819D02*
X59213809Y-84274819D01*
X59213809Y-84274819D02*
X59309047Y-84227200D01*
X59309047Y-84227200D02*
X59356666Y-84179580D01*
X59356666Y-84179580D02*
X59404285Y-84084342D01*
X59404285Y-84084342D02*
X59451904Y-83893866D01*
X59451904Y-83893866D02*
X59451904Y-83655771D01*
X59451904Y-83655771D02*
X59404285Y-83465295D01*
X59404285Y-83465295D02*
X59356666Y-83370057D01*
X59356666Y-83370057D02*
X59309047Y-83322438D01*
X59309047Y-83322438D02*
X59213809Y-83274819D01*
X58023333Y-83608152D02*
X58023333Y-84274819D01*
X58261428Y-83227200D02*
X58499523Y-83941485D01*
X58499523Y-83941485D02*
X57880476Y-83941485D01*
X93757619Y-74210057D02*
X93852857Y-74162438D01*
X93852857Y-74162438D02*
X93948095Y-74067200D01*
X93948095Y-74067200D02*
X94090952Y-73924342D01*
X94090952Y-73924342D02*
X94186190Y-73876723D01*
X94186190Y-73876723D02*
X94281428Y-73876723D01*
X94233809Y-74114819D02*
X94329047Y-74067200D01*
X94329047Y-74067200D02*
X94424285Y-73971961D01*
X94424285Y-73971961D02*
X94471904Y-73781485D01*
X94471904Y-73781485D02*
X94471904Y-73448152D01*
X94471904Y-73448152D02*
X94424285Y-73257676D01*
X94424285Y-73257676D02*
X94329047Y-73162438D01*
X94329047Y-73162438D02*
X94233809Y-73114819D01*
X94233809Y-73114819D02*
X94043333Y-73114819D01*
X94043333Y-73114819D02*
X93948095Y-73162438D01*
X93948095Y-73162438D02*
X93852857Y-73257676D01*
X93852857Y-73257676D02*
X93805238Y-73448152D01*
X93805238Y-73448152D02*
X93805238Y-73781485D01*
X93805238Y-73781485D02*
X93852857Y-73971961D01*
X93852857Y-73971961D02*
X93948095Y-74067200D01*
X93948095Y-74067200D02*
X94043333Y-74114819D01*
X94043333Y-74114819D02*
X94233809Y-74114819D01*
X93424285Y-73210057D02*
X93376666Y-73162438D01*
X93376666Y-73162438D02*
X93281428Y-73114819D01*
X93281428Y-73114819D02*
X93043333Y-73114819D01*
X93043333Y-73114819D02*
X92948095Y-73162438D01*
X92948095Y-73162438D02*
X92900476Y-73210057D01*
X92900476Y-73210057D02*
X92852857Y-73305295D01*
X92852857Y-73305295D02*
X92852857Y-73400533D01*
X92852857Y-73400533D02*
X92900476Y-73543390D01*
X92900476Y-73543390D02*
X93471904Y-74114819D01*
X93471904Y-74114819D02*
X92852857Y-74114819D01*
X92233809Y-73114819D02*
X92138571Y-73114819D01*
X92138571Y-73114819D02*
X92043333Y-73162438D01*
X92043333Y-73162438D02*
X91995714Y-73210057D01*
X91995714Y-73210057D02*
X91948095Y-73305295D01*
X91948095Y-73305295D02*
X91900476Y-73495771D01*
X91900476Y-73495771D02*
X91900476Y-73733866D01*
X91900476Y-73733866D02*
X91948095Y-73924342D01*
X91948095Y-73924342D02*
X91995714Y-74019580D01*
X91995714Y-74019580D02*
X92043333Y-74067200D01*
X92043333Y-74067200D02*
X92138571Y-74114819D01*
X92138571Y-74114819D02*
X92233809Y-74114819D01*
X92233809Y-74114819D02*
X92329047Y-74067200D01*
X92329047Y-74067200D02*
X92376666Y-74019580D01*
X92376666Y-74019580D02*
X92424285Y-73924342D01*
X92424285Y-73924342D02*
X92471904Y-73733866D01*
X92471904Y-73733866D02*
X92471904Y-73495771D01*
X92471904Y-73495771D02*
X92424285Y-73305295D01*
X92424285Y-73305295D02*
X92376666Y-73210057D01*
X92376666Y-73210057D02*
X92329047Y-73162438D01*
X92329047Y-73162438D02*
X92233809Y-73114819D01*
X91519523Y-73210057D02*
X91471904Y-73162438D01*
X91471904Y-73162438D02*
X91376666Y-73114819D01*
X91376666Y-73114819D02*
X91138571Y-73114819D01*
X91138571Y-73114819D02*
X91043333Y-73162438D01*
X91043333Y-73162438D02*
X90995714Y-73210057D01*
X90995714Y-73210057D02*
X90948095Y-73305295D01*
X90948095Y-73305295D02*
X90948095Y-73400533D01*
X90948095Y-73400533D02*
X90995714Y-73543390D01*
X90995714Y-73543390D02*
X91567142Y-74114819D01*
X91567142Y-74114819D02*
X90948095Y-74114819D01*
X69699047Y-85544819D02*
X70032380Y-85068628D01*
X70270475Y-85544819D02*
X70270475Y-84544819D01*
X70270475Y-84544819D02*
X69889523Y-84544819D01*
X69889523Y-84544819D02*
X69794285Y-84592438D01*
X69794285Y-84592438D02*
X69746666Y-84640057D01*
X69746666Y-84640057D02*
X69699047Y-84735295D01*
X69699047Y-84735295D02*
X69699047Y-84878152D01*
X69699047Y-84878152D02*
X69746666Y-84973390D01*
X69746666Y-84973390D02*
X69794285Y-85021009D01*
X69794285Y-85021009D02*
X69889523Y-85068628D01*
X69889523Y-85068628D02*
X70270475Y-85068628D01*
X68746666Y-85544819D02*
X69318094Y-85544819D01*
X69032380Y-85544819D02*
X69032380Y-84544819D01*
X69032380Y-84544819D02*
X69127618Y-84687676D01*
X69127618Y-84687676D02*
X69222856Y-84782914D01*
X69222856Y-84782914D02*
X69318094Y-84830533D01*
X68127618Y-84544819D02*
X68032380Y-84544819D01*
X68032380Y-84544819D02*
X67937142Y-84592438D01*
X67937142Y-84592438D02*
X67889523Y-84640057D01*
X67889523Y-84640057D02*
X67841904Y-84735295D01*
X67841904Y-84735295D02*
X67794285Y-84925771D01*
X67794285Y-84925771D02*
X67794285Y-85163866D01*
X67794285Y-85163866D02*
X67841904Y-85354342D01*
X67841904Y-85354342D02*
X67889523Y-85449580D01*
X67889523Y-85449580D02*
X67937142Y-85497200D01*
X67937142Y-85497200D02*
X68032380Y-85544819D01*
X68032380Y-85544819D02*
X68127618Y-85544819D01*
X68127618Y-85544819D02*
X68222856Y-85497200D01*
X68222856Y-85497200D02*
X68270475Y-85449580D01*
X68270475Y-85449580D02*
X68318094Y-85354342D01*
X68318094Y-85354342D02*
X68365713Y-85163866D01*
X68365713Y-85163866D02*
X68365713Y-84925771D01*
X68365713Y-84925771D02*
X68318094Y-84735295D01*
X68318094Y-84735295D02*
X68270475Y-84640057D01*
X68270475Y-84640057D02*
X68222856Y-84592438D01*
X68222856Y-84592438D02*
X68127618Y-84544819D01*
X66889523Y-84544819D02*
X67365713Y-84544819D01*
X67365713Y-84544819D02*
X67413332Y-85021009D01*
X67413332Y-85021009D02*
X67365713Y-84973390D01*
X67365713Y-84973390D02*
X67270475Y-84925771D01*
X67270475Y-84925771D02*
X67032380Y-84925771D01*
X67032380Y-84925771D02*
X66937142Y-84973390D01*
X66937142Y-84973390D02*
X66889523Y-85021009D01*
X66889523Y-85021009D02*
X66841904Y-85116247D01*
X66841904Y-85116247D02*
X66841904Y-85354342D01*
X66841904Y-85354342D02*
X66889523Y-85449580D01*
X66889523Y-85449580D02*
X66937142Y-85497200D01*
X66937142Y-85497200D02*
X67032380Y-85544819D01*
X67032380Y-85544819D02*
X67270475Y-85544819D01*
X67270475Y-85544819D02*
X67365713Y-85497200D01*
X67365713Y-85497200D02*
X67413332Y-85449580D01*
X84939047Y-75384819D02*
X85272380Y-74908628D01*
X85510475Y-75384819D02*
X85510475Y-74384819D01*
X85510475Y-74384819D02*
X85129523Y-74384819D01*
X85129523Y-74384819D02*
X85034285Y-74432438D01*
X85034285Y-74432438D02*
X84986666Y-74480057D01*
X84986666Y-74480057D02*
X84939047Y-74575295D01*
X84939047Y-74575295D02*
X84939047Y-74718152D01*
X84939047Y-74718152D02*
X84986666Y-74813390D01*
X84986666Y-74813390D02*
X85034285Y-74861009D01*
X85034285Y-74861009D02*
X85129523Y-74908628D01*
X85129523Y-74908628D02*
X85510475Y-74908628D01*
X84558094Y-74480057D02*
X84510475Y-74432438D01*
X84510475Y-74432438D02*
X84415237Y-74384819D01*
X84415237Y-74384819D02*
X84177142Y-74384819D01*
X84177142Y-74384819D02*
X84081904Y-74432438D01*
X84081904Y-74432438D02*
X84034285Y-74480057D01*
X84034285Y-74480057D02*
X83986666Y-74575295D01*
X83986666Y-74575295D02*
X83986666Y-74670533D01*
X83986666Y-74670533D02*
X84034285Y-74813390D01*
X84034285Y-74813390D02*
X84605713Y-75384819D01*
X84605713Y-75384819D02*
X83986666Y-75384819D01*
X83367618Y-74384819D02*
X83272380Y-74384819D01*
X83272380Y-74384819D02*
X83177142Y-74432438D01*
X83177142Y-74432438D02*
X83129523Y-74480057D01*
X83129523Y-74480057D02*
X83081904Y-74575295D01*
X83081904Y-74575295D02*
X83034285Y-74765771D01*
X83034285Y-74765771D02*
X83034285Y-75003866D01*
X83034285Y-75003866D02*
X83081904Y-75194342D01*
X83081904Y-75194342D02*
X83129523Y-75289580D01*
X83129523Y-75289580D02*
X83177142Y-75337200D01*
X83177142Y-75337200D02*
X83272380Y-75384819D01*
X83272380Y-75384819D02*
X83367618Y-75384819D01*
X83367618Y-75384819D02*
X83462856Y-75337200D01*
X83462856Y-75337200D02*
X83510475Y-75289580D01*
X83510475Y-75289580D02*
X83558094Y-75194342D01*
X83558094Y-75194342D02*
X83605713Y-75003866D01*
X83605713Y-75003866D02*
X83605713Y-74765771D01*
X83605713Y-74765771D02*
X83558094Y-74575295D01*
X83558094Y-74575295D02*
X83510475Y-74480057D01*
X83510475Y-74480057D02*
X83462856Y-74432438D01*
X83462856Y-74432438D02*
X83367618Y-74384819D01*
X82700951Y-74384819D02*
X82081904Y-74384819D01*
X82081904Y-74384819D02*
X82415237Y-74765771D01*
X82415237Y-74765771D02*
X82272380Y-74765771D01*
X82272380Y-74765771D02*
X82177142Y-74813390D01*
X82177142Y-74813390D02*
X82129523Y-74861009D01*
X82129523Y-74861009D02*
X82081904Y-74956247D01*
X82081904Y-74956247D02*
X82081904Y-75194342D01*
X82081904Y-75194342D02*
X82129523Y-75289580D01*
X82129523Y-75289580D02*
X82177142Y-75337200D01*
X82177142Y-75337200D02*
X82272380Y-75384819D01*
X82272380Y-75384819D02*
X82558094Y-75384819D01*
X82558094Y-75384819D02*
X82653332Y-75337200D01*
X82653332Y-75337200D02*
X82700951Y-75289580D01*
X60737619Y-69130057D02*
X60832857Y-69082438D01*
X60832857Y-69082438D02*
X60928095Y-68987200D01*
X60928095Y-68987200D02*
X61070952Y-68844342D01*
X61070952Y-68844342D02*
X61166190Y-68796723D01*
X61166190Y-68796723D02*
X61261428Y-68796723D01*
X61213809Y-69034819D02*
X61309047Y-68987200D01*
X61309047Y-68987200D02*
X61404285Y-68891961D01*
X61404285Y-68891961D02*
X61451904Y-68701485D01*
X61451904Y-68701485D02*
X61451904Y-68368152D01*
X61451904Y-68368152D02*
X61404285Y-68177676D01*
X61404285Y-68177676D02*
X61309047Y-68082438D01*
X61309047Y-68082438D02*
X61213809Y-68034819D01*
X61213809Y-68034819D02*
X61023333Y-68034819D01*
X61023333Y-68034819D02*
X60928095Y-68082438D01*
X60928095Y-68082438D02*
X60832857Y-68177676D01*
X60832857Y-68177676D02*
X60785238Y-68368152D01*
X60785238Y-68368152D02*
X60785238Y-68701485D01*
X60785238Y-68701485D02*
X60832857Y-68891961D01*
X60832857Y-68891961D02*
X60928095Y-68987200D01*
X60928095Y-68987200D02*
X61023333Y-69034819D01*
X61023333Y-69034819D02*
X61213809Y-69034819D01*
X59832857Y-69034819D02*
X60404285Y-69034819D01*
X60118571Y-69034819D02*
X60118571Y-68034819D01*
X60118571Y-68034819D02*
X60213809Y-68177676D01*
X60213809Y-68177676D02*
X60309047Y-68272914D01*
X60309047Y-68272914D02*
X60404285Y-68320533D01*
X59213809Y-68034819D02*
X59118571Y-68034819D01*
X59118571Y-68034819D02*
X59023333Y-68082438D01*
X59023333Y-68082438D02*
X58975714Y-68130057D01*
X58975714Y-68130057D02*
X58928095Y-68225295D01*
X58928095Y-68225295D02*
X58880476Y-68415771D01*
X58880476Y-68415771D02*
X58880476Y-68653866D01*
X58880476Y-68653866D02*
X58928095Y-68844342D01*
X58928095Y-68844342D02*
X58975714Y-68939580D01*
X58975714Y-68939580D02*
X59023333Y-68987200D01*
X59023333Y-68987200D02*
X59118571Y-69034819D01*
X59118571Y-69034819D02*
X59213809Y-69034819D01*
X59213809Y-69034819D02*
X59309047Y-68987200D01*
X59309047Y-68987200D02*
X59356666Y-68939580D01*
X59356666Y-68939580D02*
X59404285Y-68844342D01*
X59404285Y-68844342D02*
X59451904Y-68653866D01*
X59451904Y-68653866D02*
X59451904Y-68415771D01*
X59451904Y-68415771D02*
X59404285Y-68225295D01*
X59404285Y-68225295D02*
X59356666Y-68130057D01*
X59356666Y-68130057D02*
X59309047Y-68082438D01*
X59309047Y-68082438D02*
X59213809Y-68034819D01*
X57928095Y-69034819D02*
X58499523Y-69034819D01*
X58213809Y-69034819D02*
X58213809Y-68034819D01*
X58213809Y-68034819D02*
X58309047Y-68177676D01*
X58309047Y-68177676D02*
X58404285Y-68272914D01*
X58404285Y-68272914D02*
X58499523Y-68320533D01*
X73358333Y-103594819D02*
X73358333Y-104309104D01*
X73358333Y-104309104D02*
X73405952Y-104451961D01*
X73405952Y-104451961D02*
X73501190Y-104547200D01*
X73501190Y-104547200D02*
X73644047Y-104594819D01*
X73644047Y-104594819D02*
X73739285Y-104594819D01*
X72977380Y-103594819D02*
X72358333Y-103594819D01*
X72358333Y-103594819D02*
X72691666Y-103975771D01*
X72691666Y-103975771D02*
X72548809Y-103975771D01*
X72548809Y-103975771D02*
X72453571Y-104023390D01*
X72453571Y-104023390D02*
X72405952Y-104071009D01*
X72405952Y-104071009D02*
X72358333Y-104166247D01*
X72358333Y-104166247D02*
X72358333Y-104404342D01*
X72358333Y-104404342D02*
X72405952Y-104499580D01*
X72405952Y-104499580D02*
X72453571Y-104547200D01*
X72453571Y-104547200D02*
X72548809Y-104594819D01*
X72548809Y-104594819D02*
X72834523Y-104594819D01*
X72834523Y-104594819D02*
X72929761Y-104547200D01*
X72929761Y-104547200D02*
X72977380Y-104499580D01*
X96795419Y-65294047D02*
X96747800Y-65341666D01*
X96747800Y-65341666D02*
X96700180Y-65484523D01*
X96700180Y-65484523D02*
X96700180Y-65579761D01*
X96700180Y-65579761D02*
X96747800Y-65722618D01*
X96747800Y-65722618D02*
X96843038Y-65817856D01*
X96843038Y-65817856D02*
X96938276Y-65865475D01*
X96938276Y-65865475D02*
X97128752Y-65913094D01*
X97128752Y-65913094D02*
X97271609Y-65913094D01*
X97271609Y-65913094D02*
X97462085Y-65865475D01*
X97462085Y-65865475D02*
X97557323Y-65817856D01*
X97557323Y-65817856D02*
X97652561Y-65722618D01*
X97652561Y-65722618D02*
X97700180Y-65579761D01*
X97700180Y-65579761D02*
X97700180Y-65484523D01*
X97700180Y-65484523D02*
X97652561Y-65341666D01*
X97652561Y-65341666D02*
X97604942Y-65294047D01*
X97604942Y-64913094D02*
X97652561Y-64865475D01*
X97652561Y-64865475D02*
X97700180Y-64770237D01*
X97700180Y-64770237D02*
X97700180Y-64532142D01*
X97700180Y-64532142D02*
X97652561Y-64436904D01*
X97652561Y-64436904D02*
X97604942Y-64389285D01*
X97604942Y-64389285D02*
X97509704Y-64341666D01*
X97509704Y-64341666D02*
X97414466Y-64341666D01*
X97414466Y-64341666D02*
X97271609Y-64389285D01*
X97271609Y-64389285D02*
X96700180Y-64960713D01*
X96700180Y-64960713D02*
X96700180Y-64341666D01*
X97700180Y-63722618D02*
X97700180Y-63627380D01*
X97700180Y-63627380D02*
X97652561Y-63532142D01*
X97652561Y-63532142D02*
X97604942Y-63484523D01*
X97604942Y-63484523D02*
X97509704Y-63436904D01*
X97509704Y-63436904D02*
X97319228Y-63389285D01*
X97319228Y-63389285D02*
X97081133Y-63389285D01*
X97081133Y-63389285D02*
X96890657Y-63436904D01*
X96890657Y-63436904D02*
X96795419Y-63484523D01*
X96795419Y-63484523D02*
X96747800Y-63532142D01*
X96747800Y-63532142D02*
X96700180Y-63627380D01*
X96700180Y-63627380D02*
X96700180Y-63722618D01*
X96700180Y-63722618D02*
X96747800Y-63817856D01*
X96747800Y-63817856D02*
X96795419Y-63865475D01*
X96795419Y-63865475D02*
X96890657Y-63913094D01*
X96890657Y-63913094D02*
X97081133Y-63960713D01*
X97081133Y-63960713D02*
X97319228Y-63960713D01*
X97319228Y-63960713D02*
X97509704Y-63913094D01*
X97509704Y-63913094D02*
X97604942Y-63865475D01*
X97604942Y-63865475D02*
X97652561Y-63817856D01*
X97652561Y-63817856D02*
X97700180Y-63722618D01*
X97700180Y-62532142D02*
X97700180Y-62722618D01*
X97700180Y-62722618D02*
X97652561Y-62817856D01*
X97652561Y-62817856D02*
X97604942Y-62865475D01*
X97604942Y-62865475D02*
X97462085Y-62960713D01*
X97462085Y-62960713D02*
X97271609Y-63008332D01*
X97271609Y-63008332D02*
X96890657Y-63008332D01*
X96890657Y-63008332D02*
X96795419Y-62960713D01*
X96795419Y-62960713D02*
X96747800Y-62913094D01*
X96747800Y-62913094D02*
X96700180Y-62817856D01*
X96700180Y-62817856D02*
X96700180Y-62627380D01*
X96700180Y-62627380D02*
X96747800Y-62532142D01*
X96747800Y-62532142D02*
X96795419Y-62484523D01*
X96795419Y-62484523D02*
X96890657Y-62436904D01*
X96890657Y-62436904D02*
X97128752Y-62436904D01*
X97128752Y-62436904D02*
X97223990Y-62484523D01*
X97223990Y-62484523D02*
X97271609Y-62532142D01*
X97271609Y-62532142D02*
X97319228Y-62627380D01*
X97319228Y-62627380D02*
X97319228Y-62817856D01*
X97319228Y-62817856D02*
X97271609Y-62913094D01*
X97271609Y-62913094D02*
X97223990Y-62960713D01*
X97223990Y-62960713D02*
X97128752Y-63008332D01*
X102719047Y-90624819D02*
X103052380Y-90148628D01*
X103290475Y-90624819D02*
X103290475Y-89624819D01*
X103290475Y-89624819D02*
X102909523Y-89624819D01*
X102909523Y-89624819D02*
X102814285Y-89672438D01*
X102814285Y-89672438D02*
X102766666Y-89720057D01*
X102766666Y-89720057D02*
X102719047Y-89815295D01*
X102719047Y-89815295D02*
X102719047Y-89958152D01*
X102719047Y-89958152D02*
X102766666Y-90053390D01*
X102766666Y-90053390D02*
X102814285Y-90101009D01*
X102814285Y-90101009D02*
X102909523Y-90148628D01*
X102909523Y-90148628D02*
X103290475Y-90148628D01*
X102338094Y-89720057D02*
X102290475Y-89672438D01*
X102290475Y-89672438D02*
X102195237Y-89624819D01*
X102195237Y-89624819D02*
X101957142Y-89624819D01*
X101957142Y-89624819D02*
X101861904Y-89672438D01*
X101861904Y-89672438D02*
X101814285Y-89720057D01*
X101814285Y-89720057D02*
X101766666Y-89815295D01*
X101766666Y-89815295D02*
X101766666Y-89910533D01*
X101766666Y-89910533D02*
X101814285Y-90053390D01*
X101814285Y-90053390D02*
X102385713Y-90624819D01*
X102385713Y-90624819D02*
X101766666Y-90624819D01*
X100814285Y-90624819D02*
X101385713Y-90624819D01*
X101099999Y-90624819D02*
X101099999Y-89624819D01*
X101099999Y-89624819D02*
X101195237Y-89767676D01*
X101195237Y-89767676D02*
X101290475Y-89862914D01*
X101290475Y-89862914D02*
X101385713Y-89910533D01*
X100195237Y-89624819D02*
X100099999Y-89624819D01*
X100099999Y-89624819D02*
X100004761Y-89672438D01*
X100004761Y-89672438D02*
X99957142Y-89720057D01*
X99957142Y-89720057D02*
X99909523Y-89815295D01*
X99909523Y-89815295D02*
X99861904Y-90005771D01*
X99861904Y-90005771D02*
X99861904Y-90243866D01*
X99861904Y-90243866D02*
X99909523Y-90434342D01*
X99909523Y-90434342D02*
X99957142Y-90529580D01*
X99957142Y-90529580D02*
X100004761Y-90577200D01*
X100004761Y-90577200D02*
X100099999Y-90624819D01*
X100099999Y-90624819D02*
X100195237Y-90624819D01*
X100195237Y-90624819D02*
X100290475Y-90577200D01*
X100290475Y-90577200D02*
X100338094Y-90529580D01*
X100338094Y-90529580D02*
X100385713Y-90434342D01*
X100385713Y-90434342D02*
X100433332Y-90243866D01*
X100433332Y-90243866D02*
X100433332Y-90005771D01*
X100433332Y-90005771D02*
X100385713Y-89815295D01*
X100385713Y-89815295D02*
X100338094Y-89720057D01*
X100338094Y-89720057D02*
X100290475Y-89672438D01*
X100290475Y-89672438D02*
X100195237Y-89624819D01*
X60737619Y-79290057D02*
X60832857Y-79242438D01*
X60832857Y-79242438D02*
X60928095Y-79147200D01*
X60928095Y-79147200D02*
X61070952Y-79004342D01*
X61070952Y-79004342D02*
X61166190Y-78956723D01*
X61166190Y-78956723D02*
X61261428Y-78956723D01*
X61213809Y-79194819D02*
X61309047Y-79147200D01*
X61309047Y-79147200D02*
X61404285Y-79051961D01*
X61404285Y-79051961D02*
X61451904Y-78861485D01*
X61451904Y-78861485D02*
X61451904Y-78528152D01*
X61451904Y-78528152D02*
X61404285Y-78337676D01*
X61404285Y-78337676D02*
X61309047Y-78242438D01*
X61309047Y-78242438D02*
X61213809Y-78194819D01*
X61213809Y-78194819D02*
X61023333Y-78194819D01*
X61023333Y-78194819D02*
X60928095Y-78242438D01*
X60928095Y-78242438D02*
X60832857Y-78337676D01*
X60832857Y-78337676D02*
X60785238Y-78528152D01*
X60785238Y-78528152D02*
X60785238Y-78861485D01*
X60785238Y-78861485D02*
X60832857Y-79051961D01*
X60832857Y-79051961D02*
X60928095Y-79147200D01*
X60928095Y-79147200D02*
X61023333Y-79194819D01*
X61023333Y-79194819D02*
X61213809Y-79194819D01*
X59832857Y-79194819D02*
X60404285Y-79194819D01*
X60118571Y-79194819D02*
X60118571Y-78194819D01*
X60118571Y-78194819D02*
X60213809Y-78337676D01*
X60213809Y-78337676D02*
X60309047Y-78432914D01*
X60309047Y-78432914D02*
X60404285Y-78480533D01*
X59213809Y-78194819D02*
X59118571Y-78194819D01*
X59118571Y-78194819D02*
X59023333Y-78242438D01*
X59023333Y-78242438D02*
X58975714Y-78290057D01*
X58975714Y-78290057D02*
X58928095Y-78385295D01*
X58928095Y-78385295D02*
X58880476Y-78575771D01*
X58880476Y-78575771D02*
X58880476Y-78813866D01*
X58880476Y-78813866D02*
X58928095Y-79004342D01*
X58928095Y-79004342D02*
X58975714Y-79099580D01*
X58975714Y-79099580D02*
X59023333Y-79147200D01*
X59023333Y-79147200D02*
X59118571Y-79194819D01*
X59118571Y-79194819D02*
X59213809Y-79194819D01*
X59213809Y-79194819D02*
X59309047Y-79147200D01*
X59309047Y-79147200D02*
X59356666Y-79099580D01*
X59356666Y-79099580D02*
X59404285Y-79004342D01*
X59404285Y-79004342D02*
X59451904Y-78813866D01*
X59451904Y-78813866D02*
X59451904Y-78575771D01*
X59451904Y-78575771D02*
X59404285Y-78385295D01*
X59404285Y-78385295D02*
X59356666Y-78290057D01*
X59356666Y-78290057D02*
X59309047Y-78242438D01*
X59309047Y-78242438D02*
X59213809Y-78194819D01*
X58547142Y-78194819D02*
X57928095Y-78194819D01*
X57928095Y-78194819D02*
X58261428Y-78575771D01*
X58261428Y-78575771D02*
X58118571Y-78575771D01*
X58118571Y-78575771D02*
X58023333Y-78623390D01*
X58023333Y-78623390D02*
X57975714Y-78671009D01*
X57975714Y-78671009D02*
X57928095Y-78766247D01*
X57928095Y-78766247D02*
X57928095Y-79004342D01*
X57928095Y-79004342D02*
X57975714Y-79099580D01*
X57975714Y-79099580D02*
X58023333Y-79147200D01*
X58023333Y-79147200D02*
X58118571Y-79194819D01*
X58118571Y-79194819D02*
X58404285Y-79194819D01*
X58404285Y-79194819D02*
X58499523Y-79147200D01*
X58499523Y-79147200D02*
X58547142Y-79099580D01*
X50649047Y-62589580D02*
X50696666Y-62637200D01*
X50696666Y-62637200D02*
X50839523Y-62684819D01*
X50839523Y-62684819D02*
X50934761Y-62684819D01*
X50934761Y-62684819D02*
X51077618Y-62637200D01*
X51077618Y-62637200D02*
X51172856Y-62541961D01*
X51172856Y-62541961D02*
X51220475Y-62446723D01*
X51220475Y-62446723D02*
X51268094Y-62256247D01*
X51268094Y-62256247D02*
X51268094Y-62113390D01*
X51268094Y-62113390D02*
X51220475Y-61922914D01*
X51220475Y-61922914D02*
X51172856Y-61827676D01*
X51172856Y-61827676D02*
X51077618Y-61732438D01*
X51077618Y-61732438D02*
X50934761Y-61684819D01*
X50934761Y-61684819D02*
X50839523Y-61684819D01*
X50839523Y-61684819D02*
X50696666Y-61732438D01*
X50696666Y-61732438D02*
X50649047Y-61780057D01*
X49696666Y-62684819D02*
X50268094Y-62684819D01*
X49982380Y-62684819D02*
X49982380Y-61684819D01*
X49982380Y-61684819D02*
X50077618Y-61827676D01*
X50077618Y-61827676D02*
X50172856Y-61922914D01*
X50172856Y-61922914D02*
X50268094Y-61970533D01*
X49077618Y-61684819D02*
X48982380Y-61684819D01*
X48982380Y-61684819D02*
X48887142Y-61732438D01*
X48887142Y-61732438D02*
X48839523Y-61780057D01*
X48839523Y-61780057D02*
X48791904Y-61875295D01*
X48791904Y-61875295D02*
X48744285Y-62065771D01*
X48744285Y-62065771D02*
X48744285Y-62303866D01*
X48744285Y-62303866D02*
X48791904Y-62494342D01*
X48791904Y-62494342D02*
X48839523Y-62589580D01*
X48839523Y-62589580D02*
X48887142Y-62637200D01*
X48887142Y-62637200D02*
X48982380Y-62684819D01*
X48982380Y-62684819D02*
X49077618Y-62684819D01*
X49077618Y-62684819D02*
X49172856Y-62637200D01*
X49172856Y-62637200D02*
X49220475Y-62589580D01*
X49220475Y-62589580D02*
X49268094Y-62494342D01*
X49268094Y-62494342D02*
X49315713Y-62303866D01*
X49315713Y-62303866D02*
X49315713Y-62065771D01*
X49315713Y-62065771D02*
X49268094Y-61875295D01*
X49268094Y-61875295D02*
X49220475Y-61780057D01*
X49220475Y-61780057D02*
X49172856Y-61732438D01*
X49172856Y-61732438D02*
X49077618Y-61684819D01*
X47839523Y-61684819D02*
X48315713Y-61684819D01*
X48315713Y-61684819D02*
X48363332Y-62161009D01*
X48363332Y-62161009D02*
X48315713Y-62113390D01*
X48315713Y-62113390D02*
X48220475Y-62065771D01*
X48220475Y-62065771D02*
X47982380Y-62065771D01*
X47982380Y-62065771D02*
X47887142Y-62113390D01*
X47887142Y-62113390D02*
X47839523Y-62161009D01*
X47839523Y-62161009D02*
X47791904Y-62256247D01*
X47791904Y-62256247D02*
X47791904Y-62494342D01*
X47791904Y-62494342D02*
X47839523Y-62589580D01*
X47839523Y-62589580D02*
X47887142Y-62637200D01*
X47887142Y-62637200D02*
X47982380Y-62684819D01*
X47982380Y-62684819D02*
X48220475Y-62684819D01*
X48220475Y-62684819D02*
X48315713Y-62637200D01*
X48315713Y-62637200D02*
X48363332Y-62589580D01*
X102719047Y-85544819D02*
X103052380Y-85068628D01*
X103290475Y-85544819D02*
X103290475Y-84544819D01*
X103290475Y-84544819D02*
X102909523Y-84544819D01*
X102909523Y-84544819D02*
X102814285Y-84592438D01*
X102814285Y-84592438D02*
X102766666Y-84640057D01*
X102766666Y-84640057D02*
X102719047Y-84735295D01*
X102719047Y-84735295D02*
X102719047Y-84878152D01*
X102719047Y-84878152D02*
X102766666Y-84973390D01*
X102766666Y-84973390D02*
X102814285Y-85021009D01*
X102814285Y-85021009D02*
X102909523Y-85068628D01*
X102909523Y-85068628D02*
X103290475Y-85068628D01*
X102338094Y-84640057D02*
X102290475Y-84592438D01*
X102290475Y-84592438D02*
X102195237Y-84544819D01*
X102195237Y-84544819D02*
X101957142Y-84544819D01*
X101957142Y-84544819D02*
X101861904Y-84592438D01*
X101861904Y-84592438D02*
X101814285Y-84640057D01*
X101814285Y-84640057D02*
X101766666Y-84735295D01*
X101766666Y-84735295D02*
X101766666Y-84830533D01*
X101766666Y-84830533D02*
X101814285Y-84973390D01*
X101814285Y-84973390D02*
X102385713Y-85544819D01*
X102385713Y-85544819D02*
X101766666Y-85544819D01*
X101147618Y-84544819D02*
X101052380Y-84544819D01*
X101052380Y-84544819D02*
X100957142Y-84592438D01*
X100957142Y-84592438D02*
X100909523Y-84640057D01*
X100909523Y-84640057D02*
X100861904Y-84735295D01*
X100861904Y-84735295D02*
X100814285Y-84925771D01*
X100814285Y-84925771D02*
X100814285Y-85163866D01*
X100814285Y-85163866D02*
X100861904Y-85354342D01*
X100861904Y-85354342D02*
X100909523Y-85449580D01*
X100909523Y-85449580D02*
X100957142Y-85497200D01*
X100957142Y-85497200D02*
X101052380Y-85544819D01*
X101052380Y-85544819D02*
X101147618Y-85544819D01*
X101147618Y-85544819D02*
X101242856Y-85497200D01*
X101242856Y-85497200D02*
X101290475Y-85449580D01*
X101290475Y-85449580D02*
X101338094Y-85354342D01*
X101338094Y-85354342D02*
X101385713Y-85163866D01*
X101385713Y-85163866D02*
X101385713Y-84925771D01*
X101385713Y-84925771D02*
X101338094Y-84735295D01*
X101338094Y-84735295D02*
X101290475Y-84640057D01*
X101290475Y-84640057D02*
X101242856Y-84592438D01*
X101242856Y-84592438D02*
X101147618Y-84544819D01*
X100338094Y-85544819D02*
X100147618Y-85544819D01*
X100147618Y-85544819D02*
X100052380Y-85497200D01*
X100052380Y-85497200D02*
X100004761Y-85449580D01*
X100004761Y-85449580D02*
X99909523Y-85306723D01*
X99909523Y-85306723D02*
X99861904Y-85116247D01*
X99861904Y-85116247D02*
X99861904Y-84735295D01*
X99861904Y-84735295D02*
X99909523Y-84640057D01*
X99909523Y-84640057D02*
X99957142Y-84592438D01*
X99957142Y-84592438D02*
X100052380Y-84544819D01*
X100052380Y-84544819D02*
X100242856Y-84544819D01*
X100242856Y-84544819D02*
X100338094Y-84592438D01*
X100338094Y-84592438D02*
X100385713Y-84640057D01*
X100385713Y-84640057D02*
X100433332Y-84735295D01*
X100433332Y-84735295D02*
X100433332Y-84973390D01*
X100433332Y-84973390D02*
X100385713Y-85068628D01*
X100385713Y-85068628D02*
X100338094Y-85116247D01*
X100338094Y-85116247D02*
X100242856Y-85163866D01*
X100242856Y-85163866D02*
X100052380Y-85163866D01*
X100052380Y-85163866D02*
X99957142Y-85116247D01*
X99957142Y-85116247D02*
X99909523Y-85068628D01*
X99909523Y-85068628D02*
X99861904Y-84973390D01*
X84939047Y-80464819D02*
X85272380Y-79988628D01*
X85510475Y-80464819D02*
X85510475Y-79464819D01*
X85510475Y-79464819D02*
X85129523Y-79464819D01*
X85129523Y-79464819D02*
X85034285Y-79512438D01*
X85034285Y-79512438D02*
X84986666Y-79560057D01*
X84986666Y-79560057D02*
X84939047Y-79655295D01*
X84939047Y-79655295D02*
X84939047Y-79798152D01*
X84939047Y-79798152D02*
X84986666Y-79893390D01*
X84986666Y-79893390D02*
X85034285Y-79941009D01*
X85034285Y-79941009D02*
X85129523Y-79988628D01*
X85129523Y-79988628D02*
X85510475Y-79988628D01*
X84558094Y-79560057D02*
X84510475Y-79512438D01*
X84510475Y-79512438D02*
X84415237Y-79464819D01*
X84415237Y-79464819D02*
X84177142Y-79464819D01*
X84177142Y-79464819D02*
X84081904Y-79512438D01*
X84081904Y-79512438D02*
X84034285Y-79560057D01*
X84034285Y-79560057D02*
X83986666Y-79655295D01*
X83986666Y-79655295D02*
X83986666Y-79750533D01*
X83986666Y-79750533D02*
X84034285Y-79893390D01*
X84034285Y-79893390D02*
X84605713Y-80464819D01*
X84605713Y-80464819D02*
X83986666Y-80464819D01*
X83367618Y-79464819D02*
X83272380Y-79464819D01*
X83272380Y-79464819D02*
X83177142Y-79512438D01*
X83177142Y-79512438D02*
X83129523Y-79560057D01*
X83129523Y-79560057D02*
X83081904Y-79655295D01*
X83081904Y-79655295D02*
X83034285Y-79845771D01*
X83034285Y-79845771D02*
X83034285Y-80083866D01*
X83034285Y-80083866D02*
X83081904Y-80274342D01*
X83081904Y-80274342D02*
X83129523Y-80369580D01*
X83129523Y-80369580D02*
X83177142Y-80417200D01*
X83177142Y-80417200D02*
X83272380Y-80464819D01*
X83272380Y-80464819D02*
X83367618Y-80464819D01*
X83367618Y-80464819D02*
X83462856Y-80417200D01*
X83462856Y-80417200D02*
X83510475Y-80369580D01*
X83510475Y-80369580D02*
X83558094Y-80274342D01*
X83558094Y-80274342D02*
X83605713Y-80083866D01*
X83605713Y-80083866D02*
X83605713Y-79845771D01*
X83605713Y-79845771D02*
X83558094Y-79655295D01*
X83558094Y-79655295D02*
X83510475Y-79560057D01*
X83510475Y-79560057D02*
X83462856Y-79512438D01*
X83462856Y-79512438D02*
X83367618Y-79464819D01*
X82177142Y-79798152D02*
X82177142Y-80464819D01*
X82415237Y-79417200D02*
X82653332Y-80131485D01*
X82653332Y-80131485D02*
X82034285Y-80131485D01*
X69699047Y-70304819D02*
X70032380Y-69828628D01*
X70270475Y-70304819D02*
X70270475Y-69304819D01*
X70270475Y-69304819D02*
X69889523Y-69304819D01*
X69889523Y-69304819D02*
X69794285Y-69352438D01*
X69794285Y-69352438D02*
X69746666Y-69400057D01*
X69746666Y-69400057D02*
X69699047Y-69495295D01*
X69699047Y-69495295D02*
X69699047Y-69638152D01*
X69699047Y-69638152D02*
X69746666Y-69733390D01*
X69746666Y-69733390D02*
X69794285Y-69781009D01*
X69794285Y-69781009D02*
X69889523Y-69828628D01*
X69889523Y-69828628D02*
X70270475Y-69828628D01*
X68746666Y-70304819D02*
X69318094Y-70304819D01*
X69032380Y-70304819D02*
X69032380Y-69304819D01*
X69032380Y-69304819D02*
X69127618Y-69447676D01*
X69127618Y-69447676D02*
X69222856Y-69542914D01*
X69222856Y-69542914D02*
X69318094Y-69590533D01*
X68127618Y-69304819D02*
X68032380Y-69304819D01*
X68032380Y-69304819D02*
X67937142Y-69352438D01*
X67937142Y-69352438D02*
X67889523Y-69400057D01*
X67889523Y-69400057D02*
X67841904Y-69495295D01*
X67841904Y-69495295D02*
X67794285Y-69685771D01*
X67794285Y-69685771D02*
X67794285Y-69923866D01*
X67794285Y-69923866D02*
X67841904Y-70114342D01*
X67841904Y-70114342D02*
X67889523Y-70209580D01*
X67889523Y-70209580D02*
X67937142Y-70257200D01*
X67937142Y-70257200D02*
X68032380Y-70304819D01*
X68032380Y-70304819D02*
X68127618Y-70304819D01*
X68127618Y-70304819D02*
X68222856Y-70257200D01*
X68222856Y-70257200D02*
X68270475Y-70209580D01*
X68270475Y-70209580D02*
X68318094Y-70114342D01*
X68318094Y-70114342D02*
X68365713Y-69923866D01*
X68365713Y-69923866D02*
X68365713Y-69685771D01*
X68365713Y-69685771D02*
X68318094Y-69495295D01*
X68318094Y-69495295D02*
X68270475Y-69400057D01*
X68270475Y-69400057D02*
X68222856Y-69352438D01*
X68222856Y-69352438D02*
X68127618Y-69304819D01*
X67413332Y-69400057D02*
X67365713Y-69352438D01*
X67365713Y-69352438D02*
X67270475Y-69304819D01*
X67270475Y-69304819D02*
X67032380Y-69304819D01*
X67032380Y-69304819D02*
X66937142Y-69352438D01*
X66937142Y-69352438D02*
X66889523Y-69400057D01*
X66889523Y-69400057D02*
X66841904Y-69495295D01*
X66841904Y-69495295D02*
X66841904Y-69590533D01*
X66841904Y-69590533D02*
X66889523Y-69733390D01*
X66889523Y-69733390D02*
X67460951Y-70304819D01*
X67460951Y-70304819D02*
X66841904Y-70304819D01*
X102719047Y-70304819D02*
X103052380Y-69828628D01*
X103290475Y-70304819D02*
X103290475Y-69304819D01*
X103290475Y-69304819D02*
X102909523Y-69304819D01*
X102909523Y-69304819D02*
X102814285Y-69352438D01*
X102814285Y-69352438D02*
X102766666Y-69400057D01*
X102766666Y-69400057D02*
X102719047Y-69495295D01*
X102719047Y-69495295D02*
X102719047Y-69638152D01*
X102719047Y-69638152D02*
X102766666Y-69733390D01*
X102766666Y-69733390D02*
X102814285Y-69781009D01*
X102814285Y-69781009D02*
X102909523Y-69828628D01*
X102909523Y-69828628D02*
X103290475Y-69828628D01*
X102338094Y-69400057D02*
X102290475Y-69352438D01*
X102290475Y-69352438D02*
X102195237Y-69304819D01*
X102195237Y-69304819D02*
X101957142Y-69304819D01*
X101957142Y-69304819D02*
X101861904Y-69352438D01*
X101861904Y-69352438D02*
X101814285Y-69400057D01*
X101814285Y-69400057D02*
X101766666Y-69495295D01*
X101766666Y-69495295D02*
X101766666Y-69590533D01*
X101766666Y-69590533D02*
X101814285Y-69733390D01*
X101814285Y-69733390D02*
X102385713Y-70304819D01*
X102385713Y-70304819D02*
X101766666Y-70304819D01*
X101147618Y-69304819D02*
X101052380Y-69304819D01*
X101052380Y-69304819D02*
X100957142Y-69352438D01*
X100957142Y-69352438D02*
X100909523Y-69400057D01*
X100909523Y-69400057D02*
X100861904Y-69495295D01*
X100861904Y-69495295D02*
X100814285Y-69685771D01*
X100814285Y-69685771D02*
X100814285Y-69923866D01*
X100814285Y-69923866D02*
X100861904Y-70114342D01*
X100861904Y-70114342D02*
X100909523Y-70209580D01*
X100909523Y-70209580D02*
X100957142Y-70257200D01*
X100957142Y-70257200D02*
X101052380Y-70304819D01*
X101052380Y-70304819D02*
X101147618Y-70304819D01*
X101147618Y-70304819D02*
X101242856Y-70257200D01*
X101242856Y-70257200D02*
X101290475Y-70209580D01*
X101290475Y-70209580D02*
X101338094Y-70114342D01*
X101338094Y-70114342D02*
X101385713Y-69923866D01*
X101385713Y-69923866D02*
X101385713Y-69685771D01*
X101385713Y-69685771D02*
X101338094Y-69495295D01*
X101338094Y-69495295D02*
X101290475Y-69400057D01*
X101290475Y-69400057D02*
X101242856Y-69352438D01*
X101242856Y-69352438D02*
X101147618Y-69304819D01*
X99957142Y-69304819D02*
X100147618Y-69304819D01*
X100147618Y-69304819D02*
X100242856Y-69352438D01*
X100242856Y-69352438D02*
X100290475Y-69400057D01*
X100290475Y-69400057D02*
X100385713Y-69542914D01*
X100385713Y-69542914D02*
X100433332Y-69733390D01*
X100433332Y-69733390D02*
X100433332Y-70114342D01*
X100433332Y-70114342D02*
X100385713Y-70209580D01*
X100385713Y-70209580D02*
X100338094Y-70257200D01*
X100338094Y-70257200D02*
X100242856Y-70304819D01*
X100242856Y-70304819D02*
X100052380Y-70304819D01*
X100052380Y-70304819D02*
X99957142Y-70257200D01*
X99957142Y-70257200D02*
X99909523Y-70209580D01*
X99909523Y-70209580D02*
X99861904Y-70114342D01*
X99861904Y-70114342D02*
X99861904Y-69876247D01*
X99861904Y-69876247D02*
X99909523Y-69781009D01*
X99909523Y-69781009D02*
X99957142Y-69733390D01*
X99957142Y-69733390D02*
X100052380Y-69685771D01*
X100052380Y-69685771D02*
X100242856Y-69685771D01*
X100242856Y-69685771D02*
X100338094Y-69733390D01*
X100338094Y-69733390D02*
X100385713Y-69781009D01*
X100385713Y-69781009D02*
X100433332Y-69876247D01*
X69699047Y-75384819D02*
X70032380Y-74908628D01*
X70270475Y-75384819D02*
X70270475Y-74384819D01*
X70270475Y-74384819D02*
X69889523Y-74384819D01*
X69889523Y-74384819D02*
X69794285Y-74432438D01*
X69794285Y-74432438D02*
X69746666Y-74480057D01*
X69746666Y-74480057D02*
X69699047Y-74575295D01*
X69699047Y-74575295D02*
X69699047Y-74718152D01*
X69699047Y-74718152D02*
X69746666Y-74813390D01*
X69746666Y-74813390D02*
X69794285Y-74861009D01*
X69794285Y-74861009D02*
X69889523Y-74908628D01*
X69889523Y-74908628D02*
X70270475Y-74908628D01*
X68746666Y-75384819D02*
X69318094Y-75384819D01*
X69032380Y-75384819D02*
X69032380Y-74384819D01*
X69032380Y-74384819D02*
X69127618Y-74527676D01*
X69127618Y-74527676D02*
X69222856Y-74622914D01*
X69222856Y-74622914D02*
X69318094Y-74670533D01*
X68127618Y-74384819D02*
X68032380Y-74384819D01*
X68032380Y-74384819D02*
X67937142Y-74432438D01*
X67937142Y-74432438D02*
X67889523Y-74480057D01*
X67889523Y-74480057D02*
X67841904Y-74575295D01*
X67841904Y-74575295D02*
X67794285Y-74765771D01*
X67794285Y-74765771D02*
X67794285Y-75003866D01*
X67794285Y-75003866D02*
X67841904Y-75194342D01*
X67841904Y-75194342D02*
X67889523Y-75289580D01*
X67889523Y-75289580D02*
X67937142Y-75337200D01*
X67937142Y-75337200D02*
X68032380Y-75384819D01*
X68032380Y-75384819D02*
X68127618Y-75384819D01*
X68127618Y-75384819D02*
X68222856Y-75337200D01*
X68222856Y-75337200D02*
X68270475Y-75289580D01*
X68270475Y-75289580D02*
X68318094Y-75194342D01*
X68318094Y-75194342D02*
X68365713Y-75003866D01*
X68365713Y-75003866D02*
X68365713Y-74765771D01*
X68365713Y-74765771D02*
X68318094Y-74575295D01*
X68318094Y-74575295D02*
X68270475Y-74480057D01*
X68270475Y-74480057D02*
X68222856Y-74432438D01*
X68222856Y-74432438D02*
X68127618Y-74384819D01*
X67460951Y-74384819D02*
X66841904Y-74384819D01*
X66841904Y-74384819D02*
X67175237Y-74765771D01*
X67175237Y-74765771D02*
X67032380Y-74765771D01*
X67032380Y-74765771D02*
X66937142Y-74813390D01*
X66937142Y-74813390D02*
X66889523Y-74861009D01*
X66889523Y-74861009D02*
X66841904Y-74956247D01*
X66841904Y-74956247D02*
X66841904Y-75194342D01*
X66841904Y-75194342D02*
X66889523Y-75289580D01*
X66889523Y-75289580D02*
X66937142Y-75337200D01*
X66937142Y-75337200D02*
X67032380Y-75384819D01*
X67032380Y-75384819D02*
X67318094Y-75384819D01*
X67318094Y-75384819D02*
X67413332Y-75337200D01*
X67413332Y-75337200D02*
X67460951Y-75289580D01*
X69699047Y-65224819D02*
X70032380Y-64748628D01*
X70270475Y-65224819D02*
X70270475Y-64224819D01*
X70270475Y-64224819D02*
X69889523Y-64224819D01*
X69889523Y-64224819D02*
X69794285Y-64272438D01*
X69794285Y-64272438D02*
X69746666Y-64320057D01*
X69746666Y-64320057D02*
X69699047Y-64415295D01*
X69699047Y-64415295D02*
X69699047Y-64558152D01*
X69699047Y-64558152D02*
X69746666Y-64653390D01*
X69746666Y-64653390D02*
X69794285Y-64701009D01*
X69794285Y-64701009D02*
X69889523Y-64748628D01*
X69889523Y-64748628D02*
X70270475Y-64748628D01*
X68746666Y-65224819D02*
X69318094Y-65224819D01*
X69032380Y-65224819D02*
X69032380Y-64224819D01*
X69032380Y-64224819D02*
X69127618Y-64367676D01*
X69127618Y-64367676D02*
X69222856Y-64462914D01*
X69222856Y-64462914D02*
X69318094Y-64510533D01*
X68127618Y-64224819D02*
X68032380Y-64224819D01*
X68032380Y-64224819D02*
X67937142Y-64272438D01*
X67937142Y-64272438D02*
X67889523Y-64320057D01*
X67889523Y-64320057D02*
X67841904Y-64415295D01*
X67841904Y-64415295D02*
X67794285Y-64605771D01*
X67794285Y-64605771D02*
X67794285Y-64843866D01*
X67794285Y-64843866D02*
X67841904Y-65034342D01*
X67841904Y-65034342D02*
X67889523Y-65129580D01*
X67889523Y-65129580D02*
X67937142Y-65177200D01*
X67937142Y-65177200D02*
X68032380Y-65224819D01*
X68032380Y-65224819D02*
X68127618Y-65224819D01*
X68127618Y-65224819D02*
X68222856Y-65177200D01*
X68222856Y-65177200D02*
X68270475Y-65129580D01*
X68270475Y-65129580D02*
X68318094Y-65034342D01*
X68318094Y-65034342D02*
X68365713Y-64843866D01*
X68365713Y-64843866D02*
X68365713Y-64605771D01*
X68365713Y-64605771D02*
X68318094Y-64415295D01*
X68318094Y-64415295D02*
X68270475Y-64320057D01*
X68270475Y-64320057D02*
X68222856Y-64272438D01*
X68222856Y-64272438D02*
X68127618Y-64224819D01*
X66841904Y-65224819D02*
X67413332Y-65224819D01*
X67127618Y-65224819D02*
X67127618Y-64224819D01*
X67127618Y-64224819D02*
X67222856Y-64367676D01*
X67222856Y-64367676D02*
X67318094Y-64462914D01*
X67318094Y-64462914D02*
X67413332Y-64510533D01*
X54885419Y-65254047D02*
X54837800Y-65301666D01*
X54837800Y-65301666D02*
X54790180Y-65444523D01*
X54790180Y-65444523D02*
X54790180Y-65539761D01*
X54790180Y-65539761D02*
X54837800Y-65682618D01*
X54837800Y-65682618D02*
X54933038Y-65777856D01*
X54933038Y-65777856D02*
X55028276Y-65825475D01*
X55028276Y-65825475D02*
X55218752Y-65873094D01*
X55218752Y-65873094D02*
X55361609Y-65873094D01*
X55361609Y-65873094D02*
X55552085Y-65825475D01*
X55552085Y-65825475D02*
X55647323Y-65777856D01*
X55647323Y-65777856D02*
X55742561Y-65682618D01*
X55742561Y-65682618D02*
X55790180Y-65539761D01*
X55790180Y-65539761D02*
X55790180Y-65444523D01*
X55790180Y-65444523D02*
X55742561Y-65301666D01*
X55742561Y-65301666D02*
X55694942Y-65254047D01*
X54790180Y-64301666D02*
X54790180Y-64873094D01*
X54790180Y-64587380D02*
X55790180Y-64587380D01*
X55790180Y-64587380D02*
X55647323Y-64682618D01*
X55647323Y-64682618D02*
X55552085Y-64777856D01*
X55552085Y-64777856D02*
X55504466Y-64873094D01*
X55790180Y-63682618D02*
X55790180Y-63587380D01*
X55790180Y-63587380D02*
X55742561Y-63492142D01*
X55742561Y-63492142D02*
X55694942Y-63444523D01*
X55694942Y-63444523D02*
X55599704Y-63396904D01*
X55599704Y-63396904D02*
X55409228Y-63349285D01*
X55409228Y-63349285D02*
X55171133Y-63349285D01*
X55171133Y-63349285D02*
X54980657Y-63396904D01*
X54980657Y-63396904D02*
X54885419Y-63444523D01*
X54885419Y-63444523D02*
X54837800Y-63492142D01*
X54837800Y-63492142D02*
X54790180Y-63587380D01*
X54790180Y-63587380D02*
X54790180Y-63682618D01*
X54790180Y-63682618D02*
X54837800Y-63777856D01*
X54837800Y-63777856D02*
X54885419Y-63825475D01*
X54885419Y-63825475D02*
X54980657Y-63873094D01*
X54980657Y-63873094D02*
X55171133Y-63920713D01*
X55171133Y-63920713D02*
X55409228Y-63920713D01*
X55409228Y-63920713D02*
X55599704Y-63873094D01*
X55599704Y-63873094D02*
X55694942Y-63825475D01*
X55694942Y-63825475D02*
X55742561Y-63777856D01*
X55742561Y-63777856D02*
X55790180Y-63682618D01*
X54790180Y-62396904D02*
X54790180Y-62968332D01*
X54790180Y-62682618D02*
X55790180Y-62682618D01*
X55790180Y-62682618D02*
X55647323Y-62777856D01*
X55647323Y-62777856D02*
X55552085Y-62873094D01*
X55552085Y-62873094D02*
X55504466Y-62968332D01*
D16*
X88547750Y-56315181D02*
X88547750Y-57403752D01*
X88547750Y-57403752D02*
X88620321Y-57621467D01*
X88620321Y-57621467D02*
X88765464Y-57766610D01*
X88765464Y-57766610D02*
X88983178Y-57839181D01*
X88983178Y-57839181D02*
X89128321Y-57839181D01*
X87023750Y-57839181D02*
X87894607Y-57839181D01*
X87459178Y-57839181D02*
X87459178Y-56315181D01*
X87459178Y-56315181D02*
X87604321Y-56532895D01*
X87604321Y-56532895D02*
X87749464Y-56678038D01*
X87749464Y-56678038D02*
X87894607Y-56750610D01*
D15*
X84939047Y-85544819D02*
X85272380Y-85068628D01*
X85510475Y-85544819D02*
X85510475Y-84544819D01*
X85510475Y-84544819D02*
X85129523Y-84544819D01*
X85129523Y-84544819D02*
X85034285Y-84592438D01*
X85034285Y-84592438D02*
X84986666Y-84640057D01*
X84986666Y-84640057D02*
X84939047Y-84735295D01*
X84939047Y-84735295D02*
X84939047Y-84878152D01*
X84939047Y-84878152D02*
X84986666Y-84973390D01*
X84986666Y-84973390D02*
X85034285Y-85021009D01*
X85034285Y-85021009D02*
X85129523Y-85068628D01*
X85129523Y-85068628D02*
X85510475Y-85068628D01*
X84558094Y-84640057D02*
X84510475Y-84592438D01*
X84510475Y-84592438D02*
X84415237Y-84544819D01*
X84415237Y-84544819D02*
X84177142Y-84544819D01*
X84177142Y-84544819D02*
X84081904Y-84592438D01*
X84081904Y-84592438D02*
X84034285Y-84640057D01*
X84034285Y-84640057D02*
X83986666Y-84735295D01*
X83986666Y-84735295D02*
X83986666Y-84830533D01*
X83986666Y-84830533D02*
X84034285Y-84973390D01*
X84034285Y-84973390D02*
X84605713Y-85544819D01*
X84605713Y-85544819D02*
X83986666Y-85544819D01*
X83367618Y-84544819D02*
X83272380Y-84544819D01*
X83272380Y-84544819D02*
X83177142Y-84592438D01*
X83177142Y-84592438D02*
X83129523Y-84640057D01*
X83129523Y-84640057D02*
X83081904Y-84735295D01*
X83081904Y-84735295D02*
X83034285Y-84925771D01*
X83034285Y-84925771D02*
X83034285Y-85163866D01*
X83034285Y-85163866D02*
X83081904Y-85354342D01*
X83081904Y-85354342D02*
X83129523Y-85449580D01*
X83129523Y-85449580D02*
X83177142Y-85497200D01*
X83177142Y-85497200D02*
X83272380Y-85544819D01*
X83272380Y-85544819D02*
X83367618Y-85544819D01*
X83367618Y-85544819D02*
X83462856Y-85497200D01*
X83462856Y-85497200D02*
X83510475Y-85449580D01*
X83510475Y-85449580D02*
X83558094Y-85354342D01*
X83558094Y-85354342D02*
X83605713Y-85163866D01*
X83605713Y-85163866D02*
X83605713Y-84925771D01*
X83605713Y-84925771D02*
X83558094Y-84735295D01*
X83558094Y-84735295D02*
X83510475Y-84640057D01*
X83510475Y-84640057D02*
X83462856Y-84592438D01*
X83462856Y-84592438D02*
X83367618Y-84544819D01*
X82129523Y-84544819D02*
X82605713Y-84544819D01*
X82605713Y-84544819D02*
X82653332Y-85021009D01*
X82653332Y-85021009D02*
X82605713Y-84973390D01*
X82605713Y-84973390D02*
X82510475Y-84925771D01*
X82510475Y-84925771D02*
X82272380Y-84925771D01*
X82272380Y-84925771D02*
X82177142Y-84973390D01*
X82177142Y-84973390D02*
X82129523Y-85021009D01*
X82129523Y-85021009D02*
X82081904Y-85116247D01*
X82081904Y-85116247D02*
X82081904Y-85354342D01*
X82081904Y-85354342D02*
X82129523Y-85449580D01*
X82129523Y-85449580D02*
X82177142Y-85497200D01*
X82177142Y-85497200D02*
X82272380Y-85544819D01*
X82272380Y-85544819D02*
X82510475Y-85544819D01*
X82510475Y-85544819D02*
X82605713Y-85497200D01*
X82605713Y-85497200D02*
X82653332Y-85449580D01*
X91289047Y-95609580D02*
X91336666Y-95657200D01*
X91336666Y-95657200D02*
X91479523Y-95704819D01*
X91479523Y-95704819D02*
X91574761Y-95704819D01*
X91574761Y-95704819D02*
X91717618Y-95657200D01*
X91717618Y-95657200D02*
X91812856Y-95561961D01*
X91812856Y-95561961D02*
X91860475Y-95466723D01*
X91860475Y-95466723D02*
X91908094Y-95276247D01*
X91908094Y-95276247D02*
X91908094Y-95133390D01*
X91908094Y-95133390D02*
X91860475Y-94942914D01*
X91860475Y-94942914D02*
X91812856Y-94847676D01*
X91812856Y-94847676D02*
X91717618Y-94752438D01*
X91717618Y-94752438D02*
X91574761Y-94704819D01*
X91574761Y-94704819D02*
X91479523Y-94704819D01*
X91479523Y-94704819D02*
X91336666Y-94752438D01*
X91336666Y-94752438D02*
X91289047Y-94800057D01*
X90908094Y-94800057D02*
X90860475Y-94752438D01*
X90860475Y-94752438D02*
X90765237Y-94704819D01*
X90765237Y-94704819D02*
X90527142Y-94704819D01*
X90527142Y-94704819D02*
X90431904Y-94752438D01*
X90431904Y-94752438D02*
X90384285Y-94800057D01*
X90384285Y-94800057D02*
X90336666Y-94895295D01*
X90336666Y-94895295D02*
X90336666Y-94990533D01*
X90336666Y-94990533D02*
X90384285Y-95133390D01*
X90384285Y-95133390D02*
X90955713Y-95704819D01*
X90955713Y-95704819D02*
X90336666Y-95704819D01*
X89717618Y-94704819D02*
X89622380Y-94704819D01*
X89622380Y-94704819D02*
X89527142Y-94752438D01*
X89527142Y-94752438D02*
X89479523Y-94800057D01*
X89479523Y-94800057D02*
X89431904Y-94895295D01*
X89431904Y-94895295D02*
X89384285Y-95085771D01*
X89384285Y-95085771D02*
X89384285Y-95323866D01*
X89384285Y-95323866D02*
X89431904Y-95514342D01*
X89431904Y-95514342D02*
X89479523Y-95609580D01*
X89479523Y-95609580D02*
X89527142Y-95657200D01*
X89527142Y-95657200D02*
X89622380Y-95704819D01*
X89622380Y-95704819D02*
X89717618Y-95704819D01*
X89717618Y-95704819D02*
X89812856Y-95657200D01*
X89812856Y-95657200D02*
X89860475Y-95609580D01*
X89860475Y-95609580D02*
X89908094Y-95514342D01*
X89908094Y-95514342D02*
X89955713Y-95323866D01*
X89955713Y-95323866D02*
X89955713Y-95085771D01*
X89955713Y-95085771D02*
X89908094Y-94895295D01*
X89908094Y-94895295D02*
X89860475Y-94800057D01*
X89860475Y-94800057D02*
X89812856Y-94752438D01*
X89812856Y-94752438D02*
X89717618Y-94704819D01*
X89003332Y-94800057D02*
X88955713Y-94752438D01*
X88955713Y-94752438D02*
X88860475Y-94704819D01*
X88860475Y-94704819D02*
X88622380Y-94704819D01*
X88622380Y-94704819D02*
X88527142Y-94752438D01*
X88527142Y-94752438D02*
X88479523Y-94800057D01*
X88479523Y-94800057D02*
X88431904Y-94895295D01*
X88431904Y-94895295D02*
X88431904Y-94990533D01*
X88431904Y-94990533D02*
X88479523Y-95133390D01*
X88479523Y-95133390D02*
X89050951Y-95704819D01*
X89050951Y-95704819D02*
X88431904Y-95704819D01*
%LPC*%
D17*
X78740000Y-69850000D03*
D18*
X88900000Y-69850000D03*
D17*
X87630000Y-100330000D03*
D18*
X77470000Y-100330000D03*
D17*
X73660000Y-80010000D03*
D18*
X63500000Y-80010000D03*
D19*
X104052380Y-64135000D03*
D17*
X101552380Y-64135000D03*
X45720000Y-85090000D03*
D18*
X55880000Y-85090000D03*
D17*
X45720000Y-74930000D03*
D18*
X55880000Y-74930000D03*
D17*
X88900000Y-90170000D03*
D18*
X78740000Y-90170000D03*
D17*
X63500000Y-90170000D03*
D18*
X73660000Y-90170000D03*
D20*
X93980000Y-85090000D03*
D21*
X92710000Y-85090000D03*
X91440000Y-85090000D03*
D17*
X88900000Y-64770000D03*
D18*
X78740000Y-64770000D03*
D20*
X58420000Y-74930000D03*
D21*
X59690000Y-74930000D03*
X60960000Y-74930000D03*
D17*
X106680000Y-80010000D03*
D18*
X96520000Y-80010000D03*
D17*
X45720000Y-90170000D03*
D18*
X55880000Y-90170000D03*
D17*
X78740000Y-92750000D03*
X78740000Y-97750000D03*
X73660000Y-92750000D03*
X73660000Y-97750000D03*
D22*
X104140000Y-57150000D03*
D17*
X45720000Y-69850000D03*
D18*
X55880000Y-69850000D03*
D17*
X64690000Y-95250000D03*
X59690000Y-95250000D03*
D23*
X68580000Y-95250000D03*
D24*
X70080000Y-95250000D03*
D20*
X93980000Y-69850000D03*
D21*
X92710000Y-69850000D03*
X91440000Y-69850000D03*
D17*
X64770000Y-100330000D03*
D18*
X74930000Y-100330000D03*
D17*
X55245000Y-61595000D03*
X55245000Y-66595000D03*
D23*
X93575000Y-64135000D03*
D24*
X92075000Y-64135000D03*
D23*
X83820000Y-95250000D03*
D24*
X82320000Y-95250000D03*
D17*
X52070000Y-99060000D03*
D18*
X62230000Y-99060000D03*
D17*
X106680000Y-74930000D03*
D18*
X96520000Y-74930000D03*
D17*
X45720000Y-80010000D03*
D18*
X55880000Y-80010000D03*
D25*
X70860000Y-53200000D03*
X58560000Y-53200000D03*
D26*
X60960000Y-56950000D03*
X68460000Y-56950000D03*
D27*
X60960000Y-49700000D03*
D17*
X95250000Y-95250000D03*
D18*
X105410000Y-95250000D03*
D20*
X93980000Y-80010000D03*
D21*
X92710000Y-80010000D03*
X91440000Y-80010000D03*
D17*
X57150000Y-95250000D03*
D18*
X46990000Y-95250000D03*
D17*
X100330000Y-99060000D03*
D18*
X90170000Y-99060000D03*
D20*
X58420000Y-85090000D03*
D21*
X59690000Y-85090000D03*
X60960000Y-85090000D03*
D20*
X93980000Y-74930000D03*
D21*
X92710000Y-74930000D03*
X91440000Y-74930000D03*
D17*
X73660000Y-85090000D03*
D18*
X63500000Y-85090000D03*
D17*
X78740000Y-74930000D03*
D18*
X88900000Y-74930000D03*
D20*
X58420000Y-69850000D03*
D21*
X59690000Y-69850000D03*
X60960000Y-69850000D03*
D28*
X74930000Y-104140000D03*
D29*
X77470000Y-104140000D03*
D17*
X97155000Y-61675000D03*
X97155000Y-66675000D03*
X106680000Y-90170000D03*
D18*
X96520000Y-90170000D03*
D20*
X58420000Y-80010000D03*
D21*
X59690000Y-80010000D03*
X60960000Y-80010000D03*
D19*
X48260000Y-64135000D03*
D17*
X50760000Y-64135000D03*
X106680000Y-85090000D03*
D18*
X96520000Y-85090000D03*
D17*
X78740000Y-80010000D03*
D18*
X88900000Y-80010000D03*
D17*
X73660000Y-69850000D03*
D18*
X63500000Y-69850000D03*
D30*
X104140000Y-102870000D03*
D17*
X106680000Y-69850000D03*
D18*
X96520000Y-69850000D03*
D17*
X73660000Y-74930000D03*
D18*
X63500000Y-74930000D03*
D17*
X63500000Y-64770000D03*
D18*
X73660000Y-64770000D03*
D23*
X58825000Y-64135000D03*
D24*
X60325000Y-64135000D03*
D25*
X94189750Y-53200000D03*
X81889750Y-53200000D03*
D26*
X84289750Y-56950000D03*
X91789750Y-56950000D03*
D27*
X84289750Y-49700000D03*
D17*
X78740000Y-85090000D03*
D18*
X88900000Y-85090000D03*
D30*
X48260000Y-102870000D03*
D22*
X48260000Y-57150000D03*
D17*
X87710000Y-95250000D03*
X92710000Y-95250000D03*
%LPD*%
M02*
