%TF.GenerationSoftware,KiCad,Pcbnew,8.0.9*%
%TF.CreationDate,2025-03-02T14:16:50+01:00*%
%TF.ProjectId,cjss190,636a7373-3139-4302-9e6b-696361645f70,rev?*%
%TF.SameCoordinates,Original*%
%TF.FileFunction,Drillmap*%
%TF.FilePolarity,Positive*%
%FSLAX45Y45*%
G04 Gerber Fmt 4.5, Leading zero omitted, Abs format (unit mm)*
G04 Created by KiCad (PCBNEW 8.0.9) date 2025-03-02 14:16:50*
%MOMM*%
%LPD*%
G01*
G04 APERTURE LIST*
%ADD10C,0.050000*%
%ADD11C,0.200000*%
%ADD12C,0.180000*%
%ADD13C,0.100000*%
%ADD14C,0.320000*%
G04 APERTURE END LIST*
D10*
X4445000Y-4699000D02*
G75*
G02*
X4699000Y-4445000I254000J0D01*
G01*
X4699000Y-4445000D02*
X10541000Y-4445000D01*
X10795000Y-4699000D02*
X10795000Y-10287000D01*
X4699000Y-10541000D02*
G75*
G02*
X4445000Y-10287000I0J254000D01*
G01*
X4445000Y-10287000D02*
X4445000Y-4699000D01*
X10541000Y-4445000D02*
G75*
G02*
X10795000Y-4699000I0J-254000D01*
G01*
X10541000Y-10541000D02*
X4699000Y-10541000D01*
X10795000Y-10287000D02*
G75*
G02*
X10541000Y-10541000I-254000J0D01*
G01*
D11*
D12*
X5766000Y-5230000D02*
X5946000Y-5410000D01*
X5946000Y-5230000D02*
X5766000Y-5410000D01*
D13*
X5946000Y-5385000D02*
X5946000Y-5255000D01*
X5766000Y-5255000D02*
G75*
G02*
X5946000Y-5255000I90000J0D01*
G01*
X5766000Y-5255000D02*
X5766000Y-5385000D01*
X5766000Y-5385000D02*
G75*
G03*
X5946000Y-5385000I90000J0D01*
G01*
D12*
X6996000Y-5230000D02*
X7176000Y-5410000D01*
X7176000Y-5230000D02*
X6996000Y-5410000D01*
D13*
X7176000Y-5385000D02*
X7176000Y-5255000D01*
X6996000Y-5255000D02*
G75*
G02*
X7176000Y-5255000I90000J0D01*
G01*
X6996000Y-5255000D02*
X6996000Y-5385000D01*
X6996000Y-5385000D02*
G75*
G03*
X7176000Y-5385000I90000J0D01*
G01*
D12*
X8098975Y-5230000D02*
X8278975Y-5410000D01*
X8278975Y-5230000D02*
X8098975Y-5410000D01*
D13*
X8278975Y-5385000D02*
X8278975Y-5255000D01*
X8098975Y-5255000D02*
G75*
G02*
X8278975Y-5255000I90000J0D01*
G01*
X8098975Y-5255000D02*
X8098975Y-5385000D01*
X8098975Y-5385000D02*
G75*
G03*
X8278975Y-5385000I90000J0D01*
G01*
D12*
X9328975Y-5230000D02*
X9508975Y-5410000D01*
X9508975Y-5230000D02*
X9328975Y-5410000D01*
D13*
X9508975Y-5385000D02*
X9508975Y-5255000D01*
X9328975Y-5255000D02*
G75*
G02*
X9508975Y-5255000I90000J0D01*
G01*
X9328975Y-5255000D02*
X9328975Y-5385000D01*
X9328975Y-5385000D02*
G75*
G03*
X9508975Y-5385000I90000J0D01*
G01*
D14*
X4986000Y-10287000D02*
G75*
G02*
X4666000Y-10287000I-160000J0D01*
G01*
X4666000Y-10287000D02*
G75*
G02*
X4986000Y-10287000I160000J0D01*
G01*
X10574000Y-10287000D02*
G75*
G02*
X10254000Y-10287000I-160000J0D01*
G01*
X10254000Y-10287000D02*
G75*
G02*
X10574000Y-10287000I160000J0D01*
G01*
D11*
X4703277Y-10854984D02*
X4703277Y-10654984D01*
X4703277Y-10654984D02*
X4750896Y-10654984D01*
X4750896Y-10654984D02*
X4779467Y-10664508D01*
X4779467Y-10664508D02*
X4798515Y-10683555D01*
X4798515Y-10683555D02*
X4808039Y-10702603D01*
X4808039Y-10702603D02*
X4817563Y-10740698D01*
X4817563Y-10740698D02*
X4817563Y-10769270D01*
X4817563Y-10769270D02*
X4808039Y-10807365D01*
X4808039Y-10807365D02*
X4798515Y-10826412D01*
X4798515Y-10826412D02*
X4779467Y-10845460D01*
X4779467Y-10845460D02*
X4750896Y-10854984D01*
X4750896Y-10854984D02*
X4703277Y-10854984D01*
X4903277Y-10854984D02*
X4903277Y-10721650D01*
X4903277Y-10759746D02*
X4912801Y-10740698D01*
X4912801Y-10740698D02*
X4922324Y-10731174D01*
X4922324Y-10731174D02*
X4941372Y-10721650D01*
X4941372Y-10721650D02*
X4960420Y-10721650D01*
X5027086Y-10854984D02*
X5027086Y-10721650D01*
X5027086Y-10654984D02*
X5017563Y-10664508D01*
X5017563Y-10664508D02*
X5027086Y-10674031D01*
X5027086Y-10674031D02*
X5036610Y-10664508D01*
X5036610Y-10664508D02*
X5027086Y-10654984D01*
X5027086Y-10654984D02*
X5027086Y-10674031D01*
X5150896Y-10854984D02*
X5131848Y-10845460D01*
X5131848Y-10845460D02*
X5122324Y-10826412D01*
X5122324Y-10826412D02*
X5122324Y-10654984D01*
X5255658Y-10854984D02*
X5236610Y-10845460D01*
X5236610Y-10845460D02*
X5227086Y-10826412D01*
X5227086Y-10826412D02*
X5227086Y-10654984D01*
X5484229Y-10854984D02*
X5484229Y-10654984D01*
X5484229Y-10654984D02*
X5550896Y-10797841D01*
X5550896Y-10797841D02*
X5617562Y-10654984D01*
X5617562Y-10654984D02*
X5617562Y-10854984D01*
X5798515Y-10854984D02*
X5798515Y-10750222D01*
X5798515Y-10750222D02*
X5788991Y-10731174D01*
X5788991Y-10731174D02*
X5769943Y-10721650D01*
X5769943Y-10721650D02*
X5731848Y-10721650D01*
X5731848Y-10721650D02*
X5712801Y-10731174D01*
X5798515Y-10845460D02*
X5779467Y-10854984D01*
X5779467Y-10854984D02*
X5731848Y-10854984D01*
X5731848Y-10854984D02*
X5712801Y-10845460D01*
X5712801Y-10845460D02*
X5703277Y-10826412D01*
X5703277Y-10826412D02*
X5703277Y-10807365D01*
X5703277Y-10807365D02*
X5712801Y-10788317D01*
X5712801Y-10788317D02*
X5731848Y-10778793D01*
X5731848Y-10778793D02*
X5779467Y-10778793D01*
X5779467Y-10778793D02*
X5798515Y-10769270D01*
X5893753Y-10721650D02*
X5893753Y-10921650D01*
X5893753Y-10731174D02*
X5912801Y-10721650D01*
X5912801Y-10721650D02*
X5950896Y-10721650D01*
X5950896Y-10721650D02*
X5969943Y-10731174D01*
X5969943Y-10731174D02*
X5979467Y-10740698D01*
X5979467Y-10740698D02*
X5988991Y-10759746D01*
X5988991Y-10759746D02*
X5988991Y-10816889D01*
X5988991Y-10816889D02*
X5979467Y-10835936D01*
X5979467Y-10835936D02*
X5969943Y-10845460D01*
X5969943Y-10845460D02*
X5950896Y-10854984D01*
X5950896Y-10854984D02*
X5912801Y-10854984D01*
X5912801Y-10854984D02*
X5893753Y-10845460D01*
X6074705Y-10835936D02*
X6084229Y-10845460D01*
X6084229Y-10845460D02*
X6074705Y-10854984D01*
X6074705Y-10854984D02*
X6065182Y-10845460D01*
X6065182Y-10845460D02*
X6074705Y-10835936D01*
X6074705Y-10835936D02*
X6074705Y-10854984D01*
X6074705Y-10731174D02*
X6084229Y-10740698D01*
X6084229Y-10740698D02*
X6074705Y-10750222D01*
X6074705Y-10750222D02*
X6065182Y-10740698D01*
X6065182Y-10740698D02*
X6074705Y-10731174D01*
X6074705Y-10731174D02*
X6074705Y-10750222D01*
D12*
X4262500Y-11093500D02*
X4442500Y-11273500D01*
X4442500Y-11093500D02*
X4262500Y-11273500D01*
D11*
X4808039Y-11274984D02*
X4693753Y-11274984D01*
X4750896Y-11274984D02*
X4750896Y-11074984D01*
X4750896Y-11074984D02*
X4731848Y-11103555D01*
X4731848Y-11103555D02*
X4712801Y-11122603D01*
X4712801Y-11122603D02*
X4693753Y-11132127D01*
X4893753Y-11255936D02*
X4903277Y-11265460D01*
X4903277Y-11265460D02*
X4893753Y-11274984D01*
X4893753Y-11274984D02*
X4884229Y-11265460D01*
X4884229Y-11265460D02*
X4893753Y-11255936D01*
X4893753Y-11255936D02*
X4893753Y-11274984D01*
X5017563Y-11160698D02*
X4998515Y-11151174D01*
X4998515Y-11151174D02*
X4988991Y-11141650D01*
X4988991Y-11141650D02*
X4979467Y-11122603D01*
X4979467Y-11122603D02*
X4979467Y-11113079D01*
X4979467Y-11113079D02*
X4988991Y-11094031D01*
X4988991Y-11094031D02*
X4998515Y-11084508D01*
X4998515Y-11084508D02*
X5017563Y-11074984D01*
X5017563Y-11074984D02*
X5055658Y-11074984D01*
X5055658Y-11074984D02*
X5074705Y-11084508D01*
X5074705Y-11084508D02*
X5084229Y-11094031D01*
X5084229Y-11094031D02*
X5093753Y-11113079D01*
X5093753Y-11113079D02*
X5093753Y-11122603D01*
X5093753Y-11122603D02*
X5084229Y-11141650D01*
X5084229Y-11141650D02*
X5074705Y-11151174D01*
X5074705Y-11151174D02*
X5055658Y-11160698D01*
X5055658Y-11160698D02*
X5017563Y-11160698D01*
X5017563Y-11160698D02*
X4998515Y-11170222D01*
X4998515Y-11170222D02*
X4988991Y-11179746D01*
X4988991Y-11179746D02*
X4979467Y-11198793D01*
X4979467Y-11198793D02*
X4979467Y-11236888D01*
X4979467Y-11236888D02*
X4988991Y-11255936D01*
X4988991Y-11255936D02*
X4998515Y-11265460D01*
X4998515Y-11265460D02*
X5017563Y-11274984D01*
X5017563Y-11274984D02*
X5055658Y-11274984D01*
X5055658Y-11274984D02*
X5074705Y-11265460D01*
X5074705Y-11265460D02*
X5084229Y-11255936D01*
X5084229Y-11255936D02*
X5093753Y-11236888D01*
X5093753Y-11236888D02*
X5093753Y-11198793D01*
X5093753Y-11198793D02*
X5084229Y-11179746D01*
X5084229Y-11179746D02*
X5074705Y-11170222D01*
X5074705Y-11170222D02*
X5055658Y-11160698D01*
X5217563Y-11074984D02*
X5236610Y-11074984D01*
X5236610Y-11074984D02*
X5255658Y-11084508D01*
X5255658Y-11084508D02*
X5265182Y-11094031D01*
X5265182Y-11094031D02*
X5274705Y-11113079D01*
X5274705Y-11113079D02*
X5284229Y-11151174D01*
X5284229Y-11151174D02*
X5284229Y-11198793D01*
X5284229Y-11198793D02*
X5274705Y-11236888D01*
X5274705Y-11236888D02*
X5265182Y-11255936D01*
X5265182Y-11255936D02*
X5255658Y-11265460D01*
X5255658Y-11265460D02*
X5236610Y-11274984D01*
X5236610Y-11274984D02*
X5217563Y-11274984D01*
X5217563Y-11274984D02*
X5198515Y-11265460D01*
X5198515Y-11265460D02*
X5188991Y-11255936D01*
X5188991Y-11255936D02*
X5179467Y-11236888D01*
X5179467Y-11236888D02*
X5169944Y-11198793D01*
X5169944Y-11198793D02*
X5169944Y-11151174D01*
X5169944Y-11151174D02*
X5179467Y-11113079D01*
X5179467Y-11113079D02*
X5188991Y-11094031D01*
X5188991Y-11094031D02*
X5198515Y-11084508D01*
X5198515Y-11084508D02*
X5217563Y-11074984D01*
X5408039Y-11074984D02*
X5427086Y-11074984D01*
X5427086Y-11074984D02*
X5446134Y-11084508D01*
X5446134Y-11084508D02*
X5455658Y-11094031D01*
X5455658Y-11094031D02*
X5465182Y-11113079D01*
X5465182Y-11113079D02*
X5474705Y-11151174D01*
X5474705Y-11151174D02*
X5474705Y-11198793D01*
X5474705Y-11198793D02*
X5465182Y-11236888D01*
X5465182Y-11236888D02*
X5455658Y-11255936D01*
X5455658Y-11255936D02*
X5446134Y-11265460D01*
X5446134Y-11265460D02*
X5427086Y-11274984D01*
X5427086Y-11274984D02*
X5408039Y-11274984D01*
X5408039Y-11274984D02*
X5388991Y-11265460D01*
X5388991Y-11265460D02*
X5379467Y-11255936D01*
X5379467Y-11255936D02*
X5369944Y-11236888D01*
X5369944Y-11236888D02*
X5360420Y-11198793D01*
X5360420Y-11198793D02*
X5360420Y-11151174D01*
X5360420Y-11151174D02*
X5369944Y-11113079D01*
X5369944Y-11113079D02*
X5379467Y-11094031D01*
X5379467Y-11094031D02*
X5388991Y-11084508D01*
X5388991Y-11084508D02*
X5408039Y-11074984D01*
X5560420Y-11274984D02*
X5560420Y-11141650D01*
X5560420Y-11160698D02*
X5569944Y-11151174D01*
X5569944Y-11151174D02*
X5588991Y-11141650D01*
X5588991Y-11141650D02*
X5617563Y-11141650D01*
X5617563Y-11141650D02*
X5636610Y-11151174D01*
X5636610Y-11151174D02*
X5646134Y-11170222D01*
X5646134Y-11170222D02*
X5646134Y-11274984D01*
X5646134Y-11170222D02*
X5655658Y-11151174D01*
X5655658Y-11151174D02*
X5674705Y-11141650D01*
X5674705Y-11141650D02*
X5703277Y-11141650D01*
X5703277Y-11141650D02*
X5722324Y-11151174D01*
X5722324Y-11151174D02*
X5731848Y-11170222D01*
X5731848Y-11170222D02*
X5731848Y-11274984D01*
X5827086Y-11274984D02*
X5827086Y-11141650D01*
X5827086Y-11160698D02*
X5836610Y-11151174D01*
X5836610Y-11151174D02*
X5855658Y-11141650D01*
X5855658Y-11141650D02*
X5884229Y-11141650D01*
X5884229Y-11141650D02*
X5903277Y-11151174D01*
X5903277Y-11151174D02*
X5912801Y-11170222D01*
X5912801Y-11170222D02*
X5912801Y-11274984D01*
X5912801Y-11170222D02*
X5922324Y-11151174D01*
X5922324Y-11151174D02*
X5941372Y-11141650D01*
X5941372Y-11141650D02*
X5969943Y-11141650D01*
X5969943Y-11141650D02*
X5988991Y-11151174D01*
X5988991Y-11151174D02*
X5998515Y-11170222D01*
X5998515Y-11170222D02*
X5998515Y-11274984D01*
X6388991Y-11065460D02*
X6217563Y-11322603D01*
X6646134Y-11074984D02*
X6665182Y-11074984D01*
X6665182Y-11074984D02*
X6684229Y-11084508D01*
X6684229Y-11084508D02*
X6693753Y-11094031D01*
X6693753Y-11094031D02*
X6703277Y-11113079D01*
X6703277Y-11113079D02*
X6712801Y-11151174D01*
X6712801Y-11151174D02*
X6712801Y-11198793D01*
X6712801Y-11198793D02*
X6703277Y-11236888D01*
X6703277Y-11236888D02*
X6693753Y-11255936D01*
X6693753Y-11255936D02*
X6684229Y-11265460D01*
X6684229Y-11265460D02*
X6665182Y-11274984D01*
X6665182Y-11274984D02*
X6646134Y-11274984D01*
X6646134Y-11274984D02*
X6627086Y-11265460D01*
X6627086Y-11265460D02*
X6617563Y-11255936D01*
X6617563Y-11255936D02*
X6608039Y-11236888D01*
X6608039Y-11236888D02*
X6598515Y-11198793D01*
X6598515Y-11198793D02*
X6598515Y-11151174D01*
X6598515Y-11151174D02*
X6608039Y-11113079D01*
X6608039Y-11113079D02*
X6617563Y-11094031D01*
X6617563Y-11094031D02*
X6627086Y-11084508D01*
X6627086Y-11084508D02*
X6646134Y-11074984D01*
X6798515Y-11255936D02*
X6808039Y-11265460D01*
X6808039Y-11265460D02*
X6798515Y-11274984D01*
X6798515Y-11274984D02*
X6788991Y-11265460D01*
X6788991Y-11265460D02*
X6798515Y-11255936D01*
X6798515Y-11255936D02*
X6798515Y-11274984D01*
X6931848Y-11074984D02*
X6950896Y-11074984D01*
X6950896Y-11074984D02*
X6969944Y-11084508D01*
X6969944Y-11084508D02*
X6979467Y-11094031D01*
X6979467Y-11094031D02*
X6988991Y-11113079D01*
X6988991Y-11113079D02*
X6998515Y-11151174D01*
X6998515Y-11151174D02*
X6998515Y-11198793D01*
X6998515Y-11198793D02*
X6988991Y-11236888D01*
X6988991Y-11236888D02*
X6979467Y-11255936D01*
X6979467Y-11255936D02*
X6969944Y-11265460D01*
X6969944Y-11265460D02*
X6950896Y-11274984D01*
X6950896Y-11274984D02*
X6931848Y-11274984D01*
X6931848Y-11274984D02*
X6912801Y-11265460D01*
X6912801Y-11265460D02*
X6903277Y-11255936D01*
X6903277Y-11255936D02*
X6893753Y-11236888D01*
X6893753Y-11236888D02*
X6884229Y-11198793D01*
X6884229Y-11198793D02*
X6884229Y-11151174D01*
X6884229Y-11151174D02*
X6893753Y-11113079D01*
X6893753Y-11113079D02*
X6903277Y-11094031D01*
X6903277Y-11094031D02*
X6912801Y-11084508D01*
X6912801Y-11084508D02*
X6931848Y-11074984D01*
X7065182Y-11074984D02*
X7198515Y-11074984D01*
X7198515Y-11074984D02*
X7112801Y-11274984D01*
X7312801Y-11074984D02*
X7331848Y-11074984D01*
X7331848Y-11074984D02*
X7350896Y-11084508D01*
X7350896Y-11084508D02*
X7360420Y-11094031D01*
X7360420Y-11094031D02*
X7369944Y-11113079D01*
X7369944Y-11113079D02*
X7379467Y-11151174D01*
X7379467Y-11151174D02*
X7379467Y-11198793D01*
X7379467Y-11198793D02*
X7369944Y-11236888D01*
X7369944Y-11236888D02*
X7360420Y-11255936D01*
X7360420Y-11255936D02*
X7350896Y-11265460D01*
X7350896Y-11265460D02*
X7331848Y-11274984D01*
X7331848Y-11274984D02*
X7312801Y-11274984D01*
X7312801Y-11274984D02*
X7293753Y-11265460D01*
X7293753Y-11265460D02*
X7284229Y-11255936D01*
X7284229Y-11255936D02*
X7274706Y-11236888D01*
X7274706Y-11236888D02*
X7265182Y-11198793D01*
X7265182Y-11198793D02*
X7265182Y-11151174D01*
X7265182Y-11151174D02*
X7274706Y-11113079D01*
X7274706Y-11113079D02*
X7284229Y-11094031D01*
X7284229Y-11094031D02*
X7293753Y-11084508D01*
X7293753Y-11084508D02*
X7312801Y-11074984D01*
X7474706Y-11274984D02*
X7512801Y-11274984D01*
X7512801Y-11274984D02*
X7531848Y-11265460D01*
X7531848Y-11265460D02*
X7541372Y-11255936D01*
X7541372Y-11255936D02*
X7560420Y-11227365D01*
X7560420Y-11227365D02*
X7569944Y-11189269D01*
X7569944Y-11189269D02*
X7569944Y-11113079D01*
X7569944Y-11113079D02*
X7560420Y-11094031D01*
X7560420Y-11094031D02*
X7550896Y-11084508D01*
X7550896Y-11084508D02*
X7531848Y-11074984D01*
X7531848Y-11074984D02*
X7493753Y-11074984D01*
X7493753Y-11074984D02*
X7474706Y-11084508D01*
X7474706Y-11084508D02*
X7465182Y-11094031D01*
X7465182Y-11094031D02*
X7455658Y-11113079D01*
X7455658Y-11113079D02*
X7455658Y-11160698D01*
X7455658Y-11160698D02*
X7465182Y-11179746D01*
X7465182Y-11179746D02*
X7474706Y-11189269D01*
X7474706Y-11189269D02*
X7493753Y-11198793D01*
X7493753Y-11198793D02*
X7531848Y-11198793D01*
X7531848Y-11198793D02*
X7550896Y-11189269D01*
X7550896Y-11189269D02*
X7560420Y-11179746D01*
X7560420Y-11179746D02*
X7569944Y-11160698D01*
X7646134Y-11074984D02*
X7646134Y-11113079D01*
X7722325Y-11074984D02*
X7722325Y-11113079D01*
X8017563Y-11351174D02*
X8008039Y-11341650D01*
X8008039Y-11341650D02*
X7988991Y-11313079D01*
X7988991Y-11313079D02*
X7979468Y-11294031D01*
X7979468Y-11294031D02*
X7969944Y-11265460D01*
X7969944Y-11265460D02*
X7960420Y-11217841D01*
X7960420Y-11217841D02*
X7960420Y-11179746D01*
X7960420Y-11179746D02*
X7969944Y-11132127D01*
X7969944Y-11132127D02*
X7979468Y-11103555D01*
X7979468Y-11103555D02*
X7988991Y-11084508D01*
X7988991Y-11084508D02*
X8008039Y-11055936D01*
X8008039Y-11055936D02*
X8017563Y-11046412D01*
X8131848Y-11074984D02*
X8150896Y-11074984D01*
X8150896Y-11074984D02*
X8169944Y-11084508D01*
X8169944Y-11084508D02*
X8179468Y-11094031D01*
X8179468Y-11094031D02*
X8188991Y-11113079D01*
X8188991Y-11113079D02*
X8198515Y-11151174D01*
X8198515Y-11151174D02*
X8198515Y-11198793D01*
X8198515Y-11198793D02*
X8188991Y-11236888D01*
X8188991Y-11236888D02*
X8179468Y-11255936D01*
X8179468Y-11255936D02*
X8169944Y-11265460D01*
X8169944Y-11265460D02*
X8150896Y-11274984D01*
X8150896Y-11274984D02*
X8131848Y-11274984D01*
X8131848Y-11274984D02*
X8112801Y-11265460D01*
X8112801Y-11265460D02*
X8103277Y-11255936D01*
X8103277Y-11255936D02*
X8093753Y-11236888D01*
X8093753Y-11236888D02*
X8084229Y-11198793D01*
X8084229Y-11198793D02*
X8084229Y-11151174D01*
X8084229Y-11151174D02*
X8093753Y-11113079D01*
X8093753Y-11113079D02*
X8103277Y-11094031D01*
X8103277Y-11094031D02*
X8112801Y-11084508D01*
X8112801Y-11084508D02*
X8131848Y-11074984D01*
X8436611Y-11274984D02*
X8436611Y-11074984D01*
X8522325Y-11274984D02*
X8522325Y-11170222D01*
X8522325Y-11170222D02*
X8512801Y-11151174D01*
X8512801Y-11151174D02*
X8493753Y-11141650D01*
X8493753Y-11141650D02*
X8465182Y-11141650D01*
X8465182Y-11141650D02*
X8446134Y-11151174D01*
X8446134Y-11151174D02*
X8436611Y-11160698D01*
X8646134Y-11274984D02*
X8627087Y-11265460D01*
X8627087Y-11265460D02*
X8617563Y-11255936D01*
X8617563Y-11255936D02*
X8608039Y-11236888D01*
X8608039Y-11236888D02*
X8608039Y-11179746D01*
X8608039Y-11179746D02*
X8617563Y-11160698D01*
X8617563Y-11160698D02*
X8627087Y-11151174D01*
X8627087Y-11151174D02*
X8646134Y-11141650D01*
X8646134Y-11141650D02*
X8674706Y-11141650D01*
X8674706Y-11141650D02*
X8693753Y-11151174D01*
X8693753Y-11151174D02*
X8703277Y-11160698D01*
X8703277Y-11160698D02*
X8712801Y-11179746D01*
X8712801Y-11179746D02*
X8712801Y-11236888D01*
X8712801Y-11236888D02*
X8703277Y-11255936D01*
X8703277Y-11255936D02*
X8693753Y-11265460D01*
X8693753Y-11265460D02*
X8674706Y-11274984D01*
X8674706Y-11274984D02*
X8646134Y-11274984D01*
X8827087Y-11274984D02*
X8808039Y-11265460D01*
X8808039Y-11265460D02*
X8798515Y-11246412D01*
X8798515Y-11246412D02*
X8798515Y-11074984D01*
X8979468Y-11265460D02*
X8960420Y-11274984D01*
X8960420Y-11274984D02*
X8922325Y-11274984D01*
X8922325Y-11274984D02*
X8903277Y-11265460D01*
X8903277Y-11265460D02*
X8893753Y-11246412D01*
X8893753Y-11246412D02*
X8893753Y-11170222D01*
X8893753Y-11170222D02*
X8903277Y-11151174D01*
X8903277Y-11151174D02*
X8922325Y-11141650D01*
X8922325Y-11141650D02*
X8960420Y-11141650D01*
X8960420Y-11141650D02*
X8979468Y-11151174D01*
X8979468Y-11151174D02*
X8988992Y-11170222D01*
X8988992Y-11170222D02*
X8988992Y-11189269D01*
X8988992Y-11189269D02*
X8893753Y-11208317D01*
X9065182Y-11265460D02*
X9084230Y-11274984D01*
X9084230Y-11274984D02*
X9122325Y-11274984D01*
X9122325Y-11274984D02*
X9141373Y-11265460D01*
X9141373Y-11265460D02*
X9150896Y-11246412D01*
X9150896Y-11246412D02*
X9150896Y-11236888D01*
X9150896Y-11236888D02*
X9141373Y-11217841D01*
X9141373Y-11217841D02*
X9122325Y-11208317D01*
X9122325Y-11208317D02*
X9093753Y-11208317D01*
X9093753Y-11208317D02*
X9074706Y-11198793D01*
X9074706Y-11198793D02*
X9065182Y-11179746D01*
X9065182Y-11179746D02*
X9065182Y-11170222D01*
X9065182Y-11170222D02*
X9074706Y-11151174D01*
X9074706Y-11151174D02*
X9093753Y-11141650D01*
X9093753Y-11141650D02*
X9122325Y-11141650D01*
X9122325Y-11141650D02*
X9141373Y-11151174D01*
X9388992Y-11198793D02*
X9541373Y-11198793D01*
X9465182Y-11274984D02*
X9465182Y-11122603D01*
X9874706Y-11141650D02*
X9874706Y-11274984D01*
X9827087Y-11065460D02*
X9779468Y-11208317D01*
X9779468Y-11208317D02*
X9903277Y-11208317D01*
X10122325Y-11265460D02*
X10141373Y-11274984D01*
X10141373Y-11274984D02*
X10179468Y-11274984D01*
X10179468Y-11274984D02*
X10198516Y-11265460D01*
X10198516Y-11265460D02*
X10208039Y-11246412D01*
X10208039Y-11246412D02*
X10208039Y-11236888D01*
X10208039Y-11236888D02*
X10198516Y-11217841D01*
X10198516Y-11217841D02*
X10179468Y-11208317D01*
X10179468Y-11208317D02*
X10150896Y-11208317D01*
X10150896Y-11208317D02*
X10131849Y-11198793D01*
X10131849Y-11198793D02*
X10122325Y-11179746D01*
X10122325Y-11179746D02*
X10122325Y-11170222D01*
X10122325Y-11170222D02*
X10131849Y-11151174D01*
X10131849Y-11151174D02*
X10150896Y-11141650D01*
X10150896Y-11141650D02*
X10179468Y-11141650D01*
X10179468Y-11141650D02*
X10198516Y-11151174D01*
X10322325Y-11274984D02*
X10303277Y-11265460D01*
X10303277Y-11265460D02*
X10293754Y-11246412D01*
X10293754Y-11246412D02*
X10293754Y-11074984D01*
X10427087Y-11274984D02*
X10408039Y-11265460D01*
X10408039Y-11265460D02*
X10398516Y-11255936D01*
X10398516Y-11255936D02*
X10388992Y-11236888D01*
X10388992Y-11236888D02*
X10388992Y-11179746D01*
X10388992Y-11179746D02*
X10398516Y-11160698D01*
X10398516Y-11160698D02*
X10408039Y-11151174D01*
X10408039Y-11151174D02*
X10427087Y-11141650D01*
X10427087Y-11141650D02*
X10455658Y-11141650D01*
X10455658Y-11141650D02*
X10474706Y-11151174D01*
X10474706Y-11151174D02*
X10484230Y-11160698D01*
X10484230Y-11160698D02*
X10493754Y-11179746D01*
X10493754Y-11179746D02*
X10493754Y-11236888D01*
X10493754Y-11236888D02*
X10484230Y-11255936D01*
X10484230Y-11255936D02*
X10474706Y-11265460D01*
X10474706Y-11265460D02*
X10455658Y-11274984D01*
X10455658Y-11274984D02*
X10427087Y-11274984D01*
X10550897Y-11141650D02*
X10627087Y-11141650D01*
X10579468Y-11074984D02*
X10579468Y-11246412D01*
X10579468Y-11246412D02*
X10588992Y-11265460D01*
X10588992Y-11265460D02*
X10608039Y-11274984D01*
X10608039Y-11274984D02*
X10627087Y-11274984D01*
X10684230Y-11265460D02*
X10703277Y-11274984D01*
X10703277Y-11274984D02*
X10741373Y-11274984D01*
X10741373Y-11274984D02*
X10760420Y-11265460D01*
X10760420Y-11265460D02*
X10769944Y-11246412D01*
X10769944Y-11246412D02*
X10769944Y-11236888D01*
X10769944Y-11236888D02*
X10760420Y-11217841D01*
X10760420Y-11217841D02*
X10741373Y-11208317D01*
X10741373Y-11208317D02*
X10712801Y-11208317D01*
X10712801Y-11208317D02*
X10693754Y-11198793D01*
X10693754Y-11198793D02*
X10684230Y-11179746D01*
X10684230Y-11179746D02*
X10684230Y-11170222D01*
X10684230Y-11170222D02*
X10693754Y-11151174D01*
X10693754Y-11151174D02*
X10712801Y-11141650D01*
X10712801Y-11141650D02*
X10741373Y-11141650D01*
X10741373Y-11141650D02*
X10760420Y-11151174D01*
X10836611Y-11351174D02*
X10846135Y-11341650D01*
X10846135Y-11341650D02*
X10865182Y-11313079D01*
X10865182Y-11313079D02*
X10874706Y-11294031D01*
X10874706Y-11294031D02*
X10884230Y-11265460D01*
X10884230Y-11265460D02*
X10893754Y-11217841D01*
X10893754Y-11217841D02*
X10893754Y-11179746D01*
X10893754Y-11179746D02*
X10884230Y-11132127D01*
X10884230Y-11132127D02*
X10874706Y-11103555D01*
X10874706Y-11103555D02*
X10865182Y-11084508D01*
X10865182Y-11084508D02*
X10846135Y-11055936D01*
X10846135Y-11055936D02*
X10836611Y-11046412D01*
X11198516Y-11351174D02*
X11188992Y-11341650D01*
X11188992Y-11341650D02*
X11169944Y-11313079D01*
X11169944Y-11313079D02*
X11160420Y-11294031D01*
X11160420Y-11294031D02*
X11150897Y-11265460D01*
X11150897Y-11265460D02*
X11141373Y-11217841D01*
X11141373Y-11217841D02*
X11141373Y-11179746D01*
X11141373Y-11179746D02*
X11150897Y-11132127D01*
X11150897Y-11132127D02*
X11160420Y-11103555D01*
X11160420Y-11103555D02*
X11169944Y-11084508D01*
X11169944Y-11084508D02*
X11188992Y-11055936D01*
X11188992Y-11055936D02*
X11198516Y-11046412D01*
X11274706Y-11141650D02*
X11274706Y-11274984D01*
X11274706Y-11160698D02*
X11284230Y-11151174D01*
X11284230Y-11151174D02*
X11303277Y-11141650D01*
X11303277Y-11141650D02*
X11331849Y-11141650D01*
X11331849Y-11141650D02*
X11350896Y-11151174D01*
X11350896Y-11151174D02*
X11360420Y-11170222D01*
X11360420Y-11170222D02*
X11360420Y-11274984D01*
X11484230Y-11274984D02*
X11465182Y-11265460D01*
X11465182Y-11265460D02*
X11455658Y-11255936D01*
X11455658Y-11255936D02*
X11446135Y-11236888D01*
X11446135Y-11236888D02*
X11446135Y-11179746D01*
X11446135Y-11179746D02*
X11455658Y-11160698D01*
X11455658Y-11160698D02*
X11465182Y-11151174D01*
X11465182Y-11151174D02*
X11484230Y-11141650D01*
X11484230Y-11141650D02*
X11512801Y-11141650D01*
X11512801Y-11141650D02*
X11531849Y-11151174D01*
X11531849Y-11151174D02*
X11541373Y-11160698D01*
X11541373Y-11160698D02*
X11550896Y-11179746D01*
X11550896Y-11179746D02*
X11550896Y-11236888D01*
X11550896Y-11236888D02*
X11541373Y-11255936D01*
X11541373Y-11255936D02*
X11531849Y-11265460D01*
X11531849Y-11265460D02*
X11512801Y-11274984D01*
X11512801Y-11274984D02*
X11484230Y-11274984D01*
X11608039Y-11141650D02*
X11684230Y-11141650D01*
X11636611Y-11074984D02*
X11636611Y-11246412D01*
X11636611Y-11246412D02*
X11646135Y-11265460D01*
X11646135Y-11265460D02*
X11665182Y-11274984D01*
X11665182Y-11274984D02*
X11684230Y-11274984D01*
X11903277Y-11141650D02*
X11903277Y-11341650D01*
X11903277Y-11151174D02*
X11922325Y-11141650D01*
X11922325Y-11141650D02*
X11960420Y-11141650D01*
X11960420Y-11141650D02*
X11979468Y-11151174D01*
X11979468Y-11151174D02*
X11988992Y-11160698D01*
X11988992Y-11160698D02*
X11998516Y-11179746D01*
X11998516Y-11179746D02*
X11998516Y-11236888D01*
X11998516Y-11236888D02*
X11988992Y-11255936D01*
X11988992Y-11255936D02*
X11979468Y-11265460D01*
X11979468Y-11265460D02*
X11960420Y-11274984D01*
X11960420Y-11274984D02*
X11922325Y-11274984D01*
X11922325Y-11274984D02*
X11903277Y-11265460D01*
X12112801Y-11274984D02*
X12093754Y-11265460D01*
X12093754Y-11265460D02*
X12084230Y-11246412D01*
X12084230Y-11246412D02*
X12084230Y-11074984D01*
X12274706Y-11274984D02*
X12274706Y-11170222D01*
X12274706Y-11170222D02*
X12265182Y-11151174D01*
X12265182Y-11151174D02*
X12246135Y-11141650D01*
X12246135Y-11141650D02*
X12208039Y-11141650D01*
X12208039Y-11141650D02*
X12188992Y-11151174D01*
X12274706Y-11265460D02*
X12255658Y-11274984D01*
X12255658Y-11274984D02*
X12208039Y-11274984D01*
X12208039Y-11274984D02*
X12188992Y-11265460D01*
X12188992Y-11265460D02*
X12179468Y-11246412D01*
X12179468Y-11246412D02*
X12179468Y-11227365D01*
X12179468Y-11227365D02*
X12188992Y-11208317D01*
X12188992Y-11208317D02*
X12208039Y-11198793D01*
X12208039Y-11198793D02*
X12255658Y-11198793D01*
X12255658Y-11198793D02*
X12274706Y-11189269D01*
X12341373Y-11141650D02*
X12417563Y-11141650D01*
X12369944Y-11074984D02*
X12369944Y-11246412D01*
X12369944Y-11246412D02*
X12379468Y-11265460D01*
X12379468Y-11265460D02*
X12398516Y-11274984D01*
X12398516Y-11274984D02*
X12417563Y-11274984D01*
X12560420Y-11265460D02*
X12541373Y-11274984D01*
X12541373Y-11274984D02*
X12503277Y-11274984D01*
X12503277Y-11274984D02*
X12484230Y-11265460D01*
X12484230Y-11265460D02*
X12474706Y-11246412D01*
X12474706Y-11246412D02*
X12474706Y-11170222D01*
X12474706Y-11170222D02*
X12484230Y-11151174D01*
X12484230Y-11151174D02*
X12503277Y-11141650D01*
X12503277Y-11141650D02*
X12541373Y-11141650D01*
X12541373Y-11141650D02*
X12560420Y-11151174D01*
X12560420Y-11151174D02*
X12569944Y-11170222D01*
X12569944Y-11170222D02*
X12569944Y-11189269D01*
X12569944Y-11189269D02*
X12474706Y-11208317D01*
X12741373Y-11274984D02*
X12741373Y-11074984D01*
X12741373Y-11265460D02*
X12722325Y-11274984D01*
X12722325Y-11274984D02*
X12684230Y-11274984D01*
X12684230Y-11274984D02*
X12665182Y-11265460D01*
X12665182Y-11265460D02*
X12655658Y-11255936D01*
X12655658Y-11255936D02*
X12646135Y-11236888D01*
X12646135Y-11236888D02*
X12646135Y-11179746D01*
X12646135Y-11179746D02*
X12655658Y-11160698D01*
X12655658Y-11160698D02*
X12665182Y-11151174D01*
X12665182Y-11151174D02*
X12684230Y-11141650D01*
X12684230Y-11141650D02*
X12722325Y-11141650D01*
X12722325Y-11141650D02*
X12741373Y-11151174D01*
X12817563Y-11351174D02*
X12827087Y-11341650D01*
X12827087Y-11341650D02*
X12846135Y-11313079D01*
X12846135Y-11313079D02*
X12855658Y-11294031D01*
X12855658Y-11294031D02*
X12865182Y-11265460D01*
X12865182Y-11265460D02*
X12874706Y-11217841D01*
X12874706Y-11217841D02*
X12874706Y-11179746D01*
X12874706Y-11179746D02*
X12865182Y-11132127D01*
X12865182Y-11132127D02*
X12855658Y-11103555D01*
X12855658Y-11103555D02*
X12846135Y-11084508D01*
X12846135Y-11084508D02*
X12827087Y-11055936D01*
X12827087Y-11055936D02*
X12817563Y-11046412D01*
X4442500Y-11483500D02*
G75*
G02*
X4242500Y-11483500I-100000J0D01*
G01*
X4242500Y-11483500D02*
G75*
G02*
X4442500Y-11483500I100000J0D01*
G01*
X4684229Y-11374984D02*
X4808039Y-11374984D01*
X4808039Y-11374984D02*
X4741372Y-11451174D01*
X4741372Y-11451174D02*
X4769944Y-11451174D01*
X4769944Y-11451174D02*
X4788991Y-11460698D01*
X4788991Y-11460698D02*
X4798515Y-11470222D01*
X4798515Y-11470222D02*
X4808039Y-11489269D01*
X4808039Y-11489269D02*
X4808039Y-11536888D01*
X4808039Y-11536888D02*
X4798515Y-11555936D01*
X4798515Y-11555936D02*
X4788991Y-11565460D01*
X4788991Y-11565460D02*
X4769944Y-11574984D01*
X4769944Y-11574984D02*
X4712801Y-11574984D01*
X4712801Y-11574984D02*
X4693753Y-11565460D01*
X4693753Y-11565460D02*
X4684229Y-11555936D01*
X4893753Y-11555936D02*
X4903277Y-11565460D01*
X4903277Y-11565460D02*
X4893753Y-11574984D01*
X4893753Y-11574984D02*
X4884229Y-11565460D01*
X4884229Y-11565460D02*
X4893753Y-11555936D01*
X4893753Y-11555936D02*
X4893753Y-11574984D01*
X4979467Y-11394031D02*
X4988991Y-11384508D01*
X4988991Y-11384508D02*
X5008039Y-11374984D01*
X5008039Y-11374984D02*
X5055658Y-11374984D01*
X5055658Y-11374984D02*
X5074705Y-11384508D01*
X5074705Y-11384508D02*
X5084229Y-11394031D01*
X5084229Y-11394031D02*
X5093753Y-11413079D01*
X5093753Y-11413079D02*
X5093753Y-11432127D01*
X5093753Y-11432127D02*
X5084229Y-11460698D01*
X5084229Y-11460698D02*
X4969944Y-11574984D01*
X4969944Y-11574984D02*
X5093753Y-11574984D01*
X5217563Y-11374984D02*
X5236610Y-11374984D01*
X5236610Y-11374984D02*
X5255658Y-11384508D01*
X5255658Y-11384508D02*
X5265182Y-11394031D01*
X5265182Y-11394031D02*
X5274705Y-11413079D01*
X5274705Y-11413079D02*
X5284229Y-11451174D01*
X5284229Y-11451174D02*
X5284229Y-11498793D01*
X5284229Y-11498793D02*
X5274705Y-11536888D01*
X5274705Y-11536888D02*
X5265182Y-11555936D01*
X5265182Y-11555936D02*
X5255658Y-11565460D01*
X5255658Y-11565460D02*
X5236610Y-11574984D01*
X5236610Y-11574984D02*
X5217563Y-11574984D01*
X5217563Y-11574984D02*
X5198515Y-11565460D01*
X5198515Y-11565460D02*
X5188991Y-11555936D01*
X5188991Y-11555936D02*
X5179467Y-11536888D01*
X5179467Y-11536888D02*
X5169944Y-11498793D01*
X5169944Y-11498793D02*
X5169944Y-11451174D01*
X5169944Y-11451174D02*
X5179467Y-11413079D01*
X5179467Y-11413079D02*
X5188991Y-11394031D01*
X5188991Y-11394031D02*
X5198515Y-11384508D01*
X5198515Y-11384508D02*
X5217563Y-11374984D01*
X5408039Y-11374984D02*
X5427086Y-11374984D01*
X5427086Y-11374984D02*
X5446134Y-11384508D01*
X5446134Y-11384508D02*
X5455658Y-11394031D01*
X5455658Y-11394031D02*
X5465182Y-11413079D01*
X5465182Y-11413079D02*
X5474705Y-11451174D01*
X5474705Y-11451174D02*
X5474705Y-11498793D01*
X5474705Y-11498793D02*
X5465182Y-11536888D01*
X5465182Y-11536888D02*
X5455658Y-11555936D01*
X5455658Y-11555936D02*
X5446134Y-11565460D01*
X5446134Y-11565460D02*
X5427086Y-11574984D01*
X5427086Y-11574984D02*
X5408039Y-11574984D01*
X5408039Y-11574984D02*
X5388991Y-11565460D01*
X5388991Y-11565460D02*
X5379467Y-11555936D01*
X5379467Y-11555936D02*
X5369944Y-11536888D01*
X5369944Y-11536888D02*
X5360420Y-11498793D01*
X5360420Y-11498793D02*
X5360420Y-11451174D01*
X5360420Y-11451174D02*
X5369944Y-11413079D01*
X5369944Y-11413079D02*
X5379467Y-11394031D01*
X5379467Y-11394031D02*
X5388991Y-11384508D01*
X5388991Y-11384508D02*
X5408039Y-11374984D01*
X5560420Y-11574984D02*
X5560420Y-11441650D01*
X5560420Y-11460698D02*
X5569944Y-11451174D01*
X5569944Y-11451174D02*
X5588991Y-11441650D01*
X5588991Y-11441650D02*
X5617563Y-11441650D01*
X5617563Y-11441650D02*
X5636610Y-11451174D01*
X5636610Y-11451174D02*
X5646134Y-11470222D01*
X5646134Y-11470222D02*
X5646134Y-11574984D01*
X5646134Y-11470222D02*
X5655658Y-11451174D01*
X5655658Y-11451174D02*
X5674705Y-11441650D01*
X5674705Y-11441650D02*
X5703277Y-11441650D01*
X5703277Y-11441650D02*
X5722324Y-11451174D01*
X5722324Y-11451174D02*
X5731848Y-11470222D01*
X5731848Y-11470222D02*
X5731848Y-11574984D01*
X5827086Y-11574984D02*
X5827086Y-11441650D01*
X5827086Y-11460698D02*
X5836610Y-11451174D01*
X5836610Y-11451174D02*
X5855658Y-11441650D01*
X5855658Y-11441650D02*
X5884229Y-11441650D01*
X5884229Y-11441650D02*
X5903277Y-11451174D01*
X5903277Y-11451174D02*
X5912801Y-11470222D01*
X5912801Y-11470222D02*
X5912801Y-11574984D01*
X5912801Y-11470222D02*
X5922324Y-11451174D01*
X5922324Y-11451174D02*
X5941372Y-11441650D01*
X5941372Y-11441650D02*
X5969943Y-11441650D01*
X5969943Y-11441650D02*
X5988991Y-11451174D01*
X5988991Y-11451174D02*
X5998515Y-11470222D01*
X5998515Y-11470222D02*
X5998515Y-11574984D01*
X6388991Y-11365460D02*
X6217563Y-11622603D01*
X6646134Y-11374984D02*
X6665182Y-11374984D01*
X6665182Y-11374984D02*
X6684229Y-11384508D01*
X6684229Y-11384508D02*
X6693753Y-11394031D01*
X6693753Y-11394031D02*
X6703277Y-11413079D01*
X6703277Y-11413079D02*
X6712801Y-11451174D01*
X6712801Y-11451174D02*
X6712801Y-11498793D01*
X6712801Y-11498793D02*
X6703277Y-11536888D01*
X6703277Y-11536888D02*
X6693753Y-11555936D01*
X6693753Y-11555936D02*
X6684229Y-11565460D01*
X6684229Y-11565460D02*
X6665182Y-11574984D01*
X6665182Y-11574984D02*
X6646134Y-11574984D01*
X6646134Y-11574984D02*
X6627086Y-11565460D01*
X6627086Y-11565460D02*
X6617563Y-11555936D01*
X6617563Y-11555936D02*
X6608039Y-11536888D01*
X6608039Y-11536888D02*
X6598515Y-11498793D01*
X6598515Y-11498793D02*
X6598515Y-11451174D01*
X6598515Y-11451174D02*
X6608039Y-11413079D01*
X6608039Y-11413079D02*
X6617563Y-11394031D01*
X6617563Y-11394031D02*
X6627086Y-11384508D01*
X6627086Y-11384508D02*
X6646134Y-11374984D01*
X6798515Y-11555936D02*
X6808039Y-11565460D01*
X6808039Y-11565460D02*
X6798515Y-11574984D01*
X6798515Y-11574984D02*
X6788991Y-11565460D01*
X6788991Y-11565460D02*
X6798515Y-11555936D01*
X6798515Y-11555936D02*
X6798515Y-11574984D01*
X6998515Y-11574984D02*
X6884229Y-11574984D01*
X6941372Y-11574984D02*
X6941372Y-11374984D01*
X6941372Y-11374984D02*
X6922325Y-11403555D01*
X6922325Y-11403555D02*
X6903277Y-11422603D01*
X6903277Y-11422603D02*
X6884229Y-11432127D01*
X7074706Y-11394031D02*
X7084229Y-11384508D01*
X7084229Y-11384508D02*
X7103277Y-11374984D01*
X7103277Y-11374984D02*
X7150896Y-11374984D01*
X7150896Y-11374984D02*
X7169944Y-11384508D01*
X7169944Y-11384508D02*
X7179467Y-11394031D01*
X7179467Y-11394031D02*
X7188991Y-11413079D01*
X7188991Y-11413079D02*
X7188991Y-11432127D01*
X7188991Y-11432127D02*
X7179467Y-11460698D01*
X7179467Y-11460698D02*
X7065182Y-11574984D01*
X7065182Y-11574984D02*
X7188991Y-11574984D01*
X7360420Y-11374984D02*
X7322325Y-11374984D01*
X7322325Y-11374984D02*
X7303277Y-11384508D01*
X7303277Y-11384508D02*
X7293753Y-11394031D01*
X7293753Y-11394031D02*
X7274706Y-11422603D01*
X7274706Y-11422603D02*
X7265182Y-11460698D01*
X7265182Y-11460698D02*
X7265182Y-11536888D01*
X7265182Y-11536888D02*
X7274706Y-11555936D01*
X7274706Y-11555936D02*
X7284229Y-11565460D01*
X7284229Y-11565460D02*
X7303277Y-11574984D01*
X7303277Y-11574984D02*
X7341372Y-11574984D01*
X7341372Y-11574984D02*
X7360420Y-11565460D01*
X7360420Y-11565460D02*
X7369944Y-11555936D01*
X7369944Y-11555936D02*
X7379467Y-11536888D01*
X7379467Y-11536888D02*
X7379467Y-11489269D01*
X7379467Y-11489269D02*
X7369944Y-11470222D01*
X7369944Y-11470222D02*
X7360420Y-11460698D01*
X7360420Y-11460698D02*
X7341372Y-11451174D01*
X7341372Y-11451174D02*
X7303277Y-11451174D01*
X7303277Y-11451174D02*
X7284229Y-11460698D01*
X7284229Y-11460698D02*
X7274706Y-11470222D01*
X7274706Y-11470222D02*
X7265182Y-11489269D01*
X7503277Y-11374984D02*
X7522325Y-11374984D01*
X7522325Y-11374984D02*
X7541372Y-11384508D01*
X7541372Y-11384508D02*
X7550896Y-11394031D01*
X7550896Y-11394031D02*
X7560420Y-11413079D01*
X7560420Y-11413079D02*
X7569944Y-11451174D01*
X7569944Y-11451174D02*
X7569944Y-11498793D01*
X7569944Y-11498793D02*
X7560420Y-11536888D01*
X7560420Y-11536888D02*
X7550896Y-11555936D01*
X7550896Y-11555936D02*
X7541372Y-11565460D01*
X7541372Y-11565460D02*
X7522325Y-11574984D01*
X7522325Y-11574984D02*
X7503277Y-11574984D01*
X7503277Y-11574984D02*
X7484229Y-11565460D01*
X7484229Y-11565460D02*
X7474706Y-11555936D01*
X7474706Y-11555936D02*
X7465182Y-11536888D01*
X7465182Y-11536888D02*
X7455658Y-11498793D01*
X7455658Y-11498793D02*
X7455658Y-11451174D01*
X7455658Y-11451174D02*
X7465182Y-11413079D01*
X7465182Y-11413079D02*
X7474706Y-11394031D01*
X7474706Y-11394031D02*
X7484229Y-11384508D01*
X7484229Y-11384508D02*
X7503277Y-11374984D01*
X7646134Y-11374984D02*
X7646134Y-11413079D01*
X7722325Y-11374984D02*
X7722325Y-11413079D01*
X8017563Y-11651174D02*
X8008039Y-11641650D01*
X8008039Y-11641650D02*
X7988991Y-11613079D01*
X7988991Y-11613079D02*
X7979468Y-11594031D01*
X7979468Y-11594031D02*
X7969944Y-11565460D01*
X7969944Y-11565460D02*
X7960420Y-11517841D01*
X7960420Y-11517841D02*
X7960420Y-11479746D01*
X7960420Y-11479746D02*
X7969944Y-11432127D01*
X7969944Y-11432127D02*
X7979468Y-11403555D01*
X7979468Y-11403555D02*
X7988991Y-11384508D01*
X7988991Y-11384508D02*
X8008039Y-11355936D01*
X8008039Y-11355936D02*
X8017563Y-11346412D01*
X8084229Y-11394031D02*
X8093753Y-11384508D01*
X8093753Y-11384508D02*
X8112801Y-11374984D01*
X8112801Y-11374984D02*
X8160420Y-11374984D01*
X8160420Y-11374984D02*
X8179468Y-11384508D01*
X8179468Y-11384508D02*
X8188991Y-11394031D01*
X8188991Y-11394031D02*
X8198515Y-11413079D01*
X8198515Y-11413079D02*
X8198515Y-11432127D01*
X8198515Y-11432127D02*
X8188991Y-11460698D01*
X8188991Y-11460698D02*
X8074706Y-11574984D01*
X8074706Y-11574984D02*
X8198515Y-11574984D01*
X8436611Y-11574984D02*
X8436611Y-11374984D01*
X8522325Y-11574984D02*
X8522325Y-11470222D01*
X8522325Y-11470222D02*
X8512801Y-11451174D01*
X8512801Y-11451174D02*
X8493753Y-11441650D01*
X8493753Y-11441650D02*
X8465182Y-11441650D01*
X8465182Y-11441650D02*
X8446134Y-11451174D01*
X8446134Y-11451174D02*
X8436611Y-11460698D01*
X8646134Y-11574984D02*
X8627087Y-11565460D01*
X8627087Y-11565460D02*
X8617563Y-11555936D01*
X8617563Y-11555936D02*
X8608039Y-11536888D01*
X8608039Y-11536888D02*
X8608039Y-11479746D01*
X8608039Y-11479746D02*
X8617563Y-11460698D01*
X8617563Y-11460698D02*
X8627087Y-11451174D01*
X8627087Y-11451174D02*
X8646134Y-11441650D01*
X8646134Y-11441650D02*
X8674706Y-11441650D01*
X8674706Y-11441650D02*
X8693753Y-11451174D01*
X8693753Y-11451174D02*
X8703277Y-11460698D01*
X8703277Y-11460698D02*
X8712801Y-11479746D01*
X8712801Y-11479746D02*
X8712801Y-11536888D01*
X8712801Y-11536888D02*
X8703277Y-11555936D01*
X8703277Y-11555936D02*
X8693753Y-11565460D01*
X8693753Y-11565460D02*
X8674706Y-11574984D01*
X8674706Y-11574984D02*
X8646134Y-11574984D01*
X8827087Y-11574984D02*
X8808039Y-11565460D01*
X8808039Y-11565460D02*
X8798515Y-11546412D01*
X8798515Y-11546412D02*
X8798515Y-11374984D01*
X8979468Y-11565460D02*
X8960420Y-11574984D01*
X8960420Y-11574984D02*
X8922325Y-11574984D01*
X8922325Y-11574984D02*
X8903277Y-11565460D01*
X8903277Y-11565460D02*
X8893753Y-11546412D01*
X8893753Y-11546412D02*
X8893753Y-11470222D01*
X8893753Y-11470222D02*
X8903277Y-11451174D01*
X8903277Y-11451174D02*
X8922325Y-11441650D01*
X8922325Y-11441650D02*
X8960420Y-11441650D01*
X8960420Y-11441650D02*
X8979468Y-11451174D01*
X8979468Y-11451174D02*
X8988992Y-11470222D01*
X8988992Y-11470222D02*
X8988992Y-11489269D01*
X8988992Y-11489269D02*
X8893753Y-11508317D01*
X9065182Y-11565460D02*
X9084230Y-11574984D01*
X9084230Y-11574984D02*
X9122325Y-11574984D01*
X9122325Y-11574984D02*
X9141373Y-11565460D01*
X9141373Y-11565460D02*
X9150896Y-11546412D01*
X9150896Y-11546412D02*
X9150896Y-11536888D01*
X9150896Y-11536888D02*
X9141373Y-11517841D01*
X9141373Y-11517841D02*
X9122325Y-11508317D01*
X9122325Y-11508317D02*
X9093753Y-11508317D01*
X9093753Y-11508317D02*
X9074706Y-11498793D01*
X9074706Y-11498793D02*
X9065182Y-11479746D01*
X9065182Y-11479746D02*
X9065182Y-11470222D01*
X9065182Y-11470222D02*
X9074706Y-11451174D01*
X9074706Y-11451174D02*
X9093753Y-11441650D01*
X9093753Y-11441650D02*
X9122325Y-11441650D01*
X9122325Y-11441650D02*
X9141373Y-11451174D01*
X9217563Y-11651174D02*
X9227087Y-11641650D01*
X9227087Y-11641650D02*
X9246134Y-11613079D01*
X9246134Y-11613079D02*
X9255658Y-11594031D01*
X9255658Y-11594031D02*
X9265182Y-11565460D01*
X9265182Y-11565460D02*
X9274706Y-11517841D01*
X9274706Y-11517841D02*
X9274706Y-11479746D01*
X9274706Y-11479746D02*
X9265182Y-11432127D01*
X9265182Y-11432127D02*
X9255658Y-11403555D01*
X9255658Y-11403555D02*
X9246134Y-11384508D01*
X9246134Y-11384508D02*
X9227087Y-11355936D01*
X9227087Y-11355936D02*
X9217563Y-11346412D01*
X9579468Y-11651174D02*
X9569944Y-11641650D01*
X9569944Y-11641650D02*
X9550896Y-11613079D01*
X9550896Y-11613079D02*
X9541373Y-11594031D01*
X9541373Y-11594031D02*
X9531849Y-11565460D01*
X9531849Y-11565460D02*
X9522325Y-11517841D01*
X9522325Y-11517841D02*
X9522325Y-11479746D01*
X9522325Y-11479746D02*
X9531849Y-11432127D01*
X9531849Y-11432127D02*
X9541373Y-11403555D01*
X9541373Y-11403555D02*
X9550896Y-11384508D01*
X9550896Y-11384508D02*
X9569944Y-11355936D01*
X9569944Y-11355936D02*
X9579468Y-11346412D01*
X9655658Y-11441650D02*
X9655658Y-11574984D01*
X9655658Y-11460698D02*
X9665182Y-11451174D01*
X9665182Y-11451174D02*
X9684230Y-11441650D01*
X9684230Y-11441650D02*
X9712801Y-11441650D01*
X9712801Y-11441650D02*
X9731849Y-11451174D01*
X9731849Y-11451174D02*
X9741373Y-11470222D01*
X9741373Y-11470222D02*
X9741373Y-11574984D01*
X9865182Y-11574984D02*
X9846134Y-11565460D01*
X9846134Y-11565460D02*
X9836611Y-11555936D01*
X9836611Y-11555936D02*
X9827087Y-11536888D01*
X9827087Y-11536888D02*
X9827087Y-11479746D01*
X9827087Y-11479746D02*
X9836611Y-11460698D01*
X9836611Y-11460698D02*
X9846134Y-11451174D01*
X9846134Y-11451174D02*
X9865182Y-11441650D01*
X9865182Y-11441650D02*
X9893754Y-11441650D01*
X9893754Y-11441650D02*
X9912801Y-11451174D01*
X9912801Y-11451174D02*
X9922325Y-11460698D01*
X9922325Y-11460698D02*
X9931849Y-11479746D01*
X9931849Y-11479746D02*
X9931849Y-11536888D01*
X9931849Y-11536888D02*
X9922325Y-11555936D01*
X9922325Y-11555936D02*
X9912801Y-11565460D01*
X9912801Y-11565460D02*
X9893754Y-11574984D01*
X9893754Y-11574984D02*
X9865182Y-11574984D01*
X9988992Y-11441650D02*
X10065182Y-11441650D01*
X10017563Y-11374984D02*
X10017563Y-11546412D01*
X10017563Y-11546412D02*
X10027087Y-11565460D01*
X10027087Y-11565460D02*
X10046134Y-11574984D01*
X10046134Y-11574984D02*
X10065182Y-11574984D01*
X10284230Y-11441650D02*
X10284230Y-11641650D01*
X10284230Y-11451174D02*
X10303277Y-11441650D01*
X10303277Y-11441650D02*
X10341373Y-11441650D01*
X10341373Y-11441650D02*
X10360420Y-11451174D01*
X10360420Y-11451174D02*
X10369944Y-11460698D01*
X10369944Y-11460698D02*
X10379468Y-11479746D01*
X10379468Y-11479746D02*
X10379468Y-11536888D01*
X10379468Y-11536888D02*
X10369944Y-11555936D01*
X10369944Y-11555936D02*
X10360420Y-11565460D01*
X10360420Y-11565460D02*
X10341373Y-11574984D01*
X10341373Y-11574984D02*
X10303277Y-11574984D01*
X10303277Y-11574984D02*
X10284230Y-11565460D01*
X10493754Y-11574984D02*
X10474706Y-11565460D01*
X10474706Y-11565460D02*
X10465182Y-11546412D01*
X10465182Y-11546412D02*
X10465182Y-11374984D01*
X10655658Y-11574984D02*
X10655658Y-11470222D01*
X10655658Y-11470222D02*
X10646135Y-11451174D01*
X10646135Y-11451174D02*
X10627087Y-11441650D01*
X10627087Y-11441650D02*
X10588992Y-11441650D01*
X10588992Y-11441650D02*
X10569944Y-11451174D01*
X10655658Y-11565460D02*
X10636611Y-11574984D01*
X10636611Y-11574984D02*
X10588992Y-11574984D01*
X10588992Y-11574984D02*
X10569944Y-11565460D01*
X10569944Y-11565460D02*
X10560420Y-11546412D01*
X10560420Y-11546412D02*
X10560420Y-11527365D01*
X10560420Y-11527365D02*
X10569944Y-11508317D01*
X10569944Y-11508317D02*
X10588992Y-11498793D01*
X10588992Y-11498793D02*
X10636611Y-11498793D01*
X10636611Y-11498793D02*
X10655658Y-11489269D01*
X10722325Y-11441650D02*
X10798515Y-11441650D01*
X10750896Y-11374984D02*
X10750896Y-11546412D01*
X10750896Y-11546412D02*
X10760420Y-11565460D01*
X10760420Y-11565460D02*
X10779468Y-11574984D01*
X10779468Y-11574984D02*
X10798515Y-11574984D01*
X10941373Y-11565460D02*
X10922325Y-11574984D01*
X10922325Y-11574984D02*
X10884230Y-11574984D01*
X10884230Y-11574984D02*
X10865182Y-11565460D01*
X10865182Y-11565460D02*
X10855658Y-11546412D01*
X10855658Y-11546412D02*
X10855658Y-11470222D01*
X10855658Y-11470222D02*
X10865182Y-11451174D01*
X10865182Y-11451174D02*
X10884230Y-11441650D01*
X10884230Y-11441650D02*
X10922325Y-11441650D01*
X10922325Y-11441650D02*
X10941373Y-11451174D01*
X10941373Y-11451174D02*
X10950896Y-11470222D01*
X10950896Y-11470222D02*
X10950896Y-11489269D01*
X10950896Y-11489269D02*
X10855658Y-11508317D01*
X11122325Y-11574984D02*
X11122325Y-11374984D01*
X11122325Y-11565460D02*
X11103277Y-11574984D01*
X11103277Y-11574984D02*
X11065182Y-11574984D01*
X11065182Y-11574984D02*
X11046135Y-11565460D01*
X11046135Y-11565460D02*
X11036611Y-11555936D01*
X11036611Y-11555936D02*
X11027087Y-11536888D01*
X11027087Y-11536888D02*
X11027087Y-11479746D01*
X11027087Y-11479746D02*
X11036611Y-11460698D01*
X11036611Y-11460698D02*
X11046135Y-11451174D01*
X11046135Y-11451174D02*
X11065182Y-11441650D01*
X11065182Y-11441650D02*
X11103277Y-11441650D01*
X11103277Y-11441650D02*
X11122325Y-11451174D01*
X11198515Y-11651174D02*
X11208039Y-11641650D01*
X11208039Y-11641650D02*
X11227087Y-11613079D01*
X11227087Y-11613079D02*
X11236611Y-11594031D01*
X11236611Y-11594031D02*
X11246134Y-11565460D01*
X11246134Y-11565460D02*
X11255658Y-11517841D01*
X11255658Y-11517841D02*
X11255658Y-11479746D01*
X11255658Y-11479746D02*
X11246134Y-11432127D01*
X11246134Y-11432127D02*
X11236611Y-11403555D01*
X11236611Y-11403555D02*
X11227087Y-11384508D01*
X11227087Y-11384508D02*
X11208039Y-11355936D01*
X11208039Y-11355936D02*
X11198515Y-11346412D01*
M02*
