G04 #@! TF.GenerationSoftware,KiCad,Pcbnew,8.0.9*
G04 #@! TF.CreationDate,2025-03-02T14:16:38+01:00*
G04 #@! TF.ProjectId,cjss190,636a7373-3139-4302-9e6b-696361645f70,rev?*
G04 #@! TF.SameCoordinates,Original*
G04 #@! TF.FileFunction,Copper,L2,Bot*
G04 #@! TF.FilePolarity,Positive*
%FSLAX46Y46*%
G04 Gerber Fmt 4.6, Leading zero omitted, Abs format (unit mm)*
G04 Created by KiCad (PCBNEW 8.0.9) date 2025-03-02 14:16:38*
%MOMM*%
%LPD*%
G01*
G04 APERTURE LIST*
G04 #@! TA.AperFunction,ComponentPad*
%ADD10C,1.600000*%
G04 #@! TD*
G04 #@! TA.AperFunction,ComponentPad*
%ADD11O,1.600000X1.600000*%
G04 #@! TD*
G04 #@! TA.AperFunction,ComponentPad*
%ADD12R,1.600000X1.600000*%
G04 #@! TD*
G04 #@! TA.AperFunction,ComponentPad*
%ADD13R,1.050000X1.500000*%
G04 #@! TD*
G04 #@! TA.AperFunction,ComponentPad*
%ADD14O,1.050000X1.500000*%
G04 #@! TD*
G04 #@! TA.AperFunction,ComponentPad*
%ADD15C,5.600000*%
G04 #@! TD*
G04 #@! TA.AperFunction,ComponentPad*
%ADD16R,1.200000X1.200000*%
G04 #@! TD*
G04 #@! TA.AperFunction,ComponentPad*
%ADD17C,1.200000*%
G04 #@! TD*
G04 #@! TA.AperFunction,WasherPad*
%ADD18O,1.900000X3.200000*%
G04 #@! TD*
G04 #@! TA.AperFunction,ComponentPad*
%ADD19C,2.000000*%
G04 #@! TD*
G04 #@! TA.AperFunction,ComponentPad*
%ADD20C,2.200000*%
G04 #@! TD*
G04 #@! TA.AperFunction,ComponentPad*
%ADD21R,1.700000X1.700000*%
G04 #@! TD*
G04 #@! TA.AperFunction,ComponentPad*
%ADD22O,1.700000X1.700000*%
G04 #@! TD*
G04 #@! TA.AperFunction,ViaPad*
%ADD23C,0.600000*%
G04 #@! TD*
G04 #@! TA.AperFunction,Conductor*
%ADD24C,0.635000*%
G04 #@! TD*
G04 #@! TA.AperFunction,Conductor*
%ADD25C,1.270000*%
G04 #@! TD*
G04 APERTURE END LIST*
D10*
X78740000Y-69850000D03*
D11*
X88900000Y-69850000D03*
D10*
X87630000Y-100330000D03*
D11*
X77470000Y-100330000D03*
D10*
X73660000Y-80010000D03*
D11*
X63500000Y-80010000D03*
D12*
X104052380Y-64135000D03*
D10*
X101552380Y-64135000D03*
X45720000Y-85090000D03*
D11*
X55880000Y-85090000D03*
D10*
X45720000Y-74930000D03*
D11*
X55880000Y-74930000D03*
D10*
X88900000Y-90170000D03*
D11*
X78740000Y-90170000D03*
D10*
X63500000Y-90170000D03*
D11*
X73660000Y-90170000D03*
D13*
X93980000Y-85090000D03*
D14*
X92710000Y-85090000D03*
X91440000Y-85090000D03*
D10*
X88900000Y-64770000D03*
D11*
X78740000Y-64770000D03*
D13*
X58420000Y-74930000D03*
D14*
X59690000Y-74930000D03*
X60960000Y-74930000D03*
D10*
X106680000Y-80010000D03*
D11*
X96520000Y-80010000D03*
D10*
X45720000Y-90170000D03*
D11*
X55880000Y-90170000D03*
D10*
X78740000Y-92750000D03*
X78740000Y-97750000D03*
X73660000Y-92750000D03*
X73660000Y-97750000D03*
D15*
X104140000Y-57150000D03*
D10*
X45720000Y-69850000D03*
D11*
X55880000Y-69850000D03*
D10*
X64690000Y-95250000D03*
X59690000Y-95250000D03*
D16*
X68580000Y-95250000D03*
D17*
X70080000Y-95250000D03*
D13*
X93980000Y-69850000D03*
D14*
X92710000Y-69850000D03*
X91440000Y-69850000D03*
D10*
X64770000Y-100330000D03*
D11*
X74930000Y-100330000D03*
D10*
X55245000Y-61595000D03*
X55245000Y-66595000D03*
D16*
X93575000Y-64135000D03*
D17*
X92075000Y-64135000D03*
D16*
X83820000Y-95250000D03*
D17*
X82320000Y-95250000D03*
D10*
X52070000Y-99060000D03*
D11*
X62230000Y-99060000D03*
D10*
X106680000Y-74930000D03*
D11*
X96520000Y-74930000D03*
D10*
X45720000Y-80010000D03*
D11*
X55880000Y-80010000D03*
D18*
X70860000Y-53200000D03*
X58560000Y-53200000D03*
D19*
X60960000Y-56950000D03*
X68460000Y-56950000D03*
D20*
X60960000Y-49700000D03*
D10*
X95250000Y-95250000D03*
D11*
X105410000Y-95250000D03*
D13*
X93980000Y-80010000D03*
D14*
X92710000Y-80010000D03*
X91440000Y-80010000D03*
D10*
X57150000Y-95250000D03*
D11*
X46990000Y-95250000D03*
D10*
X100330000Y-99060000D03*
D11*
X90170000Y-99060000D03*
D13*
X58420000Y-85090000D03*
D14*
X59690000Y-85090000D03*
X60960000Y-85090000D03*
D13*
X93980000Y-74930000D03*
D14*
X92710000Y-74930000D03*
X91440000Y-74930000D03*
D10*
X73660000Y-85090000D03*
D11*
X63500000Y-85090000D03*
D10*
X78740000Y-74930000D03*
D11*
X88900000Y-74930000D03*
D13*
X58420000Y-69850000D03*
D14*
X59690000Y-69850000D03*
X60960000Y-69850000D03*
D21*
X74930000Y-104140000D03*
D22*
X77470000Y-104140000D03*
D10*
X97155000Y-61675000D03*
X97155000Y-66675000D03*
X106680000Y-90170000D03*
D11*
X96520000Y-90170000D03*
D13*
X58420000Y-80010000D03*
D14*
X59690000Y-80010000D03*
X60960000Y-80010000D03*
D12*
X48260000Y-64135000D03*
D10*
X50760000Y-64135000D03*
X106680000Y-85090000D03*
D11*
X96520000Y-85090000D03*
D10*
X78740000Y-80010000D03*
D11*
X88900000Y-80010000D03*
D10*
X73660000Y-69850000D03*
D11*
X63500000Y-69850000D03*
D10*
X106680000Y-69850000D03*
D11*
X96520000Y-69850000D03*
D10*
X73660000Y-74930000D03*
D11*
X63500000Y-74930000D03*
D10*
X63500000Y-64770000D03*
D11*
X73660000Y-64770000D03*
D16*
X58825000Y-64135000D03*
D17*
X60325000Y-64135000D03*
D18*
X94189750Y-53200000D03*
X81889750Y-53200000D03*
D19*
X84289750Y-56950000D03*
X91789750Y-56950000D03*
D20*
X84289750Y-49700000D03*
D10*
X78740000Y-85090000D03*
D11*
X88900000Y-85090000D03*
D15*
X48260000Y-57150000D03*
D10*
X87710000Y-95250000D03*
X92710000Y-95250000D03*
D23*
X78740000Y-58420000D03*
D24*
X73660000Y-69850000D02*
X73660000Y-85090000D01*
X58825000Y-65175000D02*
X60960000Y-67310000D01*
X60960000Y-67310000D02*
X71120000Y-67310000D01*
X71120000Y-67310000D02*
X73660000Y-69850000D01*
X58825000Y-64135000D02*
X58825000Y-65175000D01*
X79851162Y-48082500D02*
X58597500Y-48082500D01*
X60325000Y-64135000D02*
X60325000Y-63286472D01*
X62865000Y-64135000D02*
X63500000Y-64770000D01*
X60325000Y-63286472D02*
X56842500Y-59803972D01*
X56842500Y-59803972D02*
X56842500Y-58420000D01*
X84289750Y-56950000D02*
X84289750Y-52521088D01*
X84289750Y-52521088D02*
X79851162Y-48082500D01*
X56842500Y-49837500D02*
X56842500Y-58420000D01*
X60325000Y-64135000D02*
X62865000Y-64135000D01*
X58597500Y-48082500D02*
X56842500Y-49837500D01*
X64770000Y-95330000D02*
X64690000Y-95250000D01*
X64770000Y-100330000D02*
X64770000Y-95330000D01*
X58420000Y-93980000D02*
X57150000Y-95250000D01*
X59690000Y-95250000D02*
X57150000Y-95250000D01*
X58420000Y-93980000D02*
X58420000Y-85090000D01*
X59690000Y-86360000D02*
X63500000Y-90170000D01*
X64735000Y-90170000D02*
X68580000Y-94015000D01*
X68580000Y-95250000D02*
X68580000Y-94015000D01*
X69845000Y-92750000D02*
X73660000Y-92750000D01*
X63500000Y-90170000D02*
X64735000Y-90170000D01*
X68580000Y-94015000D02*
X69845000Y-92750000D01*
X59690000Y-85090000D02*
X59690000Y-86360000D01*
D25*
X48815000Y-66595000D02*
X48260000Y-66040000D01*
X48260000Y-64135000D02*
X48260000Y-66040000D01*
X48260000Y-67310000D02*
X45720000Y-69850000D01*
X52070000Y-96520000D02*
X52070000Y-99060000D01*
X45720000Y-90170000D02*
X52070000Y-96520000D01*
X54610000Y-66595000D02*
X48815000Y-66595000D01*
X45720000Y-69850000D02*
X45720000Y-90170000D01*
X48260000Y-66040000D02*
X48260000Y-67310000D01*
D24*
X89535000Y-64135000D02*
X88900000Y-64770000D01*
X91789750Y-56950000D02*
X91789750Y-63849750D01*
X91789750Y-63849750D02*
X92075000Y-64135000D01*
X92075000Y-64135000D02*
X89535000Y-64135000D01*
X81280000Y-67310000D02*
X91635000Y-67310000D01*
X78740000Y-85090000D02*
X78740000Y-69850000D01*
X81280000Y-67310000D02*
X78740000Y-69850000D01*
X91635000Y-67310000D02*
X93575000Y-65370000D01*
X93575000Y-65370000D02*
X93575000Y-64135000D01*
X69930000Y-58420000D02*
X68460000Y-56950000D01*
X87710000Y-100250000D02*
X87630000Y-100330000D01*
X78740000Y-58420000D02*
X69930000Y-58420000D01*
X87710000Y-95250000D02*
X87710000Y-100250000D01*
X93980000Y-93980000D02*
X93980000Y-85090000D01*
X95250000Y-95250000D02*
X92710000Y-95250000D01*
X93980000Y-93980000D02*
X95250000Y-95250000D01*
X87665000Y-90170000D02*
X83820000Y-94015000D01*
X88900000Y-90170000D02*
X87665000Y-90170000D01*
X83820000Y-94015000D02*
X82555000Y-92750000D01*
X82555000Y-92750000D02*
X78740000Y-92750000D01*
X92710000Y-86360000D02*
X92710000Y-85090000D01*
X88900000Y-90170000D02*
X92710000Y-86360000D01*
X83820000Y-95250000D02*
X83820000Y-94015000D01*
D25*
X103417380Y-66675000D02*
X104052380Y-66040000D01*
X104052380Y-66040000D02*
X104052380Y-67222380D01*
X100330000Y-99060000D02*
X100330000Y-96520000D01*
X100330000Y-96520000D02*
X106680000Y-90170000D01*
X97155000Y-66675000D02*
X103417380Y-66675000D01*
X104052380Y-64135000D02*
X104052380Y-66040000D01*
X106680000Y-90170000D02*
X106680000Y-69850000D01*
X104052380Y-67222380D02*
X106680000Y-69850000D01*
D24*
X57147500Y-68582500D02*
X60121818Y-68582500D01*
X55880000Y-69850000D02*
X57147500Y-68582500D01*
X60121818Y-68582500D02*
X60960000Y-69420682D01*
X60960000Y-69850000D02*
X63500000Y-69850000D01*
X60960000Y-69420682D02*
X60960000Y-69850000D01*
X55880000Y-74930000D02*
X57147500Y-73662500D01*
X57147500Y-73662500D02*
X60121818Y-73662500D01*
X60960000Y-74930000D02*
X63500000Y-74930000D01*
X60960000Y-74500682D02*
X60960000Y-74930000D01*
X60121818Y-73662500D02*
X60960000Y-74500682D01*
X60121818Y-78742500D02*
X60960000Y-79580682D01*
X57147500Y-78742500D02*
X60121818Y-78742500D01*
X60960000Y-79580682D02*
X60960000Y-80010000D01*
X55880000Y-80010000D02*
X57147500Y-78742500D01*
X60960000Y-80010000D02*
X63500000Y-80010000D01*
X60960000Y-85090000D02*
X63500000Y-85090000D01*
X60121818Y-83822500D02*
X60960000Y-84660682D01*
X55880000Y-85090000D02*
X57147500Y-83822500D01*
X60960000Y-84660682D02*
X60960000Y-85090000D01*
X57147500Y-83822500D02*
X60121818Y-83822500D01*
X92280682Y-68580000D02*
X95250000Y-68580000D01*
X95250000Y-68580000D02*
X96520000Y-69850000D01*
X91440000Y-69850000D02*
X91440000Y-69420682D01*
X91440000Y-69420682D02*
X92280682Y-68580000D01*
X88900000Y-69850000D02*
X91440000Y-69850000D01*
X95250000Y-73660000D02*
X96520000Y-74930000D01*
X91440000Y-74930000D02*
X91440000Y-73995000D01*
X91440000Y-73995000D02*
X91775000Y-73660000D01*
X91775000Y-73660000D02*
X95250000Y-73660000D01*
X88900000Y-74930000D02*
X91440000Y-74930000D01*
X91440000Y-79075000D02*
X91775000Y-78740000D01*
X95250000Y-78740000D02*
X96520000Y-80010000D01*
X91440000Y-80010000D02*
X88900000Y-80010000D01*
X91440000Y-80010000D02*
X91440000Y-79075000D01*
X91775000Y-78740000D02*
X95250000Y-78740000D01*
X91440000Y-84155000D02*
X91440000Y-85090000D01*
X96520000Y-85090000D02*
X95252500Y-83822500D01*
X91772500Y-83822500D02*
X91440000Y-84155000D01*
X91440000Y-85090000D02*
X88900000Y-85090000D01*
X95252500Y-83822500D02*
X91772500Y-83822500D01*
D25*
X66178630Y-104140000D02*
X62230000Y-100191370D01*
X74930000Y-104140000D02*
X77105000Y-101965000D01*
X74930000Y-104140000D02*
X66178630Y-104140000D01*
X62230000Y-100191370D02*
X62230000Y-99060000D01*
X88396370Y-101965000D02*
X90170000Y-100191370D01*
X77105000Y-101965000D02*
X88396370Y-101965000D01*
X90170000Y-100191370D02*
X90170000Y-99060000D01*
G04 #@! TA.AperFunction,Conductor*
G36*
X74873039Y-44670185D02*
G01*
X74918794Y-44722989D01*
X74930000Y-44774500D01*
X74930000Y-47140500D01*
X74910315Y-47207539D01*
X74857511Y-47253294D01*
X74806000Y-47264500D01*
X58516929Y-47264500D01*
X58358905Y-47295933D01*
X58358893Y-47295936D01*
X58210036Y-47357594D01*
X58210034Y-47357595D01*
X58129719Y-47411261D01*
X58129718Y-47411262D01*
X58076054Y-47447118D01*
X58019086Y-47504086D01*
X57962118Y-47561055D01*
X57962116Y-47561057D01*
X56207120Y-49316051D01*
X56207117Y-49316055D01*
X56117600Y-49450025D01*
X56117593Y-49450038D01*
X56055936Y-49598893D01*
X56055933Y-49598905D01*
X56024500Y-49756929D01*
X56024500Y-59884542D01*
X56055933Y-60042566D01*
X56055936Y-60042578D01*
X56067425Y-60070314D01*
X56067426Y-60070316D01*
X56117597Y-60191440D01*
X56117598Y-60191443D01*
X56207117Y-60325416D01*
X56207120Y-60325420D01*
X58704521Y-62822819D01*
X58738006Y-62884142D01*
X58733022Y-62953834D01*
X58691150Y-63009767D01*
X58625686Y-63034184D01*
X58616840Y-63034500D01*
X58177129Y-63034500D01*
X58177123Y-63034501D01*
X58117516Y-63040908D01*
X57982671Y-63091202D01*
X57982664Y-63091206D01*
X57867455Y-63177452D01*
X57867452Y-63177455D01*
X57781206Y-63292664D01*
X57781202Y-63292671D01*
X57730908Y-63427517D01*
X57724501Y-63487116D01*
X57724500Y-63487135D01*
X57724500Y-64782870D01*
X57724501Y-64782876D01*
X57730908Y-64842483D01*
X57781202Y-64977328D01*
X57781206Y-64977335D01*
X57829899Y-65042379D01*
X57867454Y-65092546D01*
X57957312Y-65159814D01*
X57999182Y-65215746D01*
X58005292Y-65249614D01*
X58006403Y-65249505D01*
X58007000Y-65255570D01*
X58038433Y-65413594D01*
X58038435Y-65413602D01*
X58061574Y-65469464D01*
X58061574Y-65469465D01*
X58100097Y-65562468D01*
X58100098Y-65562471D01*
X58189617Y-65696444D01*
X58189620Y-65696448D01*
X60045992Y-67552819D01*
X60079477Y-67614142D01*
X60074493Y-67683834D01*
X60032621Y-67739767D01*
X59967157Y-67764184D01*
X59958311Y-67764500D01*
X57066929Y-67764500D01*
X56908905Y-67795933D01*
X56908893Y-67795936D01*
X56760036Y-67857594D01*
X56760034Y-67857595D01*
X56679719Y-67911261D01*
X56679718Y-67911262D01*
X56626054Y-67947118D01*
X56569086Y-68004086D01*
X56512118Y-68061055D01*
X56512116Y-68061057D01*
X56057569Y-68515603D01*
X55996246Y-68549088D01*
X55959081Y-68551450D01*
X55880002Y-68544532D01*
X55879998Y-68544532D01*
X55653313Y-68564364D01*
X55653302Y-68564366D01*
X55433511Y-68623258D01*
X55433502Y-68623261D01*
X55227267Y-68719431D01*
X55227265Y-68719432D01*
X55040858Y-68849954D01*
X54879954Y-69010858D01*
X54749432Y-69197265D01*
X54749431Y-69197267D01*
X54653261Y-69403502D01*
X54653258Y-69403511D01*
X54594366Y-69623302D01*
X54594364Y-69623313D01*
X54574532Y-69849998D01*
X54574532Y-69850001D01*
X54594364Y-70076686D01*
X54594366Y-70076697D01*
X54653258Y-70296488D01*
X54653261Y-70296497D01*
X54749431Y-70502732D01*
X54749432Y-70502734D01*
X54879954Y-70689141D01*
X55040858Y-70850045D01*
X55040861Y-70850047D01*
X55227266Y-70980568D01*
X55433504Y-71076739D01*
X55653308Y-71135635D01*
X55815230Y-71149801D01*
X55879998Y-71155468D01*
X55880000Y-71155468D01*
X55880002Y-71155468D01*
X55936673Y-71150509D01*
X56106692Y-71135635D01*
X56326496Y-71076739D01*
X56532734Y-70980568D01*
X56719139Y-70850047D01*
X56880047Y-70689139D01*
X57010568Y-70502734D01*
X57106739Y-70296496D01*
X57150726Y-70132333D01*
X57187090Y-70072675D01*
X57249936Y-70042145D01*
X57319312Y-70050439D01*
X57373190Y-70094924D01*
X57394465Y-70161476D01*
X57394500Y-70164428D01*
X57394500Y-70647870D01*
X57394501Y-70647876D01*
X57400908Y-70707483D01*
X57451202Y-70842328D01*
X57451206Y-70842335D01*
X57537452Y-70957544D01*
X57537455Y-70957547D01*
X57652664Y-71043793D01*
X57652671Y-71043797D01*
X57787517Y-71094091D01*
X57787516Y-71094091D01*
X57794444Y-71094835D01*
X57847127Y-71100500D01*
X58992872Y-71100499D01*
X59052483Y-71094091D01*
X59187331Y-71043796D01*
X59188430Y-71042972D01*
X59189717Y-71042492D01*
X59195112Y-71039547D01*
X59195535Y-71040322D01*
X59253887Y-71018552D01*
X59310198Y-71027673D01*
X59390873Y-71061091D01*
X59556777Y-71094091D01*
X59588992Y-71100499D01*
X59588996Y-71100500D01*
X59588997Y-71100500D01*
X59791004Y-71100500D01*
X59791005Y-71100499D01*
X59989127Y-71061091D01*
X60175756Y-70983786D01*
X60256110Y-70930094D01*
X60322786Y-70909217D01*
X60390166Y-70927701D01*
X60393865Y-70930078D01*
X60474244Y-70983786D01*
X60660873Y-71061091D01*
X60826777Y-71094091D01*
X60858992Y-71100499D01*
X60858996Y-71100500D01*
X60858997Y-71100500D01*
X61061004Y-71100500D01*
X61061005Y-71100499D01*
X61259127Y-71061091D01*
X61445756Y-70983786D01*
X61613718Y-70871558D01*
X61756558Y-70728718D01*
X61760308Y-70723106D01*
X61813922Y-70678302D01*
X61863408Y-70668000D01*
X62427452Y-70668000D01*
X62494491Y-70687685D01*
X62515128Y-70704314D01*
X62660861Y-70850047D01*
X62847266Y-70980568D01*
X63053504Y-71076739D01*
X63273308Y-71135635D01*
X63435230Y-71149801D01*
X63499998Y-71155468D01*
X63500000Y-71155468D01*
X63500002Y-71155468D01*
X63556673Y-71150509D01*
X63726692Y-71135635D01*
X63946496Y-71076739D01*
X64152734Y-70980568D01*
X64339139Y-70850047D01*
X64500047Y-70689139D01*
X64630568Y-70502734D01*
X64726739Y-70296496D01*
X64785635Y-70076692D01*
X64805468Y-69850000D01*
X64785635Y-69623308D01*
X64726739Y-69403504D01*
X64630568Y-69197266D01*
X64500047Y-69010861D01*
X64500045Y-69010858D01*
X64339141Y-68849954D01*
X64152734Y-68719432D01*
X64152732Y-68719431D01*
X63946497Y-68623261D01*
X63946488Y-68623258D01*
X63726697Y-68564366D01*
X63726693Y-68564365D01*
X63726692Y-68564365D01*
X63726691Y-68564364D01*
X63726686Y-68564364D01*
X63500002Y-68544532D01*
X63499998Y-68544532D01*
X63273313Y-68564364D01*
X63273302Y-68564366D01*
X63053511Y-68623258D01*
X63053502Y-68623261D01*
X62847267Y-68719431D01*
X62847265Y-68719432D01*
X62660862Y-68849951D01*
X62587998Y-68922816D01*
X62515131Y-68995682D01*
X62453811Y-69029166D01*
X62427452Y-69032000D01*
X61863408Y-69032000D01*
X61796369Y-69012315D01*
X61760308Y-68976894D01*
X61756557Y-68971281D01*
X61756553Y-68971276D01*
X61613718Y-68828441D01*
X61445762Y-68716217D01*
X61445757Y-68716215D01*
X61445756Y-68716214D01*
X61411528Y-68702036D01*
X61371301Y-68675156D01*
X61035826Y-68339681D01*
X61002341Y-68278358D01*
X61007325Y-68208666D01*
X61049197Y-68152733D01*
X61114661Y-68128316D01*
X61123507Y-68128000D01*
X70729811Y-68128000D01*
X70796850Y-68147685D01*
X70817492Y-68164319D01*
X72325603Y-69672430D01*
X72359088Y-69733753D01*
X72361450Y-69770917D01*
X72354532Y-69849996D01*
X72354532Y-69850001D01*
X72374364Y-70076686D01*
X72374366Y-70076697D01*
X72433258Y-70296488D01*
X72433261Y-70296497D01*
X72529431Y-70502732D01*
X72529432Y-70502734D01*
X72659954Y-70689141D01*
X72805681Y-70834868D01*
X72839166Y-70896191D01*
X72842000Y-70922549D01*
X72842000Y-73857451D01*
X72822315Y-73924490D01*
X72805681Y-73945132D01*
X72659954Y-74090858D01*
X72529432Y-74277265D01*
X72529431Y-74277267D01*
X72433261Y-74483502D01*
X72433258Y-74483511D01*
X72374366Y-74703302D01*
X72374364Y-74703313D01*
X72354532Y-74929998D01*
X72354532Y-74930001D01*
X72374364Y-75156686D01*
X72374366Y-75156697D01*
X72433258Y-75376488D01*
X72433261Y-75376497D01*
X72529431Y-75582732D01*
X72529432Y-75582734D01*
X72659954Y-75769141D01*
X72805681Y-75914868D01*
X72839166Y-75976191D01*
X72842000Y-76002549D01*
X72842000Y-78937451D01*
X72822315Y-79004490D01*
X72805681Y-79025132D01*
X72659954Y-79170858D01*
X72529432Y-79357265D01*
X72529431Y-79357267D01*
X72433261Y-79563502D01*
X72433258Y-79563511D01*
X72374366Y-79783302D01*
X72374364Y-79783313D01*
X72354532Y-80009998D01*
X72354532Y-80010001D01*
X72374364Y-80236686D01*
X72374366Y-80236697D01*
X72433258Y-80456488D01*
X72433261Y-80456497D01*
X72529431Y-80662732D01*
X72529432Y-80662734D01*
X72659954Y-80849141D01*
X72805681Y-80994868D01*
X72839166Y-81056191D01*
X72842000Y-81082549D01*
X72842000Y-84017451D01*
X72822315Y-84084490D01*
X72805681Y-84105132D01*
X72659954Y-84250858D01*
X72529432Y-84437265D01*
X72529431Y-84437267D01*
X72433261Y-84643502D01*
X72433258Y-84643511D01*
X72374366Y-84863302D01*
X72374364Y-84863313D01*
X72354532Y-85089998D01*
X72354532Y-85090001D01*
X72374364Y-85316686D01*
X72374366Y-85316697D01*
X72433258Y-85536488D01*
X72433261Y-85536497D01*
X72529431Y-85742732D01*
X72529432Y-85742734D01*
X72659954Y-85929141D01*
X72820858Y-86090045D01*
X72820861Y-86090047D01*
X73007266Y-86220568D01*
X73213504Y-86316739D01*
X73433308Y-86375635D01*
X73595230Y-86389801D01*
X73659998Y-86395468D01*
X73660000Y-86395468D01*
X73660002Y-86395468D01*
X73716673Y-86390509D01*
X73886692Y-86375635D01*
X74106496Y-86316739D01*
X74312734Y-86220568D01*
X74499139Y-86090047D01*
X74660047Y-85929139D01*
X74704425Y-85865759D01*
X74759001Y-85822135D01*
X74828499Y-85814941D01*
X74890854Y-85846463D01*
X74926269Y-85906693D01*
X74930000Y-85936883D01*
X74930000Y-89323116D01*
X74910315Y-89390155D01*
X74857511Y-89435910D01*
X74788353Y-89445854D01*
X74724797Y-89416829D01*
X74704425Y-89394239D01*
X74660046Y-89330859D01*
X74499141Y-89169954D01*
X74312734Y-89039432D01*
X74312732Y-89039431D01*
X74106497Y-88943261D01*
X74106488Y-88943258D01*
X73886697Y-88884366D01*
X73886693Y-88884365D01*
X73886692Y-88884365D01*
X73886691Y-88884364D01*
X73886686Y-88884364D01*
X73660002Y-88864532D01*
X73659998Y-88864532D01*
X73433313Y-88884364D01*
X73433302Y-88884366D01*
X73213511Y-88943258D01*
X73213502Y-88943261D01*
X73007267Y-89039431D01*
X73007265Y-89039432D01*
X72820858Y-89169954D01*
X72659954Y-89330858D01*
X72529432Y-89517265D01*
X72529431Y-89517267D01*
X72433261Y-89723502D01*
X72433258Y-89723511D01*
X72374366Y-89943302D01*
X72374364Y-89943313D01*
X72354532Y-90169998D01*
X72354532Y-90170001D01*
X72374364Y-90396686D01*
X72374366Y-90396697D01*
X72433258Y-90616488D01*
X72433261Y-90616497D01*
X72529431Y-90822732D01*
X72529432Y-90822734D01*
X72659954Y-91009141D01*
X72820858Y-91170045D01*
X72820861Y-91170047D01*
X73007266Y-91300568D01*
X73080492Y-91334714D01*
X73108164Y-91347618D01*
X73160603Y-91393791D01*
X73179755Y-91460984D01*
X73159539Y-91527866D01*
X73108164Y-91572382D01*
X73007267Y-91619431D01*
X73007265Y-91619432D01*
X72820862Y-91749951D01*
X72747998Y-91822816D01*
X72675131Y-91895682D01*
X72613811Y-91929166D01*
X72587452Y-91932000D01*
X69764429Y-91932000D01*
X69606405Y-91963433D01*
X69606397Y-91963435D01*
X69457533Y-92025096D01*
X69323552Y-92114619D01*
X68667680Y-92770491D01*
X68606357Y-92803976D01*
X68536665Y-92798992D01*
X68492318Y-92770491D01*
X65256448Y-89534620D01*
X65256444Y-89534617D01*
X65122474Y-89445100D01*
X65122461Y-89445093D01*
X64973606Y-89383436D01*
X64973594Y-89383433D01*
X64815570Y-89352000D01*
X64815566Y-89352000D01*
X64572548Y-89352000D01*
X64505509Y-89332315D01*
X64484871Y-89315685D01*
X64339139Y-89169953D01*
X64339138Y-89169952D01*
X64339137Y-89169951D01*
X64152734Y-89039432D01*
X64152732Y-89039431D01*
X63946497Y-88943261D01*
X63946488Y-88943258D01*
X63726697Y-88884366D01*
X63726693Y-88884365D01*
X63726692Y-88884365D01*
X63726691Y-88884364D01*
X63726686Y-88884364D01*
X63500002Y-88864532D01*
X63499997Y-88864532D01*
X63420916Y-88871450D01*
X63352416Y-88857683D01*
X63322429Y-88835603D01*
X61030136Y-86543309D01*
X60996651Y-86481986D01*
X61001635Y-86412294D01*
X61043507Y-86356361D01*
X61093626Y-86334011D01*
X61110351Y-86330683D01*
X61259127Y-86301091D01*
X61445756Y-86223786D01*
X61613718Y-86111558D01*
X61756558Y-85968718D01*
X61760308Y-85963106D01*
X61813922Y-85918302D01*
X61863408Y-85908000D01*
X62427452Y-85908000D01*
X62494491Y-85927685D01*
X62515128Y-85944314D01*
X62660861Y-86090047D01*
X62847266Y-86220568D01*
X63053504Y-86316739D01*
X63273308Y-86375635D01*
X63435230Y-86389801D01*
X63499998Y-86395468D01*
X63500000Y-86395468D01*
X63500002Y-86395468D01*
X63556673Y-86390509D01*
X63726692Y-86375635D01*
X63946496Y-86316739D01*
X64152734Y-86220568D01*
X64339139Y-86090047D01*
X64500047Y-85929139D01*
X64630568Y-85742734D01*
X64726739Y-85536496D01*
X64785635Y-85316692D01*
X64805468Y-85090000D01*
X64785635Y-84863308D01*
X64726739Y-84643504D01*
X64630568Y-84437266D01*
X64500047Y-84250861D01*
X64500045Y-84250858D01*
X64339141Y-84089954D01*
X64152734Y-83959432D01*
X64152732Y-83959431D01*
X63946497Y-83863261D01*
X63946488Y-83863258D01*
X63726697Y-83804366D01*
X63726693Y-83804365D01*
X63726692Y-83804365D01*
X63726691Y-83804364D01*
X63726686Y-83804364D01*
X63500002Y-83784532D01*
X63499998Y-83784532D01*
X63273313Y-83804364D01*
X63273302Y-83804366D01*
X63053511Y-83863258D01*
X63053502Y-83863261D01*
X62847267Y-83959431D01*
X62847265Y-83959432D01*
X62660862Y-84089951D01*
X62587998Y-84162816D01*
X62515131Y-84235682D01*
X62453811Y-84269166D01*
X62427452Y-84272000D01*
X61863408Y-84272000D01*
X61796369Y-84252315D01*
X61760308Y-84216894D01*
X61756557Y-84211281D01*
X61756553Y-84211276D01*
X61613718Y-84068441D01*
X61445762Y-83956217D01*
X61445757Y-83956215D01*
X61445756Y-83956214D01*
X61411528Y-83942036D01*
X61371301Y-83915156D01*
X60643266Y-83187120D01*
X60643262Y-83187117D01*
X60509292Y-83097600D01*
X60509279Y-83097593D01*
X60360424Y-83035936D01*
X60360412Y-83035933D01*
X60202388Y-83004500D01*
X60202384Y-83004500D01*
X57066934Y-83004500D01*
X57066929Y-83004500D01*
X56908905Y-83035933D01*
X56908893Y-83035936D01*
X56760036Y-83097594D01*
X56760034Y-83097595D01*
X56679719Y-83151261D01*
X56679718Y-83151262D01*
X56626054Y-83187118D01*
X56569086Y-83244086D01*
X56512118Y-83301055D01*
X56512116Y-83301057D01*
X56057569Y-83755603D01*
X55996246Y-83789088D01*
X55959081Y-83791450D01*
X55880002Y-83784532D01*
X55879998Y-83784532D01*
X55653313Y-83804364D01*
X55653302Y-83804366D01*
X55433511Y-83863258D01*
X55433502Y-83863261D01*
X55227267Y-83959431D01*
X55227265Y-83959432D01*
X55040858Y-84089954D01*
X54879954Y-84250858D01*
X54749432Y-84437265D01*
X54749431Y-84437267D01*
X54653261Y-84643502D01*
X54653258Y-84643511D01*
X54594366Y-84863302D01*
X54594364Y-84863313D01*
X54574532Y-85089998D01*
X54574532Y-85090001D01*
X54594364Y-85316686D01*
X54594366Y-85316697D01*
X54653258Y-85536488D01*
X54653261Y-85536497D01*
X54749431Y-85742732D01*
X54749432Y-85742734D01*
X54879954Y-85929141D01*
X55040858Y-86090045D01*
X55040861Y-86090047D01*
X55227266Y-86220568D01*
X55433504Y-86316739D01*
X55653308Y-86375635D01*
X55815230Y-86389801D01*
X55879998Y-86395468D01*
X55880000Y-86395468D01*
X55880002Y-86395468D01*
X55936673Y-86390509D01*
X56106692Y-86375635D01*
X56326496Y-86316739D01*
X56532734Y-86220568D01*
X56719139Y-86090047D01*
X56880047Y-85929139D01*
X57010568Y-85742734D01*
X57106739Y-85536496D01*
X57150726Y-85372333D01*
X57187090Y-85312675D01*
X57249936Y-85282145D01*
X57319312Y-85290439D01*
X57373190Y-85334924D01*
X57394465Y-85401476D01*
X57394500Y-85404428D01*
X57394500Y-85887870D01*
X57394501Y-85887876D01*
X57400908Y-85947483D01*
X57451202Y-86082328D01*
X57451206Y-86082335D01*
X57537452Y-86197544D01*
X57537453Y-86197545D01*
X57552310Y-86208667D01*
X57594182Y-86264600D01*
X57602000Y-86307934D01*
X57602000Y-93589810D01*
X57582315Y-93656849D01*
X57565681Y-93677491D01*
X57327568Y-93915603D01*
X57266245Y-93949088D01*
X57229080Y-93951450D01*
X57150002Y-93944532D01*
X57149998Y-93944532D01*
X56923313Y-93964364D01*
X56923302Y-93964366D01*
X56703511Y-94023258D01*
X56703502Y-94023261D01*
X56497267Y-94119431D01*
X56497265Y-94119432D01*
X56310858Y-94249954D01*
X56149954Y-94410858D01*
X56019432Y-94597265D01*
X56019431Y-94597267D01*
X55923261Y-94803502D01*
X55923258Y-94803511D01*
X55864366Y-95023302D01*
X55864364Y-95023313D01*
X55844532Y-95249998D01*
X55844532Y-95250001D01*
X55864364Y-95476686D01*
X55864366Y-95476697D01*
X55923258Y-95696488D01*
X55923261Y-95696497D01*
X56019431Y-95902732D01*
X56019432Y-95902734D01*
X56149954Y-96089141D01*
X56310858Y-96250045D01*
X56310861Y-96250047D01*
X56497266Y-96380568D01*
X56703504Y-96476739D01*
X56923308Y-96535635D01*
X57085230Y-96549801D01*
X57149998Y-96555468D01*
X57150000Y-96555468D01*
X57150002Y-96555468D01*
X57206673Y-96550509D01*
X57376692Y-96535635D01*
X57596496Y-96476739D01*
X57802734Y-96380568D01*
X57989139Y-96250047D01*
X58134868Y-96104317D01*
X58196189Y-96070834D01*
X58222548Y-96068000D01*
X58617452Y-96068000D01*
X58684491Y-96087685D01*
X58705128Y-96104314D01*
X58792000Y-96191186D01*
X58850862Y-96250048D01*
X58913343Y-96293797D01*
X59037266Y-96380568D01*
X59243504Y-96476739D01*
X59463308Y-96535635D01*
X59625230Y-96549801D01*
X59689998Y-96555468D01*
X59690000Y-96555468D01*
X59690002Y-96555468D01*
X59746673Y-96550509D01*
X59916692Y-96535635D01*
X60136496Y-96476739D01*
X60342734Y-96380568D01*
X60529139Y-96250047D01*
X60690047Y-96089139D01*
X60820568Y-95902734D01*
X60916739Y-95696496D01*
X60975635Y-95476692D01*
X60995468Y-95250000D01*
X60975635Y-95023308D01*
X60916739Y-94803504D01*
X60820568Y-94597266D01*
X60690047Y-94410861D01*
X60690045Y-94410858D01*
X60529141Y-94249954D01*
X60342734Y-94119432D01*
X60342732Y-94119431D01*
X60136497Y-94023261D01*
X60136488Y-94023258D01*
X59916697Y-93964366D01*
X59916693Y-93964365D01*
X59916692Y-93964365D01*
X59916691Y-93964364D01*
X59916686Y-93964364D01*
X59690002Y-93944532D01*
X59689998Y-93944532D01*
X59463313Y-93964364D01*
X59463302Y-93964366D01*
X59394093Y-93982911D01*
X59324243Y-93981248D01*
X59266381Y-93942085D01*
X59238877Y-93877857D01*
X59238000Y-93863136D01*
X59238000Y-87364188D01*
X59257685Y-87297149D01*
X59310489Y-87251394D01*
X59379647Y-87241450D01*
X59443203Y-87270475D01*
X59449681Y-87276507D01*
X62165603Y-89992429D01*
X62199088Y-90053752D01*
X62201450Y-90090916D01*
X62194532Y-90169996D01*
X62194532Y-90170001D01*
X62214364Y-90396686D01*
X62214366Y-90396697D01*
X62273258Y-90616488D01*
X62273261Y-90616497D01*
X62369431Y-90822732D01*
X62369432Y-90822734D01*
X62499954Y-91009141D01*
X62660858Y-91170045D01*
X62660861Y-91170047D01*
X62847266Y-91300568D01*
X63053504Y-91396739D01*
X63273308Y-91455635D01*
X63435230Y-91469801D01*
X63499998Y-91475468D01*
X63500000Y-91475468D01*
X63500002Y-91475468D01*
X63556673Y-91470509D01*
X63726692Y-91455635D01*
X63946496Y-91396739D01*
X64152734Y-91300568D01*
X64339139Y-91170047D01*
X64370998Y-91138187D01*
X64432319Y-91104702D01*
X64502011Y-91109686D01*
X64546360Y-91138187D01*
X67579944Y-94171771D01*
X67613429Y-94233094D01*
X67608445Y-94302786D01*
X67591530Y-94333763D01*
X67536204Y-94407669D01*
X67536202Y-94407671D01*
X67485908Y-94542517D01*
X67479501Y-94602116D01*
X67479500Y-94602135D01*
X67479500Y-95897870D01*
X67479501Y-95897876D01*
X67485908Y-95957483D01*
X67536202Y-96092328D01*
X67536206Y-96092335D01*
X67622452Y-96207544D01*
X67622455Y-96207547D01*
X67737664Y-96293793D01*
X67737671Y-96293797D01*
X67872517Y-96344091D01*
X67872516Y-96344091D01*
X67879444Y-96344835D01*
X67932127Y-96350500D01*
X69227872Y-96350499D01*
X69287483Y-96344091D01*
X69370778Y-96313024D01*
X69422329Y-96293797D01*
X69422329Y-96293796D01*
X69422331Y-96293796D01*
X69471521Y-96256971D01*
X69536982Y-96232554D01*
X69590622Y-96240610D01*
X69777544Y-96313024D01*
X69978024Y-96350500D01*
X69978026Y-96350500D01*
X70181974Y-96350500D01*
X70181976Y-96350500D01*
X70382456Y-96313024D01*
X70572637Y-96239348D01*
X70746041Y-96131981D01*
X70896764Y-95994579D01*
X71019673Y-95831821D01*
X71110582Y-95649250D01*
X71166397Y-95453083D01*
X71185215Y-95250000D01*
X71166397Y-95046917D01*
X71110582Y-94850750D01*
X71087056Y-94803504D01*
X71066272Y-94761764D01*
X71019673Y-94668179D01*
X70896764Y-94505421D01*
X70896762Y-94505418D01*
X70746041Y-94368019D01*
X70746039Y-94368017D01*
X70572642Y-94260655D01*
X70572635Y-94260651D01*
X70477546Y-94223814D01*
X70382456Y-94186976D01*
X70181976Y-94149500D01*
X69978024Y-94149500D01*
X69959613Y-94152941D01*
X69909563Y-94162297D01*
X69840048Y-94155265D01*
X69785370Y-94111767D01*
X69762888Y-94045613D01*
X69779741Y-93977807D01*
X69799093Y-93952733D01*
X70147508Y-93604319D01*
X70208831Y-93570834D01*
X70235189Y-93568000D01*
X72587452Y-93568000D01*
X72654491Y-93587685D01*
X72675128Y-93604314D01*
X72820861Y-93750047D01*
X73007266Y-93880568D01*
X73213504Y-93976739D01*
X73213509Y-93976740D01*
X73213511Y-93976741D01*
X73230332Y-93981248D01*
X73433308Y-94035635D01*
X73595230Y-94049801D01*
X73659998Y-94055468D01*
X73660000Y-94055468D01*
X73660002Y-94055468D01*
X73716673Y-94050509D01*
X73886692Y-94035635D01*
X74106496Y-93976739D01*
X74312734Y-93880568D01*
X74499139Y-93750047D01*
X74660047Y-93589139D01*
X74704425Y-93525759D01*
X74759001Y-93482135D01*
X74828499Y-93474941D01*
X74890854Y-93506463D01*
X74926269Y-93566693D01*
X74930000Y-93596883D01*
X74930000Y-96903116D01*
X74910315Y-96970155D01*
X74857511Y-97015910D01*
X74788353Y-97025854D01*
X74724797Y-96996829D01*
X74704425Y-96974239D01*
X74660046Y-96910859D01*
X74499141Y-96749954D01*
X74312734Y-96619432D01*
X74312732Y-96619431D01*
X74106497Y-96523261D01*
X74106488Y-96523258D01*
X73886697Y-96464366D01*
X73886693Y-96464365D01*
X73886692Y-96464365D01*
X73886691Y-96464364D01*
X73886686Y-96464364D01*
X73660002Y-96444532D01*
X73659998Y-96444532D01*
X73433313Y-96464364D01*
X73433302Y-96464366D01*
X73213511Y-96523258D01*
X73213502Y-96523261D01*
X73007267Y-96619431D01*
X73007265Y-96619432D01*
X72820858Y-96749954D01*
X72659954Y-96910858D01*
X72529432Y-97097265D01*
X72529431Y-97097267D01*
X72433261Y-97303502D01*
X72433258Y-97303511D01*
X72374366Y-97523302D01*
X72374364Y-97523313D01*
X72354532Y-97749998D01*
X72354532Y-97750001D01*
X72374364Y-97976686D01*
X72374366Y-97976697D01*
X72433258Y-98196488D01*
X72433261Y-98196497D01*
X72529431Y-98402732D01*
X72529432Y-98402734D01*
X72659954Y-98589141D01*
X72820858Y-98750045D01*
X72820861Y-98750047D01*
X73007266Y-98880568D01*
X73213504Y-98976739D01*
X73213509Y-98976740D01*
X73213511Y-98976741D01*
X73266415Y-98990916D01*
X73433308Y-99035635D01*
X73595230Y-99049801D01*
X73659998Y-99055468D01*
X73660000Y-99055468D01*
X73660002Y-99055468D01*
X73716673Y-99050509D01*
X73886692Y-99035635D01*
X74106496Y-98976739D01*
X74312734Y-98880568D01*
X74499139Y-98750047D01*
X74660047Y-98589139D01*
X74704425Y-98525759D01*
X74759001Y-98482135D01*
X74828499Y-98474941D01*
X74890854Y-98506463D01*
X74926269Y-98566693D01*
X74930000Y-98596883D01*
X74930000Y-98910907D01*
X74910315Y-98977946D01*
X74857511Y-99023701D01*
X74816808Y-99034435D01*
X74703312Y-99044364D01*
X74703302Y-99044366D01*
X74483511Y-99103258D01*
X74483502Y-99103261D01*
X74277267Y-99199431D01*
X74277265Y-99199432D01*
X74090858Y-99329954D01*
X73929954Y-99490858D01*
X73799432Y-99677265D01*
X73799431Y-99677267D01*
X73703261Y-99883502D01*
X73703258Y-99883511D01*
X73644366Y-100103302D01*
X73644364Y-100103313D01*
X73624532Y-100329998D01*
X73624532Y-100330001D01*
X73644364Y-100556686D01*
X73644366Y-100556697D01*
X73703258Y-100776488D01*
X73703261Y-100776497D01*
X73799431Y-100982732D01*
X73799432Y-100982734D01*
X73929954Y-101169141D01*
X74090858Y-101330045D01*
X74090861Y-101330047D01*
X74277266Y-101460568D01*
X74483504Y-101556739D01*
X74483509Y-101556740D01*
X74483511Y-101556741D01*
X74536415Y-101570916D01*
X74703308Y-101615635D01*
X74816808Y-101625565D01*
X74881875Y-101651016D01*
X74922854Y-101707606D01*
X74930000Y-101749092D01*
X74930000Y-102482798D01*
X74910315Y-102549837D01*
X74893681Y-102570479D01*
X74710978Y-102753181D01*
X74649655Y-102786666D01*
X74623297Y-102789500D01*
X74032129Y-102789500D01*
X74032123Y-102789501D01*
X73972516Y-102795908D01*
X73837671Y-102846202D01*
X73837664Y-102846206D01*
X73722457Y-102932451D01*
X73722449Y-102932458D01*
X73705718Y-102954810D01*
X73649785Y-102996682D01*
X73606451Y-103004500D01*
X66700332Y-103004500D01*
X66633293Y-102984815D01*
X66612651Y-102968181D01*
X65331291Y-101686821D01*
X65297806Y-101625498D01*
X65302790Y-101555806D01*
X65344662Y-101499873D01*
X65366558Y-101486763D01*
X65422734Y-101460568D01*
X65609139Y-101330047D01*
X65770047Y-101169139D01*
X65900568Y-100982734D01*
X65996739Y-100776496D01*
X66055635Y-100556692D01*
X66075468Y-100330000D01*
X66055635Y-100103308D01*
X65996739Y-99883504D01*
X65900568Y-99677266D01*
X65802839Y-99537693D01*
X65770045Y-99490858D01*
X65624319Y-99345132D01*
X65590834Y-99283809D01*
X65588000Y-99257451D01*
X65588000Y-96242548D01*
X65607685Y-96175509D01*
X65624314Y-96154871D01*
X65690047Y-96089139D01*
X65820568Y-95902734D01*
X65916739Y-95696496D01*
X65975635Y-95476692D01*
X65995468Y-95250000D01*
X65975635Y-95023308D01*
X65916739Y-94803504D01*
X65820568Y-94597266D01*
X65690047Y-94410861D01*
X65690045Y-94410858D01*
X65529141Y-94249954D01*
X65342734Y-94119432D01*
X65342732Y-94119431D01*
X65136497Y-94023261D01*
X65136488Y-94023258D01*
X64916697Y-93964366D01*
X64916693Y-93964365D01*
X64916692Y-93964365D01*
X64916691Y-93964364D01*
X64916686Y-93964364D01*
X64690002Y-93944532D01*
X64689998Y-93944532D01*
X64463313Y-93964364D01*
X64463302Y-93964366D01*
X64243511Y-94023258D01*
X64243502Y-94023261D01*
X64037267Y-94119431D01*
X64037265Y-94119432D01*
X63850858Y-94249954D01*
X63689954Y-94410858D01*
X63559432Y-94597265D01*
X63559431Y-94597267D01*
X63463261Y-94803502D01*
X63463258Y-94803511D01*
X63404366Y-95023302D01*
X63404364Y-95023313D01*
X63384532Y-95249998D01*
X63384532Y-95250001D01*
X63404364Y-95476686D01*
X63404366Y-95476697D01*
X63463258Y-95696488D01*
X63463261Y-95696497D01*
X63559431Y-95902732D01*
X63559432Y-95902734D01*
X63689954Y-96089141D01*
X63850856Y-96250043D01*
X63850859Y-96250045D01*
X63850861Y-96250047D01*
X63899123Y-96283840D01*
X63942747Y-96338413D01*
X63952000Y-96385414D01*
X63952000Y-99257451D01*
X63932315Y-99324490D01*
X63915681Y-99345132D01*
X63769954Y-99490858D01*
X63667076Y-99637785D01*
X63612499Y-99681410D01*
X63543001Y-99688604D01*
X63480646Y-99657081D01*
X63445232Y-99596852D01*
X63448003Y-99527037D01*
X63453117Y-99514262D01*
X63456739Y-99506496D01*
X63515635Y-99286692D01*
X63535468Y-99060000D01*
X63515635Y-98833308D01*
X63456739Y-98613504D01*
X63360568Y-98407266D01*
X63230047Y-98220861D01*
X63230045Y-98220858D01*
X63069141Y-98059954D01*
X62882734Y-97929432D01*
X62882732Y-97929431D01*
X62676497Y-97833261D01*
X62676488Y-97833258D01*
X62456697Y-97774366D01*
X62456693Y-97774365D01*
X62456692Y-97774365D01*
X62456691Y-97774364D01*
X62456686Y-97774364D01*
X62230002Y-97754532D01*
X62229998Y-97754532D01*
X62003313Y-97774364D01*
X62003302Y-97774366D01*
X61783511Y-97833258D01*
X61783502Y-97833261D01*
X61577267Y-97929431D01*
X61577265Y-97929432D01*
X61390858Y-98059954D01*
X61229954Y-98220858D01*
X61099432Y-98407265D01*
X61099431Y-98407267D01*
X61003261Y-98613502D01*
X61003258Y-98613511D01*
X60944366Y-98833302D01*
X60944364Y-98833313D01*
X60924532Y-99059998D01*
X60924532Y-99060001D01*
X60944364Y-99286686D01*
X60944366Y-99286697D01*
X61003258Y-99506488D01*
X61003261Y-99506497D01*
X61082882Y-99677242D01*
X61094500Y-99729647D01*
X61094500Y-100280740D01*
X61122458Y-100457263D01*
X61154765Y-100556693D01*
X61177689Y-100627248D01*
X61177691Y-100627251D01*
X61258833Y-100786502D01*
X61350515Y-100912691D01*
X61363890Y-100931099D01*
X61363891Y-100931100D01*
X65430609Y-104997819D01*
X65464094Y-105059142D01*
X65459110Y-105128834D01*
X65417238Y-105184767D01*
X65351774Y-105209184D01*
X65342928Y-105209500D01*
X46993751Y-105209500D01*
X46986264Y-105209274D01*
X46715490Y-105192894D01*
X46700625Y-105191089D01*
X46437492Y-105142868D01*
X46422954Y-105139284D01*
X46167569Y-105059703D01*
X46153568Y-105054394D01*
X45909618Y-104944601D01*
X45896359Y-104937642D01*
X45667431Y-104799251D01*
X45655108Y-104790745D01*
X45444526Y-104625764D01*
X45433318Y-104615834D01*
X45244165Y-104426681D01*
X45234235Y-104415473D01*
X45133479Y-104286868D01*
X45069250Y-104204885D01*
X45060752Y-104192574D01*
X44922356Y-103963639D01*
X44915398Y-103950381D01*
X44805605Y-103706431D01*
X44800296Y-103692430D01*
X44780799Y-103629863D01*
X44720714Y-103437044D01*
X44717131Y-103422507D01*
X44668910Y-103159374D01*
X44667105Y-103144509D01*
X44650726Y-102873736D01*
X44650500Y-102866249D01*
X44650500Y-102746752D01*
X46379500Y-102746752D01*
X46379500Y-102993247D01*
X46379501Y-102993263D01*
X46411674Y-103237644D01*
X46411675Y-103237649D01*
X46411676Y-103237655D01*
X46411677Y-103237657D01*
X46475477Y-103475766D01*
X46569809Y-103703502D01*
X46569813Y-103703511D01*
X46693069Y-103916997D01*
X46843132Y-104112560D01*
X46843140Y-104112569D01*
X47017431Y-104286860D01*
X47017439Y-104286867D01*
X47213002Y-104436930D01*
X47213005Y-104436931D01*
X47213008Y-104436934D01*
X47426491Y-104560188D01*
X47573645Y-104621141D01*
X47654233Y-104654522D01*
X47654234Y-104654522D01*
X47654236Y-104654523D01*
X47892345Y-104718324D01*
X48136746Y-104750500D01*
X48136753Y-104750500D01*
X48383247Y-104750500D01*
X48383254Y-104750500D01*
X48627655Y-104718324D01*
X48865764Y-104654523D01*
X49093509Y-104560188D01*
X49306992Y-104436934D01*
X49502560Y-104286868D01*
X49502564Y-104286863D01*
X49502569Y-104286860D01*
X49676860Y-104112569D01*
X49676863Y-104112564D01*
X49676868Y-104112560D01*
X49826934Y-103916992D01*
X49950188Y-103703509D01*
X50044523Y-103475764D01*
X50108324Y-103237655D01*
X50140500Y-102993254D01*
X50140500Y-102746746D01*
X50108324Y-102502345D01*
X50044523Y-102264236D01*
X49950188Y-102036491D01*
X49826934Y-101823008D01*
X49826931Y-101823005D01*
X49826930Y-101823002D01*
X49676867Y-101627439D01*
X49676860Y-101627431D01*
X49502569Y-101453140D01*
X49502560Y-101453132D01*
X49306997Y-101303069D01*
X49093511Y-101179813D01*
X49093502Y-101179809D01*
X48865766Y-101085477D01*
X48738164Y-101051286D01*
X48627655Y-101021676D01*
X48627649Y-101021675D01*
X48627644Y-101021674D01*
X48383263Y-100989501D01*
X48383260Y-100989500D01*
X48383254Y-100989500D01*
X48136746Y-100989500D01*
X48136740Y-100989500D01*
X48136736Y-100989501D01*
X47892355Y-101021674D01*
X47892348Y-101021675D01*
X47892345Y-101021676D01*
X47845636Y-101034191D01*
X47654233Y-101085477D01*
X47426497Y-101179809D01*
X47426488Y-101179813D01*
X47213002Y-101303069D01*
X47017439Y-101453132D01*
X46843132Y-101627439D01*
X46693069Y-101823002D01*
X46569813Y-102036488D01*
X46569809Y-102036497D01*
X46475477Y-102264233D01*
X46411677Y-102502342D01*
X46411674Y-102502355D01*
X46379501Y-102746736D01*
X46379500Y-102746752D01*
X44650500Y-102746752D01*
X44650500Y-99059997D01*
X50765034Y-99059997D01*
X50765034Y-99060002D01*
X50784858Y-99286599D01*
X50784860Y-99286610D01*
X50843730Y-99506317D01*
X50843735Y-99506331D01*
X50939863Y-99712478D01*
X50990974Y-99785472D01*
X51670000Y-99106446D01*
X51670000Y-99112661D01*
X51697259Y-99214394D01*
X51749920Y-99305606D01*
X51824394Y-99380080D01*
X51915606Y-99432741D01*
X52017339Y-99460000D01*
X52023553Y-99460000D01*
X51344526Y-100139025D01*
X51417513Y-100190132D01*
X51417521Y-100190136D01*
X51623668Y-100286264D01*
X51623682Y-100286269D01*
X51843389Y-100345139D01*
X51843400Y-100345141D01*
X52069998Y-100364966D01*
X52070002Y-100364966D01*
X52296599Y-100345141D01*
X52296610Y-100345139D01*
X52516317Y-100286269D01*
X52516331Y-100286264D01*
X52722478Y-100190136D01*
X52795471Y-100139024D01*
X52116447Y-99460000D01*
X52122661Y-99460000D01*
X52224394Y-99432741D01*
X52315606Y-99380080D01*
X52390080Y-99305606D01*
X52442741Y-99214394D01*
X52470000Y-99112661D01*
X52470000Y-99106447D01*
X53149024Y-99785471D01*
X53200136Y-99712478D01*
X53296264Y-99506331D01*
X53296269Y-99506317D01*
X53355139Y-99286610D01*
X53355141Y-99286599D01*
X53374966Y-99060002D01*
X53374966Y-99059997D01*
X53355141Y-98833400D01*
X53355139Y-98833389D01*
X53296269Y-98613682D01*
X53296264Y-98613668D01*
X53200136Y-98407521D01*
X53200132Y-98407513D01*
X53149025Y-98334526D01*
X52470000Y-99013551D01*
X52470000Y-99007339D01*
X52442741Y-98905606D01*
X52390080Y-98814394D01*
X52315606Y-98739920D01*
X52224394Y-98687259D01*
X52122661Y-98660000D01*
X52116445Y-98660000D01*
X52795472Y-97980974D01*
X52722478Y-97929863D01*
X52516331Y-97833735D01*
X52516317Y-97833730D01*
X52296610Y-97774860D01*
X52296599Y-97774858D01*
X52070002Y-97755034D01*
X52069998Y-97755034D01*
X51843400Y-97774858D01*
X51843389Y-97774860D01*
X51623682Y-97833730D01*
X51623673Y-97833734D01*
X51417516Y-97929866D01*
X51417512Y-97929868D01*
X51344526Y-97980973D01*
X51344526Y-97980974D01*
X52023553Y-98660000D01*
X52017339Y-98660000D01*
X51915606Y-98687259D01*
X51824394Y-98739920D01*
X51749920Y-98814394D01*
X51697259Y-98905606D01*
X51670000Y-99007339D01*
X51670000Y-99013552D01*
X50990974Y-98334526D01*
X50990973Y-98334526D01*
X50939868Y-98407512D01*
X50939866Y-98407516D01*
X50843734Y-98613673D01*
X50843730Y-98613682D01*
X50784860Y-98833389D01*
X50784858Y-98833400D01*
X50765034Y-99059997D01*
X44650500Y-99059997D01*
X44650500Y-95249998D01*
X45684532Y-95249998D01*
X45684532Y-95250001D01*
X45704364Y-95476686D01*
X45704366Y-95476697D01*
X45763258Y-95696488D01*
X45763261Y-95696497D01*
X45859431Y-95902732D01*
X45859432Y-95902734D01*
X45989954Y-96089141D01*
X46150858Y-96250045D01*
X46150861Y-96250047D01*
X46337266Y-96380568D01*
X46543504Y-96476739D01*
X46763308Y-96535635D01*
X46925230Y-96549801D01*
X46989998Y-96555468D01*
X46990000Y-96555468D01*
X46990002Y-96555468D01*
X47046673Y-96550509D01*
X47216692Y-96535635D01*
X47436496Y-96476739D01*
X47642734Y-96380568D01*
X47829139Y-96250047D01*
X47990047Y-96089139D01*
X48120568Y-95902734D01*
X48216739Y-95696496D01*
X48275635Y-95476692D01*
X48295468Y-95250000D01*
X48275635Y-95023308D01*
X48216739Y-94803504D01*
X48120568Y-94597266D01*
X47990047Y-94410861D01*
X47990045Y-94410858D01*
X47829141Y-94249954D01*
X47642734Y-94119432D01*
X47642732Y-94119431D01*
X47436497Y-94023261D01*
X47436488Y-94023258D01*
X47216697Y-93964366D01*
X47216693Y-93964365D01*
X47216692Y-93964365D01*
X47216691Y-93964364D01*
X47216686Y-93964364D01*
X46990002Y-93944532D01*
X46989998Y-93944532D01*
X46763313Y-93964364D01*
X46763302Y-93964366D01*
X46543511Y-94023258D01*
X46543502Y-94023261D01*
X46337267Y-94119431D01*
X46337265Y-94119432D01*
X46150858Y-94249954D01*
X45989954Y-94410858D01*
X45859432Y-94597265D01*
X45859431Y-94597267D01*
X45763261Y-94803502D01*
X45763258Y-94803511D01*
X45704366Y-95023302D01*
X45704364Y-95023313D01*
X45684532Y-95249998D01*
X44650500Y-95249998D01*
X44650500Y-90937308D01*
X44670185Y-90870269D01*
X44686819Y-90849627D01*
X45320000Y-90216446D01*
X45320000Y-90222661D01*
X45347259Y-90324394D01*
X45399920Y-90415606D01*
X45474394Y-90490080D01*
X45565606Y-90542741D01*
X45667339Y-90570000D01*
X45673553Y-90570000D01*
X44994526Y-91249025D01*
X45067513Y-91300132D01*
X45067521Y-91300136D01*
X45273668Y-91396264D01*
X45273682Y-91396269D01*
X45493389Y-91455139D01*
X45493400Y-91455141D01*
X45719998Y-91474966D01*
X45720002Y-91474966D01*
X45946599Y-91455141D01*
X45946610Y-91455139D01*
X46166317Y-91396269D01*
X46166331Y-91396264D01*
X46372478Y-91300136D01*
X46445471Y-91249024D01*
X45766447Y-90570000D01*
X45772661Y-90570000D01*
X45874394Y-90542741D01*
X45965606Y-90490080D01*
X46040080Y-90415606D01*
X46092741Y-90324394D01*
X46120000Y-90222661D01*
X46120000Y-90216447D01*
X46799024Y-90895471D01*
X46850136Y-90822478D01*
X46946264Y-90616331D01*
X46946269Y-90616317D01*
X47005139Y-90396610D01*
X47005141Y-90396599D01*
X47024966Y-90170002D01*
X47024966Y-90169998D01*
X54574532Y-90169998D01*
X54574532Y-90170001D01*
X54594364Y-90396686D01*
X54594366Y-90396697D01*
X54653258Y-90616488D01*
X54653261Y-90616497D01*
X54749431Y-90822732D01*
X54749432Y-90822734D01*
X54879954Y-91009141D01*
X55040858Y-91170045D01*
X55040861Y-91170047D01*
X55227266Y-91300568D01*
X55433504Y-91396739D01*
X55653308Y-91455635D01*
X55815230Y-91469801D01*
X55879998Y-91475468D01*
X55880000Y-91475468D01*
X55880002Y-91475468D01*
X55936673Y-91470509D01*
X56106692Y-91455635D01*
X56326496Y-91396739D01*
X56532734Y-91300568D01*
X56719139Y-91170047D01*
X56880047Y-91009139D01*
X57010568Y-90822734D01*
X57106739Y-90616496D01*
X57165635Y-90396692D01*
X57185468Y-90170000D01*
X57165635Y-89943308D01*
X57106739Y-89723504D01*
X57010568Y-89517266D01*
X56880047Y-89330861D01*
X56880045Y-89330858D01*
X56719141Y-89169954D01*
X56532734Y-89039432D01*
X56532732Y-89039431D01*
X56326497Y-88943261D01*
X56326488Y-88943258D01*
X56106697Y-88884366D01*
X56106693Y-88884365D01*
X56106692Y-88884365D01*
X56106691Y-88884364D01*
X56106686Y-88884364D01*
X55880002Y-88864532D01*
X55879998Y-88864532D01*
X55653313Y-88884364D01*
X55653302Y-88884366D01*
X55433511Y-88943258D01*
X55433502Y-88943261D01*
X55227267Y-89039431D01*
X55227265Y-89039432D01*
X55040858Y-89169954D01*
X54879954Y-89330858D01*
X54749432Y-89517265D01*
X54749431Y-89517267D01*
X54653261Y-89723502D01*
X54653258Y-89723511D01*
X54594366Y-89943302D01*
X54594364Y-89943313D01*
X54574532Y-90169998D01*
X47024966Y-90169998D01*
X47024966Y-90169997D01*
X47005141Y-89943400D01*
X47005139Y-89943389D01*
X46946269Y-89723682D01*
X46946264Y-89723668D01*
X46850136Y-89517521D01*
X46850132Y-89517513D01*
X46799025Y-89444526D01*
X46120000Y-90123551D01*
X46120000Y-90117339D01*
X46092741Y-90015606D01*
X46040080Y-89924394D01*
X45965606Y-89849920D01*
X45874394Y-89797259D01*
X45772661Y-89770000D01*
X45766445Y-89770000D01*
X46445472Y-89090974D01*
X46372478Y-89039863D01*
X46166331Y-88943735D01*
X46166317Y-88943730D01*
X45946610Y-88884860D01*
X45946599Y-88884858D01*
X45720002Y-88865034D01*
X45719998Y-88865034D01*
X45493400Y-88884858D01*
X45493389Y-88884860D01*
X45273682Y-88943730D01*
X45273673Y-88943734D01*
X45067516Y-89039866D01*
X45067512Y-89039868D01*
X44994526Y-89090973D01*
X44994526Y-89090974D01*
X45673553Y-89770000D01*
X45667339Y-89770000D01*
X45565606Y-89797259D01*
X45474394Y-89849920D01*
X45399920Y-89924394D01*
X45347259Y-90015606D01*
X45320000Y-90117339D01*
X45320000Y-90123553D01*
X44686819Y-89490372D01*
X44653334Y-89429049D01*
X44650500Y-89402691D01*
X44650500Y-85857308D01*
X44670185Y-85790269D01*
X44686819Y-85769627D01*
X45320000Y-85136446D01*
X45320000Y-85142661D01*
X45347259Y-85244394D01*
X45399920Y-85335606D01*
X45474394Y-85410080D01*
X45565606Y-85462741D01*
X45667339Y-85490000D01*
X45673553Y-85490000D01*
X44994526Y-86169025D01*
X45067513Y-86220132D01*
X45067521Y-86220136D01*
X45273668Y-86316264D01*
X45273682Y-86316269D01*
X45493389Y-86375139D01*
X45493400Y-86375141D01*
X45719998Y-86394966D01*
X45720002Y-86394966D01*
X45946599Y-86375141D01*
X45946610Y-86375139D01*
X46166317Y-86316269D01*
X46166331Y-86316264D01*
X46372478Y-86220136D01*
X46445471Y-86169024D01*
X45766447Y-85490000D01*
X45772661Y-85490000D01*
X45874394Y-85462741D01*
X45965606Y-85410080D01*
X46040080Y-85335606D01*
X46092741Y-85244394D01*
X46120000Y-85142661D01*
X46120000Y-85136447D01*
X46799024Y-85815471D01*
X46850136Y-85742478D01*
X46946264Y-85536331D01*
X46946269Y-85536317D01*
X47005139Y-85316610D01*
X47005141Y-85316599D01*
X47024966Y-85090002D01*
X47024966Y-85089997D01*
X47005141Y-84863400D01*
X47005139Y-84863389D01*
X46946269Y-84643682D01*
X46946264Y-84643668D01*
X46850136Y-84437521D01*
X46850132Y-84437513D01*
X46799025Y-84364526D01*
X46120000Y-85043551D01*
X46120000Y-85037339D01*
X46092741Y-84935606D01*
X46040080Y-84844394D01*
X45965606Y-84769920D01*
X45874394Y-84717259D01*
X45772661Y-84690000D01*
X45766445Y-84690000D01*
X46445472Y-84010974D01*
X46372478Y-83959863D01*
X46166331Y-83863735D01*
X46166317Y-83863730D01*
X45946610Y-83804860D01*
X45946599Y-83804858D01*
X45720002Y-83785034D01*
X45719998Y-83785034D01*
X45493400Y-83804858D01*
X45493389Y-83804860D01*
X45273682Y-83863730D01*
X45273673Y-83863734D01*
X45067516Y-83959866D01*
X45067512Y-83959868D01*
X44994526Y-84010973D01*
X44994526Y-84010974D01*
X45673553Y-84690000D01*
X45667339Y-84690000D01*
X45565606Y-84717259D01*
X45474394Y-84769920D01*
X45399920Y-84844394D01*
X45347259Y-84935606D01*
X45320000Y-85037339D01*
X45320000Y-85043553D01*
X44686819Y-84410372D01*
X44653334Y-84349049D01*
X44650500Y-84322691D01*
X44650500Y-80777308D01*
X44670185Y-80710269D01*
X44686819Y-80689627D01*
X45320000Y-80056446D01*
X45320000Y-80062661D01*
X45347259Y-80164394D01*
X45399920Y-80255606D01*
X45474394Y-80330080D01*
X45565606Y-80382741D01*
X45667339Y-80410000D01*
X45673553Y-80410000D01*
X44994526Y-81089025D01*
X45067513Y-81140132D01*
X45067521Y-81140136D01*
X45273668Y-81236264D01*
X45273682Y-81236269D01*
X45493389Y-81295139D01*
X45493400Y-81295141D01*
X45719998Y-81314966D01*
X45720002Y-81314966D01*
X45946599Y-81295141D01*
X45946610Y-81295139D01*
X46166317Y-81236269D01*
X46166331Y-81236264D01*
X46372478Y-81140136D01*
X46445471Y-81089024D01*
X45766447Y-80410000D01*
X45772661Y-80410000D01*
X45874394Y-80382741D01*
X45965606Y-80330080D01*
X46040080Y-80255606D01*
X46092741Y-80164394D01*
X46120000Y-80062661D01*
X46120000Y-80056447D01*
X46799024Y-80735471D01*
X46850136Y-80662478D01*
X46946264Y-80456331D01*
X46946269Y-80456317D01*
X47005139Y-80236610D01*
X47005141Y-80236599D01*
X47024966Y-80010002D01*
X47024966Y-80009998D01*
X54574532Y-80009998D01*
X54574532Y-80010001D01*
X54594364Y-80236686D01*
X54594366Y-80236697D01*
X54653258Y-80456488D01*
X54653261Y-80456497D01*
X54749431Y-80662732D01*
X54749432Y-80662734D01*
X54879954Y-80849141D01*
X55040858Y-81010045D01*
X55040861Y-81010047D01*
X55227266Y-81140568D01*
X55433504Y-81236739D01*
X55653308Y-81295635D01*
X55815230Y-81309801D01*
X55879998Y-81315468D01*
X55880000Y-81315468D01*
X55880002Y-81315468D01*
X55936673Y-81310509D01*
X56106692Y-81295635D01*
X56326496Y-81236739D01*
X56532734Y-81140568D01*
X56719139Y-81010047D01*
X56880047Y-80849139D01*
X57010568Y-80662734D01*
X57106739Y-80456496D01*
X57150726Y-80292333D01*
X57187090Y-80232675D01*
X57249936Y-80202145D01*
X57319312Y-80210439D01*
X57373190Y-80254924D01*
X57394465Y-80321476D01*
X57394500Y-80324428D01*
X57394500Y-80807870D01*
X57394501Y-80807876D01*
X57400908Y-80867483D01*
X57451202Y-81002328D01*
X57451206Y-81002335D01*
X57537452Y-81117544D01*
X57537455Y-81117547D01*
X57652664Y-81203793D01*
X57652671Y-81203797D01*
X57787517Y-81254091D01*
X57787516Y-81254091D01*
X57794444Y-81254835D01*
X57847127Y-81260500D01*
X58992872Y-81260499D01*
X59052483Y-81254091D01*
X59187331Y-81203796D01*
X59188430Y-81202972D01*
X59189717Y-81202492D01*
X59195112Y-81199547D01*
X59195535Y-81200322D01*
X59253887Y-81178552D01*
X59310198Y-81187673D01*
X59390873Y-81221091D01*
X59556777Y-81254091D01*
X59588992Y-81260499D01*
X59588996Y-81260500D01*
X59588997Y-81260500D01*
X59791004Y-81260500D01*
X59791005Y-81260499D01*
X59989127Y-81221091D01*
X60175756Y-81143786D01*
X60256110Y-81090094D01*
X60322786Y-81069217D01*
X60390166Y-81087701D01*
X60393865Y-81090078D01*
X60474244Y-81143786D01*
X60660873Y-81221091D01*
X60826777Y-81254091D01*
X60858992Y-81260499D01*
X60858996Y-81260500D01*
X60858997Y-81260500D01*
X61061004Y-81260500D01*
X61061005Y-81260499D01*
X61259127Y-81221091D01*
X61445756Y-81143786D01*
X61613718Y-81031558D01*
X61756558Y-80888718D01*
X61760308Y-80883106D01*
X61813922Y-80838302D01*
X61863408Y-80828000D01*
X62427452Y-80828000D01*
X62494491Y-80847685D01*
X62515128Y-80864314D01*
X62660861Y-81010047D01*
X62847266Y-81140568D01*
X63053504Y-81236739D01*
X63273308Y-81295635D01*
X63435230Y-81309801D01*
X63499998Y-81315468D01*
X63500000Y-81315468D01*
X63500002Y-81315468D01*
X63556673Y-81310509D01*
X63726692Y-81295635D01*
X63946496Y-81236739D01*
X64152734Y-81140568D01*
X64339139Y-81010047D01*
X64500047Y-80849139D01*
X64630568Y-80662734D01*
X64726739Y-80456496D01*
X64785635Y-80236692D01*
X64805468Y-80010000D01*
X64785635Y-79783308D01*
X64726739Y-79563504D01*
X64630568Y-79357266D01*
X64500047Y-79170861D01*
X64500045Y-79170858D01*
X64339141Y-79009954D01*
X64152734Y-78879432D01*
X64152732Y-78879431D01*
X63946497Y-78783261D01*
X63946488Y-78783258D01*
X63726697Y-78724366D01*
X63726693Y-78724365D01*
X63726692Y-78724365D01*
X63726691Y-78724364D01*
X63726686Y-78724364D01*
X63500002Y-78704532D01*
X63499998Y-78704532D01*
X63273313Y-78724364D01*
X63273302Y-78724366D01*
X63053511Y-78783258D01*
X63053502Y-78783261D01*
X62847267Y-78879431D01*
X62847265Y-78879432D01*
X62660862Y-79009951D01*
X62587998Y-79082816D01*
X62515131Y-79155682D01*
X62453811Y-79189166D01*
X62427452Y-79192000D01*
X61863408Y-79192000D01*
X61796369Y-79172315D01*
X61760308Y-79136894D01*
X61756557Y-79131281D01*
X61756553Y-79131276D01*
X61613718Y-78988441D01*
X61445762Y-78876217D01*
X61445757Y-78876215D01*
X61445756Y-78876214D01*
X61411528Y-78862036D01*
X61371301Y-78835156D01*
X60643266Y-78107120D01*
X60643262Y-78107117D01*
X60509292Y-78017600D01*
X60509279Y-78017593D01*
X60360424Y-77955936D01*
X60360412Y-77955933D01*
X60202388Y-77924500D01*
X60202384Y-77924500D01*
X57066934Y-77924500D01*
X57066929Y-77924500D01*
X56908905Y-77955933D01*
X56908893Y-77955936D01*
X56760036Y-78017594D01*
X56760034Y-78017595D01*
X56679719Y-78071261D01*
X56679718Y-78071262D01*
X56626054Y-78107118D01*
X56569086Y-78164086D01*
X56512118Y-78221055D01*
X56512116Y-78221057D01*
X56057569Y-78675603D01*
X55996246Y-78709088D01*
X55959081Y-78711450D01*
X55880002Y-78704532D01*
X55879998Y-78704532D01*
X55653313Y-78724364D01*
X55653302Y-78724366D01*
X55433511Y-78783258D01*
X55433502Y-78783261D01*
X55227267Y-78879431D01*
X55227265Y-78879432D01*
X55040858Y-79009954D01*
X54879954Y-79170858D01*
X54749432Y-79357265D01*
X54749431Y-79357267D01*
X54653261Y-79563502D01*
X54653258Y-79563511D01*
X54594366Y-79783302D01*
X54594364Y-79783313D01*
X54574532Y-80009998D01*
X47024966Y-80009998D01*
X47024966Y-80009997D01*
X47005141Y-79783400D01*
X47005139Y-79783389D01*
X46946269Y-79563682D01*
X46946264Y-79563668D01*
X46850136Y-79357521D01*
X46850132Y-79357513D01*
X46799025Y-79284526D01*
X46120000Y-79963551D01*
X46120000Y-79957339D01*
X46092741Y-79855606D01*
X46040080Y-79764394D01*
X45965606Y-79689920D01*
X45874394Y-79637259D01*
X45772661Y-79610000D01*
X45766445Y-79610000D01*
X46445472Y-78930974D01*
X46372478Y-78879863D01*
X46166331Y-78783735D01*
X46166317Y-78783730D01*
X45946610Y-78724860D01*
X45946599Y-78724858D01*
X45720002Y-78705034D01*
X45719998Y-78705034D01*
X45493400Y-78724858D01*
X45493389Y-78724860D01*
X45273682Y-78783730D01*
X45273673Y-78783734D01*
X45067516Y-78879866D01*
X45067512Y-78879868D01*
X44994526Y-78930973D01*
X44994526Y-78930974D01*
X45673553Y-79610000D01*
X45667339Y-79610000D01*
X45565606Y-79637259D01*
X45474394Y-79689920D01*
X45399920Y-79764394D01*
X45347259Y-79855606D01*
X45320000Y-79957339D01*
X45320000Y-79963553D01*
X44686819Y-79330372D01*
X44653334Y-79269049D01*
X44650500Y-79242691D01*
X44650500Y-75697308D01*
X44670185Y-75630269D01*
X44686819Y-75609627D01*
X45320000Y-74976446D01*
X45320000Y-74982661D01*
X45347259Y-75084394D01*
X45399920Y-75175606D01*
X45474394Y-75250080D01*
X45565606Y-75302741D01*
X45667339Y-75330000D01*
X45673553Y-75330000D01*
X44994526Y-76009025D01*
X45067513Y-76060132D01*
X45067521Y-76060136D01*
X45273668Y-76156264D01*
X45273682Y-76156269D01*
X45493389Y-76215139D01*
X45493400Y-76215141D01*
X45719998Y-76234966D01*
X45720002Y-76234966D01*
X45946599Y-76215141D01*
X45946610Y-76215139D01*
X46166317Y-76156269D01*
X46166331Y-76156264D01*
X46372478Y-76060136D01*
X46445471Y-76009024D01*
X45766447Y-75330000D01*
X45772661Y-75330000D01*
X45874394Y-75302741D01*
X45965606Y-75250080D01*
X46040080Y-75175606D01*
X46092741Y-75084394D01*
X46120000Y-74982661D01*
X46120000Y-74976447D01*
X46799024Y-75655471D01*
X46850136Y-75582478D01*
X46946264Y-75376331D01*
X46946269Y-75376317D01*
X47005139Y-75156610D01*
X47005141Y-75156599D01*
X47024966Y-74930002D01*
X47024966Y-74929998D01*
X54574532Y-74929998D01*
X54574532Y-74930001D01*
X54594364Y-75156686D01*
X54594366Y-75156697D01*
X54653258Y-75376488D01*
X54653261Y-75376497D01*
X54749431Y-75582732D01*
X54749432Y-75582734D01*
X54879954Y-75769141D01*
X55040858Y-75930045D01*
X55040861Y-75930047D01*
X55227266Y-76060568D01*
X55433504Y-76156739D01*
X55653308Y-76215635D01*
X55815230Y-76229801D01*
X55879998Y-76235468D01*
X55880000Y-76235468D01*
X55880002Y-76235468D01*
X55936673Y-76230509D01*
X56106692Y-76215635D01*
X56326496Y-76156739D01*
X56532734Y-76060568D01*
X56719139Y-75930047D01*
X56880047Y-75769139D01*
X57010568Y-75582734D01*
X57106739Y-75376496D01*
X57150726Y-75212333D01*
X57187090Y-75152675D01*
X57249936Y-75122145D01*
X57319312Y-75130439D01*
X57373190Y-75174924D01*
X57394465Y-75241476D01*
X57394500Y-75244428D01*
X57394500Y-75727870D01*
X57394501Y-75727876D01*
X57400908Y-75787483D01*
X57451202Y-75922328D01*
X57451206Y-75922335D01*
X57537452Y-76037544D01*
X57537455Y-76037547D01*
X57652664Y-76123793D01*
X57652671Y-76123797D01*
X57787517Y-76174091D01*
X57787516Y-76174091D01*
X57794444Y-76174835D01*
X57847127Y-76180500D01*
X58992872Y-76180499D01*
X59052483Y-76174091D01*
X59187331Y-76123796D01*
X59188430Y-76122972D01*
X59189717Y-76122492D01*
X59195112Y-76119547D01*
X59195535Y-76120322D01*
X59253887Y-76098552D01*
X59310198Y-76107673D01*
X59390873Y-76141091D01*
X59556777Y-76174091D01*
X59588992Y-76180499D01*
X59588996Y-76180500D01*
X59588997Y-76180500D01*
X59791004Y-76180500D01*
X59791005Y-76180499D01*
X59989127Y-76141091D01*
X60175756Y-76063786D01*
X60256110Y-76010094D01*
X60322786Y-75989217D01*
X60390166Y-76007701D01*
X60393865Y-76010078D01*
X60474244Y-76063786D01*
X60660873Y-76141091D01*
X60826777Y-76174091D01*
X60858992Y-76180499D01*
X60858996Y-76180500D01*
X60858997Y-76180500D01*
X61061004Y-76180500D01*
X61061005Y-76180499D01*
X61259127Y-76141091D01*
X61445756Y-76063786D01*
X61613718Y-75951558D01*
X61756558Y-75808718D01*
X61760308Y-75803106D01*
X61813922Y-75758302D01*
X61863408Y-75748000D01*
X62427452Y-75748000D01*
X62494491Y-75767685D01*
X62515128Y-75784314D01*
X62660861Y-75930047D01*
X62847266Y-76060568D01*
X63053504Y-76156739D01*
X63273308Y-76215635D01*
X63435230Y-76229801D01*
X63499998Y-76235468D01*
X63500000Y-76235468D01*
X63500002Y-76235468D01*
X63556673Y-76230509D01*
X63726692Y-76215635D01*
X63946496Y-76156739D01*
X64152734Y-76060568D01*
X64339139Y-75930047D01*
X64500047Y-75769139D01*
X64630568Y-75582734D01*
X64726739Y-75376496D01*
X64785635Y-75156692D01*
X64805468Y-74930000D01*
X64785635Y-74703308D01*
X64726739Y-74483504D01*
X64630568Y-74277266D01*
X64500047Y-74090861D01*
X64500045Y-74090858D01*
X64339141Y-73929954D01*
X64152734Y-73799432D01*
X64152732Y-73799431D01*
X63946497Y-73703261D01*
X63946488Y-73703258D01*
X63726697Y-73644366D01*
X63726693Y-73644365D01*
X63726692Y-73644365D01*
X63726691Y-73644364D01*
X63726686Y-73644364D01*
X63500002Y-73624532D01*
X63499998Y-73624532D01*
X63273313Y-73644364D01*
X63273302Y-73644366D01*
X63053511Y-73703258D01*
X63053502Y-73703261D01*
X62847267Y-73799431D01*
X62847265Y-73799432D01*
X62660862Y-73929951D01*
X62587998Y-74002816D01*
X62515131Y-74075682D01*
X62453811Y-74109166D01*
X62427452Y-74112000D01*
X61863408Y-74112000D01*
X61796369Y-74092315D01*
X61760308Y-74056894D01*
X61756557Y-74051281D01*
X61756553Y-74051276D01*
X61613718Y-73908441D01*
X61445762Y-73796217D01*
X61445757Y-73796215D01*
X61445756Y-73796214D01*
X61411528Y-73782036D01*
X61371301Y-73755156D01*
X60643266Y-73027120D01*
X60643262Y-73027117D01*
X60509292Y-72937600D01*
X60509279Y-72937593D01*
X60360424Y-72875936D01*
X60360412Y-72875933D01*
X60202388Y-72844500D01*
X60202384Y-72844500D01*
X57066934Y-72844500D01*
X57066929Y-72844500D01*
X56908905Y-72875933D01*
X56908893Y-72875936D01*
X56760036Y-72937594D01*
X56760034Y-72937595D01*
X56679719Y-72991261D01*
X56679718Y-72991262D01*
X56626054Y-73027118D01*
X56569086Y-73084086D01*
X56512118Y-73141055D01*
X56512116Y-73141057D01*
X56057569Y-73595603D01*
X55996246Y-73629088D01*
X55959081Y-73631450D01*
X55880002Y-73624532D01*
X55879998Y-73624532D01*
X55653313Y-73644364D01*
X55653302Y-73644366D01*
X55433511Y-73703258D01*
X55433502Y-73703261D01*
X55227267Y-73799431D01*
X55227265Y-73799432D01*
X55040858Y-73929954D01*
X54879954Y-74090858D01*
X54749432Y-74277265D01*
X54749431Y-74277267D01*
X54653261Y-74483502D01*
X54653258Y-74483511D01*
X54594366Y-74703302D01*
X54594364Y-74703313D01*
X54574532Y-74929998D01*
X47024966Y-74929998D01*
X47024966Y-74929997D01*
X47005141Y-74703400D01*
X47005139Y-74703389D01*
X46946269Y-74483682D01*
X46946264Y-74483668D01*
X46850136Y-74277521D01*
X46850132Y-74277513D01*
X46799025Y-74204526D01*
X46120000Y-74883551D01*
X46120000Y-74877339D01*
X46092741Y-74775606D01*
X46040080Y-74684394D01*
X45965606Y-74609920D01*
X45874394Y-74557259D01*
X45772661Y-74530000D01*
X45766445Y-74530000D01*
X46445472Y-73850974D01*
X46372478Y-73799863D01*
X46166331Y-73703735D01*
X46166317Y-73703730D01*
X45946610Y-73644860D01*
X45946599Y-73644858D01*
X45720002Y-73625034D01*
X45719998Y-73625034D01*
X45493400Y-73644858D01*
X45493389Y-73644860D01*
X45273682Y-73703730D01*
X45273673Y-73703734D01*
X45067516Y-73799866D01*
X45067512Y-73799868D01*
X44994526Y-73850973D01*
X44994526Y-73850974D01*
X45673553Y-74530000D01*
X45667339Y-74530000D01*
X45565606Y-74557259D01*
X45474394Y-74609920D01*
X45399920Y-74684394D01*
X45347259Y-74775606D01*
X45320000Y-74877339D01*
X45320000Y-74883553D01*
X44686819Y-74250372D01*
X44653334Y-74189049D01*
X44650500Y-74162691D01*
X44650500Y-70617308D01*
X44670185Y-70550269D01*
X44686819Y-70529627D01*
X45320000Y-69896446D01*
X45320000Y-69902661D01*
X45347259Y-70004394D01*
X45399920Y-70095606D01*
X45474394Y-70170080D01*
X45565606Y-70222741D01*
X45667339Y-70250000D01*
X45673553Y-70250000D01*
X44994526Y-70929025D01*
X45067513Y-70980132D01*
X45067521Y-70980136D01*
X45273668Y-71076264D01*
X45273682Y-71076269D01*
X45493389Y-71135139D01*
X45493400Y-71135141D01*
X45719998Y-71154966D01*
X45720002Y-71154966D01*
X45946599Y-71135141D01*
X45946610Y-71135139D01*
X46166317Y-71076269D01*
X46166331Y-71076264D01*
X46372478Y-70980136D01*
X46445471Y-70929024D01*
X45766447Y-70250000D01*
X45772661Y-70250000D01*
X45874394Y-70222741D01*
X45965606Y-70170080D01*
X46040080Y-70095606D01*
X46092741Y-70004394D01*
X46120000Y-69902661D01*
X46120000Y-69896447D01*
X46799024Y-70575471D01*
X46850136Y-70502478D01*
X46946264Y-70296331D01*
X46946269Y-70296317D01*
X47005139Y-70076610D01*
X47005141Y-70076599D01*
X47024966Y-69850002D01*
X47024966Y-69849997D01*
X47005141Y-69623400D01*
X47005139Y-69623389D01*
X46946269Y-69403682D01*
X46946264Y-69403668D01*
X46850136Y-69197521D01*
X46850132Y-69197513D01*
X46799025Y-69124526D01*
X46120000Y-69803551D01*
X46120000Y-69797339D01*
X46092741Y-69695606D01*
X46040080Y-69604394D01*
X45965606Y-69529920D01*
X45874394Y-69477259D01*
X45772661Y-69450000D01*
X45766445Y-69450000D01*
X46445472Y-68770974D01*
X46372478Y-68719863D01*
X46166331Y-68623735D01*
X46166317Y-68623730D01*
X45946610Y-68564860D01*
X45946599Y-68564858D01*
X45720002Y-68545034D01*
X45719998Y-68545034D01*
X45493400Y-68564858D01*
X45493389Y-68564860D01*
X45273682Y-68623730D01*
X45273673Y-68623734D01*
X45067516Y-68719866D01*
X45067512Y-68719868D01*
X44994526Y-68770973D01*
X44994526Y-68770974D01*
X45673553Y-69450000D01*
X45667339Y-69450000D01*
X45565606Y-69477259D01*
X45474394Y-69529920D01*
X45399920Y-69604394D01*
X45347259Y-69695606D01*
X45320000Y-69797339D01*
X45320000Y-69803553D01*
X44686819Y-69170372D01*
X44653334Y-69109049D01*
X44650500Y-69082691D01*
X44650500Y-66594997D01*
X53940034Y-66594997D01*
X53940034Y-66595002D01*
X53959858Y-66821599D01*
X53959860Y-66821610D01*
X54018730Y-67041317D01*
X54018735Y-67041331D01*
X54114863Y-67247478D01*
X54165974Y-67320472D01*
X54845000Y-66641446D01*
X54845000Y-66647661D01*
X54872259Y-66749394D01*
X54924920Y-66840606D01*
X54999394Y-66915080D01*
X55090606Y-66967741D01*
X55192339Y-66995000D01*
X55198553Y-66995000D01*
X54519526Y-67674025D01*
X54592513Y-67725132D01*
X54592521Y-67725136D01*
X54798668Y-67821264D01*
X54798682Y-67821269D01*
X55018389Y-67880139D01*
X55018400Y-67880141D01*
X55244998Y-67899966D01*
X55245002Y-67899966D01*
X55471599Y-67880141D01*
X55471610Y-67880139D01*
X55691317Y-67821269D01*
X55691331Y-67821264D01*
X55897478Y-67725136D01*
X55970471Y-67674024D01*
X55291447Y-66995000D01*
X55297661Y-66995000D01*
X55399394Y-66967741D01*
X55490606Y-66915080D01*
X55565080Y-66840606D01*
X55617741Y-66749394D01*
X55645000Y-66647661D01*
X55645000Y-66641447D01*
X56324024Y-67320471D01*
X56375136Y-67247478D01*
X56471264Y-67041331D01*
X56471269Y-67041317D01*
X56530139Y-66821610D01*
X56530141Y-66821599D01*
X56549966Y-66595002D01*
X56549966Y-66594997D01*
X56530141Y-66368400D01*
X56530139Y-66368389D01*
X56471269Y-66148682D01*
X56471264Y-66148668D01*
X56375136Y-65942521D01*
X56375132Y-65942513D01*
X56324025Y-65869526D01*
X55645000Y-66548551D01*
X55645000Y-66542339D01*
X55617741Y-66440606D01*
X55565080Y-66349394D01*
X55490606Y-66274920D01*
X55399394Y-66222259D01*
X55297661Y-66195000D01*
X55291445Y-66195000D01*
X55970472Y-65515974D01*
X55897478Y-65464863D01*
X55691331Y-65368735D01*
X55691317Y-65368730D01*
X55471610Y-65309860D01*
X55471599Y-65309858D01*
X55245002Y-65290034D01*
X55244998Y-65290034D01*
X55018400Y-65309858D01*
X55018389Y-65309860D01*
X54798682Y-65368730D01*
X54798673Y-65368734D01*
X54592516Y-65464866D01*
X54592512Y-65464868D01*
X54519526Y-65515973D01*
X54519526Y-65515974D01*
X55198553Y-66195000D01*
X55192339Y-66195000D01*
X55090606Y-66222259D01*
X54999394Y-66274920D01*
X54924920Y-66349394D01*
X54872259Y-66440606D01*
X54845000Y-66542339D01*
X54845000Y-66548552D01*
X54165974Y-65869526D01*
X54165973Y-65869526D01*
X54114868Y-65942512D01*
X54114866Y-65942516D01*
X54018734Y-66148673D01*
X54018730Y-66148682D01*
X53959860Y-66368389D01*
X53959858Y-66368400D01*
X53940034Y-66594997D01*
X44650500Y-66594997D01*
X44650500Y-63287155D01*
X46960000Y-63287155D01*
X46960000Y-63885000D01*
X47944314Y-63885000D01*
X47939920Y-63889394D01*
X47887259Y-63980606D01*
X47860000Y-64082339D01*
X47860000Y-64187661D01*
X47887259Y-64289394D01*
X47939920Y-64380606D01*
X47944314Y-64385000D01*
X46960000Y-64385000D01*
X46960000Y-64982844D01*
X46966401Y-65042372D01*
X46966403Y-65042379D01*
X47016645Y-65177086D01*
X47016649Y-65177093D01*
X47102809Y-65292187D01*
X47102812Y-65292190D01*
X47217906Y-65378350D01*
X47217913Y-65378354D01*
X47352620Y-65428596D01*
X47352627Y-65428598D01*
X47412155Y-65434999D01*
X47412172Y-65435000D01*
X48010000Y-65435000D01*
X48010000Y-64450686D01*
X48014394Y-64455080D01*
X48105606Y-64507741D01*
X48207339Y-64535000D01*
X48312661Y-64535000D01*
X48414394Y-64507741D01*
X48505606Y-64455080D01*
X48510000Y-64450686D01*
X48510000Y-65435000D01*
X49107828Y-65435000D01*
X49107844Y-65434999D01*
X49167372Y-65428598D01*
X49167379Y-65428596D01*
X49302086Y-65378354D01*
X49302093Y-65378350D01*
X49417187Y-65292190D01*
X49417190Y-65292187D01*
X49503350Y-65177093D01*
X49503354Y-65177086D01*
X49553595Y-65042381D01*
X49554946Y-65036667D01*
X49589516Y-64975948D01*
X49651424Y-64943558D01*
X49721017Y-64949781D01*
X49763306Y-64977493D01*
X49920858Y-65135045D01*
X49920861Y-65135047D01*
X50107266Y-65265568D01*
X50313504Y-65361739D01*
X50313509Y-65361740D01*
X50313511Y-65361741D01*
X50366415Y-65375916D01*
X50533308Y-65420635D01*
X50695230Y-65434801D01*
X50759998Y-65440468D01*
X50760000Y-65440468D01*
X50760002Y-65440468D01*
X50822511Y-65434999D01*
X50986692Y-65420635D01*
X51206496Y-65361739D01*
X51412734Y-65265568D01*
X51599139Y-65135047D01*
X51760047Y-64974139D01*
X51890568Y-64787734D01*
X51986739Y-64581496D01*
X52045635Y-64361692D01*
X52065468Y-64135000D01*
X52063916Y-64117266D01*
X52053153Y-63994239D01*
X52045635Y-63908308D01*
X51986739Y-63688504D01*
X51890568Y-63482266D01*
X51760047Y-63295861D01*
X51760045Y-63295858D01*
X51599141Y-63134954D01*
X51412734Y-63004432D01*
X51412732Y-63004431D01*
X51206497Y-62908261D01*
X51206488Y-62908258D01*
X50986697Y-62849366D01*
X50986693Y-62849365D01*
X50986692Y-62849365D01*
X50986691Y-62849364D01*
X50986686Y-62849364D01*
X50760002Y-62829532D01*
X50759998Y-62829532D01*
X50533313Y-62849364D01*
X50533302Y-62849366D01*
X50313511Y-62908258D01*
X50313502Y-62908261D01*
X50107267Y-63004431D01*
X50107265Y-63004432D01*
X49920862Y-63134951D01*
X49763306Y-63292507D01*
X49701983Y-63325991D01*
X49632291Y-63321007D01*
X49576358Y-63279135D01*
X49554947Y-63233334D01*
X49553597Y-63227622D01*
X49503354Y-63092913D01*
X49503350Y-63092906D01*
X49417190Y-62977812D01*
X49417187Y-62977809D01*
X49302093Y-62891649D01*
X49302086Y-62891645D01*
X49167379Y-62841403D01*
X49167372Y-62841401D01*
X49107844Y-62835000D01*
X48510000Y-62835000D01*
X48510000Y-63819314D01*
X48505606Y-63814920D01*
X48414394Y-63762259D01*
X48312661Y-63735000D01*
X48207339Y-63735000D01*
X48105606Y-63762259D01*
X48014394Y-63814920D01*
X48010000Y-63819314D01*
X48010000Y-62835000D01*
X47412155Y-62835000D01*
X47352627Y-62841401D01*
X47352620Y-62841403D01*
X47217913Y-62891645D01*
X47217906Y-62891649D01*
X47102812Y-62977809D01*
X47102809Y-62977812D01*
X47016649Y-63092906D01*
X47016645Y-63092913D01*
X46966403Y-63227620D01*
X46966401Y-63227627D01*
X46960000Y-63287155D01*
X44650500Y-63287155D01*
X44650500Y-61594998D01*
X53939532Y-61594998D01*
X53939532Y-61595001D01*
X53959364Y-61821686D01*
X53959366Y-61821697D01*
X54018258Y-62041488D01*
X54018261Y-62041497D01*
X54114431Y-62247732D01*
X54114432Y-62247734D01*
X54244954Y-62434141D01*
X54405858Y-62595045D01*
X54405861Y-62595047D01*
X54592266Y-62725568D01*
X54798504Y-62821739D01*
X54798509Y-62821740D01*
X54798511Y-62821741D01*
X54827588Y-62829532D01*
X55018308Y-62880635D01*
X55180230Y-62894801D01*
X55244998Y-62900468D01*
X55245000Y-62900468D01*
X55245002Y-62900468D01*
X55301673Y-62895509D01*
X55471692Y-62880635D01*
X55691496Y-62821739D01*
X55897734Y-62725568D01*
X56084139Y-62595047D01*
X56245047Y-62434139D01*
X56375568Y-62247734D01*
X56471739Y-62041496D01*
X56530635Y-61821692D01*
X56550468Y-61595000D01*
X56530635Y-61368308D01*
X56471739Y-61148504D01*
X56375568Y-60942266D01*
X56245047Y-60755861D01*
X56245045Y-60755858D01*
X56084141Y-60594954D01*
X55897734Y-60464432D01*
X55897732Y-60464431D01*
X55691497Y-60368261D01*
X55691488Y-60368258D01*
X55471697Y-60309366D01*
X55471693Y-60309365D01*
X55471692Y-60309365D01*
X55471691Y-60309364D01*
X55471686Y-60309364D01*
X55245002Y-60289532D01*
X55244998Y-60289532D01*
X55018313Y-60309364D01*
X55018302Y-60309366D01*
X54798511Y-60368258D01*
X54798502Y-60368261D01*
X54592267Y-60464431D01*
X54592265Y-60464432D01*
X54405858Y-60594954D01*
X54244954Y-60755858D01*
X54114432Y-60942265D01*
X54114431Y-60942267D01*
X54018261Y-61148502D01*
X54018258Y-61148511D01*
X53959366Y-61368302D01*
X53959364Y-61368313D01*
X53939532Y-61594998D01*
X44650500Y-61594998D01*
X44650500Y-57149997D01*
X44954652Y-57149997D01*
X44954652Y-57150002D01*
X44974028Y-57507368D01*
X44974029Y-57507385D01*
X45031926Y-57860539D01*
X45031932Y-57860565D01*
X45127672Y-58205392D01*
X45127674Y-58205399D01*
X45260142Y-58537870D01*
X45260151Y-58537888D01*
X45427784Y-58854077D01*
X45427787Y-58854082D01*
X45427789Y-58854085D01*
X45624968Y-59144903D01*
X45628634Y-59150309D01*
X45628641Y-59150319D01*
X45719839Y-59257685D01*
X45860332Y-59423086D01*
X46120163Y-59669211D01*
X46405081Y-59885800D01*
X46711747Y-60070315D01*
X46711749Y-60070316D01*
X46711755Y-60070319D01*
X46973556Y-60191440D01*
X47036565Y-60220591D01*
X47375726Y-60334868D01*
X47725254Y-60411805D01*
X48081052Y-60450500D01*
X48081058Y-60450500D01*
X48438942Y-60450500D01*
X48438948Y-60450500D01*
X48794746Y-60411805D01*
X49144274Y-60334868D01*
X49483435Y-60220591D01*
X49808253Y-60070315D01*
X50114919Y-59885800D01*
X50399837Y-59669211D01*
X50659668Y-59423086D01*
X50891365Y-59150311D01*
X51092211Y-58854085D01*
X51259853Y-58537880D01*
X51392324Y-58205403D01*
X51488071Y-57860552D01*
X51525305Y-57633435D01*
X51545970Y-57507385D01*
X51545970Y-57507382D01*
X51545972Y-57507371D01*
X51565348Y-57150000D01*
X51545972Y-56792629D01*
X51531143Y-56702179D01*
X51488073Y-56439460D01*
X51488072Y-56439459D01*
X51488071Y-56439448D01*
X51392324Y-56094597D01*
X51259853Y-55762120D01*
X51092211Y-55445915D01*
X50891365Y-55149689D01*
X50891361Y-55149684D01*
X50891358Y-55149680D01*
X50659668Y-54876914D01*
X50573126Y-54794937D01*
X50399837Y-54630789D01*
X50399830Y-54630783D01*
X50399827Y-54630781D01*
X50332245Y-54579407D01*
X50114919Y-54414200D01*
X49808253Y-54229685D01*
X49808252Y-54229684D01*
X49808248Y-54229682D01*
X49808244Y-54229680D01*
X49483447Y-54079414D01*
X49483441Y-54079411D01*
X49483435Y-54079409D01*
X49313854Y-54022270D01*
X49144273Y-53965131D01*
X48794744Y-53888194D01*
X48438949Y-53849500D01*
X48438948Y-53849500D01*
X48081052Y-53849500D01*
X48081050Y-53849500D01*
X47725255Y-53888194D01*
X47375726Y-53965131D01*
X47119970Y-54051306D01*
X47036565Y-54079409D01*
X47036563Y-54079410D01*
X47036552Y-54079414D01*
X46711755Y-54229680D01*
X46711751Y-54229682D01*
X46483367Y-54367096D01*
X46405081Y-54414200D01*
X46316768Y-54481333D01*
X46120172Y-54630781D01*
X46120163Y-54630789D01*
X45860331Y-54876914D01*
X45628641Y-55149680D01*
X45628634Y-55149690D01*
X45427790Y-55445913D01*
X45427784Y-55445922D01*
X45260151Y-55762111D01*
X45260142Y-55762129D01*
X45127674Y-56094600D01*
X45127672Y-56094607D01*
X45031932Y-56439434D01*
X45031926Y-56439460D01*
X44974029Y-56792614D01*
X44974028Y-56792631D01*
X44954652Y-57149997D01*
X44650500Y-57149997D01*
X44650500Y-46993750D01*
X44650726Y-46986263D01*
X44667105Y-46715490D01*
X44668910Y-46700625D01*
X44717131Y-46437492D01*
X44720715Y-46422954D01*
X44800299Y-46167559D01*
X44805601Y-46153578D01*
X44915401Y-45909611D01*
X44922352Y-45896366D01*
X45060757Y-45667417D01*
X45069244Y-45655121D01*
X45234242Y-45444517D01*
X45244157Y-45433326D01*
X45433326Y-45244157D01*
X45444517Y-45234242D01*
X45655121Y-45069244D01*
X45667417Y-45060757D01*
X45896366Y-44922352D01*
X45909611Y-44915401D01*
X46153578Y-44805601D01*
X46167559Y-44800299D01*
X46422959Y-44720713D01*
X46437488Y-44717131D01*
X46700629Y-44668909D01*
X46715487Y-44667105D01*
X46986264Y-44650726D01*
X46993751Y-44650500D01*
X74806000Y-44650500D01*
X74873039Y-44670185D01*
G37*
G04 #@! TD.AperFunction*
G04 #@! TA.AperFunction,Conductor*
G36*
X105413736Y-44650726D02*
G01*
X105684510Y-44667105D01*
X105699372Y-44668909D01*
X105962507Y-44717131D01*
X105977044Y-44720714D01*
X106232435Y-44800298D01*
X106246427Y-44805603D01*
X106490381Y-44915398D01*
X106503639Y-44922356D01*
X106732574Y-45060752D01*
X106744885Y-45069250D01*
X106955473Y-45234235D01*
X106966681Y-45244165D01*
X107155834Y-45433318D01*
X107165764Y-45444526D01*
X107330745Y-45655108D01*
X107339251Y-45667431D01*
X107477642Y-45896359D01*
X107484601Y-45909618D01*
X107594394Y-46153568D01*
X107599703Y-46167569D01*
X107679284Y-46422954D01*
X107682868Y-46437492D01*
X107731089Y-46700625D01*
X107732894Y-46715489D01*
X107749274Y-46986262D01*
X107749500Y-46993750D01*
X107749500Y-69082691D01*
X107729815Y-69149730D01*
X107713181Y-69170372D01*
X107080000Y-69803553D01*
X107080000Y-69797339D01*
X107052741Y-69695606D01*
X107000080Y-69604394D01*
X106925606Y-69529920D01*
X106834394Y-69477259D01*
X106732661Y-69450000D01*
X106726445Y-69450000D01*
X107405472Y-68770974D01*
X107332478Y-68719863D01*
X107126331Y-68623735D01*
X107126317Y-68623730D01*
X106906610Y-68564860D01*
X106906599Y-68564858D01*
X106680002Y-68545034D01*
X106679998Y-68545034D01*
X106453400Y-68564858D01*
X106453389Y-68564860D01*
X106233682Y-68623730D01*
X106233673Y-68623734D01*
X106027516Y-68719866D01*
X106027512Y-68719868D01*
X105954526Y-68770973D01*
X105954526Y-68770974D01*
X106633553Y-69450000D01*
X106627339Y-69450000D01*
X106525606Y-69477259D01*
X106434394Y-69529920D01*
X106359920Y-69604394D01*
X106307259Y-69695606D01*
X106280000Y-69797339D01*
X106280000Y-69803552D01*
X105600974Y-69124526D01*
X105600973Y-69124526D01*
X105549868Y-69197512D01*
X105549866Y-69197516D01*
X105453734Y-69403673D01*
X105453730Y-69403682D01*
X105394860Y-69623389D01*
X105394858Y-69623400D01*
X105375034Y-69849997D01*
X105375034Y-69850002D01*
X105394858Y-70076599D01*
X105394860Y-70076610D01*
X105453730Y-70296317D01*
X105453735Y-70296331D01*
X105549863Y-70502478D01*
X105600974Y-70575472D01*
X106280000Y-69896446D01*
X106280000Y-69902661D01*
X106307259Y-70004394D01*
X106359920Y-70095606D01*
X106434394Y-70170080D01*
X106525606Y-70222741D01*
X106627339Y-70250000D01*
X106633553Y-70250000D01*
X105954526Y-70929025D01*
X106027513Y-70980132D01*
X106027521Y-70980136D01*
X106233668Y-71076264D01*
X106233682Y-71076269D01*
X106453389Y-71135139D01*
X106453400Y-71135141D01*
X106679998Y-71154966D01*
X106680002Y-71154966D01*
X106906599Y-71135141D01*
X106906610Y-71135139D01*
X107126317Y-71076269D01*
X107126331Y-71076264D01*
X107332478Y-70980136D01*
X107405471Y-70929024D01*
X106726447Y-70250000D01*
X106732661Y-70250000D01*
X106834394Y-70222741D01*
X106925606Y-70170080D01*
X107000080Y-70095606D01*
X107052741Y-70004394D01*
X107080000Y-69902661D01*
X107080000Y-69896446D01*
X107713181Y-70529627D01*
X107746666Y-70590950D01*
X107749500Y-70617308D01*
X107749500Y-74162691D01*
X107729815Y-74229730D01*
X107713181Y-74250372D01*
X107080000Y-74883553D01*
X107080000Y-74877339D01*
X107052741Y-74775606D01*
X107000080Y-74684394D01*
X106925606Y-74609920D01*
X106834394Y-74557259D01*
X106732661Y-74530000D01*
X106726445Y-74530000D01*
X107405472Y-73850974D01*
X107332478Y-73799863D01*
X107126331Y-73703735D01*
X107126317Y-73703730D01*
X106906610Y-73644860D01*
X106906599Y-73644858D01*
X106680002Y-73625034D01*
X106679998Y-73625034D01*
X106453400Y-73644858D01*
X106453389Y-73644860D01*
X106233682Y-73703730D01*
X106233673Y-73703734D01*
X106027516Y-73799866D01*
X106027512Y-73799868D01*
X105954526Y-73850973D01*
X105954526Y-73850974D01*
X106633553Y-74530000D01*
X106627339Y-74530000D01*
X106525606Y-74557259D01*
X106434394Y-74609920D01*
X106359920Y-74684394D01*
X106307259Y-74775606D01*
X106280000Y-74877339D01*
X106280000Y-74883552D01*
X105600974Y-74204526D01*
X105600973Y-74204526D01*
X105549868Y-74277512D01*
X105549866Y-74277516D01*
X105453734Y-74483673D01*
X105453730Y-74483682D01*
X105394860Y-74703389D01*
X105394858Y-74703400D01*
X105375034Y-74929997D01*
X105375034Y-74930002D01*
X105394858Y-75156599D01*
X105394860Y-75156610D01*
X105453730Y-75376317D01*
X105453735Y-75376331D01*
X105549863Y-75582478D01*
X105600974Y-75655472D01*
X106280000Y-74976446D01*
X106280000Y-74982661D01*
X106307259Y-75084394D01*
X106359920Y-75175606D01*
X106434394Y-75250080D01*
X106525606Y-75302741D01*
X106627339Y-75330000D01*
X106633553Y-75330000D01*
X105954526Y-76009025D01*
X106027513Y-76060132D01*
X106027521Y-76060136D01*
X106233668Y-76156264D01*
X106233682Y-76156269D01*
X106453389Y-76215139D01*
X106453400Y-76215141D01*
X106679998Y-76234966D01*
X106680002Y-76234966D01*
X106906599Y-76215141D01*
X106906610Y-76215139D01*
X107126317Y-76156269D01*
X107126331Y-76156264D01*
X107332478Y-76060136D01*
X107405471Y-76009024D01*
X106726447Y-75330000D01*
X106732661Y-75330000D01*
X106834394Y-75302741D01*
X106925606Y-75250080D01*
X107000080Y-75175606D01*
X107052741Y-75084394D01*
X107080000Y-74982661D01*
X107080000Y-74976446D01*
X107713181Y-75609627D01*
X107746666Y-75670950D01*
X107749500Y-75697308D01*
X107749500Y-79242691D01*
X107729815Y-79309730D01*
X107713181Y-79330372D01*
X107080000Y-79963553D01*
X107080000Y-79957339D01*
X107052741Y-79855606D01*
X107000080Y-79764394D01*
X106925606Y-79689920D01*
X106834394Y-79637259D01*
X106732661Y-79610000D01*
X106726445Y-79610000D01*
X107405472Y-78930974D01*
X107332478Y-78879863D01*
X107126331Y-78783735D01*
X107126317Y-78783730D01*
X106906610Y-78724860D01*
X106906599Y-78724858D01*
X106680002Y-78705034D01*
X106679998Y-78705034D01*
X106453400Y-78724858D01*
X106453389Y-78724860D01*
X106233682Y-78783730D01*
X106233673Y-78783734D01*
X106027516Y-78879866D01*
X106027512Y-78879868D01*
X105954526Y-78930973D01*
X105954526Y-78930974D01*
X106633553Y-79610000D01*
X106627339Y-79610000D01*
X106525606Y-79637259D01*
X106434394Y-79689920D01*
X106359920Y-79764394D01*
X106307259Y-79855606D01*
X106280000Y-79957339D01*
X106280000Y-79963552D01*
X105600974Y-79284526D01*
X105600973Y-79284526D01*
X105549868Y-79357512D01*
X105549866Y-79357516D01*
X105453734Y-79563673D01*
X105453730Y-79563682D01*
X105394860Y-79783389D01*
X105394858Y-79783400D01*
X105375034Y-80009997D01*
X105375034Y-80010002D01*
X105394858Y-80236599D01*
X105394860Y-80236610D01*
X105453730Y-80456317D01*
X105453735Y-80456331D01*
X105549863Y-80662478D01*
X105600974Y-80735472D01*
X106280000Y-80056446D01*
X106280000Y-80062661D01*
X106307259Y-80164394D01*
X106359920Y-80255606D01*
X106434394Y-80330080D01*
X106525606Y-80382741D01*
X106627339Y-80410000D01*
X106633553Y-80410000D01*
X105954526Y-81089025D01*
X106027513Y-81140132D01*
X106027521Y-81140136D01*
X106233668Y-81236264D01*
X106233682Y-81236269D01*
X106453389Y-81295139D01*
X106453400Y-81295141D01*
X106679998Y-81314966D01*
X106680002Y-81314966D01*
X106906599Y-81295141D01*
X106906610Y-81295139D01*
X107126317Y-81236269D01*
X107126331Y-81236264D01*
X107332478Y-81140136D01*
X107405471Y-81089024D01*
X106726447Y-80410000D01*
X106732661Y-80410000D01*
X106834394Y-80382741D01*
X106925606Y-80330080D01*
X107000080Y-80255606D01*
X107052741Y-80164394D01*
X107080000Y-80062661D01*
X107080000Y-80056446D01*
X107713181Y-80689627D01*
X107746666Y-80750950D01*
X107749500Y-80777308D01*
X107749500Y-84322691D01*
X107729815Y-84389730D01*
X107713181Y-84410372D01*
X107080000Y-85043553D01*
X107080000Y-85037339D01*
X107052741Y-84935606D01*
X107000080Y-84844394D01*
X106925606Y-84769920D01*
X106834394Y-84717259D01*
X106732661Y-84690000D01*
X106726445Y-84690000D01*
X107405472Y-84010974D01*
X107332478Y-83959863D01*
X107126331Y-83863735D01*
X107126317Y-83863730D01*
X106906610Y-83804860D01*
X106906599Y-83804858D01*
X106680002Y-83785034D01*
X106679998Y-83785034D01*
X106453400Y-83804858D01*
X106453389Y-83804860D01*
X106233682Y-83863730D01*
X106233673Y-83863734D01*
X106027516Y-83959866D01*
X106027512Y-83959868D01*
X105954526Y-84010973D01*
X105954526Y-84010974D01*
X106633553Y-84690000D01*
X106627339Y-84690000D01*
X106525606Y-84717259D01*
X106434394Y-84769920D01*
X106359920Y-84844394D01*
X106307259Y-84935606D01*
X106280000Y-85037339D01*
X106280000Y-85043552D01*
X105600974Y-84364526D01*
X105600973Y-84364526D01*
X105549868Y-84437512D01*
X105549866Y-84437516D01*
X105453734Y-84643673D01*
X105453730Y-84643682D01*
X105394860Y-84863389D01*
X105394858Y-84863400D01*
X105375034Y-85089997D01*
X105375034Y-85090002D01*
X105394858Y-85316599D01*
X105394860Y-85316610D01*
X105453730Y-85536317D01*
X105453735Y-85536331D01*
X105549863Y-85742478D01*
X105600974Y-85815472D01*
X106280000Y-85136446D01*
X106280000Y-85142661D01*
X106307259Y-85244394D01*
X106359920Y-85335606D01*
X106434394Y-85410080D01*
X106525606Y-85462741D01*
X106627339Y-85490000D01*
X106633553Y-85490000D01*
X105954526Y-86169025D01*
X106027513Y-86220132D01*
X106027521Y-86220136D01*
X106233668Y-86316264D01*
X106233682Y-86316269D01*
X106453389Y-86375139D01*
X106453400Y-86375141D01*
X106679998Y-86394966D01*
X106680002Y-86394966D01*
X106906599Y-86375141D01*
X106906610Y-86375139D01*
X107126317Y-86316269D01*
X107126331Y-86316264D01*
X107332478Y-86220136D01*
X107405471Y-86169024D01*
X106726447Y-85490000D01*
X106732661Y-85490000D01*
X106834394Y-85462741D01*
X106925606Y-85410080D01*
X107000080Y-85335606D01*
X107052741Y-85244394D01*
X107080000Y-85142661D01*
X107080000Y-85136446D01*
X107713181Y-85769627D01*
X107746666Y-85830950D01*
X107749500Y-85857308D01*
X107749500Y-89402691D01*
X107729815Y-89469730D01*
X107713181Y-89490372D01*
X107080000Y-90123552D01*
X107080000Y-90117339D01*
X107052741Y-90015606D01*
X107000080Y-89924394D01*
X106925606Y-89849920D01*
X106834394Y-89797259D01*
X106732661Y-89770000D01*
X106726445Y-89770000D01*
X107405472Y-89090974D01*
X107332478Y-89039863D01*
X107126331Y-88943735D01*
X107126317Y-88943730D01*
X106906610Y-88884860D01*
X106906599Y-88884858D01*
X106680002Y-88865034D01*
X106679998Y-88865034D01*
X106453400Y-88884858D01*
X106453389Y-88884860D01*
X106233682Y-88943730D01*
X106233673Y-88943734D01*
X106027516Y-89039866D01*
X106027512Y-89039868D01*
X105954526Y-89090973D01*
X105954526Y-89090974D01*
X106633553Y-89770000D01*
X106627339Y-89770000D01*
X106525606Y-89797259D01*
X106434394Y-89849920D01*
X106359920Y-89924394D01*
X106307259Y-90015606D01*
X106280000Y-90117339D01*
X106280000Y-90123552D01*
X105600974Y-89444526D01*
X105600973Y-89444526D01*
X105549868Y-89517512D01*
X105549866Y-89517516D01*
X105453734Y-89723673D01*
X105453730Y-89723682D01*
X105394860Y-89943389D01*
X105394858Y-89943400D01*
X105375034Y-90169997D01*
X105375034Y-90170002D01*
X105394858Y-90396599D01*
X105394860Y-90396610D01*
X105453730Y-90616317D01*
X105453735Y-90616331D01*
X105549863Y-90822478D01*
X105600974Y-90895472D01*
X106280000Y-90216446D01*
X106280000Y-90222661D01*
X106307259Y-90324394D01*
X106359920Y-90415606D01*
X106434394Y-90490080D01*
X106525606Y-90542741D01*
X106627339Y-90570000D01*
X106633553Y-90570000D01*
X105954526Y-91249025D01*
X106027513Y-91300132D01*
X106027521Y-91300136D01*
X106233668Y-91396264D01*
X106233682Y-91396269D01*
X106453389Y-91455139D01*
X106453400Y-91455141D01*
X106679998Y-91474966D01*
X106680002Y-91474966D01*
X106906599Y-91455141D01*
X106906610Y-91455139D01*
X107126317Y-91396269D01*
X107126331Y-91396264D01*
X107332478Y-91300136D01*
X107405471Y-91249024D01*
X106726447Y-90570000D01*
X106732661Y-90570000D01*
X106834394Y-90542741D01*
X106925606Y-90490080D01*
X107000080Y-90415606D01*
X107052741Y-90324394D01*
X107080000Y-90222661D01*
X107080000Y-90216447D01*
X107713181Y-90849627D01*
X107746666Y-90910950D01*
X107749500Y-90937308D01*
X107749500Y-102866249D01*
X107749274Y-102873737D01*
X107732894Y-103144510D01*
X107731089Y-103159374D01*
X107682868Y-103422507D01*
X107679284Y-103437045D01*
X107599703Y-103692430D01*
X107594394Y-103706431D01*
X107484601Y-103950381D01*
X107477642Y-103963640D01*
X107339251Y-104192568D01*
X107330745Y-104204891D01*
X107165764Y-104415473D01*
X107155834Y-104426681D01*
X106966681Y-104615834D01*
X106955473Y-104625764D01*
X106744891Y-104790745D01*
X106732568Y-104799251D01*
X106503640Y-104937642D01*
X106490381Y-104944601D01*
X106246431Y-105054394D01*
X106232430Y-105059703D01*
X105977045Y-105139284D01*
X105962507Y-105142868D01*
X105699374Y-105191089D01*
X105684510Y-105192894D01*
X105429690Y-105208308D01*
X105413735Y-105209274D01*
X105406249Y-105209500D01*
X78607987Y-105209500D01*
X78540948Y-105189815D01*
X78495193Y-105137011D01*
X78485249Y-105067853D01*
X78506412Y-105014377D01*
X78644032Y-104817834D01*
X78644031Y-104817834D01*
X78644035Y-104817830D01*
X78743903Y-104603663D01*
X78805063Y-104375408D01*
X78825659Y-104140000D01*
X78805063Y-103904592D01*
X78743903Y-103676337D01*
X78644035Y-103462171D01*
X78621424Y-103429879D01*
X78527418Y-103295623D01*
X78505091Y-103229417D01*
X78522101Y-103161650D01*
X78573049Y-103113837D01*
X78628993Y-103100500D01*
X88485740Y-103100500D01*
X88564194Y-103088073D01*
X88662267Y-103072541D01*
X88790563Y-103030853D01*
X88832251Y-103017309D01*
X88991502Y-102936167D01*
X89136098Y-102831111D01*
X89220457Y-102746752D01*
X102259500Y-102746752D01*
X102259500Y-102993247D01*
X102259501Y-102993263D01*
X102291674Y-103237644D01*
X102291675Y-103237649D01*
X102291676Y-103237655D01*
X102316359Y-103329774D01*
X102355477Y-103475766D01*
X102384101Y-103544869D01*
X102449812Y-103703509D01*
X102565903Y-103904586D01*
X102573069Y-103916997D01*
X102723132Y-104112560D01*
X102723140Y-104112569D01*
X102897431Y-104286860D01*
X102897439Y-104286867D01*
X103093002Y-104436930D01*
X103093005Y-104436931D01*
X103093008Y-104436934D01*
X103306491Y-104560188D01*
X103453645Y-104621141D01*
X103534233Y-104654522D01*
X103534234Y-104654522D01*
X103534236Y-104654523D01*
X103772345Y-104718324D01*
X104016746Y-104750500D01*
X104016753Y-104750500D01*
X104263247Y-104750500D01*
X104263254Y-104750500D01*
X104507655Y-104718324D01*
X104745764Y-104654523D01*
X104973509Y-104560188D01*
X105186992Y-104436934D01*
X105382560Y-104286868D01*
X105382564Y-104286863D01*
X105382569Y-104286860D01*
X105556860Y-104112569D01*
X105556863Y-104112564D01*
X105556868Y-104112560D01*
X105706934Y-103916992D01*
X105830188Y-103703509D01*
X105924523Y-103475764D01*
X105988324Y-103237655D01*
X106020500Y-102993254D01*
X106020500Y-102746746D01*
X105988324Y-102502345D01*
X105924523Y-102264236D01*
X105830188Y-102036491D01*
X105706934Y-101823008D01*
X105706931Y-101823005D01*
X105706930Y-101823002D01*
X105556867Y-101627439D01*
X105556860Y-101627431D01*
X105382569Y-101453140D01*
X105382560Y-101453132D01*
X105186997Y-101303069D01*
X104973511Y-101179813D01*
X104973502Y-101179809D01*
X104745766Y-101085477D01*
X104618164Y-101051286D01*
X104507655Y-101021676D01*
X104507649Y-101021675D01*
X104507644Y-101021674D01*
X104263263Y-100989501D01*
X104263260Y-100989500D01*
X104263254Y-100989500D01*
X104016746Y-100989500D01*
X104016740Y-100989500D01*
X104016736Y-100989501D01*
X103772355Y-101021674D01*
X103772348Y-101021675D01*
X103772345Y-101021676D01*
X103725636Y-101034191D01*
X103534233Y-101085477D01*
X103306497Y-101179809D01*
X103306488Y-101179813D01*
X103093002Y-101303069D01*
X102897439Y-101453132D01*
X102723132Y-101627439D01*
X102573069Y-101823002D01*
X102449813Y-102036488D01*
X102449809Y-102036497D01*
X102355477Y-102264233D01*
X102291677Y-102502342D01*
X102291674Y-102502355D01*
X102259501Y-102746736D01*
X102259500Y-102746752D01*
X89220457Y-102746752D01*
X89262481Y-102704728D01*
X91036111Y-100931098D01*
X91141167Y-100786502D01*
X91182511Y-100705359D01*
X91222310Y-100627250D01*
X91277541Y-100457267D01*
X91295300Y-100345139D01*
X91305500Y-100280740D01*
X91305500Y-99729647D01*
X91317118Y-99677242D01*
X91335517Y-99637785D01*
X91396739Y-99506496D01*
X91455635Y-99286692D01*
X91475468Y-99060000D01*
X91475468Y-99059997D01*
X99025034Y-99059997D01*
X99025034Y-99060002D01*
X99044858Y-99286599D01*
X99044860Y-99286610D01*
X99103730Y-99506317D01*
X99103735Y-99506331D01*
X99199863Y-99712478D01*
X99250974Y-99785472D01*
X99930000Y-99106446D01*
X99930000Y-99112661D01*
X99957259Y-99214394D01*
X100009920Y-99305606D01*
X100084394Y-99380080D01*
X100175606Y-99432741D01*
X100277339Y-99460000D01*
X100283553Y-99460000D01*
X99604526Y-100139025D01*
X99677513Y-100190132D01*
X99677521Y-100190136D01*
X99883668Y-100286264D01*
X99883682Y-100286269D01*
X100103389Y-100345139D01*
X100103400Y-100345141D01*
X100329998Y-100364966D01*
X100330002Y-100364966D01*
X100556599Y-100345141D01*
X100556610Y-100345139D01*
X100776317Y-100286269D01*
X100776331Y-100286264D01*
X100982478Y-100190136D01*
X101055471Y-100139024D01*
X100376447Y-99460000D01*
X100382661Y-99460000D01*
X100484394Y-99432741D01*
X100575606Y-99380080D01*
X100650080Y-99305606D01*
X100702741Y-99214394D01*
X100730000Y-99112661D01*
X100730000Y-99106447D01*
X101409024Y-99785471D01*
X101460136Y-99712478D01*
X101556264Y-99506331D01*
X101556269Y-99506317D01*
X101615139Y-99286610D01*
X101615141Y-99286599D01*
X101634966Y-99060002D01*
X101634966Y-99059997D01*
X101615141Y-98833400D01*
X101615139Y-98833389D01*
X101556269Y-98613682D01*
X101556264Y-98613668D01*
X101460136Y-98407521D01*
X101460132Y-98407513D01*
X101409025Y-98334526D01*
X100730000Y-99013551D01*
X100730000Y-99007339D01*
X100702741Y-98905606D01*
X100650080Y-98814394D01*
X100575606Y-98739920D01*
X100484394Y-98687259D01*
X100382661Y-98660000D01*
X100376445Y-98660000D01*
X101055472Y-97980974D01*
X100982478Y-97929863D01*
X100776331Y-97833735D01*
X100776317Y-97833730D01*
X100556610Y-97774860D01*
X100556599Y-97774858D01*
X100330002Y-97755034D01*
X100329998Y-97755034D01*
X100103400Y-97774858D01*
X100103389Y-97774860D01*
X99883682Y-97833730D01*
X99883673Y-97833734D01*
X99677516Y-97929866D01*
X99677512Y-97929868D01*
X99604526Y-97980973D01*
X99604526Y-97980974D01*
X100283553Y-98660000D01*
X100277339Y-98660000D01*
X100175606Y-98687259D01*
X100084394Y-98739920D01*
X100009920Y-98814394D01*
X99957259Y-98905606D01*
X99930000Y-99007339D01*
X99930000Y-99013552D01*
X99250974Y-98334526D01*
X99250973Y-98334526D01*
X99199868Y-98407512D01*
X99199866Y-98407516D01*
X99103734Y-98613673D01*
X99103730Y-98613682D01*
X99044860Y-98833389D01*
X99044858Y-98833400D01*
X99025034Y-99059997D01*
X91475468Y-99059997D01*
X91471004Y-99008982D01*
X91468184Y-98976739D01*
X91455635Y-98833308D01*
X91396739Y-98613504D01*
X91300568Y-98407266D01*
X91170047Y-98220861D01*
X91170045Y-98220858D01*
X91009141Y-98059954D01*
X90822734Y-97929432D01*
X90822732Y-97929431D01*
X90616497Y-97833261D01*
X90616488Y-97833258D01*
X90396697Y-97774366D01*
X90396693Y-97774365D01*
X90396692Y-97774365D01*
X90396691Y-97774364D01*
X90396686Y-97774364D01*
X90170002Y-97754532D01*
X90169998Y-97754532D01*
X89943313Y-97774364D01*
X89943302Y-97774366D01*
X89723511Y-97833258D01*
X89723502Y-97833261D01*
X89517267Y-97929431D01*
X89517265Y-97929432D01*
X89330858Y-98059954D01*
X89169954Y-98220858D01*
X89039432Y-98407265D01*
X89039431Y-98407267D01*
X88943261Y-98613502D01*
X88943258Y-98613511D01*
X88884366Y-98833302D01*
X88884364Y-98833313D01*
X88864532Y-99059998D01*
X88864532Y-99060001D01*
X88884364Y-99286686D01*
X88884366Y-99286697D01*
X88943258Y-99506488D01*
X88943260Y-99506492D01*
X88943261Y-99506496D01*
X88946881Y-99514259D01*
X88957372Y-99583336D01*
X88928851Y-99647120D01*
X88870374Y-99685359D01*
X88800507Y-99685912D01*
X88741431Y-99648605D01*
X88732923Y-99637785D01*
X88630045Y-99490858D01*
X88564319Y-99425132D01*
X88530834Y-99363809D01*
X88528000Y-99337451D01*
X88528000Y-96322549D01*
X88547685Y-96255510D01*
X88564319Y-96234868D01*
X88710045Y-96089141D01*
X88710047Y-96089139D01*
X88840568Y-95902734D01*
X88936739Y-95696496D01*
X88995635Y-95476692D01*
X89015468Y-95250000D01*
X88995635Y-95023308D01*
X88936739Y-94803504D01*
X88840568Y-94597266D01*
X88710047Y-94410861D01*
X88710045Y-94410858D01*
X88549141Y-94249954D01*
X88362734Y-94119432D01*
X88362732Y-94119431D01*
X88156497Y-94023261D01*
X88156488Y-94023258D01*
X87936697Y-93964366D01*
X87936693Y-93964365D01*
X87936692Y-93964365D01*
X87936691Y-93964364D01*
X87936686Y-93964364D01*
X87710002Y-93944532D01*
X87709998Y-93944532D01*
X87483313Y-93964364D01*
X87483302Y-93964366D01*
X87263511Y-94023258D01*
X87263502Y-94023261D01*
X87057267Y-94119431D01*
X87057265Y-94119432D01*
X86870858Y-94249954D01*
X86709954Y-94410858D01*
X86579432Y-94597265D01*
X86579431Y-94597267D01*
X86483261Y-94803502D01*
X86483258Y-94803511D01*
X86424366Y-95023302D01*
X86424364Y-95023313D01*
X86404532Y-95249998D01*
X86404532Y-95250001D01*
X86424364Y-95476686D01*
X86424366Y-95476697D01*
X86483258Y-95696488D01*
X86483261Y-95696497D01*
X86579431Y-95902732D01*
X86579432Y-95902734D01*
X86709954Y-96089141D01*
X86855681Y-96234868D01*
X86889166Y-96296191D01*
X86892000Y-96322549D01*
X86892000Y-99194584D01*
X86872315Y-99261623D01*
X86839124Y-99296159D01*
X86790856Y-99329956D01*
X86629954Y-99490858D01*
X86499432Y-99677265D01*
X86499431Y-99677267D01*
X86403261Y-99883502D01*
X86403258Y-99883511D01*
X86344366Y-100103302D01*
X86344364Y-100103313D01*
X86324532Y-100329998D01*
X86324532Y-100330001D01*
X86344364Y-100556686D01*
X86344366Y-100556697D01*
X86375638Y-100673407D01*
X86373975Y-100743257D01*
X86334812Y-100801119D01*
X86270583Y-100828623D01*
X86255863Y-100829500D01*
X78844137Y-100829500D01*
X78777098Y-100809815D01*
X78731343Y-100757011D01*
X78721399Y-100687853D01*
X78724362Y-100673407D01*
X78738263Y-100621524D01*
X78755635Y-100556692D01*
X78775468Y-100330000D01*
X78755635Y-100103308D01*
X78696739Y-99883504D01*
X78600568Y-99677266D01*
X78470047Y-99490861D01*
X78470045Y-99490858D01*
X78309141Y-99329954D01*
X78122734Y-99199432D01*
X78122732Y-99199431D01*
X77916497Y-99103261D01*
X77916488Y-99103258D01*
X77696697Y-99044366D01*
X77696687Y-99044364D01*
X77583192Y-99034435D01*
X77518124Y-99008982D01*
X77477145Y-98952392D01*
X77470000Y-98910907D01*
X77470000Y-98596883D01*
X77489685Y-98529844D01*
X77542489Y-98484089D01*
X77611647Y-98474145D01*
X77675203Y-98503170D01*
X77695575Y-98525760D01*
X77739954Y-98589141D01*
X77900858Y-98750045D01*
X77900861Y-98750047D01*
X78087266Y-98880568D01*
X78293504Y-98976739D01*
X78513308Y-99035635D01*
X78675230Y-99049801D01*
X78739998Y-99055468D01*
X78740000Y-99055468D01*
X78740002Y-99055468D01*
X78796673Y-99050509D01*
X78966692Y-99035635D01*
X79186496Y-98976739D01*
X79392734Y-98880568D01*
X79579139Y-98750047D01*
X79740047Y-98589139D01*
X79870568Y-98402734D01*
X79966739Y-98196496D01*
X80025635Y-97976692D01*
X80045468Y-97750000D01*
X80025635Y-97523308D01*
X79966739Y-97303504D01*
X79870568Y-97097266D01*
X79740047Y-96910861D01*
X79740045Y-96910858D01*
X79579141Y-96749954D01*
X79392734Y-96619432D01*
X79392732Y-96619431D01*
X79186497Y-96523261D01*
X79186488Y-96523258D01*
X78966697Y-96464366D01*
X78966693Y-96464365D01*
X78966692Y-96464365D01*
X78966691Y-96464364D01*
X78966686Y-96464364D01*
X78740002Y-96444532D01*
X78739998Y-96444532D01*
X78513313Y-96464364D01*
X78513302Y-96464366D01*
X78293511Y-96523258D01*
X78293502Y-96523261D01*
X78087267Y-96619431D01*
X78087265Y-96619432D01*
X77900858Y-96749954D01*
X77739953Y-96910859D01*
X77695575Y-96974239D01*
X77640998Y-97017864D01*
X77571500Y-97025058D01*
X77509145Y-96993535D01*
X77473731Y-96933305D01*
X77470000Y-96903116D01*
X77470000Y-93596883D01*
X77489685Y-93529844D01*
X77542489Y-93484089D01*
X77611647Y-93474145D01*
X77675203Y-93503170D01*
X77695575Y-93525760D01*
X77739954Y-93589141D01*
X77900858Y-93750045D01*
X77900861Y-93750047D01*
X78087266Y-93880568D01*
X78293504Y-93976739D01*
X78513308Y-94035635D01*
X78675230Y-94049801D01*
X78739998Y-94055468D01*
X78740000Y-94055468D01*
X78740002Y-94055468D01*
X78796673Y-94050509D01*
X78966692Y-94035635D01*
X79186496Y-93976739D01*
X79392734Y-93880568D01*
X79579139Y-93750047D01*
X79724868Y-93604317D01*
X79786189Y-93570834D01*
X79812548Y-93568000D01*
X82164811Y-93568000D01*
X82231850Y-93587685D01*
X82252492Y-93604319D01*
X82600900Y-93952727D01*
X82634385Y-94014050D01*
X82629401Y-94083742D01*
X82587529Y-94139675D01*
X82522065Y-94164092D01*
X82490435Y-94162297D01*
X82461813Y-94156946D01*
X82421976Y-94149500D01*
X82218024Y-94149500D01*
X82017544Y-94186976D01*
X82017541Y-94186976D01*
X82017541Y-94186977D01*
X81827364Y-94260651D01*
X81827357Y-94260655D01*
X81653960Y-94368017D01*
X81653958Y-94368019D01*
X81503237Y-94505418D01*
X81380327Y-94668178D01*
X81289422Y-94850739D01*
X81289417Y-94850752D01*
X81233602Y-95046917D01*
X81214785Y-95249999D01*
X81214785Y-95250000D01*
X81233602Y-95453082D01*
X81289417Y-95649247D01*
X81289422Y-95649260D01*
X81380327Y-95831821D01*
X81503237Y-95994581D01*
X81653958Y-96131980D01*
X81653960Y-96131982D01*
X81753141Y-96193392D01*
X81827363Y-96239348D01*
X82017544Y-96313024D01*
X82218024Y-96350500D01*
X82218026Y-96350500D01*
X82421974Y-96350500D01*
X82421976Y-96350500D01*
X82622456Y-96313024D01*
X82809374Y-96240611D01*
X82878996Y-96234750D01*
X82928478Y-96256972D01*
X82977668Y-96293795D01*
X82977671Y-96293797D01*
X83112517Y-96344091D01*
X83112516Y-96344091D01*
X83119444Y-96344835D01*
X83172127Y-96350500D01*
X84467872Y-96350499D01*
X84527483Y-96344091D01*
X84662331Y-96293796D01*
X84777546Y-96207546D01*
X84863796Y-96092331D01*
X84914091Y-95957483D01*
X84920500Y-95897873D01*
X84920499Y-94602128D01*
X84914091Y-94542517D01*
X84864985Y-94410858D01*
X84863797Y-94407671D01*
X84863796Y-94407669D01*
X84808469Y-94333762D01*
X84784052Y-94268298D01*
X84798903Y-94200025D01*
X84820052Y-94171773D01*
X87853640Y-91138185D01*
X87914961Y-91104702D01*
X87984653Y-91109686D01*
X88029000Y-91138187D01*
X88060858Y-91170045D01*
X88060861Y-91170047D01*
X88247266Y-91300568D01*
X88453504Y-91396739D01*
X88673308Y-91455635D01*
X88835230Y-91469801D01*
X88899998Y-91475468D01*
X88900000Y-91475468D01*
X88900002Y-91475468D01*
X88956673Y-91470509D01*
X89126692Y-91455635D01*
X89346496Y-91396739D01*
X89552734Y-91300568D01*
X89739139Y-91170047D01*
X89900047Y-91009139D01*
X90030568Y-90822734D01*
X90126739Y-90616496D01*
X90185635Y-90396692D01*
X90205468Y-90170000D01*
X90198548Y-90090916D01*
X90212314Y-90022420D01*
X90234392Y-89992433D01*
X92950319Y-87276507D01*
X93011642Y-87243022D01*
X93081334Y-87248006D01*
X93137267Y-87289878D01*
X93161684Y-87355342D01*
X93162000Y-87364188D01*
X93162000Y-93863136D01*
X93142315Y-93930175D01*
X93089511Y-93975930D01*
X93020353Y-93985874D01*
X93005907Y-93982911D01*
X92936697Y-93964366D01*
X92936693Y-93964365D01*
X92936692Y-93964365D01*
X92936691Y-93964364D01*
X92936686Y-93964364D01*
X92710002Y-93944532D01*
X92709998Y-93944532D01*
X92483313Y-93964364D01*
X92483302Y-93964366D01*
X92263511Y-94023258D01*
X92263502Y-94023261D01*
X92057267Y-94119431D01*
X92057265Y-94119432D01*
X91870858Y-94249954D01*
X91709954Y-94410858D01*
X91579432Y-94597265D01*
X91579431Y-94597267D01*
X91483261Y-94803502D01*
X91483258Y-94803511D01*
X91424366Y-95023302D01*
X91424364Y-95023313D01*
X91404532Y-95249998D01*
X91404532Y-95250001D01*
X91424364Y-95476686D01*
X91424366Y-95476697D01*
X91483258Y-95696488D01*
X91483261Y-95696497D01*
X91579431Y-95902732D01*
X91579432Y-95902734D01*
X91709954Y-96089141D01*
X91870858Y-96250045D01*
X91870861Y-96250047D01*
X92057266Y-96380568D01*
X92263504Y-96476739D01*
X92483308Y-96535635D01*
X92645230Y-96549801D01*
X92709998Y-96555468D01*
X92710000Y-96555468D01*
X92710002Y-96555468D01*
X92766673Y-96550509D01*
X92936692Y-96535635D01*
X93156496Y-96476739D01*
X93362734Y-96380568D01*
X93549139Y-96250047D01*
X93694868Y-96104317D01*
X93756189Y-96070834D01*
X93782548Y-96068000D01*
X94177452Y-96068000D01*
X94244491Y-96087685D01*
X94265128Y-96104314D01*
X94368358Y-96207544D01*
X94410862Y-96250048D01*
X94473343Y-96293797D01*
X94597266Y-96380568D01*
X94803504Y-96476739D01*
X95023308Y-96535635D01*
X95185230Y-96549801D01*
X95249998Y-96555468D01*
X95250000Y-96555468D01*
X95250002Y-96555468D01*
X95306673Y-96550509D01*
X95476692Y-96535635D01*
X95696496Y-96476739D01*
X95902734Y-96380568D01*
X96089139Y-96250047D01*
X96250047Y-96089139D01*
X96380568Y-95902734D01*
X96476739Y-95696496D01*
X96535635Y-95476692D01*
X96555468Y-95250000D01*
X96555468Y-95249998D01*
X104104532Y-95249998D01*
X104104532Y-95250001D01*
X104124364Y-95476686D01*
X104124366Y-95476697D01*
X104183258Y-95696488D01*
X104183261Y-95696497D01*
X104279431Y-95902732D01*
X104279432Y-95902734D01*
X104409954Y-96089141D01*
X104570858Y-96250045D01*
X104570861Y-96250047D01*
X104757266Y-96380568D01*
X104963504Y-96476739D01*
X105183308Y-96535635D01*
X105345230Y-96549801D01*
X105409998Y-96555468D01*
X105410000Y-96555468D01*
X105410002Y-96555468D01*
X105466673Y-96550509D01*
X105636692Y-96535635D01*
X105856496Y-96476739D01*
X106062734Y-96380568D01*
X106249139Y-96250047D01*
X106410047Y-96089139D01*
X106540568Y-95902734D01*
X106636739Y-95696496D01*
X106695635Y-95476692D01*
X106715468Y-95250000D01*
X106695635Y-95023308D01*
X106636739Y-94803504D01*
X106540568Y-94597266D01*
X106410047Y-94410861D01*
X106410045Y-94410858D01*
X106249141Y-94249954D01*
X106062734Y-94119432D01*
X106062732Y-94119431D01*
X105856497Y-94023261D01*
X105856488Y-94023258D01*
X105636697Y-93964366D01*
X105636693Y-93964365D01*
X105636692Y-93964365D01*
X105636691Y-93964364D01*
X105636686Y-93964364D01*
X105410002Y-93944532D01*
X105409998Y-93944532D01*
X105183313Y-93964364D01*
X105183302Y-93964366D01*
X104963511Y-94023258D01*
X104963502Y-94023261D01*
X104757267Y-94119431D01*
X104757265Y-94119432D01*
X104570858Y-94249954D01*
X104409954Y-94410858D01*
X104279432Y-94597265D01*
X104279431Y-94597267D01*
X104183261Y-94803502D01*
X104183258Y-94803511D01*
X104124366Y-95023302D01*
X104124364Y-95023313D01*
X104104532Y-95249998D01*
X96555468Y-95249998D01*
X96535635Y-95023308D01*
X96476739Y-94803504D01*
X96380568Y-94597266D01*
X96250047Y-94410861D01*
X96250045Y-94410858D01*
X96089141Y-94249954D01*
X95902734Y-94119432D01*
X95902732Y-94119431D01*
X95696497Y-94023261D01*
X95696488Y-94023258D01*
X95476697Y-93964366D01*
X95476693Y-93964365D01*
X95476692Y-93964365D01*
X95476691Y-93964364D01*
X95476686Y-93964364D01*
X95250002Y-93944532D01*
X95249997Y-93944532D01*
X95170917Y-93951450D01*
X95102418Y-93937683D01*
X95072430Y-93915603D01*
X94834319Y-93677492D01*
X94800834Y-93616169D01*
X94798000Y-93589811D01*
X94798000Y-90169998D01*
X95214532Y-90169998D01*
X95214532Y-90170001D01*
X95234364Y-90396686D01*
X95234366Y-90396697D01*
X95293258Y-90616488D01*
X95293261Y-90616497D01*
X95389431Y-90822732D01*
X95389432Y-90822734D01*
X95519954Y-91009141D01*
X95680858Y-91170045D01*
X95680861Y-91170047D01*
X95867266Y-91300568D01*
X96073504Y-91396739D01*
X96293308Y-91455635D01*
X96455230Y-91469801D01*
X96519998Y-91475468D01*
X96520000Y-91475468D01*
X96520002Y-91475468D01*
X96576673Y-91470509D01*
X96746692Y-91455635D01*
X96966496Y-91396739D01*
X97172734Y-91300568D01*
X97359139Y-91170047D01*
X97520047Y-91009139D01*
X97650568Y-90822734D01*
X97746739Y-90616496D01*
X97805635Y-90396692D01*
X97825468Y-90170000D01*
X97805635Y-89943308D01*
X97746739Y-89723504D01*
X97650568Y-89517266D01*
X97520047Y-89330861D01*
X97520045Y-89330858D01*
X97359141Y-89169954D01*
X97172734Y-89039432D01*
X97172732Y-89039431D01*
X96966497Y-88943261D01*
X96966488Y-88943258D01*
X96746697Y-88884366D01*
X96746693Y-88884365D01*
X96746692Y-88884365D01*
X96746691Y-88884364D01*
X96746686Y-88884364D01*
X96520002Y-88864532D01*
X96519998Y-88864532D01*
X96293313Y-88884364D01*
X96293302Y-88884366D01*
X96073511Y-88943258D01*
X96073502Y-88943261D01*
X95867267Y-89039431D01*
X95867265Y-89039432D01*
X95680858Y-89169954D01*
X95519954Y-89330858D01*
X95389432Y-89517265D01*
X95389431Y-89517267D01*
X95293261Y-89723502D01*
X95293258Y-89723511D01*
X95234366Y-89943302D01*
X95234364Y-89943313D01*
X95214532Y-90169998D01*
X94798000Y-90169998D01*
X94798000Y-86307934D01*
X94817685Y-86240895D01*
X94847690Y-86208667D01*
X94862546Y-86197546D01*
X94948796Y-86082331D01*
X94999091Y-85947483D01*
X95005500Y-85887873D01*
X95005499Y-85404426D01*
X95025183Y-85337389D01*
X95077987Y-85291634D01*
X95147146Y-85281690D01*
X95210702Y-85310715D01*
X95248476Y-85369493D01*
X95249274Y-85372335D01*
X95293258Y-85536488D01*
X95293261Y-85536497D01*
X95389431Y-85742732D01*
X95389432Y-85742734D01*
X95519954Y-85929141D01*
X95680858Y-86090045D01*
X95680861Y-86090047D01*
X95867266Y-86220568D01*
X96073504Y-86316739D01*
X96293308Y-86375635D01*
X96455230Y-86389801D01*
X96519998Y-86395468D01*
X96520000Y-86395468D01*
X96520002Y-86395468D01*
X96576673Y-86390509D01*
X96746692Y-86375635D01*
X96966496Y-86316739D01*
X97172734Y-86220568D01*
X97359139Y-86090047D01*
X97520047Y-85929139D01*
X97650568Y-85742734D01*
X97746739Y-85536496D01*
X97805635Y-85316692D01*
X97825468Y-85090000D01*
X97805635Y-84863308D01*
X97746739Y-84643504D01*
X97650568Y-84437266D01*
X97520047Y-84250861D01*
X97520045Y-84250858D01*
X97359141Y-84089954D01*
X97172734Y-83959432D01*
X97172732Y-83959431D01*
X96966497Y-83863261D01*
X96966488Y-83863258D01*
X96746697Y-83804366D01*
X96746693Y-83804365D01*
X96746692Y-83804365D01*
X96746691Y-83804364D01*
X96746686Y-83804364D01*
X96520002Y-83784532D01*
X96519997Y-83784532D01*
X96440916Y-83791450D01*
X96372416Y-83777683D01*
X96342429Y-83755603D01*
X95773948Y-83187120D01*
X95773944Y-83187117D01*
X95639974Y-83097600D01*
X95639961Y-83097593D01*
X95491106Y-83035936D01*
X95491094Y-83035933D01*
X95333070Y-83004500D01*
X95333066Y-83004500D01*
X91691934Y-83004500D01*
X91691929Y-83004500D01*
X91533905Y-83035933D01*
X91533893Y-83035936D01*
X91385038Y-83097593D01*
X91385025Y-83097600D01*
X91251055Y-83187117D01*
X91251051Y-83187120D01*
X90804620Y-83633551D01*
X90804617Y-83633555D01*
X90715098Y-83767530D01*
X90715096Y-83767534D01*
X90708057Y-83784529D01*
X90708056Y-83784532D01*
X90653435Y-83916397D01*
X90653433Y-83916405D01*
X90622000Y-84074429D01*
X90622000Y-84148000D01*
X90602315Y-84215039D01*
X90549511Y-84260794D01*
X90498000Y-84272000D01*
X89972548Y-84272000D01*
X89905509Y-84252315D01*
X89884871Y-84235685D01*
X89739139Y-84089953D01*
X89739138Y-84089952D01*
X89739137Y-84089951D01*
X89552734Y-83959432D01*
X89552732Y-83959431D01*
X89346497Y-83863261D01*
X89346488Y-83863258D01*
X89126697Y-83804366D01*
X89126693Y-83804365D01*
X89126692Y-83804365D01*
X89126691Y-83804364D01*
X89126686Y-83804364D01*
X88900002Y-83784532D01*
X88899998Y-83784532D01*
X88673313Y-83804364D01*
X88673302Y-83804366D01*
X88453511Y-83863258D01*
X88453502Y-83863261D01*
X88247267Y-83959431D01*
X88247265Y-83959432D01*
X88060858Y-84089954D01*
X87899954Y-84250858D01*
X87769432Y-84437265D01*
X87769431Y-84437267D01*
X87673261Y-84643502D01*
X87673258Y-84643511D01*
X87614366Y-84863302D01*
X87614364Y-84863313D01*
X87594532Y-85089998D01*
X87594532Y-85090001D01*
X87614364Y-85316686D01*
X87614366Y-85316697D01*
X87673258Y-85536488D01*
X87673261Y-85536497D01*
X87769431Y-85742732D01*
X87769432Y-85742734D01*
X87899954Y-85929141D01*
X88060858Y-86090045D01*
X88060861Y-86090047D01*
X88247266Y-86220568D01*
X88453504Y-86316739D01*
X88673308Y-86375635D01*
X88835230Y-86389801D01*
X88899998Y-86395468D01*
X88900000Y-86395468D01*
X88900002Y-86395468D01*
X88956673Y-86390509D01*
X89126692Y-86375635D01*
X89346496Y-86316739D01*
X89552734Y-86220568D01*
X89739139Y-86090047D01*
X89884868Y-85944317D01*
X89946189Y-85910834D01*
X89972548Y-85908000D01*
X90536592Y-85908000D01*
X90603631Y-85927685D01*
X90639692Y-85963106D01*
X90643442Y-85968718D01*
X90643446Y-85968723D01*
X90786281Y-86111558D01*
X90954237Y-86223782D01*
X90954241Y-86223784D01*
X90954244Y-86223786D01*
X91140873Y-86301091D01*
X91239601Y-86320729D01*
X91306373Y-86334011D01*
X91368284Y-86366395D01*
X91402858Y-86427111D01*
X91399119Y-86496881D01*
X91369863Y-86543309D01*
X89077568Y-88835603D01*
X89016245Y-88869088D01*
X88979080Y-88871450D01*
X88900002Y-88864532D01*
X88899998Y-88864532D01*
X88673313Y-88884364D01*
X88673302Y-88884366D01*
X88453511Y-88943258D01*
X88453502Y-88943261D01*
X88247267Y-89039431D01*
X88247265Y-89039432D01*
X88060862Y-89169951D01*
X87987998Y-89242816D01*
X87915131Y-89315682D01*
X87853811Y-89349166D01*
X87827452Y-89352000D01*
X87584429Y-89352000D01*
X87426405Y-89383433D01*
X87426397Y-89383435D01*
X87277533Y-89445096D01*
X87143552Y-89534619D01*
X87143551Y-89534620D01*
X83907681Y-92770491D01*
X83846358Y-92803976D01*
X83776666Y-92798992D01*
X83732319Y-92770491D01*
X83076448Y-92114620D01*
X83076444Y-92114617D01*
X82942474Y-92025100D01*
X82942461Y-92025093D01*
X82793606Y-91963436D01*
X82793594Y-91963433D01*
X82635570Y-91932000D01*
X82635566Y-91932000D01*
X79812548Y-91932000D01*
X79745509Y-91912315D01*
X79724871Y-91895685D01*
X79579139Y-91749953D01*
X79579138Y-91749952D01*
X79579137Y-91749951D01*
X79392734Y-91619432D01*
X79392732Y-91619431D01*
X79373714Y-91610563D01*
X79291834Y-91572381D01*
X79239396Y-91526210D01*
X79220244Y-91459016D01*
X79240460Y-91392135D01*
X79291834Y-91347618D01*
X79392734Y-91300568D01*
X79579139Y-91170047D01*
X79740047Y-91009139D01*
X79870568Y-90822734D01*
X79966739Y-90616496D01*
X80025635Y-90396692D01*
X80045468Y-90170000D01*
X80025635Y-89943308D01*
X79966739Y-89723504D01*
X79870568Y-89517266D01*
X79740047Y-89330861D01*
X79740045Y-89330858D01*
X79579141Y-89169954D01*
X79392734Y-89039432D01*
X79392732Y-89039431D01*
X79186497Y-88943261D01*
X79186488Y-88943258D01*
X78966697Y-88884366D01*
X78966693Y-88884365D01*
X78966692Y-88884365D01*
X78966691Y-88884364D01*
X78966686Y-88884364D01*
X78740002Y-88864532D01*
X78739998Y-88864532D01*
X78513313Y-88884364D01*
X78513302Y-88884366D01*
X78293511Y-88943258D01*
X78293502Y-88943261D01*
X78087267Y-89039431D01*
X78087265Y-89039432D01*
X77900858Y-89169954D01*
X77739953Y-89330859D01*
X77695575Y-89394239D01*
X77640998Y-89437864D01*
X77571500Y-89445058D01*
X77509145Y-89413535D01*
X77473731Y-89353305D01*
X77470000Y-89323116D01*
X77470000Y-85936883D01*
X77489685Y-85869844D01*
X77542489Y-85824089D01*
X77611647Y-85814145D01*
X77675203Y-85843170D01*
X77695575Y-85865760D01*
X77739954Y-85929141D01*
X77900858Y-86090045D01*
X77900861Y-86090047D01*
X78087266Y-86220568D01*
X78293504Y-86316739D01*
X78513308Y-86375635D01*
X78675230Y-86389801D01*
X78739998Y-86395468D01*
X78740000Y-86395468D01*
X78740002Y-86395468D01*
X78796673Y-86390509D01*
X78966692Y-86375635D01*
X79186496Y-86316739D01*
X79392734Y-86220568D01*
X79579139Y-86090047D01*
X79740047Y-85929139D01*
X79870568Y-85742734D01*
X79966739Y-85536496D01*
X80025635Y-85316692D01*
X80045468Y-85090000D01*
X80025635Y-84863308D01*
X79966739Y-84643504D01*
X79870568Y-84437266D01*
X79740047Y-84250861D01*
X79740045Y-84250858D01*
X79594319Y-84105132D01*
X79560834Y-84043809D01*
X79558000Y-84017451D01*
X79558000Y-81082549D01*
X79577685Y-81015510D01*
X79594319Y-80994868D01*
X79740045Y-80849141D01*
X79740047Y-80849139D01*
X79870568Y-80662734D01*
X79966739Y-80456496D01*
X80025635Y-80236692D01*
X80045468Y-80010000D01*
X80045468Y-80009998D01*
X87594532Y-80009998D01*
X87594532Y-80010001D01*
X87614364Y-80236686D01*
X87614366Y-80236697D01*
X87673258Y-80456488D01*
X87673261Y-80456497D01*
X87769431Y-80662732D01*
X87769432Y-80662734D01*
X87899954Y-80849141D01*
X88060858Y-81010045D01*
X88060861Y-81010047D01*
X88247266Y-81140568D01*
X88453504Y-81236739D01*
X88673308Y-81295635D01*
X88835230Y-81309801D01*
X88899998Y-81315468D01*
X88900000Y-81315468D01*
X88900002Y-81315468D01*
X88956673Y-81310509D01*
X89126692Y-81295635D01*
X89346496Y-81236739D01*
X89552734Y-81140568D01*
X89739139Y-81010047D01*
X89884868Y-80864317D01*
X89946189Y-80830834D01*
X89972548Y-80828000D01*
X90536592Y-80828000D01*
X90603631Y-80847685D01*
X90639692Y-80883106D01*
X90643442Y-80888718D01*
X90643446Y-80888723D01*
X90786281Y-81031558D01*
X90954237Y-81143782D01*
X90954241Y-81143784D01*
X90954244Y-81143786D01*
X91140873Y-81221091D01*
X91306777Y-81254091D01*
X91338992Y-81260499D01*
X91338996Y-81260500D01*
X91338997Y-81260500D01*
X91541004Y-81260500D01*
X91541005Y-81260499D01*
X91739127Y-81221091D01*
X91925756Y-81143786D01*
X92006110Y-81090094D01*
X92072786Y-81069217D01*
X92140166Y-81087701D01*
X92143865Y-81090078D01*
X92224244Y-81143786D01*
X92410873Y-81221091D01*
X92576777Y-81254091D01*
X92608992Y-81260499D01*
X92608996Y-81260500D01*
X92608997Y-81260500D01*
X92811004Y-81260500D01*
X92811005Y-81260499D01*
X93009127Y-81221091D01*
X93089798Y-81187674D01*
X93159267Y-81180205D01*
X93204658Y-81199962D01*
X93204886Y-81199546D01*
X93209540Y-81202087D01*
X93211562Y-81202967D01*
X93212669Y-81203796D01*
X93212670Y-81203796D01*
X93212671Y-81203797D01*
X93347517Y-81254091D01*
X93347516Y-81254091D01*
X93354444Y-81254835D01*
X93407127Y-81260500D01*
X94552872Y-81260499D01*
X94612483Y-81254091D01*
X94747331Y-81203796D01*
X94862546Y-81117546D01*
X94948796Y-81002331D01*
X94999091Y-80867483D01*
X95005500Y-80807873D01*
X95005499Y-80324426D01*
X95025183Y-80257389D01*
X95077987Y-80211634D01*
X95147146Y-80201690D01*
X95210702Y-80230715D01*
X95248476Y-80289493D01*
X95249274Y-80292335D01*
X95293258Y-80456488D01*
X95293261Y-80456497D01*
X95389431Y-80662732D01*
X95389432Y-80662734D01*
X95519954Y-80849141D01*
X95680858Y-81010045D01*
X95680861Y-81010047D01*
X95867266Y-81140568D01*
X96073504Y-81236739D01*
X96293308Y-81295635D01*
X96455230Y-81309801D01*
X96519998Y-81315468D01*
X96520000Y-81315468D01*
X96520002Y-81315468D01*
X96576673Y-81310509D01*
X96746692Y-81295635D01*
X96966496Y-81236739D01*
X97172734Y-81140568D01*
X97359139Y-81010047D01*
X97520047Y-80849139D01*
X97650568Y-80662734D01*
X97746739Y-80456496D01*
X97805635Y-80236692D01*
X97825468Y-80010000D01*
X97805635Y-79783308D01*
X97746739Y-79563504D01*
X97650568Y-79357266D01*
X97520047Y-79170861D01*
X97520045Y-79170858D01*
X97359141Y-79009954D01*
X97172734Y-78879432D01*
X97172732Y-78879431D01*
X96966497Y-78783261D01*
X96966488Y-78783258D01*
X96746697Y-78724366D01*
X96746693Y-78724365D01*
X96746692Y-78724365D01*
X96746691Y-78724364D01*
X96746686Y-78724364D01*
X96520002Y-78704532D01*
X96519997Y-78704532D01*
X96440917Y-78711450D01*
X96372418Y-78697683D01*
X96342430Y-78675603D01*
X95771448Y-78104620D01*
X95771444Y-78104617D01*
X95637474Y-78015100D01*
X95637461Y-78015093D01*
X95488606Y-77953436D01*
X95488594Y-77953433D01*
X95330570Y-77922000D01*
X95330566Y-77922000D01*
X91861700Y-77922000D01*
X91861680Y-77921999D01*
X91855566Y-77921999D01*
X91694435Y-77921999D01*
X91694433Y-77921999D01*
X91536403Y-77953433D01*
X91536393Y-77953436D01*
X91387536Y-78015094D01*
X91387534Y-78015095D01*
X91307219Y-78068761D01*
X91307218Y-78068762D01*
X91253554Y-78104618D01*
X91196586Y-78161586D01*
X91139618Y-78218555D01*
X91139616Y-78218557D01*
X90804620Y-78553551D01*
X90804617Y-78553555D01*
X90715098Y-78687530D01*
X90715096Y-78687534D01*
X90708057Y-78704529D01*
X90708056Y-78704532D01*
X90653435Y-78836397D01*
X90653433Y-78836405D01*
X90622000Y-78994429D01*
X90622000Y-79068000D01*
X90602315Y-79135039D01*
X90549511Y-79180794D01*
X90498000Y-79192000D01*
X89972548Y-79192000D01*
X89905509Y-79172315D01*
X89884871Y-79155685D01*
X89739139Y-79009953D01*
X89739138Y-79009952D01*
X89739137Y-79009951D01*
X89552734Y-78879432D01*
X89552732Y-78879431D01*
X89346497Y-78783261D01*
X89346488Y-78783258D01*
X89126697Y-78724366D01*
X89126693Y-78724365D01*
X89126692Y-78724365D01*
X89126691Y-78724364D01*
X89126686Y-78724364D01*
X88900002Y-78704532D01*
X88899998Y-78704532D01*
X88673313Y-78724364D01*
X88673302Y-78724366D01*
X88453511Y-78783258D01*
X88453502Y-78783261D01*
X88247267Y-78879431D01*
X88247265Y-78879432D01*
X88060858Y-79009954D01*
X87899954Y-79170858D01*
X87769432Y-79357265D01*
X87769431Y-79357267D01*
X87673261Y-79563502D01*
X87673258Y-79563511D01*
X87614366Y-79783302D01*
X87614364Y-79783313D01*
X87594532Y-80009998D01*
X80045468Y-80009998D01*
X80025635Y-79783308D01*
X79966739Y-79563504D01*
X79870568Y-79357266D01*
X79740047Y-79170861D01*
X79740045Y-79170858D01*
X79594319Y-79025132D01*
X79560834Y-78963809D01*
X79558000Y-78937451D01*
X79558000Y-76002549D01*
X79577685Y-75935510D01*
X79594319Y-75914868D01*
X79740045Y-75769141D01*
X79740047Y-75769139D01*
X79870568Y-75582734D01*
X79966739Y-75376496D01*
X80025635Y-75156692D01*
X80045468Y-74930000D01*
X80045468Y-74929998D01*
X87594532Y-74929998D01*
X87594532Y-74930001D01*
X87614364Y-75156686D01*
X87614366Y-75156697D01*
X87673258Y-75376488D01*
X87673261Y-75376497D01*
X87769431Y-75582732D01*
X87769432Y-75582734D01*
X87899954Y-75769141D01*
X88060858Y-75930045D01*
X88060861Y-75930047D01*
X88247266Y-76060568D01*
X88453504Y-76156739D01*
X88673308Y-76215635D01*
X88835230Y-76229801D01*
X88899998Y-76235468D01*
X88900000Y-76235468D01*
X88900002Y-76235468D01*
X88956673Y-76230509D01*
X89126692Y-76215635D01*
X89346496Y-76156739D01*
X89552734Y-76060568D01*
X89739139Y-75930047D01*
X89884868Y-75784317D01*
X89946189Y-75750834D01*
X89972548Y-75748000D01*
X90536592Y-75748000D01*
X90603631Y-75767685D01*
X90639692Y-75803106D01*
X90643442Y-75808718D01*
X90643446Y-75808723D01*
X90786281Y-75951558D01*
X90954237Y-76063782D01*
X90954241Y-76063784D01*
X90954244Y-76063786D01*
X91140873Y-76141091D01*
X91306777Y-76174091D01*
X91338992Y-76180499D01*
X91338996Y-76180500D01*
X91338997Y-76180500D01*
X91541004Y-76180500D01*
X91541005Y-76180499D01*
X91739127Y-76141091D01*
X91925756Y-76063786D01*
X92006110Y-76010094D01*
X92072786Y-75989217D01*
X92140166Y-76007701D01*
X92143865Y-76010078D01*
X92224244Y-76063786D01*
X92410873Y-76141091D01*
X92576777Y-76174091D01*
X92608992Y-76180499D01*
X92608996Y-76180500D01*
X92608997Y-76180500D01*
X92811004Y-76180500D01*
X92811005Y-76180499D01*
X93009127Y-76141091D01*
X93089798Y-76107674D01*
X93159267Y-76100205D01*
X93204658Y-76119962D01*
X93204886Y-76119546D01*
X93209540Y-76122087D01*
X93211562Y-76122967D01*
X93212669Y-76123796D01*
X93212670Y-76123796D01*
X93212671Y-76123797D01*
X93347517Y-76174091D01*
X93347516Y-76174091D01*
X93354444Y-76174835D01*
X93407127Y-76180500D01*
X94552872Y-76180499D01*
X94612483Y-76174091D01*
X94747331Y-76123796D01*
X94862546Y-76037546D01*
X94948796Y-75922331D01*
X94999091Y-75787483D01*
X95005500Y-75727873D01*
X95005499Y-75244426D01*
X95025183Y-75177389D01*
X95077987Y-75131634D01*
X95147146Y-75121690D01*
X95210702Y-75150715D01*
X95248476Y-75209493D01*
X95249274Y-75212335D01*
X95293258Y-75376488D01*
X95293261Y-75376497D01*
X95389431Y-75582732D01*
X95389432Y-75582734D01*
X95519954Y-75769141D01*
X95680858Y-75930045D01*
X95680861Y-75930047D01*
X95867266Y-76060568D01*
X96073504Y-76156739D01*
X96293308Y-76215635D01*
X96455230Y-76229801D01*
X96519998Y-76235468D01*
X96520000Y-76235468D01*
X96520002Y-76235468D01*
X96576673Y-76230509D01*
X96746692Y-76215635D01*
X96966496Y-76156739D01*
X97172734Y-76060568D01*
X97359139Y-75930047D01*
X97520047Y-75769139D01*
X97650568Y-75582734D01*
X97746739Y-75376496D01*
X97805635Y-75156692D01*
X97825468Y-74930000D01*
X97805635Y-74703308D01*
X97746739Y-74483504D01*
X97650568Y-74277266D01*
X97520047Y-74090861D01*
X97520045Y-74090858D01*
X97359141Y-73929954D01*
X97172734Y-73799432D01*
X97172732Y-73799431D01*
X96966497Y-73703261D01*
X96966488Y-73703258D01*
X96746697Y-73644366D01*
X96746693Y-73644365D01*
X96746692Y-73644365D01*
X96746691Y-73644364D01*
X96746686Y-73644364D01*
X96520002Y-73624532D01*
X96519997Y-73624532D01*
X96440917Y-73631450D01*
X96372418Y-73617683D01*
X96342430Y-73595603D01*
X95771448Y-73024620D01*
X95771444Y-73024617D01*
X95637474Y-72935100D01*
X95637461Y-72935093D01*
X95488606Y-72873436D01*
X95488594Y-72873433D01*
X95330570Y-72842000D01*
X95330566Y-72842000D01*
X91861700Y-72842000D01*
X91861680Y-72841999D01*
X91855566Y-72841999D01*
X91694435Y-72841999D01*
X91694433Y-72841999D01*
X91536403Y-72873433D01*
X91536393Y-72873436D01*
X91387536Y-72935094D01*
X91387534Y-72935095D01*
X91307219Y-72988761D01*
X91307218Y-72988762D01*
X91253554Y-73024618D01*
X91196586Y-73081586D01*
X91139618Y-73138555D01*
X91139616Y-73138557D01*
X90804620Y-73473551D01*
X90804617Y-73473555D01*
X90715098Y-73607530D01*
X90715096Y-73607534D01*
X90708057Y-73624529D01*
X90708056Y-73624532D01*
X90653435Y-73756397D01*
X90653433Y-73756405D01*
X90622000Y-73914429D01*
X90622000Y-73988000D01*
X90602315Y-74055039D01*
X90549511Y-74100794D01*
X90498000Y-74112000D01*
X89972548Y-74112000D01*
X89905509Y-74092315D01*
X89884871Y-74075685D01*
X89739139Y-73929953D01*
X89739138Y-73929952D01*
X89739137Y-73929951D01*
X89552734Y-73799432D01*
X89552732Y-73799431D01*
X89346497Y-73703261D01*
X89346488Y-73703258D01*
X89126697Y-73644366D01*
X89126693Y-73644365D01*
X89126692Y-73644365D01*
X89126691Y-73644364D01*
X89126686Y-73644364D01*
X88900002Y-73624532D01*
X88899998Y-73624532D01*
X88673313Y-73644364D01*
X88673302Y-73644366D01*
X88453511Y-73703258D01*
X88453502Y-73703261D01*
X88247267Y-73799431D01*
X88247265Y-73799432D01*
X88060858Y-73929954D01*
X87899954Y-74090858D01*
X87769432Y-74277265D01*
X87769431Y-74277267D01*
X87673261Y-74483502D01*
X87673258Y-74483511D01*
X87614366Y-74703302D01*
X87614364Y-74703313D01*
X87594532Y-74929998D01*
X80045468Y-74929998D01*
X80025635Y-74703308D01*
X79966739Y-74483504D01*
X79870568Y-74277266D01*
X79740047Y-74090861D01*
X79740045Y-74090858D01*
X79594319Y-73945132D01*
X79560834Y-73883809D01*
X79558000Y-73857451D01*
X79558000Y-70922549D01*
X79577685Y-70855510D01*
X79594319Y-70834868D01*
X79740045Y-70689141D01*
X79740047Y-70689139D01*
X79870568Y-70502734D01*
X79966739Y-70296496D01*
X80025635Y-70076692D01*
X80045468Y-69850000D01*
X80038548Y-69770916D01*
X80052314Y-69702420D01*
X80074392Y-69672433D01*
X81582508Y-68164319D01*
X81643831Y-68130834D01*
X81670189Y-68128000D01*
X91276493Y-68128000D01*
X91343532Y-68147685D01*
X91389287Y-68200489D01*
X91399231Y-68269647D01*
X91370206Y-68333203D01*
X91364192Y-68339662D01*
X91080596Y-68623258D01*
X91028696Y-68675158D01*
X90988471Y-68702036D01*
X90954242Y-68716215D01*
X90954236Y-68716218D01*
X90786281Y-68828441D01*
X90643446Y-68971276D01*
X90643442Y-68971281D01*
X90639692Y-68976894D01*
X90586078Y-69021698D01*
X90536592Y-69032000D01*
X89972548Y-69032000D01*
X89905509Y-69012315D01*
X89884871Y-68995685D01*
X89739139Y-68849953D01*
X89739138Y-68849952D01*
X89739137Y-68849951D01*
X89552734Y-68719432D01*
X89552732Y-68719431D01*
X89346497Y-68623261D01*
X89346488Y-68623258D01*
X89126697Y-68564366D01*
X89126693Y-68564365D01*
X89126692Y-68564365D01*
X89126691Y-68564364D01*
X89126686Y-68564364D01*
X88900002Y-68544532D01*
X88899998Y-68544532D01*
X88673313Y-68564364D01*
X88673302Y-68564366D01*
X88453511Y-68623258D01*
X88453502Y-68623261D01*
X88247267Y-68719431D01*
X88247265Y-68719432D01*
X88060858Y-68849954D01*
X87899954Y-69010858D01*
X87769432Y-69197265D01*
X87769431Y-69197267D01*
X87673261Y-69403502D01*
X87673258Y-69403511D01*
X87614366Y-69623302D01*
X87614364Y-69623313D01*
X87594532Y-69849998D01*
X87594532Y-69850001D01*
X87614364Y-70076686D01*
X87614366Y-70076697D01*
X87673258Y-70296488D01*
X87673261Y-70296497D01*
X87769431Y-70502732D01*
X87769432Y-70502734D01*
X87899954Y-70689141D01*
X88060858Y-70850045D01*
X88060861Y-70850047D01*
X88247266Y-70980568D01*
X88453504Y-71076739D01*
X88673308Y-71135635D01*
X88835230Y-71149801D01*
X88899998Y-71155468D01*
X88900000Y-71155468D01*
X88900002Y-71155468D01*
X88956673Y-71150509D01*
X89126692Y-71135635D01*
X89346496Y-71076739D01*
X89552734Y-70980568D01*
X89739139Y-70850047D01*
X89884868Y-70704317D01*
X89946189Y-70670834D01*
X89972548Y-70668000D01*
X90536592Y-70668000D01*
X90603631Y-70687685D01*
X90639692Y-70723106D01*
X90643442Y-70728718D01*
X90643446Y-70728723D01*
X90786281Y-70871558D01*
X90954237Y-70983782D01*
X90954241Y-70983784D01*
X90954244Y-70983786D01*
X91140873Y-71061091D01*
X91306777Y-71094091D01*
X91338992Y-71100499D01*
X91338996Y-71100500D01*
X91338997Y-71100500D01*
X91541004Y-71100500D01*
X91541005Y-71100499D01*
X91739127Y-71061091D01*
X91925756Y-70983786D01*
X92006110Y-70930094D01*
X92072786Y-70909217D01*
X92140166Y-70927701D01*
X92143865Y-70930078D01*
X92224244Y-70983786D01*
X92410873Y-71061091D01*
X92576777Y-71094091D01*
X92608992Y-71100499D01*
X92608996Y-71100500D01*
X92608997Y-71100500D01*
X92811004Y-71100500D01*
X92811005Y-71100499D01*
X93009127Y-71061091D01*
X93089798Y-71027674D01*
X93159267Y-71020205D01*
X93204658Y-71039962D01*
X93204886Y-71039546D01*
X93209540Y-71042087D01*
X93211562Y-71042967D01*
X93212669Y-71043796D01*
X93212670Y-71043796D01*
X93212671Y-71043797D01*
X93347517Y-71094091D01*
X93347516Y-71094091D01*
X93354444Y-71094835D01*
X93407127Y-71100500D01*
X94552872Y-71100499D01*
X94612483Y-71094091D01*
X94747331Y-71043796D01*
X94862546Y-70957546D01*
X94948796Y-70842331D01*
X94999091Y-70707483D01*
X95005500Y-70647873D01*
X95005499Y-70164426D01*
X95025183Y-70097389D01*
X95077987Y-70051634D01*
X95147146Y-70041690D01*
X95210702Y-70070715D01*
X95248476Y-70129493D01*
X95249274Y-70132335D01*
X95293258Y-70296488D01*
X95293261Y-70296497D01*
X95389431Y-70502732D01*
X95389432Y-70502734D01*
X95519954Y-70689141D01*
X95680858Y-70850045D01*
X95680861Y-70850047D01*
X95867266Y-70980568D01*
X96073504Y-71076739D01*
X96293308Y-71135635D01*
X96455230Y-71149801D01*
X96519998Y-71155468D01*
X96520000Y-71155468D01*
X96520002Y-71155468D01*
X96576673Y-71150509D01*
X96746692Y-71135635D01*
X96966496Y-71076739D01*
X97172734Y-70980568D01*
X97359139Y-70850047D01*
X97520047Y-70689139D01*
X97650568Y-70502734D01*
X97746739Y-70296496D01*
X97805635Y-70076692D01*
X97825468Y-69850000D01*
X97805635Y-69623308D01*
X97746739Y-69403504D01*
X97650568Y-69197266D01*
X97520047Y-69010861D01*
X97520045Y-69010858D01*
X97359141Y-68849954D01*
X97172734Y-68719432D01*
X97172732Y-68719431D01*
X96966497Y-68623261D01*
X96966488Y-68623258D01*
X96746697Y-68564366D01*
X96746693Y-68564365D01*
X96746692Y-68564365D01*
X96746691Y-68564364D01*
X96746686Y-68564364D01*
X96520002Y-68544532D01*
X96519997Y-68544532D01*
X96440917Y-68551450D01*
X96372418Y-68537683D01*
X96342430Y-68515603D01*
X95771448Y-67944620D01*
X95771444Y-67944617D01*
X95637474Y-67855100D01*
X95637461Y-67855093D01*
X95488606Y-67793436D01*
X95488594Y-67793433D01*
X95330570Y-67762000D01*
X95330566Y-67762000D01*
X92639189Y-67762000D01*
X92572150Y-67742315D01*
X92526395Y-67689511D01*
X92516451Y-67620353D01*
X92545476Y-67556797D01*
X92551508Y-67550319D01*
X93426830Y-66674997D01*
X95850034Y-66674997D01*
X95850034Y-66675002D01*
X95869858Y-66901599D01*
X95869860Y-66901610D01*
X95928730Y-67121317D01*
X95928735Y-67121331D01*
X96024863Y-67327478D01*
X96075974Y-67400472D01*
X96755000Y-66721446D01*
X96755000Y-66727661D01*
X96782259Y-66829394D01*
X96834920Y-66920606D01*
X96909394Y-66995080D01*
X97000606Y-67047741D01*
X97102339Y-67075000D01*
X97108553Y-67075000D01*
X96429526Y-67754025D01*
X96502513Y-67805132D01*
X96502521Y-67805136D01*
X96708668Y-67901264D01*
X96708682Y-67901269D01*
X96928389Y-67960139D01*
X96928400Y-67960141D01*
X97154998Y-67979966D01*
X97155002Y-67979966D01*
X97381599Y-67960141D01*
X97381610Y-67960139D01*
X97601317Y-67901269D01*
X97601331Y-67901264D01*
X97807478Y-67805136D01*
X97880471Y-67754024D01*
X97201447Y-67075000D01*
X97207661Y-67075000D01*
X97309394Y-67047741D01*
X97400606Y-66995080D01*
X97475080Y-66920606D01*
X97527741Y-66829394D01*
X97555000Y-66727661D01*
X97555000Y-66721447D01*
X98234024Y-67400471D01*
X98285136Y-67327478D01*
X98381264Y-67121331D01*
X98381269Y-67121317D01*
X98440139Y-66901610D01*
X98440141Y-66901599D01*
X98459966Y-66675002D01*
X98459966Y-66674997D01*
X98440141Y-66448400D01*
X98440139Y-66448389D01*
X98381269Y-66228682D01*
X98381264Y-66228668D01*
X98285136Y-66022521D01*
X98285132Y-66022513D01*
X98234025Y-65949526D01*
X97555000Y-66628551D01*
X97555000Y-66622339D01*
X97527741Y-66520606D01*
X97475080Y-66429394D01*
X97400606Y-66354920D01*
X97309394Y-66302259D01*
X97207661Y-66275000D01*
X97201445Y-66275000D01*
X97880472Y-65595974D01*
X97807478Y-65544863D01*
X97601331Y-65448735D01*
X97601317Y-65448730D01*
X97381610Y-65389860D01*
X97381599Y-65389858D01*
X97155002Y-65370034D01*
X97154998Y-65370034D01*
X96928400Y-65389858D01*
X96928389Y-65389860D01*
X96708682Y-65448730D01*
X96708673Y-65448734D01*
X96502516Y-65544866D01*
X96502512Y-65544868D01*
X96429526Y-65595973D01*
X96429526Y-65595974D01*
X97108553Y-66275000D01*
X97102339Y-66275000D01*
X97000606Y-66302259D01*
X96909394Y-66354920D01*
X96834920Y-66429394D01*
X96782259Y-66520606D01*
X96755000Y-66622339D01*
X96755000Y-66628552D01*
X96075974Y-65949526D01*
X96075973Y-65949526D01*
X96024868Y-66022512D01*
X96024866Y-66022516D01*
X95928734Y-66228673D01*
X95928730Y-66228682D01*
X95869860Y-66448389D01*
X95869858Y-66448400D01*
X95850034Y-66674997D01*
X93426830Y-66674997D01*
X94210382Y-65891445D01*
X94299902Y-65757469D01*
X94317962Y-65713866D01*
X94361565Y-65608602D01*
X94393000Y-65450566D01*
X94393000Y-65259079D01*
X94412685Y-65192040D01*
X94442685Y-65159815D01*
X94532546Y-65092546D01*
X94618796Y-64977331D01*
X94669091Y-64842483D01*
X94675500Y-64782873D01*
X94675499Y-64134998D01*
X100246912Y-64134998D01*
X100246912Y-64135001D01*
X100266744Y-64361686D01*
X100266746Y-64361697D01*
X100325638Y-64581488D01*
X100325641Y-64581497D01*
X100421811Y-64787732D01*
X100421812Y-64787734D01*
X100552334Y-64974141D01*
X100713238Y-65135045D01*
X100713241Y-65135047D01*
X100899646Y-65265568D01*
X101105884Y-65361739D01*
X101105889Y-65361740D01*
X101105891Y-65361741D01*
X101158795Y-65375916D01*
X101325688Y-65420635D01*
X101487610Y-65434801D01*
X101552378Y-65440468D01*
X101552380Y-65440468D01*
X101552382Y-65440468D01*
X101614891Y-65434999D01*
X101779072Y-65420635D01*
X101998876Y-65361739D01*
X102205114Y-65265568D01*
X102391519Y-65135047D01*
X102549074Y-64977491D01*
X102610396Y-64944008D01*
X102680087Y-64948992D01*
X102736021Y-64990863D01*
X102757431Y-65036658D01*
X102758782Y-65042378D01*
X102809025Y-65177086D01*
X102809029Y-65177093D01*
X102895189Y-65292187D01*
X102895192Y-65292190D01*
X103010286Y-65378350D01*
X103010293Y-65378354D01*
X103145000Y-65428596D01*
X103145007Y-65428598D01*
X103204535Y-65434999D01*
X103204552Y-65435000D01*
X103802380Y-65435000D01*
X103802380Y-64450686D01*
X103806774Y-64455080D01*
X103897986Y-64507741D01*
X103999719Y-64535000D01*
X104105041Y-64535000D01*
X104206774Y-64507741D01*
X104297986Y-64455080D01*
X104302380Y-64450686D01*
X104302380Y-65435000D01*
X104900208Y-65435000D01*
X104900224Y-65434999D01*
X104959752Y-65428598D01*
X104959759Y-65428596D01*
X105094466Y-65378354D01*
X105094473Y-65378350D01*
X105209567Y-65292190D01*
X105209570Y-65292187D01*
X105295730Y-65177093D01*
X105295734Y-65177086D01*
X105345976Y-65042379D01*
X105345978Y-65042372D01*
X105352379Y-64982844D01*
X105352380Y-64982827D01*
X105352380Y-64385000D01*
X104368066Y-64385000D01*
X104372460Y-64380606D01*
X104425121Y-64289394D01*
X104452380Y-64187661D01*
X104452380Y-64082339D01*
X104425121Y-63980606D01*
X104372460Y-63889394D01*
X104368066Y-63885000D01*
X105352380Y-63885000D01*
X105352380Y-63287172D01*
X105352379Y-63287155D01*
X105345978Y-63227627D01*
X105345976Y-63227620D01*
X105295734Y-63092913D01*
X105295730Y-63092906D01*
X105209570Y-62977812D01*
X105209567Y-62977809D01*
X105094473Y-62891649D01*
X105094466Y-62891645D01*
X104959759Y-62841403D01*
X104959752Y-62841401D01*
X104900224Y-62835000D01*
X104302380Y-62835000D01*
X104302380Y-63819314D01*
X104297986Y-63814920D01*
X104206774Y-63762259D01*
X104105041Y-63735000D01*
X103999719Y-63735000D01*
X103897986Y-63762259D01*
X103806774Y-63814920D01*
X103802380Y-63819314D01*
X103802380Y-62835000D01*
X103204535Y-62835000D01*
X103145007Y-62841401D01*
X103145000Y-62841403D01*
X103010293Y-62891645D01*
X103010286Y-62891649D01*
X102895192Y-62977809D01*
X102895189Y-62977812D01*
X102809029Y-63092906D01*
X102809025Y-63092913D01*
X102758781Y-63227626D01*
X102757430Y-63233343D01*
X102722855Y-63294058D01*
X102660944Y-63326443D01*
X102591352Y-63320214D01*
X102549073Y-63292506D01*
X102391521Y-63134954D01*
X102205114Y-63004432D01*
X102205112Y-63004431D01*
X101998877Y-62908261D01*
X101998868Y-62908258D01*
X101779077Y-62849366D01*
X101779073Y-62849365D01*
X101779072Y-62849365D01*
X101779071Y-62849364D01*
X101779066Y-62849364D01*
X101552382Y-62829532D01*
X101552378Y-62829532D01*
X101325693Y-62849364D01*
X101325682Y-62849366D01*
X101105891Y-62908258D01*
X101105882Y-62908261D01*
X100899647Y-63004431D01*
X100899645Y-63004432D01*
X100713238Y-63134954D01*
X100552334Y-63295858D01*
X100421812Y-63482265D01*
X100421811Y-63482267D01*
X100325641Y-63688502D01*
X100325638Y-63688511D01*
X100266746Y-63908302D01*
X100266744Y-63908313D01*
X100246912Y-64134998D01*
X94675499Y-64134998D01*
X94675499Y-63487128D01*
X94669091Y-63427517D01*
X94639595Y-63348435D01*
X94618797Y-63292671D01*
X94618793Y-63292664D01*
X94532547Y-63177455D01*
X94532544Y-63177452D01*
X94417335Y-63091206D01*
X94417328Y-63091202D01*
X94282482Y-63040908D01*
X94282483Y-63040908D01*
X94222883Y-63034501D01*
X94222881Y-63034500D01*
X94222873Y-63034500D01*
X94222864Y-63034500D01*
X92927129Y-63034500D01*
X92927123Y-63034501D01*
X92867516Y-63040908D01*
X92775083Y-63075384D01*
X92705391Y-63080368D01*
X92644068Y-63046883D01*
X92610584Y-62985559D01*
X92607750Y-62959202D01*
X92607750Y-61674998D01*
X95849532Y-61674998D01*
X95849532Y-61675001D01*
X95869364Y-61901686D01*
X95869366Y-61901697D01*
X95928258Y-62121488D01*
X95928261Y-62121497D01*
X96024431Y-62327732D01*
X96024432Y-62327734D01*
X96154954Y-62514141D01*
X96315858Y-62675045D01*
X96315861Y-62675047D01*
X96502266Y-62805568D01*
X96708504Y-62901739D01*
X96708509Y-62901740D01*
X96708511Y-62901741D01*
X96761415Y-62915916D01*
X96928308Y-62960635D01*
X97090230Y-62974801D01*
X97154998Y-62980468D01*
X97155000Y-62980468D01*
X97155002Y-62980468D01*
X97211673Y-62975509D01*
X97381692Y-62960635D01*
X97601496Y-62901739D01*
X97807734Y-62805568D01*
X97994139Y-62675047D01*
X98155047Y-62514139D01*
X98285568Y-62327734D01*
X98381739Y-62121496D01*
X98440635Y-61901692D01*
X98460468Y-61675000D01*
X98440635Y-61448308D01*
X98381739Y-61228504D01*
X98285568Y-61022266D01*
X98155047Y-60835861D01*
X98155045Y-60835858D01*
X97994141Y-60674954D01*
X97807734Y-60544432D01*
X97807732Y-60544431D01*
X97601497Y-60448261D01*
X97601488Y-60448258D01*
X97381697Y-60389366D01*
X97381693Y-60389365D01*
X97381692Y-60389365D01*
X97381691Y-60389364D01*
X97381686Y-60389364D01*
X97155002Y-60369532D01*
X97154998Y-60369532D01*
X96928313Y-60389364D01*
X96928302Y-60389366D01*
X96708511Y-60448258D01*
X96708502Y-60448261D01*
X96502267Y-60544431D01*
X96502265Y-60544432D01*
X96315858Y-60674954D01*
X96154954Y-60835858D01*
X96024432Y-61022265D01*
X96024431Y-61022267D01*
X95928261Y-61228502D01*
X95928258Y-61228511D01*
X95869366Y-61448302D01*
X95869364Y-61448313D01*
X95849532Y-61674998D01*
X92607750Y-61674998D01*
X92607750Y-58275381D01*
X92627435Y-58208342D01*
X92655584Y-58177530D01*
X92809494Y-58057738D01*
X92977914Y-57874785D01*
X93113923Y-57666607D01*
X93213813Y-57438881D01*
X93274858Y-57197821D01*
X93274859Y-57197812D01*
X93278821Y-57149997D01*
X100834652Y-57149997D01*
X100834652Y-57150002D01*
X100854028Y-57507368D01*
X100854029Y-57507385D01*
X100911926Y-57860539D01*
X100911932Y-57860565D01*
X101007672Y-58205392D01*
X101007674Y-58205399D01*
X101140142Y-58537870D01*
X101140151Y-58537888D01*
X101307784Y-58854077D01*
X101307787Y-58854082D01*
X101307789Y-58854085D01*
X101504968Y-59144903D01*
X101508634Y-59150309D01*
X101508641Y-59150319D01*
X101688445Y-59362000D01*
X101740332Y-59423086D01*
X102000163Y-59669211D01*
X102285081Y-59885800D01*
X102591747Y-60070315D01*
X102591749Y-60070316D01*
X102591751Y-60070317D01*
X102591755Y-60070319D01*
X102916552Y-60220585D01*
X102916565Y-60220591D01*
X103255726Y-60334868D01*
X103605254Y-60411805D01*
X103961052Y-60450500D01*
X103961058Y-60450500D01*
X104318942Y-60450500D01*
X104318948Y-60450500D01*
X104674746Y-60411805D01*
X105024274Y-60334868D01*
X105363435Y-60220591D01*
X105688253Y-60070315D01*
X105994919Y-59885800D01*
X106279837Y-59669211D01*
X106539668Y-59423086D01*
X106771365Y-59150311D01*
X106972211Y-58854085D01*
X107139853Y-58537880D01*
X107272324Y-58205403D01*
X107368071Y-57860552D01*
X107405305Y-57633433D01*
X107425970Y-57507385D01*
X107425970Y-57507382D01*
X107425972Y-57507371D01*
X107445348Y-57150000D01*
X107425972Y-56792629D01*
X107411143Y-56702179D01*
X107368073Y-56439460D01*
X107368072Y-56439459D01*
X107368071Y-56439448D01*
X107272324Y-56094597D01*
X107139853Y-55762120D01*
X106972211Y-55445915D01*
X106771365Y-55149689D01*
X106771361Y-55149684D01*
X106771358Y-55149680D01*
X106539668Y-54876914D01*
X106453126Y-54794937D01*
X106279837Y-54630789D01*
X106279830Y-54630783D01*
X106279827Y-54630781D01*
X106212245Y-54579407D01*
X105994919Y-54414200D01*
X105688253Y-54229685D01*
X105688252Y-54229684D01*
X105688248Y-54229682D01*
X105688244Y-54229680D01*
X105363447Y-54079414D01*
X105363441Y-54079411D01*
X105363435Y-54079409D01*
X105193854Y-54022270D01*
X105024273Y-53965131D01*
X104674744Y-53888194D01*
X104318949Y-53849500D01*
X104318948Y-53849500D01*
X103961052Y-53849500D01*
X103961050Y-53849500D01*
X103605255Y-53888194D01*
X103255726Y-53965131D01*
X102999970Y-54051306D01*
X102916565Y-54079409D01*
X102916563Y-54079410D01*
X102916552Y-54079414D01*
X102591755Y-54229680D01*
X102591751Y-54229682D01*
X102421293Y-54332244D01*
X102285081Y-54414200D01*
X102196768Y-54481333D01*
X102000172Y-54630781D01*
X102000163Y-54630789D01*
X101740331Y-54876914D01*
X101508641Y-55149680D01*
X101508634Y-55149690D01*
X101307790Y-55445913D01*
X101307784Y-55445922D01*
X101140151Y-55762111D01*
X101140142Y-55762129D01*
X101007674Y-56094600D01*
X101007672Y-56094607D01*
X100911932Y-56439434D01*
X100911926Y-56439460D01*
X100854029Y-56792614D01*
X100854028Y-56792631D01*
X100834652Y-57149997D01*
X93278821Y-57149997D01*
X93295393Y-56950005D01*
X93295393Y-56949994D01*
X93274859Y-56702187D01*
X93274857Y-56702175D01*
X93213813Y-56461118D01*
X93113923Y-56233393D01*
X92977916Y-56025217D01*
X92956307Y-56001744D01*
X92809494Y-55842262D01*
X92613259Y-55689526D01*
X92613257Y-55689525D01*
X92613256Y-55689524D01*
X92394561Y-55571172D01*
X92394552Y-55571169D01*
X92159366Y-55490429D01*
X91914085Y-55449500D01*
X91665415Y-55449500D01*
X91420133Y-55490429D01*
X91184947Y-55571169D01*
X91184938Y-55571172D01*
X90966243Y-55689524D01*
X90770007Y-55842261D01*
X90601583Y-56025217D01*
X90465576Y-56233393D01*
X90365686Y-56461118D01*
X90304642Y-56702175D01*
X90304640Y-56702187D01*
X90284107Y-56949994D01*
X90284107Y-56950005D01*
X90304640Y-57197812D01*
X90304642Y-57197824D01*
X90365686Y-57438881D01*
X90465576Y-57666606D01*
X90601583Y-57874782D01*
X90601586Y-57874785D01*
X90770006Y-58057738D01*
X90923913Y-58177529D01*
X90964725Y-58234238D01*
X90971750Y-58275381D01*
X90971750Y-63193000D01*
X90952065Y-63260039D01*
X90899261Y-63305794D01*
X90847750Y-63317000D01*
X89454433Y-63317000D01*
X89410444Y-63325750D01*
X89366455Y-63334500D01*
X89310332Y-63345663D01*
X89296397Y-63348435D01*
X89296396Y-63348435D01*
X89147536Y-63410094D01*
X89083095Y-63453152D01*
X89016417Y-63474029D01*
X89003399Y-63473577D01*
X88900004Y-63464532D01*
X88899998Y-63464532D01*
X88673313Y-63484364D01*
X88673302Y-63484366D01*
X88453511Y-63543258D01*
X88453502Y-63543261D01*
X88247267Y-63639431D01*
X88247265Y-63639432D01*
X88060858Y-63769954D01*
X87899954Y-63930858D01*
X87769432Y-64117265D01*
X87769431Y-64117267D01*
X87673261Y-64323502D01*
X87673258Y-64323511D01*
X87614366Y-64543302D01*
X87614364Y-64543313D01*
X87594532Y-64769998D01*
X87594532Y-64770001D01*
X87614364Y-64996686D01*
X87614366Y-64996697D01*
X87673258Y-65216488D01*
X87673261Y-65216497D01*
X87769431Y-65422732D01*
X87769432Y-65422734D01*
X87899954Y-65609141D01*
X88060858Y-65770045D01*
X88060861Y-65770047D01*
X88247266Y-65900568D01*
X88453504Y-65996739D01*
X88673308Y-66055635D01*
X88835230Y-66069801D01*
X88899998Y-66075468D01*
X88900000Y-66075468D01*
X88900002Y-66075468D01*
X88956673Y-66070509D01*
X89126692Y-66055635D01*
X89346496Y-65996739D01*
X89552734Y-65900568D01*
X89739139Y-65770047D01*
X89900047Y-65609139D01*
X90030568Y-65422734D01*
X90126739Y-65216496D01*
X90172716Y-65044907D01*
X90209081Y-64985246D01*
X90271928Y-64954717D01*
X90292491Y-64953000D01*
X91290737Y-64953000D01*
X91357776Y-64972685D01*
X91374275Y-64985363D01*
X91408957Y-65016980D01*
X91408960Y-65016982D01*
X91449978Y-65042379D01*
X91582363Y-65124348D01*
X91772544Y-65198024D01*
X91973024Y-65235500D01*
X91973026Y-65235500D01*
X92176975Y-65235500D01*
X92176976Y-65235500D01*
X92245433Y-65222703D01*
X92314947Y-65229733D01*
X92369626Y-65273230D01*
X92392109Y-65339383D01*
X92375257Y-65407190D01*
X92355899Y-65432272D01*
X91332492Y-66455681D01*
X91271169Y-66489166D01*
X91244811Y-66492000D01*
X81199429Y-66492000D01*
X81041405Y-66523433D01*
X81041393Y-66523436D01*
X80936132Y-66567037D01*
X80892533Y-66585096D01*
X80892528Y-66585099D01*
X80758559Y-66674614D01*
X80758551Y-66674620D01*
X78917568Y-68515603D01*
X78856245Y-68549088D01*
X78819080Y-68551450D01*
X78740002Y-68544532D01*
X78739998Y-68544532D01*
X78513313Y-68564364D01*
X78513302Y-68564366D01*
X78293511Y-68623258D01*
X78293502Y-68623261D01*
X78087267Y-68719431D01*
X78087265Y-68719432D01*
X77900858Y-68849954D01*
X77739953Y-69010859D01*
X77695575Y-69074239D01*
X77640998Y-69117864D01*
X77571500Y-69125058D01*
X77509145Y-69093535D01*
X77473731Y-69033305D01*
X77470000Y-69003116D01*
X77470000Y-65616883D01*
X77489685Y-65549844D01*
X77542489Y-65504089D01*
X77611647Y-65494145D01*
X77675203Y-65523170D01*
X77695575Y-65545760D01*
X77739954Y-65609141D01*
X77900858Y-65770045D01*
X77900861Y-65770047D01*
X78087266Y-65900568D01*
X78293504Y-65996739D01*
X78513308Y-66055635D01*
X78675230Y-66069801D01*
X78739998Y-66075468D01*
X78740000Y-66075468D01*
X78740002Y-66075468D01*
X78796673Y-66070509D01*
X78966692Y-66055635D01*
X79186496Y-65996739D01*
X79392734Y-65900568D01*
X79579139Y-65770047D01*
X79740047Y-65609139D01*
X79870568Y-65422734D01*
X79966739Y-65216496D01*
X80025635Y-64996692D01*
X80042634Y-64802384D01*
X80045468Y-64770001D01*
X80045468Y-64769998D01*
X80025635Y-64543313D01*
X80025635Y-64543308D01*
X79966739Y-64323504D01*
X79870568Y-64117266D01*
X79740047Y-63930861D01*
X79740045Y-63930858D01*
X79579141Y-63769954D01*
X79392734Y-63639432D01*
X79392732Y-63639431D01*
X79186497Y-63543261D01*
X79186488Y-63543258D01*
X78966697Y-63484366D01*
X78966693Y-63484365D01*
X78966692Y-63484365D01*
X78966691Y-63484364D01*
X78966686Y-63484364D01*
X78740002Y-63464532D01*
X78739998Y-63464532D01*
X78513313Y-63484364D01*
X78513302Y-63484366D01*
X78293511Y-63543258D01*
X78293502Y-63543261D01*
X78087267Y-63639431D01*
X78087265Y-63639432D01*
X77900858Y-63769954D01*
X77739953Y-63930859D01*
X77695575Y-63994239D01*
X77640998Y-64037864D01*
X77571500Y-64045058D01*
X77509145Y-64013535D01*
X77473731Y-63953305D01*
X77470000Y-63923116D01*
X77470000Y-59362000D01*
X77489685Y-59294961D01*
X77542489Y-59249206D01*
X77594000Y-59238000D01*
X78820567Y-59238000D01*
X78820568Y-59237999D01*
X78978602Y-59206565D01*
X79105666Y-59153932D01*
X79127466Y-59144903D01*
X79127466Y-59144902D01*
X79127468Y-59144902D01*
X79261445Y-59055382D01*
X79375382Y-58941445D01*
X79464902Y-58807468D01*
X79526565Y-58658602D01*
X79558000Y-58500566D01*
X79558000Y-58339434D01*
X79526565Y-58181398D01*
X79475343Y-58057738D01*
X79464903Y-58032533D01*
X79375380Y-57898552D01*
X79261447Y-57784619D01*
X79127466Y-57695096D01*
X78978602Y-57633435D01*
X78978594Y-57633433D01*
X78820570Y-57602000D01*
X78820566Y-57602000D01*
X77594000Y-57602000D01*
X77526961Y-57582315D01*
X77481206Y-57529511D01*
X77470000Y-57478000D01*
X77470000Y-49024500D01*
X77489685Y-48957461D01*
X77542489Y-48911706D01*
X77594000Y-48900500D01*
X79460973Y-48900500D01*
X79528012Y-48920185D01*
X79548654Y-48936819D01*
X81555666Y-50943831D01*
X81589151Y-51005154D01*
X81584167Y-51074846D01*
X81542295Y-51130779D01*
X81506304Y-51149443D01*
X81332946Y-51205770D01*
X81129521Y-51309421D01*
X80944811Y-51443622D01*
X80783372Y-51605061D01*
X80649171Y-51789771D01*
X80545520Y-51993196D01*
X80474965Y-52210339D01*
X80439250Y-52435837D01*
X80439250Y-53964162D01*
X80474965Y-54189660D01*
X80545520Y-54406803D01*
X80649171Y-54610228D01*
X80783371Y-54794937D01*
X80944813Y-54956379D01*
X81129522Y-55090579D01*
X81225634Y-55139550D01*
X81332946Y-55194229D01*
X81332948Y-55194229D01*
X81332951Y-55194231D01*
X81449342Y-55232049D01*
X81550089Y-55264784D01*
X81775588Y-55300500D01*
X81775593Y-55300500D01*
X82003912Y-55300500D01*
X82229410Y-55264784D01*
X82446549Y-55194231D01*
X82649978Y-55090579D01*
X82834687Y-54956379D01*
X82996129Y-54794937D01*
X83130329Y-54610228D01*
X83233981Y-54406799D01*
X83233980Y-54406799D01*
X83236193Y-54402458D01*
X83237639Y-54403194D01*
X83277017Y-54354317D01*
X83343308Y-54332244D01*
X83411009Y-54349514D01*
X83458627Y-54400645D01*
X83471750Y-54456164D01*
X83471750Y-55624617D01*
X83452065Y-55691656D01*
X83423913Y-55722470D01*
X83270008Y-55842260D01*
X83101583Y-56025217D01*
X82965576Y-56233393D01*
X82865686Y-56461118D01*
X82804642Y-56702175D01*
X82804640Y-56702187D01*
X82784107Y-56949994D01*
X82784107Y-56950005D01*
X82804640Y-57197812D01*
X82804642Y-57197824D01*
X82865686Y-57438881D01*
X82965576Y-57666606D01*
X83101583Y-57874782D01*
X83101586Y-57874785D01*
X83270006Y-58057738D01*
X83466241Y-58210474D01*
X83684940Y-58328828D01*
X83920136Y-58409571D01*
X84165415Y-58450500D01*
X84414085Y-58450500D01*
X84659364Y-58409571D01*
X84894560Y-58328828D01*
X85113259Y-58210474D01*
X85309494Y-58057738D01*
X85477914Y-57874785D01*
X85613923Y-57666607D01*
X85713813Y-57438881D01*
X85774858Y-57197821D01*
X85774859Y-57197812D01*
X85795393Y-56950005D01*
X85795393Y-56949994D01*
X85774859Y-56702187D01*
X85774857Y-56702175D01*
X85713813Y-56461118D01*
X85613923Y-56233393D01*
X85477916Y-56025217D01*
X85457610Y-56003159D01*
X85309494Y-55842262D01*
X85276781Y-55816800D01*
X85155587Y-55722470D01*
X85114774Y-55665759D01*
X85107750Y-55624617D01*
X85107750Y-52440521D01*
X85107749Y-52440517D01*
X85106818Y-52435837D01*
X92739250Y-52435837D01*
X92739250Y-53964162D01*
X92774965Y-54189660D01*
X92845520Y-54406803D01*
X92949171Y-54610228D01*
X93083371Y-54794937D01*
X93244813Y-54956379D01*
X93429522Y-55090579D01*
X93525634Y-55139550D01*
X93632946Y-55194229D01*
X93632948Y-55194229D01*
X93632951Y-55194231D01*
X93749342Y-55232049D01*
X93850089Y-55264784D01*
X94075588Y-55300500D01*
X94075593Y-55300500D01*
X94303912Y-55300500D01*
X94529410Y-55264784D01*
X94746549Y-55194231D01*
X94949978Y-55090579D01*
X95134687Y-54956379D01*
X95296129Y-54794937D01*
X95430329Y-54610228D01*
X95533981Y-54406799D01*
X95604534Y-54189660D01*
X95640250Y-53964162D01*
X95640250Y-52435837D01*
X95604534Y-52210339D01*
X95536074Y-51999643D01*
X95533981Y-51993201D01*
X95533979Y-51993198D01*
X95533979Y-51993196D01*
X95430328Y-51789771D01*
X95296129Y-51605063D01*
X95134687Y-51443621D01*
X94949978Y-51309421D01*
X94746553Y-51205770D01*
X94529410Y-51135215D01*
X94303912Y-51099500D01*
X94303907Y-51099500D01*
X94075593Y-51099500D01*
X94075588Y-51099500D01*
X93850089Y-51135215D01*
X93632946Y-51205770D01*
X93429521Y-51309421D01*
X93244811Y-51443622D01*
X93083372Y-51605061D01*
X92949171Y-51789771D01*
X92845520Y-51993196D01*
X92774965Y-52210339D01*
X92739250Y-52435837D01*
X85106818Y-52435837D01*
X85076316Y-52282493D01*
X85076315Y-52282486D01*
X85016978Y-52139237D01*
X85015334Y-52134639D01*
X84925132Y-51999642D01*
X84925129Y-51999639D01*
X84425423Y-51499934D01*
X84391938Y-51438611D01*
X84396922Y-51368920D01*
X84438793Y-51312986D01*
X84503372Y-51288636D01*
X84540898Y-51285683D01*
X84785861Y-51226873D01*
X85018609Y-51130466D01*
X85233409Y-50998836D01*
X85424974Y-50835224D01*
X85588586Y-50643659D01*
X85720216Y-50428859D01*
X85816623Y-50196111D01*
X85875433Y-49951148D01*
X85895199Y-49700000D01*
X85875433Y-49448852D01*
X85816623Y-49203889D01*
X85720216Y-48971141D01*
X85720216Y-48971140D01*
X85588589Y-48756346D01*
X85588588Y-48756343D01*
X85458427Y-48603945D01*
X85424974Y-48564776D01*
X85298321Y-48456604D01*
X85233406Y-48401161D01*
X85233403Y-48401160D01*
X85018609Y-48269533D01*
X84785860Y-48173126D01*
X84540901Y-48114317D01*
X84289750Y-48094551D01*
X84038598Y-48114317D01*
X83793639Y-48173126D01*
X83560890Y-48269533D01*
X83346096Y-48401160D01*
X83346093Y-48401161D01*
X83154526Y-48564776D01*
X82990911Y-48756343D01*
X82990910Y-48756346D01*
X82859283Y-48971140D01*
X82762876Y-49203889D01*
X82706313Y-49439496D01*
X82704067Y-49448852D01*
X82701114Y-49486376D01*
X82676229Y-49551664D01*
X82619997Y-49593134D01*
X82550271Y-49597619D01*
X82489815Y-49564326D01*
X80372610Y-47447120D01*
X80372606Y-47447117D01*
X80238636Y-47357600D01*
X80238623Y-47357593D01*
X80089768Y-47295936D01*
X80089756Y-47295933D01*
X79931732Y-47264500D01*
X79931728Y-47264500D01*
X77594000Y-47264500D01*
X77526961Y-47244815D01*
X77481206Y-47192011D01*
X77470000Y-47140500D01*
X77470000Y-44774500D01*
X77489685Y-44707461D01*
X77542489Y-44661706D01*
X77594000Y-44650500D01*
X105370118Y-44650500D01*
X105406249Y-44650500D01*
X105413736Y-44650726D01*
G37*
G04 #@! TD.AperFunction*
M02*
